<svg xmlns="http://www.w3.org/2000/svg" xmlns:xlink="http://www.w3.org/1999/xlink" width="27" height="27" viewBox="0 0 27 27">
    <defs>
        <path id="a" d="M13.743 10.255a.675.675 0 0 1-.954.955 3.624 3.624 0 0 0-5.12 0l-4.91 4.908a3.624 3.624 0 0 0 0 5.12 3.624 3.624 0 0 0 5.121 0l4.142-4.14a.675.675 0 0 1 .955.954l-4.142 4.141a4.952 4.952 0 0 1-3.261 1.448l-.255.005-.253-.005a4.952 4.952 0 0 1-3.26-1.448 4.975 4.975 0 0 1 0-7.03l4.908-4.908a4.975 4.975 0 0 1 7.03 0zm8.1-8.1a4.976 4.976 0 0 1 0 7.03l-4.908 4.908a4.952 4.952 0 0 1-3.261 1.448l-.255.005-.253-.005a4.952 4.952 0 0 1-3.26-1.448.675.675 0 0 1 .954-.954 3.624 3.624 0 0 0 5.12 0L20.89 8.23a3.624 3.624 0 0 0 0-5.12 3.624 3.624 0 0 0-5.12 0l-4.142 4.142a.675.675 0 0 1-.955-.955l4.142-4.142a4.975 4.975 0 0 1 7.03 0z"/>
    </defs>
    <g fill="none" fill-rule="evenodd" transform="translate(1 2)">
        <mask id="b" fill="#fff">
            <use xlink:href="#a"/>
        </mask>
        <path fill="#0B84C9" d="M-1-2h27v27H-1z" mask="url(#b)"/>
    </g>
</svg>
