<?xml version="1.0" encoding="UTF-8"?>
<svg width="463px" height="435px" viewBox="0 0 463 435" version="1.1" xmlns="http://www.w3.org/2000/svg" xmlns:xlink="http://www.w3.org/1999/xlink">
    <!-- Generator: Sketch 56.3 (81716) - https://sketch.com -->
    <title>Pencil 2</title>
    <desc>Created with Sketch.</desc>
    <g id="Symbols" stroke="none" stroke-width="1" fill="none" fill-rule="evenodd">
        <path d="M462.3849,151.761618 C450.009675,118.679754 431.739743,88.7893602 408.032768,62.8928627 C384.472245,37.1787349 356.261859,16.3338782 324.152179,0.960112387 C320.54579,-0.7541628 316.207139,-0.152342787 313.241479,2.60143969 L106.999944,190.241625 L83.1831296,211.907145 C81.9016714,212.946652 80.7849722,214.296188 80.10763,215.973989 C79.9977908,216.229307 79.8879515,216.539336 79.7781122,216.831127 L24.3275879,360.374318 L0.657225387,421.668775 C-0.697458932,425.152036 0.0897224965,429.036511 2.5794126,431.826767 C4.48329326,433.887545 7.11943572,435 9.82880436,435 C10.7258251,435 11.6594588,434.890578 12.538173,434.617024 L75.9703509,416.708319 L225.132078,374.544444 C226.065712,374.289127 226.999346,373.869676 227.841447,373.340804 C228.299111,373.012539 228.775081,372.666036 229.196131,372.301297 L253.543836,350.143378 L459.748757,162.503193 C462.769337,159.749411 463.776197,155.500197 462.3849,151.761618 L462.3849,151.761618 Z M39.7087379,377 C40.0938511,377.264739 40.570658,377.397108 40.9557713,377.624027 C45.1736785,380.365962 49.1165049,383.391546 52.3807983,387.116796 C55.6450917,390.804227 58.2125135,395.096774 60.4681769,399.67297 C60.7249191,400.070078 60.8349515,400.599555 61,401.034483 L27,411 L39.7087379,377 L39.7087379,377 Z M217.619602,355.933756 L79.4706746,395 C79.0861647,394.142404 78.3903848,393.503768 77.9692549,392.682666 C74.7833154,385.767156 70.956526,379.289568 65.9578968,373.797303 C60.9226476,368.305038 54.7704886,363.962317 48.1422697,360.14875 C47.3183198,359.692582 46.8239499,358.944466 46,358.506545 L97.5609517,225.013487 L113.014589,211 L125.502007,224.612059 L233,341.938516 L217.619602,355.933756 L217.619602,355.933756 Z M248.622252,328 L217.502945,294.102884 L380.947752,145.660021 C383.046708,143.717337 384.123564,141.084728 384.123564,138.39765 C384.123564,136.091848 383.302233,133.713421 381.550061,131.843361 C377.917954,127.867213 371.675841,127.631185 367.678698,131.244215 L204.233891,279.687077 L197.845764,272.697045 L173.351857,245.953364 L336.723657,97.510502 C338.859117,95.5678177 339.935973,92.9352083 339.935973,90.248131 C339.935973,87.9423282 339.078139,85.5639017 337.36247,83.6938412 C333.69386,79.7176931 327.451746,79.4816661 323.454604,83.0946956 L160.0463,231.57387 L129,197.713065 L322.359496,22 C349.627675,35.9074404 373.756546,54.1359915 394.089043,76.3588466 C414.549303,98.6361695 430.592629,124.163403 442,152.323247 L248.622252,328 L248.622252,328 Z" id="Pencil-2" fill="white"></path>
    </g>
</svg>
