<svg xmlns="http://www.w3.org/2000/svg" xmlns:xlink="http://www.w3.org/1999/xlink" width="154" height="23" viewBox="0 0 154 23">
    <defs>
        <path id="prefix__a" d="M9 18c1.379 0 2.5 1.121 2.5 2.5S10.379 23 9 23s-2.5-1.121-2.5-2.5S7.621 18 9 18zm8.75 0c1.379 0 2.5 1.121 2.5 2.5s-1.121 2.5-2.5 2.5-2.5-1.121-2.5-2.5 1.121-2.5 2.5-2.5zM9 19.25c-.689 0-1.25.561-1.25 1.25s.561 1.25 1.25 1.25 1.25-.561 1.25-1.25-.561-1.25-1.25-1.25zm8.75 0c-.689 0-1.25.561-1.25 1.25s.561 1.25 1.25 1.25S19 21.189 19 20.5s-.561-1.25-1.25-1.25zM2.125.5c.999 0 1.909.771 2.072 1.755l1.367 8.198 12.762-1.094c.408-.035.851-.431.931-.833l1.005-5.024c.068-.338.397-.557.735-.49.34.07.56.398.492.737l-1.005 5.024c-.189.944-1.09 1.75-2.05 1.832L5.77 11.69l.516 3.099c.063.379.455.711.839.711h12.5c.345 0 .625.28.625.625s-.28.625-.625.625h-12.5c-.999 0-1.909-.771-2.073-1.755L2.964 2.461c-.063-.379-.455-.711-.839-.711H.875C.53 1.75.25 1.47.25 1.125S.53.5.875.5z"/>
    </defs>
    <g fill="none" fill-rule="evenodd">
        <text fill="#ABB0B9" font-family="OpenSans, Open Sans" font-size="14">
            <tspan x="34" y="16">Your cart is empty.</tspan>
        </text>
        <mask id="prefix__b" fill="#fff">
            <use xlink:href="#prefix__a"/>
        </mask>
        <path fill="#ABB0B9" d="M-1 -2H24V23H-1z" mask="url(#prefix__b)"/>
    </g>
</svg>
