<?xml version="1.0" encoding="utf-8"?>
<!-- Generator: Adobe Illustrator 22.1.0, SVG Export Plug-In . SVG Version: 6.00 Build 0)  -->
<svg version="1.1" id="Layer_1" xmlns="http://www.w3.org/2000/svg" xmlns:xlink="http://www.w3.org/1999/xlink" x="0px" y="0px"
	 viewBox="0 0 211.4 19.1" style="enable-background:new 0 0 211.4 19.1;" xml:space="preserve">
<style type="text/css">
	.st0{fill:#39455B;}
	.st1{fill:none;stroke:#39455B;stroke-width:0.5;stroke-miterlimit:10;}
	.st2{fill:none;stroke:#39455B;stroke-width:0.4629;stroke-miterlimit:10;}
</style>
<g>
	<path class="st0" d="M78.2,14.5h-1.6v-10h5.6v1.4h-4V9H82v1.4h-3.8V14.5z"/>
	<path class="st0" d="M87.2,14.6c-1.2,0-2.1-0.3-2.8-1s-1-1.6-1-2.8c0-1.2,0.3-2.2,0.9-2.9s1.5-1.1,2.5-1.1c1,0,1.8,0.3,2.4,0.9
		s0.9,1.4,0.9,2.5v0.9h-5c0,0.7,0.2,1.3,0.6,1.7s0.9,0.6,1.6,0.6c0.4,0,0.9,0,1.2-0.1s0.8-0.2,1.2-0.4v1.3c-0.4,0.2-0.8,0.3-1.2,0.4
		C88.1,14.6,87.7,14.6,87.2,14.6z M86.9,8c-0.5,0-0.9,0.2-1.2,0.5s-0.5,0.8-0.6,1.4h3.4c0-0.6-0.2-1.1-0.5-1.4S87.4,8,86.9,8z"/>
	<path class="st0" d="M96.7,14.5l-0.3-1.1h-0.1c-0.4,0.5-0.7,0.8-1.1,0.9s-0.8,0.2-1.4,0.2c-0.7,0-1.3-0.2-1.7-0.6
		c-0.4-0.4-0.6-1-0.6-1.7c0-0.8,0.3-1.4,0.9-1.8c0.6-0.4,1.5-0.6,2.6-0.6l1.3,0V9.5c0-0.5-0.1-0.8-0.3-1.1c-0.2-0.2-0.6-0.4-1-0.4
		c-0.4,0-0.8,0.1-1.1,0.2s-0.7,0.2-1,0.4l-0.5-1.1C92.6,7.3,93,7.1,93.5,7c0.5-0.1,0.9-0.2,1.4-0.2c1,0,1.7,0.2,2.2,0.6
		c0.5,0.4,0.7,1.1,0.7,2v5.1H96.7z M94.3,13.4c0.6,0,1.1-0.2,1.4-0.5s0.5-0.8,0.5-1.4v-0.7l-1,0c-0.8,0-1.3,0.2-1.7,0.4
		s-0.5,0.6-0.5,1c0,0.3,0.1,0.6,0.3,0.8C93.6,13.3,93.9,13.4,94.3,13.4z"/>
	<path class="st0" d="M102.9,13.4c0.4,0,0.8-0.1,1.2-0.2v1.2c-0.2,0.1-0.4,0.1-0.7,0.2c-0.3,0.1-0.6,0.1-0.9,0.1
		c-1.5,0-2.3-0.8-2.3-2.4V8.2h-1V7.5l1.1-0.6l0.5-1.6h1V7h2.2v1.2h-2.2v4c0,0.4,0.1,0.7,0.3,0.9C102.3,13.3,102.6,13.4,102.9,13.4z"
		/>
	<path class="st0" d="M110.9,14.5l-0.2-1h-0.1c-0.2,0.4-0.5,0.6-1,0.8c-0.4,0.2-0.9,0.3-1.4,0.3c-0.9,0-1.6-0.2-2.1-0.7
		c-0.5-0.5-0.7-1.1-0.7-2.1V7h1.6v4.7c0,0.6,0.1,1,0.4,1.3s0.6,0.4,1.1,0.4c0.7,0,1.2-0.2,1.5-0.6c0.3-0.4,0.5-1.1,0.5-2V7h1.6v7.6
		H110.9z"/>
	<path class="st0" d="M118.3,6.8c0.3,0,0.6,0,0.8,0.1l-0.2,1.5c-0.2-0.1-0.5-0.1-0.7-0.1c-0.6,0-1.2,0.2-1.6,0.6
		c-0.4,0.4-0.6,1-0.6,1.6v4h-1.6V7h1.3l0.2,1.3h0.1c0.3-0.5,0.6-0.8,1-1.1C117.4,6.9,117.8,6.8,118.3,6.8z"/>
	<path class="st0" d="M123.8,14.6c-1.2,0-2.1-0.3-2.8-1c-0.7-0.7-1-1.6-1-2.8c0-1.2,0.3-2.2,0.9-2.9s1.5-1.1,2.5-1.1
		c1,0,1.8,0.3,2.4,0.9s0.9,1.4,0.9,2.5v0.9h-5c0,0.7,0.2,1.3,0.6,1.7s0.9,0.6,1.6,0.6c0.4,0,0.9,0,1.2-0.1c0.4-0.1,0.8-0.2,1.2-0.4
		v1.3c-0.4,0.2-0.8,0.3-1.2,0.4C124.8,14.6,124.3,14.6,123.8,14.6z M123.5,8c-0.5,0-0.9,0.2-1.2,0.5c-0.3,0.3-0.5,0.8-0.6,1.4h3.4
		c0-0.6-0.2-1.1-0.5-1.4S124,8,123.5,8z"/>
	<path class="st0" d="M131.1,14.6c-0.9,0-1.7-0.3-2.2-1s-0.8-1.6-0.8-2.9c0-1.2,0.3-2.2,0.8-2.9c0.5-0.7,1.3-1,2.2-1
		c1,0,1.8,0.4,2.3,1.1h0.1c-0.1-0.5-0.1-1-0.1-1.3V3.9h1.6v10.6h-1.3l-0.3-1h-0.1C132.9,14.3,132.1,14.6,131.1,14.6z M131.5,13.4
		c0.7,0,1.1-0.2,1.4-0.6s0.5-1,0.5-1.8v-0.2c0-1-0.2-1.6-0.5-2s-0.8-0.6-1.5-0.6c-0.6,0-1,0.2-1.3,0.7s-0.5,1.1-0.5,2
		c0,0.8,0.1,1.5,0.4,1.9S130.9,13.4,131.5,13.4z"/>
</g>
<line class="st1" x1="1.1" y1="8.5" x2="71.1" y2="8.5"/>
<line class="st2" x1="11.1" y1="10.5" x2="71.1" y2="10.5"/>
<line class="st1" x1="140.1" y1="8.5" x2="210.1" y2="8.5"/>
<line class="st2" x1="140.1" y1="10.5" x2="200.1" y2="10.5"/>
</svg>
