<svg xmlns="http://www.w3.org/2000/svg" width="23" height="19" viewBox="0 0 23 19">
    <path fill="#0B84C9" fill-rule="evenodd" d="M.826 18.168V3.628h12c.021.004.038.016.06.016.021 0 .044-.012.067-.016h9.222v8.507h.001c.291 0 .566.066.824.18V3.214a.416.416 0 0 0-.413-.417h-9.455L11.87.23A.411.411 0 0 0 11.5 0H1.8a.41.41 0 0 0-.369.23L.044 3.032c-.014.03.001.06-.006.09-.008.032-.038.054-.038.09v15.373c0 .228.186.415.413.415h15.752l-.823-.832H.826zM1.961 1h9.083L12 3H1l.961-2zm20.913 13.128a.438.438 0 0 1 .001.613l-.306.31-3.485 3.513-.302.307a.434.434 0 0 1-.306.129.428.428 0 0 1-.304-.13l-.302-.306-1.743-1.758a.437.437 0 0 1 .305-.744c.11 0 .22.043.303.128l1.74 1.76 3.79-3.822a.434.434 0 0 1 .303-.128h.001a.43.43 0 0 1 .305.128z"/>
</svg>
