<svg xmlns="http://www.w3.org/2000/svg" xmlns:xlink="http://www.w3.org/1999/xlink" width="27" height="27" viewBox="0 0 27 27">
    <defs>
        <path id="prefix__a" d="M25.105 17.517l-6.123-5.565.716-.796c.605.228 1.242.344 1.9.344 2.979 0 5.4-2.422 5.4-5.4 0-.863-.209-1.721-.603-2.483-.098-.191-.283-.324-.495-.356-.212-.032-.428.038-.58.19L22.67 6.1H21.6V5.03l2.649-2.65c.152-.152.222-.366.19-.58-.032-.213-.165-.397-.356-.495C23.32.909 22.463.7 21.6.7c-2.978 0-5.4 2.422-5.4 5.4 0 .66.116 1.296.344 1.901l-.958.863-3.332-3.03c-.128-.116-.2-.271-.204-.438-.004-.168.06-.326.184-.449l3.095-3.095c.193-.193.251-.483.146-.736C15.37.865 15.125.7 14.851.7c-.055 0-1.386.001-2.824.085-2.746.162-3.415.474-3.729.787L3.573 6.297c-.126.127-.197.298-.197.478v.675h-.675c-.18 0-.35.072-.478.197l-1.35 1.35c-.263.263-.263.691 0 .955l2.7 2.7c.264.263.692.263.955 0l1.35-1.35c.127-.127.197-.299.197-.478v-.675h.675c.18 0 .351-.072.478-.197l1.07-1.071c.12-.119.273-.184.434-.184.171 0 .332.073.452.204l2.858 3.144-6.09 5.473c-.406.365-.637.863-.652 1.402-.015.538.19 1.049.577 1.435l1.466 1.466c.374.374.862.578 1.38.578.018 0 .036 0 .053-.002.539-.015 1.037-.245 1.402-.652l5.31-5.907 5.378 5.915c.374.41.903.647 1.45.647.523 0 1.016-.205 1.389-.58l1.466-1.465c.386-.386.591-.895.578-1.434-.014-.539-.242-1.038-.646-1.405l.002.001zm-7.143-9.636c-.274-.558-.412-1.157-.412-1.781 0-2.233 1.817-4.05 4.05-4.05.328 0 .647.038.957.113l-2.11 2.11c-.127.127-.197.299-.197.478v2.025c0 .373.302.675.675.675h2.025c.18 0 .351-.071.478-.197l2.11-2.11c.076.31.113.63.113.957 0 2.233-1.817 4.05-4.05 4.05-.625 0-1.224-.139-1.78-.411-.272-.134-.598-.07-.8.155l-1.035 1.151-1.396-1.269 1.218-1.094c.224-.203.287-.528.155-.8l-.001-.002zM8.73 7.349c-.522 0-1.015.205-1.387.579L6.47 8.8H5.4c-.373 0-.675.302-.675.675v1.07l-.675.676-1.746-1.746.675-.675H4.05c.373 0 .675-.302.675-.675v-1.07l4.509-4.51c.085-.048.621-.287 3.001-.42.33-.018.652-.032.953-.043l-1.91 1.91c-.386.387-.591.896-.578 1.434.014.539.242 1.038.645 1.406l1.178 1.07-1.27 1.27-1.07-1.178c-.374-.41-.903-.647-1.451-.647l-.002.002zm.446 13.496c-.115.128-.269.2-.433.205-.165.004-.323-.06-.445-.182l-1.466-1.466c-.121-.122-.186-.28-.182-.445.004-.164.077-.318.205-.433l6.096-5.478 1.626 1.789-5.401 6.008v.002zm15.042-1.442l-1.466 1.466c-.12.119-.273.184-.434.184-.171 0-.332-.073-.452-.204l-9.704-10.675 1.36-1.36 10.675 9.703c.129.116.2.272.204.44.004.166-.06.324-.183.447v-.001z"/>
    </defs>
    <g fill="none" fill-rule="evenodd" transform="translate(0 2)">
        <mask id="prefix__b" fill="#fff">
            <use xlink:href="#prefix__a"/>
        </mask>
        <path fill="#0B84C9" d="M0 -2H27V25H0z" mask="url(#prefix__b)"/>
    </g>
</svg>
