<svg xmlns="http://www.w3.org/2000/svg" width="29" height="22" viewBox="0 0 29 22">
    <path fill="#0B84C9" fill-rule="nonzero" stroke="#0B84C9" d="M27.402 10.968L23.76 2.642C23.357 1.72 22.254 1 21.25 1H7.75c-1.004 0-2.107.72-2.51 1.642l-3.642 8.326C1.263 11.735 1 12.99 1 13.826v5.4c0 1.117.909 2.025 2.025 2.025h22.95A2.027 2.027 0 0 0 28 19.226v-5.4c0-.835-.262-2.09-.598-2.858zM6.477 3.184c.19-.436.798-.833 1.273-.833h13.5c.475 0 1.083.397 1.273.833l3.642 8.327c.04.093.081.2.12.315a1.967 1.967 0 0 0-.31-.025h-8.1a.675.675 0 0 0-.675.675v.675c0 1.49-1.21 2.7-2.7 2.7-1.49 0-2.7-1.21-2.7-2.7v-.675a.675.675 0 0 0-.675-.675h-8.1c-.105 0-.21.008-.31.025a3.69 3.69 0 0 1 .12-.315l3.642-8.327zM26.65 19.226a.675.675 0 0 1-.675.675H3.025a.675.675 0 0 1-.675-.675v-5.4c0-.372.302-.675.675-.675h7.425a4.055 4.055 0 0 0 4.05 4.05 4.055 4.055 0 0 0 4.05-4.05h7.425c.373 0 .675.303.675.675v5.4z"/>
</svg>
