<svg xmlns="http://www.w3.org/2000/svg" width="36" height="34" viewBox="0 0 36 34">
    <path fill="#0B84C9" fill-rule="nonzero" d="M4.471 33.088c0 .504.406.912.907.912a.909.909 0 0 0 .908-.912v-22.35a5.414 5.414 0 0 0 4.486-5.328c0-2.987-2.42-5.41-5.386-5.41S0 2.423 0 5.41a5.407 5.407 0 0 0 4.486 5.328v22.35H4.47zM1.701 5.286c0-1.966 1.592-3.572 3.543-3.572 1.95 0 3.543 1.606 3.543 3.572S7.195 8.857 5.244 8.857c-1.95 0-3.543-1.598-3.543-3.571zM23.244 28.59c0 2.98-2.431 5.41-5.393 5.41-2.962 0-5.379-2.423-5.379-5.41a5.412 5.412 0 0 1 4.48-5.328V.912c0-.504.405-.912.906-.912s.907.408.907.912v22.35a5.405 5.405 0 0 1 4.48 5.328zm-8.787-.161C14.457 30.395 16.049 32 18 32c1.95 0 3.543-1.605 3.543-3.571 0-1.967-1.592-3.572-3.543-3.572-1.95 0-3.543 1.605-3.543 3.572zM30.607 34a.887.887 0 0 1-.893-.912v-22.35a5.407 5.407 0 0 1-4.486-5.328c0-2.987 2.42-5.41 5.386-5.41S36 2.423 36 5.41a5.414 5.414 0 0 1-4.486 5.328v22.35a.909.909 0 0 1-.907.912zM26.929 5.286c0 1.973 1.585 3.571 3.543 3.571 1.951 0 3.544-1.605 3.544-3.571 0-1.966-1.593-3.572-3.544-3.572-1.95 0-3.543 1.606-3.543 3.572z"/>
</svg>
