<?xml version="1.0" encoding="utf-8"?>
<!-- Generator: Adobe Illustrator 22.1.0, SVG Export Plug-In . SVG Version: 6.00 Build 0)  -->
<svg version="1.1" id="Layer_1" xmlns="http://www.w3.org/2000/svg" xmlns:xlink="http://www.w3.org/1999/xlink" x="0px" y="0px"
	 viewBox="0 0 250 250" style="enable-background:new 0 0 250 250;" xml:space="preserve">
<style type="text/css">
	.st0{fill:#EEEEEE;}
	.st1{fill:#606060;}
</style>
<g>
	<rect class="st0" width="250" height="250"/>
</g>
<g>
	<g>
		<g>
			<g>
				<path class="st1" d="M197.8,178.2H52.2V87.4h145.6V178.2z M55.2,175.2h139.6V90.4H55.2V175.2z"/>
			</g>
			<g>
				<path class="st1" d="M198.6,179H51.4V86.6h147.2V179z M53,177.4h144V88.2H53V177.4z M195.6,176H54.4V89.7h141.2V176z M56,174.4
					h138V91.2H56V174.4z"/>
			</g>
		</g>
	</g>
	<g>
		<g>
			<circle class="st1" cx="146.3" cy="94.2" r="11.8"/>
			<path class="st0" d="M146.3,108c-7.6,0-13.8-6.2-13.8-13.8c0-7.6,6.2-13.8,13.8-13.8c7.6,0,13.8,6.2,13.8,13.8
				C160.1,101.8,153.9,108,146.3,108z M146.3,84.4c-5.4,0-9.8,4.4-9.8,9.8c0,5.4,4.4,9.8,9.8,9.8c5.4,0,9.8-4.4,9.8-9.8
				C156.1,88.8,151.7,84.4,146.3,84.4z"/>
		</g>
	</g>
</g>
<g>
	<g>
		<g>
			<polygon class="st1" points="42.1,180.2 98.2,112.8 154.3,180.2 			"/>
			<path class="st0" d="M158.5,182.2H37.9l60.3-72.5L158.5,182.2z M46.4,178.2H150L98.2,116L46.4,178.2z"/>
		</g>
	</g>
	<g>
		<g>
			<polygon class="st1" points="127.6,180.2 166.1,136.2 207.9,180.2 			"/>
			<path class="st0" d="M212.5,182.2h-89.3l42.8-49.1L212.5,182.2z M132,178.2h71.2l-37.1-39.1L132,178.2z"/>
		</g>
	</g>
</g>
</svg>
