<svg xmlns="http://www.w3.org/2000/svg" xmlns:xlink="http://www.w3.org/1999/xlink" width="20" height="20" viewBox="0 0 20 20">
    <defs>
        <path id="prefix__a" d="M9.5 0c2.538 0 4.924.988 6.718 2.782C18.012 4.576 19 6.961 19 9.499c0 2.538-.987 4.924-2.782 6.718-1.795 1.794-4.18 2.782-6.718 2.782-2.538 0-4.924-.987-6.718-2.782C.988 14.422 0 12.036 0 9.499s.987-4.923 2.782-6.717C4.577.988 6.962 0 9.5 0zm0 1C4.813 1 1 4.813 1 9.5 1 14.187 4.813 18 9.5 18c4.687 0 8.5-3.813 8.5-8.5C18 4.813 14.187 1 9.5 1zm0 14c.276 0 .5.224.5.5v1c0 .245-.177.45-.41.492L9.5 17c-.276 0-.5-.224-.5-.5v-1c0-.245.177-.45.41-.492L9.5 15zm0-12C11.981 3 14 5.019 14 7.5c0 2.312-1.753 4.223-4 4.472V13.5c0 .276-.224.5-.5.5s-.5-.224-.5-.5v-2c0-.276.224-.5.5-.5 1.93 0 3.5-1.57 3.5-3.5S11.43 4 9.5 4 6 5.57 6 7.5c0 .276-.224.5-.5.5S5 7.776 5 7.5C5 5.019 7.019 3 9.5 3z"/>
    </defs>
    <g fill="none" fill-rule="evenodd" transform="translate(0 1)">
        <mask id="prefix__b" fill="#fff">
            <use xlink:href="#prefix__a"/>
        </mask>
        <path fill="#0B84C9" d="M0 -1H20V19H0z" mask="url(#prefix__b)"/>
    </g>
</svg>
