<svg xmlns="http://www.w3.org/2000/svg" xmlns:xlink="http://www.w3.org/1999/xlink" width="28" height="30" viewBox="0 0 28 30">
    <defs>
        <path id="box3wydoka" d="M13.215 1.484C15.124 2.841 20.812 5.48 24.43 5.48c.355 0 .643.307.643.685 0 7.027-2.421 12.285-4.451 15.46-2.229 3.482-5.196 6.276-7.56 7.116-.066.023-.135.035-.204.035-.069 0-.138-.012-.204-.035-2.364-.84-5.332-3.633-7.56-7.116C3.064 18.45.643 13.192.643 6.165c0-.378.288-.685.643-.685 3.618 0 9.306-2.64 11.215-3.996.216-.153.498-.153.714 0zm-.358 1.384c-1.176.765-3.016 1.68-4.84 2.4C6.36 5.92 4.03 6.69 1.938 6.83c.145 6.345 2.355 11.11 4.219 14.025 2.274 3.554 4.958 5.796 6.701 6.51 1.744-.714 4.427-2.954 6.701-6.51 1.865-2.915 4.075-7.68 4.22-14.025-2.093-.14-4.425-.908-6.081-1.563-1.824-.719-3.663-1.634-4.84-2.399zm5.596 7.61c.25.268.25.702 0 .97l-6.429 6.851c-.1.107-.226.171-.357.192l-.097.008-.097-.008c-.13-.021-.256-.086-.357-.192l-2.571-2.74c-.25-.268-.25-.702 0-.97.25-.267.658-.267.909 0l2.116 2.256 5.974-6.366c.25-.268.658-.268.909 0z"/>
    </defs>
    <g fill="none" fill-rule="evenodd" transform="translate(.521 .329)">
        <mask id="cb1lzljp5b" fill="#fff">
            <use xlink:href="#box3wydoka"/>
        </mask>
        <path fill="#0B84C9" d="M0 0H27V28.776H0z" mask="url(#cb1lzljp5b)"/>
    </g>
</svg>
