<svg xmlns="http://www.w3.org/2000/svg" viewBox="0 0 185 185"><defs><style>.a{fill:#bcbec0;}.b{fill:#fff;}.c{fill:#ef465d;}.d{fill:#808285;}</style></defs><title>IMAGEMAN</title><rect class="a" width="185" height="185"/><path class="b" d="M111.44,56.89l-2.53,6a33.88,33.88,0,0,1-19.16,63.41l-4.18,6a40.33,40.33,0,0,0,25.86-75.34ZM79,61.41l2.35-7.68A40.34,40.34,0,0,0,73.29,128l2.3-6.1A33.9,33.9,0,0,1,79,61.41Zm10.35-17.3h22.25L97.34,77.75h20.51L73.6,140.89,92.69,90.16H75.27Z"/><path class="c" d="M111.44,56.89l-2.53,6a33.88,33.88,0,0,1-19.16,63.41l-4.18,6a40.33,40.33,0,0,0,25.86-75.34ZM79,61.41l2.35-7.68A40.34,40.34,0,0,0,73.29,128l2.3-6.1A33.9,33.9,0,0,1,79,61.41Zm10.35-17.3h22.25L97.34,77.75h20.51L73.6,140.89,92.69,90.16H75.27Z"/><path class="d" d="M111.44,56.89l-2.53,6a33.88,33.88,0,0,1-19.16,63.41l-4.18,6a40.33,40.33,0,0,0,25.86-75.34ZM79,61.41l2.35-7.68A40.34,40.34,0,0,0,73.29,128l2.3-6.1A33.9,33.9,0,0,1,79,61.41Zm10.35-17.3h22.25L97.34,77.75h20.51L73.6,140.89,92.69,90.16H75.27Z"/></svg>
