<svg xmlns="http://www.w3.org/2000/svg" width="27" height="27" viewBox="0 0 27 27">
    <path fill="#0B84C9" fill-rule="nonzero" d="M0 13.489c0 7.436 6.053 13.489 13.489 13.489 7.436 0 13.489-6.053 13.489-13.49C26.978 6.054 20.925 0 13.488 0 6.054 0 0 6.053 0 13.489zm5.638 9.24a37.31 37.31 0 0 1 4.205-2.457.883.883 0 0 0 .498-.797v-1.693a.68.68 0 0 0-.094-.343c-.343-.58-.581-1.278-.703-2.069a.673.673 0 0 0-.487-.548c-.066-.083-.254-.37-.492-1.206-.188-.664-.188-.99-.172-1.123a.67.67 0 0 0 .531-.26.672.672 0 0 0 .106-.642 3.86 3.86 0 0 1-.095-2.307c.177-.752.581-1.46 1.207-2.102.337-.36.724-.681 1.14-.941.005-.006.016-.011.021-.017a4.253 4.253 0 0 1 1.068-.547h.006c.304-.105.62-.16.957-.177.907-.078 1.72.088 2.434.514.786.432 1.101.996 1.101.996.111.21.321.349.554.365.005 0 .304.056.575.41.321.426.775 1.532.221 4.205a.676.676 0 0 0 .36.74c.022.106.05.427-.16 1.174-.188.664-.343.98-.437 1.123a.706.706 0 0 0-.355.044.681.681 0 0 0-.403.504 6.289 6.289 0 0 1-.515 1.66.687.687 0 0 0-.066.293v1.958c0 .344.188.648.498.797a37.2 37.2 0 0 1 4.204 2.457 12.07 12.07 0 0 1-7.85 2.893 12.142 12.142 0 0 1-7.857-2.904zm7.85-21.373c6.69 0 12.134 5.444 12.134 12.133 0 3.198-1.245 6.114-3.275 8.283a38.752 38.752 0 0 0-4.349-2.584v-1.516c.183-.399.332-.841.443-1.312.542-.204.924-.835 1.283-2.102.327-1.156.3-1.97-.088-2.434.404-2.22.221-3.857-.548-4.87-.398-.53-.863-.763-1.184-.862a4.347 4.347 0 0 0-1.45-1.262c-.946-.559-2.03-.791-3.197-.691-.443.022-.88.105-1.306.249h-.006c-.476.16-.94.398-1.388.708-.51.326-.98.713-1.384 1.14-.796.813-1.316 1.731-1.543 2.71a5.16 5.16 0 0 0-.061 2.413 1.122 1.122 0 0 0-.205.193c-.398.482-.431 1.25-.1 2.43.222.78.51 1.582 1.008 1.952.149.747.387 1.428.713 2.025v1.229a39.267 39.267 0 0 0-4.349 2.584 12.092 12.092 0 0 1-3.28-8.283c0-6.69 5.444-12.133 12.133-12.133z"/>
</svg>
