<?xml version="1.0" standalone="no"?>
<!DOCTYPE svg PUBLIC "-//W3C//DTD SVG 20010904//EN"
 "http://www.w3.org/TR/2001/REC-SVG-20010904/DTD/svg10.dtd">
<svg version="1.0" xmlns="http://www.w3.org/2000/svg"
 width="256.000000pt" height="256.000000pt" viewBox="0 0 256.000000 256.000000"
 preserveAspectRatio="xMidYMid meet">

<g transform="translate(0.000000,256.000000) scale(0.100000,-0.100000)"
fill="#000000" stroke="none">
<path d="M1097 2385 c-399 -67 -731 -341 -868 -715 -104 -287 -87 -605 47
-873 81 -160 226 -327 373 -426 92 -63 236 -128 348 -158 89 -24 115 -27 283
-27 168 0 194 3 283 27 112 30 256 95 348 158 90 61 228 197 287 282 210 304
258 674 133 1017 -118 321 -389 578 -718 680 -156 48 -356 62 -516 35z m332
-451 c50 -36 51 -42 51 -639 0 -600 0 -603 -53 -638 -33 -21 -95 -22 -125 -1
-52 36 -52 39 -52 519 0 245 -3 445 -6 445 -3 0 -62 -38 -130 -85 -67 -47
-136 -88 -152 -91 -42 -9 -97 20 -116 61 -39 81 -20 102 249 288 204 140 233
157 269 157 23 0 52 -7 65 -16z"/>
</g>
</svg>
