<?xml version="1.0" standalone="no"?>
<!DOCTYPE svg PUBLIC "-//W3C//DTD SVG 20010904//EN"
 "http://www.w3.org/TR/2001/REC-SVG-20010904/DTD/svg10.dtd">
<svg version="1.0" xmlns="http://www.w3.org/2000/svg"
 width="256.000000pt" height="256.000000pt" viewBox="0 0 256.000000 256.000000"
 preserveAspectRatio="xMidYMid meet">

<g transform="translate(0.000000,256.000000) scale(0.100000,-0.100000)"
fill="#000000" stroke="none">
<path d="M980 2384 c-108 -29 -204 -110 -258 -218 l-29 -60 -22 70 c-13 38
-25 76 -27 84 -6 19 -32 -12 -72 -85 -25 -46 -27 -59 -27 -161 l0 -111 -125
44 c-226 81 -331 115 -337 109 -4 -3 -4 -8 -2 -9 23 -19 238 -177 368 -272
l163 -118 -6 -49 c-5 -37 -2 -59 14 -94 25 -58 25 -88 -1 -292 -20 -155 -24
-170 -66 -256 -34 -71 -43 -99 -40 -126 7 -48 43 -143 67 -173 23 -29 93 -55
170 -64 49 -5 60 -2 93 20 29 20 50 26 92 26 67 0 81 7 177 94 86 78 108 119
108 200 0 34 7 66 20 90 17 31 93 137 131 181 5 5 36 -20 71 -55 117 -119 173
-284 150 -443 -25 -175 -137 -330 -299 -413 -103 -54 -146 -65 -278 -72 l-110
-6 65 -17 c201 -52 397 -43 575 27 11 4 -1 -15 -30 -44 l-50 -52 40 7 c174 31
364 152 485 309 l23 30 -6 -47 c-4 -27 -9 -59 -13 -73 -4 -15 -2 -25 4 -25 19
0 197 183 239 245 109 162 163 331 163 508 l0 79 34 -41 c18 -22 36 -37 40
-34 12 12 6 209 -9 302 -38 235 -133 412 -310 579 -51 48 -120 103 -154 122
-107 61 -107 62 -6 55 l90 -6 -55 40 c-76 56 -240 136 -330 162 -94 26 -302
37 -392 20 -77 -15 -180 -47 -232 -73 l-39 -20 24 39 c12 21 29 48 37 61 14
21 13 22 -24 21 -22 0 -64 -7 -94 -15z m694 -84 c67 -17 217 -78 161 -65 -11
2 -69 9 -130 16 -128 13 -245 6 -365 -22 -80 -19 -85 -19 -97 -2 -7 9 -13 23
-13 30 0 27 -19 11 -69 -54 -44 -60 -151 -164 -151 -148 0 18 47 93 81 130 70
75 160 121 274 139 60 9 232 -4 309 -24z m-728 -22 c-46 -53 -73 -125 -82
-218 -6 -63 -9 -71 -20 -56 -7 10 -18 39 -24 66 -15 64 0 119 47 171 29 32 91
76 111 79 2 0 -13 -19 -32 -42z m273 -102 c17 -71 14 -154 -9 -201 -22 -44
-75 -106 -125 -144 l-30 -22 56 4 c31 3 75 15 99 27 23 12 43 20 44 18 9 -11
76 -191 76 -203 0 -8 -20 -60 -44 -117 l-44 -103 -52 -15 c-69 -20 -67 -16
-150 -242 -12 -33 -27 -58 -36 -58 -7 0 -28 -13 -46 -29 l-33 -29 48 9 c37 6
55 5 75 -5 66 -35 107 -99 98 -154 -6 -39 -32 -70 -119 -143 -48 -41 -65 -49
-98 -49 -21 0 -39 4 -39 9 0 5 41 47 90 94 61 58 90 93 90 108 0 26 -27 59
-47 59 -8 0 -11 5 -8 10 11 17 -42 11 -64 -8 -17 -13 -24 -35 -32 -92 -13 -92
-25 -116 -90 -174 -55 -49 -74 -54 -143 -33 -35 11 -43 19 -62 67 -32 76 -30
98 15 187 35 70 41 94 60 237 12 88 23 161 25 164 7 7 46 -61 46 -80 0 -26 17
-22 24 5 12 44 5 93 -20 147 -41 89 -41 129 1 250 20 58 43 120 51 139 13 32
15 33 32 17 26 -22 34 -21 69 17 31 32 184 244 238 330 17 26 33 47 36 47 4 0
12 -20 18 -44z m-572 -122 c19 -75 44 -123 86 -168 31 -33 32 -36 13 -36 -29
0 -81 34 -102 65 -23 35 -34 99 -27 158 3 26 8 46 10 43 2 -2 11 -30 20 -62z
m1252 11 c280 -89 495 -389 526 -736 l7 -74 -44 95 c-79 172 -177 304 -308
414 -194 163 -362 239 -600 268 l-95 12 45 13 c159 46 338 49 469 8z m-449
-110 c89 -21 253 -104 320 -162 133 -114 236 -278 276 -438 28 -112 24 -296
-10 -408 -46 -154 -117 -269 -228 -372 -60 -55 -158 -125 -175 -125 -4 1 8 15
28 33 83 73 174 212 208 317 7 22 23 43 42 54 39 23 49 51 49 135 0 62 -2 70
-30 96 -18 17 -30 39 -30 55 0 72 -65 240 -130 335 -15 22 -35 67 -45 100 -24
85 -61 149 -117 201 -27 25 -51 44 -54 42 -2 -3 5 -26 16 -51 30 -66 36 -160
17 -228 -34 -117 -113 -179 -235 -187 -73 -5 -85 -16 -164 -150 l-47 -77 -45
3 c-25 2 -46 8 -46 13 0 13 82 223 92 236 5 6 32 17 60 23 47 12 52 15 75 66
21 47 28 54 53 54 34 0 43 11 65 75 l17 50 -54 136 -54 135 20 27 c23 31 37
32 126 12z m-894 -116 c146 -54 174 -70 174 -101 0 -36 -29 -30 -122 25 -115
68 -205 126 -197 127 3 0 69 -23 145 -51z m1260 -484 c29 -60 50 -131 70 -232
2 -13 18 -38 35 -58 30 -34 31 -37 24 -105 -7 -66 -9 -70 -42 -90 -19 -11 -38
-31 -41 -43 -3 -12 -27 -65 -54 -118 -34 -69 -67 -116 -113 -165 l-66 -69 50
78 c89 139 126 269 118 417 -3 72 -11 112 -32 165 -31 78 -30 70 -19 219 8
125 10 125 70 1z m343 21 c201 -253 195 -585 -15 -821 l-44 -50 21 50 c110
265 110 564 1 833 -12 28 -20 52 -18 52 2 0 27 -29 55 -64z m-1131 -441 c1
-13 -12 -32 -38 -53 l-40 -34 6 44 c9 66 11 70 41 66 19 -2 29 -9 31 -23z"/>
<path d="M1145 2038 c-22 -33 -48 -74 -58 -89 -16 -25 -17 -29 -3 -29 23 0 87
60 102 97 15 35 19 83 7 83 -5 0 -26 -28 -48 -62z"/>
<path d="M970 1598 c-52 -78 -101 -144 -107 -146 -7 -2 -18 9 -25 25 l-12 28
-4 -34 c-5 -50 5 -80 33 -93 18 -8 28 -8 38 1 8 6 42 25 77 42 136 69 174 140
106 204 -33 31 -33 32 -20 65 30 71 5 45 -86 -92z m78 -10 c19 -19 14 -44 -13
-77 -28 -32 -93 -77 -101 -68 -3 2 12 33 32 68 55 96 59 100 82 77z"/>
<path d="M690 901 c-32 -65 -31 -91 6 -91 40 0 75 80 40 93 -9 3 -12 15 -9 31
8 42 -5 30 -37 -33z"/>
</g>
</svg>
