<?xml version="1.0" standalone="no"?>
<!DOCTYPE svg PUBLIC "-//W3C//DTD SVG 20010904//EN"
 "http://www.w3.org/TR/2001/REC-SVG-20010904/DTD/svg10.dtd">
<svg version="1.0" xmlns="http://www.w3.org/2000/svg"
 width="256.000000pt" height="256.000000pt" viewBox="0 0 256.000000 256.000000"
 preserveAspectRatio="xMidYMid meet">

<g transform="translate(0.000000,256.000000) scale(0.100000,-0.100000)"
fill="#000000" stroke="none">
<path d="M1200 2391 c-76 -23 -126 -69 -549 -498 -308 -312 -448 -461 -464
-493 -17 -34 -22 -63 -22 -120 0 -120 9 -131 398 -510 l341 -331 425 425 426
426 -80 80 -80 80 -315 -314 c-340 -340 -347 -345 -417 -314 -17 7 -119 96
-227 198 -215 201 -230 223 -207 293 9 27 137 159 513 533 467 462 500 498
482 511 -47 34 -164 52 -224 34z"/>
<path d="M1183 1749 l-432 -422 72 -78 c40 -43 77 -79 83 -79 6 0 163 147 349
328 186 180 344 327 351 327 18 0 452 -413 470 -447 17 -33 18 -81 2 -111 -6
-12 -231 -245 -500 -517 -542 -548 -502 -495 -413 -543 58 -31 182 -31 245 0
32 16 175 152 492 471 501 502 492 491 493 622 0 119 -7 128 -411 520 -195
190 -358 346 -363 348 -4 1 -201 -187 -438 -419z"/>
</g>
</svg>
