<?xml version="1.0" standalone="no"?>
<!DOCTYPE svg PUBLIC "-//W3C//DTD SVG 20010904//EN"
 "http://www.w3.org/TR/2001/REC-SVG-20010904/DTD/svg10.dtd">
<svg version="1.0" xmlns="http://www.w3.org/2000/svg"
 width="256.000000pt" height="256.000000pt" viewBox="0 0 256.000000 256.000000"
 preserveAspectRatio="xMidYMid meet">

<g transform="translate(0.000000,256.000000) scale(0.100000,-0.100000)"
fill="#000000" stroke="none">
<path d="M532 1900 c-109 -29 -187 -74 -272 -160 -87 -86 -131 -163 -160 -276
-36 -141 -18 -294 52 -427 42 -81 164 -203 245 -245 227 -119 501 -84 686 87
32 30 72 74 88 97 l29 43 -67 39 c-117 68 -115 67 -126 46 -21 -39 -106 -112
-163 -139 -114 -54 -266 -43 -376 27 -63 40 -105 89 -142 168 -28 58 -31 74
-31 160 0 86 3 101 31 161 44 93 93 142 182 187 72 35 81 37 172 37 91 0 100
-2 172 -38 70 -34 158 -112 158 -138 0 -16 18 -9 104 42 l86 50 -29 43 c-137
199 -404 297 -639 236z"/>
<path d="M1750 1904 c-177 -38 -331 -163 -414 -336 -69 -145 -140 -198 -262
-198 -67 0 -137 36 -199 100 -69 72 -115 94 -195 94 -112 0 -204 -70 -235
-179 -26 -87 -6 -164 59 -233 50 -54 101 -76 176 -76 82 0 114 17 205 104 94
91 170 111 277 74 75 -25 119 -71 173 -181 80 -163 201 -270 375 -329 41 -14
84 -19 170 -19 125 0 172 11 285 68 78 39 200 161 243 244 70 133 88 286 52
427 -29 113 -73 190 -160 277 -147 149 -345 208 -550 163z m290 -231 c95 -45
143 -92 187 -181 36 -72 38 -81 38 -171 0 -87 -3 -102 -31 -161 -39 -82 -75
-124 -139 -166 -219 -140 -508 -39 -585 205 -83 264 109 518 385 508 66 -3 93
-9 145 -34z"/>
<path d="M1820 1561 c-115 -37 -184 -128 -184 -241 0 -111 69 -203 175 -234
65 -20 73 -20 138 0 106 31 175 123 175 234 0 96 -50 176 -138 222 -43 22
-128 32 -166 19z"/>
</g>
</svg>
