<?xml version="1.0" standalone="no"?>
<!DOCTYPE svg PUBLIC "-//W3C//DTD SVG 20010904//EN"
 "http://www.w3.org/TR/2001/REC-SVG-20010904/DTD/svg10.dtd">
<svg version="1.0" xmlns="http://www.w3.org/2000/svg"
 width="256.000000pt" height="256.000000pt" viewBox="0 0 256.000000 256.000000"
 preserveAspectRatio="xMidYMid meet">

<g transform="translate(0.000000,256.000000) scale(0.100000,-0.100000)"
fill="#000000" stroke="none">
<path d="M1175 2461 c-44 -20 -71 -47 -102 -101 -11 -19 -98 -234 -193 -477
l-174 -443 -146 0 c-118 0 -151 -3 -180 -18 -96 -48 -108 -174 -25 -252 24
-23 36 -25 126 -28 54 -2 99 -6 99 -8 0 -2 -77 -198 -170 -435 -111 -281 -170
-443 -170 -467 0 -148 186 -206 265 -83 12 20 105 251 205 514 l183 477 147 0
c136 0 150 2 181 23 87 58 91 189 6 251 -22 17 -48 22 -121 26 l-94 5 137 357
c75 197 138 358 141 358 3 0 176 -444 384 -987 208 -544 389 -1004 401 -1024
79 -124 265 -65 265 83 0 25 -130 365 -410 1074 -226 571 -419 1051 -430 1068
-47 77 -106 106 -212 106 -49 0 -86 -6 -113 -19z"/>
</g>
</svg>
