<?xml version="1.0" standalone="no"?>
<!DOCTYPE svg PUBLIC "-//W3C//DTD SVG 20010904//EN"
 "http://www.w3.org/TR/2001/REC-SVG-20010904/DTD/svg10.dtd">
<svg version="1.0" xmlns="http://www.w3.org/2000/svg"
 width="256.000000pt" height="256.000000pt" viewBox="0 0 256.000000 256.000000"
 preserveAspectRatio="xMidYMid meet">

<g transform="translate(0.000000,256.000000) scale(0.100000,-0.100000)"
fill="#000000" stroke="none">
<path d="M1092 2384 c-467 -78 -840 -455 -917 -925 -122 -752 532 -1406 1284
-1284 475 77 849 451 926 926 48 301 -29 610 -213 855 -249 330 -670 497
-1080 428z m471 -129 c173 -50 320 -139 448 -271 133 -137 214 -284 261 -471
33 -131 31 -350 -4 -483 -78 -290 -266 -523 -530 -656 -280 -141 -623 -142
-902 -3 -247 124 -428 332 -515 594 -180 543 131 1129 685 1290 164 48 392 48
557 0z"/>
<path d="M1162 2210 c-394 -55 -699 -331 -794 -717 -32 -129 -30 -313 5 -445
90 -342 348 -595 694 -680 129 -32 313 -30 445 5 342 90 595 348 680 694 32
129 30 313 -5 445 -89 340 -351 597 -688 678 -98 23 -250 32 -337 20z m344
-136 c277 -79 488 -290 568 -565 112 -390 -74 -798 -445 -973 -106 -51 -178
-68 -310 -73 -189 -9 -335 30 -487 129 -186 122 -313 310 -358 528 -20 100
-15 283 10 375 86 314 359 556 681 605 95 14 241 3 341 -26z"/>
<path d="M1240 1946 c0 -11 586 -1020 593 -1020 4 -1 20 22 36 49 l28 50 -266
462 -266 462 -62 1 c-35 0 -63 -2 -63 -4z"/>
<path d="M930 1488 c-134 -233 -249 -432 -256 -443 -11 -17 -8 -27 20 -74 l33
-53 55 93 c31 52 126 218 213 369 87 151 163 283 170 293 11 15 27 -10 129
-186 64 -112 116 -206 116 -208 0 -2 -39 -4 -87 -4 l-86 0 -33 -55 c-18 -30
-33 -57 -34 -60 0 -3 55 -6 123 -6 72 -1 140 -7 166 -15 42 -14 47 -19 119
-147 l76 -132 63 0 c63 0 64 0 52 23 -27 50 -582 1013 -589 1020 -4 4 -116
-182 -250 -415z"/>
<path d="M1106 1428 c-35 -62 -123 -214 -194 -338 l-130 -225 56 -3 c47 -3 68
3 133 33 111 52 199 68 344 62 66 -3 142 -12 168 -21 l48 -15 -32 58 c-57 104
-39 96 -217 95 -110 0 -173 -5 -210 -16 -49 -14 -53 -14 -47 1 3 9 53 98 111
197 l104 181 -26 47 c-14 25 -29 48 -34 51 -5 3 -38 -46 -74 -107z"/>
</g>
</svg>
