<?xml version="1.0" standalone="no"?>
<!DOCTYPE svg PUBLIC "-//W3C//DTD SVG 20010904//EN"
 "http://www.w3.org/TR/2001/REC-SVG-20010904/DTD/svg10.dtd">
<svg version="1.0" xmlns="http://www.w3.org/2000/svg"
 width="256.000000pt" height="256.000000pt" viewBox="0 0 256.000000 256.000000"
 preserveAspectRatio="xMidYMid meet">

<g transform="translate(0.000000,256.000000) scale(0.100000,-0.100000)"
fill="#000000" stroke="none">
<path d="M1103 2023 l-163 -286 0 -398 c0 -220 2 -399 4 -399 2 0 39 16 82 36
117 55 211 84 284 91 58 5 196 -7 279 -23 l31 -6 0 350 0 350 -171 286 c-94
157 -173 286 -177 286 -4 -1 -80 -129 -169 -287z"/>
<path d="M628 1195 c-26 -44 -160 -273 -296 -510 l-249 -430 295 -3 c162 -1
297 -1 299 1 2 2 2 233 1 513 l-3 509 -47 -80z"/>
<path d="M1880 762 l0 -512 301 0 301 0 -14 22 c-8 13 -142 241 -298 508 -156
267 -285 487 -286 489 -2 2 -4 -226 -4 -507z"/>
<path d="M1281 824 c-85 -23 -187 -82 -236 -136 -82 -92 -119 -203 -113 -348
l3 -85 343 -3 342 -2 0 263 0 263 -27 16 c-79 46 -210 60 -312 32z"/>
</g>
</svg>
