<?xml version="1.0" standalone="no"?>
<!DOCTYPE svg PUBLIC "-//W3C//DTD SVG 20010904//EN"
 "http://www.w3.org/TR/2001/REC-SVG-20010904/DTD/svg10.dtd">
<svg version="1.0" xmlns="http://www.w3.org/2000/svg"
 width="256.000000pt" height="256.000000pt" viewBox="0 0 256.000000 256.000000"
 preserveAspectRatio="xMidYMid meet">

<g transform="translate(0.000000,256.000000) scale(0.100000,-0.100000)"
fill="#000000" stroke="none">
<path d="M1171 2464 c-177 -47 -335 -199 -446 -429 -86 -178 -130 -337 -154
-557 -27 -246 1 -537 74 -764 36 -111 124 -287 183 -364 239 -316 560 -357
817 -105 427 419 485 1386 115 1936 -59 87 -174 198 -247 236 -113 61 -231 77
-342 47z m251 -84 c217 -81 411 -385 477 -747 11 -59 22 -126 24 -148 5 -35 4
-37 -5 -15 -47 109 -64 140 -104 196 -134 188 -379 295 -606 265 -255 -34
-462 -198 -548 -433 l-20 -53 6 60 c8 83 51 275 81 360 35 96 107 236 160 305
84 112 208 204 309 230 57 14 160 5 226 -20z m-224 -1100 c1 -327 -1 -597 -5
-601 -5 -4 -29 -3 -55 3 l-48 11 0 582 0 582 43 10 c23 6 47 10 52 8 6 -1 11
-210 13 -595z m257 580 l25 -10 -2 -227 -3 -228 -75 0 -75 0 -3 244 -2 244 54
-7 c30 -3 66 -10 81 -16z m143 -66 l72 -46 0 -194 0 -194 110 0 110 0 0 -80 0
-80 -110 0 -110 0 0 -200 0 -199 -42 -29 c-43 -29 -102 -62 -113 -62 -3 0 -5
110 -5 245 l0 244 -92 3 -93 3 -3 78 -3 77 96 0 95 0 0 240 c0 132 4 240 8
240 5 0 41 -21 80 -46z m-628 -519 c0 -303 -4 -515 -9 -515 -5 0 -32 18 -60
40 l-51 40 0 435 0 435 51 40 c28 22 55 40 60 40 5 0 9 -212 9 -515z m776 397
c50 -60 91 -132 113 -199 12 -34 21 -67 21 -73 0 -6 -35 -10 -90 -10 l-90 0 0
160 c0 88 3 160 8 160 4 0 21 -17 38 -38z m-1018 -519 l-3 -128 -25 75 c-34
106 -34 244 0 350 l25 75 3 -122 c1 -67 1 -179 0 -250z m752 -218 l0 -235 -27
-11 c-16 -6 -52 -13 -80 -16 l-53 -6 0 252 0 251 80 0 80 0 0 -235z m400 220
c0 -60 -75 -211 -144 -290 l-35 -40 -1 173 0 172 90 0 c74 0 90 -3 90 -15z
m-1182 -183 c43 -89 137 -193 224 -250 347 -226 816 -80 973 303 31 77 33 46
4 -101 -70 -365 -259 -660 -477 -745 -43 -17 -78 -23 -143 -23 -77 0 -92 3
-160 35 -206 99 -368 351 -442 689 -30 139 -42 228 -26 190 6 -14 27 -58 47
-98z"/>
</g>
</svg>
