<?xml version="1.0" standalone="no"?>
<!DOCTYPE svg PUBLIC "-//W3C//DTD SVG 20010904//EN"
 "http://www.w3.org/TR/2001/REC-SVG-20010904/DTD/svg10.dtd">
<svg version="1.0" xmlns="http://www.w3.org/2000/svg"
 width="256.000000pt" height="256.000000pt" viewBox="0 0 256.000000 256.000000"
 preserveAspectRatio="xMidYMid meet">

<g transform="translate(0.000000,256.000000) scale(0.100000,-0.100000)"
fill="#000000" stroke="none">
<path d="M1231 2374 c-25 -32 -26 -52 -5 -82 28 -41 112 -22 115 26 3 33 -2
47 -23 65 -29 25 -63 21 -87 -9z"/>
<path d="M682 2329 c-30 -11 -39 -54 -17 -79 25 -28 61 -25 81 5 30 47 -10 94
-64 74z"/>
<path d="M1817 2322 c-10 -10 -17 -28 -17 -39 0 -23 29 -53 53 -53 20 0 59 49
50 64 -27 48 -59 58 -86 28z"/>
<path d="M807 2088 c-46 -36 -39 -107 15 -137 51 -29 128 27 114 83 -14 57
-85 87 -129 54z"/>
<path d="M1641 2074 c-29 -37 -26 -70 8 -105 36 -36 73 -37 106 -4 32 31 34
86 5 115 -31 31 -93 27 -119 -6z"/>
<path d="M1215 2007 c-38 -38 -43 -63 -20 -107 45 -87 175 -56 175 41 0 50
-33 88 -82 96 -33 5 -41 2 -73 -30z"/>
<path d="M335 1855 c-33 -32 -32 -68 2 -95 45 -35 103 -11 103 44 0 37 -7 49
-37 65 -31 16 -41 14 -68 -14z"/>
<path d="M2131 1854 c-24 -31 -25 -35 -9 -69 22 -49 104 -44 122 8 8 22 6 32
-11 55 -29 39 -74 42 -102 6z"/>
<path d="M1009 1759 c-104 -61 -105 -218 -3 -276 107 -62 232 5 242 129 4 59
-17 102 -70 141 -41 31 -123 33 -169 6z"/>
<path d="M1410 1772 c-90 -40 -129 -157 -77 -232 34 -51 70 -73 129 -78 44 -3
59 0 87 20 52 36 74 71 79 130 4 61 -19 106 -77 145 -34 23 -106 30 -141 15z"/>
<path d="M649 1681 c-21 -22 -29 -39 -29 -66 0 -27 8 -44 29 -66 22 -21 39
-29 66 -29 27 0 44 8 66 29 21 22 29 39 29 66 0 27 -8 44 -29 66 -22 21 -39
29 -66 29 -27 0 -44 -8 -66 -29z"/>
<path d="M1789 1697 c-44 -34 -52 -105 -15 -142 65 -65 166 -22 166 71 0 40
-51 84 -97 84 -21 0 -45 -6 -54 -13z"/>
<path d="M819 1427 c-76 -51 -100 -137 -59 -216 37 -74 153 -104 221 -58 106
71 106 203 0 274 -23 16 -49 23 -81 23 -32 0 -58 -7 -81 -23z"/>
<path d="M1582 1433 c-74 -36 -106 -155 -59 -223 38 -57 71 -75 137 -75 66 0
99 18 138 76 31 44 28 129 -6 176 -42 59 -140 81 -210 46z"/>
<path d="M2091 1366 c-27 -15 -50 -52 -51 -79 0 -28 54 -77 85 -77 30 0 85 49
85 75 0 29 -28 71 -55 83 -32 15 -34 15 -64 -2z"/>
<path d="M382 1350 c-30 -28 -36 -62 -18 -98 33 -63 120 -57 145 11 28 74 -69
140 -127 87z"/>
<path d="M2396 1337 c-21 -16 -24 -60 -6 -82 17 -20 53 -19 73 3 22 25 21 48
-3 72 -23 23 -39 25 -64 7z"/>
<path d="M95 1320 c-28 -31 -10 -74 32 -78 25 -3 35 2 49 22 15 24 15 28 0 51
-20 31 -56 33 -81 5z"/>
<path d="M1009 1097 c-135 -91 -88 -282 73 -295 61 -4 106 19 145 77 89 132
-86 307 -218 218z"/>
<path d="M1404 1110 c-28 -11 -82 -75 -90 -106 -16 -64 11 -135 70 -178 39
-29 133 -29 173 0 54 40 75 83 71 145 -5 65 -32 109 -82 133 -36 17 -107 20
-142 6z"/>
<path d="M673 1050 c-26 -11 -53 -59 -53 -95 0 -16 12 -38 29 -56 41 -40 91
-40 132 0 76 76 -7 192 -108 151z"/>
<path d="M1779 1031 c-21 -22 -29 -39 -29 -66 0 -45 45 -95 85 -95 93 0 139
98 76 161 -41 40 -91 40 -132 0z"/>
<path d="M353 830 c-49 -20 -54 -86 -8 -116 48 -32 115 15 101 71 -5 19 -53
58 -68 54 -2 0 -13 -4 -25 -9z"/>
<path d="M2142 824 c-26 -18 -30 -74 -6 -98 24 -24 80 -20 98 6 22 32 20 61
-7 86 -27 26 -54 28 -85 6z"/>
<path d="M1243 728 c-34 -9 -63 -49 -63 -88 0 -33 26 -75 55 -88 33 -15 40
-15 80 3 58 28 72 94 30 143 -28 34 -56 42 -102 30z"/>
<path d="M805 615 c-53 -52 -18 -135 57 -135 60 0 100 75 65 121 -33 43 -87
50 -122 14z"/>
<path d="M1652 620 c-30 -28 -36 -62 -18 -98 38 -74 149 -45 149 40 0 64 -84
101 -131 58z"/>
<path d="M682 343 c-22 -9 -34 -41 -22 -63 18 -34 48 -44 76 -25 55 36 9 114
-54 88z"/>
<path d="M1814 325 c-30 -45 10 -88 65 -70 29 9 38 51 16 75 -25 27 -61 25
-81 -5z"/>
<path d="M1236 299 c-35 -28 -35 -70 0 -98 33 -26 45 -26 78 0 26 20 35 61 18
85 -8 13 -46 34 -60 34 -5 0 -21 -9 -36 -21z"/>
</g>
</svg>
