<?xml version="1.0" standalone="no"?>
<!DOCTYPE svg PUBLIC "-//W3C//DTD SVG 20010904//EN"
 "http://www.w3.org/TR/2001/REC-SVG-20010904/DTD/svg10.dtd">
<svg version="1.0" xmlns="http://www.w3.org/2000/svg"
 width="256.000000pt" height="256.000000pt" viewBox="0 0 256.000000 256.000000"
 preserveAspectRatio="xMidYMid meet">

<g transform="translate(0.000000,256.000000) scale(0.100000,-0.100000)"
fill="#000000" stroke="none">
<path d="M1083 2267 l-212 -212 107 -113 c59 -62 112 -112 117 -112 6 1 55 43
110 95 l100 94 95 -94 c53 -52 100 -95 105 -95 6 0 60 49 120 110 l109 110
-34 36 c-19 20 -119 116 -221 214 l-185 179 -211 -212z"/>
<path d="M698 1889 c-71 -71 -128 -133 -128 -138 0 -5 101 -109 225 -232 124
-122 225 -227 225 -232 0 -5 -104 -110 -231 -235 l-230 -226 140 -140 141
-141 230 230 230 230 230 -230 230 -230 140 140 140 140 -226 226 c-125 125
-225 231 -223 237 2 6 101 110 219 233 118 122 216 225 218 228 1 3 -58 66
-132 140 l-134 134 -227 -224 c-125 -123 -231 -226 -236 -228 -6 -1 -112 99
-238 223 -125 124 -229 226 -231 225 -3 0 -62 -59 -132 -130z"/>
<path d="M988 633 l-117 -118 209 -212 c115 -117 215 -213 222 -213 19 0 434
418 424 427 -4 4 -56 59 -114 121 l-106 113 -104 -103 -104 -103 -96 103 -97
102 -117 -117z"/>
</g>
</svg>
