<?xml version="1.0" standalone="no"?>
<!DOCTYPE svg PUBLIC "-//W3C//DTD SVG 20010904//EN"
 "http://www.w3.org/TR/2001/REC-SVG-20010904/DTD/svg10.dtd">
<svg version="1.0" xmlns="http://www.w3.org/2000/svg"
 width="256.000000pt" height="256.000000pt" viewBox="0 0 256.000000 256.000000"
 preserveAspectRatio="xMidYMid meet">

<g transform="translate(0.000000,256.000000) scale(0.100000,-0.100000)"
fill="#000000" stroke="none">
<path d="M530 1824 c-214 -57 -394 -236 -436 -433 -42 -200 12 -377 161 -526
66 -67 97 -90 180 -130 86 -43 110 -50 171 -53 87 -5 206 23 299 69 100 49
305 227 305 264 0 4 -23 34 -51 66 l-51 59 -43 -54 c-106 -130 -257 -236 -355
-250 -104 -15 -255 27 -340 94 -73 58 -140 185 -155 296 -22 169 86 348 262
432 75 35 82 37 183 37 113 0 165 -16 236 -70 18 -14 103 -127 190 -252 196
-283 309 -435 374 -501 94 -96 232 -162 384 -184 164 -23 292 18 431 139 90
78 185 195 185 227 0 3 -37 6 -83 6 l-82 0 -19 -35 c-27 -49 -103 -118 -167
-151 -71 -36 -205 -45 -295 -19 -171 49 -327 202 -555 542 -141 209 -247 320
-359 376 -133 66 -252 82 -370 51z"/>
<path d="M1754 1801 c-82 -28 -154 -67 -229 -124 -53 -40 -175 -159 -175 -170
0 -8 58 -94 81 -121 4 -5 52 33 106 84 180 171 251 210 379 210 205 0 388
-156 411 -349 l6 -51 -267 0 -266 0 0 -50 0 -50 342 0 341 0 -7 101 c-3 55
-11 121 -17 147 -29 132 -144 281 -261 340 -140 70 -303 83 -444 33z"/>
</g>
</svg>
