<?xml version="1.0" standalone="no"?>
<!DOCTYPE svg PUBLIC "-//W3C//DTD SVG 20010904//EN"
 "http://www.w3.org/TR/2001/REC-SVG-20010904/DTD/svg10.dtd">
<svg version="1.0" xmlns="http://www.w3.org/2000/svg"
 width="256.000000pt" height="256.000000pt" viewBox="0 0 256.000000 256.000000"
 preserveAspectRatio="xMidYMid meet">

<g transform="translate(0.000000,256.000000) scale(0.100000,-0.100000)"
fill="#000000" stroke="none">
<path d="M1575 2301 c-48 -30 -1182 -1174 -1190 -1199 -17 -57 17 -118 77
-141 51 -19 83 -3 178 89 59 57 102 90 121 94 85 17 166 -82 128 -157 -6 -12
-150 -162 -320 -332 -301 -303 -309 -312 -309 -350 0 -80 62 -134 136 -120 30
5 58 28 148 120 61 62 121 118 133 124 38 19 89 13 122 -15 40 -33 83 -45 123
-33 20 5 73 50 143 119 105 103 114 110 152 110 27 0 53 -9 78 -26 53 -35 82
-45 113 -38 18 4 174 153 459 438 466 463 460 456 430 529 -20 46 -66 71 -120
64 -32 -4 -53 -20 -126 -90 -95 -94 -126 -108 -184 -83 -53 22 -73 61 -69 134
2 17 74 94 237 254 129 127 244 245 255 263 52 84 3 174 -94 175 l-49 0 -197
-195 -197 -195 -47 0 c-41 0 -53 5 -82 34 -27 27 -34 42 -34 74 0 43 14 65 94
146 26 28 52 62 58 75 15 41 1 86 -38 120 -41 36 -84 40 -129 12z"/>
<path d="M2255 1885 c-37 -36 -34 -86 6 -119 40 -34 74 -33 110 3 56 57 23
141 -56 141 -25 0 -44 -8 -60 -25z"/>
<path d="M192 720 c-41 -38 -40 -92 1 -130 51 -48 137 -7 137 65 0 72 -86 113
-138 65z"/>
</g>
</svg>
