<?xml version="1.0" standalone="no"?>
<!DOCTYPE svg PUBLIC "-//W3C//DTD SVG 20010904//EN"
 "http://www.w3.org/TR/2001/REC-SVG-20010904/DTD/svg10.dtd">
<svg version="1.0" xmlns="http://www.w3.org/2000/svg"
 width="256.000000pt" height="256.000000pt" viewBox="0 0 256.000000 256.000000"
 preserveAspectRatio="xMidYMid meet">

<g transform="translate(0.000000,256.000000) scale(0.100000,-0.100000)"
fill="#000000" stroke="none">
<path d="M1375 2470 c-4 -7 17 -37 53 -74 85 -88 118 -145 160 -276 30 -94 36
-129 36 -195 -1 -100 -23 -188 -74 -289 -46 -91 -49 -118 -15 -151 67 -68 163
2 216 157 31 89 39 304 15 412 -35 155 -123 282 -256 371 -72 48 -123 65 -135
45z"/>
<path d="M1035 2428 c-22 -11 -76 -57 -121 -102 -177 -179 -236 -417 -161
-649 67 -208 209 -357 457 -482 321 -161 447 -350 424 -635 -11 -140 -52 -222
-182 -362 -40 -43 -72 -85 -72 -93 0 -51 132 26 232 134 76 83 121 155 156
253 23 64 26 88 26 198 0 111 -3 134 -28 205 -37 106 -85 183 -170 273 -84 88
-155 140 -291 211 -190 100 -293 192 -352 312 -83 168 -83 329 -1 493 32 65
112 179 148 211 12 11 26 28 31 37 8 16 5 18 -23 18 -18 -1 -51 -10 -73 -22z"/>
<path d="M910 1093 c-26 -9 -81 -66 -100 -103 -53 -102 -74 -314 -46 -460 33
-176 136 -324 287 -412 118 -70 141 -41 45 56 -75 77 -122 164 -161 300 -45
157 -27 308 55 463 22 42 40 82 40 89 0 7 -12 26 -26 43 -25 30 -56 38 -94 24z"/>
</g>
</svg>
