<?xml version="1.0" standalone="no"?>
<!DOCTYPE svg PUBLIC "-//W3C//DTD SVG 20010904//EN"
 "http://www.w3.org/TR/2001/REC-SVG-20010904/DTD/svg10.dtd">
<svg version="1.0" xmlns="http://www.w3.org/2000/svg"
 width="256.000000pt" height="256.000000pt" viewBox="0 0 256.000000 256.000000"
 preserveAspectRatio="xMidYMid meet">

<g transform="translate(0.000000,256.000000) scale(0.100000,-0.100000)"
fill="#000000" stroke="none">
<path d="M374 2386 c-3 -8 -4 -25 -2 -37 2 -19 14 -25 76 -41 103 -25 169 -63
204 -117 l28 -45 0 -850 c0 -833 -1 -852 -20 -884 -27 -45 -97 -86 -178 -106
-119 -30 -181 -71 -152 -100 6 -6 81 -13 168 -17 296 -13 1554 -31 1562 -23 9
10 120 375 140 462 15 64 8 96 -25 118 -47 31 -65 15 -129 -113 -65 -132 -131
-231 -172 -257 -14 -10 -62 -24 -105 -32 -107 -18 -425 -37 -563 -33 -105 4
-116 6 -161 34 -84 52 -87 64 -93 383 -2 152 -1 534 3 847 l7 570 46 44 c59
57 133 90 226 100 42 5 87 16 101 25 31 21 59 62 50 76 -4 7 -170 10 -506 10
-424 0 -500 -2 -505 -14z"/>
</g>
</svg>
