<?xml version="1.0" standalone="no"?>
<!DOCTYPE svg PUBLIC "-//W3C//DTD SVG 20010904//EN"
 "http://www.w3.org/TR/2001/REC-SVG-20010904/DTD/svg10.dtd">
<svg version="1.0" xmlns="http://www.w3.org/2000/svg"
 width="256.000000pt" height="256.000000pt" viewBox="0 0 256.000000 256.000000"
 preserveAspectRatio="xMidYMid meet">

<g transform="translate(0.000000,256.000000) scale(0.100000,-0.100000)"
fill="#000000" stroke="none">
<path d="M1090 2385 c-620 -102 -1011 -651 -916 -1285 78 -512 454 -870 979
-931 300 -35 592 66 680 235 l21 41 8 -38 c29 -135 152 -227 288 -214 96 8
176 63 223 151 22 41 22 44 22 556 0 380 -3 533 -13 583 -87 459 -412 794
-865 893 -100 22 -321 27 -427 9z m333 -531 c210 -54 383 -230 433 -440 33
-139 5 -309 -71 -440 -37 -63 -136 -162 -199 -199 -123 -72 -285 -101 -418
-76 -107 21 -223 84 -303 165 -118 118 -175 255 -175 418 0 167 53 292 175
413 85 86 161 131 266 159 73 20 217 20 292 0z"/>
</g>
</svg>
