<?xml version="1.0" standalone="no"?>
<!DOCTYPE svg PUBLIC "-//W3C//DTD SVG 20010904//EN"
 "http://www.w3.org/TR/2001/REC-SVG-20010904/DTD/svg10.dtd">
<svg version="1.0" xmlns="http://www.w3.org/2000/svg"
 width="256.000000pt" height="256.000000pt" viewBox="0 0 256.000000 256.000000"
 preserveAspectRatio="xMidYMid meet">

<g transform="translate(0.000000,256.000000) scale(0.100000,-0.100000)"
fill="#000000" stroke="none">
<path d="M2030 2378 c-35 -18 -233 -228 -902 -958 -564 -614 -863 -948 -873
-973 -69 -172 112 -345 281 -268 32 14 188 180 700 739 362 396 662 721 667
721 4 1 7 -295 7 -656 0 -619 2 -660 19 -698 63 -136 230 -166 335 -62 24 24
47 60 54 83 17 60 17 1888 0 1948 -7 23 -30 59 -54 83 -66 65 -154 81 -234 41z"/>
</g>
</svg>
