<?xml version="1.0" standalone="no"?>
<!DOCTYPE svg PUBLIC "-//W3C//DTD SVG 20010904//EN"
 "http://www.w3.org/TR/2001/REC-SVG-20010904/DTD/svg10.dtd">
<svg version="1.0" xmlns="http://www.w3.org/2000/svg"
 width="256.000000pt" height="256.000000pt" viewBox="0 0 256.000000 256.000000"
 preserveAspectRatio="xMidYMid meet">

<g transform="translate(0.000000,256.000000) scale(0.100000,-0.100000)"
fill="#000000" stroke="none">
<path d="M754 2227 l-462 -252 -66 -84 -66 -84 0 -521 0 -521 51 -70 51 -70
476 -272 477 -273 84 0 83 0 482 275 481 275 28 78 27 77 0 510 -1 510 -63 86
-63 86 -446 251 -446 252 -83 0 -83 0 -461 -253z m1014 -106 c411 -232 424
-240 462 -294 l40 -55 0 -497 c0 -401 -3 -502 -14 -529 -12 -30 -62 -61 -463
-290 -408 -233 -452 -256 -494 -256 -42 0 -87 23 -501 260 -405 231 -458 264
-486 304 l-32 44 0 479 1 478 47 58 c45 56 64 67 482 296 398 218 439 239 485
240 47 1 71 -11 473 -238z"/>
<path d="M925 1931 c-283 -157 -302 -169 -347 -226 l-48 -59 0 -356 0 -356 35
-49 c31 -45 64 -66 351 -232 l317 -183 64 0 63 0 308 177 c169 97 313 182 321
189 8 7 23 35 33 61 16 43 18 84 18 395 l0 347 -42 60 c-41 60 -46 63 -340
231 l-298 170 -68 -1 -67 -1 -300 -167z m671 -107 c220 -125 279 -162 299
-192 l25 -37 0 -312 c0 -171 -4 -322 -9 -335 -11 -30 -575 -358 -614 -358 -34
0 -594 321 -624 358 -23 27 -23 30 -23 342 l1 315 27 32 c36 41 575 342 616
343 19 0 119 -52 302 -156z"/>
<path d="M1100 1685 c-106 -61 -175 -107 -193 -129 l-28 -35 0 -200 c0 -110 4
-209 10 -218 17 -33 55 -60 211 -152 207 -122 193 -122 415 9 127 74 173 107
182 127 8 19 12 95 13 228 0 197 0 201 -25 237 -33 49 -338 228 -387 227 -23
0 -85 -30 -198 -94z m334 -106 c66 -40 129 -79 139 -87 15 -13 17 -35 17 -181
l0 -166 -137 -80 c-75 -44 -142 -81 -148 -83 -6 -1 -77 36 -158 84 l-147 86 0
163 c0 138 2 165 16 176 29 24 268 158 283 159 7 0 68 -32 135 -71z"/>
</g>
</svg>
