<?xml version="1.0" standalone="no"?>
<!DOCTYPE svg PUBLIC "-//W3C//DTD SVG 20010904//EN"
 "http://www.w3.org/TR/2001/REC-SVG-20010904/DTD/svg10.dtd">
<svg version="1.0" xmlns="http://www.w3.org/2000/svg"
 width="256.000000pt" height="256.000000pt" viewBox="0 0 256.000000 256.000000"
 preserveAspectRatio="xMidYMid meet">

<g transform="translate(0.000000,256.000000) scale(0.100000,-0.100000)"
fill="#000000" stroke="none">
<path d="M1090 2465 c-557 -88 -978 -550 -1007 -1105 -24 -464 233 -899 654
-1109 605 -302 1338 -54 1628 551 253 529 71 1163 -428 1486 -242 156 -557
222 -847 177z m140 -155 l0 -79 -401 -307 c-270 -206 -399 -311 -395 -320 3
-8 1 -14 -4 -14 -6 0 -10 -118 -10 -314 l0 -314 65 -48 c36 -26 65 -50 65 -52
0 -5 -137 -211 -150 -225 -9 -10 -104 136 -141 219 -209 460 -64 1012 346
1317 148 111 363 197 535 215 41 5 78 7 83 5 4 -3 7 -40 7 -83z m248 69 c342
-53 670 -303 817 -622 160 -346 128 -746 -84 -1060 -28 -43 -55 -77 -59 -77
-7 0 -155 245 -160 266 -2 7 22 31 52 54 l56 41 0 314 0 314 -395 311 -395
311 0 85 0 85 53 -6 c28 -3 81 -11 115 -16z m165 -514 c196 -154 356 -282 356
-285 0 -7 -290 -223 -293 -218 -2 2 -101 170 -222 375 -120 204 -222 369 -226
365 -3 -4 -95 -158 -203 -342 -108 -184 -203 -345 -211 -358 -14 -22 -16 -21
-147 88 -72 61 -132 115 -132 120 0 14 689 539 706 537 8 -1 176 -128 372
-282z m-8 -545 c200 -338 363 -616 361 -617 -1 -1 -155 -3 -342 -3 l-339 -1
-3 140 -3 141 -204 171 c-113 94 -205 173 -205 176 0 14 356 612 363 610 4 -1
172 -279 372 -617z m-757 -88 l352 -294 0 -235 c0 -179 -3 -234 -12 -231 -7 3
-171 123 -365 268 l-353 265 0 268 c0 212 3 267 13 261 6 -5 171 -140 365
-302z m1142 20 l0 -229 -37 -26 c-30 -21 -40 -24 -49 -14 -13 14 -174 286
-177 299 -2 9 242 197 256 198 4 0 7 -103 7 -228z m-1334 -489 c35 -26 64 -48
64 -50 0 -2 -45 -3 -100 -3 l-100 0 32 50 c18 27 35 50 37 50 2 0 32 -21 67
-47z m367 -275 l177 -133 0 -74 0 -74 -77 6 c-225 18 -473 134 -654 304 -117
110 -127 103 144 103 l233 0 177 -132z m403 97 c-16 -13 -56 -42 -88 -65 l-58
-41 0 66 0 65 88 0 87 -1 -29 -24z m684 16 c0 -5 -33 -40 -74 -79 -140 -133
-311 -230 -488 -277 -90 -24 -253 -46 -263 -36 -3 2 -5 41 -5 85 l0 82 158
116 157 116 258 1 c141 1 257 -3 257 -8z"/>
</g>
</svg>
