<?xml version="1.0" standalone="no"?>
<!DOCTYPE svg PUBLIC "-//W3C//DTD SVG 20010904//EN"
 "http://www.w3.org/TR/2001/REC-SVG-20010904/DTD/svg10.dtd">
<svg version="1.0" xmlns="http://www.w3.org/2000/svg"
 width="256.000000pt" height="256.000000pt" viewBox="0 0 256.000000 256.000000"
 preserveAspectRatio="xMidYMid meet">

<g transform="translate(0.000000,256.000000) scale(0.100000,-0.100000)"
fill="#000000" stroke="none">
<path d="M800 1328 c-366 -634 -677 -1174 -693 -1200 l-27 -48 207 0 208 0
432 748 c237 411 482 836 545 944 62 109 116 194 119 190 4 -4 35 -113 69
-242 l62 -235 -234 -405 c-319 -550 -557 -966 -564 -984 -5 -14 17 -16 198
-16 l205 0 259 450 c142 247 262 450 265 450 6 0 78 -260 202 -730 l44 -165
187 -3 c175 -2 187 -1 182 15 -9 32 -328 1226 -343 1284 l-14 55 125 218 c69
120 126 220 126 222 0 2 -84 5 -186 6 l-187 3 -63 235 c-34 129 -70 263 -79
298 l-17 62 -182 0 -181 0 -665 -1152z"/>
</g>
</svg>
