<?xml version="1.0" standalone="no"?>
<!DOCTYPE svg PUBLIC "-//W3C//DTD SVG 20010904//EN"
 "http://www.w3.org/TR/2001/REC-SVG-20010904/DTD/svg10.dtd">
<svg version="1.0" xmlns="http://www.w3.org/2000/svg"
 width="256.000000pt" height="256.000000pt" viewBox="0 0 256.000000 256.000000"
 preserveAspectRatio="xMidYMid meet">

<g transform="translate(0.000000,256.000000) scale(0.100000,-0.100000)"
fill="#000000" stroke="none">
<path d="M1130 2394 c-73 -12 -151 -39 -181 -64 -43 -35 -83 -108 -106 -191
-20 -73 -23 -319 -6 -401 6 -27 8 -48 6 -48 -2 0 -35 18 -71 39 -103 61 -181
84 -287 84 -145 1 -214 -44 -276 -178 -105 -223 -32 -511 161 -635 64 -41 157
-70 226 -70 30 0 54 -2 54 -4 0 -2 -11 -32 -24 -67 -41 -109 -58 -210 -54
-311 4 -116 24 -161 110 -247 144 -144 318 -177 496 -94 83 38 221 181 291
300 34 58 58 90 65 85 6 -4 52 -34 101 -67 124 -82 241 -141 311 -155 135 -29
300 24 393 125 63 70 92 143 98 255 10 158 -49 310 -168 433 l-69 72 22 18
c140 111 174 160 199 286 42 216 -53 381 -261 451 -73 25 -195 29 -275 9 -68
-16 -187 -71 -246 -114 -27 -19 -51 -35 -54 -35 -3 0 -5 30 -5 68 0 84 -30
232 -60 295 -32 68 -105 130 -178 151 -53 15 -149 19 -212 10z m278 -845 c76
-38 144 -111 172 -187 44 -115 9 -265 -80 -346 -73 -66 -114 -81 -220 -81 -84
0 -102 3 -152 28 -106 52 -173 160 -185 297 -5 57 -2 72 20 115 26 50 98 126
150 159 51 31 100 45 168 45 54 1 77 -4 127 -30z"/>
</g>
</svg>
