<?xml version="1.0" standalone="no"?>
<!DOCTYPE svg PUBLIC "-//W3C//DTD SVG 20010904//EN"
 "http://www.w3.org/TR/2001/REC-SVG-20010904/DTD/svg10.dtd">
<svg version="1.0" xmlns="http://www.w3.org/2000/svg"
 width="256.000000pt" height="256.000000pt" viewBox="0 0 256.000000 256.000000"
 preserveAspectRatio="xMidYMid meet">

<g transform="translate(0.000000,256.000000) scale(0.100000,-0.100000)"
fill="#000000" stroke="none">
<path d="M602 2417 c-80 -85 -39 -311 82 -456 l36 -43 0 -647 0 -646 105 -53
105 -52 271 0 272 0 103 46 104 47 0 652 0 653 49 79 c173 279 187 427 43 441
-98 9 -231 -78 -328 -214 l-46 -64 -217 0 -217 0 -18 58 c-23 74 -84 134 -187
185 -88 43 -126 47 -157 14z m439 -748 c42 -14 79 -47 79 -69 0 -41 -79 -80
-160 -80 -81 0 -160 39 -160 80 0 21 37 55 75 68 41 14 125 14 166 1z m480 0
c42 -14 79 -47 79 -69 0 -41 -79 -80 -160 -80 -81 0 -160 39 -160 80 0 21 37
55 75 68 41 14 125 14 166 1z m-270 -205 c19 -9 37 -31 49 -60 15 -34 24 -44
43 -44 40 0 126 -30 153 -54 80 -68 -77 -146 -296 -146 -148 0 -300 44 -315
91 -14 44 56 93 149 105 45 7 49 10 66 50 29 67 89 90 151 58z"/>
<path d="M600 355 l0 -235 460 0 461 0 167 91 c92 50 191 105 219 121 l53 29
-72 107 c-39 59 -72 109 -74 111 -2 2 -77 -28 -166 -68 l-163 -71 -288 0 -287
0 -150 75 c-82 41 -152 75 -155 75 -3 0 -5 -106 -5 -235z"/>
</g>
</svg>
