<?xml version="1.0" standalone="no"?>
<!DOCTYPE svg PUBLIC "-//W3C//DTD SVG 20010904//EN"
 "http://www.w3.org/TR/2001/REC-SVG-20010904/DTD/svg10.dtd">
<svg version="1.0" xmlns="http://www.w3.org/2000/svg"
 width="256.000000pt" height="256.000000pt" viewBox="0 0 256.000000 256.000000"
 preserveAspectRatio="xMidYMid meet">

<g transform="translate(0.000000,256.000000) scale(0.100000,-0.100000)"
fill="#000000" stroke="none">
<path d="M801 1284 c-260 -651 -471 -1187 -468 -1191 7 -7 180 98 297 180 108
76 261 202 371 305 84 79 86 80 73 44 -33 -91 3 -201 84 -257 39 -27 51 -30
121 -30 68 0 83 3 119 28 87 57 126 171 88 260 -14 35 -6 30 99 -67 137 -125
250 -217 365 -295 101 -69 267 -171 279 -171 5 0 -205 536 -467 1190 -262 655
-478 1190 -481 1190 -4 0 -219 -534 -480 -1186z m561 96 c42 -104 74 -190 71
-190 -3 0 -31 21 -62 48 -99 84 -82 82 -166 13 -41 -34 -75 -59 -75 -54 0 14
145 373 151 373 3 0 39 -85 81 -190z m-13 -576 c58 -69 60 -74 29 -58 -44 24
-141 24 -187 1 -19 -9 -36 -17 -38 -17 -6 0 121 148 127 149 3 1 34 -33 69
-75z"/>
</g>
</svg>
