<?xml version="1.0" standalone="no"?>
<!DOCTYPE svg PUBLIC "-//W3C//DTD SVG 20010904//EN"
 "http://www.w3.org/TR/2001/REC-SVG-20010904/DTD/svg10.dtd">
<svg version="1.0" xmlns="http://www.w3.org/2000/svg"
 width="256.000000pt" height="256.000000pt" viewBox="0 0 256.000000 256.000000"
 preserveAspectRatio="xMidYMid meet">

<g transform="translate(0.000000,256.000000) scale(0.100000,-0.100000)"
fill="#000000" stroke="none">
<path d="M1515 1530 l-500 -389 -197 0 c-109 -1 -198 0 -198 2 1 1 20 72 44
157 24 85 42 157 40 159 -2 2 -140 -106 -308 -240 l-305 -244 349 -3 c193 -1
350 -6 350 -10 0 -4 -74 -61 -165 -127 -90 -66 -164 -123 -165 -127 0 -5 69
-8 153 -8 l153 0 181 135 182 135 286 0 c157 0 285 -3 285 -7 0 -7 -66 -221
-77 -248 -4 -13 16 -15 130 -15 l134 0 48 135 47 135 142 0 141 0 105 82 105
83 -226 5 -226 5 133 385 c73 212 134 386 134 388 0 1 -62 2 -137 1 l-138 -1
-500 -388z m332 -155 c-34 -116 -66 -216 -70 -222 -11 -17 -411 -19 -405 -2 3
10 531 439 535 435 1 -1 -26 -96 -60 -211z"/>
</g>
</svg>
