<?xml version="1.0" standalone="no"?>
<!DOCTYPE svg PUBLIC "-//W3C//DTD SVG 20010904//EN"
 "http://www.w3.org/TR/2001/REC-SVG-20010904/DTD/svg10.dtd">
<svg version="1.0" xmlns="http://www.w3.org/2000/svg"
 width="256.000000pt" height="256.000000pt" viewBox="0 0 256.000000 256.000000"
 preserveAspectRatio="xMidYMid meet">

<g transform="translate(0.000000,256.000000) scale(0.100000,-0.100000)"
fill="#000000" stroke="none">
<path d="M1152 1905 c-246 -54 -446 -253 -499 -499 -18 -83 -11 -106 33 -106
29 0 30 3 54 95 28 109 74 189 155 271 217 219 549 219 770 0 91 -90 153 -204
135 -251 -8 -21 -8 -36 1 -57 21 -51 68 -62 113 -27 35 28 36 77 1 109 -14 13
-25 28 -25 33 0 6 -16 42 -34 81 -127 261 -427 411 -704 351z"/>
<path d="M726 1804 c-180 -78 -357 -204 -517 -366 -125 -126 -141 -155 -115
-203 28 -51 220 -237 330 -320 89 -66 293 -181 355 -200 39 -12 -114 150 -174
184 -149 85 -415 322 -415 371 0 18 28 52 103 126 109 107 207 184 325 253 39
24 72 47 72 51 0 4 27 37 61 74 33 36 59 66 57 65 -1 0 -39 -16 -82 -35z"/>
<path d="M1809 1774 c34 -37 61 -70 61 -74 0 -4 33 -27 73 -51 117 -69 215
-146 325 -253 72 -72 102 -108 102 -125 0 -50 -259 -281 -424 -377 -33 -20
-65 -43 -70 -53 -5 -9 -34 -42 -64 -73 -30 -32 -51 -58 -45 -58 30 0 281 139
368 204 111 84 303 270 331 321 26 48 10 77 -115 203 -162 164 -340 290 -520
367 l-83 35 61 -66z"/>
<path d="M1148 1701 c-215 -69 -342 -270 -316 -499 27 -239 275 -424 515 -384
305 51 474 374 339 647 -99 200 -331 302 -538 236z m202 -154 c50 -26 90 -90
90 -141 -1 -40 -32 -109 -58 -128 l-21 -14 25 -125 c36 -187 47 -169 -106
-169 -153 0 -142 -18 -106 169 l25 125 -21 14 c-26 19 -57 88 -58 128 0 51 40
115 90 141 24 13 55 23 70 23 15 0 46 -10 70 -23z"/>
<path d="M1852 1222 c-11 -10 -25 -43 -32 -77 -45 -215 -216 -383 -437 -430
-85 -18 -121 -18 -206 0 -180 38 -330 158 -404 323 -21 48 -22 58 -11 88 11
30 10 37 -9 61 -14 20 -30 29 -56 31 -70 6 -101 -66 -54 -125 12 -15 41 -66
64 -114 119 -242 385 -391 643 -358 216 27 406 161 501 353 41 85 76 204 66
230 -11 28 -43 37 -65 18z"/>
</g>
</svg>
