<?xml version="1.0" standalone="no"?>
<!DOCTYPE svg PUBLIC "-//W3C//DTD SVG 20010904//EN"
 "http://www.w3.org/TR/2001/REC-SVG-20010904/DTD/svg10.dtd">
<svg version="1.0" xmlns="http://www.w3.org/2000/svg"
 width="256.000000pt" height="256.000000pt" viewBox="0 0 256.000000 256.000000"
 preserveAspectRatio="xMidYMid meet">

<g transform="translate(0.000000,256.000000) scale(0.100000,-0.100000)"
fill="#000000" stroke="none">
<path d="M262 2379 c-26 -13 -55 -39 -70 -62 l-27 -40 -3 -331 c-3 -354 0
-383 44 -436 56 -66 47 -65 497 -68 l407 -3 0 416 c0 446 0 444 -52 492 -54
51 -74 53 -425 53 -315 0 -330 -1 -371 -21z"/>
<path d="M1555 2381 c-46 -20 -91 -69 -103 -109 -4 -15 -7 -207 -7 -427 l0
-400 400 0 c220 0 412 3 427 8 42 11 95 63 113 110 14 36 15 89 13 378 l-3
336 -27 40 c-16 24 -44 49 -70 62 -42 20 -58 21 -374 21 -298 0 -333 -2 -369
-19z"/>
<path d="M265 1123 c-46 -24 -66 -45 -86 -88 -17 -36 -19 -71 -19 -368 0 -273
3 -334 15 -364 20 -48 41 -71 87 -94 34 -18 63 -19 372 -19 212 0 345 4 363
11 34 13 80 55 99 91 11 22 14 104 14 438 l0 410 -407 0 c-353 -1 -412 -3
-438 -17z"/>
<path d="M1444 1126 c-3 -8 -4 -191 -2 -408 3 -344 5 -397 20 -423 22 -40 66
-81 101 -94 18 -7 151 -11 363 -11 309 0 338 1 372 19 46 23 67 46 87 94 22
54 22 670 0 724 -20 48 -41 71 -87 94 -35 18 -65 19 -443 19 -340 0 -407 -2
-411 -14z"/>
</g>
</svg>
