<?xml version="1.0" standalone="no"?>
<!DOCTYPE svg PUBLIC "-//W3C//DTD SVG 20010904//EN"
 "http://www.w3.org/TR/2001/REC-SVG-20010904/DTD/svg10.dtd">
<svg version="1.0" xmlns="http://www.w3.org/2000/svg"
 width="256.000000pt" height="256.000000pt" viewBox="0 0 256.000000 256.000000"
 preserveAspectRatio="xMidYMid meet">

<g transform="translate(0.000000,256.000000) scale(0.100000,-0.100000)"
fill="#000000" stroke="none">
<path d="M1160 2465 c-94 -27 -173 -88 -229 -178 -17 -28 -261 -712 -261 -733
0 -2 -107 -4 -237 -4 -266 0 -287 -4 -330 -69 -42 -62 -19 -147 48 -183 32
-17 87 -18 1129 -18 1042 0 1097 1 1129 18 67 36 90 121 48 183 -43 65 -64 69
-328 69 l-236 0 -63 183 c-171 497 -183 528 -219 579 -43 62 -118 121 -181
144 -65 23 -203 27 -270 9z m204 -276 c37 -29 37 -29 141 -332 52 -150 97
-280 100 -289 7 -17 -13 -18 -325 -18 -312 0 -332 1 -325 18 3 9 50 143 103
297 114 333 122 345 220 345 45 0 66 -5 86 -21z"/>
<path d="M143 990 c-61 -37 -81 -116 -43 -177 30 -51 65 -63 178 -63 54 0 101
-3 105 -6 3 -3 -9 -47 -27 -97 -18 -51 -59 -168 -91 -261 -53 -156 -57 -172
-46 -207 12 -40 58 -85 97 -95 13 -3 40 -3 59 0 68 13 82 39 194 364 l104 302
607 0 607 0 104 -302 c112 -325 126 -351 194 -364 19 -3 46 -3 59 0 39 10 85
55 97 95 11 35 7 51 -46 207 -32 93 -73 210 -91 261 -18 50 -30 94 -27 97 4 3
51 6 105 6 113 0 148 12 178 63 25 41 25 93 0 134 -40 67 36 63 -1182 63
-1076 0 -1104 -1 -1135 -20z"/>
</g>
</svg>
