<?xml version="1.0" standalone="no"?>
<!DOCTYPE svg PUBLIC "-//W3C//DTD SVG 20010904//EN"
 "http://www.w3.org/TR/2001/REC-SVG-20010904/DTD/svg10.dtd">
<svg version="1.0" xmlns="http://www.w3.org/2000/svg"
 width="256.000000pt" height="256.000000pt" viewBox="0 0 256.000000 256.000000"
 preserveAspectRatio="xMidYMid meet">

<g transform="translate(0.000000,256.000000) scale(0.100000,-0.100000)"
fill="#000000" stroke="none">
<path d="M1273 2388 l-42 -9 -97 -247 c-162 -413 -489 -1230 -579 -1448 -102
-246 -134 -310 -172 -346 -37 -36 -111 -68 -173 -75 l-50 -6 0 -48 0 -49 375
0 375 0 0 50 c0 48 -1 50 -28 50 -37 0 -129 28 -160 48 -29 19 -52 69 -52 114
0 30 521 1463 539 1481 8 8 206 -562 414 -1187 95 -289 117 -364 109 -381 -13
-28 -64 -52 -144 -68 l-63 -13 -3 -47 -3 -47 420 0 421 0 0 48 0 47 -101 34
c-123 42 -156 70 -204 175 -26 56 -489 1305 -707 1909 -11 29 -12 30 -75 15z"/>
</g>
</svg>
