<?xml version="1.0" standalone="no"?>
<!DOCTYPE svg PUBLIC "-//W3C//DTD SVG 20010904//EN"
 "http://www.w3.org/TR/2001/REC-SVG-20010904/DTD/svg10.dtd">
<svg version="1.0" xmlns="http://www.w3.org/2000/svg"
 width="256.000000pt" height="256.000000pt" viewBox="0 0 256.000000 256.000000"
 preserveAspectRatio="xMidYMid meet">

<g transform="translate(0.000000,256.000000) scale(0.100000,-0.100000)"
fill="#000000" stroke="none">
<path d="M1183 2226 c-54 -18 -100 -47 -140 -88 -27 -28 -701 -1191 -773
-1333 -21 -42 -25 -64 -25 -135 0 -78 3 -90 34 -148 82 -151 261 -222 421
-168 100 35 140 87 370 494 113 198 207 361 210 361 3 1 100 -162 215 -360
116 -198 227 -379 248 -401 119 -124 336 -137 461 -27 94 83 138 237 102 354
-8 27 -179 335 -378 684 -389 679 -405 702 -507 749 -66 31 -175 39 -238 18z"/>
</g>
</svg>
