<?xml version="1.0" standalone="no"?>
<!DOCTYPE svg PUBLIC "-//W3C//DTD SVG 20010904//EN"
 "http://www.w3.org/TR/2001/REC-SVG-20010904/DTD/svg10.dtd">
<svg version="1.0" xmlns="http://www.w3.org/2000/svg"
 width="256.000000pt" height="256.000000pt" viewBox="0 0 256.000000 256.000000"
 preserveAspectRatio="xMidYMid meet">

<g transform="translate(0.000000,256.000000) scale(0.100000,-0.100000)"
fill="#000000" stroke="none">
<path d="M1201 2471 c-18 -5 -90 -38 -160 -74 -69 -35 -261 -133 -425 -217
-173 -89 -317 -169 -339 -189 -88 -79 -117 -162 -117 -328 l0 -113 145 0 145
0 0 103 c0 56 4 107 8 113 10 15 809 424 829 424 24 0 806 -400 826 -422 14
-16 17 -39 17 -119 l0 -99 145 0 145 0 0 93 c0 175 -33 273 -117 347 -39 34
-275 159 -750 397 -162 81 -175 86 -245 89 -40 2 -88 -1 -107 -5z"/>
<path d="M1161 1814 c-191 -51 -331 -188 -387 -379 -24 -84 -22 -220 5 -306
44 -138 153 -261 287 -321 l74 -33 0 -167 0 -167 -327 166 c-181 91 -336 173
-345 181 -15 13 -18 32 -18 119 l0 103 -146 0 -146 0 4 -137 c3 -127 5 -143
31 -195 50 -101 93 -130 537 -359 223 -115 427 -216 454 -224 63 -19 129 -19
192 0 77 23 863 428 912 470 91 79 122 163 122 332 l0 113 -145 0 -145 0 0
-102 c0 -57 -4 -108 -8 -114 -8 -14 -643 -344 -660 -344 -9 0 -12 44 -12 159
l0 159 88 43 c141 68 242 187 286 338 20 68 21 208 1 280 -49 184 -203 337
-391 386 -72 19 -191 18 -263 -1z m237 -303 c48 -24 107 -91 123 -138 6 -19 9
-63 7 -98 -8 -125 -98 -215 -223 -223 -78 -5 -120 8 -174 54 -79 68 -106 159
-77 258 42 143 210 215 344 147z"/>
</g>
</svg>
