<?xml version="1.0" standalone="no"?>
<!DOCTYPE svg PUBLIC "-//W3C//DTD SVG 20010904//EN"
 "http://www.w3.org/TR/2001/REC-SVG-20010904/DTD/svg10.dtd">
<svg version="1.0" xmlns="http://www.w3.org/2000/svg"
 width="256.000000pt" height="256.000000pt" viewBox="0 0 256.000000 256.000000"
 preserveAspectRatio="xMidYMid meet">

<g transform="translate(0.000000,256.000000) scale(0.100000,-0.100000)"
fill="#000000" stroke="none">
<path d="M990 2393 c0 -3 23 -33 51 -65 28 -33 50 -60 48 -62 -2 -1 -20 -9
-39 -16 -107 -42 -249 -152 -314 -243 -88 -124 -117 -238 -97 -380 32 -231
210 -410 486 -489 69 -20 102 -23 245 -23 184 1 240 12 368 70 55 26 75 40 83
62 16 44 69 93 126 119 58 26 98 72 143 167 63 131 61 288 -5 423 -19 40 -35
85 -35 102 0 26 -8 35 -63 70 -264 166 -616 272 -909 272 -49 0 -88 -3 -88 -7z
m765 -303 c44 -11 112 -36 150 -55 39 -20 61 -33 50 -30 -10 3 -38 9 -62 12
-37 5 -46 2 -77 -25 l-36 -31 -52 16 c-29 8 -66 22 -83 30 -46 23 -135 92
-135 105 0 16 148 3 245 -22z"/>
<path d="M785 2207 c-297 -120 -508 -362 -593 -677 -22 -84 -26 -114 -25 -255
0 -140 3 -172 26 -257 43 -162 107 -289 215 -426 292 -371 818 -525 1274 -372
276 93 533 305 687 568 l32 54 -43 -8 c-87 -15 -218 -7 -303 20 -136 43 -221
118 -251 224 -10 32 -20 51 -27 48 -145 -60 -323 -92 -468 -82 -342 22 -618
201 -709 459 -31 88 -39 261 -15 342 43 151 138 276 285 377 40 27 3 21 -85
-15z"/>
<path d="M2185 1895 c14 -72 17 -224 5 -276 -17 -70 -51 -147 -90 -204 l-31
-46 30 -35 c32 -36 39 -71 20 -106 -17 -32 -4 -33 55 -4 123 60 194 205 184
375 -6 101 -44 185 -122 266 -54 56 -57 58 -51 30z"/>
</g>
</svg>
