<?xml version="1.0" standalone="no"?>
<!DOCTYPE svg PUBLIC "-//W3C//DTD SVG 20010904//EN"
 "http://www.w3.org/TR/2001/REC-SVG-20010904/DTD/svg10.dtd">
<svg version="1.0" xmlns="http://www.w3.org/2000/svg"
 width="256.000000pt" height="256.000000pt" viewBox="0 0 256.000000 256.000000"
 preserveAspectRatio="xMidYMid meet">

<g transform="translate(0.000000,256.000000) scale(0.100000,-0.100000)"
fill="#000000" stroke="none">
<path d="M1655 2385 c-112 -14 -132 -21 -225 -73 l-65 -36 80 -11 c107 -16
177 -47 225 -102 79 -90 103 -205 98 -468 -4 -210 3 -237 61 -256 20 -6 109
-45 198 -86 177 -82 187 -83 243 -37 69 59 112 145 130 263 6 36 25 107 42
156 24 69 31 108 32 167 l1 77 -120 119 c-66 65 -138 140 -159 166 -45 54
-150 110 -235 126 -68 13 -179 11 -306 -5z"/>
<path d="M738 2270 c-61 -18 -96 -50 -116 -103 -32 -87 -50 -150 -57 -198 -3
-25 -21 -94 -39 -153 -26 -82 -49 -129 -95 -200 -73 -111 -82 -146 -52 -215
11 -27 21 -70 21 -96 0 -44 -2 -48 -117 -168 -96 -99 -114 -122 -98 -125 11
-2 34 -10 50 -17 17 -8 48 -16 70 -19 78 -9 134 -23 148 -35 9 -7 29 -9 54 -5
46 7 96 -14 114 -47 8 -16 17 -19 36 -14 14 3 31 1 40 -6 8 -7 31 -12 51 -11
20 1 53 -6 74 -16 23 -12 41 -16 52 -10 8 5 65 7 125 5 61 -2 114 0 118 4 5 4
55 9 113 11 l105 3 3 -72 c2 -40 6 -73 10 -73 4 0 18 7 30 16 21 14 22 22 22
145 0 152 4 163 85 233 33 28 65 67 78 94 16 33 36 55 69 75 87 54 155 53 293
-5 38 -16 82 -35 96 -41 22 -9 31 -7 58 12 25 18 29 26 21 36 -13 16 -145 72
-245 105 -127 41 -141 74 -132 300 14 314 -39 465 -179 514 -77 27 -235 32
-362 11 -127 -21 -151 -18 -261 35 -83 40 -126 47 -183 30z m184 -106 c9 -3
29 -19 43 -35 30 -37 33 -98 10 -228 -20 -116 -32 -146 -65 -175 -29 -24 -141
-56 -196 -56 -41 0 -109 37 -122 66 -19 41 -14 63 32 143 24 42 56 110 71 153
44 126 110 164 227 132z m525 -41 c41 -19 100 -83 124 -137 31 -69 25 -133
-21 -222 -53 -102 -83 -140 -133 -165 -83 -43 -280 -9 -322 54 -12 18 -17 52
-18 124 -3 144 27 223 69 181 12 -12 13 -23 5 -59 -17 -71 -14 -195 5 -213 29
-29 37 -19 29 39 -11 88 2 137 61 235 30 49 54 94 54 100 0 6 -19 1 -41 -11
-37 -18 -43 -19 -57 -6 -29 30 12 70 96 93 52 14 100 10 149 -13z m-713 -578
c153 -54 184 -147 90 -276 -59 -81 -186 -166 -262 -176 -33 -4 -44 -1 -75 26
-48 42 -55 89 -27 161 12 29 30 97 40 149 16 77 24 100 45 119 35 30 99 29
189 -3z"/>
<path d="M801 2093 c-12 -10 -32 -49 -46 -86 -13 -38 -44 -104 -67 -148 -35
-64 -41 -82 -32 -96 24 -38 41 -27 46 30 3 38 15 70 40 113 37 61 93 193 85
200 -2 3 -14 -3 -26 -13z"/>
<path d="M592 1501 c-8 -4 -22 -51 -32 -104 -10 -52 -26 -109 -34 -126 -19
-36 -21 -82 -4 -99 13 -13 36 60 62 194 8 39 21 84 29 101 20 38 10 54 -21 34z"/>
<path d="M1665 1236 c-26 -16 -47 -39 -58 -63 -15 -36 -33 -56 -129 -145 -29
-27 -29 -27 -26 -135 3 -90 6 -107 18 -104 8 1 58 11 110 20 143 26 140 24
154 149 4 40 51 142 103 225 29 46 25 62 -17 71 -63 12 -114 6 -155 -18z"/>
<path d="M1897 1186 c-53 -80 -117 -220 -117 -254 0 -60 -18 -110 -48 -131
-16 -11 -73 -28 -135 -40 -114 -21 -128 -27 -200 -80 -29 -22 -48 -45 -52 -63
-4 -15 -13 -35 -22 -43 -16 -17 -69 -20 -78 -5 -9 14 -25 12 -25 -3 0 -8 -11
-24 -24 -36 -19 -18 -33 -22 -57 -19 -28 4 -38 0 -66 -30 -26 -27 -37 -33 -55
-27 -59 18 -69 17 -93 -5 -15 -14 -41 -24 -69 -27 -42 -5 -48 -3 -78 29 -18
19 -43 38 -55 41 -19 4 -23 1 -23 -19 0 -35 -32 -47 -116 -42 -60 4 -81 10
-116 34 -32 21 -52 28 -79 26 -32 -3 -39 1 -59 32 -20 33 -25 36 -69 36 -33 0
-53 5 -64 18 -14 16 -67 29 -67 17 0 -3 23 -54 52 -113 69 -142 143 -220 233
-245 106 -29 354 -50 540 -44 159 4 176 6 260 36 82 29 107 33 270 42 99 6
190 12 203 15 55 11 170 151 229 280 27 58 27 63 28 259 1 216 2 223 63 303
14 18 23 34 21 36 -12 11 -90 46 -102 46 -8 0 -22 -11 -30 -24z"/>
<path d="M162 947 c-11 -12 -27 -36 -36 -54 -15 -31 -15 -33 3 -43 11 -5 22
-10 24 -10 9 0 76 109 69 113 -27 15 -42 13 -60 -6z"/>
<path d="M257 908 c-54 -73 -59 -85 -42 -92 33 -12 44 -5 77 52 18 31 34 60
36 65 2 4 -8 7 -22 7 -17 0 -33 -11 -49 -32z"/>
<path d="M368 899 c-25 -14 -73 -99 -62 -109 5 -5 21 -12 36 -15 24 -6 30 -1
63 49 22 32 35 62 32 71 -7 17 -43 19 -69 4z"/>
<path d="M466 834 c-25 -38 -42 -71 -38 -75 4 -4 35 -10 68 -13 61 -7 62 -6
81 25 16 24 19 39 12 66 -9 42 -15 49 -51 58 -24 6 -30 1 -72 -61z"/>
<path d="M81 815 c1 -17 5 -43 8 -60 7 -29 7 -29 15 14 6 34 5 47 -8 59 -15
15 -16 14 -15 -13z"/>
<path d="M608 753 c-30 -43 -76 -111 -103 -152 l-49 -74 31 -27 c22 -19 46
-29 85 -34 89 -11 90 -11 83 113 -4 58 -2 137 4 176 5 38 9 71 7 73 -2 1 -28
-32 -58 -75z"/>
<path d="M1268 823 c-13 -3 -18 -15 -18 -44 0 -35 3 -39 25 -39 22 0 25 4 25
35 0 19 0 38 1 42 1 10 -11 12 -33 6z"/>
<path d="M708 798 c-26 -47 -5 -255 25 -245 19 6 88 149 94 196 7 53 -10 71
-69 71 -28 0 -40 -5 -50 -22z"/>
<path d="M908 803 c-19 -5 -24 -17 -34 -85 l-6 -48 35 0 c35 0 37 2 53 54 24
76 13 95 -48 79z"/>
<path d="M1016 783 c-7 -16 -17 -43 -21 -60 -7 -33 -7 -33 34 -33 40 0 40 0
47 47 6 38 4 49 -12 60 -25 18 -32 17 -48 -14z"/>
<path d="M1125 764 c-3 -25 -4 -48 -2 -50 3 -3 16 -2 31 2 23 5 26 11 26 50 0
40 -2 44 -24 44 -21 0 -25 -6 -31 -46z"/>
<path d="M136 764 c-9 -25 -7 -83 4 -105 20 -36 30 -19 30 51 0 53 -3 70 -14
70 -8 0 -17 -7 -20 -16z"/>
<path d="M215 728 c-3 -13 -2 -45 3 -73 7 -49 8 -50 46 -53 33 -3 38 -1 32 13
-3 9 -9 41 -12 70 -5 43 -11 54 -28 59 -32 9 -35 8 -41 -16z"/>
<path d="M323 672 c7 -61 45 -154 61 -149 18 6 83 96 99 138 l15 37 -62 7
c-33 3 -74 9 -90 12 l-29 5 6 -50z"/>
<path d="M1262 681 c-8 -5 -12 -22 -10 -42 2 -29 7 -34 28 -34 22 0 25 5 28
43 3 35 0 42 -15 42 -10 0 -24 -4 -31 -9z"/>
<path d="M1131 663 c-22 -4 -23 -8 -17 -50 7 -54 12 -63 35 -63 27 0 40 21 47
74 7 50 4 52 -65 39z"/>
<path d="M997 628 c-14 -11 -16 -22 -11 -60 8 -57 25 -84 48 -75 22 9 36 49
36 103 0 42 -2 44 -28 44 -16 0 -36 -6 -45 -12z"/>
<path d="M810 573 c-7 -21 -10 -54 -8 -73 3 -33 5 -35 44 -38 35 -3 45 1 63
24 14 18 21 41 21 69 0 47 -11 55 -77 55 -29 0 -33 -4 -43 -37z"/>
</g>
</svg>
