<?xml version="1.0" standalone="no"?>
<!DOCTYPE svg PUBLIC "-//W3C//DTD SVG 20010904//EN"
 "http://www.w3.org/TR/2001/REC-SVG-20010904/DTD/svg10.dtd">
<svg version="1.0" xmlns="http://www.w3.org/2000/svg"
 width="256.000000pt" height="256.000000pt" viewBox="0 0 256.000000 256.000000"
 preserveAspectRatio="xMidYMid meet">

<g transform="translate(0.000000,256.000000) scale(0.100000,-0.100000)"
fill="#000000" stroke="none">
<path d="M673 1288 l-589 -1023 598 -3 c329 -1 867 -1 1196 0 l598 3 -600
1022 c-331 563 -604 1023 -607 1023 -3 0 -271 -460 -596 -1022z m902 310 c403
-688 363 -616 334 -595 -95 68 -184 107 -302 131 -116 24 -163 20 -355 -30
-141 -37 -177 -43 -184 -32 -58 87 -80 226 -59 389 13 105 46 233 85 331 24
59 167 318 176 318 3 0 140 -231 305 -512z m-656 -448 c28 -102 125 -236 264
-366 79 -73 80 -74 66 -101 -44 -84 -193 -187 -361 -251 -173 -64 -226 -73
-438 -70 l-190 3 317 551 318 550 6 -135 c3 -75 12 -156 18 -181z m706 -126
c102 -24 192 -76 301 -172 167 -148 197 -188 347 -444 l28 -48 -653 0 -653 0
73 40 c215 117 277 196 368 472 l59 177 35 -5 c19 -3 62 -12 95 -20z m-247 -6
c-3 -7 -20 -57 -38 -112 l-32 -98 -79 78 c-43 43 -76 80 -74 83 5 4 201 59
219 60 4 1 6 -5 4 -11z"/>
</g>
</svg>
