<?xml version="1.0" standalone="no"?>
<!DOCTYPE svg PUBLIC "-//W3C//DTD SVG 20010904//EN"
 "http://www.w3.org/TR/2001/REC-SVG-20010904/DTD/svg10.dtd">
<svg version="1.0" xmlns="http://www.w3.org/2000/svg"
 width="256.000000pt" height="256.000000pt" viewBox="0 0 256.000000 256.000000"
 preserveAspectRatio="xMidYMid meet">

<g transform="translate(0.000000,256.000000) scale(0.100000,-0.100000)"
fill="#000000" stroke="none">
<path d="M1235 2391 c-16 -5 -43 -14 -58 -20 -35 -14 -131 -103 -158 -148 -12
-19 -67 -154 -124 -301 l-102 -267 -198 -3 c-239 -3 -235 -1 -235 -103 0 -97
4 -99 197 -99 84 0 153 -4 153 -9 0 -5 -7 -25 -15 -45 l-15 -36 -145 0 c-177
0 -185 -4 -185 -100 0 -91 13 -100 145 -100 58 0 105 -3 105 -6 0 -3 -61 -164
-135 -359 -74 -194 -138 -373 -141 -398 -17 -120 81 -223 223 -235 54 -4 70
-1 119 23 74 36 101 80 160 259 26 77 50 146 54 151 6 6 165 9 452 7 l444 -2
53 -162 c45 -136 59 -168 93 -204 144 -156 410 -46 383 158 -3 29 -66 213
-139 408 l-133 355 109 5 c131 6 138 11 138 105 0 91 -5 94 -180 97 l-143 3
-18 43 -18 42 160 0 c156 0 160 1 184 25 33 32 36 120 6 156 -19 24 -23 24
-224 27 l-204 3 -88 237 c-49 130 -101 263 -117 295 -65 131 -164 198 -297
203 -42 2 -89 -1 -106 -5z m239 -905 c80 -236 146 -430 146 -432 0 -2 -133 -4
-295 -4 -162 0 -295 1 -295 3 0 3 277 834 285 856 3 8 7 12 9 10 3 -2 70 -197
150 -433z"/>
</g>
</svg>
