<?xml version="1.0" standalone="no"?>
<!DOCTYPE svg PUBLIC "-//W3C//DTD SVG 20010904//EN"
 "http://www.w3.org/TR/2001/REC-SVG-20010904/DTD/svg10.dtd">
<svg version="1.0" xmlns="http://www.w3.org/2000/svg"
 width="256.000000pt" height="256.000000pt" viewBox="0 0 256.000000 256.000000"
 preserveAspectRatio="xMidYMid meet">

<g transform="translate(0.000000,256.000000) scale(0.100000,-0.100000)"
fill="#000000" stroke="none">
<path d="M1145 2474 c-307 -47 -543 -167 -739 -375 -42 -44 -76 -85 -76 -90 0
-5 263 -9 651 -9 l651 0 72 75 c57 59 78 75 100 75 23 0 44 -16 101 -75 l71
-75 127 0 c70 0 127 4 127 9 0 19 -154 173 -229 229 -132 99 -297 176 -461
213 -83 19 -327 33 -395 23z"/>
<path d="M1433 1758 l-75 -73 -606 -5 -607 -5 -22 -85 c-13 -47 -26 -113 -29
-147 l-7 -63 558 0 557 0 77 75 c56 54 85 75 103 75 19 0 46 -20 100 -75 l74
-75 458 0 459 0 -7 64 c-6 58 -40 209 -52 228 -3 4 -167 8 -365 8 l-360 0 -72
75 c-40 41 -81 75 -91 75 -10 0 -52 -33 -93 -72z"/>
<path d="M1074 1200 c-11 -4 -40 -31 -64 -59 -70 -85 -47 -81 -498 -81 -219 0
-401 -3 -404 -6 -9 -8 37 -171 66 -237 l25 -57 286 0 286 0 79 75 c50 48 87
75 101 75 15 0 47 -25 94 -75 l72 -75 624 2 624 3 28 70 c32 79 67 211 59 219
-3 4 -272 6 -598 6 l-592 0 -64 69 c-66 72 -89 85 -124 71z"/>
<path d="M534 541 c-43 -46 -77 -72 -97 -77 l-31 -7 62 -58 c155 -146 374
-256 597 -300 103 -21 349 -18 455 5 218 47 424 154 579 300 l53 51 -682 5
-682 5 -65 73 c-87 96 -100 96 -189 3z"/>
</g>
</svg>
