<?xml version="1.0" standalone="no"?>
<!DOCTYPE svg PUBLIC "-//W3C//DTD SVG 20010904//EN"
 "http://www.w3.org/TR/2001/REC-SVG-20010904/DTD/svg10.dtd">
<svg version="1.0" xmlns="http://www.w3.org/2000/svg"
 width="256.000000pt" height="256.000000pt" viewBox="0 0 256.000000 256.000000"
 preserveAspectRatio="xMidYMid meet">

<g transform="translate(0.000000,256.000000) scale(0.100000,-0.100000)"
fill="#000000" stroke="none">
<path d="M1095 2309 c-154 -22 -338 -95 -467 -184 -88 -62 -221 -196 -279
-283 -123 -184 -189 -401 -189 -620 0 -194 71 -432 172 -579 l29 -43 79 0
c180 0 452 52 608 116 149 61 379 219 581 398 210 186 400 425 505 634 l37 74
-57 74 c-164 214 -418 365 -688 409 -98 16 -235 18 -331 4z"/>
<path d="M2303 1997 l-73 -31 0 -68 0 -67 82 34 c45 19 84 35 85 35 2 0 3 29
3 65 0 46 -4 65 -12 64 -7 0 -46 -15 -85 -32z"/>
<path d="M2142 1578 c-203 -312 -357 -656 -467 -1046 -34 -122 -77 -323 -70
-330 11 -11 145 51 235 109 187 120 353 322 428 522 59 156 75 258 69 432 -3
84 -12 177 -21 213 -20 79 -75 222 -86 222 -4 0 -44 -55 -88 -122z"/>
</g>
</svg>
