<?xml version="1.0" standalone="no"?>
<!DOCTYPE svg PUBLIC "-//W3C//DTD SVG 20010904//EN"
 "http://www.w3.org/TR/2001/REC-SVG-20010904/DTD/svg10.dtd">
<svg version="1.0" xmlns="http://www.w3.org/2000/svg"
 width="256.000000pt" height="256.000000pt" viewBox="0 0 256.000000 256.000000"
 preserveAspectRatio="xMidYMid meet">

<g transform="translate(0.000000,256.000000) scale(0.100000,-0.100000)"
fill="#000000" stroke="none">
<path d="M1145 2474 c-168 -26 -282 -62 -418 -132 -317 -162 -546 -464 -623
-822 -26 -118 -26 -362 0 -480 102 -474 462 -834 936 -936 118 -26 362 -26
480 0 474 102 834 462 936 936 26 118 26 362 0 480 -101 467 -454 826 -916
931 -83 19 -327 33 -395 23z m306 -199 c212 -37 390 -129 542 -282 397 -396
397 -1030 0 -1426 -396 -397 -1030 -397 -1426 0 -397 396 -397 1030 0 1426
234 234 562 339 884 282z"/>
<path d="M1194 1755 c-140 -30 -232 -113 -250 -224 l-7 -41 111 0 110 0 12 36
c16 47 61 74 125 74 95 0 153 -50 157 -135 l3 -50 -140 -6 c-184 -9 -256 -31
-321 -101 -54 -57 -69 -95 -69 -178 0 -90 22 -139 86 -194 53 -45 125 -69 208
-69 83 0 134 14 195 54 26 17 48 30 49 28 2 -2 7 -17 13 -34 l9 -30 113 -3
c61 -1 112 0 112 2 0 3 -7 31 -15 63 -11 43 -15 117 -15 308 0 290 -6 325 -70
398 -86 97 -251 138 -416 102z m264 -553 c3 -73 2 -74 -32 -106 -42 -40 -109
-60 -177 -54 -82 8 -120 66 -93 143 24 71 79 94 214 92 l85 -2 3 -73z"/>
</g>
</svg>
