<?xml version="1.0" standalone="no"?>
<!DOCTYPE svg PUBLIC "-//W3C//DTD SVG 20010904//EN"
 "http://www.w3.org/TR/2001/REC-SVG-20010904/DTD/svg10.dtd">
<svg version="1.0" xmlns="http://www.w3.org/2000/svg"
 width="256.000000pt" height="256.000000pt" viewBox="0 0 256.000000 256.000000"
 preserveAspectRatio="xMidYMid meet">

<g transform="translate(0.000000,256.000000) scale(0.100000,-0.100000)"
fill="#000000" stroke="none">
<path d="M722 1292 c-304 -517 -552 -942 -552 -945 0 -4 136 -7 303 -7 l302 1
395 680 c217 374 399 690 404 702 7 18 -18 64 -138 262 -81 132 -150 241 -154
243 -4 1 -256 -420 -560 -936z"/>
<path d="M1480 1286 c-107 -80 -194 -148 -193 -153 2 -4 137 -184 300 -400
l298 -392 253 0 c157 -1 252 3 250 9 -9 27 -695 1079 -703 1080 -5 0 -98 -65
-205 -144z"/>
<path d="M1081 668 c-99 -171 -179 -313 -177 -315 3 -4 523 344 550 368 8 8
-171 257 -185 259 -3 0 -88 -140 -188 -312z"/>
</g>
</svg>
