<?xml version="1.0" standalone="no"?>
<!DOCTYPE svg PUBLIC "-//W3C//DTD SVG 20010904//EN"
 "http://www.w3.org/TR/2001/REC-SVG-20010904/DTD/svg10.dtd">
<svg version="1.0" xmlns="http://www.w3.org/2000/svg"
 width="256.000000pt" height="256.000000pt" viewBox="0 0 256.000000 256.000000"
 preserveAspectRatio="xMidYMid meet">

<g transform="translate(0.000000,256.000000) scale(0.100000,-0.100000)"
fill="#000000" stroke="none">
<path d="M1053 2390 c-320 -31 -661 -139 -760 -240 -56 -58 -57 -74 -29 -506
14 -214 29 -411 32 -439 25 -211 132 -431 288 -593 95 -98 161 -146 416 -299
224 -135 262 -153 315 -153 54 0 92 18 315 153 258 156 326 204 418 301 157
165 261 381 286 591 3 28 18 225 32 440 28 430 28 437 -29 502 -77 88 -381
193 -672 233 -108 14 -498 21 -612 10z m117 -155 c0 -4 -368 -615 -375 -623
-2 -2 -69 106 -149 240 -166 278 -163 246 -26 292 102 34 235 65 350 81 98 13
200 19 200 10z m481 -10 c124 -16 252 -45 360 -81 130 -43 133 -17 -27 -288
-76 -130 -142 -236 -145 -236 -4 0 -60 91 -125 202 -64 112 -146 251 -180 310
l-63 108 37 0 c20 0 85 -7 143 -15z m-124 -386 l190 -326 -2 -59 c-2 -57 -7
-68 -196 -391 -107 -183 -196 -332 -199 -333 -8 0 -435 720 -433 730 2 8 356
598 409 681 14 23 29 37 34 33 4 -5 93 -156 197 -335z m-852 -386 c-1 -37 -18
-72 -96 -204 -52 -87 -97 -159 -100 -159 -15 0 -32 141 -54 465 -14 193 -25
364 -25 380 0 23 30 -21 139 -203 127 -215 138 -237 136 -279z m1530 111 c-24
-354 -39 -474 -55 -474 -5 0 -52 75 -106 168 -53 92 -102 174 -107 183 -7 12
26 76 139 269 82 139 150 246 152 238 2 -9 -9 -181 -23 -384z m-1253 -526 c86
-145 166 -280 179 -302 l22 -38 -24 7 c-97 30 -524 217 -547 240 -5 5 200 354
208 355 3 0 76 -118 162 -262z m976 114 c44 -76 90 -154 101 -174 l22 -36
-276 -117 c-152 -65 -278 -116 -280 -114 -6 6 339 588 346 583 4 -2 43 -66 87
-142z m-18 -463 c-92 -78 -159 -124 -323 -222 -98 -59 -182 -107 -188 -107
-14 0 -11 127 4 137 27 17 532 230 537 226 3 -3 -11 -18 -30 -34z m-792 -141
l122 -40 0 -80 0 -80 -22 14 c-13 8 -97 59 -188 113 -91 54 -181 110 -201 124
-47 34 -119 97 -119 103 0 3 64 -21 143 -54 78 -33 197 -78 265 -100z"/>
</g>
</svg>
