<?xml version="1.0" standalone="no"?>
<!DOCTYPE svg PUBLIC "-//W3C//DTD SVG 20010904//EN"
 "http://www.w3.org/TR/2001/REC-SVG-20010904/DTD/svg10.dtd">
<svg version="1.0" xmlns="http://www.w3.org/2000/svg"
 width="256.000000pt" height="256.000000pt" viewBox="0 0 256.000000 256.000000"
 preserveAspectRatio="xMidYMid meet">

<g transform="translate(0.000000,256.000000) scale(0.100000,-0.100000)"
fill="#000000" stroke="none">
<path d="M1136 2298 c-8 -13 -248 -436 -535 -942 l-521 -918 67 -109 66 -109
1067 0 1067 0 66 109 67 109 -533 938 -533 939 -131 3 c-128 2 -133 2 -147
-20z m428 -1142 c157 -258 286 -470 286 -472 0 -2 -250 -4 -555 -4 -305 0
-555 3 -555 8 0 16 526 950 532 944 3 -4 135 -218 292 -476z"/>
</g>
</svg>
