<?xml version="1.0" standalone="no"?>
<!DOCTYPE svg PUBLIC "-//W3C//DTD SVG 20010904//EN"
 "http://www.w3.org/TR/2001/REC-SVG-20010904/DTD/svg10.dtd">
<svg version="1.0" xmlns="http://www.w3.org/2000/svg"
 width="256.000000pt" height="256.000000pt" viewBox="0 0 256.000000 256.000000"
 preserveAspectRatio="xMidYMid meet">

<g transform="translate(0.000000,256.000000) scale(0.100000,-0.100000)"
fill="#000000" stroke="none">
<path d="M2175 1975 c-22 -15 -163 -149 -313 -298 l-273 -272 3 -147 3 -147
241 237 c132 130 266 262 297 292 l57 54 0 -492 0 -492 -498 0 -497 0 -55 90
c-30 49 -57 90 -60 90 -3 0 -93 -88 -200 -195 l-195 -195 806 0 806 0 34 23
c72 48 69 19 69 725 0 564 -2 638 -16 668 -22 47 -67 76 -123 81 -37 4 -53 0
-86 -22z"/>
<path d="M1351 1659 c-25 -8 -177 -154 -610 -584 l-576 -574 230 -1 230 0 105
105 105 105 -80 0 -80 1 325 318 325 319 3 -299 2 -300 108 3 107 3 0 407 c0
398 0 407 -21 435 -40 54 -112 79 -173 62z"/>
</g>
</svg>
