<?xml version="1.0" standalone="no"?>
<!DOCTYPE svg PUBLIC "-//W3C//DTD SVG 20010904//EN"
 "http://www.w3.org/TR/2001/REC-SVG-20010904/DTD/svg10.dtd">
<svg version="1.0" xmlns="http://www.w3.org/2000/svg"
 width="256.000000pt" height="256.000000pt" viewBox="0 0 256.000000 256.000000"
 preserveAspectRatio="xMidYMid meet">

<g transform="translate(0.000000,256.000000) scale(0.100000,-0.100000)"
fill="#000000" stroke="none">
<path d="M870 2002 l-425 -239 -3 -97 c-1 -53 0 -96 3 -96 11 0 1015 585 1015
591 0 5 -81 44 -155 75 -6 2 -202 -103 -435 -234z"/>
<path d="M1287 1824 l-378 -216 78 -48 78 -49 294 150 c161 82 298 149 303
149 9 0 521 -295 599 -345 l36 -23 13 -319 c7 -175 16 -339 19 -365 l6 -47 73
66 72 65 0 458 0 459 -84 45 c-45 26 -86 46 -90 46 -3 0 -6 -38 -6 -85 0 -58
-4 -85 -12 -85 -9 0 -516 291 -603 347 -19 11 -58 -9 -398 -203z"/>
<path d="M168 1819 l-88 -60 0 -472 c0 -439 1 -473 18 -483 9 -6 52 -30 95
-53 l77 -43 0 586 c0 322 -3 586 -7 585 -5 0 -47 -27 -95 -60z"/>
<path d="M1745 1459 c-38 -28 -71 -53 -72 -57 -1 -4 55 -41 125 -82 l127 -76
3 -112 c2 -86 0 -112 -10 -112 -7 1 -110 59 -228 129 l-215 129 -87 -46 c-48
-25 -85 -48 -83 -52 3 -4 109 -72 237 -150 128 -79 237 -146 241 -150 8 -7
-135 -100 -154 -100 -5 0 -123 68 -262 151 l-252 151 -30 -18 c-80 -47 -135
-86 -131 -92 2 -4 115 -77 250 -162 135 -85 246 -157 246 -160 -1 -10 -152
-95 -163 -92 -7 2 -190 102 -408 223 -218 120 -400 219 -403 219 -4 0 -5 -43
-4 -96 l3 -96 390 -240 c215 -132 396 -242 403 -245 7 -3 202 113 432 258
l420 263 -2 250 -3 250 -140 83 c-77 45 -144 82 -150 82 -5 -1 -41 -23 -80
-50z"/>
</g>
</svg>
