<?xml version="1.0" standalone="no"?>
<!DOCTYPE svg PUBLIC "-//W3C//DTD SVG 20010904//EN"
 "http://www.w3.org/TR/2001/REC-SVG-20010904/DTD/svg10.dtd">
<svg version="1.0" xmlns="http://www.w3.org/2000/svg"
 width="256.000000pt" height="256.000000pt" viewBox="0 0 256.000000 256.000000"
 preserveAspectRatio="xMidYMid meet">

<g transform="translate(0.000000,256.000000) scale(0.100000,-0.100000)"
fill="#000000" stroke="none">
<path d="M1014 2456 c-28 -13 -63 -39 -77 -58 -34 -44 -846 -2009 -854 -2065
-17 -126 94 -253 223 -253 70 0 144 39 183 95 17 25 149 335 328 773 4 10 102
12 461 10 l455 -3 157 -370 c86 -204 165 -385 175 -403 34 -57 117 -102 189
-102 129 0 240 127 223 253 -3 23 -104 274 -224 557 l-219 515 -512 3 c-282 1
-512 4 -512 6 0 2 73 178 161 392 146 351 162 395 162 449 1 62 -8 87 -51 144
-32 42 -113 81 -172 81 -26 0 -66 -10 -96 -24z"/>
<path d="M1570 2051 c-139 -45 -209 -177 -168 -315 19 -62 91 -130 157 -150
68 -20 74 -20 142 0 125 37 196 173 159 305 -13 47 -72 115 -122 140 -45 23
-129 33 -168 20z"/>
</g>
</svg>
