<?xml version="1.0" standalone="no"?>
<!DOCTYPE svg PUBLIC "-//W3C//DTD SVG 20010904//EN"
 "http://www.w3.org/TR/2001/REC-SVG-20010904/DTD/svg10.dtd">
<svg version="1.0" xmlns="http://www.w3.org/2000/svg"
 width="256.000000pt" height="256.000000pt" viewBox="0 0 256.000000 256.000000"
 preserveAspectRatio="xMidYMid meet">

<g transform="translate(0.000000,256.000000) scale(0.100000,-0.100000)"
fill="#000000" stroke="none">
<path d="M1243 2412 c-236 -203 -328 -256 -594 -343 -204 -66 -217 -72 -222
-97 -32 -162 -33 -442 -2 -617 54 -309 191 -598 415 -875 120 -148 206 -223
395 -345 l86 -56 62 35 c171 95 307 214 449 389 199 248 316 473 367 709 39
181 51 548 24 744 -5 42 -8 45 -47 54 -111 28 -249 76 -319 111 -84 42 -259
157 -429 280 l-107 78 -78 -67z m191 -90 c141 -102 325 -221 396 -257 69 -35
222 -89 283 -100 21 -4 41 -15 46 -24 16 -29 23 -330 12 -480 -16 -207 -8
-191 -102 -191 -43 0 -79 3 -79 6 0 3 8 35 17 70 l17 64 -56 58 -56 57 -5 102
c-6 122 -28 178 -85 215 -71 47 -83 48 -511 48 -430 0 -431 0 -431 47 0 19
-25 43 -44 43 -3 0 -12 -13 -21 -30 -12 -24 -22 -30 -48 -30 -27 0 -37 6 -54
36 l-20 36 -7 -28 c-4 -16 -21 -59 -38 -96 -29 -64 -30 -69 -14 -92 9 -14 16
-37 16 -50 0 -35 26 -46 107 -46 85 0 266 -61 291 -98 12 -19 13 -45 6 -165
l-9 -142 -268 -3 -267 -2 -9 23 c-32 85 -48 478 -25 610 l9 49 192 62 c251 83
344 135 562 315 47 39 89 67 95 64 6 -4 51 -36 100 -71z m113 -754 c43 -41 21
-114 -28 -88 -16 9 -28 9 -48 0 l-26 -12 48 -42 c47 -42 47 -43 27 -61 -16
-14 -19 -26 -14 -52 9 -46 -16 -53 -61 -19 -36 28 -49 76 -21 76 29 0 26 42
-5 82 -44 55 -79 53 -115 -7 -14 -25 -32 -45 -40 -45 -19 0 -29 -27 -16 -43 7
-8 7 -24 -1 -50 l-12 -37 -57 0 c-31 0 -59 3 -61 8 -5 8 58 240 67 250 4 3 17
-5 30 -17 l24 -22 21 34 c25 40 68 55 87 29 11 -15 14 -15 31 1 24 21 43 22
69 2 28 -21 41 -18 48 10 8 31 23 32 53 3z m192 -131 c35 -54 41 -71 41 -115
l0 -52 -35 0 c-43 0 -59 26 -51 84 8 52 8 63 0 109 -3 20 -4 37 -1 37 2 0 23
-28 46 -63z m159 -11 c19 -17 22 -29 22 -88 l0 -68 -40 0 c-22 0 -40 4 -40 10
0 5 9 33 20 62 20 52 20 52 0 86 -31 53 -24 52 38 -2z m-888 -193 c0 -4 -10
-17 -22 -30 l-21 -23 60 0 c59 0 61 1 67 30 l6 30 84 0 c75 0 87 -2 96 -20 13
-24 43 -26 64 -5 21 21 75 19 111 -5 38 -25 61 -25 75 -1 13 25 66 37 86 20
11 -9 20 -9 40 0 31 14 84 15 84 1 0 -5 18 -10 40 -10 22 0 40 5 40 10 0 6 14
10 31 10 32 0 32 1 12 -47 -4 -10 9 -13 45 -13 47 0 51 2 61 30 l10 30 82 0
81 0 -6 -35 c-24 -125 -112 -321 -213 -475 -90 -136 -255 -335 -333 -399 -67
-56 -185 -138 -237 -165 l-32 -16 -98 66 c-158 107 -231 172 -328 294 -127
159 -176 234 -250 385 -50 102 -135 316 -135 341 0 2 113 4 250 4 138 0 250
-3 250 -7z"/>
</g>
</svg>
