<?xml version="1.0" standalone="no"?>
<!DOCTYPE svg PUBLIC "-//W3C//DTD SVG 20010904//EN"
 "http://www.w3.org/TR/2001/REC-SVG-20010904/DTD/svg10.dtd">
<svg version="1.0" xmlns="http://www.w3.org/2000/svg"
 width="256.000000pt" height="256.000000pt" viewBox="0 0 256.000000 256.000000"
 preserveAspectRatio="xMidYMid meet">

<g transform="translate(0.000000,256.000000) scale(0.100000,-0.100000)"
fill="#000000" stroke="none">
<path d="M677 1877 l-596 -604 57 -45 c211 -166 521 -307 812 -370 90 -19 135
-22 320 -23 246 0 350 16 561 85 206 68 479 214 622 332 l28 23 -604 603 -603
603 -597 -604z m918 -412 c211 -47 540 -169 540 -199 0 -5 -126 -62 -279 -126
l-280 -117 -140 68 c-279 134 -557 217 -861 255 -38 4 -45 8 -32 15 35 20 367
98 482 113 66 9 134 18 150 20 87 12 304 -3 420 -29z"/>
<path d="M1590 540 c-261 -117 -356 -147 -487 -157 -46 -3 -83 -9 -83 -14 0
-4 58 -68 129 -141 l130 -133 138 135 c366 358 428 420 423 419 -3 0 -115 -49
-250 -109z"/>
</g>
</svg>
