<?xml version="1.0" standalone="no"?>
<!DOCTYPE svg PUBLIC "-//W3C//DTD SVG 20010904//EN"
 "http://www.w3.org/TR/2001/REC-SVG-20010904/DTD/svg10.dtd">
<svg version="1.0" xmlns="http://www.w3.org/2000/svg"
 width="256.000000pt" height="256.000000pt" viewBox="0 0 256.000000 256.000000"
 preserveAspectRatio="xMidYMid meet">

<g transform="translate(0.000000,256.000000) scale(0.100000,-0.100000)"
fill="#000000" stroke="none">
<path d="M1092 2384 c-467 -78 -840 -455 -917 -925 -122 -752 532 -1406 1284
-1284 475 77 849 451 926 926 48 301 -29 610 -213 855 -249 330 -670 497
-1080 428z m445 -264 c149 -49 262 -117 364 -219 184 -184 279 -446 254 -704
-7 -77 -18 -97 -29 -54 -11 44 -106 177 -174 245 -37 37 -97 86 -133 110 l-66
43 -6 137 c-10 253 -69 339 -242 350 -61 3 -74 1 -105 -20 -19 -13 -43 -39
-52 -58 -25 -49 -24 -145 2 -187 24 -39 90 -89 131 -98 16 -4 29 -11 29 -17 0
-6 -11 -8 -27 -4 -99 21 -183 28 -285 24 -134 -5 -129 -9 -102 83 50 167 167
300 322 365 31 13 57 23 58 24 0 0 28 -9 61 -20z m-557 -42 c-78 -118 -135
-286 -146 -434 l-7 -81 -56 -28 c-178 -87 -281 -197 -281 -299 0 -58 31 -141
67 -178 76 -80 224 -42 284 72 12 23 17 127 8 159 -2 7 1 15 7 17 5 3 18 -22
28 -53 27 -85 89 -210 135 -272 23 -30 41 -58 41 -61 0 -4 -28 -16 -62 -26
-94 -28 -283 -26 -359 4 -73 29 -173 94 -194 126 -47 71 -56 326 -17 471 73
269 261 491 500 591 74 30 78 30 52 -8z m458 -667 c22 -7 27 -13 25 -37 -4
-46 -89 -208 -138 -260 l-45 -49 -46 50 c-43 48 -127 201 -140 257 -7 30 5 36
96 49 59 8 203 2 248 -10z m346 -201 c106 -113 156 -235 156 -380 -1 -116 -11
-148 -67 -199 -306 -281 -781 -305 -1115 -58 -32 23 -58 44 -58 47 0 3 32 4
70 2 135 -8 288 26 426 95 l71 35 58 -38 c140 -89 265 -128 358 -110 44 8 121
75 149 129 26 51 21 120 -12 164 -12 17 -45 43 -72 58 -77 42 -140 30 -250
-47 -41 -29 -24 7 40 87 60 73 136 205 156 268 3 9 9 17 14 17 5 0 39 -32 76
-70z"/>
</g>
</svg>
