<?xml version="1.0" standalone="no"?>
<!DOCTYPE svg PUBLIC "-//W3C//DTD SVG 20010904//EN"
 "http://www.w3.org/TR/2001/REC-SVG-20010904/DTD/svg10.dtd">
<svg version="1.0" xmlns="http://www.w3.org/2000/svg"
 width="256.000000pt" height="256.000000pt" viewBox="0 0 256.000000 256.000000"
 preserveAspectRatio="xMidYMid meet">

<g transform="translate(0.000000,256.000000) scale(0.100000,-0.100000)"
fill="#000000" stroke="none">
<path d="M1087 2470 c-134 -23 -238 -78 -342 -184 -157 -157 -548 -735 -634
-935 -24 -57 -30 -126 -12 -159 8 -15 7 -23 -5 -33 -41 -34 30 -417 103 -564
94 -186 239 -307 428 -355 163 -42 612 -83 910 -84 239 -1 296 8 341 55 15 16
36 29 47 29 48 0 280 187 380 305 72 86 140 220 163 321 18 85 15 198 -10 289
-43 161 -301 715 -429 920 -81 131 -120 173 -173 186 -26 7 -46 18 -49 29 -7
21 -144 86 -271 128 -168 56 -317 73 -447 52z m338 -104 c50 -13 113 -33 140
-44 l50 -20 -30 -7 c-104 -24 -215 -60 -245 -79 -71 -47 -160 -129 -198 -184
-21 -32 -73 -104 -114 -162 -128 -178 -293 -451 -389 -641 -88 -176 -115 -289
-90 -377 5 -17 7 -32 5 -32 -14 0 -96 48 -143 84 -102 77 -241 281 -241 354 0
92 344 631 596 934 79 94 192 166 294 187 30 6 64 13 75 15 45 11 205 -5 290
-28z m376 -176 c64 0 135 -99 288 -400 241 -474 325 -709 306 -858 -18 -148
-79 -257 -226 -404 -118 -120 -147 -140 -129 -93 25 65 52 195 52 246 -1 31
-10 92 -21 135 -41 158 -216 527 -386 809 -169 284 -261 389 -362 417 -41 12
-42 13 -25 32 55 62 302 131 431 120 24 -2 57 -4 72 -4z m-473 -239 c72 -37
149 -135 284 -361 151 -251 328 -614 328 -671 0 -39 -49 -92 -108 -117 -125
-54 -652 -64 -1042 -20 -92 10 -108 15 -132 38 -37 37 -46 104 -24 184 44 159
276 565 493 864 l74 102 45 0 c25 0 61 -9 82 -19z m-971 -1140 c68 -46 188
-80 353 -101 419 -55 1009 -48 1151 14 20 8 57 31 83 51 l46 35 1 -38 c5 -130
-17 -227 -80 -357 -27 -55 -65 -115 -84 -133 -31 -30 -44 -35 -119 -44 -175
-20 -856 30 -1053 78 -257 62 -428 287 -471 617 l-7 52 67 -72 c36 -39 87 -85
113 -102z"/>
</g>
</svg>
