<?xml version="1.0" standalone="no"?>
<!DOCTYPE svg PUBLIC "-//W3C//DTD SVG 20010904//EN"
 "http://www.w3.org/TR/2001/REC-SVG-20010904/DTD/svg10.dtd">
<svg version="1.0" xmlns="http://www.w3.org/2000/svg"
 width="256.000000pt" height="256.000000pt" viewBox="0 0 256.000000 256.000000"
 preserveAspectRatio="xMidYMid meet">

<g transform="translate(0.000000,256.000000) scale(0.100000,-0.100000)"
fill="#000000" stroke="none">
<path d="M960 2469 c-257 -22 -459 -80 -533 -154 l-27 -28 0 -742 0 -743 445
-356 c245 -196 449 -357 453 -358 5 -2 208 159 451 356 l441 360 0 767 0 767
-47 22 c-106 50 -328 92 -583 110 -166 11 -461 11 -600 -1z m328 -176 c-20
-21 -23 -22 -40 -6 -22 20 -23 31 -1 55 16 18 17 18 40 -4 l23 -22 -22 -23z
m-723 -53 c18 -20 18 -21 -8 -47 l-26 -27 -26 24 -25 24 22 23 c26 28 40 29
63 3z m1447 3 c23 -21 23 -36 -2 -58 -20 -18 -21 -18 -47 8 -26 26 -26 27 -8
47 22 24 33 25 57 3z m-1116 -112 c74 -34 138 -55 199 -66 50 -9 98 -19 108
-21 15 -5 17 -21 17 -157 l-1 -152 -131 -100 c-135 -104 -164 -124 -156 -109
3 5 20 55 37 111 26 84 40 112 81 161 47 56 50 63 50 116 0 31 -3 56 -6 56 -4
0 -33 -25 -66 -56 -33 -30 -62 -53 -64 -51 -3 2 -11 41 -19 87 -8 46 -16 84
-17 86 -2 1 -42 -11 -90 -28 l-87 -30 24 -33 c22 -28 25 -42 25 -119 l0 -87
-50 -74 c-27 -41 -50 -77 -50 -81 0 -4 16 -26 35 -50 24 -29 35 -53 35 -74 0
-33 -6 -39 -92 -103 l-38 -29 0 404 0 403 53 22 c28 11 62 21 73 22 12 1 70
-21 130 -48z m861 18 c-9 -23 -60 -66 -210 -175 -109 -79 -200 -144 -202 -144
-3 0 -5 51 -5 114 l0 113 48 -8 c46 -9 55 -6 207 61 88 38 163 70 167 70 3 0
1 -14 -5 -31z m152 -856 l0 -628 -105 -85 c-58 -47 -114 -91 -125 -99 -19 -13
-19 -5 -19 621 l0 634 121 92 c67 51 123 92 125 92 2 0 4 -282 3 -627z m-354
530 l24 -28 -27 -28 -26 -27 -28 27 -28 27 27 28 c15 15 28 28 30 28 2 0 15
-12 28 -27z m-992 -131 l27 -28 -31 -23 -31 -23 -25 24 -24 24 21 27 c27 34
30 34 63 -1z m827 -810 l0 -639 -41 -32 c-22 -18 -46 -30 -54 -27 -8 3 -42 27
-75 53 l-60 48 0 536 0 537 108 81 c59 44 110 81 115 81 4 0 7 -287 7 -638z
m-300 555 c0 -15 -31 -47 -44 -47 -6 0 -19 11 -28 24 -17 23 -17 25 3 51 l21
26 24 -22 c13 -12 24 -27 24 -32z m-165 -955 c-2 -3 -58 39 -125 92 l-120 97
0 162 1 162 122 92 122 92 3 -346 c1 -190 0 -348 -3 -351z m-365 623 l24 -26
-27 -27 -27 -27 -27 27 -27 27 24 26 c13 14 26 25 30 25 4 0 17 -11 30 -25z"/>
</g>
</svg>
