<?xml version="1.0" standalone="no"?>
<!DOCTYPE svg PUBLIC "-//W3C//DTD SVG 20010904//EN"
 "http://www.w3.org/TR/2001/REC-SVG-20010904/DTD/svg10.dtd">
<svg version="1.0" xmlns="http://www.w3.org/2000/svg"
 width="256.000000pt" height="256.000000pt" viewBox="0 0 256.000000 256.000000"
 preserveAspectRatio="xMidYMid meet">

<g transform="translate(0.000000,256.000000) scale(0.100000,-0.100000)"
fill="#000000" stroke="none">
<path d="M1075 1909 c-285 -37 -314 -114 -60 -161 11 -3 -20 -8 -70 -12 -275
-23 -504 -77 -522 -123 -8 -22 25 -51 83 -73 59 -22 256 -60 313 -60 67 -1 9
-17 -84 -24 -210 -15 -475 -67 -576 -112 -96 -43 -102 -83 -19 -128 91 -50
358 -102 620 -122 107 -9 102 -12 -70 -39 -190 -31 -288 -72 -264 -112 35 -57
234 -107 519 -129 l90 -7 -74 -19 c-167 -41 -158 -92 24 -133 107 -24 386 -30
511 -11 109 16 209 49 217 70 10 25 -33 50 -121 72 l-87 21 100 7 c282 20 525
83 525 136 0 42 -125 87 -319 114 -57 8 -105 17 -107 19 -3 2 37 7 88 11 291
21 591 86 658 143 38 31 38 45 0 77 -64 53 -288 104 -594 135 l-171 17 121 17
c277 39 392 102 281 156 -81 39 -261 74 -507 97 l-75 7 65 14 c76 15 137 40
144 59 27 70 -365 127 -639 93z m385 -312 c96 -54 150 -91 160 -109 27 -50 13
-51 -241 -24 -129 14 -276 28 -327 32 -51 4 -91 11 -90 16 2 5 64 44 138 88
178 104 172 104 360 -3z m-155 -196 c72 -11 176 -30 233 -42 l102 -22 0 -73
c0 -43 -5 -76 -11 -80 -30 -18 -689 -60 -705 -45 -2 2 -4 64 -4 137 0 96 3
134 13 137 31 13 253 5 372 -12z m315 -340 c-16 -31 -304 -191 -342 -191 -23
0 -71 22 -157 73 -69 39 -126 77 -128 83 -3 10 50 20 227 43 36 5 143 9 238
10 167 1 172 0 162 -18z"/>
</g>
</svg>
