<?xml version="1.0" standalone="no"?>
<!DOCTYPE svg PUBLIC "-//W3C//DTD SVG 20010904//EN"
 "http://www.w3.org/TR/2001/REC-SVG-20010904/DTD/svg10.dtd">
<svg version="1.0" xmlns="http://www.w3.org/2000/svg"
 width="256.000000pt" height="256.000000pt" viewBox="0 0 256.000000 256.000000"
 preserveAspectRatio="xMidYMid meet">

<g transform="translate(0.000000,256.000000) scale(0.100000,-0.100000)"
fill="#000000" stroke="none">
<path d="M1221 2484 c-78 -65 -162 -362 -186 -654 -4 -47 -10 -90 -14 -97 -4
-8 -41 4 -120 38 -245 107 -511 179 -607 164 -136 -20 -112 -132 64 -309 45
-46 82 -91 82 -100 0 -27 55 -76 84 -76 16 0 66 -30 136 -81 l110 -81 -78 -56
c-207 -148 -415 -344 -459 -434 -36 -72 -38 -92 -10 -123 20 -24 33 -29 84
-33 114 -8 332 51 585 160 l128 55 4 -31 c22 -148 33 -273 25 -288 -16 -29
-10 -71 14 -97 14 -16 33 -60 46 -111 41 -159 104 -260 162 -260 97 0 188 251
234 650 8 69 15 128 15 131 0 4 56 -17 124 -47 347 -150 604 -200 673 -132 21
22 25 32 19 61 -17 92 -194 279 -425 453 -72 54 -131 101 -131 104 0 3 28 26
63 50 218 153 417 342 467 444 37 75 35 106 -7 133 -39 26 -163 21 -282 -10
-84 -22 -97 -24 -115 -11 -41 28 -91 9 -119 -45 -9 -17 -47 -39 -137 -77 -68
-29 -125 -52 -127 -51 -1 2 -9 63 -18 137 -41 337 -106 557 -185 624 -39 33
-60 33 -99 0z m98 -219 c36 -112 66 -268 86 -445 8 -74 15 -138 15 -142 0 -3
-33 -24 -74 -47 l-73 -40 -77 40 c-65 34 -75 43 -72 62 3 12 8 56 11 97 16
194 73 467 116 551 25 51 28 48 68 -76z m-842 -455 c104 -25 310 -99 435 -158
l98 -45 0 -83 0 -82 -52 -33 c-29 -17 -62 -38 -74 -45 -18 -13 -29 -7 -120 57
-132 95 -154 115 -173 152 -12 23 -28 36 -58 45 -31 10 -61 33 -109 85 -36 39
-75 84 -85 99 l-20 28 38 0 c21 0 75 -9 120 -20z m1711 -26 c-61 -86 -236
-240 -416 -367 l-93 -66 -75 46 -74 46 0 82 0 82 79 36 c120 55 229 97 253 97
11 0 35 9 52 20 41 25 208 69 264 70 l43 0 -33 -46z m-1042 -245 c3 -6 0 -15
-7 -20 -22 -14 -28 -11 -22 11 6 22 18 26 29 9z m284 -9 c0 -22 -8 -25 -30
-10 -13 9 -13 11 0 20 22 15 30 12 30 -10z m-73 -105 l73 -40 0 -96 0 -95 -73
-42 c-40 -23 -79 -42 -87 -42 -7 0 -46 19 -87 43 l-73 42 2 95 3 94 75 43 c41
24 80 42 85 41 6 -2 43 -21 82 -43z m-347 -135 c0 -11 -6 -20 -14 -20 -21 0
-31 21 -15 31 22 14 29 11 29 -11z m558 7 c8 -10 6 -16 -9 -25 -17 -11 -19 -9
-19 13 0 27 12 32 28 12z m-627 -119 l69 -43 0 -82 0 -83 -47 -24 c-80 -39
-322 -133 -416 -160 -94 -27 -208 -49 -216 -41 -17 18 143 186 284 298 103 82
237 177 248 177 5 0 40 -19 78 -42z m827 -15 c132 -95 238 -181 321 -262 80
-78 137 -148 129 -156 -3 -3 -45 2 -94 10 -109 19 -281 77 -457 153 l-132 57
-3 82 -3 82 68 46 c37 25 73 45 79 45 7 0 48 -26 92 -57z m-624 -126 c-11 -6
-19 -5 -25 4 -12 20 0 30 21 17 17 -11 18 -13 4 -21z m286 13 c0 -19 -20 -27
-33 -13 -8 7 11 33 24 33 5 0 9 -9 9 -20z m-79 -105 l70 -36 -7 -67 c-12 -131
-44 -339 -69 -440 -26 -106 -61 -202 -75 -202 -8 0 -53 118 -70 186 -5 23 -7
62 -4 88 6 39 3 52 -14 76 -20 27 -37 124 -55 310 l-4 46 66 36 c36 20 72 37
79 38 7 0 44 -16 83 -35z"/>
</g>
</svg>
