<?xml version="1.0" standalone="no"?>
<!DOCTYPE svg PUBLIC "-//W3C//DTD SVG 20010904//EN"
 "http://www.w3.org/TR/2001/REC-SVG-20010904/DTD/svg10.dtd">
<svg version="1.0" xmlns="http://www.w3.org/2000/svg"
 width="256.000000pt" height="256.000000pt" viewBox="0 0 256.000000 256.000000"
 preserveAspectRatio="xMidYMid meet">

<g transform="translate(0.000000,256.000000) scale(0.100000,-0.100000)"
fill="#000000" stroke="none">
<path d="M570 2461 c-108 -57 -108 -216 1 -271 35 -18 59 -20 306 -20 242 0
272 2 303 19 108 57 108 215 0 272 -31 17 -61 19 -305 19 -244 0 -274 -2 -305
-19z"/>
<path d="M1875 2272 c-44 -9 -1310 -475 -1332 -489 -13 -9 -33 -34 -45 -56
-24 -48 -21 -115 9 -156 29 -39 101 -73 141 -66 19 4 325 112 680 242 699 254
701 255 722 335 29 105 -71 214 -175 190z"/>
<path d="M1825 1651 c-673 -243 -1255 -460 -1279 -476 -17 -11 -39 -36 -48
-55 -50 -99 23 -220 134 -220 23 0 280 89 695 240 713 260 699 254 722 337 19
69 -16 145 -83 177 -43 20 -78 20 -141 -3z"/>
<path d="M1207 821 c-694 -255 -696 -256 -719 -332 -28 -94 49 -199 146 -199
26 0 1318 469 1355 492 62 37 86 150 45 206 -36 47 -82 72 -133 71 -34 0 -218
-64 -694 -238z"/>
<path d="M1347 369 c-106 -56 -104 -214 3 -270 31 -17 61 -19 305 -19 244 0
274 2 305 19 52 27 80 74 80 135 0 64 -26 108 -79 136 -38 19 -58 20 -308 20
-248 -1 -271 -2 -306 -21z"/>
</g>
</svg>
