<?xml version="1.0" standalone="no"?>
<!DOCTYPE svg PUBLIC "-//W3C//DTD SVG 20010904//EN"
 "http://www.w3.org/TR/2001/REC-SVG-20010904/DTD/svg10.dtd">
<svg version="1.0" xmlns="http://www.w3.org/2000/svg"
 width="256.000000pt" height="256.000000pt" viewBox="0 0 256.000000 256.000000"
 preserveAspectRatio="xMidYMid meet">

<g transform="translate(0.000000,256.000000) scale(0.100000,-0.100000)"
fill="#000000" stroke="none">
<path d="M1160 2377 l0 -104 -72 -13 c-439 -78 -622 -427 -425 -805 20 -37 64
-93 117 -145 68 -69 103 -95 178 -133 51 -25 117 -54 147 -62 l55 -16 0 -265
c0 -216 -2 -264 -14 -264 -43 0 -241 101 -319 163 l-39 30 -114 -114 -115
-114 38 -34 c119 -106 364 -228 536 -265 27 -6 27 -8 27 -81 l0 -75 165 0 165
0 0 79 0 79 38 7 c71 13 190 66 259 114 165 116 233 248 233 454 0 172 -50
306 -155 413 -87 89 -229 154 -337 154 l-38 0 0 265 c0 146 3 265 6 265 12 0
178 -81 225 -110 l49 -30 14 23 c8 12 46 75 85 139 l70 118 -71 41 c-101 59
-221 114 -305 139 l-73 22 0 114 0 114 -165 0 -165 0 0 -103z m0 -688 l0 -250
-61 32 c-118 63 -195 186 -187 297 7 75 56 121 173 158 81 26 75 44 75 -237z
m428 -657 c111 -51 150 -262 66 -362 -27 -31 -87 -70 -136 -89 l-28 -11 0 245
0 245 33 -7 c17 -3 47 -12 65 -21z"/>
</g>
</svg>
