<?xml version="1.0" standalone="no"?>
<!DOCTYPE svg PUBLIC "-//W3C//DTD SVG 20010904//EN"
 "http://www.w3.org/TR/2001/REC-SVG-20010904/DTD/svg10.dtd">
<svg version="1.0" xmlns="http://www.w3.org/2000/svg"
 width="256.000000pt" height="256.000000pt" viewBox="0 0 256.000000 256.000000"
 preserveAspectRatio="xMidYMid meet">

<g transform="translate(0.000000,256.000000) scale(0.100000,-0.100000)"
fill="#000000" stroke="none">
<path d="M1017 2448 c-48 -64 -931 -1603 -935 -1629 -3 -19 3 -32 23 -48 27
-20 37 -21 295 -21 241 0 270 2 288 17 12 10 91 139 177 288 86 148 161 273
168 277 21 14 63 9 79 -9 17 -19 310 -526 336 -580 15 -31 15 -35 -5 -61 l-20
-27 -331 -5 c-201 -3 -335 -9 -340 -15 -29 -32 -272 -469 -272 -490 0 -14 9
-34 20 -45 20 -20 33 -20 960 -20 927 0 940 0 960 20 11 11 20 31 20 44 0 27
-1301 2292 -1332 2319 -31 27 -64 21 -91 -15z"/>
</g>
</svg>
