<?xml version="1.0" standalone="no"?>
<!DOCTYPE svg PUBLIC "-//W3C//DTD SVG 20010904//EN"
 "http://www.w3.org/TR/2001/REC-SVG-20010904/DTD/svg10.dtd">
<svg version="1.0" xmlns="http://www.w3.org/2000/svg"
 width="256.000000pt" height="256.000000pt" viewBox="0 0 256.000000 256.000000"
 preserveAspectRatio="xMidYMid meet">

<g transform="translate(0.000000,256.000000) scale(0.100000,-0.100000)"
fill="#000000" stroke="none">
<path d="M1158 2381 c-73 -24 -149 -72 -194 -125 -46 -52 -769 -1494 -789
-1573 -53 -203 56 -414 255 -496 l55 -22 775 -3 c749 -3 777 -2 840 17 123 38
226 133 271 251 30 79 36 182 15 255 -25 86 -746 1521 -790 1571 -104 121
-288 173 -438 125z m200 -166 c101 -30 101 -29 500 -831 262 -527 364 -742
369 -775 9 -73 -18 -149 -73 -203 -79 -80 -47 -77 -895 -74 -716 3 -745 4
-784 23 -95 47 -154 153 -142 254 5 33 107 248 369 775 396 795 399 800 496
830 62 19 97 19 160 1z"/>
</g>
</svg>
