<?xml version="1.0" standalone="no"?>
<!DOCTYPE svg PUBLIC "-//W3C//DTD SVG 20010904//EN"
 "http://www.w3.org/TR/2001/REC-SVG-20010904/DTD/svg10.dtd">
<svg version="1.0" xmlns="http://www.w3.org/2000/svg"
 width="256.000000pt" height="256.000000pt" viewBox="0 0 256.000000 256.000000"
 preserveAspectRatio="xMidYMid meet">

<g transform="translate(0.000000,256.000000) scale(0.100000,-0.100000)"
fill="#000000" stroke="none">
<path d="M1150 2393 c-61 -6 -168 -23 -222 -34 l-52 -12 139 -51 c236 -87 294
-121 254 -147 -22 -14 -326 -10 -504 6 -88 8 -165 15 -172 15 -6 0 19 -70 55
-155 l67 -155 97 -32 c54 -18 94 -35 90 -39 -4 -4 -32 -14 -62 -24 -30 -10
-57 -19 -59 -21 -3 -2 6 -15 19 -29 l23 -25 452 0 452 0 21 50 21 50 -62 1
-62 1 55 24 c99 43 97 40 173 203 l71 154 -34 29 c-87 72 -320 169 -455 187
-72 10 -226 12 -305 4z"/>
<path d="M370 1965 c-13 -35 3 -71 39 -90 43 -22 52 -19 45 13 -11 46 -44 102
-59 102 -9 0 -20 -11 -25 -25z"/>
<path d="M2083 1928 c-21 -23 -300 -616 -292 -621 8 -5 568 9 574 15 10 9 -15
140 -35 186 -27 61 -66 75 -192 70 -115 -4 -120 1 -55 66 45 44 115 76 170 76
27 0 28 2 22 33 -12 55 -31 90 -80 145 -52 58 -79 65 -112 30z"/>
<path d="M485 1671 c-82 -23 -154 -64 -224 -127 -58 -53 -83 -96 -96 -167 l-7
-37 270 0 270 0 -67 166 c-38 91 -72 169 -77 173 -5 5 -36 1 -69 -8z"/>
<path d="M884 1483 c4 -9 27 -49 52 -90 l46 -73 279 0 278 0 36 76 c19 42 35
83 35 90 0 12 -64 14 -366 14 -338 0 -366 -1 -360 -17z"/>
<path d="M160 1228 c0 -23 36 -193 55 -263 54 -198 121 -327 231 -445 97 -102
223 -198 339 -255 358 -178 839 -120 1156 140 92 76 241 253 287 343 46 89 93
231 116 352 9 47 19 95 22 108 l4 22 -313 0 -312 0 -234 -497 c-129 -274 -238
-502 -242 -507 -4 -5 -122 219 -261 498 l-253 506 -297 0 c-164 0 -298 -1
-298 -2z"/>
<path d="M1050 1168 c113 -249 209 -449 215 -449 4 0 58 115 120 255 l113 256
-238 0 -239 0 29 -62z"/>
</g>
</svg>
