<?xml version="1.0" standalone="no"?>
<!DOCTYPE svg PUBLIC "-//W3C//DTD SVG 20010904//EN"
 "http://www.w3.org/TR/2001/REC-SVG-20010904/DTD/svg10.dtd">
<svg version="1.0" xmlns="http://www.w3.org/2000/svg"
 width="256.000000pt" height="256.000000pt" viewBox="0 0 256.000000 256.000000"
 preserveAspectRatio="xMidYMid meet">

<g transform="translate(0.000000,256.000000) scale(0.100000,-0.100000)"
fill="#000000" stroke="none">
<path d="M1648 2466 c-88 -24 -194 -113 -231 -196 -17 -35 -22 -72 -25 -172
l-4 -128 -79 0 -79 0 0 -110 0 -110 80 0 80 0 0 -336 0 -336 -27 7 c-138 35
-331 51 -413 35 -256 -50 -439 -358 -379 -642 28 -134 132 -263 261 -326 308
-150 579 -60 736 245 l52 101 0 626 0 626 200 0 200 0 0 110 0 110 -200 0
-200 0 0 89 c0 84 2 91 33 136 55 81 76 87 260 82 l158 -4 -3 86 -3 86 -95 17
c-114 19 -257 21 -322 4z m-432 -1565 c59 -27 121 -86 152 -145 22 -43 27 -64
27 -131 0 -96 -22 -152 -85 -215 -61 -61 -119 -85 -210 -85 -120 0 -218 59
-270 162 -21 41 -25 62 -25 138 0 74 4 98 23 132 31 59 86 111 146 139 66 31
180 33 242 5z"/>
</g>
</svg>
