<?xml version="1.0" standalone="no"?>
<!DOCTYPE svg PUBLIC "-//W3C//DTD SVG 20010904//EN"
 "http://www.w3.org/TR/2001/REC-SVG-20010904/DTD/svg10.dtd">
<svg version="1.0" xmlns="http://www.w3.org/2000/svg"
 width="256.000000pt" height="256.000000pt" viewBox="0 0 256.000000 256.000000"
 preserveAspectRatio="xMidYMid meet">

<g transform="translate(0.000000,256.000000) scale(0.100000,-0.100000)"
fill="#000000" stroke="none">
<path d="M1234 2310 c-28 -11 -10 19 -556 -945 -522 -921 -518 -913 -518 -938
0 -34 29 -75 61 -86 49 -17 600 -15 666 2 74 20 118 53 167 127 74 112 590
1032 608 1085 20 58 22 95 7 150 -13 49 -293 546 -331 586 -27 30 -62 36 -104
19z"/>
<path d="M1881 1113 c-24 -25 -104 -159 -328 -547 -71 -124 -77 -158 -39 -203
l24 -28 379 -3 c255 -2 390 0 415 8 45 13 73 57 64 100 -6 34 -357 637 -391
674 -34 36 -87 36 -124 -1z"/>
</g>
</svg>
