<?xml version="1.0" standalone="no"?>
<!DOCTYPE svg PUBLIC "-//W3C//DTD SVG 20010904//EN"
 "http://www.w3.org/TR/2001/REC-SVG-20010904/DTD/svg10.dtd">
<svg version="1.0" xmlns="http://www.w3.org/2000/svg"
 width="256.000000pt" height="256.000000pt" viewBox="0 0 256.000000 256.000000"
 preserveAspectRatio="xMidYMid meet">

<g transform="translate(0.000000,256.000000) scale(0.100000,-0.100000)"
fill="#000000" stroke="none">
<path d="M1230 2380 c-34 -34 -410 -797 -410 -831 0 -20 10 -40 28 -58 15 -15
141 -86 280 -159 279 -146 303 -153 351 -105 15 16 67 104 115 197 84 161 88
171 84 220 -4 40 -40 123 -164 379 -87 181 -168 339 -181 353 -28 30 -75 32
-103 4z"/>
<path d="M1776 1326 c-14 -25 -44 -82 -66 -128 -44 -90 -45 -115 -7 -156 31
-33 344 -194 370 -190 44 6 26 60 -94 293 -109 211 -115 220 -145 223 -28 3
-34 -2 -58 -42z"/>
<path d="M666 1279 c-33 -26 -506 -966 -506 -1005 0 -14 11 -36 25 -50 l25
-25 352 3 c345 3 354 4 384 25 22 16 75 106 204 350 190 358 198 380 150 427
-40 39 -541 296 -577 296 -17 0 -42 -10 -57 -21z"/>
<path d="M1529 836 c-33 -33 -309 -558 -309 -588 0 -13 5 -29 12 -36 9 -9 148
-12 565 -12 l554 0 24 25 c14 13 25 35 25 48 0 29 -94 223 -123 256 -20 21
-200 113 -545 277 -127 61 -167 67 -203 30z"/>
</g>
</svg>
