<?xml version="1.0" standalone="no"?>
<!DOCTYPE svg PUBLIC "-//W3C//DTD SVG 20010904//EN"
 "http://www.w3.org/TR/2001/REC-SVG-20010904/DTD/svg10.dtd">
<svg version="1.0" xmlns="http://www.w3.org/2000/svg"
 width="256.000000pt" height="256.000000pt" viewBox="0 0 256.000000 256.000000"
 preserveAspectRatio="xMidYMid meet">

<g transform="translate(0.000000,256.000000) scale(0.100000,-0.100000)"
fill="#000000" stroke="none">
<path d="M213 2136 c-89 -75 -133 -349 -133 -825 0 -467 40 -773 110 -836 88
-79 432 148 1075 710 405 354 686 562 804 595 73 20 132 -51 158 -192 11 -63
13 -125 9 -263 -11 -337 -59 -525 -135 -525 -28 0 -174 100 -369 254 -89 69
-168 126 -175 126 -20 0 -127 -114 -127 -135 0 -14 43 -55 133 -126 353 -283
616 -451 727 -466 36 -5 43 -2 74 31 88 92 115 292 116 826 0 493 -39 768
-117 830 -35 28 -51 26 -135 -18 -142 -73 -378 -253 -863 -656 -547 -456 -755
-612 -866 -651 -38 -14 -45 -14 -67 1 -68 44 -105 227 -106 519 0 218 12 299
58 400 30 66 55 81 105 66 54 -16 195 -113 199 -137 2 -15 -33 -51 -139 -143
l-141 -124 6 -66 c4 -36 13 -72 21 -80 16 -16 -3 -29 240 173 76 64 147 116
156 116 9 0 47 -27 83 -60 37 -33 72 -60 79 -60 24 0 137 111 137 134 0 51
-559 472 -745 561 -102 49 -134 53 -172 21z"/>
</g>
</svg>
