<?xml version="1.0" standalone="no"?>
<!DOCTYPE svg PUBLIC "-//W3C//DTD SVG 20010904//EN"
 "http://www.w3.org/TR/2001/REC-SVG-20010904/DTD/svg10.dtd">
<svg version="1.0" xmlns="http://www.w3.org/2000/svg"
 width="256.000000pt" height="256.000000pt" viewBox="0 0 256.000000 256.000000"
 preserveAspectRatio="xMidYMid meet">

<g transform="translate(0.000000,256.000000) scale(0.100000,-0.100000)"
fill="#000000" stroke="none">
<path d="M1755 2380 c-155 -51 -255 -192 -255 -358 0 -71 -22 -119 -62 -140
-13 -6 -90 -13 -173 -15 -208 -7 -271 -27 -502 -158 l-43 -24 -42 24 c-114 64
-120 66 -208 66 -70 0 -93 -5 -130 -24 -61 -32 -116 -86 -148 -146 -23 -43
-27 -62 -27 -135 0 -150 50 -213 265 -336 74 -42 140 -80 146 -85 7 -6 5 -29
-7 -76 -20 -78 -24 -217 -8 -295 15 -71 79 -202 128 -261 231 -276 638 -304
900 -61 38 35 71 64 73 64 3 0 76 -40 163 -90 87 -49 174 -93 193 -96 58 -11
164 1 210 25 57 29 113 87 143 147 33 66 34 187 2 255 -30 66 -86 124 -149
155 -30 15 -59 35 -64 45 -6 10 -10 64 -10 122 0 199 -48 359 -157 523 -31 46
-34 58 -28 90 7 42 47 85 115 124 55 32 113 105 140 177 18 48 21 74 18 148
-3 79 -8 98 -37 153 -66 122 -173 191 -309 198 -59 3 -91 -1 -137 -16z m220
-129 c120 -53 178 -203 123 -323 -25 -55 -57 -86 -143 -141 -30 -19 -61 -51
-80 -81 -27 -44 -30 -58 -30 -126 0 -72 2 -80 37 -132 105 -159 141 -276 143
-468 1 -147 8 -171 62 -221 15 -15 44 -34 63 -44 100 -50 143 -137 115 -232
-32 -108 -148 -161 -251 -114 -41 19 -1578 903 -1646 947 -75 48 -102 158 -59
241 24 48 60 77 117 92 55 15 97 5 168 -37 46 -29 71 -37 120 -40 59 -3 64 -2
146 48 161 99 240 121 435 125 163 3 185 8 239 55 62 55 79 92 87 200 10 128
32 171 122 240 29 22 109 40 152 34 22 -3 58 -14 80 -23z m-1199 -1317 c20
-12 20 -17 11 -69 -19 -112 32 -255 120 -336 65 -60 143 -93 232 -97 104 -6
169 11 249 65 l67 45 43 -24 c25 -14 41 -29 40 -38 -5 -24 -121 -106 -185
-130 -141 -53 -271 -47 -403 17 -181 88 -294 286 -276 484 3 36 11 80 17 97
11 31 11 31 37 15 15 -9 36 -22 48 -29z m351 -201 c111 -65 203 -121 203 -125
0 -4 -19 -18 -42 -30 -60 -32 -175 -32 -234 -1 -54 29 -117 101 -132 151 -13
42 -16 122 -5 122 3 0 98 -53 210 -117z"/>
<path d="M1130 1585 c-83 -23 -159 -65 -212 -116 -54 -51 -57 -65 -27 -103 29
-37 59 -33 120 19 83 70 141 89 285 89 133 1 154 9 154 56 0 52 -29 65 -154
67 -75 2 -129 -2 -166 -12z"/>
</g>
</svg>
