<?xml version="1.0" standalone="no"?>
<!DOCTYPE svg PUBLIC "-//W3C//DTD SVG 20010904//EN"
 "http://www.w3.org/TR/2001/REC-SVG-20010904/DTD/svg10.dtd">
<svg version="1.0" xmlns="http://www.w3.org/2000/svg"
 width="256.000000pt" height="256.000000pt" viewBox="0 0 256.000000 256.000000"
 preserveAspectRatio="xMidYMid meet">

<g transform="translate(0.000000,256.000000) scale(0.100000,-0.100000)"
fill="#000000" stroke="none">
<path d="M1092 2384 c-467 -78 -840 -455 -917 -925 -122 -752 532 -1406 1284
-1284 475 77 849 451 926 926 27 169 19 235 -37 285 -47 43 -69 48 -233 55
-137 5 -172 10 -240 33 -311 106 -509 397 -491 725 6 119 -6 161 -55 186 -35
18 -125 18 -237 -1z m371 -707 c101 -50 169 -118 216 -216 35 -74 36 -79 36
-197 0 -118 -1 -121 -37 -195 -47 -95 -130 -177 -225 -221 -123 -58 -287 -50
-415 19 -61 33 -148 124 -181 189 -59 118 -63 282 -9 397 35 76 115 166 182
205 86 51 136 63 251 60 99 -3 110 -5 182 -41z"/>
</g>
</svg>
