<?xml version="1.0" standalone="no"?>
<!DOCTYPE svg PUBLIC "-//W3C//DTD SVG 20010904//EN"
 "http://www.w3.org/TR/2001/REC-SVG-20010904/DTD/svg10.dtd">
<svg version="1.0" xmlns="http://www.w3.org/2000/svg"
 width="256.000000pt" height="256.000000pt" viewBox="0 0 256.000000 256.000000"
 preserveAspectRatio="xMidYMid meet">

<g transform="translate(0.000000,256.000000) scale(0.100000,-0.100000)"
fill="#000000" stroke="none">
<path d="M1130 2153 c-288 -31 -500 -142 -500 -261 0 -229 634 -355 1063 -212
412 138 281 406 -228 469 -85 10 -257 12 -335 4z"/>
<path d="M659 1646 c-71 -30 -105 -51 -152 -95 -48 -45 -67 -80 -67 -126 0
-98 104 -184 300 -249 155 -51 267 -67 495 -73 298 -8 533 31 711 117 251 121
251 289 0 410 -97 47 -96 47 -226 1 -129 -46 -251 -64 -430 -64 -179 0 -309
19 -440 65 -116 41 -127 41 -191 14z"/>
<path d="M402 1159 c-253 -126 -311 -289 -154 -430 176 -158 556 -252 1027
-252 468 0 862 100 1035 262 119 112 118 227 -4 338 -53 49 -201 133 -232 133
-8 0 -37 -11 -64 -25 -133 -68 -343 -118 -569 -136 -316 -26 -714 36 -887 137
-22 13 -43 24 -45 24 -3 0 -51 -23 -107 -51z"/>
</g>
</svg>
