<?xml version="1.0" standalone="no"?>
<!DOCTYPE svg PUBLIC "-//W3C//DTD SVG 20010904//EN"
 "http://www.w3.org/TR/2001/REC-SVG-20010904/DTD/svg10.dtd">
<svg version="1.0" xmlns="http://www.w3.org/2000/svg"
 width="256.000000pt" height="256.000000pt" viewBox="0 0 256.000000 256.000000"
 preserveAspectRatio="xMidYMid meet">

<g transform="translate(0.000000,256.000000) scale(0.100000,-0.100000)"
fill="#000000" stroke="none">
<path d="M1879 2385 l-135 -136 -45 10 c-27 7 -243 11 -556 11 l-513 0 0 -735
c0 -458 4 -735 10 -735 5 0 13 7 17 15 5 8 139 146 298 307 830 840 840 850
855 840 27 -16 80 -104 96 -160 33 -112 -4 -241 -92 -322 -58 -54 -117 -79
-199 -87 l-65 -6 -517 -526 c-285 -289 -583 -592 -662 -673 l-145 -148 155 0
154 0 125 125 125 125 440 0 c475 0 502 2 610 55 121 59 224 176 275 310 31
82 38 227 16 315 -24 94 -71 181 -135 249 l-56 60 56 60 c97 104 149 238 149
381 0 133 -44 252 -136 364 l-47 58 182 182 c99 99 181 185 181 189 0 4 -69 7
-153 7 l-152 0 -136 -135z m-520 -532 c-102 -104 -258 -262 -347 -353 l-162
-165 0 353 0 352 347 0 348 0 -186 -187z m367 -717 c109 -51 178 -146 190
-264 16 -147 -89 -305 -226 -342 -23 -6 -161 -9 -357 -8 l-318 3 305 308 c168
169 307 312 308 317 6 17 44 11 98 -14z"/>
</g>
</svg>
