<?xml version="1.0" standalone="no"?>
<!DOCTYPE svg PUBLIC "-//W3C//DTD SVG 20010904//EN"
 "http://www.w3.org/TR/2001/REC-SVG-20010904/DTD/svg10.dtd">
<svg version="1.0" xmlns="http://www.w3.org/2000/svg"
 width="256.000000pt" height="256.000000pt" viewBox="0 0 256.000000 256.000000"
 preserveAspectRatio="xMidYMid meet">

<g transform="translate(0.000000,256.000000) scale(0.100000,-0.100000)"
fill="#000000" stroke="none">
<path d="M239 2459 c-128 -76 -89 -261 57 -279 l45 -5 178 -380 177 -380 -24
-45 c-50 -95 9 -204 119 -219 l42 -6 193 -398 193 -398 -25 -36 c-87 -128 60
-288 196 -212 72 41 99 128 62 201 l-19 36 165 405 c157 386 166 405 194 411
43 8 77 35 99 77 22 44 24 71 8 131 -10 42 -7 51 136 413 81 204 151 378 156
388 6 11 21 17 42 17 41 0 92 31 118 72 15 25 19 45 16 84 -6 92 -75 151 -163
141 -48 -5 -109 -45 -119 -77 -6 -20 -15 -20 -818 -20 l-812 0 -17 29 c-37 66
-133 90 -199 50z m1827 -188 c-3 -5 -182 -134 -397 -286 l-391 -277 -107 73
c-472 325 -700 485 -700 492 -1 4 359 7 800 7 473 0 798 -4 795 -9z m-1208
-400 c177 -124 322 -227 321 -230 0 -3 -65 -51 -144 -107 l-145 -101 -45 11
c-25 7 -49 16 -53 21 -7 8 -297 621 -311 659 -5 13 4 7 377 -253z m1070 -84
l-133 -335 -50 -6 c-27 -3 -57 -7 -65 -8 -14 -2 -315 201 -308 207 18 17 683
483 685 481 2 -2 -56 -154 -129 -339z m-475 -330 l157 -110 0 -47 c0 -34 7
-58 26 -85 l25 -38 -157 -389 c-87 -214 -162 -394 -166 -401 -5 -8 -10 -8 -17
-2 -5 6 -97 192 -205 414 -190 393 -195 404 -179 428 9 13 17 47 17 74 l1 49
160 114 c88 62 165 111 170 108 6 -3 81 -55 168 -115z"/>
</g>
</svg>
