<?xml version="1.0" standalone="no"?>
<!DOCTYPE svg PUBLIC "-//W3C//DTD SVG 20010904//EN"
 "http://www.w3.org/TR/2001/REC-SVG-20010904/DTD/svg10.dtd">
<svg version="1.0" xmlns="http://www.w3.org/2000/svg"
 width="256.000000pt" height="256.000000pt" viewBox="0 0 256.000000 256.000000"
 preserveAspectRatio="xMidYMid meet">

<g transform="translate(0.000000,256.000000) scale(0.100000,-0.100000)"
fill="#000000" stroke="none">
<path d="M640 2256 l-185 -104 -165 -229 c-91 -126 -175 -242 -188 -258 l-22
-28 53 -61 c30 -33 298 -351 596 -706 298 -355 545 -646 549 -647 6 -1 466
536 1155 1347 l58 69 -192 255 -191 256 -168 105 -168 105 -473 0 -474 -1
-185 -103z m1207 -37 c54 -34 104 -67 112 -74 11 -11 -8 -24 -117 -79 l-132
-66 -412 0 -411 0 -154 62 c-84 34 -150 64 -147 67 3 3 62 38 132 78 l127 72
452 0 452 1 98 -61z m364 -341 c84 -110 152 -207 153 -215 1 -8 -95 -58 -244
-128 -214 -100 -246 -113 -252 -97 -8 19 -98 470 -98 489 0 11 260 151 282
152 4 1 76 -90 159 -201z m-1538 122 c90 -36 156 -68 154 -74 -2 -6 -41 -131
-87 -278 -46 -147 -86 -266 -89 -264 -3 2 -105 63 -226 136 -121 73 -221 133
-223 135 -7 7 293 415 303 412 5 -3 81 -33 168 -67z m1069 -357 l56 -277 -260
-481 c-143 -264 -263 -484 -268 -488 -8 -9 -546 920 -542 938 2 10 166 539
177 573 3 9 91 12 393 12 l389 0 55 -277z m526 -141 c-26 -36 -819 -962 -824
-962 -3 0 6 19 20 43 13 23 108 197 211 387 102 190 191 350 198 356 9 9 393
192 405 194 2 0 -3 -8 -10 -18z m-1622 -216 c17 -17 300 -499 344 -586 12 -25
12 -25 -8 -5 -30 30 -662 784 -662 789 0 9 304 -176 326 -198z"/>
<path d="M1120 1695 l0 -65 -80 0 -80 0 0 -44 0 -45 48 -3 47 -3 0 -210 0
-210 -47 -3 -48 -3 0 -44 0 -44 83 -3 82 -3 3 -68 3 -68 37 3 37 3 3 63 c3 61
3 62 32 62 l30 0 0 -65 0 -65 35 0 34 0 3 68 3 67 63 7 c70 8 135 39 165 79
14 20 19 43 19 97 1 84 -15 116 -69 138 -33 14 -34 16 -18 34 23 26 44 87 45
132 0 78 -36 110 -142 123 l-58 6 0 65 0 64 -40 0 -40 0 0 -65 0 -65 -35 0
-35 0 0 65 0 65 -40 0 -40 0 0 -65z m213 -166 c69 -19 88 -92 35 -132 -21 -16
-44 -21 -95 -21 l-68 -1 -3 69 c-2 38 -1 75 2 83 6 16 75 17 129 2z m65 -263
c53 -27 52 -96 -2 -131 -27 -18 -112 -32 -163 -27 l-33 3 0 91 0 91 83 -5 c48
-3 97 -13 115 -22z"/>
</g>
</svg>
