<?xml version="1.0" standalone="no"?>
<!DOCTYPE svg PUBLIC "-//W3C//DTD SVG 20010904//EN"
 "http://www.w3.org/TR/2001/REC-SVG-20010904/DTD/svg10.dtd">
<svg version="1.0" xmlns="http://www.w3.org/2000/svg"
 width="256.000000pt" height="256.000000pt" viewBox="0 0 256.000000 256.000000"
 preserveAspectRatio="xMidYMid meet">

<g transform="translate(0.000000,256.000000) scale(0.100000,-0.100000)"
fill="#000000" stroke="none">
<path d="M1130 2373 c-47 -14 -87 -27 -89 -29 -2 -2 15 -69 38 -150 24 -80 41
-147 40 -148 -15 -13 -142 -46 -148 -40 -5 5 -25 71 -46 146 -21 76 -41 142
-44 147 -5 8 -174 -32 -188 -43 -2 -2 62 -232 81 -294 6 -17 1 -21 -26 -27
-42 -9 -331 -106 -340 -114 -7 -6 38 -181 50 -192 4 -4 39 4 77 17 108 36 151
30 179 -24 7 -15 37 -112 66 -217 29 -104 83 -299 121 -432 48 -167 68 -250
63 -268 -8 -33 -45 -56 -125 -80 l-60 -19 7 -75 c3 -42 9 -94 13 -117 l6 -41
184 50 c129 34 186 46 191 38 3 -6 24 -73 45 -149 21 -75 41 -140 44 -144 5
-6 118 24 177 46 8 3 -2 53 -32 157 -24 84 -43 154 -41 155 1 1 30 9 64 18 34
9 68 19 76 22 10 3 25 -36 57 -151 31 -110 47 -154 56 -151 7 3 49 15 94 27
44 12 80 26 80 31 0 5 -18 73 -41 150 -22 77 -39 144 -37 149 2 6 41 25 87 44
174 71 289 164 339 273 33 74 41 188 18 285 -41 177 -142 270 -305 284 l-69 6
42 57 c53 72 70 130 64 215 -11 132 -96 253 -206 296 -63 24 -203 31 -318 16
l-61 -8 -43 151 c-24 83 -46 152 -49 154 -3 2 -44 -8 -91 -21z m332 -565 c73
-36 103 -160 58 -233 -25 -41 -106 -97 -185 -129 -67 -27 -184 -61 -189 -55
-4 6 -106 356 -106 366 0 13 168 63 243 72 79 9 132 3 179 -21z m238 -554 c45
-19 68 -41 91 -86 50 -98 1 -196 -136 -273 -58 -33 -283 -115 -316 -115 -12 0
-29 47 -72 194 -31 107 -57 201 -57 209 0 16 33 28 166 62 142 36 251 39 324
9z"/>
</g>
</svg>
