<?xml version="1.0" standalone="no"?>
<!DOCTYPE svg PUBLIC "-//W3C//DTD SVG 20010904//EN"
 "http://www.w3.org/TR/2001/REC-SVG-20010904/DTD/svg10.dtd">
<svg version="1.0" xmlns="http://www.w3.org/2000/svg"
 width="256.000000pt" height="256.000000pt" viewBox="0 0 256.000000 256.000000"
 preserveAspectRatio="xMidYMid meet">

<g transform="translate(0.000000,256.000000) scale(0.100000,-0.100000)"
fill="#000000" stroke="none">
<path d="M690 1891 l0 -431 -265 0 -265 0 0 -165 0 -165 738 0 c405 0 774 -4
819 -10 165 -19 237 -91 237 -240 1 -135 -59 -218 -189 -266 -43 -15 -91 -18
-347 -22 l-297 -4 -3 129 -3 128 -213 3 -212 2 2 -292 3 -293 495 -3 c313 -2
531 1 592 8 377 43 594 228 615 527 19 261 -126 457 -381 520 l-69 17 59 16
c158 44 262 139 317 289 28 78 28 240 -1 328 -41 128 -124 221 -247 279 -141
65 -157 67 -802 71 l-583 4 0 -430z m1053 73 c114 -48 157 -113 157 -237 0
-144 -55 -216 -195 -253 -36 -10 -127 -14 -317 -14 l-268 0 0 266 0 266 288
-4 c261 -3 291 -6 335 -24z"/>
</g>
</svg>
