<?xml version="1.0" standalone="no"?>
<!DOCTYPE svg PUBLIC "-//W3C//DTD SVG 20010904//EN"
 "http://www.w3.org/TR/2001/REC-SVG-20010904/DTD/svg10.dtd">
<svg version="1.0" xmlns="http://www.w3.org/2000/svg"
 width="256.000000pt" height="256.000000pt" viewBox="0 0 256.000000 256.000000"
 preserveAspectRatio="xMidYMid meet">

<g transform="translate(0.000000,256.000000) scale(0.100000,-0.100000)"
fill="#000000" stroke="none">
<path d="M1172 2384 c-467 -78 -840 -455 -917 -925 -98 -609 317 -1185 926
-1284 396 -64 805 93 1051 403 43 53 49 65 37 76 -28 26 -309 226 -317 226 -4
0 -30 -22 -57 -50 -54 -55 -60 -57 -86 -34 -16 14 -24 12 -100 -26 -70 -36
-83 -40 -91 -26 -40 71 -93 96 -205 96 -75 0 -121 13 -219 60 -158 77 -244
211 -244 380 0 292 281 485 561 384 70 -25 72 -25 90 -7 10 10 110 131 224
268 l206 250 -28 23 c-43 35 -210 118 -294 146 -159 54 -365 69 -537 40z"/>
<path d="M1853 1868 c-143 -163 -227 -267 -222 -273 6 -6 102 83 255 235 204
204 244 249 242 270 -2 16 -10 26 -23 28 -16 2 -75 -60 -252 -260z"/>
<path d="M1993 1722 c-217 -139 -322 -212 -320 -222 2 -8 9 -14 16 -12 11 2
658 377 670 389 3 2 -6 15 -20 28 l-24 24 -322 -207z"/>
</g>
</svg>
