<?xml version="1.0" standalone="no"?>
<!DOCTYPE svg PUBLIC "-//W3C//DTD SVG 20010904//EN"
 "http://www.w3.org/TR/2001/REC-SVG-20010904/DTD/svg10.dtd">
<svg version="1.0" xmlns="http://www.w3.org/2000/svg"
 width="256.000000pt" height="256.000000pt" viewBox="0 0 256.000000 256.000000"
 preserveAspectRatio="xMidYMid meet">

<g transform="translate(0.000000,256.000000) scale(0.100000,-0.100000)"
fill="#000000" stroke="none">
<path d="M1142 2385 c-121 -27 -221 -88 -258 -157 -8 -15 -14 -45 -14 -68 0
-239 545 -330 758 -127 45 43 62 78 62 127 0 49 -17 84 -62 126 -99 94 -311
137 -486 99z"/>
<path d="M511 2053 c-64 -31 -155 -117 -204 -194 -119 -186 -138 -385 -48
-482 34 -36 44 -41 95 -45 245 -20 523 438 405 669 -41 82 -142 103 -248 52z"/>
<path d="M1853 2060 c-144 -88 -86 -412 110 -611 80 -80 167 -123 240 -117 65
5 100 29 128 85 92 186 -76 548 -299 644 -58 25 -138 25 -179 -1z"/>
<path d="M304 1166 c-39 -18 -79 -69 -93 -121 -59 -217 158 -574 377 -620 112
-24 202 70 202 210 0 64 -36 189 -76 266 -98 187 -298 316 -410 265z"/>
<path d="M2128 1166 c-150 -54 -290 -224 -338 -412 -24 -93 -25 -143 -5 -211
18 -60 67 -109 119 -118 143 -27 344 151 422 374 85 245 -16 432 -198 367z"/>
<path d="M1155 575 c-225 -42 -339 -177 -261 -310 57 -96 203 -155 386 -155
136 0 235 27 323 87 75 52 108 153 73 222 -37 71 -147 134 -276 157 -92 16
-154 16 -245 -1z"/>
</g>
</svg>
