<?xml version="1.0" standalone="no"?>
<!DOCTYPE svg PUBLIC "-//W3C//DTD SVG 20010904//EN"
 "http://www.w3.org/TR/2001/REC-SVG-20010904/DTD/svg10.dtd">
<svg version="1.0" xmlns="http://www.w3.org/2000/svg"
 width="256.000000pt" height="256.000000pt" viewBox="0 0 256.000000 256.000000"
 preserveAspectRatio="xMidYMid meet">

<g transform="translate(0.000000,256.000000) scale(0.100000,-0.100000)"
fill="#000000" stroke="none">
<path d="M910 1749 c-155 -264 -280 -482 -278 -484 8 -7 248 -125 255 -125 5
0 76 108 158 239 113 180 153 237 161 228 6 -7 62 -102 124 -212 62 -110 113
-201 115 -203 6 -7 270 148 267 158 -4 19 -506 880 -513 880 -4 0 -133 -216
-289 -481z"/>
<path d="M1906 1375 c-307 -162 -562 -293 -566 -290 -4 3 -41 63 -81 135 -41
71 -77 130 -80 130 -7 0 -139 -254 -139 -268 0 -6 27 -30 60 -52 33 -22 60
-43 60 -46 0 -2 -40 -2 -88 2 l-88 7 -72 -113 c-40 -62 -71 -114 -69 -116 2
-3 158 -3 345 -2 l342 3 -61 103 c-33 57 -59 105 -57 106 2 2 230 33 508 70
278 37 512 69 521 72 14 4 18 27 23 152 4 81 9 204 12 275 4 70 2 127 -2 127
-5 0 -260 -133 -568 -295z"/>
<path d="M298 713 l-214 -368 1104 -3 c608 -1 1107 0 1109 1 2 2 -88 146 -199
321 l-202 316 -163 0 c-90 0 -163 -2 -163 -5 0 -3 34 -73 75 -155 41 -82 75
-152 75 -155 0 -3 -245 -5 -545 -5 -300 0 -545 2 -545 4 0 2 44 79 98 172 61
104 95 171 88 175 -9 5 -287 69 -300 69 -1 0 -99 -165 -218 -367z"/>
</g>
</svg>
