<?xml version="1.0" standalone="no"?>
<!DOCTYPE svg PUBLIC "-//W3C//DTD SVG 20010904//EN"
 "http://www.w3.org/TR/2001/REC-SVG-20010904/DTD/svg10.dtd">
<svg version="1.0" xmlns="http://www.w3.org/2000/svg"
 width="256.000000pt" height="256.000000pt" viewBox="0 0 256.000000 256.000000"
 preserveAspectRatio="xMidYMid meet">

<g transform="translate(0.000000,256.000000) scale(0.100000,-0.100000)"
fill="#000000" stroke="none">
<path d="M285 2381 c-22 -10 -52 -31 -67 -47 -59 -63 -58 -50 -58 -689 0 -639
-1 -626 58 -688 57 -61 84 -67 281 -67 l180 0 3 -294 3 -294 30 -44 c17 -23
51 -54 75 -68 l45 -25 450 0 c514 0 539 3 693 80 200 101 340 271 398 485 25
90 25 290 0 380 -57 209 -200 385 -390 480 -97 49 -106 50 -106 6 0 -19 -7
-67 -15 -107 -60 -284 -275 -506 -560 -579 -69 -18 -111 -20 -352 -20 l-273 0
0 313 c0 352 3 365 76 425 62 51 95 54 569 49 404 -4 451 -7 539 -34 18 -5 19
-1 13 69 -29 337 -297 622 -637 677 -38 7 -240 11 -490 11 -392 0 -428 -2
-465 -19z"/>
</g>
</svg>
