<?xml version="1.0" standalone="no"?>
<!DOCTYPE svg PUBLIC "-//W3C//DTD SVG 20010904//EN"
 "http://www.w3.org/TR/2001/REC-SVG-20010904/DTD/svg10.dtd">
<svg version="1.0" xmlns="http://www.w3.org/2000/svg"
 width="256.000000pt" height="256.000000pt" viewBox="0 0 256.000000 256.000000"
 preserveAspectRatio="xMidYMid meet">

<g transform="translate(0.000000,256.000000) scale(0.100000,-0.100000)"
fill="#000000" stroke="none">
<path d="M1660 2066 c0 -8 9 -30 19 -48 121 -211 -183 -420 -709 -490 -136
-18 -489 -15 -624 6 -127 19 -146 20 -146 6 0 -12 73 -55 148 -85 372 -151
980 -166 1385 -34 239 78 388 201 387 320 -1 113 -134 231 -349 309 -92 34
-111 36 -111 16z"/>
<path d="M1864 1356 c-3 -8 7 -36 23 -63 34 -59 38 -147 9 -202 -156 -293
-931 -464 -1613 -356 -114 18 -123 18 -123 1 0 -31 203 -122 371 -166 218 -57
363 -74 659 -74 202 0 294 4 385 17 396 58 686 182 785 337 117 183 -40 376
-405 495 -91 29 -84 29 -91 11z"/>
</g>
</svg>
