<?xml version="1.0" standalone="no"?>
<!DOCTYPE svg PUBLIC "-//W3C//DTD SVG 20010904//EN"
 "http://www.w3.org/TR/2001/REC-SVG-20010904/DTD/svg10.dtd">
<svg version="1.0" xmlns="http://www.w3.org/2000/svg"
 width="256.000000pt" height="256.000000pt" viewBox="0 0 256.000000 256.000000"
 preserveAspectRatio="xMidYMid meet">

<g transform="translate(0.000000,256.000000) scale(0.100000,-0.100000)"
fill="#000000" stroke="none">
<path d="M429 2451 l-30 -30 3 -475 3 -475 23 -23 23 -23 497 -5 497 -5 83
-30 84 -29 59 61 c32 33 59 66 59 73 0 14 -123 72 -205 96 -52 15 -115 18
-485 21 -279 3 -429 8 -437 15 -18 15 -19 638 -1 656 19 19 773 16 857 -3 111
-26 188 -70 272 -154 120 -119 173 -244 173 -406 0 -151 -49 -273 -155 -389
-70 -76 -134 -119 -231 -154 l-73 -27 -498 -5 -499 -5 -24 -28 -24 -28 0 -470
0 -471 30 -29 29 -30 503 3 c568 4 552 2 716 84 223 112 381 337 412 590 12
99 6 177 -22 287 -28 108 -40 112 -120 41 -35 -31 -62 -64 -62 -73 1 -9 8 -53
15 -99 39 -256 -134 -528 -390 -614 -63 -22 -84 -23 -479 -26 -306 -2 -417 0
-428 9 -19 16 -21 638 -2 657 9 9 113 12 405 12 423 0 483 5 606 55 202 81
368 254 438 459 60 172 60 338 1 505 -42 117 -86 185 -187 286 -76 76 -105 98
-185 138 -167 83 -150 81 -718 85 l-503 3 -30 -30z"/>
</g>
</svg>
