<?xml version="1.0" standalone="no"?>
<!DOCTYPE svg PUBLIC "-//W3C//DTD SVG 20010904//EN"
 "http://www.w3.org/TR/2001/REC-SVG-20010904/DTD/svg10.dtd">
<svg version="1.0" xmlns="http://www.w3.org/2000/svg"
 width="256.000000pt" height="256.000000pt" viewBox="0 0 256.000000 256.000000"
 preserveAspectRatio="xMidYMid meet">

<g transform="translate(0.000000,256.000000) scale(0.100000,-0.100000)"
fill="#000000" stroke="none">
<path d="M640 2465 c-98 -33 -186 -126 -224 -238 -14 -43 -16 -156 -16 -1097
l0 -1050 593 0 c662 0 647 -1 792 70 167 83 291 203 366 355 53 107 72 210 65
341 -14 246 -126 464 -322 628 l-71 58 26 62 c24 55 26 73 26 191 -1 154 -20
253 -71 354 -65 130 -199 225 -361 257 -79 15 -465 37 -490 27 -8 -3 -41 7
-75 22 -76 34 -172 42 -238 20z m187 -126 c46 -22 88 -69 122 -136 21 -41 21
-52 21 -518 l0 -475 238 0 238 0 112 55 c76 38 130 72 164 105 28 27 56 46 62
43 77 -46 196 -188 245 -293 67 -144 90 -333 56 -465 -47 -178 -209 -347 -409
-426 l-71 -28 -542 -1 -543 0 0 990 0 991 24 47 c61 119 174 164 283 111z"/>
</g>
</svg>
