<?xml version="1.0" standalone="no"?>
<!DOCTYPE svg PUBLIC "-//W3C//DTD SVG 20010904//EN"
 "http://www.w3.org/TR/2001/REC-SVG-20010904/DTD/svg10.dtd">
<svg version="1.0" xmlns="http://www.w3.org/2000/svg"
 width="256.000000pt" height="256.000000pt" viewBox="0 0 256.000000 256.000000"
 preserveAspectRatio="xMidYMid meet">

<g transform="translate(0.000000,256.000000) scale(0.100000,-0.100000)"
fill="#000000" stroke="none">
<path d="M160 1240 l0 -1080 248 2 247 3 3 820 2 820 558 -2 557 -3 0 -152 0
-153 -395 -5 -395 -5 -3 -662 -2 -663 235 0 235 0 0 415 0 415 435 0 435 0 0
665 0 665 -1080 0 -1080 0 0 -1080z"/>
<path d="M1780 655 c0 -3 0 -114 -1 -247 l0 -243 271 -3 270 -2 -2 247 -3 248
-267 3 c-148 1 -268 0 -268 -3z"/>
</g>
</svg>
