<?xml version="1.0" standalone="no"?>
<!DOCTYPE svg PUBLIC "-//W3C//DTD SVG 20010904//EN"
 "http://www.w3.org/TR/2001/REC-SVG-20010904/DTD/svg10.dtd">
<svg version="1.0" xmlns="http://www.w3.org/2000/svg"
 width="256.000000pt" height="256.000000pt" viewBox="0 0 256.000000 256.000000"
 preserveAspectRatio="xMidYMid meet">

<g transform="translate(0.000000,256.000000) scale(0.100000,-0.100000)"
fill="#000000" stroke="none">
<path d="M740 2379 c-25 -11 -58 -32 -73 -47 -52 -49 -62 -78 -67 -202 l-5
-115 -218 -3 -218 -2 7 -38 c41 -243 102 -353 260 -469 l64 -47 0 -470 c0
-454 1 -471 21 -512 25 -52 128 -150 201 -192 126 -73 342 -122 533 -122 308
0 538 96 630 262 l30 53 3 466 3 466 79 63 c154 121 215 205 293 405 19 50 38
100 41 112 l7 23 -243 2 -243 3 -5 121 c-5 113 -7 123 -33 157 -107 141 -292
140 -392 -2 -29 -41 -30 -48 -33 -162 l-4 -119 -156 2 -157 3 -5 115 c-4 95
-9 121 -27 150 -65 105 -188 147 -293 99z m162 -146 c28 -27 29 -30 26 -123
l-3 -95 -97 -3 -98 -3 0 99 c0 94 1 99 28 124 15 14 34 28 42 31 27 11 74 -3
102 -30z m758 22 c43 -22 50 -43 50 -150 l0 -96 -97 3 -98 3 -3 91 c-2 80 0
94 19 118 36 46 80 56 129 31z m-566 -592 c17 -332 80 -490 275 -695 97 -102
180 -168 262 -206 l59 -27 0 -96 c0 -121 -16 -149 -110 -196 -93 -47 -221 -67
-380 -60 -203 10 -356 59 -450 143 l-40 36 0 519 0 519 -57 25 c-69 31 -153
93 -183 135 l-21 30 319 0 319 0 7 -127z m513 -399 c29 -18 46 -74 34 -107
-27 -71 -109 -91 -162 -38 -38 38 -39 87 -4 130 36 42 81 47 132 15z"/>
<path d="M903 1283 c-35 -7 -73 -59 -73 -100 0 -80 109 -125 165 -69 73 73 10
188 -92 169z"/>
</g>
</svg>
