<?xml version="1.0" standalone="no"?>
<!DOCTYPE svg PUBLIC "-//W3C//DTD SVG 20010904//EN"
 "http://www.w3.org/TR/2001/REC-SVG-20010904/DTD/svg10.dtd">
<svg version="1.0" xmlns="http://www.w3.org/2000/svg"
 width="256.000000pt" height="256.000000pt" viewBox="0 0 256.000000 256.000000"
 preserveAspectRatio="xMidYMid meet">

<g transform="translate(0.000000,256.000000) scale(0.100000,-0.100000)"
fill="#000000" stroke="none">
<path d="M1203 2461 c-49 -23 -73 -62 -73 -123 l-1 -43 -309 -177 -310 -177
-46 16 c-89 30 -161 3 -201 -77 -40 -77 -26 -156 36 -214 l31 -30 0 -354 0
-354 -30 -34 c-30 -35 -60 -117 -60 -167 0 -41 27 -93 58 -113 37 -24 106 -22
166 4 l49 22 322 -172 323 -173 6 -40 c10 -60 51 -138 85 -158 94 -55 210 28
211 153 l1 45 322 174 322 173 45 -16 c57 -20 132 -21 170 -1 84 44 78 171
-14 273 l-36 39 0 346 0 346 36 38 c48 52 77 110 77 157 0 33 -7 45 -36 72
-46 43 -104 58 -197 51 l-76 -5 -314 172 -315 171 -6 60 c-3 33 -11 70 -17 81
-28 52 -141 70 -219 35z m522 -441 c193 -106 352 -194 354 -196 2 -2 -50 -60
-115 -130 -65 -69 -157 -167 -204 -216 l-85 -90 -220 141 c-121 78 -223 145
-227 149 -3 4 22 115 56 247 35 132 66 253 70 268 3 15 10 26 14 24 4 -3 165
-91 357 -197z m-557 138 c-3 -7 -29 -104 -59 -215 -29 -112 -58 -203 -65 -203
-14 0 -404 117 -411 123 -5 5 516 306 531 307 4 0 6 -6 4 -12z m-363 -500
c132 -39 242 -73 244 -75 4 -3 29 -444 30 -530 1 -55 -52 -82 -307 -153 l-223
-63 -50 23 -49 23 0 398 0 398 43 24 c23 14 49 26 57 26 8 1 123 -31 255 -71z
m1332 -115 c-4 -43 -9 -166 -13 -273 -4 -107 -9 -211 -13 -232 l-6 -36 -137
156 -136 156 146 152 c81 84 151 153 156 153 5 1 6 -34 3 -76z m-744 -133
c129 -76 156 -95 145 -105 -21 -21 -359 -247 -362 -244 -2 2 7 99 20 214 13
116 23 216 23 223 1 7 4 11 9 9 4 -2 78 -46 165 -97z m380 -282 c195 -130 347
-264 347 -306 0 -11 -6 -24 -12 -30 -20 -16 -758 -412 -768 -412 -5 0 -20 37
-34 83 -14 45 -50 158 -80 250 l-54 169 31 18 c18 11 129 80 247 154 118 75
219 135 223 136 4 0 49 -28 100 -62z m-659 -383 c21 -91 58 -306 54 -310 -5
-5 -489 261 -491 270 -1 4 88 35 198 69 144 45 203 60 211 52 6 -6 19 -42 28
-81z"/>
</g>
</svg>
