<?xml version="1.0" standalone="no"?>
<!DOCTYPE svg PUBLIC "-//W3C//DTD SVG 20010904//EN"
 "http://www.w3.org/TR/2001/REC-SVG-20010904/DTD/svg10.dtd">
<svg version="1.0" xmlns="http://www.w3.org/2000/svg"
 width="256.000000pt" height="256.000000pt" viewBox="0 0 256.000000 256.000000"
 preserveAspectRatio="xMidYMid meet">

<g transform="translate(0.000000,256.000000) scale(0.100000,-0.100000)"
fill="#000000" stroke="none">
<path d="M1390 2035 l0 -125 130 0 130 0 0 125 0 125 -130 0 -130 0 0 -125z"/>
<path d="M1898 1898 l-3 -263 -252 -3 -253 -2 0 -645 0 -645 120 0 120 0 0
515 0 515 135 0 135 0 0 -515 0 -515 245 0 245 0 0 131 0 130 -122 -2 -123 -1
-3 386 -2 386 130 0 130 0 0 130 0 129 -127 3 -128 3 -3 263 -2 262 -120 0
-120 0 -2 -262z"/>
<path d="M160 1240 l0 -910 406 0 c269 0 420 4 450 11 68 17 142 91 190 186
l39 78 0 257 0 258 -35 34 c-19 19 -61 50 -92 69 l-57 34 30 29 c68 65 70 76
67 372 -3 261 -4 268 -28 315 -31 62 -86 111 -164 148 l-61 29 -372 0 -373 0
0 -910z m717 630 c18 -11 36 -32 40 -47 10 -36 10 -330 0 -366 -4 -15 -22 -36
-40 -47 -29 -18 -51 -20 -244 -20 l-213 0 0 250 0 250 213 0 c193 0 215 -2
244 -20z m82 -801 c44 -44 53 -86 49 -236 -3 -146 -10 -165 -78 -210 -32 -22
-41 -23 -271 -23 l-239 0 0 250 0 250 254 0 254 0 31 -31z"/>
</g>
</svg>
