<?xml version="1.0" standalone="no"?>
<!DOCTYPE svg PUBLIC "-//W3C//DTD SVG 20010904//EN"
 "http://www.w3.org/TR/2001/REC-SVG-20010904/DTD/svg10.dtd">
<svg version="1.0" xmlns="http://www.w3.org/2000/svg"
 width="256.000000pt" height="256.000000pt" viewBox="0 0 256.000000 256.000000"
 preserveAspectRatio="xMidYMid meet">

<g transform="translate(0.000000,256.000000) scale(0.100000,-0.100000)"
fill="#000000" stroke="none">
<path d="M470 1855 l-305 -305 128 -127 127 -128 305 305 305 305 -128 128
-127 127 -305 -305z"/>
<path d="M1664 2036 c-61 -62 -114 -118 -119 -125 -5 -9 86 -107 296 -317
l304 -304 127 127 128 128 -302 302 c-167 167 -307 303 -313 302 -5 0 -60 -51
-121 -113z"/>
<path d="M972 1567 l-302 -302 128 -128 127 -127 305 305 305 305 -125 125
c-69 69 -127 125 -130 125 -3 0 -141 -136 -308 -303z"/>
<path d="M1330 1215 l-305 -305 128 -127 127 -128 305 305 305 305 -128 128
-127 127 -305 -305z"/>
<path d="M287 1132 l-127 -127 303 -303 c166 -166 307 -302 312 -302 13 0 245
232 245 245 0 6 -136 146 -303 313 l-302 302 -128 -128z"/>
<path d="M1837 962 c-163 -163 -297 -302 -297 -307 0 -6 55 -65 123 -133 l122
-122 308 308 307 307 -123 123 c-67 67 -127 122 -132 122 -6 0 -144 -134 -308
-298z"/>
</g>
</svg>
