<?xml version="1.0" standalone="no"?>
<!DOCTYPE svg PUBLIC "-//W3C//DTD SVG 20010904//EN"
 "http://www.w3.org/TR/2001/REC-SVG-20010904/DTD/svg10.dtd">
<svg version="1.0" xmlns="http://www.w3.org/2000/svg"
 width="256.000000pt" height="256.000000pt" viewBox="0 0 256.000000 256.000000"
 preserveAspectRatio="xMidYMid meet">

<g transform="translate(0.000000,256.000000) scale(0.100000,-0.100000)"
fill="#000000" stroke="none">
<path d="M1075 1948 c-93 -153 -174 -287 -179 -298 -7 -15 28 -83 170 -329
l179 -310 3 305 c1 167 1 440 0 607 l-3 303 -170 -278z"/>
<path d="M1310 1619 c0 -597 1 -613 18 -584 10 17 92 157 181 313 141 244 162
286 153 305 -5 12 -87 148 -181 301 l-171 280 0 -615z"/>
<path d="M676 1275 c-93 -163 -167 -298 -164 -300 3 -3 161 -4 351 -3 l346 3
-177 298 c-97 163 -179 297 -182 297 -3 0 -82 -133 -174 -295z"/>
<path d="M1528 1273 l-177 -298 346 -3 c190 -1 348 0 351 3 6 5 -329 595 -338
595 -3 0 -85 -134 -182 -297z"/>
<path d="M510 914 c0 -10 335 -604 340 -604 6 1 370 595 370 604 0 3 -160 6
-355 6 -195 0 -355 -3 -355 -6z"/>
<path d="M1340 914 c0 -10 364 -603 370 -604 5 0 340 594 340 604 0 3 -160 6
-355 6 -195 0 -355 -3 -355 -6z"/>
<path d="M417 819 c-97 -152 -327 -528 -327 -533 0 -3 159 -6 354 -6 l354 0
-169 291 c-92 161 -171 294 -173 296 -3 3 -20 -19 -39 -48z"/>
<path d="M1932 575 l-170 -295 354 0 c195 0 354 3 354 6 0 9 -351 573 -360
579 -4 2 -84 -128 -178 -290z"/>
<path d="M1068 574 l-178 -289 176 -3 c97 -1 179 -1 181 1 2 2 2 133 1 292
l-3 287 -177 -288z"/>
<path d="M1310 572 l0 -292 181 0 c99 0 178 3 176 8 -16 29 -342 559 -349 567
-4 5 -8 -122 -8 -283z"/>
</g>
</svg>
