<?xml version="1.0" standalone="no"?>
<!DOCTYPE svg PUBLIC "-//W3C//DTD SVG 20010904//EN"
 "http://www.w3.org/TR/2001/REC-SVG-20010904/DTD/svg10.dtd">
<svg version="1.0" xmlns="http://www.w3.org/2000/svg"
 width="256.000000pt" height="256.000000pt" viewBox="0 0 256.000000 256.000000"
 preserveAspectRatio="xMidYMid meet">

<g transform="translate(0.000000,256.000000) scale(0.100000,-0.100000)"
fill="#000000" stroke="none">
<path d="M240 2383 c0 -13 14 -25 42 -38 88 -38 164 -140 205 -270 17 -56 18
-110 18 -790 0 -679 -1 -735 -18 -795 -40 -142 -105 -230 -199 -273 -30 -14
-48 -28 -48 -39 0 -18 30 -18 335 1 l100 6 3 1096 2 1097 -127 6 c-71 4 -170
9 -220 12 -87 6 -93 5 -93 -13z"/>
<path d="M930 2381 l-95 -6 0 -1095 0 -1095 85 -6 c47 -4 177 -10 290 -14 173
-6 216 -5 274 9 160 38 303 150 371 289 47 99 66 194 66 332 0 126 -16 207
-61 294 -59 116 -109 153 -339 252 l-34 15 51 32 c69 45 139 122 167 186 29
66 55 188 55 258 -1 245 -173 488 -385 543 -61 15 -238 18 -445 6z m406 -172
c153 -58 245 -232 231 -444 -16 -252 -168 -375 -464 -375 l-103 0 0 218 c1
225 14 518 25 565 7 25 41 44 110 61 39 10 142 -3 201 -25z m51 -979 c265 -36
410 -271 348 -565 -32 -151 -122 -269 -243 -316 -49 -20 -76 -23 -187 -24
-111 0 -136 3 -170 20 -107 54 -134 190 -135 668 l0 227 154 0 c85 0 190 -5
233 -10z"/>
<path d="M1738 2275 c71 -76 112 -143 144 -235 20 -56 23 -85 23 -210 -1 -166
-16 -237 -71 -337 -18 -35 -31 -63 -28 -63 2 0 23 9 46 21 50 25 131 100 168
154 91 133 104 348 28 474 -57 96 -175 188 -303 237 l-68 25 61 -66z"/>
<path d="M1925 1254 c198 -259 207 -677 21 -939 -26 -36 -44 -65 -41 -65 3 0
30 12 59 26 122 59 233 177 275 289 83 222 26 472 -139 617 -52 45 -140 98
-188 113 -21 6 -20 2 13 -41z"/>
</g>
</svg>
