<?xml version="1.0" standalone="no"?>
<!DOCTYPE svg PUBLIC "-//W3C//DTD SVG 20010904//EN"
 "http://www.w3.org/TR/2001/REC-SVG-20010904/DTD/svg10.dtd">
<svg version="1.0" xmlns="http://www.w3.org/2000/svg"
 width="256.000000pt" height="256.000000pt" viewBox="0 0 256.000000 256.000000"
 preserveAspectRatio="xMidYMid meet">

<g transform="translate(0.000000,256.000000) scale(0.100000,-0.100000)"
fill="#000000" stroke="none">
<path d="M440 1725 l0 -355 178 0 177 1 187 172 188 172 0 183 0 182 -365 0
-365 0 0 -355z"/>
<path d="M1400 1896 c0 -183 0 -184 24 -203 13 -10 99 -87 190 -170 l166 -153
165 0 165 0 0 355 0 355 -355 0 -355 0 0 -184z"/>
<path d="M1137 1520 c-64 -45 -117 -82 -117 -84 0 -7 239 -146 250 -146 16 0
269 143 270 152 0 8 -261 158 -276 158 -6 0 -63 -36 -127 -80z"/>
<path d="M980 1262 c0 -161 -18 -133 163 -265 l117 -87 0 168 0 168 -130 77
c-72 42 -135 77 -140 77 -6 0 -10 -54 -10 -138z"/>
<path d="M1428 1322 l-128 -77 0 -167 0 -168 135 83 135 82 0 163 c0 89 -3
162 -7 162 -5 -1 -65 -35 -135 -78z"/>
<path d="M160 805 l0 -355 500 0 500 0 0 161 0 160 -182 194 -183 195 -317 0
-318 0 0 -355z"/>
<path d="M1587 966 l-187 -194 0 -161 0 -161 500 0 500 0 0 355 0 355 -313 0
-313 0 -187 -194z"/>
</g>
</svg>
