<?xml version="1.0" standalone="no"?>
<!DOCTYPE svg PUBLIC "-//W3C//DTD SVG 20010904//EN"
 "http://www.w3.org/TR/2001/REC-SVG-20010904/DTD/svg10.dtd">
<svg version="1.0" xmlns="http://www.w3.org/2000/svg"
 width="256.000000pt" height="256.000000pt" viewBox="0 0 256.000000 256.000000"
 preserveAspectRatio="xMidYMid meet">

<g transform="translate(0.000000,256.000000) scale(0.100000,-0.100000)"
fill="#000000" stroke="none">
<path d="M1234 2466 c-61 -27 -96 -106 -75 -168 11 -32 11 -33 -81 -125 l-93
-93 -151 0 -152 0 -20 33 c-38 64 -131 86 -193 44 -94 -63 -88 -198 12 -244
l38 -18 1 -140 0 -140 -103 -103 -103 -103 -39 16 c-142 60 -261 -126 -149
-232 40 -37 90 -50 136 -34 32 11 32 11 145 -101 l113 -113 0 -128 c0 -113 -2
-128 -17 -133 -79 -25 -110 -56 -120 -118 -7 -46 2 -78 33 -115 53 -63 149
-66 207 -6 l34 35 164 0 164 0 93 -93 c92 -92 92 -93 81 -125 -16 -46 -3 -96
34 -136 106 -112 292 7 232 149 l-16 39 83 83 83 83 167 0 c166 0 168 0 183
-24 35 -54 125 -71 183 -36 91 56 95 190 5 242 l-33 20 0 152 0 151 93 93 c92
92 93 92 125 81 46 -16 96 -3 136 34 112 106 -7 292 -149 232 l-39 -16 -83 83
-83 83 0 167 c0 166 0 168 24 183 54 35 71 125 36 183 -56 91 -190 95 -242 5
l-20 -33 -152 0 -151 0 -83 83 -83 83 16 39 c50 118 -72 233 -191 181z m6
-321 l0 -65 -72 0 -72 0 64 65 c35 36 68 65 72 65 4 0 8 -29 8 -65z m165 -5
l59 -60 -72 0 -72 0 0 60 c0 42 4 60 13 60 7 0 39 -27 72 -60z m-562 -202
l-63 -63 -50 50 c-27 27 -50 55 -50 62 0 10 27 13 112 13 l113 0 -62 -62z
m397 -167 l0 -228 -46 -18 -46 -18 -157 157 -156 156 90 90 90 90 112 0 113 0
0 -229z m395 139 l90 -90 -151 -151 -152 -151 -51 13 -51 13 0 228 0 228 113
0 112 0 90 -90z m245 77 c0 -7 -23 -35 -50 -62 l-50 -50 -63 63 -62 62 113 0
c85 0 112 -3 112 -13z m-1205 -117 l50 -50 -63 -63 -62 -62 0 106 c0 140 2
143 75 69z m1308 33 c15 -5 17 -20 17 -127 l0 -121 -82 82 -83 83 50 50 c33
33 55 48 65 44 8 -3 23 -9 33 -11z m-1047 -294 l151 -151 -26 -49 -26 -49
-217 0 -218 0 0 112 0 113 87 87 c48 49 90 88 93 88 2 0 73 -68 156 -151z
m956 44 l108 -108 0 -98 0 -98 -226 2 -225 2 -24 48 c-14 26 -30 51 -36 55 -7
4 46 64 137 155 82 82 151 149 154 149 2 0 53 -48 112 -107z m-1372 -223 l0
-70 -72 0 -72 0 69 70 c38 39 71 70 72 70 2 0 3 -31 3 -70z m1660 -72 c0 -4
-22 -8 -50 -8 l-50 0 0 57 0 57 50 -49 c28 -27 50 -53 50 -57z m-1660 -190 l0
-113 -84 85 c-74 75 -84 88 -79 113 5 27 6 27 84 27 l79 0 0 -112z m503 95 c3
-10 11 -40 17 -66 l13 -49 -156 -156 -157 -157 -70 70 -70 69 0 153 0 153 209
0 c191 0 210 -2 214 -17z m780 7 l197 0 0 -128 0 -127 -90 -90 -90 -90 -150
150 c-97 96 -149 155 -146 165 3 8 10 35 17 60 6 25 13 51 15 59 3 8 12 11 27
7 12 -3 111 -6 220 -6z m401 -22 c4 -19 -7 -36 -59 -88 l-65 -65 0 88 0 87 59
0 c52 0 59 -2 65 -22z m-999 -218 l35 -12 0 -229 0 -229 -113 0 -112 0 -110
110 -110 110 154 154 153 154 35 -24 c19 -12 50 -28 68 -34z m450 -360 l-110
-110 -112 0 -113 0 0 229 0 229 33 6 c17 3 50 17 72 30 l40 23 150 -148 150
-149 -110 -110z m345 120 c0 -83 -3 -110 -13 -110 -7 0 -35 23 -62 50 l-49 50
59 60 c33 33 61 60 62 60 2 0 3 -49 3 -110z m-1358 -52 l-42 -43 0 85 0 85 42
-43 43 -42 -43 -42z m183 -98 l80 -80 -121 0 -120 0 -12 32 c-12 31 -10 34 35
80 26 26 50 48 53 48 3 0 41 -36 85 -80z m1048 32 c45 -46 47 -49 35 -80 l-12
-32 -120 0 -121 0 80 80 c44 44 82 80 85 80 3 0 27 -22 53 -48z m-633 -257 c0
-36 -4 -65 -8 -65 -4 0 -37 29 -72 65 l-64 65 72 0 72 0 0 -65z m165 5 c-33
-33 -65 -60 -72 -60 -9 0 -13 18 -13 60 l0 60 72 0 72 0 -59 -60z"/>
</g>
</svg>
