<?xml version="1.0" standalone="no"?>
<!DOCTYPE svg PUBLIC "-//W3C//DTD SVG 20010904//EN"
 "http://www.w3.org/TR/2001/REC-SVG-20010904/DTD/svg10.dtd">
<svg version="1.0" xmlns="http://www.w3.org/2000/svg"
 width="256.000000pt" height="256.000000pt" viewBox="0 0 256.000000 256.000000"
 preserveAspectRatio="xMidYMid meet">

<g transform="translate(0.000000,256.000000) scale(0.100000,-0.100000)"
fill="#000000" stroke="none">
<path d="M1092 2384 c-242 -40 -494 -182 -651 -364 -76 -88 -111 -140 -159
-236 -279 -552 -58 -1224 494 -1502 383 -194 837 -152 1182 107 225 170 381
430 427 712 78 481 -166 958 -601 1177 -213 108 -458 145 -692 106z m324 -239
c248 -63 458 -234 577 -470 123 -247 124 -540 1 -789 -217 -439 -739 -622
-1182 -415 -319 148 -514 456 -514 809 0 344 191 652 497 800 205 100 400 120
621 65z"/>
</g>
</svg>
