<?xml version="1.0" standalone="no"?>
<!DOCTYPE svg PUBLIC "-//W3C//DTD SVG 20010904//EN"
 "http://www.w3.org/TR/2001/REC-SVG-20010904/DTD/svg10.dtd">
<svg version="1.0" xmlns="http://www.w3.org/2000/svg"
 width="256.000000pt" height="256.000000pt" viewBox="0 0 256.000000 256.000000"
 preserveAspectRatio="xMidYMid meet">

<g transform="translate(0.000000,256.000000) scale(0.100000,-0.100000)"
fill="#000000" stroke="none">
<path d="M684 2296 c-3 -8 -4 -27 -2 -43 l3 -28 405 -6 c372 -5 411 -7 481
-26 153 -43 266 -121 344 -239 19 -29 35 -54 35 -56 0 -2 -31 26 -68 63 -39
38 -95 80 -130 98 -115 58 -154 63 -529 68 l-343 5 0 -40 0 -39 323 -6 c346
-6 413 -14 504 -60 60 -31 141 -103 167 -148 19 -33 18 -32 -31 12 -107 99
-151 109 -510 116 l-283 5 0 -31 0 -31 233 0 c127 0 262 -5 299 -10 217 -31
329 -162 273 -319 -21 -62 -51 -99 -98 -123 -39 -20 -47 -20 -123 -10 -45 7
-199 12 -352 12 l-272 0 0 -40 0 -40 233 0 c401 0 563 -36 697 -157 42 -38
130 -150 130 -166 0 -2 -30 25 -67 62 -82 79 -165 123 -283 147 -72 15 -144
18 -485 18 l-400 1 -3 -42 -3 -41 428 -4 c466 -5 495 -8 593 -65 55 -33 132
-109 155 -154 17 -32 16 -32 -29 13 -58 58 -134 95 -223 108 -37 5 -204 10
-370 10 l-303 0 0 -25 0 -25 263 0 c360 -1 472 -17 559 -83 88 -66 111 -168
61 -268 -70 -137 -155 -149 -988 -149 l-540 1 -3 -26 -3 -25 603 0 c337 0 642
5 690 10 128 15 192 42 257 107 l53 55 -23 -42 c-13 -23 -48 -65 -78 -92 -111
-102 -175 -118 -498 -125 l-243 -6 0 -40 0 -40 243 6 c269 6 342 17 445 68 76
37 169 125 206 194 15 28 24 39 20 25 -14 -55 -69 -141 -127 -200 -72 -72
-160 -118 -287 -151 -81 -21 -109 -23 -542 -26 l-458 -4 0 -45 0 -44 403 0
c415 0 522 8 653 46 127 37 253 112 328 195 100 111 153 281 142 448 -12 168
-60 285 -158 387 l-59 62 31 61 c16 34 37 91 46 128 20 87 20 259 -1 338 -55
211 -204 362 -430 434 -132 43 -233 51 -613 51 -286 0 -344 -2 -348 -14z
m1286 -853 c-29 -65 -49 -95 -60 -88 -5 3 3 23 19 45 15 22 34 53 41 70 7 17
15 29 17 26 3 -2 -5 -26 -17 -53z m-98 20 c-26 -37 -61 -68 -68 -61 -4 5 74
87 84 88 2 0 -5 -12 -16 -27z"/>
<path d="M717 1954 c-4 -4 -7 -13 -7 -21 0 -10 24 -13 106 -13 95 0 105 2 102
18 -3 14 -17 17 -99 20 -52 1 -98 0 -102 -4z"/>
<path d="M770 1760 c0 -20 7 -20 400 -20 393 0 400 0 400 20 0 20 -7 20 -400
20 -393 0 -400 0 -400 -20z"/>
<path d="M564 1635 c-13 -32 6 -35 247 -35 l239 0 0 25 0 25 -240 0 c-201 0
-242 -2 -246 -15z"/>
<path d="M1170 1625 l0 -25 195 0 195 0 0 25 0 25 -195 0 -195 0 0 -25z"/>
<path d="M690 905 c0 -25 0 -25 91 -25 88 0 90 1 87 23 -3 21 -8 22 -90 25
l-88 3 0 -26z"/>
<path d="M970 905 l0 -25 306 0 305 0 -3 23 -3 22 -302 3 -303 2 0 -25z"/>
<path d="M580 735 l0 -25 270 0 270 0 0 25 0 25 -270 0 -270 0 0 -25z"/>
<path d="M1220 740 c0 -19 7 -20 175 -20 168 0 175 1 175 20 0 19 -7 20 -175
20 -168 0 -175 -1 -175 -20z"/>
<path d="M580 375 l0 -25 255 0 255 0 0 25 0 25 -255 0 -255 0 0 -25z"/>
<path d="M508 242 l-58 -3 0 -40 0 -40 63 3 62 3 3 34 c2 18 0 36 -5 40 -4 3
-34 5 -65 3z"/>
</g>
</svg>
