<?xml version="1.0" standalone="no"?>
<!DOCTYPE svg PUBLIC "-//W3C//DTD SVG 20010904//EN"
 "http://www.w3.org/TR/2001/REC-SVG-20010904/DTD/svg10.dtd">
<svg version="1.0" xmlns="http://www.w3.org/2000/svg"
 width="256.000000pt" height="256.000000pt" viewBox="0 0 256.000000 256.000000"
 preserveAspectRatio="xMidYMid meet">

<g transform="translate(0.000000,256.000000) scale(0.100000,-0.100000)"
fill="#000000" stroke="none">
<path d="M1092 2306 c-395 -75 -709 -339 -836 -701 -19 -55 -29 -69 -71 -97
-73 -49 -88 -76 -97 -166 -3 -42 -7 -117 -7 -167 -1 -76 3 -96 22 -130 24 -43
76 -83 118 -92 21 -4 29 -14 39 -46 18 -61 93 -206 135 -263 156 -207 380
-341 653 -389 114 -20 350 -20 464 0 169 30 345 104 465 197 63 48 159 149
202 212 39 57 105 189 121 243 10 32 18 42 39 46 42 9 94 49 118 92 25 44 29
123 15 292 -8 95 -23 121 -97 171 -41 27 -51 42 -70 95 -95 268 -290 484 -557
612 -141 68 -262 96 -438 101 -97 2 -169 -1 -218 -10z m373 -81 c313 -55 598
-273 730 -558 123 -267 109 -629 -36 -886 -183 -325 -566 -504 -989 -462 -447
43 -750 287 -857 687 -23 87 -26 119 -27 259 0 166 7 214 55 343 92 251 314
469 579 568 164 62 365 80 545 49z"/>
<path d="M971 1839 c-284 -30 -424 -126 -488 -334 -15 -49 -18 -94 -18 -250 0
-171 2 -197 23 -265 38 -121 89 -207 167 -285 127 -126 244 -177 446 -196 147
-14 403 -6 504 16 104 22 205 76 286 153 83 77 137 165 175 282 27 81 28 94
29 285 0 179 -2 207 -22 270 -64 202 -207 295 -502 325 -121 12 -480 11 -600
-1z m135 -94 c61 -27 123 -81 149 -129 11 -20 22 -36 25 -36 3 0 14 16 25 36
26 49 87 102 152 131 42 20 71 25 128 25 249 0 409 -264 294 -487 -49 -94
-161 -170 -261 -177 -27 -2 -48 -6 -48 -10 0 -3 7 -34 16 -69 22 -87 23 -192
0 -257 -24 -70 -100 -153 -174 -189 -79 -39 -191 -40 -272 -2 -69 33 -131 95
-167 167 -24 49 -28 69 -27 137 0 44 8 109 18 144 18 72 14 81 -39 81 -16 0
-57 13 -90 29 -137 64 -216 218 -186 363 45 213 263 329 457 243z"/>
<path d="M925 1576 c-41 -18 -83 -69 -91 -111 -26 -139 146 -233 245 -134 82
81 49 218 -60 249 -44 13 -57 12 -94 -4z"/>
<path d="M1533 1570 c-61 -27 -85 -70 -80 -142 2 -44 9 -64 28 -84 53 -57 127
-70 187 -34 100 61 95 204 -8 258 -54 27 -73 27 -127 2z"/>
<path d="M1194 1086 c-10 -26 4 -48 28 -44 17 2 23 10 23 28 0 18 -6 26 -23
28 -13 2 -25 -3 -28 -12z"/>
<path d="M1306 1084 c-9 -22 12 -46 38 -42 15 2 21 10 21 28 0 20 -6 26 -26
28 -18 2 -29 -3 -33 -14z"/>
<path d="M1055 859 c20 -102 116 -179 220 -179 104 0 200 77 220 179 7 32 6
34 -16 27 -104 -29 -142 -36 -204 -36 -62 0 -124 11 -204 36 -22 7 -23 5 -16
-27z"/>
</g>
</svg>
