<?xml version="1.0" standalone="no"?>
<!DOCTYPE svg PUBLIC "-//W3C//DTD SVG 20010904//EN"
 "http://www.w3.org/TR/2001/REC-SVG-20010904/DTD/svg10.dtd">
<svg version="1.0" xmlns="http://www.w3.org/2000/svg"
 width="256.000000pt" height="256.000000pt" viewBox="0 0 256.000000 256.000000"
 preserveAspectRatio="xMidYMid meet">

<g transform="translate(0.000000,256.000000) scale(0.100000,-0.100000)"
fill="#000000" stroke="none">
<path d="M975 2310 c-170 -93 -311 -173 -312 -177 -2 -7 226 -143 240 -143 3
0 91 50 196 110 l191 111 201 -116 200 -116 115 66 c63 37 114 69 112 70 -4 4
-630 365 -632 365 0 -1 -140 -77 -311 -170z"/>
<path d="M358 1957 l-118 -72 0 -131 0 -131 115 -67 c63 -36 117 -66 120 -66
3 0 5 56 5 125 l0 126 115 74 c63 41 115 77 115 79 0 5 -225 136 -231 135 -2
0 -57 -33 -121 -72z"/>
<path d="M1172 1958 l-114 -61 64 -36 c34 -20 88 -51 118 -68 l55 -31 113 65
c62 36 112 66 110 68 -15 12 -219 125 -225 124 -4 0 -59 -27 -121 -61z"/>
<path d="M1978 1957 c-59 -34 -108 -65 -108 -69 0 -4 47 -35 104 -68 119 -70
116 -64 116 -219 0 -53 4 -101 8 -107 5 -8 43 9 120 53 l112 66 0 141 0 142
-113 62 c-63 34 -118 62 -123 62 -5 0 -57 -29 -116 -63z"/>
<path d="M763 1733 l-113 -68 0 -137 0 -137 198 -118 197 -119 5 -233 5 -233
115 -64 c63 -35 120 -64 127 -64 6 0 59 28 117 63 l105 62 1 232 0 231 200
123 200 122 0 133 0 133 -27 19 c-16 10 -67 42 -114 71 l-86 52 -187 -111
c-102 -61 -193 -113 -201 -116 -8 -3 -106 46 -219 110 -113 64 -207 116 -208
116 -2 0 -54 -30 -115 -67z"/>
<path d="M262 1054 l3 -367 300 -184 c165 -101 303 -183 308 -183 4 0 6 64 5
142 l-3 143 -192 110 -192 110 -3 234 -3 235 -45 26 c-25 14 -75 43 -113 64
l-67 38 2 -368z"/>
<path d="M2202 1339 l-122 -70 0 -224 0 -223 -197 -114 -198 -114 -3 -132 c-1
-73 0 -132 4 -132 4 0 147 81 319 180 l313 181 6 277 c3 152 8 314 11 360 2
45 1 82 -3 82 -4 0 -62 -32 -130 -71z"/>
<path d="M650 1053 l1 -128 97 -62 c146 -92 133 -98 130 58 l-3 133 -105 63
c-58 34 -108 63 -112 63 -5 0 -8 -57 -8 -127z"/>
<path d="M1820 1118 c-58 -33 -111 -64 -117 -70 -14 -11 -19 -258 -6 -258 3 0
54 27 113 60 l107 60 7 131 c4 72 5 133 4 135 -2 1 -51 -24 -108 -58z"/>
<path d="M1050 353 l0 -138 124 -68 124 -67 111 67 111 68 0 132 c0 73 -3 133
-7 133 -5 0 -55 -27 -113 -59 l-105 -59 -122 65 -123 65 0 -139z"/>
</g>
</svg>
