<?xml version="1.0" standalone="no"?>
<!DOCTYPE svg PUBLIC "-//W3C//DTD SVG 20010904//EN"
 "http://www.w3.org/TR/2001/REC-SVG-20010904/DTD/svg10.dtd">
<svg version="1.0" xmlns="http://www.w3.org/2000/svg"
 width="256.000000pt" height="256.000000pt" viewBox="0 0 256.000000 256.000000"
 preserveAspectRatio="xMidYMid meet">

<g transform="translate(0.000000,256.000000) scale(0.100000,-0.100000)"
fill="#000000" stroke="none">
<path d="M915 2321 c-148 -88 -270 -163 -272 -167 -2 -7 503 -309 539 -323 9
-3 531 291 556 314 10 9 -45 45 -264 171 -152 87 -279 160 -283 161 -3 1 -127
-69 -276 -156z"/>
<path d="M480 1616 l0 -323 276 -159 c152 -87 281 -161 286 -162 4 -2 7 141 6
323 l-3 327 -275 159 c-151 87 -278 159 -282 159 -5 0 -8 -146 -8 -324z"/>
<path d="M1560 1781 l-275 -158 -3 -328 c-1 -180 2 -325 6 -323 5 1 133 75
285 162 l277 159 0 324 c0 178 -3 323 -7 323 -5 0 -132 -72 -283 -159z"/>
<path d="M1653 947 l-373 -212 0 -329 0 -328 23 14 c12 8 183 106 380 218
l357 203 0 323 c0 178 -3 324 -7 324 -5 -1 -176 -96 -380 -213z"/>
<path d="M480 733 l1 -328 236 -135 c130 -74 258 -147 285 -163 l48 -27 0 327
0 328 -233 133 c-127 73 -256 146 -284 163 l-53 31 0 -329z"/>
</g>
</svg>
