<?xml version="1.0" standalone="no"?>
<!DOCTYPE svg PUBLIC "-//W3C//DTD SVG 20010904//EN"
 "http://www.w3.org/TR/2001/REC-SVG-20010904/DTD/svg10.dtd">
<svg version="1.0" xmlns="http://www.w3.org/2000/svg"
 width="256.000000pt" height="256.000000pt" viewBox="0 0 256.000000 256.000000"
 preserveAspectRatio="xMidYMid meet">

<g transform="translate(0.000000,256.000000) scale(0.100000,-0.100000)"
fill="#000000" stroke="none">
<path d="M1279 2387 c-20 -8 -52 -23 -70 -35 -61 -38 -915 -903 -940 -952 -36
-69 -34 -177 4 -246 39 -69 903 -932 967 -965 69 -36 177 -34 246 4 70 39 529
499 521 521 -13 33 -37 26 -165 -43 -74 -40 -142 -71 -159 -71 -33 0 -626 62
-632 66 -2 2 8 23 22 48 l25 45 -48 30 c-27 17 -54 40 -61 52 -6 13 -13 74
-15 137 -3 108 -5 116 -34 162 -48 74 -96 177 -122 260 -19 62 -23 97 -23 200
0 90 4 134 15 159 l15 33 2 -60 c3 -146 126 -289 329 -384 36 -17 67 -28 70
-26 2 3 -3 33 -12 67 -21 85 -3 182 43 233 16 18 19 15 54 -54 40 -74 105
-150 149 -172 14 -7 55 -16 92 -19 l68 -6 78 80 79 81 -25 61 c-32 79 -28 159
12 240 15 31 31 57 36 57 5 0 14 -17 21 -37 37 -117 117 -222 182 -242 38 -11
267 -22 267 -12 0 3 -168 173 -372 378 -254 252 -387 378 -418 393 -55 28
-151 36 -201 17z"/>
<path d="M1594 1189 c-16 -17 -46 -40 -67 -50 -48 -25 -39 -39 23 -39 69 0
106 31 96 83 -4 20 -10 37 -15 37 -4 0 -20 -14 -37 -31z"/>
</g>
</svg>
