<?xml version="1.0" standalone="no"?>
<!DOCTYPE svg PUBLIC "-//W3C//DTD SVG 20010904//EN"
 "http://www.w3.org/TR/2001/REC-SVG-20010904/DTD/svg10.dtd">
<svg version="1.0" xmlns="http://www.w3.org/2000/svg"
 width="256.000000pt" height="256.000000pt" viewBox="0 0 256.000000 256.000000"
 preserveAspectRatio="xMidYMid meet">

<g transform="translate(0.000000,256.000000) scale(0.100000,-0.100000)"
fill="#000000" stroke="none">
<path d="M597 2460 c-14 -11 -29 -30 -32 -41 -4 -11 51 -368 121 -792 141
-853 132 -817 207 -817 42 0 87 38 87 74 0 27 -247 1519 -256 1549 -6 20 -54
47 -82 47 -11 0 -31 -9 -45 -20z"/>
<path d="M1171 1485 c-66 -15 -214 -79 -231 -101 -7 -8 -7 -35 1 -85 7 -41 13
-76 15 -78 1 -1 18 8 36 22 49 38 154 85 217 98 82 17 233 6 306 -21 265 -100
418 -370 361 -640 -66 -314 -372 -508 -685 -435 -173 41 -339 192 -395 358
-27 79 -38 185 -28 250 7 46 5 87 -11 188 -12 71 -24 129 -27 129 -11 0 -57
-92 -81 -165 -21 -62 -24 -88 -24 -220 1 -139 3 -155 29 -225 104 -277 345
-459 631 -477 332 -21 635 197 726 522 28 101 31 258 5 355 -63 241 -235 426
-471 506 -100 33 -272 42 -374 19z"/>
<path d="M1370 1192 c-47 -23 -65 -61 -50 -107 23 -68 104 -89 154 -39 47 48
32 124 -29 150 -42 17 -33 17 -75 -4z"/>
<path d="M1038 1060 c-27 -27 -30 -36 -25 -73 13 -96 140 -116 177 -28 40 97
-78 175 -152 101z"/>
<path d="M1583 956 c-58 -50 -22 -156 56 -158 88 -3 131 85 75 151 -33 40 -89
43 -131 7z"/>
<path d="M1275 854 c-80 -86 43 -207 132 -130 39 34 39 98 0 132 -40 34 -100
33 -132 -2z"/>
<path d="M1003 768 c-31 -15 -57 -69 -49 -102 19 -76 103 -101 157 -47 47 48
38 116 -21 146 -33 17 -56 18 -87 3z"/>
<path d="M1521 644 c-65 -54 -26 -159 58 -159 94 0 132 128 51 170 -42 22 -74
18 -109 -11z"/>
<path d="M1244 544 c-59 -29 -71 -98 -25 -145 22 -21 39 -29 66 -29 27 0 44 8
66 29 47 47 34 117 -26 146 -40 18 -42 18 -81 -1z"/>
</g>
</svg>
