<?xml version="1.0" standalone="no"?>
<!DOCTYPE svg PUBLIC "-//W3C//DTD SVG 20010904//EN"
 "http://www.w3.org/TR/2001/REC-SVG-20010904/DTD/svg10.dtd">
<svg version="1.0" xmlns="http://www.w3.org/2000/svg"
 width="256.000000pt" height="256.000000pt" viewBox="0 0 256.000000 256.000000"
 preserveAspectRatio="xMidYMid meet">

<g transform="translate(0.000000,256.000000) scale(0.100000,-0.100000)"
fill="#000000" stroke="none">
<path d="M160 1285 c0 -613 3 -1115 6 -1115 4 0 154 118 335 262 l329 263 0
311 0 310 -61 20 -62 19 274 209 c151 115 279 209 284 210 11 1 553 -405 554
-414 1 -3 -25 -14 -56 -25 l-58 -20 -3 -307 -2 -307 322 -259 c178 -142 329
-261 336 -266 9 -6 12 219 12 1108 l0 1116 -1105 0 -1105 0 0 -1115z"/>
<path d="M1138 1333 l-118 -76 0 -199 c0 -109 3 -198 8 -198 4 0 54 32 112 70
58 38 111 70 119 70 7 0 65 -32 127 -70 63 -39 119 -70 124 -70 7 0 9 68 8
197 l-3 197 -125 78 c-69 43 -127 78 -130 78 -3 -1 -58 -35 -122 -77z"/>
</g>
</svg>
