<?xml version="1.0" standalone="no"?>
<!DOCTYPE svg PUBLIC "-//W3C//DTD SVG 20010904//EN"
 "http://www.w3.org/TR/2001/REC-SVG-20010904/DTD/svg10.dtd">
<svg version="1.0" xmlns="http://www.w3.org/2000/svg"
 width="256.000000pt" height="256.000000pt" viewBox="0 0 256.000000 256.000000"
 preserveAspectRatio="xMidYMid meet">

<g transform="translate(0.000000,256.000000) scale(0.100000,-0.100000)"
fill="#000000" stroke="none">
<path d="M1139 2381 c-26 -10 -75 -36 -110 -57 -109 -65 -372 -245 -409 -279
-26 -24 -48 -34 -85 -39 -50 -6 -50 -6 -75 34 -42 67 -64 62 -76 -17 -5 -36
-10 -43 -29 -43 -36 0 -75 -18 -75 -34 0 -8 19 -25 42 -38 l42 -23 -3 -57 c-3
-68 4 -71 60 -26 39 31 39 32 74 15 20 -9 45 -17 56 -17 22 0 21 10 -6 76 -12
29 -11 33 17 61 l30 30 56 -33 c31 -19 59 -34 64 -34 16 0 7 -23 -44 -116 -48
-87 -55 -95 -78 -90 -67 15 -146 16 -170 4 -49 -26 -65 -79 -65 -223 0 -71 3
-144 7 -161 7 -31 6 -32 -55 -54 -79 -29 -213 -96 -223 -111 -18 -30 95 -72
231 -86 l50 -5 0 -149 c0 -105 -3 -149 -11 -149 -34 0 -144 -42 -144 -55 0
-18 12 -19 70 -1 100 29 98 29 114 -7 30 -73 30 -73 -18 -91 -48 -19 -96 -52
-96 -67 0 -15 27 -10 63 11 20 12 49 25 66 30 29 8 33 6 61 -35 l29 -43 -39
-27 c-21 -15 -46 -38 -55 -51 -14 -22 -14 -25 0 -30 10 -4 32 9 60 35 24 22
48 41 53 41 4 0 30 -23 57 -51 109 -111 266 -199 443 -246 87 -24 115 -27 267
-27 153 0 180 3 270 27 174 47 331 135 440 245 28 29 55 52 61 52 6 0 32 -18
57 -40 25 -22 50 -40 56 -40 25 0 8 31 -40 74 l-51 46 26 41 c30 45 34 45 123
3 29 -14 58 -22 64 -19 18 12 -20 43 -82 67 -64 25 -63 22 -33 95 16 37 19 37
117 6 26 -8 55 -12 63 -9 31 12 -5 34 -82 52 l-75 18 7 39 c8 51 8 173 0 223
l-7 40 113 18 c121 19 163 33 163 55 0 18 -98 73 -201 112 l-81 31 8 41 c12
62 11 218 -2 279 -16 72 -53 108 -111 108 -24 0 -68 -7 -98 -15 -30 -8 -57
-11 -61 -7 -3 4 -39 54 -79 112 -183 259 -408 510 -511 569 -64 36 -128 40
-200 12z m152 -99 c95 -64 246 -228 403 -436 79 -105 207 -298 202 -304 -2 -1
-61 5 -132 14 -309 37 -883 26 -1091 -21 -13 -3 -23 -1 -23 4 0 6 38 79 85
163 102 184 104 199 41 263 l-45 44 187 125 c103 69 207 134 232 145 55 25
107 26 141 3z m279 -927 c121 -5 381 -30 427 -40 15 -4 32 -23 48 -55 23 -46
29 -50 85 -66 34 -9 57 -21 53 -25 -4 -4 -133 -13 -287 -20 -311 -13 -1467 -7
-1526 9 l-35 9 71 21 c39 12 76 22 83 22 6 0 22 25 36 55 13 30 30 55 38 55 8
0 79 7 158 16 79 9 230 19 334 23 185 8 257 7 515 -4z m-755 -396 c117 -21
205 -92 246 -199 22 -57 22 -57 -56 -63 -83 -7 -221 11 -270 34 -69 32 -114
101 -130 196 -6 38 -5 42 17 45 31 6 120 -1 193 -13z m1165 4 c-1 -27 -32
-120 -54 -157 -30 -52 -55 -69 -132 -92 -58 -17 -277 -25 -291 -10 -10 10 27
95 61 139 39 52 110 96 178 113 58 13 238 19 238 7z m-645 -383 c0 -18 -72
-27 -87 -12 -19 19 3 33 45 30 29 -2 42 -8 42 -18z"/>
</g>
</svg>
