<?xml version="1.0" standalone="no"?>
<!DOCTYPE svg PUBLIC "-//W3C//DTD SVG 20010904//EN"
 "http://www.w3.org/TR/2001/REC-SVG-20010904/DTD/svg10.dtd">
<svg version="1.0" xmlns="http://www.w3.org/2000/svg"
 width="256.000000pt" height="256.000000pt" viewBox="0 0 256.000000 256.000000"
 preserveAspectRatio="xMidYMid meet">

<g transform="translate(0.000000,256.000000) scale(0.100000,-0.100000)"
fill="#000000" stroke="none">
<path d="M1125 2389 c-33 -5 -91 -17 -130 -27 l-70 -18 -3 -570 c-2 -394 0
-585 8 -621 23 -108 124 -217 240 -259 67 -24 181 -22 252 5 76 29 160 107
201 185 30 57 32 68 32 161 0 88 -3 107 -27 157 -34 74 -107 146 -183 184 -56
27 -69 29 -202 33 l-143 3 0 64 0 64 128 0 c192 0 287 -32 398 -133 257 -235
196 -657 -117 -811 -288 -141 -622 16 -704 330 -12 48 -15 150 -15 601 0 299
-4 543 -8 543 -12 0 -167 -97 -181 -114 -10 -11 -11 -130 -9 -518 5 -562 4
-553 78 -703 119 -241 350 -385 619 -385 120 0 202 19 310 72 69 33 102 57
176 132 155 154 212 301 203 524 -4 98 -10 130 -35 198 -53 141 -134 248 -251
331 -130 93 -269 132 -474 133 l-118 0 0 65 0 65 119 0 c284 0 477 -74 652
-250 166 -167 249 -387 236 -624 -15 -259 -146 -493 -357 -636 -141 -96 -288
-140 -465 -140 -401 0 -728 267 -809 663 -13 62 -16 153 -16 507 0 236 -3 430
-7 430 -16 -1 -117 -145 -163 -233 -355 -674 58 -1500 811 -1622 751 -122
1407 537 1284 1290 -39 243 -147 447 -328 622 -204 197 -450 300 -737 308 -74
2 -162 0 -195 -6z m230 -958 c124 -58 153 -198 61 -299 -33 -37 -73 -53 -131
-53 -59 0 -97 16 -137 58 -40 42 -48 74 -48 199 l0 114 108 0 c83 0 116 -5
147 -19z"/>
</g>
</svg>
