<?xml version="1.0" standalone="no"?>
<!DOCTYPE svg PUBLIC "-//W3C//DTD SVG 20010904//EN"
 "http://www.w3.org/TR/2001/REC-SVG-20010904/DTD/svg10.dtd">
<svg version="1.0" xmlns="http://www.w3.org/2000/svg"
 width="256.000000pt" height="256.000000pt" viewBox="0 0 256.000000 256.000000"
 preserveAspectRatio="xMidYMid meet">

<g transform="translate(0.000000,256.000000) scale(0.100000,-0.100000)"
fill="#000000" stroke="none">
<path d="M80 1275 l0 -805 1200 0 1200 0 0 805 0 805 -1200 0 -1200 0 0 -805z
m2235 2 l0 -637 -1035 0 -1035 0 -3 627 c-1 346 0 634 3 641 3 10 216 12 1037
10 l1033 -3 0 -638z"/>
<path d="M420 1665 c0 -77 2 -85 19 -85 10 0 55 -18 99 -40 92 -46 175 -127
192 -188 14 -52 12 -131 -4 -186 -30 -99 -97 -152 -228 -181 l-78 -17 0 -79
c0 -92 -6 -88 112 -64 96 20 186 63 242 116 64 58 115 163 123 254 7 85 38
150 98 211 86 86 129 52 204 -161 99 -281 248 -382 423 -288 26 14 57 36 69
49 l22 24 73 -69 c82 -78 181 -132 281 -152 34 -7 64 -11 66 -8 3 2 7 38 10
80 l5 76 -49 11 c-86 20 -156 62 -220 129 -32 35 -68 82 -79 104 -18 34 -19
45 -9 82 20 79 71 167 121 212 51 46 75 56 171 75 l57 11 0 80 0 79 -28 0
c-48 0 -181 -38 -234 -67 -63 -34 -150 -128 -187 -201 -34 -67 -65 -166 -76
-237 -8 -59 -38 -120 -64 -135 -79 -42 -133 20 -216 248 -46 127 -104 210
-167 241 -91 43 -209 18 -287 -63 l-33 -34 -57 60 c-86 94 -222 172 -333 192
l-38 7 0 -86z"/>
</g>
</svg>
