<?xml version="1.0" standalone="no"?>
<!DOCTYPE svg PUBLIC "-//W3C//DTD SVG 20010904//EN"
 "http://www.w3.org/TR/2001/REC-SVG-20010904/DTD/svg10.dtd">
<svg version="1.0" xmlns="http://www.w3.org/2000/svg"
 width="256.000000pt" height="256.000000pt" viewBox="0 0 256.000000 256.000000"
 preserveAspectRatio="xMidYMid meet">

<g transform="translate(0.000000,256.000000) scale(0.100000,-0.100000)"
fill="#000000" stroke="none">
<path d="M194 2286 l-34 -34 0 -992 c0 -913 1 -994 17 -1021 9 -15 29 -33 43
-39 18 -8 270 -10 831 -8 795 3 805 4 884 26 199 55 340 160 408 303 100 208
68 416 -88 574 -88 90 -210 152 -331 171 l-47 7 72 18 c454 115 526 742 108
943 -170 82 -211 86 -1081 86 l-748 0 -34 -34z m1553 -468 c98 -65 98 -211 0
-276 l-40 -27 -350 -5 -349 -5 -29 -33 -29 -32 0 -166 0 -166 34 -34 34 -34
358 0 c399 0 410 -2 467 -69 25 -30 47 -87 47 -121 0 -65 -58 -152 -117 -176
-26 -11 -141 -14 -568 -14 l-535 0 0 595 0 596 518 -3 518 -3 41 -27z"/>
</g>
</svg>
