<?xml version="1.0" standalone="no"?>
<!DOCTYPE svg PUBLIC "-//W3C//DTD SVG 20010904//EN"
 "http://www.w3.org/TR/2001/REC-SVG-20010904/DTD/svg10.dtd">
<svg version="1.0" xmlns="http://www.w3.org/2000/svg"
 width="256.000000pt" height="256.000000pt" viewBox="0 0 256.000000 256.000000"
 preserveAspectRatio="xMidYMid meet">

<g transform="translate(0.000000,256.000000) scale(0.100000,-0.100000)"
fill="#000000" stroke="none">
<path d="M1092 2384 c-467 -78 -840 -455 -917 -925 -64 -397 95 -811 405
-1052 36 -28 70 -55 75 -61 17 -19 198 -104 277 -130 445 -150 955 10 1240
388 184 245 261 554 213 855 -19 117 -52 215 -109 330 -218 432 -702 676
-1184 595z m312 -202 c241 -174 450 -311 562 -370 97 -51 270 -187 292 -229
30 -57 58 -280 47 -365 l-7 -52 -109 114 c-60 63 -169 180 -242 259 -72 79
-168 173 -212 208 -99 80 -399 279 -605 403 -85 51 -159 96 -163 100 -18 16
241 65 268 51 6 -3 81 -57 169 -119z m118 94 c189 -48 350 -138 483 -271 70
-71 193 -240 182 -252 -3 -3 -26 11 -51 31 -24 20 -90 61 -146 91 -56 31 -152
88 -213 129 -108 71 -392 270 -411 287 -19 17 61 9 156 -15z m-443 -173 c244
-146 522 -331 622 -415 42 -34 125 -117 185 -183 60 -65 175 -187 256 -270
140 -144 147 -153 139 -181 -5 -16 -14 -28 -21 -26 -8 2 -126 58 -264 126
-249 122 -251 123 -312 192 -82 93 -166 206 -257 344 -45 68 -90 124 -109 136
-44 28 -149 69 -228 89 -87 22 -191 73 -301 147 l-91 62 24 17 c29 22 137 79
151 79 5 0 98 -53 206 -117z m-376 -62 c91 -69 234 -148 309 -170 141 -43 223
-73 256 -93 20 -12 62 -63 104 -127 39 -58 96 -140 127 -181 31 -41 62 -83 70
-94 8 -10 -22 8 -65 41 -111 85 -305 219 -627 437 -269 182 -278 189 -261 207
23 26 27 25 87 -20z m186 -276 c578 -391 675 -467 759 -592 33 -50 190 -335
312 -565 l35 -67 -35 -31 c-65 -56 -195 -139 -266 -168 -126 -54 -98 -78 -238
210 -75 154 -155 300 -204 374 -96 145 -324 449 -557 743 -94 117 -178 224
-188 237 -18 23 -18 24 4 54 13 16 28 30 34 30 7 0 162 -101 344 -225z m-226
-163 c234 -295 428 -555 526 -702 102 -153 329 -609 309 -621 -11 -7 -70 -16
-147 -22 -22 -2 -30 10 -78 117 -30 66 -74 176 -99 245 -25 69 -62 160 -83
201 -107 210 -363 586 -521 765 -66 75 -160 209 -160 229 0 6 7 22 17 35 l16
24 26 -29 c14 -16 102 -125 194 -242z m-256 84 c18 -29 65 -91 106 -137 143
-163 362 -477 485 -695 29 -51 79 -163 111 -250 32 -88 77 -201 100 -252 22
-51 41 -95 41 -97 0 -11 -244 29 -267 44 -6 3 -27 71 -46 151 -102 408 -184
559 -439 805 -56 56 -132 126 -167 156 l-64 56 26 89 c28 96 64 184 75 184 4
0 21 -24 39 -54z m44 -479 c219 -217 280 -311 358 -550 37 -114 93 -327 86
-327 -11 0 -90 38 -136 66 l-56 34 -48 137 c-57 167 -102 266 -245 553 -61
121 -106 220 -101 220 4 0 69 -60 142 -133z m-62 -195 c123 -249 219 -478 205
-491 -10 -9 -109 105 -170 196 -65 97 -116 215 -143 333 -20 89 -36 220 -26
220 3 0 63 -116 134 -258z m1604 69 c297 -143 275 -116 206 -256 -42 -87 -138
-222 -154 -217 -6 1 -78 128 -161 281 -83 153 -166 300 -185 327 l-33 49 35
-30 c19 -16 151 -86 292 -154z"/>
</g>
</svg>
