<?xml version="1.0" standalone="no"?>
<!DOCTYPE svg PUBLIC "-//W3C//DTD SVG 20010904//EN"
 "http://www.w3.org/TR/2001/REC-SVG-20010904/DTD/svg10.dtd">
<svg version="1.0" xmlns="http://www.w3.org/2000/svg"
 width="256.000000pt" height="256.000000pt" viewBox="0 0 256.000000 256.000000"
 preserveAspectRatio="xMidYMid meet">

<g transform="translate(0.000000,256.000000) scale(0.100000,-0.100000)"
fill="#000000" stroke="none">
<path d="M1555 2100 c-49 -160 -93 -294 -99 -299 -6 -4 -296 -104 -644 -221
-347 -117 -632 -214 -632 -216 0 -2 498 -4 1106 -4 851 0 1105 3 1102 12 -6
17 -732 1018 -739 1018 -3 0 -45 -131 -94 -290z"/>
<path d="M183 1206 c8 -20 711 -1025 718 -1026 3 0 45 136 94 303 49 166 90
304 91 306 2 2 290 97 640 212 351 115 640 211 642 214 3 3 -489 5 -1092 5
-937 0 -1097 -2 -1093 -14z"/>
</g>
</svg>
