<?xml version="1.0" standalone="no"?>
<!DOCTYPE svg PUBLIC "-//W3C//DTD SVG 20010904//EN"
 "http://www.w3.org/TR/2001/REC-SVG-20010904/DTD/svg10.dtd">
<svg version="1.0" xmlns="http://www.w3.org/2000/svg"
 width="256.000000pt" height="256.000000pt" viewBox="0 0 256.000000 256.000000"
 preserveAspectRatio="xMidYMid meet">

<g transform="translate(0.000000,256.000000) scale(0.100000,-0.100000)"
fill="#000000" stroke="none">
<path d="M850 2300 l0 -180 -67 0 c-38 -1 -139 -1 -225 0 l-158 1 0 -121 0
-120 95 0 c60 0 108 -5 130 -14 66 -28 65 -19 65 -585 l0 -510 -24 -28 c-23
-27 -29 -28 -124 -31 l-99 -4 -17 -106 c-10 -59 -20 -117 -23 -129 l-5 -23
223 -2 224 -3 3 -182 2 -183 110 0 110 0 0 180 0 180 85 0 85 0 0 -180 0 -181
111 3 110 3 2 180 2 179 105 12 c126 15 179 26 265 59 156 58 250 165 284 323
16 74 14 219 -4 278 -31 104 -117 192 -225 229 -25 8 -51 18 -59 20 -9 4 2 16
32 36 108 72 158 201 136 357 -28 197 -168 307 -444 346 l-80 12 -5 179 -5
180 -112 3 -113 3 0 -176 0 -175 -24 0 c-12 0 -51 -3 -85 -6 l-61 -7 0 182 0
181 -110 0 -110 0 0 -180z m530 -452 c62 -12 136 -46 162 -75 48 -53 60 -140
29 -209 -44 -97 -179 -144 -412 -144 l-89 0 0 219 0 220 43 4 c58 6 201 -2
267 -15z m42 -663 c185 -32 268 -101 268 -225 0 -68 -19 -109 -71 -153 -74
-64 -225 -97 -441 -97 l-108 0 0 245 0 245 134 0 c73 0 171 -7 218 -15z"/>
</g>
</svg>
