<?xml version="1.0" standalone="no"?>
<!DOCTYPE svg PUBLIC "-//W3C//DTD SVG 20010904//EN"
 "http://www.w3.org/TR/2001/REC-SVG-20010904/DTD/svg10.dtd">
<svg version="1.0" xmlns="http://www.w3.org/2000/svg"
 width="256.000000pt" height="256.000000pt" viewBox="0 0 256.000000 256.000000"
 preserveAspectRatio="xMidYMid meet">

<g transform="translate(0.000000,256.000000) scale(0.100000,-0.100000)"
fill="#000000" stroke="none">
<path d="M1068 2224 c-15 -23 -42 -283 -43 -394 0 -113 2 -129 23 -161 29 -47
81 -87 151 -116 81 -33 83 -32 75 30 -17 149 -46 328 -60 377 -27 94 -133 286
-146 264z"/>
<path d="M2240 2053 c-14 -2 -95 -20 -180 -40 -127 -28 -167 -34 -222 -29 -38
3 -100 9 -139 12 -158 14 -266 -77 -304 -255 -13 -65 -44 -167 -74 -243 l-10
-27 -73 33 c-93 42 -363 145 -533 203 -227 77 -480 130 -580 121 l-40 -3 110
-109 c217 -214 452 -403 623 -501 181 -104 366 -139 502 -96 l65 20 -25 -20
c-75 -62 -109 -74 -225 -76 l-110 -2 -224 -331 c-122 -182 -221 -334 -218
-337 19 -18 361 108 627 231 318 147 437 238 518 394 72 138 87 243 57 407
-31 171 -15 277 55 383 85 127 185 167 620 246 8 1 -3 8 -25 14 -38 11 -143
14 -195 5z"/>
</g>
</svg>
