<?xml version="1.0" standalone="no"?>
<!DOCTYPE svg PUBLIC "-//W3C//DTD SVG 20010904//EN"
 "http://www.w3.org/TR/2001/REC-SVG-20010904/DTD/svg10.dtd">
<svg version="1.0" xmlns="http://www.w3.org/2000/svg"
 width="256.000000pt" height="256.000000pt" viewBox="0 0 256.000000 256.000000"
 preserveAspectRatio="xMidYMid meet">

<g transform="translate(0.000000,256.000000) scale(0.100000,-0.100000)"
fill="#000000" stroke="none">
<path d="M1175 2320 c-22 -89 -42 -165 -46 -171 -3 -6 -81 9 -209 41 -111 28
-205 49 -207 46 -6 -5 -53 -186 -53 -203 0 -7 19 -17 43 -23 163 -42 197 -64
197 -127 0 -36 -224 -944 -241 -975 -19 -35 -54 -40 -141 -18 -44 12 -84 20
-90 18 -12 -4 -108 -227 -100 -232 4 -2 93 -25 199 -51 106 -27 197 -51 202
-54 5 -4 -7 -72 -30 -161 -21 -85 -39 -162 -39 -171 0 -13 22 -22 90 -39 49
-12 96 -20 103 -17 7 2 30 77 52 166 21 88 44 161 50 161 5 0 42 -9 80 -19 54
-14 70 -22 68 -35 0 -10 -18 -85 -38 -167 -21 -82 -35 -152 -32 -155 11 -11
192 -53 199 -46 4 4 25 78 46 165 22 87 43 161 46 164 3 3 39 0 81 -6 122 -18
293 -14 364 8 126 39 199 103 257 223 110 232 70 422 -114 539 l-45 28 27 11
c15 5 31 10 35 10 21 0 105 67 131 104 78 114 93 288 35 394 -44 80 -121 145
-248 207 -62 30 -118 55 -125 55 -8 0 -11 7 -8 18 15 51 76 303 76 316 0 18
-185 65 -199 50 -4 -5 -25 -78 -46 -161 -26 -108 -42 -153 -52 -153 -13 0
-145 31 -151 35 -2 1 16 76 38 165 22 89 39 165 36 167 -3 4 -191 53 -200 53
-1 0 -20 -72 -41 -160z m369 -545 c66 -28 115 -64 146 -107 24 -33 30 -51 30
-95 0 -93 -43 -156 -126 -183 -87 -29 -422 19 -410 59 3 9 26 98 51 199 24
101 47 187 50 192 6 9 197 -39 259 -65z m-234 -597 c192 -53 301 -123 336
-214 33 -88 -5 -192 -89 -236 -38 -21 -55 -23 -177 -23 -114 1 -153 5 -247 29
-79 19 -113 32 -113 42 0 13 95 402 105 432 6 16 40 10 185 -30z"/>
</g>
</svg>
