<?xml version="1.0" standalone="no"?>
<!DOCTYPE svg PUBLIC "-//W3C//DTD SVG 20010904//EN"
 "http://www.w3.org/TR/2001/REC-SVG-20010904/DTD/svg10.dtd">
<svg version="1.0" xmlns="http://www.w3.org/2000/svg"
 width="256.000000pt" height="256.000000pt" viewBox="0 0 256.000000 256.000000"
 preserveAspectRatio="xMidYMid meet">

<g transform="translate(0.000000,256.000000) scale(0.100000,-0.100000)"
fill="#000000" stroke="none">
<path d="M1301 2363 c-5 -21 -23 -91 -40 -156 -16 -65 -31 -120 -33 -122 -1
-1 -88 19 -193 45 -104 26 -191 46 -192 46 -1 -1 -13 -47 -26 -103 l-24 -102
71 -17 c118 -28 156 -58 156 -119 -1 -54 -217 -895 -235 -916 -21 -23 -51 -24
-125 -4 -30 8 -62 15 -71 15 -21 0 -114 -209 -96 -215 7 -3 93 -25 192 -50 98
-25 180 -47 181 -48 2 -1 -15 -74 -37 -161 -22 -87 -39 -159 -37 -161 13 -10
183 -44 188 -38 4 4 57 208 119 453 62 245 116 461 121 481 l10 35 87 -18
c132 -28 417 -36 514 -14 88 19 192 66 232 104 56 52 97 166 97 267 0 141
-118 273 -312 352 -35 13 -66 28 -70 31 -4 4 10 76 32 160 l38 153 -21 8 c-35
13 -168 44 -171 40 -2 -2 -18 -65 -36 -139 -17 -74 -34 -142 -36 -151 -4 -16
-10 -15 -75 1 -39 10 -73 21 -76 24 -3 3 11 71 31 152 20 81 33 150 29 154 -4
4 -39 15 -78 24 -38 9 -78 19 -87 22 -13 4 -19 -4 -27 -33z m217 -589 c178
-51 262 -123 262 -224 0 -83 -51 -149 -133 -171 -54 -15 -178 -5 -281 21 -44
11 -82 22 -84 25 -3 2 17 90 43 195 l48 191 31 -7 c17 -3 68 -17 114 -30z"/>
<path d="M1930 1139 c-54 -19 -127 -33 -244 -45 l-59 -6 26 -21 c42 -36 67
-87 67 -140 0 -84 -46 -147 -129 -175 -43 -15 -179 -15 -255 -1 -32 6 -60 8
-63 5 -10 -10 -134 -529 -129 -541 2 -6 39 -19 82 -29 44 -10 84 -21 90 -23 7
-3 25 53 49 149 21 84 41 157 45 161 4 5 36 3 71 -3 35 -7 113 -12 174 -12
185 1 296 52 374 172 86 133 109 301 57 415 -28 61 -71 116 -90 114 -6 0 -36
-9 -66 -20z"/>
</g>
</svg>
