<?xml version="1.0" standalone="no"?>
<!DOCTYPE svg PUBLIC "-//W3C//DTD SVG 20010904//EN"
 "http://www.w3.org/TR/2001/REC-SVG-20010904/DTD/svg10.dtd">
<svg version="1.0" xmlns="http://www.w3.org/2000/svg"
 width="256.000000pt" height="256.000000pt" viewBox="0 0 256.000000 256.000000"
 preserveAspectRatio="xMidYMid meet">

<g transform="translate(0.000000,256.000000) scale(0.100000,-0.100000)"
fill="#000000" stroke="none">
<path d="M731 2384 c-169 -45 -281 -163 -317 -333 -34 -161 -1 -374 76 -481
11 -16 20 -31 20 -34 0 -3 -25 -6 -57 -6 l-56 0 6 -108 c15 -269 124 -405 352
-442 48 -8 221 -11 545 -8 l475 3 45 -27 c25 -15 58 -39 73 -54 l29 -26 -43
-45 c-24 -24 -66 -55 -93 -68 l-50 -25 -578 0 c-549 0 -581 -1 -616 -19 -92
-47 -149 -170 -140 -300 6 -79 32 -134 87 -184 74 -67 78 -67 707 -67 l563 0
64 23 c135 49 212 112 258 211 28 61 59 205 59 277 l0 39 -55 0 c-30 0 -55 2
-55 5 0 3 13 24 30 46 47 65 72 143 77 244 14 241 -88 455 -255 537 l-67 33
-540 5 -540 5 -37 23 c-39 24 -83 85 -73 101 9 16 116 78 175 101 82 34 275
41 738 30 329 -8 399 -8 426 4 50 21 114 83 144 140 24 45 27 62 27 146 0 107
-15 148 -77 207 -66 64 -60 63 -697 62 -470 0 -586 -3 -630 -15z m1211 -181
c25 -22 25 -122 1 -152 -18 -21 -25 -21 -563 -30 -608 -9 -569 -5 -729 -85
l-74 -38 5 70 c6 80 43 160 94 198 69 53 66 53 678 53 516 1 571 -1 588 -16z
m-1237 -788 c49 -12 142 -15 562 -15 482 0 506 -1 542 -20 50 -25 96 -81 121
-147 22 -59 38 -158 24 -152 -5 2 -34 17 -65 32 -31 15 -78 31 -105 35 -27 4
-200 4 -384 0 -351 -8 -559 -4 -648 13 -102 20 -159 99 -169 237 l-6 76 34
-22 c20 -12 62 -28 94 -37z m1250 -817 c-18 -129 -53 -183 -150 -229 l-60 -29
-556 0 c-548 0 -557 0 -583 21 -23 18 -26 27 -26 83 0 39 6 69 16 84 l15 22
569 0 c568 0 569 0 632 23 35 12 81 35 103 50 22 15 41 27 43 27 2 0 1 -24 -3
-52z"/>
</g>
</svg>
