<?xml version="1.0" standalone="no"?>
<!DOCTYPE svg PUBLIC "-//W3C//DTD SVG 20010904//EN"
 "http://www.w3.org/TR/2001/REC-SVG-20010904/DTD/svg10.dtd">
<svg version="1.0" xmlns="http://www.w3.org/2000/svg"
 width="256.000000pt" height="256.000000pt" viewBox="0 0 256.000000 256.000000"
 preserveAspectRatio="xMidYMid meet">

<g transform="translate(0.000000,256.000000) scale(0.100000,-0.100000)"
fill="#000000" stroke="none">
<path d="M1106 2469 c-191 -28 -393 -113 -552 -233 -78 -58 -209 -195 -263
-274 -142 -210 -205 -420 -205 -682 0 -223 32 -360 132 -554 291 -567 992
-804 1570 -531 611 289 865 1014 566 1619 -60 121 -141 231 -243 329 -100 97
-172 147 -296 209 -213 107 -478 151 -709 117z m370 -389 c156 -36 285 -111
401 -234 86 -89 142 -183 185 -307 32 -91 33 -99 33 -254 0 -140 -3 -169 -23
-235 -88 -278 -284 -474 -562 -562 -65 -20 -95 -23 -230 -23 -135 0 -165 3
-230 23 -291 92 -497 309 -571 601 -18 71 -21 105 -17 220 4 120 8 147 37 231
42 123 96 215 184 306 208 220 491 303 793 234z"/>
<path d="M1130 2016 c-388 -82 -652 -459 -590 -843 28 -176 105 -319 236 -442
203 -190 493 -248 759 -154 190 68 364 234 439 419 79 194 72 421 -19 610 -91
190 -278 345 -480 399 -82 23 -263 28 -345 11z m170 -136 l0 -100 -45 0 -45 0
0 100 0 100 45 0 45 0 0 -100z m290 22 c80 -39 109 -60 180 -131 94 -95 142
-174 181 -301 35 -111 33 -283 -4 -395 -75 -228 -249 -397 -485 -470 -23 -7
-23 -6 -20 86 l3 93 90 13 c213 31 302 127 294 320 -5 102 -31 145 -114 190
-54 29 -57 31 -37 42 12 6 34 33 49 59 24 39 28 58 28 118 0 61 -4 77 -30 120
-37 59 -107 98 -210 117 l-70 13 -3 92 -3 93 28 -7 c15 -3 71 -27 123 -52z
m-520 -42 l0 -90 -58 0 c-33 0 -93 3 -135 6 -89 8 -89 11 6 76 45 31 165 94
185 98 1 0 2 -40 2 -90z m-285 -207 c5 -21 11 -23 78 -23 119 0 112 23 115
-337 2 -248 0 -312 -11 -327 -10 -14 -31 -20 -84 -23 l-71 -6 -11 -43 c-6 -23
-11 -54 -11 -68 0 -41 -16 -31 -70 42 -186 251 -181 583 12 845 l43 59 3 -49
c1 -26 5 -58 7 -70z m661 -60 c42 -22 64 -56 64 -99 0 -79 -77 -124 -214 -124
l-86 0 0 126 0 126 98 -4 c73 -3 107 -9 138 -25z m32 -388 c120 -49 124 -168
9 -227 -32 -16 -68 -22 -155 -27 -63 -3 -116 -4 -118 -2 -2 2 -4 67 -4 144 l0
140 113 -5 c72 -4 127 -12 155 -23z m-408 -500 c0 -61 -3 -85 -12 -85 -38 0
-220 110 -257 154 -12 15 0 16 128 16 l141 0 0 -85z m240 -25 l0 -100 -34 0
c-64 0 -66 3 -66 106 l0 94 50 0 50 0 0 -100z"/>
</g>
</svg>
