<?xml version="1.0" standalone="no"?>
<!DOCTYPE svg PUBLIC "-//W3C//DTD SVG 20010904//EN"
 "http://www.w3.org/TR/2001/REC-SVG-20010904/DTD/svg10.dtd">
<svg version="1.0" xmlns="http://www.w3.org/2000/svg"
 width="256.000000pt" height="256.000000pt" viewBox="0 0 256.000000 256.000000"
 preserveAspectRatio="xMidYMid meet">

<g transform="translate(0.000000,256.000000) scale(0.100000,-0.100000)"
fill="#000000" stroke="none">
<path d="M605 2399 c-176 -43 -326 -82 -334 -87 -8 -5 -50 -147 -103 -347
l-88 -340 126 -123 126 -122 46 39 c26 22 74 65 107 95 l60 55 -35 33 c-19 18
-52 47 -72 63 l-37 30 43 198 c24 109 45 200 47 201 2 2 85 16 183 31 l179 27
71 -69 c39 -38 218 -212 399 -387 l327 -318 53 48 c28 26 76 70 106 98 l54 49
-94 91 c-52 49 -259 253 -460 453 -202 200 -371 363 -375 362 -5 0 -153 -36
-329 -80z"/>
<path d="M1501 2354 l-121 -126 39 -47 c22 -25 65 -73 95 -106 l55 -60 33 35
c18 19 47 52 63 72 l30 37 198 -43 c109 -24 200 -45 201 -47 2 -2 16 -85 31
-183 l27 -179 -64 -66 c-36 -36 -210 -216 -387 -399 l-323 -333 48 -52 c26
-29 70 -76 96 -105 l49 -52 447 451 c246 248 450 457 454 463 6 11 -144 648
-160 675 -5 8 -147 50 -347 102 -187 49 -341 89 -341 89 -1 0 -56 -57 -123
-126z"/>
<path d="M565 1433 c-231 -234 -434 -442 -452 -462 l-31 -37 79 -325 c43 -178
82 -330 87 -338 5 -8 147 -50 347 -103 l340 -88 123 126 122 126 -39 46 c-22
26 -65 74 -95 107 l-55 60 -33 -35 c-18 -19 -46 -52 -63 -72 l-30 -37 -198 43
c-109 24 -200 45 -201 47 -2 2 -16 85 -31 183 l-27 179 69 71 c38 39 212 218
387 399 l318 327 -48 53 c-98 106 -145 157 -147 156 -1 0 -191 -192 -422 -426z"/>
<path d="M855 1133 c-27 -26 -74 -69 -103 -95 l-52 -49 451 -447 c248 -246
457 -450 463 -454 11 -6 648 144 675 160 8 5 50 147 103 347 l88 340 -126 123
-126 122 -46 -39 c-26 -22 -74 -65 -107 -95 l-60 -55 35 -33 c19 -18 52 -47
72 -63 l37 -30 -43 -198 c-24 -109 -45 -200 -47 -201 -2 -2 -85 -16 -183 -31
l-179 -27 -71 69 c-39 38 -218 212 -398 386 -179 174 -328 317 -330 317 -1 0
-25 -21 -53 -47z"/>
</g>
</svg>
