<?xml version="1.0" standalone="no"?>
<!DOCTYPE svg PUBLIC "-//W3C//DTD SVG 20010904//EN"
 "http://www.w3.org/TR/2001/REC-SVG-20010904/DTD/svg10.dtd">
<svg version="1.0" xmlns="http://www.w3.org/2000/svg"
 width="256.000000pt" height="256.000000pt" viewBox="0 0 256.000000 256.000000"
 preserveAspectRatio="xMidYMid meet">

<g transform="translate(0.000000,256.000000) scale(0.100000,-0.100000)"
fill="#000000" stroke="none">
<path d="M857 2289 c-51 -20 -75 -35 -70 -42 119 -205 286 -310 488 -310 144
1 277 56 372 155 30 31 103 144 103 159 0 6 -140 69 -153 69 -3 0 -17 -20 -30
-43 -30 -52 -91 -108 -144 -135 -158 -81 -354 -26 -452 127 -18 28 -34 51 -35
51 0 -1 -36 -14 -79 -31z"/>
<path d="M578 2115 c-32 -25 -58 -49 -58 -54 0 -5 13 -34 29 -64 39 -74 47
-139 26 -218 -39 -155 -159 -256 -317 -267 -76 -5 -69 4 -88 -106 -5 -33 -8
-61 -6 -63 2 -2 28 -7 58 -10 123 -12 287 55 382 158 61 66 111 154 132 234
18 67 17 187 -1 260 -16 60 -71 165 -90 172 -5 1 -36 -17 -67 -42z"/>
<path d="M1897 2142 c-25 -27 -66 -122 -78 -182 -6 -31 -9 -96 -7 -148 5 -84
9 -101 48 -179 92 -185 274 -303 470 -303 65 0 69 5 59 75 -16 109 -10 102
-88 107 -94 7 -164 42 -234 118 -99 106 -120 239 -58 364 18 36 30 70 27 75
-7 10 -111 91 -118 91 -3 0 -12 -8 -21 -18z"/>
<path d="M1185 1765 c-183 -33 -341 -175 -405 -365 -74 -218 30 -495 233 -618
63 -38 189 -72 266 -72 203 1 399 123 483 300 79 165 78 314 -2 476 -72 147
-211 250 -379 280 -91 16 -105 16 -196 -1z m260 -212 c203 -104 263 -358 127
-538 -168 -223 -521 -176 -623 83 -34 85 -33 208 2 282 33 70 79 123 136 157
78 45 112 54 208 50 77 -3 99 -8 150 -34z"/>
<path d="M182 1143 c-19 -4 -22 -9 -18 -31 3 -15 8 -45 12 -67 11 -74 9 -72
82 -77 129 -7 259 -100 303 -217 31 -84 25 -195 -17 -279 l-30 -61 64 -53 64
-52 19 25 c31 41 70 149 82 230 38 262 -142 519 -400 574 -67 14 -115 17 -161
8z"/>
<path d="M2207 1134 c-98 -23 -167 -63 -242 -139 -73 -73 -125 -161 -144 -245
-15 -66 -13 -187 4 -255 15 -56 66 -158 85 -170 5 -3 39 17 74 46 l65 52 -19
27 c-97 136 -59 348 81 450 57 41 140 70 205 71 60 2 55 -6 74 103 8 46 7 62
-2 68 -20 12 -116 8 -181 -8z"/>
<path d="M1215 544 c-112 -17 -241 -87 -314 -170 -38 -44 -97 -142 -89 -149
11 -9 57 -29 103 -45 l52 -18 17 34 c26 55 94 122 155 151 79 38 191 39 272 1
68 -31 131 -87 165 -144 l25 -43 62 23 c94 36 97 38 97 46 0 15 -79 128 -114
163 -57 57 -135 106 -205 127 -65 21 -173 32 -226 24z"/>
</g>
</svg>
