<?xml version="1.0" standalone="no"?>
<!DOCTYPE svg PUBLIC "-//W3C//DTD SVG 20010904//EN"
 "http://www.w3.org/TR/2001/REC-SVG-20010904/DTD/svg10.dtd">
<svg version="1.0" xmlns="http://www.w3.org/2000/svg"
 width="256.000000pt" height="256.000000pt" viewBox="0 0 256.000000 256.000000"
 preserveAspectRatio="xMidYMid meet">

<g transform="translate(0.000000,256.000000) scale(0.100000,-0.100000)"
fill="#000000" stroke="none">
<path d="M561 2008 l0 -383 274 -279 273 -279 46 17 46 18 0 363 0 363 -311
279 c-171 153 -315 280 -320 281 -5 2 -9 -152 -8 -380z"/>
<path d="M1300 1321 l0 -218 45 -18 c55 -20 35 -34 219 149 l140 139 -40 34
c-72 63 -248 133 -333 133 l-31 0 0 -219z"/>
<path d="M560 1187 l0 -287 225 0 c208 0 225 1 225 18 0 9 7 30 16 47 l15 29
-241 240 -240 241 0 -288z"/>
<path d="M1612 1147 l-153 -153 15 -30 c8 -16 17 -37 20 -46 5 -16 25 -18 226
-18 l220 0 0 23 c0 45 -39 175 -71 238 -31 64 -85 139 -97 139 -4 0 -76 -69
-160 -153z"/>
<path d="M1485 764 l-18 -46 157 -157 157 -156 25 30 c60 73 134 261 134 342
l0 33 -219 0 -218 0 -18 -46z"/>
<path d="M560 782 c0 -79 81 -281 140 -352 l29 -35 156 155 c109 108 153 159
149 170 -4 8 -12 30 -18 48 l-11 32 -222 0 c-210 0 -223 -1 -223 -18z"/>
<path d="M950 485 l-155 -156 35 -29 c73 -62 272 -140 354 -140 14 0 16 28 16
223 l0 224 -37 12 c-21 7 -43 14 -48 17 -6 2 -80 -66 -165 -151z"/>
<path d="M1343 622 l-43 -16 0 -224 0 -224 43 7 c110 17 258 79 332 140 l30
25 -155 155 c-85 85 -157 154 -160 154 -3 -1 -24 -9 -47 -17z"/>
</g>
</svg>
