<?xml version="1.0" standalone="no"?>
<!DOCTYPE svg PUBLIC "-//W3C//DTD SVG 20010904//EN"
 "http://www.w3.org/TR/2001/REC-SVG-20010904/DTD/svg10.dtd">
<svg version="1.0" xmlns="http://www.w3.org/2000/svg"
 width="256.000000pt" height="256.000000pt" viewBox="0 0 256.000000 256.000000"
 preserveAspectRatio="xMidYMid meet">

<g transform="translate(0.000000,256.000000) scale(0.100000,-0.100000)"
fill="#000000" stroke="none">
<path d="M320 1280 l0 -1121 743 3 742 3 82 28 c155 52 244 133 317 287 48
102 68 188 69 295 1 176 -43 296 -146 391 -67 63 -149 111 -236 140 -48 15
-52 19 -36 28 94 54 234 158 257 191 41 59 68 178 68 299 0 241 -93 390 -304
492 -178 86 -161 84 -903 84 l-653 0 0 -1120z m1148 616 c38 -20 78 -65 96
-108 34 -80 9 -168 -64 -231 l-44 -37 -258 0 -258 0 0 195 0 195 250 0 c197 0
257 -3 278 -14z m69 -872 c109 -87 109 -241 0 -328 l-39 -31 -279 -3 -279 -3
0 201 0 201 279 -3 279 -3 39 -31z"/>
</g>
</svg>
