<?xml version="1.0" standalone="no"?>
<!DOCTYPE svg PUBLIC "-//W3C//DTD SVG 20010904//EN"
 "http://www.w3.org/TR/2001/REC-SVG-20010904/DTD/svg10.dtd">
<svg version="1.0" xmlns="http://www.w3.org/2000/svg"
 width="256.000000pt" height="256.000000pt" viewBox="0 0 256.000000 256.000000"
 preserveAspectRatio="xMidYMid meet">

<g transform="translate(0.000000,256.000000) scale(0.100000,-0.100000)"
fill="#000000" stroke="none">
<path d="M1160 2475 c-8 -2 -49 -9 -90 -15 -360 -59 -693 -308 -864 -648 -84
-168 -121 -329 -121 -532 0 -157 12 -236 56 -372 97 -300 319 -557 607 -702
85 -43 216 -87 317 -107 91 -18 339 -18 430 0 375 74 689 311 859 649 84 168
121 329 121 532 0 157 -12 236 -56 372 -58 179 -155 335 -293 474 -170 170
-369 278 -608 330 -66 14 -321 28 -358 19z m240 -155 c127 -16 223 -45 345
-105 279 -136 470 -374 557 -693 32 -117 31 -363 -1 -487 -52 -199 -140 -355
-281 -495 -140 -141 -296 -229 -495 -281 -125 -33 -370 -33 -488 -1 -322 88
-562 283 -698 567 -58 122 -85 215 -100 351 -27 237 40 493 180 697 61 88 192
217 280 277 205 138 459 199 701 170z"/>
<path d="M1168 2004 c-334 -60 -602 -301 -699 -629 -30 -101 -37 -295 -15
-404 59 -291 210 -477 470 -581 128 -51 203 -64 371 -64 181 1 248 17 109 27
-186 13 -381 83 -513 182 -119 91 -225 251 -267 405 -25 90 -25 290 0 379 51
184 178 347 346 444 70 40 196 78 284 85 l81 7 3 83 3 82 -48 -1 c-26 0 -82
-7 -125 -15z"/>
<path d="M1238 1800 c-372 -59 -629 -396 -587 -770 24 -216 153 -411 346 -525
141 -82 347 -130 531 -123 87 3 105 7 172 39 72 35 151 90 105 74 -41 -15
-266 -18 -358 -5 -308 42 -535 210 -612 453 -59 186 -17 386 110 526 136 149
337 208 538 156 38 -9 69 -15 70 -14 1 2 17 34 35 72 l32 67 -25 10 c-100 38
-258 55 -357 40z"/>
<path d="M1210 1581 c-83 -27 -131 -55 -193 -111 -110 -101 -159 -210 -161
-360 0 -75 4 -109 22 -162 49 -142 178 -279 336 -357 127 -63 191 -75 406 -75
102 -1 203 3 224 7 29 6 58 26 108 74 37 37 68 69 68 73 0 3 -39 2 -87 -3
-147 -14 -425 -3 -516 22 -120 32 -203 77 -278 151 -72 71 -104 128 -119 211
-29 157 74 322 232 370 131 40 253 6 347 -97 l50 -55 71 36 71 36 -18 30 c-51
88 -176 179 -292 213 -73 21 -201 20 -271 -3z"/>
</g>
</svg>
