<?xml version="1.0" standalone="no"?>
<!DOCTYPE svg PUBLIC "-//W3C//DTD SVG 20010904//EN"
 "http://www.w3.org/TR/2001/REC-SVG-20010904/DTD/svg10.dtd">
<svg version="1.0" xmlns="http://www.w3.org/2000/svg"
 width="256.000000pt" height="256.000000pt" viewBox="0 0 256.000000 256.000000"
 preserveAspectRatio="xMidYMid meet">

<g transform="translate(0.000000,256.000000) scale(0.100000,-0.100000)"
fill="#000000" stroke="none">
<path d="M1109 2340 c-218 -37 -411 -135 -573 -290 -334 -321 -426 -814 -231
-1227 61 -131 133 -229 239 -331 202 -191 455 -292 736 -292 280 0 532 100
735 292 171 161 281 362 326 590 19 93 16 317 -5 413 -92 428 -438 764 -866
841 -80 14 -286 17 -361 4z m266 -100 c416 -47 747 -335 847 -736 31 -126 32
-332 0 -458 -71 -285 -273 -530 -536 -651 -301 -140 -666 -112 -943 72 -151
99 -301 284 -364 447 -186 480 18 1004 478 1235 106 53 259 90 408 100 11 0
61 -4 110 -9z"/>
<path d="M1135 1879 c-162 -40 -331 -143 -430 -265 -257 -316 -243 -766 34
-1043 79 -79 190 -139 315 -171 116 -30 146 -25 60 9 -150 59 -289 170 -369
295 -85 134 -127 320 -106 470 24 172 80 286 201 406 119 120 254 186 418 205
l62 7 0 54 0 54 -52 -1 c-29 0 -89 -9 -133 -20z"/>
<path d="M1245 1700 c-261 -36 -475 -239 -526 -498 -27 -140 3 -313 76 -438
56 -96 185 -213 300 -272 92 -46 286 -92 390 -92 36 0 197 58 216 77 5 5 -54
8 -129 9 -211 1 -363 46 -507 149 -220 157 -299 461 -177 689 41 77 145 177
222 213 114 54 233 67 343 38 32 -8 60 -15 62 -15 5 0 45 89 45 100 0 11 -123
38 -195 44 -33 2 -87 0 -120 -4z"/>
<path d="M1230 1502 c-85 -22 -143 -58 -207 -124 -133 -141 -158 -323 -69
-503 71 -143 211 -248 392 -294 80 -21 240 -32 362 -25 l123 6 51 47 50 46
-229 0 c-208 0 -235 2 -308 23 -108 32 -189 77 -255 142 -126 126 -152 290
-67 430 58 97 182 158 297 147 79 -7 146 -39 206 -98 l51 -50 46 22 c26 13 47
28 47 35 0 30 -104 125 -173 159 -116 56 -203 67 -317 37z"/>
</g>
</svg>
