<?xml version="1.0" standalone="no"?>
<!DOCTYPE svg PUBLIC "-//W3C//DTD SVG 20010904//EN"
 "http://www.w3.org/TR/2001/REC-SVG-20010904/DTD/svg10.dtd">
<svg version="1.0" xmlns="http://www.w3.org/2000/svg"
 width="256.000000pt" height="256.000000pt" viewBox="0 0 256.000000 256.000000"
 preserveAspectRatio="xMidYMid meet">

<g transform="translate(0.000000,256.000000) scale(0.100000,-0.100000)"
fill="#000000" stroke="none">
<path d="M1140 2149 c-496 -39 -756 -174 -850 -442 -24 -69 -44 -191 -36 -222
11 -45 31 -47 235 -21 104 14 199 29 210 35 11 6 32 27 46 46 52 67 134 70
192 5 l34 -37 277 -7 c519 -12 566 -11 605 13 51 31 90 27 135 -14 36 -32 47
-36 207 -64 93 -16 175 -27 182 -24 7 3 13 20 13 39 0 52 -40 245 -60 291 -70
158 -244 287 -471 348 -173 46 -504 71 -719 54z m400 -73 c10 -13 10 -19 0
-31 -16 -19 -37 -18 -79 4 l-33 18 33 20 c35 21 54 18 79 -11z m-343 -3 c3 -7
-15 -26 -38 -43 -40 -28 -43 -29 -61 -14 -21 20 -23 45 -6 62 16 16 100 12
105 -5z m-411 -58 c18 -15 18 -16 -21 -50 -37 -32 -41 -33 -58 -18 -24 22 -18
55 13 70 32 16 42 16 66 -2z m533 4 c38 -13 39 -21 5 -48 -33 -26 -45 -26 -74
-3 l-23 18 28 22 c15 12 29 22 30 22 1 0 16 -5 34 -11z m612 -10 c16 -16 18
-23 8 -35 -27 -32 -109 -2 -109 41 0 24 75 20 101 -6z m-256 -19 c0 -32 -46
-60 -72 -44 -26 16 -22 46 7 61 38 20 65 13 65 -17z m-672 3 c14 -8 7 -29 -16
-51 l-23 -22 -35 30 c-33 29 -34 30 -14 45 18 14 62 13 88 -2z"/>
<path d="M940 1434 c-14 -1 -108 -8 -210 -14 -324 -20 -463 -37 -536 -67 -108
-45 -142 -94 -89 -129 30 -20 68 -13 148 28 l58 29 62 -21 c57 -20 67 -21 140
-9 71 12 83 11 125 -6 104 -42 239 -26 297 35 33 34 46 36 106 14 56 -20 146
-20 194 0 52 22 73 20 117 -10 29 -21 45 -25 70 -20 95 18 105 17 165 -3 81
-27 128 -26 209 4 l66 25 45 -20 c58 -25 109 -25 151 0 43 26 87 25 153 -3 30
-13 85 -34 122 -47 67 -24 69 -24 102 -6 37 20 48 39 40 66 -19 60 -341 115
-870 150 -141 9 -597 12 -665 4z"/>
<path d="M2130 1100 c-102 -10 -266 -26 -365 -36 -247 -26 -905 -26 -1243 0
-179 13 -237 14 -248 5 -31 -26 -9 -118 29 -119 7 0 111 -7 232 -15 238 -15
543 -10 1226 20 404 18 561 39 597 80 12 14 22 32 22 40 0 19 -28 45 -48 44
-9 -1 -100 -9 -202 -19z"/>
<path d="M2280 929 c-131 -32 -476 -67 -756 -78 -237 -9 -270 -16 -321 -68
-43 -44 -106 -83 -133 -83 -37 0 -67 25 -101 85 -17 30 -38 56 -47 59 -9 3
-80 8 -157 11 -77 4 -214 13 -304 20 -198 17 -205 15 -199 -55 14 -141 162
-294 335 -345 150 -44 689 -68 1003 -45 507 37 726 150 772 399 19 101 -1 123
-92 100z"/>
</g>
</svg>
