<?xml version="1.0" standalone="no"?>
<!DOCTYPE svg PUBLIC "-//W3C//DTD SVG 20010904//EN"
 "http://www.w3.org/TR/2001/REC-SVG-20010904/DTD/svg10.dtd">
<svg version="1.0" xmlns="http://www.w3.org/2000/svg"
 width="256.000000pt" height="256.000000pt" viewBox="0 0 256.000000 256.000000"
 preserveAspectRatio="xMidYMid meet">

<g transform="translate(0.000000,256.000000) scale(0.100000,-0.100000)"
fill="#000000" stroke="none">
<path d="M907 2102 c-202 -202 -367 -372 -367 -377 0 -6 65 -75 145 -155 l145
-145 370 370 c204 203 370 374 370 380 0 10 -280 295 -290 295 -3 0 -170 -165
-373 -368z"/>
<path d="M1132 1427 c-325 -326 -592 -597 -592 -602 0 -6 65 -75 145 -155
l145 -145 595 595 c327 327 595 600 595 605 0 10 -280 295 -290 295 -3 0 -272
-267 -598 -593z"/>
<path d="M227 1422 l-147 -147 150 -150 150 -150 145 145 c80 80 144 148 143
152 -5 12 -279 298 -286 298 -4 0 -74 -66 -155 -148z"/>
<path d="M1750 1143 c-233 -236 -500 -506 -594 -601 l-171 -172 148 -147 147
-148 600 600 600 600 -147 147 c-81 82 -150 148 -154 148 -3 0 -196 -192 -429
-427z"/>
</g>
</svg>
