<?xml version="1.0" standalone="no"?>
<!DOCTYPE svg PUBLIC "-//W3C//DTD SVG 20010904//EN"
 "http://www.w3.org/TR/2001/REC-SVG-20010904/DTD/svg10.dtd">
<svg version="1.0" xmlns="http://www.w3.org/2000/svg"
 width="256.000000pt" height="256.000000pt" viewBox="0 0 256.000000 256.000000"
 preserveAspectRatio="xMidYMid meet">

<g transform="translate(0.000000,256.000000) scale(0.100000,-0.100000)"
fill="#000000" stroke="none">
<path d="M1100 2045 l0 -355 155 0 155 0 0 355 0 355 -155 0 -155 0 0 -355z"/>
<path d="M1063 1452 l-903 -2 0 -160 0 -160 925 -2 924 -3 23 -23 c23 -22 23
-26 23 -270 0 -271 -5 -301 -56 -328 -22 -11 -79 -15 -251 -16 -243 -2 -255 0
-308 57 -24 26 -25 32 -28 186 l-3 159 -155 0 -154 0 0 -177 c0 -188 9 -242
50 -323 52 -102 134 -171 248 -209 56 -19 85 -21 320 -21 282 0 327 6 437 60
70 34 110 73 159 154 73 121 75 136 76 428 1 287 -5 332 -63 431 -63 107 -212
205 -332 219 -16 1 -436 2 -932 0z"/>
</g>
</svg>
