<?xml version="1.0" standalone="no"?>
<!DOCTYPE svg PUBLIC "-//W3C//DTD SVG 20010904//EN"
 "http://www.w3.org/TR/2001/REC-SVG-20010904/DTD/svg10.dtd">
<svg version="1.0" xmlns="http://www.w3.org/2000/svg"
 width="256.000000pt" height="256.000000pt" viewBox="0 0 256.000000 256.000000"
 preserveAspectRatio="xMidYMid meet">

<g transform="translate(0.000000,256.000000) scale(0.100000,-0.100000)"
fill="#000000" stroke="none">
<path d="M1722 2323 l-132 -75 2 -156 3 -156 110 -62 c171 -98 142 -96 293
-12 l132 73 0 157 0 156 -135 76 c-74 42 -136 76 -137 75 -2 0 -63 -34 -136
-76z"/>
<path d="M1010 2181 c-135 -76 -251 -144 -258 -150 -9 -9 -12 -77 -10 -294 l3
-282 254 -143 c156 -87 261 -140 270 -137 9 3 125 67 259 142 l242 136 0 117
0 116 -152 86 -153 85 -3 171 -2 171 -101 60 c-55 34 -101 61 -102 60 -1 0
-112 -62 -247 -138z"/>
<path d="M412 1167 l-252 -142 2 -290 3 -289 175 -99 c96 -54 211 -118 255
-142 l80 -44 255 143 255 143 2 289 3 289 -254 143 c-140 78 -258 142 -263
142 -4 -1 -122 -65 -261 -143z"/>
<path d="M1592 1168 l-252 -142 0 -290 0 -291 256 -143 255 -142 257 144 257
144 0 289 0 288 -254 142 c-139 79 -256 143 -260 143 -3 0 -120 -64 -259 -142z"/>
</g>
</svg>
