<?xml version="1.0" standalone="no"?>
<!DOCTYPE svg PUBLIC "-//W3C//DTD SVG 20010904//EN"
 "http://www.w3.org/TR/2001/REC-SVG-20010904/DTD/svg10.dtd">
<svg version="1.0" xmlns="http://www.w3.org/2000/svg"
 width="256.000000pt" height="256.000000pt" viewBox="0 0 256.000000 256.000000"
 preserveAspectRatio="xMidYMid meet">

<g transform="translate(0.000000,256.000000) scale(0.100000,-0.100000)"
fill="#000000" stroke="none">
<path d="M576 2144 c-192 -46 -356 -214 -402 -411 -40 -169 16 -361 142 -487
267 -267 716 -193 883 145 76 155 76 312 -1 469 -38 78 -138 182 -219 228
-114 65 -275 87 -403 56z m258 -233 c63 -27 131 -94 163 -158 35 -73 38 -183
5 -255 -29 -66 -103 -141 -165 -169 -72 -32 -201 -34 -268 -3 -195 90 -252
339 -114 502 31 37 97 78 158 98 55 18 163 11 221 -15z"/>
<path d="M1731 2144 c-218 -58 -358 -262 -336 -488 5 -58 39 -176 50 -176 2 0
26 15 53 34 28 19 72 42 97 52 35 13 44 21 40 33 -24 62 -27 109 -11 165 42
144 209 216 344 147 51 -26 108 -91 122 -139 12 -38 9 -128 -4 -167 -6 -17 2
-25 56 -52 35 -18 78 -42 96 -54 l32 -21 23 48 c19 42 22 66 22 169 0 117 -1
122 -36 196 -98 204 -330 312 -548 253z"/>
<path d="M1720 1494 c-101 -26 -180 -73 -257 -150 -82 -81 -124 -158 -148
-270 -18 -87 -18 -121 0 -209 41 -194 191 -352 390 -411 86 -26 221 -24 310 4
160 49 292 174 355 337 20 51 24 78 24 175 0 101 -3 123 -27 184 -86 219 -289
357 -522 355 -38 0 -95 -7 -125 -15z m277 -237 c66 -34 115 -83 150 -150 23
-44 28 -64 28 -132 0 -68 -4 -89 -28 -137 -31 -63 -85 -115 -156 -150 -66 -33
-206 -33 -272 0 -68 34 -121 83 -154 143 -27 49 -30 63 -30 144 0 102 18 150
84 218 67 72 136 98 246 93 63 -2 91 -8 132 -29z"/>
<path d="M243 834 c15 -189 186 -361 393 -395 194 -32 405 77 492 253 33 68
59 185 44 200 -5 5 -55 7 -112 6 l-104 -3 -8 -38 c-26 -124 -118 -199 -245
-199 -113 -1 -208 75 -237 188 l-12 49 -109 3 -108 3 6 -67z"/>
</g>
</svg>
