<?xml version="1.0" standalone="no"?>
<!DOCTYPE svg PUBLIC "-//W3C//DTD SVG 20010904//EN"
 "http://www.w3.org/TR/2001/REC-SVG-20010904/DTD/svg10.dtd">
<svg version="1.0" xmlns="http://www.w3.org/2000/svg"
 width="256.000000pt" height="256.000000pt" viewBox="0 0 256.000000 256.000000"
 preserveAspectRatio="xMidYMid meet">

<g transform="translate(0.000000,256.000000) scale(0.100000,-0.100000)"
fill="#000000" stroke="none">
<path d="M783 2466 c-179 -56 -259 -250 -207 -504 8 -42 31 -130 50 -196 19
-65 34 -119 32 -121 -2 -1 -33 -18 -70 -39 -195 -107 -328 -259 -394 -451 -25
-71 -28 -94 -28 -215 -1 -155 13 -218 74 -345 121 -252 394 -427 770 -492 132
-23 478 -23 610 0 441 77 717 284 821 617 21 64 24 95 23 215 0 124 -3 149
-27 220 -14 44 -43 109 -64 145 -55 93 -190 224 -297 287 -48 29 -92 53 -97
55 -5 2 6 55 25 118 54 186 69 272 64 381 -7 151 -64 251 -174 305 -152 74
-331 19 -418 -130 -56 -96 -106 -314 -106 -465 l0 -62 -52 3 -53 3 -2 50 c-9
178 -49 364 -101 458 -37 70 -121 143 -184 162 -62 18 -138 18 -195 1z m180
-90 c18 -7 51 -34 74 -60 72 -82 109 -221 122 -454 6 -106 12 -146 22 -153 8
-5 69 -9 136 -9 92 0 125 3 136 14 10 10 16 54 20 153 13 262 60 406 160 487
77 62 220 43 281 -37 80 -105 72 -275 -27 -581 -26 -77 -33 -114 -27 -127 5
-9 39 -31 74 -47 200 -94 350 -249 407 -423 31 -96 34 -279 5 -374 -55 -184
-194 -343 -384 -439 -195 -98 -497 -147 -781 -126 -331 25 -551 111 -722 280
-70 70 -94 101 -127 170 -169 352 -30 714 345 901 45 22 87 47 93 54 9 10 4
37 -20 111 -66 207 -84 293 -84 404 0 90 3 112 23 153 24 48 65 87 111 106 37
14 126 13 163 -3z"/>
<path d="M840 1202 c-67 -67 -67 -227 0 -294 51 -50 137 -34 171 34 43 84 32
203 -23 258 -42 42 -107 43 -148 2z"/>
<path d="M1655 1208 c-38 -30 -55 -76 -55 -153 0 -111 44 -175 120 -175 76 0
120 64 120 175 0 111 -44 175 -120 175 -23 0 -48 -8 -65 -22z"/>
</g>
</svg>
