<?xml version="1.0" standalone="no"?>
<!DOCTYPE svg PUBLIC "-//W3C//DTD SVG 20010904//EN"
 "http://www.w3.org/TR/2001/REC-SVG-20010904/DTD/svg10.dtd">
<svg version="1.0" xmlns="http://www.w3.org/2000/svg"
 width="256.000000pt" height="256.000000pt" viewBox="0 0 256.000000 256.000000"
 preserveAspectRatio="xMidYMid meet">

<g transform="translate(0.000000,256.000000) scale(0.100000,-0.100000)"
fill="#000000" stroke="none">
<path d="M1126 2389 c-354 -52 -674 -284 -834 -604 -81 -163 -108 -280 -123
-538 -11 -205 -8 -1051 4 -1063 5 -5 50 -8 100 -8 136 1 191 25 289 125 l77
79 44 -30 c70 -47 204 -107 300 -134 260 -75 534 -51 782 68 706 339 853 1274
284 1811 -245 232 -592 342 -923 294z m299 -484 c100 -25 200 -81 275 -152 86
-80 133 -150 173 -256 28 -75 31 -92 31 -207 1 -102 -3 -138 -21 -195 -62
-196 -221 -358 -416 -421 -69 -23 -100 -27 -197 -27 -99 -1 -127 3 -197 27
-372 122 -548 542 -376 895 52 107 178 233 283 284 41 20 100 43 130 51 74 20
240 20 315 1z"/>
<path d="M1142 1671 c-281 -104 -351 -452 -132 -654 159 -148 395 -137 545 25
74 80 99 147 100 264 0 84 -2 95 -38 166 -43 88 -99 143 -186 185 -76 36 -210
43 -289 14z"/>
</g>
</svg>
