<?xml version="1.0" standalone="no"?>
<!DOCTYPE svg PUBLIC "-//W3C//DTD SVG 20010904//EN"
 "http://www.w3.org/TR/2001/REC-SVG-20010904/DTD/svg10.dtd">
<svg version="1.0" xmlns="http://www.w3.org/2000/svg"
 width="256.000000pt" height="256.000000pt" viewBox="0 0 256.000000 256.000000"
 preserveAspectRatio="xMidYMid meet">

<g transform="translate(0.000000,256.000000) scale(0.100000,-0.100000)"
fill="#000000" stroke="none">
<path d="M905 1736 c-68 -32 -154 -125 -200 -217 -62 -124 -155 -290 -202
-361 -61 -93 -90 -91 -114 7 -24 101 -70 145 -151 145 -96 0 -152 -74 -153
-200 0 -65 4 -84 33 -142 42 -86 139 -179 213 -203 119 -40 278 10 375 118 57
64 138 186 206 313 l53 99 6 -105 c4 -58 12 -118 18 -133 36 -92 128 -169 218
-183 108 -16 227 111 242 259 3 32 11 59 16 60 6 1 21 -19 35 -45 53 -97 101
-128 199 -128 85 0 102 15 260 226 136 181 187 213 346 221 113 6 139 15 160
60 23 47 17 143 -11 174 -42 46 -71 53 -214 54 l-135 0 -75 -36 c-93 -46 -153
-89 -241 -174 -63 -61 -89 -73 -89 -42 0 28 -62 140 -100 181 -49 53 -91 68
-152 55 -50 -12 -98 -41 -150 -94 l-37 -38 -53 48 c-65 59 -159 105 -213 105
-22 0 -62 -11 -90 -24z"/>
</g>
</svg>
