<?xml version="1.0" standalone="no"?>
<!DOCTYPE svg PUBLIC "-//W3C//DTD SVG 20010904//EN"
 "http://www.w3.org/TR/2001/REC-SVG-20010904/DTD/svg10.dtd">
<svg version="1.0" xmlns="http://www.w3.org/2000/svg"
 width="256.000000pt" height="256.000000pt" viewBox="0 0 256.000000 256.000000"
 preserveAspectRatio="xMidYMid meet">

<g transform="translate(0.000000,256.000000) scale(0.100000,-0.100000)"
fill="#000000" stroke="none">
<path d="M573 1847 c-409 -408 -513 -517 -513 -538 0 -38 319 -1051 337 -1071
15 -17 58 -18 632 -18 l616 0 422 423 c406 406 423 424 423 460 0 24 -7 44
-20 57 -19 19 -33 20 -497 20 l-478 0 -410 -316 c-226 -174 -423 -325 -440
-337 -37 -26 -115 -120 758 906 755 886 727 848 672 902 l-24 25 -483 0 -483
0 -512 -513z"/>
<path d="M1866 304 c-19 -18 -21 -55 -4 -72 7 -7 31 -12 54 -12 65 0 91 51 46
88 -22 17 -77 15 -96 -4z"/>
</g>
</svg>
