<?xml version="1.0" standalone="no"?>
<!DOCTYPE svg PUBLIC "-//W3C//DTD SVG 20010904//EN"
 "http://www.w3.org/TR/2001/REC-SVG-20010904/DTD/svg10.dtd">
<svg version="1.0" xmlns="http://www.w3.org/2000/svg"
 width="256.000000pt" height="256.000000pt" viewBox="0 0 256.000000 256.000000"
 preserveAspectRatio="xMidYMid meet">

<g transform="translate(0.000000,256.000000) scale(0.100000,-0.100000)"
fill="#000000" stroke="none">
<path d="M1059 2385 c-419 -79 -753 -388 -865 -800 -24 -90 -27 -117 -27 -265
-1 -181 10 -246 62 -389 55 -150 137 -276 257 -395 355 -351 904 -415 1333
-154 115 70 251 197 251 234 0 18 -159 124 -187 124 -12 0 -45 -21 -75 -46
-177 -151 -375 -222 -593 -210 -277 15 -513 155 -660 391 -276 442 -64 1037
427 1206 228 78 471 54 680 -66 43 -25 86 -45 97 -45 11 0 54 30 95 66 96 84
100 106 29 159 -81 60 -260 144 -368 171 -126 33 -338 41 -456 19z"/>
<path d="M2064 1950 c-55 -17 -127 -73 -157 -122 -35 -56 -46 -145 -27 -213
16 -57 89 -141 145 -166 89 -41 219 -17 293 54 57 54 77 102 77 187 0 85 -20
134 -77 190 -61 61 -178 93 -254 70z"/>
</g>
</svg>
