<?xml version="1.0" standalone="no"?>
<!DOCTYPE svg PUBLIC "-//W3C//DTD SVG 20010904//EN"
 "http://www.w3.org/TR/2001/REC-SVG-20010904/DTD/svg10.dtd">
<svg version="1.0" xmlns="http://www.w3.org/2000/svg"
 width="256.000000pt" height="256.000000pt" viewBox="0 0 256.000000 256.000000"
 preserveAspectRatio="xMidYMid meet">

<g transform="translate(0.000000,256.000000) scale(0.100000,-0.100000)"
fill="#000000" stroke="none">
<path d="M1388 2464 c-286 -51 -532 -236 -663 -497 l-44 -88 -88 -44 c-566
-284 -687 -1033 -239 -1481 260 -259 630 -341 975 -215 217 79 401 244 506
454 l44 88 88 44 c566 284 687 1033 239 1481 -218 218 -518 313 -818 258z
m319 -275 c131 -32 280 -128 359 -232 52 -68 105 -177 122 -247 44 -184 6
-382 -101 -532 -46 -65 -129 -148 -147 -148 -5 0 -10 20 -10 45 0 114 -54 284
-132 416 -47 79 -186 228 -258 276 -146 97 -333 163 -465 163 -25 0 -45 5 -45
10 0 18 83 101 147 147 149 106 351 145 530 102z m-480 -567 c107 -39 177 -87
261 -177 116 -125 175 -281 170 -451 l-3 -89 -83 -3 c-184 -6 -350 59 -481
189 -119 120 -180 259 -188 431 -3 58 -3 114 1 124 6 15 19 16 124 12 97 -5
131 -11 199 -36z m-597 -137 c0 -114 54 -284 132 -416 56 -95 201 -241 298
-301 130 -80 308 -138 425 -138 25 0 45 -5 45 -10 0 -18 -83 -101 -148 -147
-329 -235 -797 -108 -967 262 -56 122 -74 236 -55 360 15 104 56 208 113 287
46 65 129 148 147 148 5 0 10 -20 10 -45z"/>
</g>
</svg>
