<?xml version="1.0" standalone="no"?>
<!DOCTYPE svg PUBLIC "-//W3C//DTD SVG 20010904//EN"
 "http://www.w3.org/TR/2001/REC-SVG-20010904/DTD/svg10.dtd">
<svg version="1.0" xmlns="http://www.w3.org/2000/svg"
 width="256.000000pt" height="256.000000pt" viewBox="0 0 256.000000 256.000000"
 preserveAspectRatio="xMidYMid meet">

<g transform="translate(0.000000,256.000000) scale(0.100000,-0.100000)"
fill="#000000" stroke="none">
<path d="M1199 2466 c-588 -105 -946 -462 -1025 -1025 -54 -389 61 -737 338
-1019 155 -158 345 -258 593 -311 271 -59 542 -30 785 85 160 76 470 299 470
338 0 8 -67 77 -150 156 l-150 142 -80 -73 c-156 -142 -288 -218 -413 -239
-103 -18 -330 -8 -432 19 -139 36 -219 82 -315 181 -98 100 -141 167 -181 282
-113 329 -15 693 239 893 142 112 295 165 477 165 237 0 465 -93 642 -263 44
-42 66 -56 76 -50 25 14 287 269 287 279 0 15 -96 105 -178 167 -151 116 -341
207 -524 253 -128 31 -341 41 -459 20z"/>
</g>
</svg>
