<?xml version="1.0" standalone="no"?>
<!DOCTYPE svg PUBLIC "-//W3C//DTD SVG 20010904//EN"
 "http://www.w3.org/TR/2001/REC-SVG-20010904/DTD/svg10.dtd">
<svg version="1.0" xmlns="http://www.w3.org/2000/svg"
 width="256.000000pt" height="256.000000pt" viewBox="0 0 256.000000 256.000000"
 preserveAspectRatio="xMidYMid meet">

<g transform="translate(0.000000,256.000000) scale(0.100000,-0.100000)"
fill="#000000" stroke="none">
<path d="M2275 2150 c-60 -4 -125 -8 -142 -9 l-33 -1 0 -85 0 -85 100 0 c55 0
100 -2 100 -5 0 -3 -45 -115 -100 -250 l-100 -244 0 -95 c0 -93 1 -96 23 -96
12 0 85 -7 162 -15 77 -8 152 -15 168 -15 l27 0 0 95 0 95 -100 0 c-55 0 -100
2 -100 3 0 2 45 124 100 271 99 265 100 267 100 356 l0 90 -47 -2 c-27 -1 -97
-5 -158 -8z"/>
<path d="M1995 2135 c-5 -2 -31 -6 -57 -10 l-48 -6 -2 -227 -3 -227 -69 225
c-37 124 -69 226 -70 227 -2 2 -41 -2 -89 -8 l-87 -12 0 -389 0 -389 63 3 62
3 3 188 c1 103 6 187 10 187 4 0 34 -90 66 -199 l59 -200 66 -6 c36 -3 81 -8
99 -11 l32 -5 0 431 c0 439 0 437 -35 425z"/>
<path d="M1465 2095 c-5 -2 -36 -6 -67 -10 l-58 -6 -2 -202 -3 -202 -64 197
-64 197 -51 -5 c-28 -3 -70 -7 -93 -10 l-43 -5 0 -335 c0 -259 3 -336 13 -339
6 -2 36 -5 64 -8 l53 -4 2 176 3 176 64 -175 c35 -96 70 -180 78 -186 7 -6 46
-14 86 -18 39 -4 80 -9 90 -12 16 -5 17 18 17 385 0 215 -3 391 -7 390 -5 0
-12 -2 -18 -4z"/>
<path d="M735 2035 c-77 -7 -143 -14 -147 -14 -5 -1 -8 -138 -8 -305 l0 -303
98 -7 c53 -3 134 -9 180 -13 l82 -6 0 66 0 66 -97 3 -98 3 -3 57 -3 57 78 3
78 3 0 65 0 65 -75 1 -75 1 -3 53 c-2 29 1 57 5 61 5 5 52 14 106 20 l97 12 0
64 0 63 -37 -1 c-21 -1 -101 -7 -178 -14z"/>
<path d="M290 1998 c-127 -11 -153 -19 -184 -61 -19 -26 -21 -44 -24 -214 -2
-103 -1 -197 3 -210 3 -13 24 -37 47 -53 41 -30 42 -30 177 -30 180 1 201 16
201 149 l0 71 -74 0 -75 0 -3 -47 -3 -48 -47 -3 -48 -3 0 166 0 166 48 -3 47
-3 0 -38 0 -37 78 0 77 0 0 59 c0 33 -4 71 -10 85 -14 37 -47 66 -72 65 -13
-1 -75 -6 -138 -11z"/>
<path d="M1090 880 l0 -420 70 0 70 0 2 203 3 202 65 -192 64 -192 61 5 c33 3
79 7 103 10 l42 5 0 373 0 373 -67 11 c-37 6 -69 10 -70 8 -2 -2 -7 -103 -10
-225 -3 -122 -9 -218 -13 -214 -4 4 -35 108 -70 230 l-63 223 -31 4 c-17 3
-59 8 -93 11 l-63 6 0 -421z"/>
<path d="M1640 875 c0 -350 1 -375 18 -375 9 0 89 7 177 15 88 8 163 15 168
15 4 0 7 29 7 65 l0 65 -105 0 -106 0 3 68 c3 67 3 67 33 70 17 1 49 5 73 8
l42 5 0 65 0 64 -75 0 -75 0 0 75 0 75 105 0 105 0 0 64 0 64 -42 5 c-24 4
-92 9 -153 12 -60 3 -125 8 -142 11 l-33 5 0 -376z"/>
<path d="M2079 1203 c0 -2 0 -31 -1 -65 0 -46 3 -64 13 -65 8 -1 35 -5 62 -8
l47 -6 0 -255 0 -254 23 0 c12 0 46 3 74 6 l53 7 2 241 3 241 63 3 62 3 0 59
c0 50 -3 60 -17 61 -10 0 -100 8 -200 18 -101 9 -183 15 -184 14z"/>
</g>
</svg>
