<?xml version="1.0" standalone="no"?>
<!DOCTYPE svg PUBLIC "-//W3C//DTD SVG 20010904//EN"
 "http://www.w3.org/TR/2001/REC-SVG-20010904/DTD/svg10.dtd">
<svg version="1.0" xmlns="http://www.w3.org/2000/svg"
 width="256.000000pt" height="256.000000pt" viewBox="0 0 256.000000 256.000000"
 preserveAspectRatio="xMidYMid meet">

<g transform="translate(0.000000,256.000000) scale(0.100000,-0.100000)"
fill="#000000" stroke="none">
<path d="M750 2074 c-14 -3 -58 -14 -98 -25 -257 -68 -467 -280 -544 -546 -30
-101 -32 -303 -4 -402 70 -256 265 -464 509 -546 161 -53 327 -55 489 -5 114
35 115 27 -21 184 l-119 139 -85 -2 c-390 -10 -591 452 -316 728 197 196 518
158 669 -79 33 -53 60 -138 60 -192 l0 -38 180 0 180 0 0 23 c-1 53 -22 165
-46 236 -80 240 -291 438 -539 506 -59 16 -266 28 -315 19z"/>
<path d="M1590 2074 c-107 -19 -233 -61 -228 -76 2 -5 55 -69 118 -143 l115
-135 56 5 c223 22 430 -139 469 -364 29 -163 -52 -336 -200 -431 -112 -71
-279 -80 -402 -23 -134 63 -233 196 -245 332 l-6 61 -180 0 -179 0 6 -67 c25
-249 156 -463 363 -596 299 -192 690 -157 949 86 114 106 190 231 230 378 28
99 26 301 -4 402 -76 266 -282 472 -544 548 -71 20 -259 34 -318 23z"/>
</g>
</svg>
