<?xml version="1.0" standalone="no"?>
<!DOCTYPE svg PUBLIC "-//W3C//DTD SVG 20010904//EN"
 "http://www.w3.org/TR/2001/REC-SVG-20010904/DTD/svg10.dtd">
<svg version="1.0" xmlns="http://www.w3.org/2000/svg"
 width="256.000000pt" height="256.000000pt" viewBox="0 0 256.000000 256.000000"
 preserveAspectRatio="xMidYMid meet">

<g transform="translate(0.000000,256.000000) scale(0.100000,-0.100000)"
fill="#000000" stroke="none">
<path d="M1235 2465 c-200 -33 -392 -108 -564 -222 -105 -70 -276 -240 -349
-345 -102 -150 -179 -332 -219 -518 -13 -64 -18 -128 -17 -260 0 -152 4 -189
26 -285 26 -110 84 -275 96 -275 4 0 40 14 80 32 56 25 71 35 66 47 -74 171
-109 358 -100 541 8 179 43 313 123 475 62 124 121 204 227 310 216 215 477
329 786 341 219 10 407 -32 599 -131 106 -55 241 -156 310 -230 l51 -56 64 52
64 53 -19 28 c-33 45 -159 156 -252 219 -146 101 -313 172 -492 211 -122 26
-359 32 -480 13z"/>
<path d="M1295 2090 c-367 -57 -677 -322 -788 -675 -150 -479 96 -999 563
-1188 90 -36 161 -55 260 -67 46 -5 90 -10 97 -10 10 0 13 22 13 84 l0 83 -92
12 c-331 42 -589 260 -684 576 -34 115 -39 298 -10 410 74 286 288 506 573
587 103 30 313 32 413 4 136 -37 252 -103 360 -202 53 -50 62 -55 78 -43 70
56 102 85 102 95 0 19 -127 131 -209 185 -87 57 -191 102 -299 130 -89 23
-285 33 -377 19z"/>
<path d="M1343 1690 c-220 -40 -401 -205 -458 -420 -22 -82 -19 -224 6 -306
55 -180 195 -324 371 -379 94 -30 230 -34 322 -10 71 19 176 73 230 119 l39
33 -59 75 -58 74 -63 -48 c-82 -61 -148 -81 -256 -76 -62 3 -96 10 -139 30
-74 34 -152 112 -186 186 -24 50 -27 69 -27 157 0 93 2 105 33 167 75 152 245
240 405 208 72 -14 163 -59 202 -100 l28 -29 66 56 c36 31 67 61 69 68 4 16
-79 89 -143 126 -104 61 -265 89 -382 69z"/>
</g>
</svg>
