<?xml version="1.0" standalone="no"?>
<!DOCTYPE svg PUBLIC "-//W3C//DTD SVG 20010904//EN"
 "http://www.w3.org/TR/2001/REC-SVG-20010904/DTD/svg10.dtd">
<svg version="1.0" xmlns="http://www.w3.org/2000/svg"
 width="256.000000pt" height="256.000000pt" viewBox="0 0 256.000000 256.000000"
 preserveAspectRatio="xMidYMid meet">

<g transform="translate(0.000000,256.000000) scale(0.100000,-0.100000)"
fill="#000000" stroke="none">
<path d="M787 1932 l-467 -467 0 -228 c0 -125 3 -227 8 -227 4 0 214 207 467
460 l460 460 460 -460 c253 -253 463 -460 468 -460 4 0 7 102 7 228 l0 227
-468 468 -467 467 -468 -468z"/>
<path d="M905 1210 l-350 -350 350 -350 350 -350 350 350 350 350 -118 117
-117 118 -235 -235 -235 -235 -110 110 c-60 60 -110 114 -110 120 0 6 101 111
225 235 124 124 225 229 225 235 0 6 -51 61 -113 123 l-112 112 -350 -350z"/>
</g>
</svg>
