<?xml version="1.0" standalone="no"?>
<!DOCTYPE svg PUBLIC "-//W3C//DTD SVG 20010904//EN"
 "http://www.w3.org/TR/2001/REC-SVG-20010904/DTD/svg10.dtd">
<svg version="1.0" xmlns="http://www.w3.org/2000/svg"
 width="256.000000pt" height="256.000000pt" viewBox="0 0 256.000000 256.000000"
 preserveAspectRatio="xMidYMid meet">

<g transform="translate(0.000000,256.000000) scale(0.100000,-0.100000)"
fill="#000000" stroke="none">
<path d="M1092 2384 c-467 -78 -840 -455 -917 -925 -98 -609 317 -1185 926
-1284 480 -77 958 165 1175 597 165 329 165 687 0 1017 -218 432 -702 676
-1184 595z m61 -541 c4 -2 7 -20 7 -39 l0 -34 134 0 135 0 3 38 3 37 67 7 c37
5 91 4 120 0 52 -7 53 -8 56 -44 l3 -37 76 -3 76 -3 123 -340 c68 -187 123
-352 123 -366 1 -37 -51 -135 -106 -200 -53 -62 -141 -139 -159 -139 -7 0 -72
65 -145 145 l-133 145 -248 0 -247 0 -127 -142 c-70 -79 -131 -144 -136 -146
-34 -14 -211 166 -259 264 l-32 65 22 62 c12 34 70 195 129 357 l107 295 82 3
82 3 3 37 c3 36 4 37 53 43 49 6 172 1 188 -8z"/>
<path d="M995 1551 c-111 -50 -150 -187 -82 -290 68 -102 229 -108 310 -11
131 155 -44 385 -228 301z m197 -58 c38 -34 8 -113 -42 -113 -12 0 -32 11 -46
26 -20 19 -24 31 -19 52 12 50 69 69 107 35z"/>
<path d="M1430 1554 c-145 -63 -163 -255 -32 -345 30 -20 48 -24 108 -24 65 0
76 3 111 31 76 60 102 157 64 239 -44 96 -156 140 -251 99z m192 -61 c38 -34
8 -113 -42 -113 -12 0 -32 11 -46 26 -20 19 -24 31 -19 52 12 50 69 69 107 35z"/>
</g>
</svg>
