<?xml version="1.0" standalone="no"?>
<!DOCTYPE svg PUBLIC "-//W3C//DTD SVG 20010904//EN"
 "http://www.w3.org/TR/2001/REC-SVG-20010904/DTD/svg10.dtd">
<svg version="1.0" xmlns="http://www.w3.org/2000/svg"
 width="256.000000pt" height="256.000000pt" viewBox="0 0 256.000000 256.000000"
 preserveAspectRatio="xMidYMid meet">

<g transform="translate(0.000000,256.000000) scale(0.100000,-0.100000)"
fill="#000000" stroke="none">
<path d="M1035 2309 c-465 -72 -791 -358 -860 -755 -46 -265 25 -550 194 -774
50 -66 182 -199 235 -236 l28 -20 -31 -117 c-17 -64 -31 -127 -31 -141 0 -37
33 -66 74 -66 28 0 56 18 167 109 l134 108 210 5 c209 5 210 5 241 -19 131
-99 456 -134 646 -70 42 15 100 40 127 58 101 62 192 193 221 318 28 118 -8
263 -85 349 -42 46 -43 50 -34 88 123 525 -232 1021 -823 1150 -86 19 -328 27
-413 13z m328 -154 c321 -48 586 -232 711 -494 53 -111 70 -201 63 -340 -9
-200 -69 -333 -212 -476 -134 -134 -267 -203 -472 -244 -83 -17 -139 -21 -311
-21 -121 0 -222 -4 -238 -10 -15 -6 -49 -29 -75 -51 -52 -43 -54 -43 -40 9 15
50 0 76 -71 123 -35 23 -95 74 -134 113 -293 294 -356 725 -150 1034 179 270
553 414 929 357z m873 -1283 c54 -186 -92 -374 -319 -413 -74 -12 -226 -7
-282 10 -27 8 -28 9 -10 16 163 63 236 103 340 185 75 60 184 186 213 247 20
42 37 30 58 -45z"/>
<path d="M696 1449 c-75 -59 -64 -170 22 -206 113 -47 215 97 134 188 -39 43
-113 52 -156 18z"/>
<path d="M1168 1452 c-31 -18 -58 -67 -58 -104 0 -37 37 -88 77 -105 99 -41
199 69 149 165 -30 58 -112 80 -168 44z"/>
<path d="M1638 1454 c-60 -32 -76 -121 -32 -173 76 -90 209 -41 209 77 0 38
-5 48 -37 78 -42 38 -92 45 -140 18z"/>
</g>
</svg>
