<?xml version="1.0" standalone="no"?>
<!DOCTYPE svg PUBLIC "-//W3C//DTD SVG 20010904//EN"
 "http://www.w3.org/TR/2001/REC-SVG-20010904/DTD/svg10.dtd">
<svg version="1.0" xmlns="http://www.w3.org/2000/svg"
 width="256.000000pt" height="256.000000pt" viewBox="0 0 256.000000 256.000000"
 preserveAspectRatio="xMidYMid meet">

<g transform="translate(0.000000,256.000000) scale(0.100000,-0.100000)"
fill="#000000" stroke="none">
<path d="M1185 2384 c-46 -14 -89 -55 -513 -477 -314 -314 -469 -476 -483
-504 -30 -61 -35 -138 -14 -209 16 -58 21 -63 478 -522 314 -314 476 -469 504
-483 61 -30 138 -35 209 -14 58 16 63 21 522 478 314 314 469 476 483 504 30
61 35 138 14 209 -16 58 -21 63 -478 522 -321 321 -475 469 -505 483 -57 28
-152 33 -217 13z m148 -138 c18 -8 131 -114 252 -235 l220 -222 -255 -249
c-140 -137 -260 -249 -265 -250 -6 0 -125 115 -265 255 l-255 255 215 216
c118 119 229 222 245 230 39 17 68 17 108 0z m457 -1481 c0 -6 -100 -110 -222
-232 -240 -239 -255 -249 -330 -224 -22 7 -105 83 -253 231 l-220 220 260 260
260 260 252 -252 c139 -139 253 -258 253 -263z"/>
</g>
</svg>
