<?xml version="1.0" standalone="no"?>
<!DOCTYPE svg PUBLIC "-//W3C//DTD SVG 20010904//EN"
 "http://www.w3.org/TR/2001/REC-SVG-20010904/DTD/svg10.dtd">
<svg version="1.0" xmlns="http://www.w3.org/2000/svg"
 width="256.000000pt" height="256.000000pt" viewBox="0 0 256.000000 256.000000"
 preserveAspectRatio="xMidYMid meet">

<g transform="translate(0.000000,256.000000) scale(0.100000,-0.100000)"
fill="#000000" stroke="none">
<path d="M1601 2384 c-169 -45 -311 -205 -327 -370 l-7 -61 -67 -7 c-86 -8
-223 -47 -303 -87 -230 -116 -400 -326 -469 -581 -30 -110 -32 -327 -4 -432
94 -355 368 -611 718 -672 336 -59 688 89 880 370 44 64 110 200 126 259 l10
37 -233 0 -234 0 -30 -43 c-95 -138 -275 -216 -438 -189 -191 32 -339 180
-374 373 -24 137 19 276 119 381 93 97 193 142 322 141 145 0 268 -60 360
-177 l52 -66 222 0 c123 0 225 3 229 6 16 17 -75 230 -129 302 l-26 33 47 50
c25 27 61 80 78 117 30 63 32 73 32 182 0 109 -2 119 -32 183 -38 80 -122 173
-191 210 -101 55 -224 70 -331 41z"/>
</g>
</svg>
