<?xml version="1.0" standalone="no"?>
<!DOCTYPE svg PUBLIC "-//W3C//DTD SVG 20010904//EN"
 "http://www.w3.org/TR/2001/REC-SVG-20010904/DTD/svg10.dtd">
<svg version="1.0" xmlns="http://www.w3.org/2000/svg"
 width="256.000000pt" height="256.000000pt" viewBox="0 0 256.000000 256.000000"
 preserveAspectRatio="xMidYMid meet">

<g transform="translate(0.000000,256.000000) scale(0.100000,-0.100000)"
fill="#000000" stroke="none">
<path d="M678 2302 l-308 -176 0 -163 0 -162 -145 -82 -145 -81 0 -357 0 -357
145 -83 145 -82 0 -163 0 -162 312 -177 311 -177 99 55 98 56 0 477 0 477 -50
28 c-28 15 -52 27 -55 27 -3 0 -6 -161 -7 -358 l-3 -358 -217 123 -217 123
-31 -18 c-25 -14 -30 -23 -28 -46 3 -27 22 -40 251 -170 l247 -140 0 -52 c0
-50 -1 -52 -44 -74 l-44 -24 -178 101 c-99 56 -214 121 -256 145 l-78 43 0
135 0 135 118 66 c110 62 122 67 165 62 57 -7 92 13 113 64 42 100 -81 188
-164 118 -17 -14 -33 -38 -37 -53 -5 -22 -28 -40 -126 -95 -67 -37 -126 -67
-132 -65 -7 2 -60 30 -120 63 l-107 60 0 295 0 295 110 63 c60 34 114 62 120
62 6 0 222 -120 480 -267 l470 -266 0 -488 0 -487 92 -53 c50 -29 97 -52 103
-52 7 0 151 78 319 173 l306 174 0 163 0 162 145 82 145 81 0 357 0 357 -145
83 -145 82 0 163 0 162 -312 177 -311 177 -99 -56 -98 -55 2 -476 3 -477 45
-27 c25 -15 48 -28 52 -28 4 -1 9 160 10 357 l3 358 217 -123 217 -123 31 18
c25 14 30 23 28 46 -3 27 -22 40 -250 170 l-248 140 0 52 c0 50 1 52 44 74
l44 24 256 -145 256 -144 0 -135 0 -135 -118 -66 c-110 -62 -122 -67 -165 -62
-57 7 -92 -13 -113 -64 -42 -100 81 -188 164 -118 17 14 33 38 37 53 5 22 28
40 126 95 67 37 126 67 132 65 7 -2 60 -30 120 -63 l107 -60 0 -295 0 -295
-110 -63 c-60 -34 -114 -62 -120 -62 -6 0 -222 120 -480 267 l-470 266 0 488
0 488 -98 55 c-54 31 -100 56 -103 55 -2 -1 -142 -80 -311 -177z m363 26 c37
-21 39 -24 39 -73 l0 -51 -294 -167 c-162 -92 -298 -167 -303 -167 -4 0 -7 44
-5 97 l3 98 252 142 c139 79 256 143 261 143 4 0 26 -10 47 -22z m36 -865 c-5
-5 -537 298 -537 306 0 3 121 74 268 156 l267 151 3 -305 c1 -167 1 -306 -1
-308z m681 -517 c144 -81 262 -151 262 -155 0 -3 -67 -43 -148 -88 -81 -46
-202 -114 -269 -152 l-123 -70 0 310 c0 171 4 309 8 307 5 -1 126 -70 270
-152z m324 -353 l-3 -98 -256 -144 -255 -145 -44 24 c-43 22 -44 24 -44 74 l0
52 293 167 c160 91 297 166 302 167 6 0 9 -37 7 -97z"/>
</g>
</svg>
