<?xml version="1.0" standalone="no"?>
<!DOCTYPE svg PUBLIC "-//W3C//DTD SVG 20010904//EN"
 "http://www.w3.org/TR/2001/REC-SVG-20010904/DTD/svg10.dtd">
<svg version="1.0" xmlns="http://www.w3.org/2000/svg"
 width="256.000000pt" height="256.000000pt" viewBox="0 0 256.000000 256.000000"
 preserveAspectRatio="xMidYMid meet">

<g transform="translate(0.000000,256.000000) scale(0.100000,-0.100000)"
fill="#000000" stroke="none">
<path d="M2144 2461 c-17 -10 -41 -33 -53 -50 l-22 -31 -801 0 -800 0 -39 39
c-79 82 -194 59 -249 -50 -25 -48 -25 -80 -1 -128 23 -45 54 -67 113 -80 23
-6 44 -14 46 -19 1 -5 37 -79 78 -163 42 -85 119 -246 171 -358 78 -170 94
-210 88 -235 -4 -17 -9 -56 -12 -86 -4 -46 -1 -61 19 -90 13 -19 41 -43 63
-53 22 -10 51 -23 65 -30 18 -9 63 -92 188 -352 221 -458 209 -429 193 -468
-26 -60 -25 -118 1 -157 64 -95 187 -90 256 10 28 42 29 99 1 154 l-20 41 79
190 c43 105 118 281 167 392 87 201 89 203 132 224 23 11 53 35 65 52 20 28
23 42 21 124 l-3 92 64 153 c35 84 101 241 146 348 45 107 87 205 95 216 7 12
28 24 45 28 42 8 87 41 105 76 66 127 -83 283 -201 211z m-129 -210 c7 -12
-94 -91 -433 -336 -200 -143 -280 -196 -295 -193 -22 4 -751 510 -762 528 -4
7 260 10 739 10 450 0 747 -4 751 -9z m-1170 -365 l345 -240 -28 -29 c-15 -16
-80 -67 -144 -113 -122 -88 -148 -97 -203 -72 -31 14 -36 23 -193 358 -143
305 -158 343 -137 338 8 -2 171 -111 360 -242z m1199 202 c-9 -29 -257 -609
-267 -625 -5 -8 -28 -13 -55 -13 -41 0 -61 8 -138 58 -145 93 -194 127 -194
134 0 4 32 31 72 60 155 114 573 407 581 407 5 1 5 -9 1 -21z m-613 -609 c74
-50 141 -97 149 -105 10 -10 15 -35 15 -74 1 -46 6 -67 24 -91 20 -27 22 -37
14 -58 -52 -129 -315 -727 -322 -734 -6 -6 -12 -9 -14 -6 -3 2 -56 112 -120
244 -286 596 -264 539 -238 610 6 17 13 42 16 57 4 21 40 52 157 137 83 61
159 111 168 111 9 0 77 -41 151 -91z"/>
</g>
</svg>
