<?xml version="1.0" standalone="no"?>
<!DOCTYPE svg PUBLIC "-//W3C//DTD SVG 20010904//EN"
 "http://www.w3.org/TR/2001/REC-SVG-20010904/DTD/svg10.dtd">
<svg version="1.0" xmlns="http://www.w3.org/2000/svg"
 width="256.000000pt" height="256.000000pt" viewBox="0 0 256.000000 256.000000"
 preserveAspectRatio="xMidYMid meet">

<g transform="translate(0.000000,256.000000) scale(0.100000,-0.100000)"
fill="#000000" stroke="none">
<path d="M1074 2465 c-198 -35 -414 -130 -546 -240 -18 -15 -46 -24 -88 -29
-67 -8 -71 -12 -85 -96 -4 -29 -24 -70 -54 -115 -137 -202 -206 -401 -218
-625 -30 -587 372 -1105 947 -1220 58 -11 132 -30 165 -41 60 -19 61 -19 117
0 31 11 92 25 135 31 93 14 256 66 345 111 217 110 417 309 525 524 149 295
165 662 42 969 -42 105 -88 187 -152 273 -26 36 -43 73 -53 117 l-15 64 -55 7
c-44 5 -69 17 -127 58 -134 96 -279 162 -437 198 -114 26 -337 33 -446 14z
m377 -71 c139 -24 330 -96 394 -149 19 -15 16 -16 -45 -11 -315 29 -750 31
-1018 5 -62 -6 -115 -9 -118 -6 -8 8 168 94 248 121 164 56 363 70 539 40z
m35 -259 c141 -4 307 -22 451 -46 61 -11 63 -12 72 -48 30 -112 61 -450 61
-663 l0 -118 -190 0 -190 0 -10 26 c-13 33 -14 28 18 66 16 18 32 41 35 52 7
17 3 18 -40 11 -144 -22 -154 -22 -151 -7 2 8 45 30 105 51 56 20 104 39 107
42 4 3 -4 28 -16 55 -17 39 -21 66 -21 137 1 48 -2 87 -6 87 -4 0 -41 -11 -81
-25 -40 -14 -77 -25 -81 -25 -4 0 -9 38 -10 84 -2 46 -7 88 -12 92 -4 4 -26
-2 -50 -15 l-42 -22 43 6 42 7 0 -222 c0 -143 -3 -219 -10 -215 -5 3 -22 27
-37 52 -21 36 -27 62 -31 127 -3 56 -10 91 -24 113 -10 17 -22 56 -25 85 -3
29 -13 63 -21 75 -8 14 -13 39 -10 63 2 22 3 40 2 40 -1 0 -20 -7 -43 -15
l-41 -14 0 41 c0 39 -1 40 -27 33 -14 -3 -36 -13 -47 -21 -20 -15 -18 -15 22
-9 43 7 43 7 40 -20 -2 -23 -12 -31 -56 -47 -71 -26 -101 -84 -71 -139 10 -19
10 -19 38 0 30 22 128 51 170 51 38 0 21 -8 -96 -49 -125 -44 -142 -62 -123
-128 18 -66 22 -68 72 -40 42 25 90 38 188 52 71 10 37 -9 -103 -55 -140 -46
-156 -59 -158 -125 l-1 -40 -14 34 c-9 19 -17 57 -18 86 -2 28 -11 65 -20 83
-9 17 -16 50 -16 73 0 39 -2 41 -24 35 -13 -3 -31 -9 -40 -12 -12 -5 -15 4
-18 45 l-3 51 -50 -25 c-43 -21 -46 -24 -23 -25 15 0 30 5 33 10 3 6 13 10 21
10 10 0 14 -12 14 -39 0 -38 -1 -40 -51 -56 -42 -14 -54 -23 -66 -53 -12 -29
-13 -44 -4 -73 l11 -36 47 23 c45 22 183 50 166 33 -4 -4 -53 -23 -108 -42
-83 -28 -102 -39 -114 -62 -12 -25 -11 -33 6 -74 20 -48 29 -52 81 -36 19 6
22 4 22 -19 0 -21 -5 -26 -24 -26 -33 0 -219 36 -279 55 -69 21 -50 3 33 -30
58 -23 77 -37 105 -76 19 -25 35 -52 35 -58 0 -12 -262 -16 -344 -5 l-46 7 0
83 c0 177 33 544 61 673 l10 49 62 11 c196 33 580 63 717 54 25 -1 113 -5 196
-8z m777 -352 c244 -514 79 -1109 -396 -1420 -66 -43 -196 -108 -202 -101 -2
2 32 30 76 63 227 167 382 419 444 720 26 127 37 383 25 610 -6 110 -14 211
-17 225 -13 51 23 2 70 -97z m-1954 -29 c-7 -70 -9 -222 -6 -369 4 -203 9
-268 26 -347 65 -301 217 -543 449 -719 36 -27 62 -49 58 -49 -21 0 -175 88
-243 139 -174 131 -304 307 -377 509 -52 145 -61 204 -60 387 0 151 4 181 27
268 24 92 121 316 132 305 2 -2 0 -58 -6 -124z m860 -341 c16 -19 17 -19 46
-1 40 24 45 23 45 -12 l0 -30 -135 0 -135 0 0 36 0 37 82 -5 c65 -4 84 -9 97
-25z m290 14 c30 -7 56 -17 58 -24 4 -11 -23 -16 -169 -29 l-68 -6 0 29 c0 16
3 33 7 36 10 10 111 6 172 -6z m-251 -137 c69 -13 141 -13 195 2 35 9 54 9 91
-2 26 -7 49 -17 52 -21 3 -5 -151 -9 -345 -9 -303 0 -351 2 -351 15 0 21 38
28 90 16 64 -15 133 -13 156 3 10 8 28 13 39 11 11 -2 44 -9 73 -15z m852
-129 c0 -111 -61 -314 -131 -438 -110 -193 -363 -387 -625 -479 -50 -17 -51
-17 -110 6 -240 96 -435 231 -550 383 -94 124 -171 327 -189 500 l-7 67 806 0
806 0 0 -39z"/>
<path d="M763 1655 c-56 -51 -133 -151 -133 -173 0 -5 26 -12 57 -16 31 -4 67
-9 79 -12 20 -5 21 -2 21 63 0 43 8 90 22 127 11 33 19 61 18 63 -2 2 -31 -22
-64 -52z"/>
<path d="M1224 1064 c-9 -14 -30 -32 -47 -41 -17 -8 -41 -29 -55 -45 -14 -17
-45 -38 -68 -48 -23 -11 -47 -27 -53 -38 -6 -11 -26 -23 -45 -26 -47 -9 -51
-20 -24 -64 12 -20 21 -45 20 -54 -2 -10 8 -37 21 -60 14 -24 28 -63 32 -88 4
-25 13 -52 20 -60 8 -8 15 -33 17 -55 3 -36 6 -40 28 -38 33 3 93 4 195 2 28
0 64 0 80 0 48 1 68 0 100 -2 28 -2 30 0 33 38 2 22 8 46 15 53 6 7 14 38 18
67 4 30 17 68 28 84 12 16 21 41 21 56 0 15 9 40 21 56 27 38 19 56 -25 64
-22 5 -38 14 -41 25 -3 11 -28 29 -56 41 -27 13 -61 38 -75 56 -14 18 -32 33
-40 33 -9 0 -30 16 -47 35 -37 42 -51 44 -73 9z m63 -320 c3 -8 -2 -23 -11
-32 -15 -15 -17 -15 -32 0 -21 21 -11 48 16 48 11 0 23 -7 27 -16z"/>
</g>
</svg>
