<?xml version="1.0" standalone="no"?>
<!DOCTYPE svg PUBLIC "-//W3C//DTD SVG 20010904//EN"
 "http://www.w3.org/TR/2001/REC-SVG-20010904/DTD/svg10.dtd">
<svg version="1.0" xmlns="http://www.w3.org/2000/svg"
 width="256.000000pt" height="256.000000pt" viewBox="0 0 256.000000 256.000000"
 preserveAspectRatio="xMidYMid meet">

<g transform="translate(0.000000,256.000000) scale(0.100000,-0.100000)"
fill="#000000" stroke="none">
<path d="M1880 1805 l0 -595 -260 0 c-143 0 -260 -3 -260 -8 0 -9 1023 -1032
1033 -1032 4 0 7 502 7 1115 l0 1115 -260 0 -260 0 0 -595z"/>
<path d="M160 1275 l0 -1115 260 0 260 0 0 595 0 595 260 0 c143 0 260 1 260
3 0 3 -1034 1037 -1037 1037 -2 0 -3 -502 -3 -1115z"/>
</g>
</svg>
