<?xml version="1.0" standalone="no"?>
<!DOCTYPE svg PUBLIC "-//W3C//DTD SVG 20010904//EN"
 "http://www.w3.org/TR/2001/REC-SVG-20010904/DTD/svg10.dtd">
<svg version="1.0" xmlns="http://www.w3.org/2000/svg"
 width="256.000000pt" height="256.000000pt" viewBox="0 0 256.000000 256.000000"
 preserveAspectRatio="xMidYMid meet">

<g transform="translate(0.000000,256.000000) scale(0.100000,-0.100000)"
fill="#000000" stroke="none">
<path d="M348 2387 c-62 -20 -121 -69 -153 -128 l-30 -54 0 -925 0 -925 30
-54 c36 -66 102 -116 170 -131 35 -8 321 -10 940 -8 l890 3 41 22 c54 29 107
89 130 149 18 47 19 90 19 954 0 845 -1 907 -18 943 -24 52 -83 114 -131 140
l-41 22 -905 2 c-674 1 -914 -1 -942 -10z m1850 -135 c66 -47 62 9 62 -972 0
-981 4 -925 -62 -972 l-33 -23 -892 0 c-885 0 -892 0 -919 21 -15 11 -37 33
-48 48 -21 27 -21 37 -24 899 -1 480 0 886 3 904 7 40 49 91 90 109 24 11 193
13 910 11 l880 -2 33 -23z"/>
<path d="M1085 2030 c-148 -39 -263 -108 -371 -223 -115 -122 -180 -257 -205
-427 -55 -381 205 -760 586 -856 98 -24 266 -22 366 4 232 62 428 231 518 447
184 442 -63 939 -523 1055 -104 26 -272 27 -371 0z m332 -101 c237 -50 442
-253 498 -492 19 -81 19 -235 -1 -317 -45 -192 -184 -360 -369 -445 -99 -46
-165 -60 -280 -59 -180 1 -325 62 -456 193 -136 136 -194 277 -194 471 0 100
4 127 29 204 94 288 375 481 666 459 36 -3 84 -9 107 -14z"/>
<path d="M1236 1788 c-11 -15 -16 -45 -16 -90 0 -58 -3 -68 -17 -68 -10 0 -47
-14 -82 -30 l-64 -30 -53 50 c-59 56 -86 62 -109 26 -20 -30 -13 -45 48 -104
l45 -44 -23 -41 c-13 -23 -29 -61 -36 -84 l-12 -43 -69 0 c-55 0 -72 -4 -88
-20 -24 -24 -24 -29 -4 -58 13 -19 24 -22 88 -22 l73 0 12 -42 c7 -24 23 -62
36 -85 l23 -41 -45 -44 c-61 -59 -68 -74 -48 -104 24 -37 53 -30 110 26 l51
51 60 -31 c32 -16 69 -30 82 -30 20 0 22 -4 22 -64 0 -88 12 -116 49 -116 41
0 50 16 53 99 l3 74 41 12 c22 7 60 23 83 35 l41 24 53 -52 c52 -52 82 -63
105 -40 23 23 12 53 -39 104 l-51 52 31 63 c17 34 31 73 31 86 0 22 3 23 74
23 79 0 106 13 106 50 0 37 -27 50 -105 50 l-73 0 -7 38 c-4 20 -18 59 -33 85
l-26 48 54 54 c44 45 52 57 46 79 -4 16 -16 28 -32 32 -22 6 -34 -2 -79 -46
l-54 -54 -48 26 c-26 15 -65 29 -85 33 l-38 7 0 77 c0 47 -5 82 -12 89 -19 19
-55 14 -72 -10z m115 -273 c160 -57 219 -246 119 -383 -110 -152 -346 -126
-423 48 -86 194 105 405 304 335z"/>
</g>
</svg>
