<?xml version="1.0" standalone="no"?>
<!DOCTYPE svg PUBLIC "-//W3C//DTD SVG 20010904//EN"
 "http://www.w3.org/TR/2001/REC-SVG-20010904/DTD/svg10.dtd">
<svg version="1.0" xmlns="http://www.w3.org/2000/svg"
 width="256.000000pt" height="256.000000pt" viewBox="0 0 256.000000 256.000000"
 preserveAspectRatio="xMidYMid meet">

<g transform="translate(0.000000,256.000000) scale(0.100000,-0.100000)"
fill="#000000" stroke="none">
<path d="M1100 2386 c-120 -22 -215 -54 -329 -112 -319 -162 -538 -462 -596
-815 -99 -610 318 -1185 930 -1284 601 -98 1175 312 1280 913 101 577 -260
1131 -833 1279 -120 31 -335 40 -452 19z m380 -716 l0 -200 198 -2 197 -3 0
-195 0 -195 -197 -3 -198 -2 0 -190 0 -190 -200 0 -200 0 0 190 0 190 -195 0
-195 0 0 200 0 200 195 0 195 0 0 200 0 200 200 0 200 0 0 -200z"/>
<path d="M1080 1280 l0 -190 200 0 200 0 0 190 0 190 -200 0 -200 0 0 -190z"/>
</g>
</svg>
