<?xml version="1.0" standalone="no"?>
<!DOCTYPE svg PUBLIC "-//W3C//DTD SVG 20010904//EN"
 "http://www.w3.org/TR/2001/REC-SVG-20010904/DTD/svg10.dtd">
<svg version="1.0" xmlns="http://www.w3.org/2000/svg"
 width="256.000000pt" height="256.000000pt" viewBox="0 0 256.000000 256.000000"
 preserveAspectRatio="xMidYMid meet">

<g transform="translate(0.000000,256.000000) scale(0.100000,-0.100000)"
fill="#000000" stroke="none">
<path d="M1220 2375 c0 -13 353 -1512 381 -1617 5 -21 13 -38 17 -38 4 0 70
214 146 477 107 369 136 480 128 493 -6 10 -74 101 -151 203 -94 124 -170 212
-229 266 -97 90 -271 231 -284 231 -4 0 -8 -7 -8 -15z"/>
<path d="M1038 2098 c-217 -216 -310 -342 -377 -510 -41 -101 -83 -249 -78
-273 6 -28 486 -735 499 -735 29 0 478 125 478 133 0 8 -345 1471 -356 1510
-3 9 -9 17 -14 17 -5 0 -73 -64 -152 -142z"/>
<path d="M1946 1650 c-103 -347 -263 -906 -260 -909 2 -2 88 19 191 46 l188
49 8 45 c5 24 10 141 10 259 l2 215 -37 120 c-20 66 -47 145 -61 175 l-24 55
-17 -55z"/>
<path d="M480 1284 c0 -183 53 -492 104 -607 27 -62 113 -197 124 -197 13 0
304 79 309 84 4 4 -504 764 -528 791 -5 5 -9 -24 -9 -71z"/>
<path d="M1935 755 c-300 -81 -271 -69 -284 -118 -11 -38 -9 -58 24 -195 20
-84 39 -152 42 -152 3 0 35 21 72 47 81 58 175 151 237 235 64 87 140 240 117
237 -4 -1 -98 -25 -208 -54z"/>
<path d="M1337 596 c-126 -33 -226 -65 -225 -71 2 -5 57 -90 123 -188 l119
-179 51 7 c27 3 53 9 57 13 4 4 34 100 68 214 56 193 65 250 41 261 -3 2 -109
-24 -234 -57z"/>
<path d="M935 490 c-55 -15 -120 -33 -144 -39 l-44 -12 39 -41 c53 -55 145
-119 232 -163 70 -35 255 -85 268 -73 8 9 -228 358 -241 357 -5 0 -55 -13
-110 -29z"/>
<path d="M1607 480 c-10 -23 -86 -284 -84 -286 4 -4 104 41 125 56 l21 15 -28
115 c-16 64 -31 108 -34 100z"/>
</g>
</svg>
