<?xml version="1.0" standalone="no"?>
<!DOCTYPE svg PUBLIC "-//W3C//DTD SVG 20010904//EN"
 "http://www.w3.org/TR/2001/REC-SVG-20010904/DTD/svg10.dtd">
<svg version="1.0" xmlns="http://www.w3.org/2000/svg"
 width="256.000000pt" height="256.000000pt" viewBox="0 0 256.000000 256.000000"
 preserveAspectRatio="xMidYMid meet">

<g transform="translate(0.000000,256.000000) scale(0.100000,-0.100000)"
fill="#000000" stroke="none">
<path d="M1156 2456 l-26 -25 0 -263 0 -263 376 -220 c477 -279 464 -270 492
-325 22 -44 22 -48 22 -473 0 -236 3 -427 8 -425 82 38 194 102 202 117 6 13
10 230 10 641 0 675 1 659 -56 711 -46 42 -935 543 -971 547 -24 3 -38 -2 -57
-22z"/>
<path d="M783 1865 c-17 -7 -36 -23 -42 -34 -8 -14 -10 -108 -9 -288 l3 -267
405 -238 c223 -130 415 -248 427 -262 37 -43 43 -90 43 -328 0 -126 3 -228 8
-227 27 3 209 118 219 139 17 33 18 819 2 884 -6 26 -24 57 -42 74 -31 30
-920 543 -962 555 -11 3 -34 0 -52 -8z"/>
<path d="M383 1252 c-13 -2 -32 -15 -43 -29 -19 -24 -20 -40 -20 -253 l0 -228
28 -53 28 -53 464 -279 c443 -266 467 -279 505 -274 26 4 48 15 62 32 23 26
23 31 23 271 0 261 -2 275 -52 321 -27 25 -926 538 -954 544 -10 3 -29 3 -41
1z"/>
</g>
</svg>
