<?xml version="1.0" standalone="no"?>
<!DOCTYPE svg PUBLIC "-//W3C//DTD SVG 20010904//EN"
 "http://www.w3.org/TR/2001/REC-SVG-20010904/DTD/svg10.dtd">
<svg version="1.0" xmlns="http://www.w3.org/2000/svg"
 width="256.000000pt" height="256.000000pt" viewBox="0 0 256.000000 256.000000"
 preserveAspectRatio="xMidYMid meet">

<g transform="translate(0.000000,256.000000) scale(0.100000,-0.100000)"
fill="#000000" stroke="none">
<path d="M1260 2464 c-259 -41 -490 -164 -678 -358 -171 -177 -272 -360 -272
-491 l0 -25 204 0 203 0 37 63 c78 134 218 270 347 337 130 68 264 89 436 70
122 -13 194 -36 285 -91 93 -56 130 -68 218 -68 131 -1 262 42 323 107 l28 29
-38 46 c-143 173 -397 318 -653 373 -107 23 -323 27 -440 8z"/>
<path d="M391 1475 c-83 -26 -150 -117 -151 -203 0 -128 123 -235 248 -216 60
9 131 59 160 114 33 63 29 159 -11 218 -51 78 -157 116 -246 87z"/>
<path d="M678 1408 c23 -45 27 -64 27 -138 0 -74 -4 -92 -28 -138 -24 -47 -25
-52 -8 -43 32 18 81 84 92 126 6 22 9 57 6 77 -7 49 -49 121 -87 148 l-30 21
28 -53z"/>
<path d="M314 914 c12 -108 71 -226 176 -359 65 -81 191 -201 271 -258 245
-173 573 -249 882 -202 267 40 555 196 710 382 l38 46 -28 29 c-66 70 -205
112 -343 106 -74 -3 -93 -8 -145 -38 -192 -107 -246 -123 -435 -123 -154 0
-222 14 -330 68 -131 66 -276 205 -356 343 l-37 62 -205 0 -205 0 7 -56z"/>
</g>
</svg>
