<?xml version="1.0" standalone="no"?>
<!DOCTYPE svg PUBLIC "-//W3C//DTD SVG 20010904//EN"
 "http://www.w3.org/TR/2001/REC-SVG-20010904/DTD/svg10.dtd">
<svg version="1.0" xmlns="http://www.w3.org/2000/svg"
 width="256.000000pt" height="256.000000pt" viewBox="0 0 256.000000 256.000000"
 preserveAspectRatio="xMidYMid meet">

<g transform="translate(0.000000,256.000000) scale(0.100000,-0.100000)"
fill="#000000" stroke="none">
<path d="M1300 2005 c-273 -192 -453 -303 -624 -386 -163 -79 -287 -118 -404
-126 -52 -4 -89 -12 -98 -20 -12 -12 -14 -88 -14 -457 0 -330 3 -445 12 -454
31 -31 218 -6 376 50 96 33 300 132 406 196 37 23 72 42 77 42 5 0 9 -89 9
-200 0 -110 3 -200 6 -200 3 0 92 60 197 134 508 355 778 491 1032 520 55 6
106 15 113 19 9 6 12 109 12 456 0 390 -2 450 -15 461 -21 17 -155 7 -258 -20
-149 -37 -363 -135 -569 -259 l-38 -23 0 206 c0 113 -3 206 -7 205 -5 0 -100
-65 -213 -144z"/>
</g>
</svg>
