<?xml version="1.0" standalone="no"?>
<!DOCTYPE svg PUBLIC "-//W3C//DTD SVG 20010904//EN"
 "http://www.w3.org/TR/2001/REC-SVG-20010904/DTD/svg10.dtd">
<svg version="1.0" xmlns="http://www.w3.org/2000/svg"
 width="256.000000pt" height="256.000000pt" viewBox="0 0 256.000000 256.000000"
 preserveAspectRatio="xMidYMid meet">

<g transform="translate(0.000000,256.000000) scale(0.100000,-0.100000)"
fill="#000000" stroke="none">
<path d="M703 2277 l-422 -202 -1 -65 0 -66 335 -193 335 -193 0 -69 c0 -69 0
-70 -22 -58 -13 7 -165 92 -338 190 -173 98 -322 180 -330 184 -9 3 -34 -9
-59 -27 l-43 -32 6 -110 c3 -61 11 -264 17 -451 l11 -340 27 -23 c14 -13 38
-32 52 -42 l26 -19 279 170 c153 94 287 175 297 180 12 7 26 5 47 -8 24 -14
30 -24 30 -53 l0 -36 -280 -174 -279 -175 -1 -46 0 -47 359 -246 360 -247 50
32 c41 24 51 36 51 57 0 15 7 189 15 387 l14 360 26 23 c33 28 43 28 77 -1
l26 -22 11 -350 c15 -455 10 -424 71 -457 l49 -27 343 235 c188 129 351 242
361 251 13 12 17 28 15 56 l-3 40 -279 176 c-279 176 -280 176 -280 211 0 28
6 38 31 53 l31 18 297 -181 296 -181 49 41 c28 23 50 43 50 43 4 41 30 751 30
817 l0 95 -39 28 c-22 15 -42 27 -45 27 -3 0 -158 -86 -343 -191 -186 -105
-341 -191 -346 -192 -15 -3 -11 124 4 137 8 7 142 86 299 176 404 231 362 199
358 272 l-3 61 -424 204 -423 203 -39 -22 -39 -22 0 -352 0 -353 -44 -31 c-25
-16 -48 -30 -52 -30 -4 0 -26 12 -50 28 l-44 27 0 356 0 355 -37 19 c-21 11
-40 21 -43 22 -3 1 -195 -89 -427 -200z m257 -277 l0 -140 -135 67 c-74 37
-135 70 -135 73 0 8 241 138 258 139 9 1 12 -33 12 -139z m831 73 c71 -38 129
-70 129 -73 0 -3 -61 -36 -135 -73 l-135 -67 0 140 c0 77 3 140 6 140 4 0 64
-30 135 -67z m-1229 -759 c54 -32 98 -61 98 -64 0 -6 -226 -120 -238 -120 -4
0 -6 61 -4 136 l3 136 22 -14 c12 -8 66 -41 119 -74z m839 -41 c-14 -10 -21
-25 -21 -49 0 -39 1 -39 -46 -19 -32 13 -39 13 -64 0 -39 -20 -40 -20 -40 19
0 25 -6 38 -25 50 -21 14 -25 24 -25 66 0 31 4 50 11 50 7 0 34 -14 62 -31
l50 -30 56 35 56 35 3 -56 c3 -47 0 -58 -17 -70z m789 -13 l0 -140 -125 62
c-68 34 -121 66 -116 71 12 12 225 145 234 146 4 1 7 -62 7 -139z m-1230 -635
c0 -86 -3 -115 -12 -115 -7 1 -53 22 -101 49 l-88 48 97 67 c54 36 99 66 101
66 2 0 3 -52 3 -115z m875 -15 c3 -4 -38 -30 -90 -58 l-95 -50 0 120 0 119 90
-62 c50 -34 92 -65 95 -69z"/>
</g>
</svg>
