<?xml version="1.0" standalone="no"?>
<!DOCTYPE svg PUBLIC "-//W3C//DTD SVG 20010904//EN"
 "http://www.w3.org/TR/2001/REC-SVG-20010904/DTD/svg10.dtd">
<svg version="1.0" xmlns="http://www.w3.org/2000/svg"
 width="256.000000pt" height="256.000000pt" viewBox="0 0 256.000000 256.000000"
 preserveAspectRatio="xMidYMid meet">

<g transform="translate(0.000000,256.000000) scale(0.100000,-0.100000)"
fill="#000000" stroke="none">
<path d="M1174 2430 c-206 -100 -525 -192 -781 -226 -108 -15 -122 -19 -127
-38 -4 -12 -9 -94 -13 -183 l-6 -163 366 0 c413 0 389 5 364 -79 l-12 -42
-356 1 c-320 1 -357 -1 -363 -15 -8 -21 -6 -175 2 -238 l7 -48 497 1 c558 0
536 3 523 -69 -4 -20 -10 -39 -13 -43 -4 -3 -226 -9 -495 -13 l-488 -8 7 -21
c4 -11 13 -43 20 -71 7 -27 28 -89 46 -137 l32 -88 306 -2 305 -3 0 -45 0 -45
-282 -3 c-156 -1 -283 -5 -283 -8 0 -18 87 -168 126 -217 l46 -57 284 0 285 0
-3 -53 -3 -52 -223 0 c-122 0 -222 -3 -222 -6 0 -3 37 -42 83 -85 86 -83 140
-118 351 -229 l129 -68 86 43 c318 157 628 449 766 723 87 173 150 423 175
702 12 130 11 628 -1 640 -4 3 -96 19 -205 36 -377 55 -433 71 -693 195 -74
35 -134 64 -135 63 -1 0 -47 -23 -102 -49z"/>
</g>
</svg>
