<?xml version="1.0" standalone="no"?>
<!DOCTYPE svg PUBLIC "-//W3C//DTD SVG 20010904//EN"
 "http://www.w3.org/TR/2001/REC-SVG-20010904/DTD/svg10.dtd">
<svg version="1.0" xmlns="http://www.w3.org/2000/svg"
 width="256.000000pt" height="256.000000pt" viewBox="0 0 256.000000 256.000000"
 preserveAspectRatio="xMidYMid meet">

<g transform="translate(0.000000,256.000000) scale(0.100000,-0.100000)"
fill="#000000" stroke="none">
<path d="M1305 2473 c-522 -68 -930 -441 -1041 -953 -26 -118 -26 -362 0 -480
115 -531 553 -915 1090 -956 l86 -7 0 282 0 281 33 0 c65 1 174 31 256 71 148
73 263 207 322 376 30 85 36 230 15 327 -42 188 -170 353 -336 435 -83 40
-192 70 -257 71 l-33 0 0 280 0 280 -52 -1 c-29 -1 -66 -4 -83 -6z m135 -1193
l0 -640 -32 0 c-66 1 -175 31 -258 71 -209 104 -350 332 -350 569 0 237 141
465 350 569 85 42 182 69 253 70 l37 1 0 -640z"/>
<path d="M1997 2466 c-136 -49 -215 -184 -187 -320 45 -218 314 -300 467 -144
58 60 83 118 83 198 0 80 -25 138 -83 198 -71 72 -188 101 -280 68z"/>
<path d="M1986 624 c-102 -32 -186 -152 -186 -264 0 -118 85 -233 195 -266
135 -39 268 17 333 141 22 41 26 63 26 125 0 116 -50 198 -154 250 -57 29
-149 35 -214 14z"/>
</g>
</svg>
