<?xml version="1.0" standalone="no"?>
<!DOCTYPE svg PUBLIC "-//W3C//DTD SVG 20010904//EN"
 "http://www.w3.org/TR/2001/REC-SVG-20010904/DTD/svg10.dtd">
<svg version="1.0" xmlns="http://www.w3.org/2000/svg"
 width="256.000000pt" height="256.000000pt" viewBox="0 0 256.000000 256.000000"
 preserveAspectRatio="xMidYMid meet">

<g transform="translate(0.000000,256.000000) scale(0.100000,-0.100000)"
fill="#000000" stroke="none">
<path d="M2439 2075 c-8 -7 -118 -34 -194 -46 -43 -7 -294 -14 -651 -18 l-580
-6 -75 -37 c-48 -24 -92 -55 -120 -85 -41 -44 -153 -219 -161 -251 -5 -21
1421 -17 1491 4 82 24 136 83 240 261 50 86 89 163 87 170 -5 13 -28 18 -37 8z"/>
<path d="M1380 1460 l-735 -5 -38 -23 c-48 -30 -67 -57 -162 -225 -46 -81 -74
-142 -69 -147 5 -5 38 -5 79 0 39 5 367 9 731 10 l661 0 61 31 c34 17 74 46
89 64 42 51 174 285 168 295 -4 6 -16 9 -28 8 -12 -2 -353 -5 -757 -8z"/>
<path d="M1805 910 c-16 -4 -347 -8 -735 -9 -663 -1 -707 -3 -745 -20 -22 -10
-50 -29 -62 -42 -35 -39 -184 -302 -179 -316 4 -11 129 -13 668 -13 386 0 688
4 723 10 142 23 241 104 339 277 68 121 67 132 -9 113z"/>
</g>
</svg>
