<?xml version="1.0" standalone="no"?>
<!DOCTYPE svg PUBLIC "-//W3C//DTD SVG 20010904//EN"
 "http://www.w3.org/TR/2001/REC-SVG-20010904/DTD/svg10.dtd">
<svg version="1.0" xmlns="http://www.w3.org/2000/svg"
 width="256.000000pt" height="256.000000pt" viewBox="0 0 256.000000 256.000000"
 preserveAspectRatio="xMidYMid meet">

<g transform="translate(0.000000,256.000000) scale(0.100000,-0.100000)"
fill="#000000" stroke="none">
<path d="M1088 2465 c-487 -79 -878 -456 -984 -945 -26 -118 -26 -362 0 -480
89 -410 371 -738 763 -886 172 -65 405 -89 591 -60 522 80 928 487 1009 1011
19 124 12 313 -16 435 -103 454 -456 807 -911 911 -114 26 -336 33 -452 14z
m427 -450 c83 -23 212 -86 263 -130 35 -30 42 -43 42 -72 0 -33 -17 -53 -235
-273 -151 -152 -235 -244 -235 -257 0 -33 48 -88 264 -303 234 -233 235 -235
167 -300 -45 -43 -181 -112 -266 -135 -210 -56 -454 -11 -632 115 -383 271
-432 816 -104 1150 109 111 235 180 391 215 81 18 260 13 345 -10z"/>
</g>
</svg>
