<?xml version="1.0" standalone="no"?>
<!DOCTYPE svg PUBLIC "-//W3C//DTD SVG 20010904//EN"
 "http://www.w3.org/TR/2001/REC-SVG-20010904/DTD/svg10.dtd">
<svg version="1.0" xmlns="http://www.w3.org/2000/svg"
 width="256.000000pt" height="256.000000pt" viewBox="0 0 256.000000 256.000000"
 preserveAspectRatio="xMidYMid meet">

<g transform="translate(0.000000,256.000000) scale(0.100000,-0.100000)"
fill="#000000" stroke="none">
<path d="M690 2316 c0 -3 -29 -131 -65 -286 -36 -155 -65 -288 -65 -296 0 -12
103 -14 720 -14 569 0 720 3 720 13 0 6 -30 141 -67 300 l-67 287 -588 0
c-323 0 -588 -2 -588 -4z"/>
<path d="M909 1608 c5 -13 34 -88 65 -168 l55 -145 -19 -185 c-11 -102 -20
-186 -20 -187 0 -2 131 -3 290 -3 l291 0 -7 63 c-3 34 -11 118 -18 187 l-13
125 38 100 c20 55 49 130 63 168 l25 67 -379 0 -380 0 9 -22z"/>
<path d="M1838 1408 l-168 -110 0 -198 0 -198 -135 -128 -135 -127 0 -58 0
-58 128 -118 127 -118 104 2 c71 1 108 6 116 15 15 16 520 900 520 910 0 5
-385 300 -389 298 -1 -1 -76 -51 -168 -112z"/>
<path d="M355 1369 c-104 -78 -190 -144 -190 -148 0 -3 119 -214 265 -468
l265 -463 106 0 106 0 127 117 126 116 -1 66 -1 66 -128 120 -129 120 0 200
-1 201 -162 103 c-89 57 -169 106 -178 108 -8 2 -100 -60 -205 -138z"/>
</g>
</svg>
