<?xml version="1.0" standalone="no"?>
<!DOCTYPE svg PUBLIC "-//W3C//DTD SVG 20010904//EN"
 "http://www.w3.org/TR/2001/REC-SVG-20010904/DTD/svg10.dtd">
<svg version="1.0" xmlns="http://www.w3.org/2000/svg"
 width="256.000000pt" height="256.000000pt" viewBox="0 0 256.000000 256.000000"
 preserveAspectRatio="xMidYMid meet">

<g transform="translate(0.000000,256.000000) scale(0.100000,-0.100000)"
fill="#000000" stroke="none">
<path d="M1175 2305 c-201 -38 -389 -129 -533 -260 l-53 -48 20 -20 20 -20 47
39 c171 143 327 218 522 250 184 30 408 1 576 -75 158 -72 336 -222 429 -364
53 -79 112 -208 135 -292 17 -64 21 -70 47 -73 27 -4 28 -3 21 38 -24 152
-133 358 -267 504 -120 132 -329 254 -514 302 -128 33 -330 41 -450 19z"/>
<path d="M1265 2001 c-395 -63 -676 -405 -652 -796 13 -209 87 -367 240 -511
89 -84 159 -127 274 -167 75 -26 106 -31 214 -35 105 -4 140 -1 210 17 206 51
382 185 485 367 37 67 76 169 67 178 -4 3 -64 6 -134 6 l-127 0 -30 -52 c-94
-166 -252 -259 -439 -259 -141 -1 -259 47 -357 145 -290 291 -121 788 289 848
96 13 197 -3 291 -48 71 -34 190 -150 218 -211 l19 -43 138 0 c161 0 154 -11
84 135 -97 201 -269 344 -486 405 -83 23 -229 33 -304 21z"/>
<path d="M262 1885 c-29 -64 -2 -149 58 -180 l31 -16 15 37 c22 53 11 100 -36
146 -44 45 -53 46 -68 13z"/>
<path d="M442 1750 c-18 -11 -38 -32 -44 -46 -11 -23 -10 -28 7 -40 10 -8 40
-14 66 -14 37 0 55 6 78 26 47 39 58 64 35 81 -27 20 -104 16 -142 -7z"/>
<path d="M149 1613 c-22 -59 13 -139 71 -163 41 -17 53 -4 53 54 0 52 -21 89
-66 116 -42 26 -45 25 -58 -7z"/>
<path d="M371 1522 c-37 -18 -68 -55 -73 -86 -4 -25 41 -40 89 -31 74 14 137
114 81 129 -38 10 -61 7 -97 -12z"/>
<path d="M83 1273 c4 -38 12 -54 41 -80 58 -53 116 -57 116 -7 0 69 -62 134
-129 134 l-34 0 6 -47z"/>
<path d="M2341 1294 c-28 -35 -26 -69 4 -99 49 -50 135 -17 135 50 0 12 -9 34
-21 49 -16 20 -29 26 -59 26 -30 0 -43 -6 -59 -26z"/>
<path d="M335 1280 c-34 -22 -65 -74 -65 -107 0 -34 40 -40 92 -14 49 23 78
64 78 110 0 29 -2 31 -37 31 -21 0 -51 -9 -68 -20z"/>
<path d="M413 1041 c-50 -23 -73 -62 -73 -126 0 -51 10 -56 66 -29 47 22 76
73 72 125 -2 24 -7 44 -13 45 -5 2 -29 -5 -52 -15z"/>
<path d="M2332 967 c-125 -448 -567 -763 -1032 -734 -188 12 -396 86 -538 193
l-63 47 -21 -21 -21 -20 69 -51 c204 -152 489 -230 740 -202 265 30 485 139
670 332 116 122 189 243 244 408 38 114 39 131 3 131 -26 0 -29 -5 -51 -83z"/>
<path d="M124 987 c-7 -19 13 -67 39 -95 25 -27 86 -45 122 -36 23 6 26 10 20
33 -10 39 -32 70 -68 91 -37 23 -105 27 -113 7z"/>
<path d="M536 815 c-48 -36 -67 -98 -50 -162 9 -33 41 -29 79 11 38 40 50 89
34 134 -12 35 -32 40 -63 17z"/>
<path d="M293 709 c-37 -11 -42 -31 -17 -67 30 -44 98 -63 162 -46 46 13 15
74 -52 105 -46 21 -48 21 -93 8z"/>
</g>
</svg>
