<?xml version="1.0" standalone="no"?>
<!DOCTYPE svg PUBLIC "-//W3C//DTD SVG 20010904//EN"
 "http://www.w3.org/TR/2001/REC-SVG-20010904/DTD/svg10.dtd">
<svg version="1.0" xmlns="http://www.w3.org/2000/svg"
 width="256.000000pt" height="256.000000pt" viewBox="0 0 256.000000 256.000000"
 preserveAspectRatio="xMidYMid meet">

<g transform="translate(0.000000,256.000000) scale(0.100000,-0.100000)"
fill="#000000" stroke="none">
<path d="M1404 2386 c-86 -39 -118 -160 -62 -231 l21 -27 -86 -86 c-82 -82
-87 -85 -105 -69 -10 9 -33 22 -50 28 -31 11 -32 13 -32 68 0 56 1 58 36 74
71 34 80 137 17 186 -31 25 -99 28 -131 5 -27 -19 -52 -65 -52 -96 0 -35 37
-89 70 -101 28 -11 30 -14 30 -67 l-1 -55 -47 -23 c-70 -33 -87 -62 -87 -150
l0 -72 -127 -59 -127 -59 -24 31 -23 30 50 93 c50 91 52 94 87 94 99 0 144
130 68 194 -63 53 -156 26 -180 -53 -9 -32 -8 -44 6 -75 10 -21 24 -40 32 -43
7 -3 13 -9 13 -13 0 -6 -85 -164 -96 -178 -1 -2 -20 2 -43 8 -135 36 -244
-115 -170 -237 26 -42 99 -77 145 -70 l34 6 59 -117 58 -117 -28 -44 c-37 -57
-33 -55 -73 -41 -25 8 -36 18 -36 31 0 100 -119 156 -192 90 -29 -26 -33 -35
-33 -81 0 -46 4 -55 33 -81 23 -20 43 -29 68 -29 39 0 88 22 101 45 7 12 15
12 53 1 37 -11 46 -18 51 -42 8 -39 36 -91 54 -101 12 -7 10 -15 -12 -46 -21
-30 -32 -37 -48 -32 -79 26 -137 7 -162 -53 -32 -76 20 -152 104 -152 77 0
130 75 104 147 -12 31 -10 36 20 74 20 25 37 38 46 35 8 -3 25 -6 37 -6 21 0
24 -9 46 -137 18 -107 21 -138 11 -141 -7 -2 -28 -18 -47 -34 -81 -71 -62
-202 37 -253 51 -27 131 -15 174 25 20 19 22 18 130 -30 l110 -49 6 -41 c8
-62 46 -95 110 -95 45 0 54 4 80 33 77 86 -7 218 -116 182 -19 -6 -42 -22 -52
-35 l-18 -23 -105 48 c-93 43 -105 51 -102 71 1 13 7 28 12 33 5 5 69 23 144
41 l135 32 23 -24 c49 -53 128 -69 188 -38 28 14 30 13 79 -28 48 -40 51 -44
51 -92 1 -75 41 -115 115 -115 55 0 105 53 105 110 0 34 -6 48 -34 76 -28 28
-42 34 -76 34 -25 0 -53 -8 -68 -19 l-27 -19 -48 42 -48 42 18 32 c11 19 24
30 33 27 8 -2 102 -7 208 -11 l192 -7 20 -44 c50 -113 210 -81 210 42 0 112
-146 154 -203 58 l-20 -35 -161 6 c-89 4 -182 9 -207 12 -44 5 -47 8 -52 37
-5 36 -3 38 88 87 60 33 65 33 82 17 47 -42 132 -25 166 32 58 99 -50 209
-153 156 -41 -21 -64 -68 -56 -116 l6 -37 -73 -41 -72 -40 -22 28 c-24 30 -88
61 -125 61 -34 0 -105 -38 -125 -68 -10 -15 -20 -53 -23 -86 l-5 -58 -133 -33
c-119 -29 -134 -31 -138 -16 -3 9 -13 32 -23 52 -17 34 -17 36 3 67 18 27 27
32 63 32 61 0 103 39 110 103 5 43 3 49 -30 82 -30 30 -42 35 -80 35 -102 0
-150 -114 -81 -191 16 -17 14 -25 -15 -68 -8 -12 -12 -12 -24 -3 -8 7 -34 16
-58 20 l-43 7 -23 130 c-25 142 -27 132 34 166 57 31 80 126 47 195 -27 57
-68 79 -147 79 l-68 1 -59 110 -59 110 36 28 c31 26 39 28 76 20 37 -8 42 -13
50 -46 11 -48 66 -98 108 -98 89 0 145 91 104 169 -14 28 -68 61 -100 61 -25
0 -72 -27 -89 -51 -13 -20 -20 -21 -58 -13 l-43 9 0 49 c0 58 -5 53 156 126
l116 52 38 -26 c77 -52 186 -26 228 54 17 33 19 90 4 145 -4 15 15 39 82 103
l88 82 36 -15 c33 -13 37 -19 37 -50 0 -25 -4 -35 -16 -35 -9 0 -31 -15 -50
-34 -27 -27 -34 -42 -34 -72 0 -55 31 -100 75 -113 79 -21 145 30 145 113 0
41 -37 91 -75 100 -21 5 -25 12 -25 45 0 35 3 39 31 45 39 7 38 8 144 -114 85
-97 85 -98 70 -126 -34 -66 -10 -148 58 -198 39 -29 125 -29 164 0 51 38 75
83 72 138 -3 44 0 50 25 63 24 13 30 13 51 -1 32 -21 104 -20 131 2 53 42 59
114 15 164 -26 29 -35 33 -81 33 -46 0 -55 -4 -82 -34 -27 -30 -30 -39 -26
-82 4 -43 3 -48 -20 -59 -21 -9 -29 -8 -51 13 -14 14 -36 30 -48 36 -34 17
-114 13 -148 -8 l-31 -18 -89 103 c-50 57 -91 107 -93 112 -1 4 8 18 22 31 23
22 26 22 105 10 62 -10 82 -17 86 -30 4 -10 20 -30 36 -44 69 -57 166 -15 176
78 5 43 3 49 -30 82 -30 30 -42 35 -80 35 -37 0 -51 -5 -76 -31 -17 -17 -31
-38 -31 -48 0 -27 -6 -29 -63 -19 -98 16 -94 13 -94 60 0 85 -58 148 -142 155
-26 2 -59 -3 -77 -11z"/>
</g>
</svg>
