<?xml version="1.0" standalone="no"?>
<!DOCTYPE svg PUBLIC "-//W3C//DTD SVG 20010904//EN"
 "http://www.w3.org/TR/2001/REC-SVG-20010904/DTD/svg10.dtd">
<svg version="1.0" xmlns="http://www.w3.org/2000/svg"
 width="256.000000pt" height="256.000000pt" viewBox="0 0 256.000000 256.000000"
 preserveAspectRatio="xMidYMid meet">

<g transform="translate(0.000000,256.000000) scale(0.100000,-0.100000)"
fill="#000000" stroke="none">
<path d="M1185 2462 c-43 -17 -808 -478 -863 -519 -40 -30 -72 -90 -78 -151
-3 -26 15 -389 40 -807 l46 -760 28 -40 c15 -22 47 -53 71 -70 l43 -30 761 -3
c818 -3 826 -2 891 49 55 43 53 29 103 846 50 831 50 836 0 912 -18 27 -126
102 -431 300 -239 154 -426 269 -453 277 -60 18 -108 17 -158 -4z m482 -457
c204 -132 373 -247 376 -256 2 -9 -15 -333 -39 -720 -24 -387 -43 -707 -44
-711 0 -5 -317 -8 -704 -8 l-704 0 -7 83 c-12 168 -75 1268 -75 1324 l0 58
393 238 c233 141 400 236 412 235 12 -2 188 -111 392 -243z"/>
<path d="M996 1811 c-142 -88 -263 -164 -268 -169 -6 -6 -2 -104 11 -275 12
-146 21 -275 21 -286 0 -21 3 -21 365 -21 l365 0 0 -57 c0 -32 -3 -88 -7 -125
l-6 -68 -217 0 -218 0 -7 90 -7 90 -134 0 -133 0 5 -47 c5 -55 24 -357 24
-385 0 -17 20 -18 475 -18 l475 0 0 25 c0 37 49 672 56 723 l5 42 -395 0 -396
0 0 84 0 84 121 76 c66 42 125 76 132 76 7 -1 68 -34 137 -74 l125 -73 5 -54
5 -54 133 -3 132 -3 0 125 0 124 -257 160 c-142 89 -265 163 -273 166 -9 4
-121 -59 -274 -153z"/>
</g>
</svg>
