<?xml version="1.0" standalone="no"?>
<!DOCTYPE svg PUBLIC "-//W3C//DTD SVG 20010904//EN"
 "http://www.w3.org/TR/2001/REC-SVG-20010904/DTD/svg10.dtd">
<svg version="1.0" xmlns="http://www.w3.org/2000/svg"
 width="256.000000pt" height="256.000000pt" viewBox="0 0 256.000000 256.000000"
 preserveAspectRatio="xMidYMid meet">

<g transform="translate(0.000000,256.000000) scale(0.100000,-0.100000)"
fill="#000000" stroke="none">
<path d="M964 2050 l-319 -350 -227 0 c-193 0 -229 -2 -242 -16 -9 -8 -16 -21
-16 -27 0 -7 62 -176 138 -377 l137 -365 225 -5 224 -5 137 -365 c75 -201 141
-365 147 -365 5 0 136 139 292 310 155 171 307 336 337 368 l55 57 229 0 c214
0 229 1 238 19 9 15 -17 94 -125 383 -75 199 -143 369 -152 376 -12 9 -74 12
-232 12 l-215 0 -129 345 c-71 190 -135 346 -143 350 -8 3 -20 5 -27 5 -7 0
-157 -157 -332 -350z m436 -80 c60 -161 110 -296 110 -301 0 -10 -239 -269
-248 -269 -4 0 -29 60 -56 133 -27 72 -56 140 -64 149 -13 15 -39 18 -194 20
l-180 3 258 282 c141 156 259 282 261 280 1 -2 52 -135 113 -297z m-263 -505
c29 -77 53 -143 53 -146 0 -8 -280 -312 -296 -322 -7 -4 -99 -6 -204 -5 l-192
3 -114 304 c-63 167 -114 306 -114 308 0 2 183 2 407 1 l407 -3 53 -140z m962
-152 c61 -164 111 -304 111 -311 0 -10 -84 -12 -402 -10 l-401 3 -54 144 c-30
79 -53 150 -51 157 2 7 65 81 141 164 l139 150 203 0 202 0 112 -297z m-814
-242 c25 -68 50 -132 56 -142 9 -18 23 -19 194 -19 102 0 185 -3 185 -6 0 -7
-521 -576 -525 -572 -9 9 -226 600 -223 608 2 5 59 70 127 145 90 98 127 132
132 122 5 -7 29 -69 54 -136z"/>
</g>
</svg>
