<?xml version="1.0" standalone="no"?>
<!DOCTYPE svg PUBLIC "-//W3C//DTD SVG 20010904//EN"
 "http://www.w3.org/TR/2001/REC-SVG-20010904/DTD/svg10.dtd">
<svg version="1.0" xmlns="http://www.w3.org/2000/svg"
 width="256.000000pt" height="256.000000pt" viewBox="0 0 256.000000 256.000000"
 preserveAspectRatio="xMidYMid meet">

<g transform="translate(0.000000,256.000000) scale(0.100000,-0.100000)"
fill="#000000" stroke="none">
<path d="M1277 2313 c-4 -3 -7 -14 -7 -24 0 -10 119 -355 265 -766 146 -411
265 -753 265 -760 0 -18 -7 -21 -217 -78 -204 -56 -240 -73 -212 -100 9 -10
206 -53 539 -120 289 -58 527 -104 531 -103 6 3 -1096 1913 -1120 1942 -14 17
-33 21 -44 9z"/>
<path d="M1179 2215 c-483 -826 -1100 -1908 -1095 -1921 17 -44 56 -2 533 561
585 690 581 685 598 685 7 0 81 -74 165 -165 146 -159 182 -187 196 -152 3 8
-72 231 -167 498 -94 266 -177 500 -184 519 l-12 34 -34 -59z"/>
<path d="M553 702 c-190 -229 -353 -425 -361 -434 -14 -17 40 -18 1132 -18
1032 0 1147 2 1153 16 3 8 2 19 -3 24 -5 5 -376 83 -824 174 -448 92 -821 168
-827 171 -7 2 -13 11 -13 18 0 8 27 105 60 217 33 112 60 211 60 220 0 60 -38
21 -377 -388z"/>
</g>
</svg>
