<?xml version="1.0" standalone="no"?>
<!DOCTYPE svg PUBLIC "-//W3C//DTD SVG 20010904//EN"
 "http://www.w3.org/TR/2001/REC-SVG-20010904/DTD/svg10.dtd">
<svg version="1.0" xmlns="http://www.w3.org/2000/svg"
 width="256.000000pt" height="256.000000pt" viewBox="0 0 256.000000 256.000000"
 preserveAspectRatio="xMidYMid meet">

<g transform="translate(0.000000,256.000000) scale(0.100000,-0.100000)"
fill="#000000" stroke="none">
<path d="M1747 2432 c-98 -53 -98 -51 0 -102 l62 -32 85 32 c47 18 86 36 86
40 0 6 -92 76 -135 102 -6 4 -50 -14 -98 -40z"/>
<path d="M1355 2311 c-82 -47 -83 -52 -23 -99 l52 -40 48 24 c27 14 62 33 78
43 l31 18 -54 42 c-30 22 -60 41 -68 41 -8 0 -37 -13 -64 -29z"/>
<path d="M1778 2096 c-42 -17 -80 -34 -83 -37 -3 -4 27 -27 68 -52 l74 -46 79
30 c43 17 82 34 87 38 6 6 -133 103 -144 100 -2 -1 -39 -15 -81 -33z"/>
<path d="M1005 2095 c-22 -8 -66 -21 -97 -30 -32 -9 -58 -19 -58 -23 0 -10
144 -102 160 -102 16 0 199 83 200 90 0 11 -127 80 -146 79 -10 0 -37 -7 -59
-14z"/>
<path d="M1333 2012 c-51 -26 -93 -49 -93 -52 0 -8 145 -90 160 -90 13 0 140
68 175 93 18 14 14 17 -63 56 -45 22 -83 41 -84 40 -2 0 -45 -21 -95 -47z"/>
<path d="M723 1939 c-46 -17 -83 -34 -83 -37 1 -8 134 -92 146 -92 17 0 184
63 184 69 -1 10 -136 91 -151 90 -8 0 -51 -14 -96 -30z"/>
<path d="M443 1843 c-62 -25 -113 -49 -113 -52 0 -3 36 -30 80 -59 l80 -52
112 56 111 56 -77 49 c-42 27 -77 49 -79 49 -1 -1 -53 -22 -114 -47z"/>
<path d="M1441 1830 c-41 -21 -78 -43 -82 -47 -5 -5 28 -30 72 -55 l80 -47 95
47 c52 25 94 49 94 52 0 8 -158 90 -173 90 -6 0 -45 -18 -86 -40z"/>
<path d="M950 1818 c-47 -16 -89 -33 -93 -38 -8 -7 122 -110 139 -110 13 0
198 70 206 78 4 4 -32 28 -80 54 l-87 46 -85 -30z"/>
<path d="M1953 1802 c-51 -26 -93 -49 -93 -52 0 -3 49 -30 108 -59 l108 -53
92 46 c51 25 92 48 92 51 0 3 -48 29 -107 59 l-108 54 -92 -46z"/>
<path d="M658 1704 c-49 -24 -88 -48 -88 -53 0 -5 35 -32 78 -60 l78 -51 102
47 c56 25 102 49 102 52 -1 6 -173 111 -181 110 -2 0 -43 -20 -91 -45z"/>
<path d="M1166 1684 c-48 -25 -86 -47 -85 -48 2 -2 40 -24 85 -50 l81 -46 106
46 c59 26 107 50 107 53 0 10 -168 91 -188 90 -9 0 -57 -20 -106 -45z"/>
<path d="M1681 1684 l-83 -46 98 -63 97 -63 76 35 c119 55 121 56 121 64 0 9
-194 119 -212 119 -7 0 -51 -21 -97 -46z"/>
<path d="M322 1228 l3 -492 425 -323 c234 -177 428 -323 433 -323 4 0 6 242 5
537 l-3 537 -415 268 c-228 148 -423 273 -433 279 -16 9 -17 -15 -15 -483z"/>
<path d="M1783 1418 l-513 -260 0 -530 c0 -501 1 -530 18 -524 22 9 994 527
1005 535 4 4 6 239 5 523 l-3 516 -512 -260z"/>
<path d="M898 1562 c-60 -26 -108 -49 -108 -52 1 -8 148 -90 163 -90 17 0 208
77 220 89 5 5 -30 29 -78 55 -48 25 -88 46 -89 46 0 -1 -49 -22 -108 -48z"/>
<path d="M1418 1563 c-60 -26 -108 -50 -108 -53 0 -3 52 -35 116 -72 l115 -67
105 56 c58 30 104 56 102 58 -4 4 -220 125 -222 125 0 0 -49 -22 -108 -47z"/>
<path d="M1133 1427 c-57 -28 -103 -54 -103 -57 0 -3 48 -35 107 -71 l107 -67
110 55 c90 45 106 57 95 67 -22 20 -195 126 -205 125 -5 0 -55 -23 -111 -52z"/>
</g>
</svg>
