<?xml version="1.0" standalone="no"?>
<!DOCTYPE svg PUBLIC "-//W3C//DTD SVG 20010904//EN"
 "http://www.w3.org/TR/2001/REC-SVG-20010904/DTD/svg10.dtd">
<svg version="1.0" xmlns="http://www.w3.org/2000/svg"
 width="256.000000pt" height="256.000000pt" viewBox="0 0 256.000000 256.000000"
 preserveAspectRatio="xMidYMid meet">

<g transform="translate(0.000000,256.000000) scale(0.100000,-0.100000)"
fill="#000000" stroke="none">
<path d="M1186 2389 c-149 -22 -327 -92 -457 -180 -82 -54 -207 -175 -269
-259 -291 -393 -291 -947 0 -1340 351 -474 1003 -589 1493 -263 177 117 377
364 377 463 0 72 -57 130 -127 130 -63 0 -93 -22 -144 -103 -113 -184 -302
-326 -509 -383 -101 -28 -321 -26 -423 4 -164 47 -324 151 -425 276 -299 368
-244 921 122 1212 238 189 559 236 835 122 156 -65 309 -197 400 -344 51 -82
81 -104 144 -104 50 0 88 24 112 70 33 64 11 127 -92 265 -241 323 -643 491
-1037 434z"/>
<path d="M1304 1611 c-49 -12 -92 -43 -122 -85 -23 -34 -27 -49 -27 -111 0
-61 4 -77 27 -113 27 -40 28 -46 30 -199 l3 -158 133 -3 132 -3 0 161 c0 156
1 162 24 193 47 61 52 148 14 222 -37 71 -136 115 -214 96z"/>
</g>
</svg>
