<?xml version="1.0" standalone="no"?>
<!DOCTYPE svg PUBLIC "-//W3C//DTD SVG 20010904//EN"
 "http://www.w3.org/TR/2001/REC-SVG-20010904/DTD/svg10.dtd">
<svg version="1.0" xmlns="http://www.w3.org/2000/svg"
 width="256.000000pt" height="256.000000pt" viewBox="0 0 256.000000 256.000000"
 preserveAspectRatio="xMidYMid meet">

<g transform="translate(0.000000,256.000000) scale(0.100000,-0.100000)"
fill="#000000" stroke="none">
<path d="M680 2291 l-185 -109 -207 -353 -207 -354 0 -220 -1 -220 200 -345
c110 -190 212 -355 227 -368 16 -13 104 -66 198 -118 l169 -94 410 0 409 0
156 91 c86 51 170 102 187 115 20 15 101 141 237 372 l207 349 0 216 0 215
-201 349 c-110 191 -208 355 -217 364 -9 9 -97 62 -194 117 l-177 102 -413 0
-413 -1 -185 -108z m340 -30 c0 -5 -20 -21 -45 -36 -38 -22 -55 -25 -108 -23
l-62 3 42 27 c31 20 56 28 105 31 34 2 64 4 66 5 1 1 2 -2 2 -7z m677 -103
l62 -108 -63 0 c-35 0 -91 3 -125 6 l-62 7 -54 97 c-30 53 -55 100 -55 103 0
4 53 6 117 5 l118 -3 62 -107z m-368 -45 c29 -51 50 -97 47 -101 -3 -5 -43
-30 -88 -57 -46 -26 -93 -54 -105 -62 -21 -14 -23 -11 -81 102 -59 115 -59
116 -38 130 11 7 59 36 105 64 77 45 86 49 96 33 6 -9 35 -59 64 -109z m595
-2 c32 -19 58 -45 77 -77 16 -27 29 -52 29 -57 0 -10 -94 38 -106 55 -23 30
-64 108 -57 108 4 0 30 -13 57 -29z m-1094 -45 c0 -3 -30 -52 -66 -110 l-66
-106 -58 0 c-31 0 -84 3 -117 6 l-60 7 60 103 60 104 123 0 c68 0 124 -2 124
-4z m174 -175 l49 -99 -36 -63 c-20 -35 -47 -81 -60 -103 l-24 -39 -51 85
c-28 47 -54 92 -58 101 -6 16 109 217 125 217 4 0 29 -44 55 -99z m751 17 c1
-2 -26 -47 -61 -100 l-63 -98 -116 0 c-63 0 -115 2 -115 5 0 6 99 185 111 200
7 9 235 3 244 -7z m218 -59 c34 -17 81 -42 104 -56 l41 -24 -60 -102 c-33 -56
-63 -105 -67 -109 -4 -5 -202 100 -219 117 -4 4 126 205 133 205 3 0 34 -14
68 -31z m-709 -98 c-21 -40 -38 -56 -86 -81 l-60 -32 24 42 c15 28 43 56 83
81 33 21 61 39 63 39 2 0 -9 -22 -24 -49z m-594 -162 l0 -131 -122 7 c-68 4
-124 8 -125 9 -1 1 -5 57 -9 124 l-7 122 131 0 132 0 0 -131z m1613 -45 c26
-44 47 -86 47 -92 0 -15 -119 -212 -129 -212 -3 0 -31 49 -60 108 l-53 108 52
89 c29 50 57 96 63 103 12 15 12 14 80 -104z m-567 9 l49 -28 -63 -3 c-54 -3
-70 1 -108 23 -24 14 -44 28 -44 30 0 3 26 5 59 5 45 0 69 -6 107 -27z m-296
-62 l135 -78 0 -42 c-1 -22 -2 -94 -3 -159 l-2 -118 -135 -78 c-74 -43 -141
-76 -148 -73 -6 4 -68 39 -137 79 l-125 73 -3 162 -2 161 132 75 c73 41 138
75 143 76 6 1 71 -34 145 -78z m-1164 -123 c-17 -32 -34 -58 -38 -58 -5 0 -8
27 -8 59 0 48 6 70 33 116 l32 57 6 -59 c4 -51 2 -64 -25 -115z m589 107 c21
-37 25 -55 23 -103 l-3 -57 -29 45 c-23 35 -31 60 -34 109 -5 73 3 74 43 6z
m1183 -190 c28 -58 52 -109 52 -113 0 -4 -50 -5 -111 -2 l-111 5 -58 100 c-32
55 -56 103 -53 108 2 4 55 7 116 7 l112 0 53 -105z m-1269 -57 l60 -103 -116
-3 c-64 -1 -120 1 -124 5 -4 4 -30 52 -59 106 l-52 97 116 0 115 0 60 -102z
m-351 -67 c28 -55 52 -104 52 -111 0 -11 -108 -200 -115 -200 -4 0 -115 189
-115 197 0 10 115 213 120 213 3 0 29 -45 58 -99z m1903 -148 l-40 -67 -3 60
c-3 50 2 68 26 114 48 90 51 91 54 22 3 -57 0 -68 -37 -129z m-587 127 c23
-42 26 -59 24 -112 l-3 -63 -32 56 c-27 45 -33 67 -33 113 0 31 4 56 8 56 5 0
21 -22 36 -50z m405 -116 c3 -3 7 -58 9 -124 l4 -120 -131 0 -131 0 0 131 0
131 123 -7 c67 -4 124 -9 126 -11z m-1151 -66 l57 -33 -66 -3 c-55 -2 -72 1
-112 23 -26 15 -49 31 -52 36 -4 5 20 9 55 9 50 0 70 -6 118 -32z m-300 -64
c53 -30 101 -59 105 -64 5 -4 -21 -53 -58 -108 l-67 -100 -96 51 c-53 27 -102
55 -109 61 -10 9 1 34 48 114 34 56 66 102 71 102 5 0 53 -25 106 -56z m997
-74 c30 -51 55 -97 55 -102 0 -12 -123 -207 -130 -208 -7 0 -110 188 -110 202
0 14 121 210 127 205 2 -3 28 -46 58 -97z m-290 -14 c-23 -39 -90 -94 -101
-83 -11 11 48 92 82 112 22 13 40 22 42 20 2 -2 -8 -24 -23 -49z m-277 -117
l-53 -100 -117 3 c-64 2 -119 6 -123 10 -7 7 88 156 113 176 11 8 53 12 125
12 l108 0 -53 -101z m982 -45 c0 -13 -114 -196 -125 -200 -6 -3 -64 -3 -129
-2 l-118 3 67 103 67 102 119 0 c65 0 119 -3 119 -6z m-646 -134 c31 -55 56
-104 56 -108 0 -12 -182 -123 -194 -119 -11 5 -121 195 -121 209 0 10 188 126
197 122 3 -2 31 -49 62 -104z m-777 -81 c18 -30 32 -57 33 -62 0 -4 -24 6 -52
22 -38 22 -62 45 -85 83 -18 29 -33 57 -33 61 0 5 24 -4 52 -21 39 -22 62 -44
85 -83z m357 22 c24 -5 38 -22 84 -104 30 -54 53 -99 51 -100 -2 -2 -57 -1
-121 1 l-118 4 -59 104 -60 104 97 -1 c53 -1 110 -4 126 -8z m736 -145 c0 -2
-25 -18 -56 -35 -49 -28 -63 -32 -122 -29 l-67 3 50 32 c45 29 58 33 123 33
39 0 72 -2 72 -4z"/>
</g>
</svg>
