<?xml version="1.0" standalone="no"?>
<!DOCTYPE svg PUBLIC "-//W3C//DTD SVG 20010904//EN"
 "http://www.w3.org/TR/2001/REC-SVG-20010904/DTD/svg10.dtd">
<svg version="1.0" xmlns="http://www.w3.org/2000/svg"
 width="256.000000pt" height="256.000000pt" viewBox="0 0 256.000000 256.000000"
 preserveAspectRatio="xMidYMid meet">

<g transform="translate(0.000000,256.000000) scale(0.100000,-0.100000)"
fill="#000000" stroke="none">
<path d="M1040 2360 l0 -120 -240 0 -240 0 0 -120 0 -120 -120 0 -120 0 0
-720 0 -720 120 0 120 0 0 -120 0 -120 240 0 240 0 0 -120 0 -120 240 0 239 0
3 118 3 117 243 3 242 2 0 120 0 120 120 0 120 0 0 240 0 240 -240 0 -239 0
-3 -118 -3 -117 -120 -5 -120 -5 -3 -117 -3 -118 -239 0 -240 0 0 120 0 120
-120 0 -120 0 0 480 0 480 120 0 120 0 0 120 0 120 240 0 239 0 3 -117 3 -118
120 -5 120 -5 3 -117 3 -118 239 0 240 0 0 240 0 240 -120 0 -120 0 0 120 0
120 -242 2 -243 3 -3 118 -3 117 -239 0 -240 0 0 -120z"/>
</g>
</svg>
