<?xml version="1.0" standalone="no"?>
<!DOCTYPE svg PUBLIC "-//W3C//DTD SVG 20010904//EN"
 "http://www.w3.org/TR/2001/REC-SVG-20010904/DTD/svg10.dtd">
<svg version="1.0" xmlns="http://www.w3.org/2000/svg"
 width="256.000000pt" height="256.000000pt" viewBox="0 0 256.000000 256.000000"
 preserveAspectRatio="xMidYMid meet">

<g transform="translate(0.000000,256.000000) scale(0.100000,-0.100000)"
fill="#000000" stroke="none">
<path d="M240 2171 l0 -230 523 -3 c584 -5 571 -3 725 -79 147 -72 273 -221
325 -384 18 -57 22 -93 22 -200 0 -107 -4 -143 -22 -200 -66 -207 -228 -365
-448 -436 -65 -20 -93 -22 -372 -27 l-303 -4 0 -224 0 -224 354 0 c197 0 389
5 433 11 114 15 280 74 379 133 252 149 417 370 491 654 31 119 43 374 24 515
-44 332 -229 614 -514 783 -100 59 -266 118 -380 133 -48 7 -302 11 -658 11
l-579 0 0 -229z"/>
<path d="M375 1471 c-78 -35 -135 -123 -135 -206 0 -109 103 -224 203 -225
l27 0 0 225 0 225 -27 0 c-16 0 -46 -9 -68 -19z"/>
<path d="M910 1265 l0 -225 159 0 c154 0 160 1 212 28 79 41 114 102 114 197
0 95 -35 156 -114 197 -52 27 -58 28 -212 28 l-159 0 0 -225z"/>
</g>
</svg>
