<?xml version="1.0" standalone="no"?>
<!DOCTYPE svg PUBLIC "-//W3C//DTD SVG 20010904//EN"
 "http://www.w3.org/TR/2001/REC-SVG-20010904/DTD/svg10.dtd">
<svg version="1.0" xmlns="http://www.w3.org/2000/svg"
 width="256.000000pt" height="256.000000pt" viewBox="0 0 256.000000 256.000000"
 preserveAspectRatio="xMidYMid meet">

<g transform="translate(0.000000,256.000000) scale(0.100000,-0.100000)"
fill="#000000" stroke="none">
<path d="M368 1993 l-3 -328 -140 -5 -140 -5 -3 -117 -3 -117 143 -3 143 -3 0
-120 0 -120 -143 -3 -143 -3 3 -117 3 -117 143 -3 142 -3 0 -325 0 -325 508 4
507 3 100 27 c323 84 551 259 682 523 l46 94 122 0 c81 0 125 4 133 12 8 8 12
49 12 120 l0 107 -101 3 -102 3 0 120 0 120 99 5 99 5 0 115 0 115 -127 3
-128 3 -34 73 c-116 252 -338 443 -616 530 -157 50 -234 56 -737 56 l-463 0
-2 -327z m1040 91 c203 -41 395 -170 504 -338 68 -106 135 -96 -637 -96 l-675
0 0 225 0 225 365 0 c293 0 381 -3 443 -16z m617 -789 l0 -120 -712 -3 -713
-2 0 125 0 125 713 -2 712 -3 0 -120z m-75 -380 c0 -23 -59 -111 -115 -173
-90 -99 -226 -178 -390 -226 -64 -18 -105 -20 -457 -24 l-388 -3 0 220 0 221
675 0 c603 0 675 -2 675 -15z"/>
</g>
</svg>
