<?xml version="1.0" standalone="no"?>
<!DOCTYPE svg PUBLIC "-//W3C//DTD SVG 20010904//EN"
 "http://www.w3.org/TR/2001/REC-SVG-20010904/DTD/svg10.dtd">
<svg version="1.0" xmlns="http://www.w3.org/2000/svg"
 width="256.000000pt" height="256.000000pt" viewBox="0 0 256.000000 256.000000"
 preserveAspectRatio="xMidYMid meet">

<g transform="translate(0.000000,256.000000) scale(0.100000,-0.100000)"
fill="#000000" stroke="none">
<path d="M1283 2002 l-331 -147 -391 -724 c-215 -398 -389 -726 -387 -729 7
-6 668 286 682 301 8 9 653 1196 773 1425 9 17 9 22 -1 21 -7 0 -162 -67 -345
-147z"/>
<path d="M1246 1277 l-298 -552 173 -168 c95 -92 176 -164 180 -160 3 5 127
235 274 513 147 278 277 524 290 547 l23 42 -164 163 c-91 90 -168 164 -172
165 -4 2 -141 -246 -306 -550z"/>
<path d="M1939 1438 c-7 -13 -71 -133 -144 -268 -73 -135 -137 -255 -144 -268
l-12 -23 103 5 c57 3 178 9 270 12 l167 6 107 197 c59 108 108 199 110 202 4
7 -413 159 -433 159 -7 0 -18 -10 -24 -22z"/>
</g>
</svg>
