<?xml version="1.0" standalone="no"?>
<!DOCTYPE svg PUBLIC "-//W3C//DTD SVG 20010904//EN"
 "http://www.w3.org/TR/2001/REC-SVG-20010904/DTD/svg10.dtd">
<svg version="1.0" xmlns="http://www.w3.org/2000/svg"
 width="256.000000pt" height="256.000000pt" viewBox="0 0 256.000000 256.000000"
 preserveAspectRatio="xMidYMid meet">

<g transform="translate(0.000000,256.000000) scale(0.100000,-0.100000)"
fill="#000000" stroke="none">
<path d="M160 2051 l0 -110 153 -233 c192 -292 177 -267 147 -247 -32 21 -271
173 -287 183 -10 6 -13 -118 -13 -603 l0 -611 511 0 c411 0 510 3 506 13 -2 7
-39 66 -81 131 -43 65 -73 116 -68 115 5 -2 99 -62 210 -133 l202 -128 213 4
c234 5 317 19 422 69 137 65 266 208 306 340 19 63 20 88 17 455 l-3 389 -27
69 c-75 194 -216 309 -458 373 l-105 27 -822 4 -823 3 0 -110z m1604 -306 c91
-19 142 -53 169 -113 21 -45 22 -58 19 -362 -4 -341 -4 -345 -62 -393 -60 -51
-65 -51 -692 -55 l-588 -3 0 471 0 470 543 0 c438 0 555 -3 611 -15z"/>
</g>
</svg>
