<?xml version="1.0" standalone="no"?>
<!DOCTYPE svg PUBLIC "-//W3C//DTD SVG 20010904//EN"
 "http://www.w3.org/TR/2001/REC-SVG-20010904/DTD/svg10.dtd">
<svg version="1.0" xmlns="http://www.w3.org/2000/svg"
 width="256.000000pt" height="256.000000pt" viewBox="0 0 256.000000 256.000000"
 preserveAspectRatio="xMidYMid meet">

<g transform="translate(0.000000,256.000000) scale(0.100000,-0.100000)"
fill="#000000" stroke="none">
<path d="M776 2223 c-10 -36 -68 -375 -64 -378 2 -2 210 -7 463 -10 494 -8
555 -13 652 -60 69 -34 125 -100 148 -171 39 -125 -8 -439 -92 -614 -70 -146
-191 -233 -376 -271 -82 -17 -140 -19 -544 -19 l-453 0 -5 -23 c-10 -44 -65
-357 -65 -373 0 -14 49 -15 563 -11 532 4 567 5 662 26 189 42 328 115 455
241 94 93 140 157 201 282 133 268 195 700 134 933 -69 266 -265 412 -610 454
-54 7 -283 11 -577 11 -455 0 -487 -1 -492 -17z"/>
<path d="M299 1456 c-61 -16 -104 -48 -135 -101 -29 -50 -88 -275 -75 -288 4
-4 224 -6 487 -4 370 2 487 6 516 17 51 18 105 65 128 111 20 38 70 227 70
262 0 16 -29 17 -472 16 -341 0 -486 -4 -519 -13z"/>
</g>
</svg>
