<?xml version="1.0" standalone="no"?>
<!DOCTYPE svg PUBLIC "-//W3C//DTD SVG 20010904//EN"
 "http://www.w3.org/TR/2001/REC-SVG-20010904/DTD/svg10.dtd">
<svg version="1.0" xmlns="http://www.w3.org/2000/svg"
 width="256.000000pt" height="256.000000pt" viewBox="0 0 256.000000 256.000000"
 preserveAspectRatio="xMidYMid meet">

<g transform="translate(0.000000,256.000000) scale(0.100000,-0.100000)"
fill="#000000" stroke="none">
<path d="M1410 2465 c-184 -38 -335 -119 -466 -249 -106 -107 -169 -209 -220
-358 -33 -98 -52 -241 -34 -262 16 -20 113 -22 127 -3 6 6 15 51 22 98 47 322
308 583 630 630 47 7 92 16 99 22 16 12 16 109 0 125 -15 15 -74 14 -158 -3z"/>
<path d="M1410 2234 c-180 -47 -349 -183 -428 -344 -64 -129 -91 -267 -60
-298 14 -14 96 -16 116 -3 8 4 20 42 27 83 24 138 103 262 217 340 68 46 175
87 226 88 58 0 72 14 72 73 0 29 -5 58 -12 65 -16 16 -90 14 -158 -4z"/>
<path d="M1460 2014 c-149 -40 -277 -170 -316 -323 -12 -49 -13 -70 -5 -88 10
-22 16 -24 67 -21 62 3 67 8 84 75 23 94 119 190 213 213 67 17 72 22 75 81 3
42 -1 56 -14 66 -22 16 -35 16 -104 -3z"/>
<path d="M1593 1869 c-7 -7 -13 -36 -13 -65 0 -29 5 -56 13 -61 6 -6 37 -13
67 -17 346 -43 611 -298 661 -637 7 -46 17 -90 22 -96 5 -8 32 -13 62 -13 75
0 81 10 67 119 -47 353 -300 645 -645 745 -107 31 -217 43 -234 25z"/>
<path d="M1592 1638 c-18 -18 -15 -103 4 -122 8 -9 27 -16 42 -16 89 -1 230
-69 313 -151 70 -70 134 -193 144 -276 11 -86 17 -93 78 -93 29 0 58 5 65 12
31 31 3 170 -60 298 -59 119 -169 229 -288 288 -128 63 -267 91 -298 60z"/>
<path d="M90 1564 c-11 -12 -11 -32 -2 -103 47 -351 301 -646 642 -744 109
-32 215 -44 235 -27 19 16 21 113 3 127 -7 6 -38 13 -68 17 -146 18 -276 73
-388 162 -150 119 -245 284 -273 475 -7 46 -17 90 -22 97 -14 18 -111 16 -127
-4z"/>
<path d="M320 1565 c-18 -22 -7 -126 23 -208 36 -99 84 -173 162 -252 111
-111 248 -179 387 -192 74 -7 88 4 88 68 0 55 -18 79 -59 79 -86 0 -231 71
-312 151 -70 70 -134 193 -144 276 -11 86 -17 93 -79 93 -36 0 -58 -5 -66 -15z"/>
<path d="M540 1559 c-8 -15 -8 -34 -1 -70 32 -149 146 -281 284 -329 127 -45
157 -35 157 49 0 57 -6 63 -81 85 -104 29 -181 108 -209 213 -18 67 -25 73
-86 73 -44 0 -55 -4 -64 -21z"/>
<path d="M1598 1419 c-14 -7 -18 -23 -18 -63 0 -61 6 -68 73 -86 105 -28 182
-103 214 -209 23 -77 27 -81 89 -81 72 0 83 20 60 111 -36 139 -139 255 -272
307 -65 26 -125 34 -146 21z"/>
<path d="M1293 968 c-6 -7 -16 -34 -23 -61 -28 -105 -103 -182 -209 -214 -77
-23 -81 -28 -81 -89 0 -68 18 -80 91 -65 170 37 313 180 350 350 15 73 3 91
-65 91 -31 0 -58 -5 -63 -12z"/>
<path d="M1516 964 c-9 -8 -16 -27 -16 -42 0 -46 -26 -127 -61 -193 -68 -128
-211 -234 -349 -259 -108 -20 -110 -22 -110 -84 0 -71 12 -81 93 -73 198 19
411 169 505 357 63 128 91 267 60 298 -18 18 -103 15 -122 -4z"/>
<path d="M1743 968 c-5 -7 -15 -51 -22 -97 -50 -339 -315 -594 -661 -637 -30
-4 -61 -11 -67 -17 -19 -14 -17 -111 2 -127 20 -17 126 -5 233 26 344 100 597
393 644 745 14 109 8 119 -67 119 -30 0 -57 -5 -62 -12z"/>
</g>
</svg>
