<?xml version="1.0" standalone="no"?>
<!DOCTYPE svg PUBLIC "-//W3C//DTD SVG 20010904//EN"
 "http://www.w3.org/TR/2001/REC-SVG-20010904/DTD/svg10.dtd">
<svg version="1.0" xmlns="http://www.w3.org/2000/svg"
 width="256.000000pt" height="256.000000pt" viewBox="0 0 256.000000 256.000000"
 preserveAspectRatio="xMidYMid meet">

<g transform="translate(0.000000,256.000000) scale(0.100000,-0.100000)"
fill="#000000" stroke="none">
<path d="M1090 2465 c-510 -80 -918 -492 -996 -1005 -120 -797 565 -1485 1359
-1365 766 115 1224 913 937 1632 -205 514 -752 824 -1300 738z m115 -230 c15
-36 67 -128 115 -204 172 -272 210 -362 210 -501 0 -149 -63 -291 -243 -548
-179 -255 -230 -387 -231 -590 l-1 -114 -40 7 c-69 10 -201 61 -281 106 -247
141 -407 379 -460 681 -23 132 -15 380 16 498 100 378 363 629 741 709 146 31
141 32 174 -44z"/>
</g>
</svg>
