<?xml version="1.0" standalone="no"?>
<!DOCTYPE svg PUBLIC "-//W3C//DTD SVG 20010904//EN"
 "http://www.w3.org/TR/2001/REC-SVG-20010904/DTD/svg10.dtd">
<svg version="1.0" xmlns="http://www.w3.org/2000/svg"
 width="256.000000pt" height="256.000000pt" viewBox="0 0 256.000000 256.000000"
 preserveAspectRatio="xMidYMid meet">

<g transform="translate(0.000000,256.000000) scale(0.100000,-0.100000)"
fill="#000000" stroke="none">
<path d="M90 2236 c0 -1 103 -93 229 -202 l229 -199 -57 -30 c-90 -49 -143
-89 -208 -159 -77 -82 -126 -165 -166 -281 -29 -82 -31 -101 -31 -220 -1 -151
14 -216 74 -340 74 -152 196 -271 358 -347 135 -64 175 -69 560 -66 l338 3
-195 170 -195 170 -151 5 c-137 5 -155 8 -207 33 -165 80 -258 254 -228 426
25 146 115 255 260 316 40 17 80 20 381 25 l337 5 -400 348 -399 347 -265 0
c-145 0 -264 -2 -264 -4z"/>
<path d="M1150 2227 c8 -7 98 -86 200 -174 l186 -161 145 -3 c144 -4 146 -4
221 -41 305 -151 299 -575 -10 -721 l-67 -32 -341 -5 -342 -5 401 -347 401
-348 263 0 c145 0 263 2 263 4 0 2 -103 93 -230 202 l-230 198 68 36 c87 46
105 59 176 128 157 153 236 356 223 572 -7 117 -26 191 -77 295 -71 147 -198
272 -345 341 -141 65 -154 67 -555 71 -312 4 -363 2 -350 -10z"/>
</g>
</svg>
