<?xml version="1.0" standalone="no"?>
<!DOCTYPE svg PUBLIC "-//W3C//DTD SVG 20010904//EN"
 "http://www.w3.org/TR/2001/REC-SVG-20010904/DTD/svg10.dtd">
<svg version="1.0" xmlns="http://www.w3.org/2000/svg"
 width="256.000000pt" height="256.000000pt" viewBox="0 0 256.000000 256.000000"
 preserveAspectRatio="xMidYMid meet">

<g transform="translate(0.000000,256.000000) scale(0.100000,-0.100000)"
fill="#000000" stroke="none">
<path d="M749 2195 c-255 -157 -474 -296 -486 -311 l-23 -25 0 -557 c0 -472 2
-561 15 -578 15 -22 387 -259 434 -277 34 -13 80 7 98 43 10 19 13 154 13 585
1 424 4 564 13 576 16 21 51 39 76 39 10 0 127 -58 258 -130 264 -144 284
-150 327 -99 l26 31 0 406 c0 304 -3 413 -13 432 -15 30 -212 149 -248 150
-17 0 -186 -98 -490 -285z"/>
<path d="M1849 2105 c-15 -8 -32 -29 -38 -46 -8 -22 -11 -207 -11 -586 l0
-554 -25 -24 c-14 -15 -36 -25 -52 -25 -17 0 -122 52 -266 130 -149 81 -249
130 -267 130 -16 0 -41 -11 -57 -24 l-28 -24 -3 -399 c-2 -266 0 -410 8 -435
9 -32 22 -44 93 -87 115 -69 151 -85 179 -78 31 8 949 573 966 594 9 13 12
146 12 583 l0 567 -22 20 c-41 37 -408 264 -436 268 -15 3 -39 -2 -53 -10z"/>
</g>
</svg>
