<?xml version="1.0" standalone="no"?>
<!DOCTYPE svg PUBLIC "-//W3C//DTD SVG 20010904//EN"
 "http://www.w3.org/TR/2001/REC-SVG-20010904/DTD/svg10.dtd">
<svg version="1.0" xmlns="http://www.w3.org/2000/svg"
 width="256.000000pt" height="256.000000pt" viewBox="0 0 256.000000 256.000000"
 preserveAspectRatio="xMidYMid meet">

<g transform="translate(0.000000,256.000000) scale(0.100000,-0.100000)"
fill="#000000" stroke="none">
<path d="M80 1491 l0 -191 371 0 372 0 -6 56 c-12 118 -98 232 -217 288 l-65
31 -227 3 -228 4 0 -191z"/>
<path d="M910 1491 l0 -191 371 0 372 0 -6 44 c-19 134 -113 259 -232 307 -56
22 -76 24 -282 27 l-223 3 0 -190z"/>
<path d="M1630 1673 c1 -9 553 -798 577 -825 14 -15 35 -18 140 -18 69 0 123
4 123 9 0 5 -131 197 -291 425 l-291 416 -129 0 c-71 0 -129 -3 -129 -7z"/>
<path d="M1997 1667 c41 -69 238 -336 243 -330 4 4 44 62 90 128 46 66 99 141
117 168 l35 47 -247 0 c-203 0 -245 -2 -238 -13z"/>
<path d="M82 1028 l3 -193 170 -3 c205 -3 289 8 367 50 107 57 187 173 196
286 l4 52 -371 0 -371 0 2 -192z"/>
<path d="M910 1025 l0 -195 178 0 c204 0 275 9 349 45 108 53 196 176 210 294
l6 51 -372 0 -371 0 0 -195z"/>
<path d="M1751 1021 c-61 -88 -114 -167 -117 -175 -5 -14 20 -16 236 -16 134
0 240 4 238 9 -6 17 -233 340 -239 341 -3 0 -56 -72 -118 -159z"/>
</g>
</svg>
