<?xml version="1.0" standalone="no"?>
<!DOCTYPE svg PUBLIC "-//W3C//DTD SVG 20010904//EN"
 "http://www.w3.org/TR/2001/REC-SVG-20010904/DTD/svg10.dtd">
<svg version="1.0" xmlns="http://www.w3.org/2000/svg"
 width="256.000000pt" height="256.000000pt" viewBox="0 0 256.000000 256.000000"
 preserveAspectRatio="xMidYMid meet">

<g transform="translate(0.000000,256.000000) scale(0.100000,-0.100000)"
fill="#000000" stroke="none">
<path d="M1210 2391 c-50 -16 -87 -40 -123 -80 -68 -75 -67 -70 -67 -505 0
-440 0 -435 76 -512 l39 -38 5 464 c5 436 6 467 24 493 53 78 179 78 232 0 17
-25 20 -54 24 -256 l5 -228 58 51 57 52 0 184 c0 136 -4 194 -14 218 -20 47
-82 114 -130 138 -44 22 -145 33 -186 19z"/>
<path d="M445 1954 c-174 -62 -226 -303 -92 -432 31 -30 543 -331 642 -378 34
-16 68 -24 106 -24 55 0 119 15 119 28 0 4 -176 108 -390 231 -244 141 -396
234 -407 250 -9 14 -18 46 -21 71 -7 83 70 157 151 145 22 -3 112 -49 219
-110 100 -58 183 -103 186 -101 2 3 -3 39 -12 80 l-17 74 -136 79 c-75 43
-150 83 -167 90 -42 16 -132 14 -181 -3z"/>
<path d="M1936 1958 c-58 -21 -622 -352 -659 -387 -21 -20 -47 -52 -57 -71
-21 -41 -38 -116 -24 -107 5 2 181 104 392 226 241 139 396 223 420 226 72 11
152 -58 152 -132 0 -68 -25 -100 -129 -160 -53 -31 -138 -81 -189 -111 -63
-36 -90 -58 -84 -64 6 -6 39 -18 75 -28 l65 -18 139 80 c76 43 152 93 170 110
136 131 82 372 -96 433 -51 17 -132 19 -175 3z"/>
<path d="M1368 1428 c-16 -5 -28 -13 -28 -16 0 -4 176 -108 390 -231 244 -141
396 -234 407 -250 9 -14 18 -46 21 -71 7 -83 -70 -157 -151 -145 -22 3 -112
49 -219 110 -100 58 -183 103 -186 101 -2 -3 3 -38 12 -79 l17 -75 138 -80
c167 -96 195 -106 277 -99 220 17 320 292 161 445 -31 30 -543 331 -642 378
-54 26 -146 31 -197 12z"/>
<path d="M1420 849 c0 -424 -1 -457 -19 -489 -47 -89 -180 -97 -237 -13 -17
25 -20 54 -24 256 l-5 228 -57 -51 -58 -52 0 -184 c0 -207 4 -225 66 -294 58
-64 105 -85 194 -85 88 0 136 21 193 84 68 75 67 70 67 506 l0 393 -27 52
c-16 29 -43 64 -60 78 l-33 25 0 -454z"/>
<path d="M523 1148 c-76 -44 -152 -93 -170 -110 -135 -130 -82 -372 96 -433
53 -18 125 -19 171 -3 55 19 632 355 668 389 39 37 68 90 78 144 l7 38 -34
-20 c-257 -155 -757 -434 -787 -438 -80 -12 -157 62 -150 145 3 25 12 57 21
71 10 14 99 72 206 134 211 122 208 117 89 148 l-57 15 -138 -80z"/>
</g>
</svg>
