<?xml version="1.0" standalone="no"?>
<!DOCTYPE svg PUBLIC "-//W3C//DTD SVG 20010904//EN"
 "http://www.w3.org/TR/2001/REC-SVG-20010904/DTD/svg10.dtd">
<svg version="1.0" xmlns="http://www.w3.org/2000/svg"
 width="256.000000pt" height="256.000000pt" viewBox="0 0 256.000000 256.000000"
 preserveAspectRatio="xMidYMid meet">

<g transform="translate(0.000000,256.000000) scale(0.100000,-0.100000)"
fill="#000000" stroke="none">
<path d="M1066 2389 c-274 -26 -482 -103 -617 -230 l-49 -45 0 -633 c0 -694 0
-689 61 -818 54 -113 161 -209 394 -351 214 -130 326 -162 518 -148 154 12
249 54 507 224 198 131 277 229 321 400 18 70 19 115 19 696 l0 622 -52 51
c-110 108 -294 187 -509 218 -136 20 -455 27 -593 14z m606 -243 c105 -19 205
-55 271 -98 l48 -30 -3 -597 -3 -596 -28 -57 c-16 -33 -48 -75 -75 -99 -63
-56 -225 -162 -342 -223 l-95 -51 -136 0 -136 0 -84 43 c-90 47 -327 200 -348
226 -11 13 -5 19 41 42 29 14 112 60 184 100 l130 74 105 6 c57 3 137 2 178
-2 115 -10 132 -41 75 -140 -30 -54 -48 -67 -97 -73 -37 -5 -44 -11 -61 -45
-11 -22 -21 -61 -24 -88 l-5 -48 56 0 c52 0 56 2 76 35 11 19 26 36 33 36 49
5 72 9 79 16 4 4 17 40 28 78 11 39 31 102 45 140 45 124 30 166 -74 205 -73
27 -75 42 -7 84 61 37 87 30 139 -39 43 -56 47 -90 18 -128 -11 -14 -20 -35
-20 -48 0 -24 56 -119 71 -119 18 0 59 77 69 129 15 78 12 132 -7 168 -10 17
-57 72 -104 122 -70 75 -90 91 -115 91 -16 0 -38 -7 -48 -15 -26 -20 -96 -19
-123 0 -28 20 -45 82 -37 134 5 30 0 56 -21 110 -29 73 -28 101 4 101 24 0 28
-11 41 -116 16 -124 48 -174 112 -174 38 0 53 27 77 140 26 119 68 245 86 260
17 14 34 5 45 -24 8 -20 8 -20 19 7 14 36 14 82 0 110 -7 12 -36 47 -65 78
-29 31 -56 68 -60 83 -4 18 -13 26 -27 26 -12 0 -39 12 -61 28 -38 26 -46 27
-200 33 l-161 6 -28 -26 c-16 -14 -37 -41 -49 -58 -18 -31 -23 -33 -78 -33
-60 0 -90 -7 -90 -20 0 -4 14 -10 30 -13 35 -8 40 -33 12 -67 l-18 -23 -48 22
c-27 11 -50 21 -52 21 -10 0 -1 -29 21 -75 35 -71 33 -79 -29 -104 -29 -12
-66 -35 -81 -51 l-27 -29 36 -15 c20 -8 39 -22 42 -31 6 -15 -101 -190 -132
-216 -12 -10 -14 40 -12 342 l3 354 55 33 c72 43 190 79 315 97 136 19 545 14
667 -9z"/>
</g>
</svg>
