<?xml version="1.0" standalone="no"?>
<!DOCTYPE svg PUBLIC "-//W3C//DTD SVG 20010904//EN"
 "http://www.w3.org/TR/2001/REC-SVG-20010904/DTD/svg10.dtd">
<svg version="1.0" xmlns="http://www.w3.org/2000/svg"
 width="256.000000pt" height="256.000000pt" viewBox="0 0 256.000000 256.000000"
 preserveAspectRatio="xMidYMid meet">

<g transform="translate(0.000000,256.000000) scale(0.100000,-0.100000)"
fill="#000000" stroke="none">
<path d="M772 2137 l-532 -341 0 -652 0 -652 334 -201 c183 -111 338 -201 343
-201 9 0 133 556 133 596 0 13 -32 39 -105 86 l-105 67 2 273 3 272 190 113
c105 62 208 123 231 135 l41 21 221 -134 222 -134 -3 -274 -2 -275 -100 -69
c-55 -37 -99 -74 -98 -80 1 -7 29 -141 62 -298 34 -157 61 -288 61 -292 0 -4
5 -7 10 -7 6 0 164 91 350 202 l340 201 0 651 0 651 -521 335 c-287 184 -527
338 -534 342 -7 4 -230 -133 -543 -335z"/>
</g>
</svg>
