<?xml version="1.0" standalone="no"?>
<!DOCTYPE svg PUBLIC "-//W3C//DTD SVG 20010904//EN"
 "http://www.w3.org/TR/2001/REC-SVG-20010904/DTD/svg10.dtd">
<svg version="1.0" xmlns="http://www.w3.org/2000/svg"
 width="256.000000pt" height="256.000000pt" viewBox="0 0 256.000000 256.000000"
 preserveAspectRatio="xMidYMid meet">

<g transform="translate(0.000000,256.000000) scale(0.100000,-0.100000)"
fill="#000000" stroke="none">
<path d="M1092 2384 c-467 -78 -840 -455 -917 -925 -98 -609 317 -1185 926
-1284 205 -33 431 -7 607 71 l54 24 -185 193 -186 193 -78 1 c-225 5 -463 155
-564 355 -48 95 -75 257 -50 296 11 17 -58 54 745 -395 367 -205 671 -373 675
-373 3 0 30 33 60 72 295 399 292 946 -7 1344 -249 330 -670 497 -1080 428z
m366 -530 c206 -42 355 -174 419 -373 17 -54 28 -270 15 -290 -7 -10 -112 47
-478 259 -258 150 -475 278 -482 285 -10 9 -1 18 47 44 156 83 317 108 479 75z"/>
</g>
</svg>
