<?xml version="1.0" standalone="no"?>
<!DOCTYPE svg PUBLIC "-//W3C//DTD SVG 20010904//EN"
 "http://www.w3.org/TR/2001/REC-SVG-20010904/DTD/svg10.dtd">
<svg version="1.0" xmlns="http://www.w3.org/2000/svg"
 width="256.000000pt" height="256.000000pt" viewBox="0 0 256.000000 256.000000"
 preserveAspectRatio="xMidYMid meet">

<g transform="translate(0.000000,256.000000) scale(0.100000,-0.100000)"
fill="#000000" stroke="none">
<path d="M550 2345 l0 -135 388 0 389 0 99 -49 c128 -62 301 -178 377 -250
160 -152 253 -357 278 -617 25 -255 -30 -414 -209 -605 -102 -108 -190 -176
-301 -232 l-84 -42 -291 0 -291 0 -3 543 -2 542 -160 0 -160 0 0 -710 0 -710
444 0 444 0 103 36 c220 76 306 132 471 302 138 143 228 289 281 457 91 288
48 657 -115 993 -147 302 -393 528 -644 592 -71 19 -112 20 -546 20 l-468 0 0
-135z"/>
<path d="M160 1260 l0 -780 155 0 155 0 2 623 3 622 310 3 c194 1 330 -2 362
-8 163 -34 293 -164 338 -337 19 -73 19 -198 0 -252 -48 -138 -207 -242 -392
-258 l-63 -6 0 -133 0 -134 45 0 c76 0 235 20 323 40 130 31 174 54 244 129
129 137 187 279 195 476 15 346 -113 592 -372 717 -166 79 -152 78 -762 78
l-543 0 0 -780z"/>
</g>
</svg>
