<?xml version="1.0" standalone="no"?>
<!DOCTYPE svg PUBLIC "-//W3C//DTD SVG 20010904//EN"
 "http://www.w3.org/TR/2001/REC-SVG-20010904/DTD/svg10.dtd">
<svg version="1.0" xmlns="http://www.w3.org/2000/svg"
 width="256.000000pt" height="256.000000pt" viewBox="0 0 256.000000 256.000000"
 preserveAspectRatio="xMidYMid meet">

<g transform="translate(0.000000,256.000000) scale(0.100000,-0.100000)"
fill="#000000" stroke="none">
<path d="M1127 2389 c-31 -5 -75 -13 -96 -19 -39 -10 -40 -11 -71 -108 -18
-53 -36 -101 -40 -105 -4 -5 -52 14 -107 41 l-99 50 -60 -42 c-34 -22 -83 -60
-110 -82 l-48 -42 181 -90 c100 -50 185 -97 189 -104 5 -7 10 -57 12 -110 l4
-98 -80 0 c-141 0 -126 -13 -231 198 l-93 187 -42 -49 c-22 -26 -60 -76 -83
-109 l-41 -61 50 -99 c27 -55 46 -102 43 -106 -4 -3 -52 -22 -108 -41 l-101
-35 -13 -60 c-7 -33 -15 -95 -19 -137 l-7 -77 224 75 224 75 179 -10 179 -9
71 -71 71 -71 -71 -71 -71 -71 -179 -9 -179 -10 -224 75 -224 75 7 -77 c4 -42
13 -104 19 -137 l13 -60 101 -35 c56 -19 104 -38 108 -41 3 -4 -17 -50 -45
-103 l-52 -96 46 -67 c25 -38 63 -88 85 -113 l39 -44 93 186 c105 211 90 198
230 198 l79 0 0 -72 c0 -148 14 -131 -198 -237 l-187 -93 49 -42 c26 -22 76
-60 109 -83 l61 -41 99 50 c55 27 103 46 107 41 4 -4 22 -52 39 -105 32 -95
34 -98 69 -108 55 -15 221 -34 229 -26 4 4 -25 106 -66 226 l-72 220 9 176 10
177 71 71 71 71 0 -473 0 -472 43 0 c68 0 216 27 302 55 699 228 991 1054 593
1676 -164 256 -454 444 -763 494 -49 8 -109 15 -132 15 l-43 0 0 -472 0 -473
-71 71 -71 71 -10 177 -9 177 70 212 c39 117 71 218 71 225 0 14 -43 14 -133
1z m495 -308 c256 -109 452 -350 509 -626 72 -347 -76 -704 -373 -901 -66 -44
-189 -103 -215 -104 -10 0 -13 173 -13 830 0 657 3 830 13 830 6 0 42 -13 79
-29z"/>
</g>
</svg>
