<?xml version="1.0" standalone="no"?>
<!DOCTYPE svg PUBLIC "-//W3C//DTD SVG 20010904//EN"
 "http://www.w3.org/TR/2001/REC-SVG-20010904/DTD/svg10.dtd">
<svg version="1.0" xmlns="http://www.w3.org/2000/svg"
 width="256.000000pt" height="256.000000pt" viewBox="0 0 256.000000 256.000000"
 preserveAspectRatio="xMidYMid meet">

<g transform="translate(0.000000,256.000000) scale(0.100000,-0.100000)"
fill="#000000" stroke="none">
<path d="M965 2389 c-212 -31 -433 -136 -596 -283 l-43 -40 114 -107 114 -107
36 32 c82 74 198 139 315 176 106 34 292 39 407 11 168 -40 292 -113 416 -246
80 -86 158 -230 188 -350 26 -102 23 -285 -5 -389 -76 -283 -290 -497 -576
-578 -110 -30 -295 -30 -408 0 -106 29 -242 101 -316 169 l-63 56 -114 -114
-115 -114 67 -63 c172 -161 426 -265 679 -279 556 -30 1056 361 1159 907 21
107 21 313 0 420 -51 271 -210 522 -438 692 -228 170 -538 248 -821 207z"/>
<path d="M955 2013 c-90 -19 -213 -77 -294 -138 -124 -95 -230 -256 -267 -410
-26 -104 -24 -268 5 -369 68 -245 267 -451 500 -520 299 -88 620 15 806 259
89 117 139 242 151 376 l7 69 -269 0 -269 0 93 -93 92 -93 -28 -44 c-118 -185
-358 -251 -557 -154 -220 108 -308 374 -195 593 28 57 110 144 164 174 79 46
140 60 244 55 110 -5 163 -23 247 -87 l50 -38 104 109 103 110 -24 25 c-36 38
-151 111 -218 139 -132 54 -302 68 -445 37z"/>
<path d="M977 1625 c-121 -45 -210 -165 -232 -316 -14 -91 42 -231 118 -295
26 -22 157 -94 172 -94 3 0 5 162 5 360 0 282 -3 360 -12 359 -7 0 -30 -7 -51
-14z"/>
</g>
</svg>
