<?xml version="1.0" standalone="no"?>
<!DOCTYPE svg PUBLIC "-//W3C//DTD SVG 20010904//EN"
 "http://www.w3.org/TR/2001/REC-SVG-20010904/DTD/svg10.dtd">
<svg version="1.0" xmlns="http://www.w3.org/2000/svg"
 width="256.000000pt" height="256.000000pt" viewBox="0 0 256.000000 256.000000"
 preserveAspectRatio="xMidYMid meet">

<g transform="translate(0.000000,256.000000) scale(0.100000,-0.100000)"
fill="#000000" stroke="none">
<path d="M1217 2368 c-7 -18 -24 -61 -36 -95 l-23 -63 -384 0 -383 0 -25 -22
c-21 -19 -196 -333 -196 -352 0 -3 319 -6 708 -6 561 0 718 -3 760 -13 76 -20
127 -60 158 -124 25 -49 26 -61 21 -141 -8 -131 -74 -299 -169 -427 -168 -226
-421 -366 -691 -382 l-97 -6 14 34 c78 190 316 811 316 826 0 11 -9 28 -21 39
-19 18 -39 19 -247 19 l-226 0 -267 -650 -267 -650 41 -7 c23 -3 86 -7 139 -7
l97 -1 -25 -60 c-13 -33 -24 -62 -24 -65 0 -3 62 -4 137 -3 l137 3 26 65 c26
64 27 65 74 74 26 4 50 6 53 2 3 -3 -6 -33 -21 -66 -14 -34 -26 -66 -26 -71 0
-6 54 -8 137 -7 l137 3 37 95 c20 52 43 97 50 101 8 4 59 19 115 34 137 36
334 120 461 197 259 156 443 355 572 622 164 339 160 607 -14 764 -81 74 -259
147 -407 168 -27 3 -48 9 -48 13 0 3 14 41 31 83 17 43 29 85 25 93 -5 13 -26
15 -133 13 l-128 -3 -35 -92 -35 -93 -49 0 c-34 0 -47 4 -44 13 40 109 50 146
45 160 -5 15 -24 17 -132 17 l-125 0 -13 -32z"/>
</g>
</svg>
