<?xml version="1.0" standalone="no"?>
<!DOCTYPE svg PUBLIC "-//W3C//DTD SVG 20010904//EN"
 "http://www.w3.org/TR/2001/REC-SVG-20010904/DTD/svg10.dtd">
<svg version="1.0" xmlns="http://www.w3.org/2000/svg"
 width="256.000000pt" height="256.000000pt" viewBox="0 0 256.000000 256.000000"
 preserveAspectRatio="xMidYMid meet">

<g transform="translate(0.000000,256.000000) scale(0.100000,-0.100000)"
fill="#000000" stroke="none">
<path d="M1092 2384 c-467 -78 -840 -455 -917 -925 -122 -752 532 -1406 1284
-1284 475 77 849 451 926 926 48 301 -29 610 -213 855 -249 330 -670 497
-1080 428z m462 -118 c355 -107 604 -355 713 -711 25 -84 27 -102 27 -275 0
-173 -2 -191 -27 -274 -59 -190 -143 -331 -275 -458 -129 -125 -258 -200 -437
-255 -84 -25 -102 -27 -275 -27 -173 0 -191 2 -274 27 -358 111 -604 357 -713
712 -25 84 -27 102 -27 275 0 173 2 191 27 274 104 338 345 592 658 695 133
44 186 51 354 47 138 -3 172 -7 249 -30z"/>
<path d="M1090 2216 c-430 -92 -741 -449 -767 -882 -26 -435 249 -837 662
-967 559 -176 1143 181 1235 757 18 108 8 310 -20 405 -94 327 -344 577 -671
671 -96 28 -340 37 -439 16z m296 -87 c517 -72 851 -565 723 -1068 -71 -280
-289 -511 -569 -603 -122 -39 -308 -50 -433 -24 -266 55 -478 219 -598 461
-73 148 -84 200 -84 390 1 155 2 163 34 257 93 272 302 477 566 557 128 39
235 48 361 30z"/>
<path d="M928 1859 c-21 -12 -24 -49 -6 -67 18 -18 56 -14 68 7 14 27 13 37
-6 55 -18 18 -32 20 -56 5z"/>
<path d="M1562 1808 c-19 -19 -14 -45 10 -62 19 -13 25 -14 43 -2 25 16 31 42
15 61 -15 18 -52 19 -68 3z"/>
<path d="M1356 1744 c-32 -31 -7 -94 37 -94 21 0 57 35 57 55 0 21 -36 55 -59
55 -11 0 -27 -7 -35 -16z"/>
<path d="M1827 1732 c-30 -33 -15 -72 28 -72 42 0 59 44 29 74 -20 21 -37 20
-57 -2z"/>
<path d="M670 1455 c-17 -20 -5 -62 21 -70 24 -8 59 19 59 45 0 37 -55 55 -80
25z"/>
<path d="M876 1424 c-32 -31 -7 -94 37 -94 21 0 57 35 57 55 0 21 -36 55 -59
55 -11 0 -27 -7 -35 -16z"/>
<path d="M1547 1422 c-23 -25 -21 -55 3 -77 25 -23 67 -13 82 20 24 53 -46
100 -85 57z"/>
<path d="M1186 1364 c-22 -21 -20 -47 4 -69 44 -40 107 25 69 71 -15 19 -54
18 -73 -2z"/>
<path d="M1983 1373 c-21 -8 -16 -61 7 -73 27 -15 60 4 60 33 0 38 -29 56 -67
40z"/>
<path d="M1772 1324 c-26 -18 -29 -56 -6 -78 39 -40 105 4 85 56 -8 22 -29 38
-50 38 -3 0 -17 -7 -29 -16z"/>
<path d="M500 1271 c-15 -29 -13 -39 14 -56 31 -21 66 -5 66 28 0 46 -59 66
-80 28z"/>
<path d="M1378 1079 c-22 -12 -23 -52 -3 -69 19 -15 61 -6 69 16 7 19 -19 64
-37 64 -6 0 -20 -5 -29 -11z"/>
<path d="M760 1019 c-16 -30 -8 -62 19 -75 52 -26 104 34 66 76 -24 27 -71 26
-85 -1z"/>
<path d="M1240 1019 c-16 -30 -8 -62 19 -75 52 -26 104 34 66 76 -24 27 -71
26 -85 -1z"/>
<path d="M1772 974 c-24 -17 -30 -62 -10 -82 37 -37 113 12 88 57 -9 17 -39
41 -52 41 -2 0 -14 -7 -26 -16z"/>
<path d="M1470 745 c-16 -20 -5 -62 19 -70 42 -13 72 25 51 65 -13 24 -52 27
-70 5z"/>
<path d="M1262 658 c-21 -21 -14 -57 13 -70 22 -10 29 -9 47 10 19 18 20 25
10 47 -13 27 -49 34 -70 13z"/>
</g>
</svg>
