<?xml version="1.0" standalone="no"?>
<!DOCTYPE svg PUBLIC "-//W3C//DTD SVG 20010904//EN"
 "http://www.w3.org/TR/2001/REC-SVG-20010904/DTD/svg10.dtd">
<svg version="1.0" xmlns="http://www.w3.org/2000/svg"
 width="256.000000pt" height="256.000000pt" viewBox="0 0 256.000000 256.000000"
 preserveAspectRatio="xMidYMid meet">

<g transform="translate(0.000000,256.000000) scale(0.100000,-0.100000)"
fill="#000000" stroke="none">
<path d="M620 2358 l-185 -123 -3 -949 c-2 -745 -5 -952 -15 -958 -9 -6 -9 -8
1 -8 6 0 12 -6 12 -13 0 -26 35 -45 248 -137 l213 -92 92 12 c189 25 432 97
588 175 123 62 244 152 336 249 203 214 276 445 260 826 -17 405 -159 696
-427 877 -224 151 -519 244 -820 259 l-115 6 -185 -124z m450 -9 c352 -48 674
-217 815 -429 40 -60 95 -169 95 -187 0 -4 -19 11 -42 34 -170 162 -406 258
-728 294 -156 18 -140 96 -140 -676 l0 -652 -31 -7 c-17 -3 -60 -6 -95 -6
l-64 0 0 825 0 825 58 -6 c31 -3 91 -10 132 -15z m-310 -853 c0 -474 4 -825 9
-839 13 -33 31 -39 141 -44 170 -9 371 28 519 98 46 21 86 39 89 39 4 0 -12
-18 -33 -41 -125 -129 -368 -245 -625 -299 -101 -20 -298 -42 -312 -34 -4 3
-8 408 -8 899 l0 895 103 69 c56 38 105 70 110 70 4 1 7 -365 7 -813z m551
438 c485 -83 739 -345 739 -765 0 -137 -12 -207 -51 -311 -92 -238 -307 -433
-607 -549 -140 -54 -373 -109 -462 -109 -34 0 -190 59 -190 71 0 4 26 10 58
14 97 12 277 62 390 108 278 112 450 268 532 480 42 108 61 206 62 317 3 288
-180 498 -524 602 l-78 23 0 68 c0 78 -9 75 131 51z m-48 -263 c175 -61 301
-160 365 -290 35 -71 37 -80 37 -176 0 -93 -2 -105 -33 -167 -58 -118 -186
-215 -356 -267 -37 -11 -74 -21 -82 -21 -12 0 -14 75 -14 470 0 387 2 470 13
470 8 0 39 -9 70 -19z"/>
</g>
</svg>
