<?xml version="1.0" standalone="no"?>
<!DOCTYPE svg PUBLIC "-//W3C//DTD SVG 20010904//EN"
 "http://www.w3.org/TR/2001/REC-SVG-20010904/DTD/svg10.dtd">
<svg version="1.0" xmlns="http://www.w3.org/2000/svg"
 width="256.000000pt" height="256.000000pt" viewBox="0 0 256.000000 256.000000"
 preserveAspectRatio="xMidYMid meet">

<g transform="translate(0.000000,256.000000) scale(0.100000,-0.100000)"
fill="#000000" stroke="none">
<path d="M1577 2305 c-71 -25 -174 -102 -365 -273 l-82 -74 40 -47 c21 -25 84
-93 138 -151 l99 -104 114 99 c193 169 163 155 327 155 l142 0 0 -350 0 -350
-157 0 -158 1 -333 269 -332 270 -425 0 -425 0 0 -770 0 -770 428 0 427 0 190
176 c105 96 191 179 193 184 3 9 -252 291 -269 298 -4 2 -68 -53 -142 -123
l-135 -125 -141 0 -141 0 0 360 0 360 146 0 145 0 335 -270 334 -270 435 0
435 0 0 760 0 760 -392 0 c-306 -1 -402 -4 -431 -15z"/>
</g>
</svg>
