<?xml version="1.0" standalone="no"?>
<!DOCTYPE svg PUBLIC "-//W3C//DTD SVG 20010904//EN"
 "http://www.w3.org/TR/2001/REC-SVG-20010904/DTD/svg10.dtd">
<svg version="1.0" xmlns="http://www.w3.org/2000/svg"
 width="256.000000pt" height="256.000000pt" viewBox="0 0 256.000000 256.000000"
 preserveAspectRatio="xMidYMid meet">

<g transform="translate(0.000000,256.000000) scale(0.100000,-0.100000)"
fill="#000000" stroke="none">
<path d="M1074 2470 c-92 -17 -203 -57 -275 -100 -170 -101 -394 -369 -523
-626 -90 -180 -122 -327 -112 -524 8 -166 54 -389 101 -487 114 -241 345 -459
601 -567 150 -63 239 -80 414 -80 168 1 235 12 391 64 333 112 562 321 682
625 68 173 123 444 114 566 -15 194 -147 459 -334 671 -196 221 -434 376 -673
437 -96 25 -301 36 -386 21z m321 -135 c111 -24 167 -46 158 -65 -4 -8 -10
-145 -13 -305 -6 -323 1 -300 -78 -271 -265 98 -580 -23 -701 -268 -110 -223
-67 -472 113 -650 121 -120 232 -166 405 -166 114 0 190 15 248 50 l36 21 26
-24 c38 -36 65 -47 111 -47 52 0 82 28 106 101 17 49 19 117 24 733 l5 679 72
-62 c126 -108 267 -289 341 -438 l31 -61 -23 -6 c-33 -8 -112 -98 -119 -136
-12 -55 42 -393 66 -417 8 -9 31 -19 51 -22 l35 -6 -28 -85 c-53 -162 -128
-286 -237 -391 -113 -107 -226 -173 -395 -230 -130 -44 -224 -59 -359 -59
-130 0 -122 -4 -171 73 -45 68 -135 145 -236 202 -120 66 -195 117 -276 187
-79 68 -134 98 -176 98 -27 0 -32 5 -49 53 -44 118 -67 272 -67 447 0 193 10
241 85 398 86 179 222 366 368 503 135 126 269 178 467 178 61 0 142 -6 180
-14z m-7 -925 c29 -13 64 -37 78 -54 26 -30 26 -32 21 -151 -5 -138 -27 -218
-68 -248 -38 -27 -140 -34 -211 -13 -71 20 -140 81 -164 141 -43 115 27 283
141 337 51 24 130 19 203 -12z"/>
<path d="M1244 2076 c-35 -15 -59 -63 -50 -99 6 -25 43 -47 80 -47 39 0 146
38 146 51 0 16 -71 88 -93 94 -47 14 -53 14 -83 1z"/>
</g>
</svg>
