<?xml version="1.0" standalone="no"?>
<!DOCTYPE svg PUBLIC "-//W3C//DTD SVG 20010904//EN"
 "http://www.w3.org/TR/2001/REC-SVG-20010904/DTD/svg10.dtd">
<svg version="1.0" xmlns="http://www.w3.org/2000/svg"
 width="256.000000pt" height="256.000000pt" viewBox="0 0 256.000000 256.000000"
 preserveAspectRatio="xMidYMid meet">

<g transform="translate(0.000000,256.000000) scale(0.100000,-0.100000)"
fill="#000000" stroke="none">
<path d="M1965 2466 c-46 -21 -83 -66 -94 -116 -6 -26 -17 -363 -25 -780 -16
-798 -17 -813 -75 -928 -36 -72 -100 -130 -197 -178 -162 -81 -477 -67 -658
29 -173 92 -252 227 -263 452 -6 123 14 290 47 399 45 146 212 262 424 296 28
4 52 7 54 5 2 -2 -22 -35 -52 -75 -81 -105 -87 -176 -19 -251 61 -67 153 -75
218 -18 56 49 417 528 409 542 -5 6 -97 123 -205 258 -216 270 -233 285 -319
277 -58 -6 -104 -37 -130 -88 -39 -77 -24 -128 73 -249 l47 -60 -57 -5 c-83
-9 -248 -49 -319 -78 -129 -52 -282 -174 -358 -285 -53 -79 -87 -173 -118
-327 -32 -160 -32 -433 0 -558 82 -329 321 -545 687 -624 160 -34 431 -26 571
17 141 43 317 161 396 266 88 116 142 277 158 472 9 105 31 1112 30 1392 0
127 -11 157 -72 202 -34 25 -113 32 -153 13z"/>
</g>
</svg>
