<?xml version="1.0" standalone="no"?>
<!DOCTYPE svg PUBLIC "-//W3C//DTD SVG 20010904//EN"
 "http://www.w3.org/TR/2001/REC-SVG-20010904/DTD/svg10.dtd">
<svg version="1.0" xmlns="http://www.w3.org/2000/svg"
 width="256.000000pt" height="256.000000pt" viewBox="0 0 256.000000 256.000000"
 preserveAspectRatio="xMidYMid meet">

<g transform="translate(0.000000,256.000000) scale(0.100000,-0.100000)"
fill="#000000" stroke="none">
<path d="M1208 2117 c-23 -37 -28 -55 -28 -111 l0 -66 -60 30 -61 31 -38 -32
-39 -31 19 -45 c10 -24 19 -67 19 -94 0 -46 -2 -50 -37 -67 -21 -11 -69 -29
-108 -42 -180 -58 -361 -167 -471 -282 -109 -116 -240 -373 -284 -561 -22 -94
-40 -265 -40 -384 l0 -83 159 0 159 0 6 28 c3 15 8 65 11 112 21 282 88 446
249 605 162 160 329 225 576 225 186 0 370 -45 520 -127 138 -76 264 -236 350
-442 34 -84 35 -89 38 -243 l3 -158 165 0 164 0 0 40 c0 67 -20 229 -41 334
-41 201 -106 368 -195 492 -100 142 -335 324 -545 423 l-105 50 -12 78 c-7 43
-17 106 -23 141 l-11 62 -72 0 -72 0 -19 78 -20 77 -65 3 -65 3 -27 -44z"/>
<path d="M981 884 c-17 -22 -21 -41 -21 -101 0 -121 27 -160 106 -151 28 3 29
6 38 69 16 123 -14 209 -74 209 -19 0 -36 -9 -49 -26z"/>
<path d="M1470 875 c-21 -22 -22 -31 -18 -108 5 -100 23 -137 66 -137 45 0 52
16 52 112 0 93 -14 140 -45 152 -25 9 -30 8 -55 -19z"/>
</g>
</svg>
