<?xml version="1.0" standalone="no"?>
<!DOCTYPE svg PUBLIC "-//W3C//DTD SVG 20010904//EN"
 "http://www.w3.org/TR/2001/REC-SVG-20010904/DTD/svg10.dtd">
<svg version="1.0" xmlns="http://www.w3.org/2000/svg"
 width="256.000000pt" height="256.000000pt" viewBox="0 0 256.000000 256.000000"
 preserveAspectRatio="xMidYMid meet">

<g transform="translate(0.000000,256.000000) scale(0.100000,-0.100000)"
fill="#000000" stroke="none">
<path d="M500 1901 l0 -501 -130 0 -130 0 0 -120 0 -120 130 0 130 0 0 -500 0
-500 433 0 c513 0 596 9 778 86 149 62 298 184 386 316 218 328 241 930 51
1313 -110 222 -291 376 -543 459 -170 56 -197 58 -667 63 l-438 5 0 -501z
m883 60 c180 -48 321 -159 396 -312 66 -135 76 -187 76 -394 0 -139 -4 -194
-17 -242 -56 -201 -188 -343 -378 -405 -56 -19 -97 -22 -303 -27 l-237 -6 0
293 0 292 225 0 225 0 0 120 0 120 -225 0 -225 0 0 296 0 297 193 -6 c150 -4
209 -9 270 -26z"/>
</g>
</svg>
