<?xml version="1.0" standalone="no"?>
<!DOCTYPE svg PUBLIC "-//W3C//DTD SVG 20010904//EN"
 "http://www.w3.org/TR/2001/REC-SVG-20010904/DTD/svg10.dtd">
<svg version="1.0" xmlns="http://www.w3.org/2000/svg"
 width="256.000000pt" height="256.000000pt" viewBox="0 0 256.000000 256.000000"
 preserveAspectRatio="xMidYMid meet">

<g transform="translate(0.000000,256.000000) scale(0.100000,-0.100000)"
fill="#000000" stroke="none">
<path d="M1136 2384 c-116 -25 -216 -87 -252 -156 -18 -35 -18 -101 0 -137 59
-113 275 -188 473 -163 150 19 256 71 310 151 27 40 31 107 9 149 -69 131
-319 203 -540 156z"/>
<path d="M553 2071 c-237 -81 -422 -457 -322 -652 62 -122 226 -104 369 41
104 106 172 243 186 378 13 117 -36 220 -114 242 -49 13 -58 13 -119 -9z"/>
<path d="M1892 2083 c-42 -8 -98 -75 -112 -133 -23 -97 10 -246 82 -368 44
-76 152 -182 213 -212 69 -33 159 -38 202 -11 70 44 97 157 68 286 -55 251
-286 473 -453 438z"/>
<path d="M313 1179 c-43 -13 -89 -71 -104 -132 -33 -140 47 -354 185 -491 76
-76 141 -109 221 -114 74 -4 114 18 147 80 30 56 32 185 4 268 -83 248 -301
435 -453 389z"/>
<path d="M2144 1181 c-135 -33 -287 -202 -350 -391 -27 -82 -25 -212 4 -268
85 -160 330 -74 471 165 101 172 117 352 40 446 -40 49 -94 65 -165 48z"/>
<path d="M1135 585 c-85 -19 -147 -48 -195 -91 -52 -47 -70 -82 -70 -134 0
-133 176 -234 410 -234 184 0 345 67 396 165 18 36 18 102 0 138 -21 40 -91
99 -144 123 -108 46 -274 60 -397 33z"/>
</g>
</svg>
