<?xml version="1.0" standalone="no"?>
<!DOCTYPE svg PUBLIC "-//W3C//DTD SVG 20010904//EN"
 "http://www.w3.org/TR/2001/REC-SVG-20010904/DTD/svg10.dtd">
<svg version="1.0" xmlns="http://www.w3.org/2000/svg"
 width="256.000000pt" height="256.000000pt" viewBox="0 0 256.000000 256.000000"
 preserveAspectRatio="xMidYMid meet">

<g transform="translate(0.000000,256.000000) scale(0.100000,-0.100000)"
fill="#000000" stroke="none">
<path d="M1175 2385 c-119 -26 -215 -87 -252 -158 -19 -38 -19 -97 1 -135 58
-112 274 -189 466 -165 202 26 327 108 338 222 5 58 -12 95 -65 141 -104 92
-316 133 -488 95z"/>
<path d="M614 2081 c-191 -46 -388 -342 -371 -558 16 -215 213 -247 395 -65
114 114 184 270 186 412 1 108 -25 163 -94 198 -46 23 -64 25 -116 13z"/>
<path d="M1924 2080 c-41 -13 -90 -69 -103 -117 -66 -238 186 -623 407 -623
71 0 113 26 144 88 30 63 30 178 -1 272 -80 237 -301 424 -447 380z"/>
<path d="M354 1180 c-42 -13 -90 -69 -105 -122 -25 -95 9 -251 82 -375 45 -76
153 -183 214 -213 67 -32 149 -37 195 -12 114 63 113 286 -2 480 -49 82 -155
187 -219 216 -64 30 -122 39 -165 26z"/>
<path d="M2185 1181 c-55 -14 -118 -53 -177 -109 -244 -233 -266 -633 -34
-632 168 1 362 213 412 450 28 135 -3 236 -86 278 -46 23 -64 25 -115 13z"/>
<path d="M1171 584 c-245 -53 -340 -226 -195 -354 79 -69 201 -105 354 -103
225 2 400 105 400 236 0 164 -291 280 -559 221z"/>
</g>
</svg>
