<?xml version="1.0" standalone="no"?>
<!DOCTYPE svg PUBLIC "-//W3C//DTD SVG 20010904//EN"
 "http://www.w3.org/TR/2001/REC-SVG-20010904/DTD/svg10.dtd">
<svg version="1.0" xmlns="http://www.w3.org/2000/svg"
 width="256.000000pt" height="256.000000pt" viewBox="0 0 256.000000 256.000000"
 preserveAspectRatio="xMidYMid meet">

<g transform="translate(0.000000,256.000000) scale(0.100000,-0.100000)"
fill="#000000" stroke="none">
<path d="M320 1436 l0 -966 160 0 160 0 0 -155 0 -155 369 0 c420 0 469 6 639
72 234 91 402 252 504 483 128 289 91 733 -81 996 -57 87 -176 204 -248 244
-32 19 -60 45 -79 74 -95 153 -293 287 -506 343 -77 20 -111 22 -500 25 l-418
4 0 -965z m821 641 c53 -14 112 -33 130 -42 165 -84 280 -275 297 -495 9 -116
-2 -263 -25 -331 -45 -134 -150 -259 -269 -321 -137 -72 -272 -95 -531 -90
l-123 2 0 656 0 656 213 -4 c186 -5 224 -8 308 -31z"/>
</g>
</svg>
