<?xml version="1.0" standalone="no"?>
<!DOCTYPE svg PUBLIC "-//W3C//DTD SVG 20010904//EN"
 "http://www.w3.org/TR/2001/REC-SVG-20010904/DTD/svg10.dtd">
<svg version="1.0" xmlns="http://www.w3.org/2000/svg"
 width="256.000000pt" height="256.000000pt" viewBox="0 0 256.000000 256.000000"
 preserveAspectRatio="xMidYMid meet">

<g transform="translate(0.000000,256.000000) scale(0.100000,-0.100000)"
fill="#000000" stroke="none">
<path d="M1545 2314 c-342 -35 -658 -125 -953 -271 -127 -63 -174 -94 -121
-80 84 23 356 80 469 99 112 18 175 22 375 22 217 0 248 -2 320 -22 190 -53
329 -154 396 -290 28 -58 34 -80 37 -158 5 -105 -10 -168 -64 -275 -34 -69
-101 -158 -157 -210 -228 -211 -802 -280 -914 -110 -47 71 -23 160 65 243 113
106 259 140 437 103 38 -8 72 -15 74 -15 2 0 -4 9 -14 20 -59 66 -279 87 -425
42 -106 -34 -184 -78 -234 -133 -52 -58 -71 -117 -63 -197 17 -188 196 -302
477 -302 243 0 514 100 825 306 205 135 314 263 372 439 23 69 27 97 27 205 0
110 -3 134 -26 197 -50 140 -161 259 -298 320 -113 51 -192 65 -385 68 -99 2
-198 1 -220 -1z"/>
<path d="M1139 1715 c-200 -38 -417 -135 -654 -293 -219 -145 -303 -243 -367
-428 -100 -291 10 -592 264 -717 140 -69 204 -81 448 -81 249 0 371 15 605 74
155 40 279 82 425 145 97 41 254 125 247 131 -2 2 -60 -9 -128 -26 -316 -76
-545 -104 -790 -98 -207 6 -287 22 -414 83 -112 54 -201 138 -248 235 -42 89
-50 215 -18 317 46 149 159 301 285 383 207 136 601 191 766 107 85 -44 114
-131 71 -215 -28 -55 -112 -129 -187 -164 -84 -39 -211 -49 -317 -24 -84 20
-82 20 -66 0 34 -41 149 -74 259 -74 74 0 197 32 287 74 132 63 191 154 181
280 -11 134 -110 237 -273 283 -75 21 -285 25 -376 8z"/>
</g>
</svg>
