<?xml version="1.0" standalone="no"?>
<!DOCTYPE svg PUBLIC "-//W3C//DTD SVG 20010904//EN"
 "http://www.w3.org/TR/2001/REC-SVG-20010904/DTD/svg10.dtd">
<svg version="1.0" xmlns="http://www.w3.org/2000/svg"
 width="256.000000pt" height="256.000000pt" viewBox="0 0 256.000000 256.000000"
 preserveAspectRatio="xMidYMid meet">

<g transform="translate(0.000000,256.000000) scale(0.100000,-0.100000)"
fill="#000000" stroke="none">
<path d="M1348 2313 c-20 -2 -41 -9 -46 -16 -7 -9 -72 -290 -72 -312 0 -3 -80
-6 -177 -7 l-178 -3 -41 -150 c-23 -82 -44 -162 -48 -177 l-5 -28 -192 -2
-192 -3 -158 -685 c-87 -376 -157 -685 -156 -686 1 -2 198 -7 437 -13 542 -13
810 -3 952 33 215 55 427 174 646 365 197 170 343 491 359 786 13 253 -56 436
-231 611 -182 182 -430 281 -721 289 -77 1 -157 1 -177 -2z m387 -152 c223
-55 401 -173 515 -342 76 -111 107 -239 97 -404 -10 -175 -83 -393 -178 -532
-101 -148 -327 -327 -535 -424 -145 -68 -248 -89 -484 -99 -190 -7 -895 1
-903 11 -3 3 66 307 228 1004 l27 115 119 0 c65 0 119 -3 119 -6 0 -5 -244
-905 -256 -947 -5 -17 16 -18 468 -15 466 3 474 3 538 26 127 46 309 178 399
290 84 104 156 266 180 406 58 325 -147 664 -437 725 -29 6 -103 11 -163 11
-100 0 -110 2 -105 18 2 9 12 53 22 97 9 44 19 84 22 89 8 15 240 -2 327 -23z
m-50 -345 c119 -59 212 -183 251 -336 43 -171 -31 -430 -166 -582 -96 -108
-311 -249 -331 -217 -5 8 -9 22 -9 31 0 34 -72 265 -100 320 -15 32 -25 60
-22 62 4 2 30 7 57 11 161 22 258 124 259 270 1 108 -47 180 -149 226 -35 16
-70 19 -301 19 l-261 0 31 116 31 115 325 -3 325 -3 60 -29z m-239 -345 c91
-55 54 -196 -61 -231 -22 -7 -109 -14 -192 -17 l-153 -5 0 -62 0 -62 43 -11
c56 -16 110 -62 136 -119 19 -40 91 -282 91 -306 0 -4 -149 -8 -331 -8 -310 0
-330 1 -325 18 3 9 53 193 111 407 58 215 107 396 110 403 3 9 67 12 272 12
245 0 271 -2 299 -19z"/>
</g>
</svg>
