<?xml version="1.0" standalone="no"?>
<!DOCTYPE svg PUBLIC "-//W3C//DTD SVG 20010904//EN"
 "http://www.w3.org/TR/2001/REC-SVG-20010904/DTD/svg10.dtd">
<svg version="1.0" xmlns="http://www.w3.org/2000/svg"
 width="256.000000pt" height="256.000000pt" viewBox="0 0 256.000000 256.000000"
 preserveAspectRatio="xMidYMid meet">

<g transform="translate(0.000000,256.000000) scale(0.100000,-0.100000)"
fill="#000000" stroke="none">
<path d="M510 2477 c3 -3 40 -13 81 -22 420 -86 769 -398 899 -803 17 -51 30
-94 30 -97 0 -3 -186 -5 -413 -5 -357 0 -416 -2 -435 -16 -27 -19 -29 -60 -3
-74 13 -6 171 -10 445 -10 l425 0 7 -57 c7 -62 0 -287 -11 -316 -7 -16 -37
-17 -434 -17 -449 0 -451 0 -451 -45 0 -45 3 -45 435 -45 227 0 414 -3 417 -6
4 -3 -5 -38 -18 -77 -133 -392 -482 -698 -893 -782 -41 -9 -78 -19 -81 -22
-12 -13 281 8 360 26 225 51 420 159 586 325 133 134 232 290 288 458 l25 73
167 3 c175 3 194 7 194 46 0 42 -16 46 -182 46 l-158 0 7 58 c5 31 8 119 7
195 l-1 137 152 0 c159 0 175 4 175 46 0 42 -23 49 -193 54 l-160 5 -19 70
c-11 39 -39 111 -62 161 -160 338 -464 583 -826 665 -79 18 -372 39 -360 26z"/>
</g>
</svg>
