<?xml version="1.0" standalone="no"?>
<!DOCTYPE svg PUBLIC "-//W3C//DTD SVG 20010904//EN"
 "http://www.w3.org/TR/2001/REC-SVG-20010904/DTD/svg10.dtd">
<svg version="1.0" xmlns="http://www.w3.org/2000/svg"
 width="256.000000pt" height="256.000000pt" viewBox="0 0 256.000000 256.000000"
 preserveAspectRatio="xMidYMid meet">

<g transform="translate(0.000000,256.000000) scale(0.100000,-0.100000)"
fill="#000000" stroke="none">
<path d="M1225 1980 c-143 -143 -264 -260 -269 -260 -5 0 -46 35 -91 78 -80
78 -110 94 -159 85 -14 -3 -143 -124 -325 -307 -280 -280 -301 -304 -301 -337
0 -19 8 -46 17 -59 10 -14 145 -152 300 -307 202 -202 290 -283 311 -288 43
-9 89 14 147 74 l49 51 -217 218 c-255 257 -251 247 -170 352 2 2 219 -211
481 -473 461 -461 479 -477 515 -477 21 0 50 6 65 14 29 16 859 845 886 886 9
13 16 40 16 60 0 33 -28 62 -458 492 -448 449 -458 458 -497 458 -38 0 -47 -8
-300 -260z"/>
</g>
</svg>
