<?xml version="1.0" standalone="no"?>
<!DOCTYPE svg PUBLIC "-//W3C//DTD SVG 20010904//EN"
 "http://www.w3.org/TR/2001/REC-SVG-20010904/DTD/svg10.dtd">
<svg version="1.0" xmlns="http://www.w3.org/2000/svg"
 width="256.000000pt" height="256.000000pt" viewBox="0 0 256.000000 256.000000"
 preserveAspectRatio="xMidYMid meet">

<g transform="translate(0.000000,256.000000) scale(0.100000,-0.100000)"
fill="#000000" stroke="none">
<path d="M355 2070 c-11 -5 -46 -9 -78 -9 -55 -1 -62 -4 -127 -57 -69 -56 -69
-56 -52 -80 19 -27 31 -28 86 -13 34 9 46 8 88 -12 46 -22 53 -30 121 -153 66
-120 85 -146 241 -315 l170 -183 -21 -37 c-19 -32 -26 -36 -69 -39 -35 -2 -58
-11 -86 -33 -46 -37 -49 -68 -14 -120 l25 -36 -130 -179 -130 -179 -66 -5 -66
-5 63 -54 62 -54 162 162 c88 88 166 161 171 161 6 0 46 -50 89 -110 44 -61
83 -107 86 -103 4 5 15 39 24 77 l17 68 -50 53 c-28 29 -58 69 -67 88 l-17 35
68 86 c38 47 70 86 72 86 2 0 110 23 241 51 201 44 258 52 376 56 132 5 141 4
207 -22 l69 -27 0 -92 c0 -88 3 -99 50 -215 58 -143 66 -114 -72 -261 -71 -75
-95 -94 -140 -109 l-53 -19 70 -32 c39 -17 74 -32 79 -33 4 -1 13 12 20 30 6
17 56 78 111 135 55 57 112 118 128 134 l28 31 -31 147 c-17 82 -30 152 -28
156 5 14 301 -196 333 -236 25 -32 32 -54 47 -153 l18 -116 -30 -43 c-17 -23
-30 -45 -30 -47 0 -3 36 -5 80 -5 44 0 80 3 80 8 0 4 -15 109 -34 234 l-33
228 -100 95 -100 94 -36 108 c-20 59 -46 149 -57 200 -25 107 -50 149 -136
226 -37 34 -67 72 -78 99 -10 23 -26 62 -37 85 -39 88 -153 182 -204 169 -25
-6 -80 -69 -143 -163 -28 -42 -40 -53 -62 -53 -25 0 -29 6 -64 114 -44 133
-78 183 -118 173 -34 -9 -77 -64 -124 -157 -90 -180 -234 -252 -413 -206 -134
34 -176 85 -177 214 0 94 -15 124 -75 154 -36 19 -100 22 -134 8z"/>
</g>
</svg>
