<?xml version="1.0" standalone="no"?>
<!DOCTYPE svg PUBLIC "-//W3C//DTD SVG 20010904//EN"
 "http://www.w3.org/TR/2001/REC-SVG-20010904/DTD/svg10.dtd">
<svg version="1.0" xmlns="http://www.w3.org/2000/svg"
 width="256.000000pt" height="256.000000pt" viewBox="0 0 256.000000 256.000000"
 preserveAspectRatio="xMidYMid meet">

<g transform="translate(0.000000,256.000000) scale(0.100000,-0.100000)"
fill="#000000" stroke="none">
<path d="M1113 2390 c-136 -19 -264 -61 -363 -120 -364 -215 -534 -455 -579
-820 -31 -242 14 -502 123 -717 45 -90 142 -234 205 -303 l49 -55 64 61 c35
33 160 152 278 264 118 112 216 207 218 210 3 8 -176 185 -187 185 -4 0 -81
-69 -171 -152 -90 -84 -166 -153 -171 -153 -11 0 -93 201 -125 305 -25 80 -28
106 -28 240 -1 131 2 157 21 209 50 131 155 275 271 372 82 68 239 147 347
175 93 24 308 36 372 21 l41 -10 127 116 c69 63 124 117 121 119 -2 2 -57 16
-123 29 -131 28 -380 40 -490 24z"/>
<path d="M1730 1918 c-151 -143 -275 -266 -275 -273 0 -7 42 -52 93 -100 l92
-87 153 144 c83 79 160 149 169 156 15 12 21 6 53 -58 119 -237 157 -520 92
-690 -99 -262 -333 -468 -612 -541 -93 -24 -307 -36 -373 -21 l-43 10 -126
-116 -126 -117 44 -12 c115 -34 227 -47 399 -47 179 0 238 7 360 46 201 64
467 256 585 423 123 174 179 370 179 635 1 209 -35 362 -131 558 -58 120 -199
314 -248 344 -6 4 -134 -111 -285 -254z"/>
<path d="M797 1747 l-86 -95 90 -76 c50 -42 94 -76 98 -76 4 0 44 35 90 78
l82 77 -93 93 -94 93 -87 -94z"/>
<path d="M1171 1360 c-46 -50 -82 -93 -80 -94 2 -2 44 -38 93 -79 l90 -76 45
39 c25 21 64 57 86 79 l39 41 -89 90 c-49 50 -92 90 -95 90 -4 0 -44 -41 -89
-90z"/>
<path d="M1552 989 c-46 -50 -82 -94 -80 -98 5 -14 172 -151 183 -151 5 1 46
35 90 76 l79 75 -94 94 -95 94 -83 -90z"/>
</g>
</svg>
