<?xml version="1.0" standalone="no"?>
<!DOCTYPE svg PUBLIC "-//W3C//DTD SVG 20010904//EN"
 "http://www.w3.org/TR/2001/REC-SVG-20010904/DTD/svg10.dtd">
<svg version="1.0" xmlns="http://www.w3.org/2000/svg"
 width="256.000000pt" height="256.000000pt" viewBox="0 0 256.000000 256.000000"
 preserveAspectRatio="xMidYMid meet">

<g transform="translate(0.000000,256.000000) scale(0.100000,-0.100000)"
fill="#000000" stroke="none">
<path d="M292 2389 c7 -20 693 -998 700 -999 5 0 60 79 124 175 l117 174 -19
29 c-11 16 -113 165 -229 330 l-210 301 -243 1 c-176 0 -243 -3 -240 -11z"/>
<path d="M1803 2388 c-6 -7 -345 -490 -753 -1073 -409 -583 -758 -1081 -777
-1107 l-35 -48 244 0 243 1 750 1065 c413 587 767 1090 788 1120 l39 54 -245
0 c-184 0 -247 -3 -254 -12z"/>
<path d="M1481 1068 c-68 -89 -124 -168 -125 -176 -1 -7 112 -175 249 -372
l250 -359 243 -1 243 0 -134 197 c-73 109 -236 350 -361 536 -125 185 -230
337 -234 337 -4 0 -63 -73 -131 -162z m349 -418 c117 -173 214 -321 217 -327
4 -10 -11 -13 -54 -13 l-58 0 -135 192 c-74 106 -165 236 -202 289 l-67 96 36
47 c20 26 40 43 44 39 4 -4 103 -150 219 -323z"/>
</g>
</svg>
