<?xml version="1.0" standalone="no"?>
<!DOCTYPE svg PUBLIC "-//W3C//DTD SVG 20010904//EN"
 "http://www.w3.org/TR/2001/REC-SVG-20010904/DTD/svg10.dtd">
<svg version="1.0" xmlns="http://www.w3.org/2000/svg"
 width="256.000000pt" height="256.000000pt" viewBox="0 0 256.000000 256.000000"
 preserveAspectRatio="xMidYMid meet">

<g transform="translate(0.000000,256.000000) scale(0.100000,-0.100000)"
fill="#000000" stroke="none">
<path d="M1103 2257 c-79 -78 -143 -149 -143 -157 0 -18 301 -320 320 -320 23
0 310 291 310 315 0 14 -50 70 -143 163 -118 117 -149 142 -172 142 -24 0 -54
-25 -172 -143z"/>
<path d="M508 1662 c-298 -297 -348 -352 -348 -376 0 -24 25 -54 142 -173 91
-92 149 -143 163 -143 23 0 725 696 725 720 0 19 -301 320 -320 320 -8 0 -171
-156 -362 -348z"/>
<path d="M1517 1852 c-81 -82 -147 -155 -147 -162 0 -19 301 -320 320 -320 23
0 310 291 310 315 0 28 -288 315 -316 315 -12 0 -74 -54 -167 -148z"/>
<path d="M1115 1445 c-101 -102 -145 -152 -145 -168 0 -16 44 -67 148 -170 82
-81 155 -147 163 -147 18 0 319 301 319 319 0 8 -66 81 -147 163 -103 104
-154 148 -170 148 -16 0 -66 -44 -168 -145z"/>
<path d="M1722 1237 c-193 -194 -352 -359 -352 -367 0 -19 301 -320 320 -320
8 0 171 156 362 348 298 297 348 352 348 376 0 24 -25 54 -142 173 -91 92
-149 143 -163 143 -14 0 -137 -117 -373 -353z"/>
<path d="M708 1043 c-95 -95 -148 -154 -148 -168 0 -27 288 -315 315 -315 24
0 315 287 315 310 0 19 -301 320 -320 320 -7 0 -80 -66 -162 -147z"/>
<path d="M1118 633 c-96 -96 -148 -154 -148 -168 0 -14 50 -70 143 -163 118
-117 149 -142 172 -142 24 0 54 25 172 143 79 78 143 149 143 157 0 18 -301
320 -320 320 -7 0 -80 -66 -162 -147z"/>
</g>
</svg>
