<?xml version="1.0" standalone="no"?>
<!DOCTYPE svg PUBLIC "-//W3C//DTD SVG 20010904//EN"
 "http://www.w3.org/TR/2001/REC-SVG-20010904/DTD/svg10.dtd">
<svg version="1.0" xmlns="http://www.w3.org/2000/svg"
 width="256.000000pt" height="256.000000pt" viewBox="0 0 256.000000 256.000000"
 preserveAspectRatio="xMidYMid meet">

<g transform="translate(0.000000,256.000000) scale(0.100000,-0.100000)"
fill="#000000" stroke="none">
<path d="M795 2305 c-362 -67 -601 -331 -686 -755 -29 -143 -36 -378 -15 -519
64 -428 316 -734 684 -827 l95 -24 706 0 c474 0 719 4 745 11 51 14 128 91
144 145 35 117 -12 221 -128 285 -20 11 -159 15 -740 19 l-715 5 -66 31 c-88
42 -157 113 -208 215 -23 45 -41 88 -41 95 0 12 135 14 868 14 978 0 912 -5
984 79 93 109 67 269 -56 346 l-49 30 -879 3 -879 2 6 33 c23 107 81 222 138
273 22 20 65 48 96 63 l56 26 730 5 c723 5 730 5 770 27 51 27 79 57 104 113
27 60 26 123 -3 185 -28 60 -56 87 -116 114 -44 20 -61 21 -760 20 -543 -1
-732 -4 -785 -14z"/>
</g>
</svg>
