<?xml version="1.0" standalone="no"?>
<!DOCTYPE svg PUBLIC "-//W3C//DTD SVG 20010904//EN"
 "http://www.w3.org/TR/2001/REC-SVG-20010904/DTD/svg10.dtd">
<svg version="1.0" xmlns="http://www.w3.org/2000/svg"
 width="256.000000pt" height="256.000000pt" viewBox="0 0 256.000000 256.000000"
 preserveAspectRatio="xMidYMid meet">

<g transform="translate(0.000000,256.000000) scale(0.100000,-0.100000)"
fill="#000000" stroke="none">
<path d="M639 2065 c-269 -54 -493 -280 -545 -552 -43 -229 22 -448 184 -617
167 -173 400 -247 635 -202 42 8 99 25 129 37 63 27 175 97 202 127 24 28 48
28 72 0 54 -60 231 -149 327 -163 26 -4 47 -9 47 -12 0 -2 -21 -43 -46 -89
-25 -47 -43 -88 -40 -92 11 -10 168 46 277 99 153 75 253 145 357 250 105 108
130 141 178 242 158 334 11 744 -328 911 -228 113 -473 99 -688 -39 -36 -23
-74 -52 -84 -63 -27 -31 -41 -28 -94 19 -25 22 -87 60 -137 85 -141 70 -292
90 -446 59z"/>
</g>
</svg>
