<?xml version="1.0" standalone="no"?>
<!DOCTYPE svg PUBLIC "-//W3C//DTD SVG 20010904//EN"
 "http://www.w3.org/TR/2001/REC-SVG-20010904/DTD/svg10.dtd">
<svg version="1.0" xmlns="http://www.w3.org/2000/svg"
 width="256.000000pt" height="256.000000pt" viewBox="0 0 256.000000 256.000000"
 preserveAspectRatio="xMidYMid meet">

<g transform="translate(0.000000,256.000000) scale(0.100000,-0.100000)"
fill="#000000" stroke="none">
<path d="M1097 2385 c-103 -20 -185 -48 -282 -96 -81 -41 -175 -103 -175 -117
0 -4 54 -61 119 -126 l120 -120 78 37 c127 59 183 71 318 71 137 1 208 -15
321 -69 40 -19 75 -35 78 -35 3 0 61 55 128 121 l122 122 -27 21 c-84 67 -244
143 -373 177 -106 27 -319 34 -427 14z"/>
<path d="M305 2346 c-17 -7 -45 -29 -62 -49 -76 -86 -45 -220 61 -268 52 -23
90 -24 141 0 70 32 105 86 105 162 0 119 -134 203 -245 155z"/>
<path d="M2115 2346 c-17 -7 -45 -29 -62 -49 -73 -83 -49 -212 50 -268 31 -17
50 -20 93 -17 145 12 212 176 117 289 -47 56 -131 75 -198 45z"/>
<path d="M546 2008 c-29 -40 18 -86 54 -53 25 22 25 37 2 58 -25 22 -38 21
-56 -5z"/>
<path d="M1958 2019 c-25 -14 -23 -56 3 -69 16 -9 26 -8 45 5 30 19 31 39 2
59 -26 19 -27 19 -50 5z"/>
<path d="M323 1838 c-64 -103 -107 -201 -135 -315 -18 -73 -22 -116 -22 -248
1 -139 4 -172 26 -255 14 -52 40 -127 57 -165 31 -67 120 -215 131 -215 3 0
60 55 128 123 l122 122 -39 75 c-104 199 -106 422 -6 625 l44 90 -122 123
c-67 67 -124 122 -127 122 -3 0 -29 -37 -57 -82z"/>
<path d="M2043 1798 l-122 -123 43 -87 c53 -108 71 -186 70 -308 0 -118 -23
-214 -75 -317 l-40 -78 120 -117 c66 -65 124 -118 130 -118 16 0 89 114 132
204 125 267 125 595 0 862 -39 82 -116 204 -129 204 -4 0 -62 -55 -129 -122z"/>
<path d="M660 1890 c-22 -22 -18 -45 11 -61 22 -11 53 2 63 26 6 16 -25 55
-44 55 -5 0 -19 -9 -30 -20z"/>
<path d="M1842 1898 c-25 -25 -4 -78 32 -78 10 0 36 32 36 45 0 17 -27 45 -44
45 -6 0 -17 -5 -24 -12z"/>
<path d="M782 1778 c-29 -29 -2 -72 40 -66 42 6 32 78 -11 78 -9 0 -22 -5 -29
-12z"/>
<path d="M1724 1782 c-17 -11 -22 -35 -12 -54 12 -24 55 -23 68 2 20 38 -20
76 -56 52z"/>
<path d="M894 1656 c-15 -40 21 -80 54 -60 37 24 21 74 -25 74 -13 0 -26 -6
-29 -14z"/>
<path d="M1597 1663 c-12 -12 -7 -50 8 -63 18 -15 61 -6 69 16 10 26 -12 54
-43 54 -15 0 -31 -3 -34 -7z"/>
<path d="M1018 1549 c-27 -15 -23 -57 7 -71 21 -9 28 -8 45 7 26 23 25 40 -2
59 -26 19 -27 19 -50 5z"/>
<path d="M1498 1549 c-38 -22 -11 -88 31 -74 29 9 36 42 15 66 -20 22 -22 22
-46 8z"/>
<path d="M1128 1415 c-14 -32 5 -57 41 -53 18 2 27 10 29 26 7 50 -49 72 -70
27z"/>
<path d="M1358 1415 c-14 -32 5 -57 41 -53 18 2 27 10 29 26 7 50 -49 72 -70
27z"/>
<path d="M1250 1305 c-7 -9 -10 -25 -6 -40 6 -22 11 -26 39 -23 25 2 33 8 35
26 7 44 -41 70 -68 37z"/>
<path d="M1128 1185 c-14 -32 5 -57 41 -53 18 2 27 10 29 26 7 50 -49 72 -70
27z"/>
<path d="M1366 1194 c-29 -28 -12 -64 29 -64 43 0 62 50 26 70 -27 14 -37 13
-55 -6z"/>
<path d="M1012 1078 c-28 -28 -3 -72 39 -66 30 4 47 33 33 56 -14 21 -55 27
-72 10z"/>
<path d="M1484 1076 c-12 -32 0 -61 28 -64 34 -4 54 27 38 58 -12 23 -58 27
-66 6z"/>
<path d="M894 956 c-15 -40 21 -80 54 -60 37 24 21 74 -25 74 -13 0 -26 -6
-29 -14z"/>
<path d="M1600 955 c-10 -12 -10 -21 -2 -40 20 -44 76 -27 70 21 -2 23 -9 30
-29 32 -14 2 -31 -4 -39 -13z"/>
<path d="M786 844 c-24 -23 -20 -53 9 -66 19 -8 28 -8 40 2 21 18 19 57 -4 70
-25 13 -27 13 -45 -6z"/>
<path d="M1716 841 c-21 -24 -14 -57 15 -66 43 -14 70 53 30 75 -25 13 -25 13
-45 -9z"/>
<path d="M660 726 c-6 -8 -10 -25 -8 -38 4 -33 62 -39 78 -8 22 40 -40 81 -70
46z"/>
<path d="M1840 726 c-20 -25 -8 -61 21 -64 36 -4 55 21 41 53 -13 28 -43 33
-62 11z"/>
<path d="M751 506 l-123 -123 69 -45 c355 -235 793 -236 1153 -3 l73 46 -119
123 c-66 68 -123 124 -127 125 -5 0 -46 -17 -90 -39 -112 -55 -191 -73 -312
-73 -121 0 -200 18 -312 73 -44 22 -83 40 -85 40 -2 0 -59 -56 -127 -124z"/>
<path d="M540 600 c-15 -28 4 -60 35 -60 14 0 29 8 35 20 15 28 -4 60 -35 60
-14 0 -29 -8 -35 -20z"/>
<path d="M1952 608 c-27 -27 -6 -68 35 -68 29 0 48 33 33 60 -12 22 -49 27
-68 8z"/>
<path d="M303 541 c-45 -21 -87 -75 -98 -128 -14 -69 38 -165 105 -193 44 -18
130 -8 169 19 87 62 95 198 15 273 -55 51 -120 61 -191 29z"/>
<path d="M2099 537 c-58 -31 -89 -84 -89 -155 0 -97 59 -162 156 -170 67 -6
103 9 148 58 78 86 49 223 -58 271 -55 25 -104 24 -157 -4z"/>
</g>
</svg>
