<?xml version="1.0" standalone="no"?>
<!DOCTYPE svg PUBLIC "-//W3C//DTD SVG 20010904//EN"
 "http://www.w3.org/TR/2001/REC-SVG-20010904/DTD/svg10.dtd">
<svg version="1.0" xmlns="http://www.w3.org/2000/svg"
 width="256.000000pt" height="256.000000pt" viewBox="0 0 256.000000 256.000000"
 preserveAspectRatio="xMidYMid meet">

<g transform="translate(0.000000,256.000000) scale(0.100000,-0.100000)"
fill="#000000" stroke="none">
<path d="M1245 2457 c-167 -80 -201 -288 -65 -410 78 -70 173 -86 265 -43 55
25 110 81 131 132 8 19 14 61 14 94 0 71 -15 112 -60 164 -71 81 -192 108
-285 63z"/>
<path d="M392 2209 c-264 -52 -395 -355 -250 -581 40 -64 89 -105 167 -142 57
-26 77 -30 151 -30 103 0 176 26 243 84 80 71 217 91 307 45 50 -26 120 -88
153 -138 10 -15 29 -34 42 -43 32 -21 107 -20 145 2 41 25 74 94 67 141 -13
77 -91 134 -160 117 -57 -13 -199 -9 -238 8 -84 36 -173 144 -181 219 -17 151
-152 289 -312 318 -67 12 -73 12 -134 0z"/>
<path d="M1840 1785 c-393 -88 -534 -570 -249 -854 99 -100 262 -160 394 -146
368 38 574 414 408 743 -33 66 -119 158 -184 195 -111 65 -251 88 -369 62z"/>
<path d="M1240 1169 c-22 -5 -45 -20 -65 -44 -104 -127 -178 -175 -268 -175
-79 0 -154 26 -205 71 -66 57 -139 83 -242 83 -74 0 -94 -4 -151 -30 -113 -54
-181 -132 -214 -248 -75 -261 161 -524 427 -476 164 30 299 167 316 319 8 75
97 183 181 219 39 17 181 21 238 8 107 -26 199 103 143 201 -34 61 -91 87
-160 72z"/>
<path d="M1262 567 c-51 -16 -128 -90 -148 -144 -39 -101 -14 -204 66 -276
105 -95 257 -86 350 19 45 52 60 93 60 164 0 71 -15 112 -61 165 -64 73 -173
102 -267 72z"/>
</g>
</svg>
