<?xml version="1.0" standalone="no"?>
<!DOCTYPE svg PUBLIC "-//W3C//DTD SVG 20010904//EN"
 "http://www.w3.org/TR/2001/REC-SVG-20010904/DTD/svg10.dtd">
<svg version="1.0" xmlns="http://www.w3.org/2000/svg"
 width="256.000000pt" height="256.000000pt" viewBox="0 0 256.000000 256.000000"
 preserveAspectRatio="xMidYMid meet">

<g transform="translate(0.000000,256.000000) scale(0.100000,-0.100000)"
fill="#000000" stroke="none">
<path d="M835 2234 c-16 -2 -72 -9 -124 -15 -331 -38 -515 -167 -585 -411 -33
-112 -46 -265 -46 -548 0 -364 19 -504 87 -648 61 -131 184 -224 350 -266 178
-46 230 -49 897 -53 900 -6 990 5 1047 131 35 77 17 159 -43 196 -32 19 -49
20 -708 20 -371 1 -720 5 -775 10 -315 28 -397 101 -420 372 -7 84 -7 85 16
91 13 4 436 7 939 7 851 0 917 1 950 18 42 20 59 61 59 145 1 69 -18 110 -62
137 -31 19 -57 20 -954 20 -824 0 -923 2 -937 16 -18 18 -19 24 -6 122 17 130
75 220 168 259 108 45 129 46 932 52 610 5 770 9 791 19 42 22 60 65 61 138 0
79 -17 108 -83 142 -90 45 -222 52 -904 51 -341 -1 -633 -4 -650 -5z"/>
</g>
</svg>
