<?xml version="1.0" standalone="no"?>
<!DOCTYPE svg PUBLIC "-//W3C//DTD SVG 20010904//EN"
 "http://www.w3.org/TR/2001/REC-SVG-20010904/DTD/svg10.dtd">
<svg version="1.0" xmlns="http://www.w3.org/2000/svg"
 width="256.000000pt" height="256.000000pt" viewBox="0 0 256.000000 256.000000"
 preserveAspectRatio="xMidYMid meet">

<g transform="translate(0.000000,256.000000) scale(0.100000,-0.100000)"
fill="#000000" stroke="none">
<path d="M935 2240 c-182 -127 -345 -245 -363 -263 -72 -70 -110 -209 -92
-342 12 -90 105 -285 125 -263 7 7 158 254 335 548 377 625 332 550 328 550
-2 0 -152 -104 -333 -230z"/>
<path d="M1384 2445 c10 -17 51 -77 91 -135 194 -286 555 -852 695 -1092 69
-119 109 -231 113 -314 1 -30 5 -54 8 -54 10 0 66 144 84 215 19 72 22 315 5
418 -24 150 -104 310 -209 415 -28 28 -176 138 -329 245 -506 353 -479 335
-458 302z"/>
<path d="M317 1652 c-63 -141 -71 -181 -70 -377 0 -151 4 -193 22 -260 41
-154 143 -320 247 -402 37 -28 713 -500 742 -517 8 -5 -71 119 -176 275 -216
325 -399 612 -559 879 -117 195 -156 286 -170 400 l-8 65 -28 -63z"/>
<path d="M1706 659 c-180 -297 -330 -548 -334 -557 -3 -10 22 3 59 29 35 25
183 128 329 228 146 100 285 204 311 230 29 31 52 68 63 102 24 71 32 193 16
261 -11 48 -73 186 -104 230 -11 15 -54 -51 -340 -523z"/>
</g>
</svg>
