<?xml version="1.0" standalone="no"?>
<!DOCTYPE svg PUBLIC "-//W3C//DTD SVG 20010904//EN"
 "http://www.w3.org/TR/2001/REC-SVG-20010904/DTD/svg10.dtd">
<svg version="1.0" xmlns="http://www.w3.org/2000/svg"
 width="256.000000pt" height="256.000000pt" viewBox="0 0 256.000000 256.000000"
 preserveAspectRatio="xMidYMid meet">

<g transform="translate(0.000000,256.000000) scale(0.100000,-0.100000)"
fill="#000000" stroke="none">
<path d="M1000 2100 c-151 -209 -278 -388 -282 -397 -5 -10 -60 -270 -123
-577 -88 -428 -112 -562 -102 -568 6 -4 186 -114 398 -243 l386 -235 394 240
c217 132 395 245 396 252 2 7 -50 267 -115 576 l-118 564 -279 384 c-153 211
-279 384 -279 384 -1 -1 -125 -171 -276 -380z m497 -124 l211 -292 -211 -641
c-117 -353 -215 -644 -218 -647 -6 -6 -429 1260 -429 1283 0 14 418 591 428
591 4 -1 102 -132 219 -294z m-506 -1109 c108 -326 195 -594 193 -596 -2 -2
-528 314 -572 344 -1 1 37 194 85 428 47 235 89 424 92 421 3 -2 94 -271 202
-597z m861 181 c65 -321 83 -426 75 -434 -17 -17 -558 -346 -562 -342 -4 5
389 1198 395 1198 3 0 44 -190 92 -422z"/>
</g>
</svg>
