<?xml version="1.0" standalone="no"?>
<!DOCTYPE svg PUBLIC "-//W3C//DTD SVG 20010904//EN"
 "http://www.w3.org/TR/2001/REC-SVG-20010904/DTD/svg10.dtd">
<svg version="1.0" xmlns="http://www.w3.org/2000/svg"
 width="256.000000pt" height="256.000000pt" viewBox="0 0 256.000000 256.000000"
 preserveAspectRatio="xMidYMid meet">

<g transform="translate(0.000000,256.000000) scale(0.100000,-0.100000)"
fill="#000000" stroke="none">
<path d="M1535 2305 c-396 -64 -801 -292 -1088 -613 -155 -172 -280 -393 -334
-587 -24 -87 -27 -118 -27 -235 0 -119 3 -144 27 -216 76 -230 268 -383 538
-430 119 -21 334 -14 461 15 598 136 1147 607 1317 1129 124 377 9 714 -294
863 -44 21 -116 48 -160 60 -106 27 -315 34 -440 14z m87 -635 l41 0 -6 -72
c-7 -85 -34 -174 -84 -273 -45 -89 -94 -155 -176 -235 -190 -184 -417 -276
-593 -239 l-69 14 3 40 c5 71 42 198 82 283 110 233 300 397 532 458 67 17
194 34 216 28 8 -2 32 -4 54 -4z"/>
</g>
</svg>
