<?xml version="1.0" standalone="no"?>
<!DOCTYPE svg PUBLIC "-//W3C//DTD SVG 20010904//EN"
 "http://www.w3.org/TR/2001/REC-SVG-20010904/DTD/svg10.dtd">
<svg version="1.0" xmlns="http://www.w3.org/2000/svg"
 width="256.000000pt" height="256.000000pt" viewBox="0 0 256.000000 256.000000"
 preserveAspectRatio="xMidYMid meet">

<g transform="translate(0.000000,256.000000) scale(0.100000,-0.100000)"
fill="#000000" stroke="none">
<path d="M1377 2393 c-4 -3 -7 -52 -7 -109 l0 -102 -52 -6 c-231 -29 -477
-223 -593 -467 -62 -131 -78 -213 -79 -389 0 -127 4 -171 22 -243 12 -49 26
-96 31 -105 12 -21 14 -14 31 78 17 98 76 265 121 347 128 233 335 388 583
439 39 8 153 17 254 21 l182 6 0 173 0 174 -60 0 -60 0 0 95 0 95 -65 0 -65 0
0 -95 0 -95 -55 0 -55 0 0 95 0 95 -63 0 c-35 0 -67 -3 -70 -7z"/>
<path d="M1021 1531 c-36 -51 -80 -157 -103 -249 -30 -117 -32 -372 -4 -472
55 -199 216 -368 409 -430 l37 -12 0 -104 0 -104 75 0 75 0 0 95 0 95 55 0 55
0 0 -95 0 -96 71 3 71 3 2 90 1 90 60 5 60 5 3 166 2 166 -122 7 c-154 9 -315
31 -400 55 -130 35 -237 131 -309 276 l-40 80 78 7 c43 4 87 9 98 11 11 2 26
5 33 6 17 2 15 21 -3 21 -8 0 -15 7 -15 15 0 8 9 15 20 15 11 0 20 7 20 15 0
8 5 15 10 15 6 0 10 -7 10 -15 0 -18 12 -19 27 -4 15 15 -7 39 -35 39 -11 0
-22 9 -25 20 -3 14 -14 20 -31 20 -21 0 -26 5 -26 25 0 21 5 25 30 25 25 0 30
-4 30 -25 0 -18 5 -25 19 -25 11 0 23 -4 26 -10 3 -5 17 -10 31 -10 19 0 24 5
24 25 0 20 -5 25 -25 25 -14 0 -25 -5 -25 -11 0 -6 -8 -9 -17 -7 -29 5 -21 33
10 36 33 4 47 30 24 44 -19 10 -24 78 -7 78 6 0 5 6 -2 14 -16 17 -38 3 -38
-25 0 -11 -4 -19 -10 -19 -5 0 -10 7 -10 16 0 8 -7 22 -16 31 -12 12 -18 13
-27 4 -9 -10 -8 -14 6 -22 9 -6 17 -14 17 -19 0 -6 -8 -10 -17 -11 -14 0 -13
-2 5 -9 12 -5 22 -16 22 -25 0 -8 5 -15 10 -15 6 0 10 -7 10 -15 0 -8 -7 -15
-15 -15 -8 0 -15 5 -15 11 0 8 -5 7 -15 -1 -20 -17 -31 -5 -38 43 -4 28 -2 37
9 37 22 0 17 16 -11 34 -15 10 -46 16 -84 16 l-60 0 15 42 c18 51 13 58 -15
19z m205 -301 c8 0 14 -7 14 -15 0 -17 -4 -18 -37 -9 -13 4 -23 13 -23 21 0
10 6 13 16 9 9 -3 22 -6 30 -6z"/>
<path d="M1340 1450 c0 -15 7 -20 29 -20 26 0 29 -4 35 -43 7 -48 0 -76 -23
-94 -13 -9 -14 -14 -3 -24 10 -11 12 -10 12 4 0 9 5 17 10 17 6 0 10 9 10 20
0 12 7 20 16 20 14 0 15 7 10 38 -3 20 -6 45 -6 55 0 12 -8 17 -30 17 -20 0
-30 5 -30 15 0 8 -7 15 -15 15 -8 0 -15 -9 -15 -20z"/>
<path d="M1430 1460 c0 -5 5 -10 11 -10 5 0 7 5 4 10 -3 6 -8 10 -11 10 -2 0
-4 -4 -4 -10z"/>
<path d="M1560 1450 c0 -11 7 -20 15 -20 8 0 15 9 15 20 0 11 -7 20 -15 20 -8
0 -15 -9 -15 -20z"/>
<path d="M1310 1400 c0 -5 5 -10 10 -10 6 0 10 5 10 10 0 6 -4 10 -10 10 -5 0
-10 -4 -10 -10z"/>
<path d="M1501 1347 c-6 -8 -8 -17 -4 -20 13 -13 31 -7 36 13 6 23 -14 27 -32
7z"/>
<path d="M1600 1345 c0 -8 7 -15 15 -15 8 0 15 7 15 15 0 8 -7 15 -15 15 -8 0
-15 -7 -15 -15z"/>
<path d="M1340 1320 c0 -5 5 -10 10 -10 6 0 10 5 10 10 0 6 -4 10 -10 10 -5 0
-10 -4 -10 -10z"/>
<path d="M1440 1295 c0 -8 7 -15 15 -15 8 0 15 7 15 15 0 8 -7 15 -15 15 -8 0
-15 -7 -15 -15z"/>
<path d="M1510 1260 c0 -15 7 -20 25 -20 18 0 25 5 25 20 0 15 -7 20 -25 20
-18 0 -25 -5 -25 -20z"/>
<path d="M1360 1226 c0 -16 -7 -26 -21 -29 -12 -3 -18 -10 -15 -16 4 -6 13 -8
21 -4 8 3 15 0 15 -6 0 -6 7 -11 15 -11 11 0 15 12 15 45 0 33 -4 45 -15 45
-9 0 -15 -9 -15 -24z"/>
<path d="M1416 1223 c-11 -11 -6 -23 9 -23 8 0 15 4 15 9 0 13 -16 22 -24 14z"/>
<path d="M1570 1220 c0 -5 7 -10 16 -10 8 0 12 5 9 10 -3 6 -10 10 -16 10 -5
0 -9 -4 -9 -10z"/>
<path d="M1270 1145 c0 -8 -4 -15 -10 -15 -5 0 -10 -4 -10 -10 0 -5 9 -10 20
-10 15 0 20 7 20 25 0 14 -4 25 -10 25 -5 0 -10 -7 -10 -15z"/>
<path d="M1323 1153 c-18 -6 -16 -23 2 -23 9 0 15 -9 15 -25 0 -21 5 -25 30
-25 23 0 30 4 30 20 0 13 7 20 20 20 13 0 20 7 20 20 0 11 -7 20 -15 20 -8 0
-15 -7 -15 -15 0 -20 -67 -21 -72 -2 -2 8 -9 12 -15 10z"/>
<path d="M1480 1115 c0 -8 5 -15 10 -15 6 0 10 7 10 15 0 8 -4 15 -10 15 -5 0
-10 -7 -10 -15z"/>
<path d="M1622 1108 c6 -18 28 -21 28 -4 0 9 -7 16 -16 16 -9 0 -14 -5 -12
-12z"/>
</g>
</svg>
