<?xml version="1.0" standalone="no"?>
<!DOCTYPE svg PUBLIC "-//W3C//DTD SVG 20010904//EN"
 "http://www.w3.org/TR/2001/REC-SVG-20010904/DTD/svg10.dtd">
<svg version="1.0" xmlns="http://www.w3.org/2000/svg"
 width="256.000000pt" height="256.000000pt" viewBox="0 0 256.000000 256.000000"
 preserveAspectRatio="xMidYMid meet">

<g transform="translate(0.000000,256.000000) scale(0.100000,-0.100000)"
fill="#000000" stroke="none">
<path d="M852 2311 c-222 -92 -411 -176 -421 -187 -21 -22 -351 -816 -351
-844 0 -31 331 -824 354 -846 22 -23 815 -354 846 -354 31 0 824 331 846 354
23 22 354 815 354 846 0 31 -331 824 -354 846 -25 25 -817 354 -849 353 -12 0
-203 -76 -425 -168z m778 -194 l344 -143 144 -347 144 -347 -144 -347 -144
-347 -347 -144 -347 -144 -347 144 -347 144 -144 347 -144 347 144 347 144
347 339 142 c187 78 345 142 350 143 6 1 165 -63 355 -142z"/>
<path d="M890 1705 l0 -96 150 -156 c83 -85 150 -159 150 -163 0 -4 -67 -83
-150 -174 l-150 -166 0 -95 0 -95 390 0 390 0 0 105 0 105 -232 2 -231 3 141
155 c78 85 142 158 142 163 0 4 -62 71 -137 150 l-138 142 228 3 227 2 0 105
0 105 -390 0 -390 0 0 -95z"/>
</g>
</svg>
