<?xml version="1.0" standalone="no"?>
<!DOCTYPE svg PUBLIC "-//W3C//DTD SVG 20010904//EN"
 "http://www.w3.org/TR/2001/REC-SVG-20010904/DTD/svg10.dtd">
<svg version="1.0" xmlns="http://www.w3.org/2000/svg"
 width="256.000000pt" height="256.000000pt" viewBox="0 0 256.000000 256.000000"
 preserveAspectRatio="xMidYMid meet">

<g transform="translate(0.000000,256.000000) scale(0.100000,-0.100000)"
fill="#000000" stroke="none">
<path d="M534 1901 c-429 -116 -591 -601 -322 -957 65 -87 168 -155 298 -200
42 -15 82 -19 175 -19 103 1 130 5 193 27 40 14 96 41 125 59 29 18 206 185
397 374 319 316 349 344 399 360 191 62 367 -113 309 -309 -17 -56 -100 -141
-153 -155 -106 -29 -177 -8 -271 81 l-71 67 -42 -42 -41 -43 67 -66 c38 -36
93 -78 123 -94 51 -27 64 -29 160 -29 94 0 111 3 161 28 70 34 142 109 177
185 35 76 37 199 4 282 -32 80 -99 153 -180 192 -61 30 -74 33 -162 33 -157 0
-155 2 -560 -407 -331 -333 -348 -349 -422 -384 -102 -47 -185 -61 -284 -47
-186 27 -346 164 -398 342 -23 79 -21 207 5 283 76 226 301 367 526 329 125
-22 199 -65 332 -196 l116 -115 -185 -184 c-102 -101 -201 -191 -220 -201 -50
-26 -146 -31 -195 -11 l-40 17 213 210 c116 116 212 212 212 214 0 15 -96 91
-150 118 -58 29 -73 32 -155 32 -77 0 -98 -4 -147 -27 -76 -35 -138 -95 -179
-170 -32 -60 -34 -68 -34 -163 0 -89 3 -106 28 -157 37 -75 128 -160 202 -187
76 -29 185 -28 261 0 51 19 85 49 303 261 135 132 247 245 249 252 1 7 -68 82
-155 167 -214 209 -301 256 -498 265 -79 3 -115 0 -171 -15z m219 -357 c26 -9
47 -19 47 -22 0 -9 -323 -332 -331 -332 -14 0 -39 83 -39 128 1 164 166 280
323 226z"/>
<path d="M1726 1894 c-92 -22 -193 -81 -278 -163 -43 -40 -78 -78 -78 -83 0
-11 66 -78 77 -78 5 0 38 29 73 65 96 97 168 135 296 155 91 15 180 -1 280
-50 127 -62 207 -160 249 -305 23 -78 16 -218 -14 -294 -92 -229 -340 -357
-576 -296 -85 23 -149 61 -235 142 l-77 72 -42 -43 -42 -43 75 -69 c123 -114
222 -163 371 -185 91 -14 192 -1 290 36 333 125 480 512 317 837 -70 141 -224
262 -387 303 -73 19 -220 18 -299 -1z"/>
</g>
</svg>
