<?xml version="1.0" standalone="no"?>
<!DOCTYPE svg PUBLIC "-//W3C//DTD SVG 20010904//EN"
 "http://www.w3.org/TR/2001/REC-SVG-20010904/DTD/svg10.dtd">
<svg version="1.0" xmlns="http://www.w3.org/2000/svg"
 width="256.000000pt" height="256.000000pt" viewBox="0 0 256.000000 256.000000"
 preserveAspectRatio="xMidYMid meet">

<g transform="translate(0.000000,256.000000) scale(0.100000,-0.100000)"
fill="#000000" stroke="none">
<path d="M931 1939 c-199 -292 -361 -532 -359 -534 2 -1 167 84 367 190 l365
193 95 -51 c53 -28 215 -115 361 -193 146 -78 266 -141 268 -139 5 5 -719
1065 -727 1065 -4 0 -170 -239 -370 -531z"/>
<path d="M950 1476 c-189 -102 -346 -188 -347 -193 -3 -9 694 -379 708 -376 8
3 691 372 696 377 4 4 -692 376 -703 376 -5 0 -164 -83 -354 -184z"/>
<path d="M664 1019 c54 -79 220 -323 369 -541 l271 -397 32 47 c244 356 692
1027 689 1030 -2 2 -164 -82 -359 -187 -196 -105 -359 -191 -362 -191 -4 0
-162 83 -353 184 -190 102 -355 188 -365 192 -13 5 16 -45 78 -137z"/>
</g>
</svg>
