<?xml version="1.0" standalone="no"?>
<!DOCTYPE svg PUBLIC "-//W3C//DTD SVG 20010904//EN"
 "http://www.w3.org/TR/2001/REC-SVG-20010904/DTD/svg10.dtd">
<svg version="1.0" xmlns="http://www.w3.org/2000/svg"
 width="256.000000pt" height="256.000000pt" viewBox="0 0 256.000000 256.000000"
 preserveAspectRatio="xMidYMid meet">

<g transform="translate(0.000000,256.000000) scale(0.100000,-0.100000)"
fill="#000000" stroke="none">
<path d="M916 1948 l-355 -523 52 -32 c29 -18 55 -32 59 -30 4 1 143 200 307
442 l300 440 1 113 c0 61 -2 112 -4 112 -3 0 -165 -235 -360 -522z"/>
<path d="M1330 2361 l0 -112 296 -437 c163 -240 300 -441 305 -446 11 -12 121
53 112 67 -3 7 -88 131 -187 277 -99 146 -251 371 -339 500 -88 129 -166 242
-173 250 -12 12 -14 -2 -14 -99z"/>
<path d="M1003 1742 c-150 -220 -273 -404 -273 -410 0 -10 540 -335 547 -329
2 2 2 259 1 572 l-3 568 -272 -401z"/>
<path d="M1330 1570 c0 -313 2 -570 4 -570 8 0 531 312 543 324 8 8 -16 50
-96 166 -59 85 -183 266 -275 403 -93 136 -170 247 -172 247 -2 0 -4 -256 -4
-570z"/>
<path d="M845 1139 c-22 -10 -78 -36 -124 -57 l-84 -38 329 -184 c180 -101
333 -183 339 -183 11 0 642 348 658 363 8 7 -230 116 -250 114 -6 -1 -98 -52
-204 -114 -106 -63 -197 -113 -203 -113 -6 0 -100 52 -209 116 -109 65 -202
117 -205 116 -4 0 -25 -9 -47 -20z"/>
<path d="M676 949 c6 -7 143 -205 305 -439 l294 -425 3 107 3 108 -182 263
c-150 217 -190 267 -223 286 -162 89 -210 113 -200 100z"/>
<path d="M1822 896 c-63 -35 -122 -72 -132 -82 -10 -10 -95 -130 -189 -266
l-171 -248 0 -107 c0 -92 2 -105 14 -93 11 12 566 810 590 848 4 7 6 12 4 12
-2 0 -54 -29 -116 -64z"/>
<path d="M1046 734 c12 -16 68 -96 125 -179 l104 -150 3 99 c1 55 1 105 -2
111 -2 7 -55 41 -118 75 -62 35 -117 65 -122 68 -6 3 -1 -8 10 -24z"/>
<path d="M1462 697 c-62 -35 -117 -68 -123 -74 -6 -6 -9 -53 -7 -114 l3 -104
115 165 c122 175 133 190 128 190 -2 0 -54 -29 -116 -63z"/>
</g>
</svg>
