<?xml version="1.0" standalone="no"?>
<!DOCTYPE svg PUBLIC "-//W3C//DTD SVG 20010904//EN"
 "http://www.w3.org/TR/2001/REC-SVG-20010904/DTD/svg10.dtd">
<svg version="1.0" xmlns="http://www.w3.org/2000/svg"
 width="256.000000pt" height="256.000000pt" viewBox="0 0 256.000000 256.000000"
 preserveAspectRatio="xMidYMid meet">

<g transform="translate(0.000000,256.000000) scale(0.100000,-0.100000)"
fill="#000000" stroke="none">
<path d="M239 2386 c-132 -47 -194 -195 -135 -322 24 -51 84 -110 122 -120 26
-7 23 31 60 -779 24 -525 24 -561 8 -570 -108 -64 -153 -195 -103 -305 27 -60
54 -88 114 -116 118 -56 258 -7 314 109 28 58 28 146 0 204 l-21 44 25 37 c14
20 151 208 304 417 l280 380 73 0 73 0 280 -380 c153 -209 290 -397 304 -417
l25 -37 -21 -44 c-28 -58 -28 -146 0 -204 56 -116 196 -165 314 -109 60 28 87
56 114 116 50 110 5 241 -103 305 -16 9 -16 45 8 570 37 811 34 772 60 779 40
10 102 73 126 128 38 89 19 187 -51 257 -44 44 -83 62 -148 68 -99 9 -199 -51
-237 -143 -20 -47 -17 -141 5 -189 17 -37 83 -107 110 -116 9 -3 4 -164 -18
-653 -17 -357 -32 -650 -34 -652 -7 -8 -601 810 -600 826 1 8 9 42 19 75 16
57 16 63 0 118 -35 119 -156 194 -270 168 -99 -23 -165 -88 -187 -185 -10 -45
-9 -61 7 -112 10 -32 18 -64 17 -71 -1 -14 -595 -825 -600 -819 -2 2 -17 295
-34 652 -22 489 -27 650 -18 653 27 9 93 79 110 116 22 48 25 142 6 188 -48
113 -184 174 -298 133z"/>
</g>
</svg>
