<?xml version="1.0" standalone="no"?>
<!DOCTYPE svg PUBLIC "-//W3C//DTD SVG 20010904//EN"
 "http://www.w3.org/TR/2001/REC-SVG-20010904/DTD/svg10.dtd">
<svg version="1.0" xmlns="http://www.w3.org/2000/svg"
 width="256.000000pt" height="256.000000pt" viewBox="0 0 256.000000 256.000000"
 preserveAspectRatio="xMidYMid meet">

<g transform="translate(0.000000,256.000000) scale(0.100000,-0.100000)"
fill="#000000" stroke="none">
<path d="M1630 2021 c-393 -203 -715 -373 -716 -377 -1 -5 44 -49 101 -99 57
-49 104 -92 104 -95 1 -3 -109 -61 -244 -130 -134 -69 -245 -128 -245 -132 0
-4 74 -59 165 -123 91 -64 165 -118 165 -121 0 -2 -159 -176 -354 -386 -194
-211 -352 -384 -351 -386 3 -3 1475 757 1488 768 5 4 -43 43 -107 86 -63 44
-116 82 -116 85 0 3 96 58 213 122 116 64 220 122 230 129 16 12 3 26 -138
147 -86 73 -155 137 -153 141 2 4 144 159 316 344 301 323 368 396 360 396 -1
0 -325 -166 -718 -369z"/>
</g>
</svg>
