<?xml version="1.0" standalone="no"?>
<!DOCTYPE svg PUBLIC "-//W3C//DTD SVG 20010904//EN"
 "http://www.w3.org/TR/2001/REC-SVG-20010904/DTD/svg10.dtd">
<svg version="1.0" xmlns="http://www.w3.org/2000/svg"
 width="256.000000pt" height="256.000000pt" viewBox="0 0 256.000000 256.000000"
 preserveAspectRatio="xMidYMid meet">

<g transform="translate(0.000000,256.000000) scale(0.100000,-0.100000)"
fill="#000000" stroke="none">
<path d="M1396 2390 c-389 -45 -586 -166 -814 -502 l-66 -98 -86 0 -87 0 -40
-87 c-73 -158 -76 -184 -27 -242 23 -28 32 -31 80 -31 l54 0 0 -140 0 -140
-33 0 c-38 0 -35 5 -98 -153 -37 -92 -38 -100 -25 -131 26 -62 56 -76 165 -76
l96 -1 43 -77 c220 -400 698 -609 1232 -538 217 29 308 63 415 154 61 51 166
172 164 190 0 4 -64 55 -142 114 l-141 106 -58 -54 c-64 -59 -167 -113 -268
-140 -90 -25 -300 -25 -390 -1 -95 25 -215 88 -292 151 -122 101 -133 96 195
96 l284 0 62 93 c53 80 61 99 61 139 0 53 -11 87 -35 111 -15 15 -56 17 -401
17 l-384 0 0 140 0 140 413 0 412 0 50 60 c60 72 95 134 95 168 0 13 -7 39
-16 58 -26 55 -50 57 -463 51 l-364 -6 49 51 c110 112 270 210 399 243 180 46
474 -28 603 -151 25 -24 47 -44 49 -44 2 0 65 50 141 111 75 62 138 113 140
115 10 8 -27 51 -85 99 -108 89 -248 154 -413 190 -89 19 -359 28 -474 15z"/>
</g>
</svg>
