<?xml version="1.0" standalone="no"?>
<!DOCTYPE svg PUBLIC "-//W3C//DTD SVG 20010904//EN"
 "http://www.w3.org/TR/2001/REC-SVG-20010904/DTD/svg10.dtd">
<svg version="1.0" xmlns="http://www.w3.org/2000/svg"
 width="256.000000pt" height="256.000000pt" viewBox="0 0 256.000000 256.000000"
 preserveAspectRatio="xMidYMid meet">

<g transform="translate(0.000000,256.000000) scale(0.100000,-0.100000)"
fill="#000000" stroke="none">
<path d="M1092 2384 c-167 -28 -348 -107 -489 -213 -408 -307 -556 -873 -350
-1334 16 -37 34 -66 38 -65 5 2 96 85 203 185 l195 183 58 -6 c32 -3 69 -1 83
4 22 9 31 4 82 -46 l58 -56 55 54 c30 30 55 57 55 61 0 4 -29 36 -65 70 -36
34 -68 74 -71 88 -23 107 -112 173 -205 152 -71 -16 -112 -58 -133 -136 -9
-35 -31 -61 -131 -154 l-120 -112 -8 28 c-15 52 -20 256 -8 333 17 108 71 257
127 352 66 111 211 256 322 322 91 54 242 110 342 125 152 25 306 10 463 -43
141 -48 244 -113 357 -226 113 -113 178 -216 226 -357 40 -117 54 -199 54
-313 0 -85 -15 -202 -28 -226 -5 -8 -70 48 -195 168 -166 160 -187 183 -187
212 0 51 -40 118 -85 143 -100 56 -223 0 -249 -115 -11 -47 -31 -70 -481 -525
-259 -262 -470 -481 -470 -487 0 -18 151 -124 238 -167 329 -164 687 -164
1015 1 432 217 675 695 597 1175 -19 117 -52 215 -109 330 -218 432 -702 676
-1184 595z m597 -879 c31 -15 54 -65 44 -93 -22 -63 -94 -82 -138 -37 -44 43
-26 116 35 138 24 9 29 8 59 -8z m-854 -157 c21 -25 25 -38 21 -62 -8 -40 -33
-64 -73 -72 -27 -5 -37 -1 -63 24 -38 39 -40 83 -5 117 36 37 86 34 120 -7z
m846 -85 c34 2 47 -9 240 -193 112 -107 205 -200 207 -207 2 -8 -18 -48 -44
-91 -64 -103 -207 -243 -312 -306 -94 -56 -244 -110 -352 -127 -113 -17 -286
-6 -395 26 -102 30 -235 90 -235 107 0 6 178 190 396 408 395 397 396 398 428
389 18 -5 48 -8 67 -6z"/>
</g>
</svg>
