<?xml version="1.0" standalone="no"?>
<!DOCTYPE svg PUBLIC "-//W3C//DTD SVG 20010904//EN"
 "http://www.w3.org/TR/2001/REC-SVG-20010904/DTD/svg10.dtd">
<svg version="1.0" xmlns="http://www.w3.org/2000/svg"
 width="256.000000pt" height="256.000000pt" viewBox="0 0 256.000000 256.000000"
 preserveAspectRatio="xMidYMid meet">

<g transform="translate(0.000000,256.000000) scale(0.100000,-0.100000)"
fill="#000000" stroke="none">
<path d="M1606 2098 c-20 -35 -136 -283 -258 -553 -255 -562 -337 -729 -359
-733 -24 -4 -96 65 -225 216 -65 75 -143 163 -173 195 l-55 57 -228 0 -228 0
0 -95 0 -95 142 0 141 0 41 -43 c23 -23 141 -166 263 -317 247 -307 306 -374
324 -368 20 7 89 144 330 655 367 777 433 906 473 917 11 3 171 6 354 6 l332
0 0 110 0 110 -419 0 -420 0 -35 -62z"/>
</g>
</svg>
