<?xml version="1.0" standalone="no"?>
<!DOCTYPE svg PUBLIC "-//W3C//DTD SVG 20010904//EN"
 "http://www.w3.org/TR/2001/REC-SVG-20010904/DTD/svg10.dtd">
<svg version="1.0" xmlns="http://www.w3.org/2000/svg"
 width="256.000000pt" height="256.000000pt" viewBox="0 0 256.000000 256.000000"
 preserveAspectRatio="xMidYMid meet">

<g transform="translate(0.000000,256.000000) scale(0.100000,-0.100000)"
fill="#000000" stroke="none">
<path d="M1092 2384 c-467 -78 -840 -455 -917 -925 -122 -752 532 -1406 1284
-1284 475 77 849 451 926 926 55 343 -53 695 -294 952 -43 46 -163 147 -174
147 -3 0 6 -26 20 -57 26 -60 84 -273 77 -284 -2 -4 -43 2 -91 12 -94 20 -140
24 -161 10 -10 -6 -6 -13 15 -26 49 -32 164 -148 190 -192 26 -45 52 -166 53
-248 l0 -49 -48 47 c-26 26 -50 47 -53 47 -3 0 -7 -28 -8 -62 -6 -158 -55
-329 -121 -415 -57 -76 -109 -107 -188 -111 -57 -3 -72 0 -101 20 -51 34 -73
71 -79 126 -8 90 44 191 126 243 62 39 105 39 142 -1 l29 -31 27 47 c39 67 53
112 54 175 0 46 -5 63 -29 96 -36 50 -126 107 -256 163 -120 52 -206 107 -297
190 l-68 62 0 -130 0 -130 -102 -68 c-95 -63 -254 -207 -291 -263 -9 -14 -20
-21 -24 -17 -5 4 -8 51 -8 105 0 92 2 101 37 172 41 81 127 199 236 324 l70
80 -69 3 c-38 2 -69 7 -69 12 0 26 208 182 285 214 56 24 177 53 275 66 110
16 123 20 85 31 -127 38 -336 48 -483 23z m452 -868 c31 -20 33 -46 7 -70 -26
-24 -53 -17 -69 17 -17 36 -42 45 -145 54 -113 10 -59 23 80 19 75 -2 108 -7
127 -20z"/>
</g>
</svg>
