<?xml version="1.0" standalone="no"?>
<!DOCTYPE svg PUBLIC "-//W3C//DTD SVG 20010904//EN"
 "http://www.w3.org/TR/2001/REC-SVG-20010904/DTD/svg10.dtd">
<svg version="1.0" xmlns="http://www.w3.org/2000/svg"
 width="256.000000pt" height="256.000000pt" viewBox="0 0 256.000000 256.000000"
 preserveAspectRatio="xMidYMid meet">

<g transform="translate(0.000000,256.000000) scale(0.100000,-0.100000)"
fill="#000000" stroke="none">
<path d="M550 2230 l0 -90 30 0 c18 0 30 -5 30 -13 0 -12 -82 -429 -95 -484
-3 -14 -31 -36 -83 -64 -189 -104 -275 -178 -327 -282 l-26 -52 46 -3 45 -3 0
-87 0 -86 -45 -46 -45 -46 45 -44 45 -44 -46 -41 -45 -40 23 -45 c17 -34 36
-52 76 -73 28 -16 52 -32 52 -36 0 -5 -14 -14 -30 -21 -30 -13 -31 -14 -28
-79 l3 -66 54 -19 c49 -18 56 -24 78 -72 28 -61 43 -69 176 -87 75 -11 82 -14
81 -35 -1 -27 -2 -27 46 3 22 14 44 25 50 25 5 0 32 -13 58 -30 27 -16 52 -30
56 -30 3 0 31 23 61 50 l55 50 75 0 75 0 0 55 c0 53 1 55 38 74 20 10 50 33
66 50 l30 31 -18 50 -18 51 52 79 53 80 168 0 169 0 0 -43 c0 -35 8 -55 40
-100 26 -36 40 -66 40 -86 0 -26 6 -34 35 -48 33 -16 35 -20 35 -65 0 -45 2
-50 29 -59 27 -9 30 -16 33 -57 l3 -47 82 -5 c75 -5 83 -7 103 -33 l23 -28 33
32 34 33 33 -31 32 -32 35 29 c24 20 46 30 70 30 47 0 52 5 85 82 23 57 32 68
52 68 21 0 23 4 23 54 0 51 2 54 40 81 26 18 37 32 32 39 -5 6 -24 30 -42 54
l-34 42 37 38 c20 21 37 42 37 48 0 6 -16 26 -36 45 -20 18 -47 57 -61 84 -14
28 -39 69 -54 92 -25 35 -29 52 -29 106 l0 64 46 18 c25 9 48 23 50 30 3 6 -4
36 -16 66 -19 48 -33 63 -126 138 -104 82 -109 84 -262 135 -87 29 -194 63
-239 76 l-83 24 0 71 0 71 65 49 c36 27 65 50 65 51 0 2 -19 16 -42 32 l-43
30 -62 -31 -63 -31 0 -103 0 -103 -39 0 c-22 0 -43 5 -46 10 -14 23 -75 267
-75 301 0 27 8 43 35 69 19 18 32 36 30 40 -3 4 -58 46 -124 94 l-119 86 -346
0 -346 0 0 -90z m370 -157 c0 -5 -32 -110 -72 -235 l-73 -228 -88 0 c-86 0
-87 0 -82 23 7 30 85 436 85 442 0 8 230 6 230 -2z m400 -90 c5 -4 18 -63 29
-130 l22 -121 -65 -92 -65 -92 21 -46 c11 -26 53 -129 94 -230 l75 -183 -30
-41 c-26 -36 -31 -39 -37 -22 -18 58 -82 173 -133 242 -86 116 -166 184 -329
279 -11 6 -1 60 47 258 34 138 63 255 65 262 3 7 51 -3 152 -32 81 -24 150
-48 154 -52z m-579 -944 c87 -27 150 -115 150 -211 0 -96 -43 -166 -125 -204
-154 -72 -320 33 -320 201 0 157 141 260 295 214z m1381 -219 c146 -41 175
-222 49 -307 -65 -44 -169 -25 -222 40 -25 31 -39 96 -30 138 18 78 66 120
161 138 3 0 22 -4 42 -9z"/>
</g>
</svg>
