<?xml version="1.0" standalone="no"?>
<!DOCTYPE svg PUBLIC "-//W3C//DTD SVG 20010904//EN"
 "http://www.w3.org/TR/2001/REC-SVG-20010904/DTD/svg10.dtd">
<svg version="1.0" xmlns="http://www.w3.org/2000/svg"
 width="256.000000pt" height="256.000000pt" viewBox="0 0 256.000000 256.000000"
 preserveAspectRatio="xMidYMid meet">

<g transform="translate(0.000000,256.000000) scale(0.100000,-0.100000)"
fill="#000000" stroke="none">
<path d="M770 2186 l-525 -293 0 -592 0 -593 95 -52 95 -53 3 586 2 586 430
239 c236 131 435 236 442 233 7 -3 94 -50 193 -106 152 -84 181 -97 186 -83
11 30 42 182 38 186 -10 8 -427 236 -430 235 -2 0 -240 -132 -529 -293z"/>
<path d="M948 1838 l-318 -183 0 -601 0 -602 317 -183 c174 -100 322 -182 328
-182 7 0 244 134 528 298 l517 298 0 599 c0 329 -3 598 -6 598 -3 0 -48 -25
-100 -55 l-94 -56 -2 -486 -3 -487 -420 -242 -420 -243 -55 32 c-30 17 -129
74 -220 127 l-165 96 -3 486 -2 486 218 126 c120 69 223 126 227 126 5 0 107
-57 227 -126 120 -69 222 -124 226 -122 4 2 50 27 101 57 67 39 89 56 79 62
-8 4 -151 87 -319 184 -167 96 -308 175 -314 175 -6 0 -153 -82 -327 -182z"/>
<path d="M1142 1498 l-122 -71 2 -375 3 -376 118 -68 c66 -37 123 -68 129 -68
14 0 648 361 648 369 -1 3 -43 32 -96 63 l-95 58 -229 -131 c-226 -130 -230
-131 -255 -115 l-25 16 0 253 0 253 120 68 c66 38 122 72 125 76 5 7 -180 121
-194 119 -3 0 -61 -32 -129 -71z"/>
</g>
</svg>
