<?xml version="1.0" standalone="no"?>
<!DOCTYPE svg PUBLIC "-//W3C//DTD SVG 20010904//EN"
 "http://www.w3.org/TR/2001/REC-SVG-20010904/DTD/svg10.dtd">
<svg version="1.0" xmlns="http://www.w3.org/2000/svg"
 width="256.000000pt" height="256.000000pt" viewBox="0 0 256.000000 256.000000"
 preserveAspectRatio="xMidYMid meet">

<g transform="translate(0.000000,256.000000) scale(0.100000,-0.100000)"
fill="#000000" stroke="none">
<path d="M1223 2300 c-22 -13 -79 -88 -170 -226 -135 -202 -138 -208 -138
-261 0 -49 3 -58 33 -84 l32 -29 300 0 300 0 32 29 c30 26 33 35 33 84 0 53
-3 58 -143 269 -90 135 -153 220 -168 227 -37 16 -75 13 -111 -9z"/>
<path d="M838 1461 c-88 -18 -96 -29 -432 -556 -185 -292 -318 -511 -322 -531
-14 -74 21 -144 90 -182 29 -16 110 -17 1106 -17 996 0 1077 1 1106 17 69 38
104 108 90 182 -4 21 -136 238 -324 533 -296 464 -320 500 -366 528 l-49 30
-431 2 c-237 1 -448 -2 -468 -6z"/>
</g>
</svg>
