<?xml version="1.0" standalone="no"?>
<!DOCTYPE svg PUBLIC "-//W3C//DTD SVG 20010904//EN"
 "http://www.w3.org/TR/2001/REC-SVG-20010904/DTD/svg10.dtd">
<svg version="1.0" xmlns="http://www.w3.org/2000/svg"
 width="256.000000pt" height="256.000000pt" viewBox="0 0 256.000000 256.000000"
 preserveAspectRatio="xMidYMid meet">

<g transform="translate(0.000000,256.000000) scale(0.100000,-0.100000)"
fill="#000000" stroke="none">
<path d="M162 2263 l3 -138 135 0 135 0 0 135 0 135 -138 3 -138 3 3 -138z"/>
<path d="M842 2263 l3 -138 133 -3 132 -3 0 141 0 140 -135 0 -136 0 3 -137z"/>
<path d="M1462 2263 l3 -138 135 0 135 0 3 138 3 137 -141 0 -141 0 3 -137z"/>
<path d="M2220 2270 l0 -90 90 0 90 0 0 90 0 90 -90 0 -90 0 0 -90z"/>
<path d="M160 1620 l0 -141 138 3 137 3 0 135 0 135 -137 3 -138 3 0 -141z"/>
<path d="M840 1620 l0 -140 135 0 135 0 0 140 0 140 -135 0 -135 0 0 -140z"/>
<path d="M1560 1610 l0 -90 90 0 90 0 0 90 0 90 -90 0 -90 0 0 -90z"/>
<path d="M2220 1610 l0 -90 90 0 90 0 0 90 0 90 -90 0 -90 0 0 -90z"/>
<path d="M160 940 l0 -141 138 3 137 3 0 135 0 135 -137 3 -138 3 0 -141z"/>
<path d="M880 930 l0 -90 90 0 90 0 0 90 0 90 -90 0 -90 0 0 -90z"/>
<path d="M1560 930 l0 -90 90 0 90 0 0 90 0 90 -90 0 -90 0 0 -90z"/>
<path d="M2220 930 l0 -90 90 0 90 0 0 90 0 90 -90 0 -90 0 0 -90z"/>
<path d="M220 270 l0 -90 90 0 90 0 0 90 0 90 -90 0 -90 0 0 -90z"/>
<path d="M880 270 l0 -90 90 0 90 0 0 90 0 90 -90 0 -90 0 0 -90z"/>
<path d="M1560 270 l0 -90 90 0 90 0 0 90 0 90 -90 0 -90 0 0 -90z"/>
<path d="M2220 270 l0 -90 90 0 90 0 0 90 0 90 -90 0 -90 0 0 -90z"/>
</g>
</svg>
