<?xml version="1.0" standalone="no"?>
<!DOCTYPE svg PUBLIC "-//W3C//DTD SVG 20010904//EN"
 "http://www.w3.org/TR/2001/REC-SVG-20010904/DTD/svg10.dtd">
<svg version="1.0" xmlns="http://www.w3.org/2000/svg"
 width="256.000000pt" height="256.000000pt" viewBox="0 0 256.000000 256.000000"
 preserveAspectRatio="xMidYMid meet">

<g transform="translate(0.000000,256.000000) scale(0.100000,-0.100000)"
fill="#000000" stroke="none">
<path d="M760 2181 l-515 -298 0 -603 0 -603 518 -299 518 -298 517 298 517
299 0 603 0 603 -515 298 c-283 164 -517 298 -520 298 -3 0 -237 -134 -520
-298z m510 -60 l0 -209 -236 -136 c-129 -75 -240 -136 -245 -136 -5 0 -89 46
-185 102 -119 68 -172 104 -162 109 70 42 824 478 826 478 1 1 2 -93 2 -208z
m463 -46 c218 -126 394 -232 390 -236 -17 -16 -341 -199 -352 -199 -6 0 -117
61 -246 136 l-235 136 0 210 0 210 23 -14 c12 -8 201 -117 420 -243z m-232
-347 c165 -96 207 -124 197 -133 -7 -7 -104 -64 -215 -128 l-203 -116 -207
120 c-115 66 -212 124 -216 128 -8 8 397 249 421 250 7 1 107 -54 223 -121z
m-949 -100 l178 -102 0 -276 0 -275 -175 -102 c-96 -57 -179 -103 -185 -103
-7 0 -10 154 -10 480 0 264 3 480 7 480 4 0 87 -46 185 -102z m1648 -378 c0
-264 -4 -480 -8 -480 -4 0 -86 46 -182 103 l-175 102 -3 275 -2 275 177 102
c98 56 181 102 186 102 4 1 7 -215 7 -479z m-1195 117 l210 -122 3 -248 c1
-136 -1 -247 -4 -247 -4 0 -103 55 -220 122 l-214 122 0 248 c0 136 3 248 8
248 4 -1 101 -56 217 -123z m775 -126 l0 -249 -214 -121 c-118 -67 -217 -121
-220 -121 -4 0 -5 111 -4 247 l3 247 210 122 c116 67 213 123 218 123 4 1 7
-111 7 -248z m-776 -436 c114 -65 210 -124 212 -130 3 -6 3 -101 2 -212 l-3
-201 -411 236 c-225 131 -411 242 -412 247 -1 6 75 56 170 112 l173 102 30
-18 c17 -9 124 -71 239 -136z m1004 50 c94 -55 171 -103 172 -106 0 -8 -816
-479 -830 -479 -7 0 -10 66 -8 206 l3 207 240 138 c132 76 243 137 246 136 3
-1 82 -47 177 -102z"/>
</g>
</svg>
