<?xml version="1.0" standalone="no"?>
<!DOCTYPE svg PUBLIC "-//W3C//DTD SVG 20010904//EN"
 "http://www.w3.org/TR/2001/REC-SVG-20010904/DTD/svg10.dtd">
<svg version="1.0" xmlns="http://www.w3.org/2000/svg"
 width="256.000000pt" height="256.000000pt" viewBox="0 0 256.000000 256.000000"
 preserveAspectRatio="xMidYMid meet">

<g transform="translate(0.000000,256.000000) scale(0.100000,-0.100000)"
fill="#000000" stroke="none">
<path d="M1740 2466 c-105 -30 -203 -105 -285 -221 -78 -110 -117 -204 -195
-473 -33 -110 -34 -113 -59 -108 -73 15 -484 66 -489 61 -6 -6 -24 -127 -19
-131 2 -2 112 -21 245 -42 133 -21 244 -41 247 -43 5 -5 -50 -257 -57 -265 -2
-2 -110 12 -238 31 -129 19 -238 31 -241 27 -4 -4 -10 -33 -14 -64 -6 -54 -5
-58 17 -62 24 -6 423 -66 434 -66 26 0 -128 -649 -182 -768 -84 -184 -202
-242 -286 -141 -85 103 -104 119 -142 119 -41 0 -63 -25 -73 -84 -5 -34 -2
-40 40 -81 72 -69 179 -91 309 -64 151 32 268 128 343 283 63 132 160 400 200
555 18 73 36 136 39 138 3 3 105 -9 228 -26 123 -17 232 -33 243 -34 16 -2 22
9 37 61 12 47 14 64 5 67 -7 2 -118 18 -247 36 -129 18 -236 33 -238 35 -5 3
46 266 53 272 3 3 103 -9 223 -26 119 -18 222 -32 228 -32 10 0 50 118 42 125
-2 2 -106 18 -231 37 -126 18 -232 35 -237 38 -13 8 152 569 182 620 41 71
105 137 144 150 53 18 90 0 169 -85 63 -67 74 -75 107 -75 47 0 68 28 68 91 0
42 -4 50 -44 87 -28 26 -64 46 -97 56 -62 19 -165 19 -229 2z"/>
</g>
</svg>
