<?xml version="1.0" standalone="no"?>
<!DOCTYPE svg PUBLIC "-//W3C//DTD SVG 20010904//EN"
 "http://www.w3.org/TR/2001/REC-SVG-20010904/DTD/svg10.dtd">
<svg version="1.0" xmlns="http://www.w3.org/2000/svg"
 width="256.000000pt" height="256.000000pt" viewBox="0 0 256.000000 256.000000"
 preserveAspectRatio="xMidYMid meet">

<g transform="translate(0.000000,256.000000) scale(0.100000,-0.100000)"
fill="#000000" stroke="none">
<path d="M910 2105 l-365 -365 130 -130 c71 -71 134 -130 140 -130 5 0 112
102 237 227 l228 228 233 -233 232 -232 135 135 135 135 -365 365 c-201 201
-367 365 -370 365 -3 0 -169 -164 -370 -365z"/>
<path d="M222 1417 c-72 -73 -132 -137 -132 -143 0 -5 59 -68 130 -139 l131
-129 137 137 137 137 -135 135 -135 135 -133 -133z"/>
<path d="M1140 1415 l-135 -135 138 -138 137 -137 137 137 138 138 -135 135
c-74 74 -137 135 -140 135 -3 0 -66 -61 -140 -135z"/>
<path d="M2070 1415 l-135 -135 138 -137 137 -138 130 130 c71 71 130 134 130
140 0 6 -60 70 -133 143 l-132 132 -135 -135z"/>
<path d="M1512 858 l-232 -233 -228 228 c-125 125 -232 227 -237 227 -13 0
-265 -252 -265 -265 0 -16 714 -725 730 -725 17 0 730 709 730 725 0 6 -60 70
-133 143 l-132 132 -233 -232z"/>
</g>
</svg>
