<?xml version="1.0" standalone="no"?>
<!DOCTYPE svg PUBLIC "-//W3C//DTD SVG 20010904//EN"
 "http://www.w3.org/TR/2001/REC-SVG-20010904/DTD/svg10.dtd">
<svg version="1.0" xmlns="http://www.w3.org/2000/svg"
 width="256.000000pt" height="256.000000pt" viewBox="0 0 256.000000 256.000000"
 preserveAspectRatio="xMidYMid meet">

<g transform="translate(0.000000,256.000000) scale(0.100000,-0.100000)"
fill="#000000" stroke="none">
<path d="M1092 2384 c-167 -28 -348 -107 -489 -213 -408 -307 -556 -873 -351
-1333 l31 -68 272 0 273 0 101 174 c56 95 101 176 101 180 0 3 -63 6 -140 6
-180 0 -180 0 -180 133 0 137 -11 131 262 137 l220 5 161 312 162 313 293 0
c160 0 292 4 292 9 0 4 -22 29 -48 53 -257 241 -616 350 -960 292z"/>
<path d="M1598 1573 l-97 -168 137 -5 c84 -3 146 -10 159 -18 29 -16 36 -45
31 -136 -6 -118 2 -115 -256 -118 l-214 -3 -162 -312 -161 -313 -280 0 -280
-1 49 -45 c249 -229 599 -333 935 -279 557 91 962 585 938 1145 -6 132 -27
244 -66 345 l-27 70 -305 3 -305 2 -96 -167z"/>
</g>
</svg>
