<?xml version="1.0" standalone="no"?>
<!DOCTYPE svg PUBLIC "-//W3C//DTD SVG 20010904//EN"
 "http://www.w3.org/TR/2001/REC-SVG-20010904/DTD/svg10.dtd">
<svg version="1.0" xmlns="http://www.w3.org/2000/svg"
 width="256.000000pt" height="256.000000pt" viewBox="0 0 256.000000 256.000000"
 preserveAspectRatio="xMidYMid meet">

<g transform="translate(0.000000,256.000000) scale(0.100000,-0.100000)"
fill="#000000" stroke="none">
<path d="M165 2378 c3 -13 75 -369 160 -792 85 -422 157 -771 160 -775 4 -3
38 -5 77 -3 78 3 225 52 235 79 4 11 -271 1329 -308 1476 l-10 37 -160 0 -159
0 5 -22z"/>
<path d="M2030 2395 c0 -3 -72 -341 -160 -752 -88 -411 -159 -752 -156 -758 7
-19 138 -66 208 -75 120 -15 91 -98 270 786 86 428 157 785 158 792 0 9 -38
12 -160 12 -88 0 -160 -2 -160 -5z"/>
<path d="M1074 1303 c-55 -186 -100 -339 -99 -341 1 -1 33 4 71 12 38 8 89 18
114 23 l45 8 21 82 c12 45 24 88 26 95 5 12 20 -32 47 -139 11 -40 12 -41 64
-48 28 -4 78 -13 111 -21 32 -8 60 -14 62 -12 1 2 -34 130 -80 283 -46 154
-91 306 -100 338 l-17 57 -82 0 -82 0 -101 -337z"/>
<path d="M975 643 c-49 -7 -93 -19 -97 -26 -4 -6 -13 -36 -19 -65 -17 -72 -29
-75 -29 -7 0 36 -5 57 -13 61 -7 2 -40 -7 -73 -20 -34 -14 -91 -31 -129 -37
-37 -7 -69 -18 -71 -24 -4 -10 48 -299 62 -347 5 -16 22 -18 174 -18 l169 0
36 115 c37 123 103 339 111 368 6 20 5 20 -121 0z"/>
<path d="M1446 548 c19 -62 53 -175 76 -250 l41 -138 172 0 171 0 35 183 c24
122 32 184 24 189 -5 3 -39 12 -75 18 -36 6 -91 23 -122 36 -32 13 -62 24 -67
24 -6 0 -13 -28 -17 -61 -7 -67 -15 -63 -34 19 -6 28 -15 54 -19 57 -6 3 -202
35 -217 35 -1 0 13 -51 32 -112z"/>
</g>
</svg>
