<?xml version="1.0" standalone="no"?>
<!DOCTYPE svg PUBLIC "-//W3C//DTD SVG 20010904//EN"
 "http://www.w3.org/TR/2001/REC-SVG-20010904/DTD/svg10.dtd">
<svg version="1.0" xmlns="http://www.w3.org/2000/svg"
 width="256.000000pt" height="256.000000pt" viewBox="0 0 256.000000 256.000000"
 preserveAspectRatio="xMidYMid meet">

<g transform="translate(0.000000,256.000000) scale(0.100000,-0.100000)"
fill="#000000" stroke="none">
<path d="M1029 2081 l-544 -319 -3 -276 c-1 -152 0 -276 3 -276 10 0 1575 904
1575 910 0 4 -161 97 -420 242 l-66 38 -545 -319z"/>
<path d="M1058 1382 l-578 -337 0 -280 0 -280 263 -158 c144 -86 266 -157 270
-157 4 0 8 140 9 312 l3 312 544 315 c299 174 544 320 544 326 -1 8 -440 272
-468 280 -5 2 -270 -148 -587 -333z"/>
</g>
</svg>
