<?xml version="1.0" standalone="no"?>
<!DOCTYPE svg PUBLIC "-//W3C//DTD SVG 20010904//EN"
 "http://www.w3.org/TR/2001/REC-SVG-20010904/DTD/svg10.dtd">
<svg version="1.0" xmlns="http://www.w3.org/2000/svg"
 width="256.000000pt" height="256.000000pt" viewBox="0 0 256.000000 256.000000"
 preserveAspectRatio="xMidYMid meet">

<g transform="translate(0.000000,256.000000) scale(0.100000,-0.100000)"
fill="#000000" stroke="none">
<path d="M1655 2384 c-209 -44 -400 -194 -496 -389 -48 -99 -68 -174 -76 -291
l-6 -91 -161 -6 c-129 -4 -175 -9 -231 -27 -146 -46 -270 -128 -357 -234 -200
-242 -222 -588 -54 -851 199 -310 601 -422 931 -258 180 89 311 246 375 448
18 56 23 103 27 232 l6 163 261 2 261 3 0 260 0 260 -262 3 -263 2 0 56 c0 85
52 167 123 193 18 7 146 11 348 11 l319 0 0 265 0 265 -337 -1 c-256 0 -355
-4 -408 -15z m-577 -1438 c-3 -133 -3 -135 -34 -172 -54 -68 -77 -79 -158 -79
-60 0 -78 4 -108 24 -52 36 -81 84 -86 146 -5 67 10 113 51 153 57 55 80 62
215 62 l124 0 -4 -134z"/>
</g>
</svg>
