<?xml version="1.0" standalone="no"?>
<!DOCTYPE svg PUBLIC "-//W3C//DTD SVG 20010904//EN"
 "http://www.w3.org/TR/2001/REC-SVG-20010904/DTD/svg10.dtd">
<svg version="1.0" xmlns="http://www.w3.org/2000/svg"
 width="256.000000pt" height="256.000000pt" viewBox="0 0 256.000000 256.000000"
 preserveAspectRatio="xMidYMid meet">

<g transform="translate(0.000000,256.000000) scale(0.100000,-0.100000)"
fill="#000000" stroke="none">
<path d="M1160 2394 c-14 -2 -52 -9 -85 -15 -219 -38 -426 -151 -592 -322
-160 -166 -244 -325 -299 -562 -13 -56 -17 -152 -21 -490 -3 -231 -3 -436 -1
-455 l3 -35 34 62 c38 70 130 170 211 229 139 102 283 170 630 299 289 108
371 147 432 206 37 35 48 52 48 76 0 43 -51 85 -137 113 -148 49 -203 92 -203
160 0 68 64 136 246 262 144 99 217 167 248 230 30 61 32 78 10 124 -21 45
-83 80 -170 99 -69 15 -306 28 -354 19z"/>
</g>
</svg>
