<?xml version="1.0" standalone="no"?>
<!DOCTYPE svg PUBLIC "-//W3C//DTD SVG 20010904//EN"
 "http://www.w3.org/TR/2001/REC-SVG-20010904/DTD/svg10.dtd">
<svg version="1.0" xmlns="http://www.w3.org/2000/svg"
 width="256.000000pt" height="256.000000pt" viewBox="0 0 256.000000 256.000000"
 preserveAspectRatio="xMidYMid meet">

<g transform="translate(0.000000,256.000000) scale(0.100000,-0.100000)"
fill="#000000" stroke="none">
<path d="M805 2121 l-480 -278 -3 -247 c-1 -135 0 -246 3 -246 3 0 73 39 155
86 l149 86 158 -91 158 -91 3 68 3 67 381 220 c209 121 386 219 391 217 10 -3
402 -229 495 -284 l32 -20 0 119 -1 118 -476 275 c-262 151 -479 276 -482 277
-3 1 -222 -123 -486 -276z"/>
<path d="M1445 1496 l-260 -152 0 -314 0 -314 80 -46 c44 -26 164 -95 266
-154 l187 -108 266 154 266 153 0 315 0 315 -265 153 c-145 83 -267 152 -272
151 -4 0 -125 -69 -268 -153z"/>
<path d="M467 1164 l-147 -86 2 -180 3 -180 152 -88 151 -88 156 90 156 90 0
178 0 178 -149 86 c-82 47 -155 86 -162 86 -8 0 -80 -39 -162 -86z"/>
<path d="M957 467 c-48 -28 -86 -56 -84 -60 1 -5 95 -62 209 -128 l206 -119
96 56 c54 31 94 60 89 65 -15 15 -408 239 -418 238 -5 0 -49 -23 -98 -52z"/>
</g>
</svg>
