<?xml version="1.0" standalone="no"?>
<!DOCTYPE svg PUBLIC "-//W3C//DTD SVG 20010904//EN"
 "http://www.w3.org/TR/2001/REC-SVG-20010904/DTD/svg10.dtd">
<svg version="1.0" xmlns="http://www.w3.org/2000/svg"
 width="256.000000pt" height="256.000000pt" viewBox="0 0 256.000000 256.000000"
 preserveAspectRatio="xMidYMid meet">

<g transform="translate(0.000000,256.000000) scale(0.100000,-0.100000)"
fill="#000000" stroke="none">
<path d="M1520 2465 c-125 -17 -240 -47 -337 -88 -247 -105 -436 -336 -516
-632 -20 -78 -21 -102 -25 -790 -2 -390 0 -725 3 -743 7 -40 59 -101 102 -118
64 -27 149 -8 195 43 46 51 48 71 48 483 l0 390 368 0 c339 0 370 2 409 19
129 59 129 247 1 310 -43 20 -58 21 -411 21 l-367 0 0 118 c0 138 17 217 66
320 42 86 140 196 211 234 100 54 291 98 427 98 145 0 235 91 212 215 -8 43
-59 103 -103 121 -40 17 -155 16 -283 -1z"/>
</g>
</svg>
