<?xml version="1.0" standalone="no"?>
<!DOCTYPE svg PUBLIC "-//W3C//DTD SVG 20010904//EN"
 "http://www.w3.org/TR/2001/REC-SVG-20010904/DTD/svg10.dtd">
<svg version="1.0" xmlns="http://www.w3.org/2000/svg"
 width="256.000000pt" height="256.000000pt" viewBox="0 0 256.000000 256.000000"
 preserveAspectRatio="xMidYMid meet">

<g transform="translate(0.000000,256.000000) scale(0.100000,-0.100000)"
fill="#000000" stroke="none">
<path d="M160 2477 c0 -1 40 -236 89 -523 l89 -520 -59 -260 c-32 -142 -58
-262 -57 -266 2 -3 199 -147 437 -318 318 -228 463 -339 540 -412 l105 -99
106 110 c94 99 146 139 505 397 220 158 409 296 421 306 l21 18 -44 263 -44
262 61 478 c34 263 60 481 58 485 -2 5 -176 -56 -388 -134 l-385 -143 -336 0
-337 -1 -328 151 c-399 184 -454 209 -454 206z m413 -318 c133 -61 243 -113
245 -114 2 -1 -82 -115 -185 -253 -103 -138 -189 -249 -191 -248 -3 4 -122
696 -122 714 0 6 3 12 6 12 3 0 114 -50 247 -111z m1633 -278 c-24 -188 -46
-344 -49 -347 -5 -5 -437 481 -437 493 0 7 522 204 527 199 2 -2 -17 -157 -41
-345z m-412 -125 c119 -135 216 -247 216 -250 0 -3 -324 -6 -721 -6 -397 0
-719 4 -717 9 2 4 84 117 183 249 l180 241 321 1 322 0 216 -244z m295 -380
c-2 -2 -166 -130 -364 -286 -198 -156 -378 -298 -401 -317 l-41 -33 -339 296
c-186 163 -350 307 -364 320 l-25 24 769 0 c423 0 767 -2 765 -4z m-1342 -326
c166 -145 301 -265 300 -266 -4 -4 -679 174 -685 180 -7 8 69 358 77 354 4 -2
142 -122 308 -268z m1452 72 c14 -83 22 -154 19 -158 -9 -8 -650 -165 -655
-160 -7 6 591 475 602 472 6 -1 21 -71 34 -154z m-1254 -437 c160 -41 298 -79
309 -83 16 -7 5 -20 -74 -85 -57 -48 -99 -76 -108 -72 -14 5 -428 299 -447
318 -6 6 -3 7 10 3 11 -3 151 -39 310 -81z m1010 76 c-33 -29 -447 -321 -455
-321 -15 0 -202 162 -195 168 7 7 614 160 640 161 11 1 15 -3 10 -8z"/>
</g>
</svg>
