<?xml version="1.0" standalone="no"?>
<!DOCTYPE svg PUBLIC "-//W3C//DTD SVG 20010904//EN"
 "http://www.w3.org/TR/2001/REC-SVG-20010904/DTD/svg10.dtd">
<svg version="1.0" xmlns="http://www.w3.org/2000/svg"
 width="256.000000pt" height="256.000000pt" viewBox="0 0 256.000000 256.000000"
 preserveAspectRatio="xMidYMid meet">

<g transform="translate(0.000000,256.000000) scale(0.100000,-0.100000)"
fill="#000000" stroke="none">
<path d="M320 2258 l-134 -142 155 -150 155 -151 -41 -80 c-81 -160 -111 -298
-102 -479 6 -141 35 -253 97 -375 l39 -79 -164 -174 -164 -173 52 -53 c28 -30
92 -90 141 -135 l89 -82 161 169 162 169 52 -33 c66 -40 215 -94 308 -110 102
-18 307 -8 404 20 41 11 117 41 168 66 l93 45 168 -160 c93 -89 171 -161 173
-161 2 0 64 64 138 142 l133 141 -39 36 c-21 19 -97 90 -167 157 l-128 122 50
104 c71 145 95 249 94 413 -1 157 -27 272 -93 408 l-43 88 29 32 c16 17 84 89
151 160 68 71 123 132 123 137 0 5 -62 67 -137 140 l-138 132 -152 -159 -152
-158 -61 33 c-150 81 -276 112 -462 112 -165 0 -268 -23 -404 -89 l-99 -49
-160 154 -161 153 -134 -141z m1103 -413 c87 -23 174 -71 240 -134 121 -114
178 -246 178 -410 0 -165 -60 -302 -180 -412 -360 -331 -940 -74 -941 416 0
246 175 474 416 540 67 18 217 18 287 0z"/>
</g>
</svg>
