<?xml version="1.0" standalone="no"?>
<!DOCTYPE svg PUBLIC "-//W3C//DTD SVG 20010904//EN"
 "http://www.w3.org/TR/2001/REC-SVG-20010904/DTD/svg10.dtd">
<svg version="1.0" xmlns="http://www.w3.org/2000/svg"
 width="256.000000pt" height="256.000000pt" viewBox="0 0 256.000000 256.000000"
 preserveAspectRatio="xMidYMid meet">

<g transform="translate(0.000000,256.000000) scale(0.100000,-0.100000)"
fill="#000000" stroke="none">
<path d="M560 1280 l0 -1200 105 0 105 0 2 413 3 412 365 3 365 2 43 93 c23
50 42 95 42 99 0 4 -173 9 -385 10 l-385 3 54 110 c104 210 222 377 291 409
52 25 96 9 184 -69 86 -76 153 -105 242 -105 79 0 118 18 190 87 84 79 153
188 253 394 67 138 226 514 226 535 0 2 -382 4 -850 4 l-850 0 0 -1200z m1386
975 c-9 -35 -120 -276 -168 -365 -86 -157 -146 -230 -188 -230 -27 0 -89 39
-124 78 -32 36 -108 79 -170 97 -166 48 -311 -34 -462 -261 l-59 -89 -3 385
c-1 212 0 391 3 397 3 10 130 13 591 13 l586 0 -6 -25z"/>
</g>
</svg>
