<?xml version="1.0" standalone="no"?>
<!DOCTYPE svg PUBLIC "-//W3C//DTD SVG 20010904//EN"
 "http://www.w3.org/TR/2001/REC-SVG-20010904/DTD/svg10.dtd">
<svg version="1.0" xmlns="http://www.w3.org/2000/svg"
 width="256.000000pt" height="256.000000pt" viewBox="0 0 256.000000 256.000000"
 preserveAspectRatio="xMidYMid meet">

<g transform="translate(0.000000,256.000000) scale(0.100000,-0.100000)"
fill="#000000" stroke="none">
<path d="M1395 2338 c-3 -7 -77 -280 -164 -606 -87 -326 -162 -596 -165 -599
-3 -4 -130 27 -281 67 -164 44 -279 70 -284 64 -9 -10 -71 -236 -71 -259 0 -8
18 -19 43 -26 23 -6 147 -40 275 -74 128 -35 235 -65 238 -68 8 -8 -69 -277
-80 -277 -6 0 -168 42 -361 94 -192 52 -359 96 -369 98 -17 3 -24 -15 -57
-137 -21 -76 -37 -140 -36 -141 5 -4 1020 -274 1031 -274 7 0 55 161 125 423
213 796 213 797 228 797 8 0 132 -31 275 -70 143 -38 266 -70 272 -70 10 0 90
270 82 278 -2 2 -129 37 -282 78 -152 41 -279 75 -280 77 -1 1 14 64 34 140
23 86 42 137 50 137 7 0 172 -43 366 -95 194 -52 360 -95 368 -95 11 0 25 38
52 136 20 75 36 138 34 140 -6 5 -1012 274 -1027 274 -6 0 -14 -6 -16 -12z"/>
</g>
</svg>
