<?xml version="1.0" standalone="no"?>
<!DOCTYPE svg PUBLIC "-//W3C//DTD SVG 20010904//EN"
 "http://www.w3.org/TR/2001/REC-SVG-20010904/DTD/svg10.dtd">
<svg version="1.0" xmlns="http://www.w3.org/2000/svg"
 width="256.000000pt" height="256.000000pt" viewBox="0 0 256.000000 256.000000"
 preserveAspectRatio="xMidYMid meet">

<g transform="translate(0.000000,256.000000) scale(0.100000,-0.100000)"
fill="#000000" stroke="none">
<path d="M1718 2464 c-112 -27 -226 -99 -337 -213 -73 -75 -177 -201 -235
-283 -34 -48 -54 -68 -69 -68 -31 0 -295 -63 -402 -95 -167 -51 -269 -117
-406 -263 -83 -90 -113 -130 -88 -119 8 3 97 44 199 91 102 46 214 92 249 101
73 19 281 48 289 40 3 -2 -23 -71 -56 -152 -171 -414 -224 -579 -261 -813 -32
-201 -61 -604 -43 -585 6 6 62 156 126 335 160 448 194 531 328 800 153 308
214 417 236 424 42 13 165 26 257 26 191 0 417 -50 775 -170 96 -33 176 -57
179 -55 8 8 -251 264 -334 331 -54 43 -104 74 -155 93 -93 36 -258 69 -390 77
-55 4 -100 10 -100 15 0 14 89 111 147 161 78 67 143 103 233 132 69 22 196
43 295 49 l39 2 -64 51 c-36 28 -78 58 -95 66 -74 38 -213 48 -317 22z"/>
<path d="M1625 1001 c-128 -34 -225 -157 -225 -287 0 -91 24 -150 89 -215 71
-70 133 -94 230 -87 164 12 276 132 276 298 0 122 -56 215 -161 266 -58 28
-154 40 -209 25z"/>
</g>
</svg>
