<?xml version="1.0" standalone="no"?>
<!DOCTYPE svg PUBLIC "-//W3C//DTD SVG 20010904//EN"
 "http://www.w3.org/TR/2001/REC-SVG-20010904/DTD/svg10.dtd">
<svg version="1.0" xmlns="http://www.w3.org/2000/svg"
 width="256.000000pt" height="256.000000pt" viewBox="0 0 256.000000 256.000000"
 preserveAspectRatio="xMidYMid meet">

<g transform="translate(0.000000,256.000000) scale(0.100000,-0.100000)"
fill="#000000" stroke="none">
<path d="M920 2275 l-355 -202 0 -793 0 -793 359 -203 359 -204 361 204 361
205 0 791 0 791 -360 204 c-198 113 -362 204 -365 204 -3 -1 -165 -92 -360
-204z m614 -101 c135 -80 246 -149 246 -153 0 -9 -491 -286 -502 -283 -9 2
-247 138 -432 244 l-68 40 248 149 c137 81 252 148 256 149 3 0 117 -66 252
-146z m-404 -525 c0 -7 -411 -249 -423 -249 -8 0 -9 484 -1 492 6 6 423 -233
424 -243z m727 -246 c-2 -2 -99 52 -215 119 -198 115 -210 124 -191 137 11 8
107 65 212 126 l192 112 3 -245 c1 -135 1 -247 -1 -249z m-647 -128 c0 -135
-3 -245 -7 -245 -10 0 -424 242 -421 246 8 8 414 243 421 244 4 0 7 -110 7
-245z m361 127 c111 -65 202 -122 202 -127 1 -9 -389 -244 -405 -245 -5 0 -8
110 -8 245 0 135 2 245 4 245 3 0 96 -53 207 -118z m-587 -412 c151 -88 281
-163 290 -166 9 -3 126 59 293 156 153 90 281 165 286 167 4 2 6 -129 5 -292
l-3 -297 -280 -164 c-159 -93 -287 -162 -297 -160 -21 5 -535 302 -560 324
-16 14 -18 41 -18 304 0 158 2 288 5 288 3 0 129 -72 279 -160z"/>
</g>
</svg>
