<?xml version="1.0" standalone="no"?>
<!DOCTYPE svg PUBLIC "-//W3C//DTD SVG 20010904//EN"
 "http://www.w3.org/TR/2001/REC-SVG-20010904/DTD/svg10.dtd">
<svg version="1.0" xmlns="http://www.w3.org/2000/svg"
 width="256.000000pt" height="256.000000pt" viewBox="0 0 256.000000 256.000000"
 preserveAspectRatio="xMidYMid meet">

<g transform="translate(0.000000,256.000000) scale(0.100000,-0.100000)"
fill="#000000" stroke="none">
<path d="M790 1980 l0 -260 805 0 805 0 0 260 0 260 -805 0 -805 0 0 -260z"/>
<path d="M167 1524 c-4 -4 -7 -121 -7 -261 l0 -253 260 0 260 0 -2 258 -3 257
-251 3 c-138 1 -253 -1 -257 -4z"/>
<path d="M797 1523 c-4 -3 -7 -120 -7 -260 l0 -253 580 0 580 0 0 260 0 260
-573 0 c-316 0 -577 -3 -580 -7z"/>
<path d="M792 553 l3 -258 258 -3 257 -2 0 260 0 260 -260 0 -260 0 2 -257z"/>
</g>
</svg>
