<?xml version="1.0" standalone="no"?>
<!DOCTYPE svg PUBLIC "-//W3C//DTD SVG 20010904//EN"
 "http://www.w3.org/TR/2001/REC-SVG-20010904/DTD/svg10.dtd">
<svg version="1.0" xmlns="http://www.w3.org/2000/svg"
 width="256.000000pt" height="256.000000pt" viewBox="0 0 256.000000 256.000000"
 preserveAspectRatio="xMidYMid meet">

<g transform="translate(0.000000,256.000000) scale(0.100000,-0.100000)"
fill="#000000" stroke="none">
<path d="M780 2169 c-278 -171 -513 -320 -523 -331 -16 -19 -17 -61 -17 -582
0 -435 3 -566 13 -578 16 -20 1003 -590 1030 -595 26 -4 1019 573 1055 613
l22 25 -1 562 c0 309 -4 571 -8 581 -8 21 -1024 616 -1051 616 -8 0 -243 -140
-520 -311z m969 -74 c236 -137 427 -253 423 -257 -9 -8 -860 -507 -887 -520
-17 -7 -96 35 -440 234 -231 134 -419 248 -418 253 1 13 865 546 880 543 6 -2
205 -115 442 -253z m491 -844 l0 -489 -372 -218 c-205 -120 -406 -237 -446
-261 l-72 -43 2 491 3 491 440 259 c242 142 441 258 443 259 1 0 2 -220 2
-489z m-1307 116 l297 -172 0 -478 0 -479 -22 14 c-13 8 -209 121 -435 252
l-413 239 0 478 0 478 138 -80 c75 -44 271 -157 435 -252z"/>
<path d="M1190 2080 c-38 -38 -27 -50 132 -135 145 -79 156 -92 116 -140 -17
-20 -36 -28 -70 -32 -42 -5 -57 1 -221 86 -109 57 -181 89 -191 85 -25 -9 -38
-41 -27 -62 5 -9 89 -59 186 -111 l177 -93 73 4 c64 3 79 7 112 34 21 17 46
46 55 65 24 46 24 131 1 151 -18 16 -304 168 -316 168 -4 0 -16 -9 -27 -20z"/>
<path d="M1932 1298 c-8 -8 -12 -59 -12 -165 0 -84 -4 -153 -9 -153 -4 0 -41
37 -81 83 -86 97 -94 103 -126 88 l-24 -11 0 -223 c0 -234 2 -247 45 -247 40
0 45 17 45 169 l1 146 87 -93 c48 -51 95 -92 104 -92 9 0 24 7 32 16 14 13 16
49 16 238 0 203 -2 224 -18 239 -22 20 -43 22 -60 5z"/>
<path d="M620 1282 c-8 -3 -18 -10 -22 -16 -4 -6 -8 -136 -8 -289 l0 -277 25
-12 c21 -9 28 -8 45 7 16 14 20 33 22 101 l3 84 117 -66 c126 -70 153 -74 164
-27 9 34 -2 43 -152 127 l-129 73 -3 87 -3 88 145 -76 c79 -42 153 -76 165
-76 24 0 45 33 36 59 -3 11 -71 54 -172 107 -197 106 -213 113 -233 106z"/>
</g>
</svg>
