<?xml version="1.0" standalone="no"?>
<!DOCTYPE svg PUBLIC "-//W3C//DTD SVG 20010904//EN"
 "http://www.w3.org/TR/2001/REC-SVG-20010904/DTD/svg10.dtd">
<svg version="1.0" xmlns="http://www.w3.org/2000/svg"
 width="256.000000pt" height="256.000000pt" viewBox="0 0 256.000000 256.000000"
 preserveAspectRatio="xMidYMid meet">

<g transform="translate(0.000000,256.000000) scale(0.100000,-0.100000)"
fill="#000000" stroke="none">
<path d="M1149 2386 c-71 -19 -947 -544 -970 -581 -25 -40 -24 -68 4 -99 12
-14 231 -135 487 -268 l465 -242 87 -4 c61 -3 100 0 131 11 65 22 931 541 956
573 28 36 26 68 -6 104 -31 33 -886 484 -962 507 -54 16 -131 16 -192 -1z"/>
<path d="M1780 1309 c-179 -109 -342 -206 -363 -214 -99 -40 -257 -38 -352 4
-22 10 -182 93 -355 186 -173 92 -320 168 -325 168 -19 1 -186 -107 -206 -131
-25 -33 -24 -75 4 -106 22 -25 876 -485 951 -512 49 -18 159 -18 217 -1 44 14
904 531 946 570 12 11 25 32 28 48 11 49 -16 81 -117 137 -52 29 -96 52 -99
51 -2 0 -150 -90 -329 -200z"/>
<path d="M1753 791 c-221 -133 -331 -193 -374 -205 -70 -20 -196 -23 -260 -6
-24 6 -191 88 -370 181 -179 93 -330 169 -337 169 -21 0 -211 -121 -232 -147
-29 -37 -25 -70 13 -107 36 -36 880 -480 954 -502 58 -17 124 -18 188 -1 59
15 915 523 958 568 33 35 35 76 6 112 -18 24 -201 127 -224 127 -5 0 -151 -85
-322 -189z"/>
</g>
</svg>
