<?xml version="1.0" standalone="no"?>
<!DOCTYPE svg PUBLIC "-//W3C//DTD SVG 20010904//EN"
 "http://www.w3.org/TR/2001/REC-SVG-20010904/DTD/svg10.dtd">
<svg version="1.0" xmlns="http://www.w3.org/2000/svg"
 width="256.000000pt" height="256.000000pt" viewBox="0 0 256.000000 256.000000"
 preserveAspectRatio="xMidYMid meet">

<g transform="translate(0.000000,256.000000) scale(0.100000,-0.100000)"
fill="#000000" stroke="none">
<path d="M274 2373 c-54 -60 -120 -131 -147 -159 l-47 -51 168 -159 168 -158
-48 -96 c-26 -52 -60 -135 -75 -185 -25 -83 -27 -103 -27 -270 0 -217 14 -279
102 -456 l58 -117 -173 -162 -173 -162 92 -100 c51 -55 118 -127 148 -159 l55
-60 188 170 189 170 59 -30 c278 -140 622 -142 899 -6 l90 44 192 -174 193
-174 55 60 c30 32 97 104 147 159 l93 99 -153 143 c-83 79 -164 155 -180 170
l-27 26 50 100 c146 293 144 640 -7 926 l-35 67 108 103 c60 57 139 132 176
167 l68 64 -99 106 c-54 58 -120 130 -147 159 l-49 53 -183 -166 c-101 -91
-184 -165 -186 -165 -2 0 -51 22 -108 50 -170 81 -231 94 -443 94 -167 0 -186
-2 -270 -28 -49 -15 -127 -45 -172 -67 -45 -21 -85 -39 -88 -39 -5 0 -136 115
-336 297 l-25 23 -100 -107z m1149 -479 c261 -63 448 -291 464 -565 11 -190
-46 -339 -181 -475 -136 -135 -285 -192 -475 -181 -358 21 -621 333 -581 689
17 147 76 266 184 373 157 155 369 212 589 159z"/>
</g>
</svg>
