<?xml version="1.0" standalone="no"?>
<!DOCTYPE svg PUBLIC "-//W3C//DTD SVG 20010904//EN"
 "http://www.w3.org/TR/2001/REC-SVG-20010904/DTD/svg10.dtd">
<svg version="1.0" xmlns="http://www.w3.org/2000/svg"
 width="256.000000pt" height="256.000000pt" viewBox="0 0 256.000000 256.000000"
 preserveAspectRatio="xMidYMid meet">

<g transform="translate(0.000000,256.000000) scale(0.100000,-0.100000)"
fill="#000000" stroke="none">
<path d="M2165 2384 c-44 -23 -1963 -1942 -1986 -1986 -71 -138 81 -290 219
-219 46 24 1964 1944 1986 1988 66 132 -89 284 -219 217z"/>
<path d="M997 2298 c-32 -9 -99 -71 -387 -359 -299 -299 -351 -354 -360 -389
-36 -134 97 -251 223 -196 18 8 185 168 379 362 301 303 347 354 353 387 23
126 -86 228 -208 195z"/>
<path d="M2075 1181 c-26 -12 -156 -135 -382 -362 -298 -300 -342 -349 -348
-382 -16 -84 18 -156 89 -188 106 -48 120 -39 494 334 178 177 333 335 344
350 62 86 31 204 -66 248 -52 23 -81 23 -131 0z"/>
</g>
</svg>
