<?xml version="1.0" standalone="no"?>
<!DOCTYPE svg PUBLIC "-//W3C//DTD SVG 20010904//EN"
 "http://www.w3.org/TR/2001/REC-SVG-20010904/DTD/svg10.dtd">
<svg version="1.0" xmlns="http://www.w3.org/2000/svg"
 width="256.000000pt" height="256.000000pt" viewBox="0 0 256.000000 256.000000"
 preserveAspectRatio="xMidYMid meet">

<g transform="translate(0.000000,256.000000) scale(0.100000,-0.100000)"
fill="#000000" stroke="none">
<path d="M1085 2364 c-475 -250 -774 -418 -762 -430 12 -12 958 -561 981 -570
11 -4 364 191 389 215 4 4 -29 26 -73 50 l-80 42 -111 -60 c-60 -34 -112 -61
-114 -61 -6 0 -657 370 -668 380 -6 5 450 258 640 354 l32 16 415 -225 c228
-124 419 -225 425 -225 12 0 151 83 151 90 0 3 -55 35 -122 71 -68 36 -222
121 -343 189 -184 103 -523 280 -536 280 -2 0 -103 -52 -224 -116z"/>
<path d="M242 1284 l3 -577 495 -299 c272 -165 501 -302 508 -305 9 -4 12 116
12 580 l0 586 -27 19 c-38 25 -324 189 -345 197 -16 7 -18 -1 -18 -82 l0 -89
113 -65 112 -65 3 -403 c1 -237 -1 -401 -7 -399 -5 1 -162 97 -350 212 l-341
209 0 483 0 483 -72 42 c-40 23 -76 44 -81 46 -4 2 -6 -255 -5 -573z"/>
<path d="M1893 1576 c-260 -150 -483 -280 -495 -288 -23 -15 -23 -16 -20 -237
l3 -221 69 35 70 35 0 130 0 130 68 44 c37 24 173 105 303 179 130 74 255 147
278 161 22 14 43 26 46 26 3 0 5 -174 5 -387 l0 -388 -28 -16 c-87 -51 -670
-409 -735 -453 l-79 -51 -1 -93 c-1 -50 1 -92 4 -92 3 0 26 15 50 34 99 75
240 163 491 304 266 150 418 242 451 270 16 14 17 55 17 584 0 448 -3 568 -12
567 -7 0 -225 -123 -485 -273z"/>
</g>
</svg>
