<?xml version="1.0" standalone="no"?>
<!DOCTYPE svg PUBLIC "-//W3C//DTD SVG 20010904//EN"
 "http://www.w3.org/TR/2001/REC-SVG-20010904/DTD/svg10.dtd">
<svg version="1.0" xmlns="http://www.w3.org/2000/svg"
 width="256.000000pt" height="256.000000pt" viewBox="0 0 256.000000 256.000000"
 preserveAspectRatio="xMidYMid meet">

<g transform="translate(0.000000,256.000000) scale(0.100000,-0.100000)"
fill="#000000" stroke="none">
<path d="M1345 2393 c-241 -32 -418 -211 -489 -493 -49 -193 -56 -377 -21
-510 8 -30 15 -56 15 -57 0 -1 -39 -4 -87 -5 l-88 -3 -3 -137 -3 -138 161 0
160 0 11 -27 c6 -16 12 -60 13 -98 1 -70 1 -71 -51 -140 -76 -102 -164 -261
-241 -436 -38 -85 -71 -162 -75 -171 -6 -17 28 -18 628 -18 l635 0 0 140 0
140 -430 0 c-236 0 -430 2 -430 5 0 15 38 78 92 152 32 46 67 102 78 125 29
67 43 163 35 250 l-7 78 211 0 211 0 0 140 0 140 -270 0 -270 0 -29 51 c-39
68 -55 160 -47 257 8 93 37 220 65 284 24 57 92 133 141 158 51 26 150 43 220
38 75 -5 195 -64 292 -143 l67 -54 76 107 76 107 -43 38 c-112 98 -262 184
-370 213 -49 13 -163 16 -233 7z"/>
</g>
</svg>
