<?xml version="1.0" standalone="no"?>
<!DOCTYPE svg PUBLIC "-//W3C//DTD SVG 20010904//EN"
 "http://www.w3.org/TR/2001/REC-SVG-20010904/DTD/svg10.dtd">
<svg version="1.0" xmlns="http://www.w3.org/2000/svg"
 width="256.000000pt" height="256.000000pt" viewBox="0 0 256.000000 256.000000"
 preserveAspectRatio="xMidYMid meet">

<g transform="translate(0.000000,256.000000) scale(0.100000,-0.100000)"
fill="#000000" stroke="none">
<path d="M785 2155 l-480 -272 0 -603 0 -603 484 -273 c266 -151 487 -274 491
-274 4 0 234 132 511 294 l504 294 3 311 2 311 -260 0 -260 0 0 -60 0 -60 198
-2 197 -3 0 -209 0 -210 -260 -151 -260 -152 -3 131 -3 132 -109 63 c-61 35
-113 67 -115 71 -3 4 49 40 115 79 l120 72 -2 241 -3 241 -117 66 c-65 36
-118 69 -118 72 0 3 53 35 118 71 l117 65 3 136 c2 100 6 137 15 137 7 0 122
-61 257 -134 l245 -134 3 -81 3 -81 60 0 60 0 -3 121 -3 122 -505 273 c-278
151 -509 274 -515 273 -5 -1 -226 -124 -490 -274z m632 58 l124 -66 -3 -135
-3 -135 -120 -68 c-66 -38 -127 -68 -135 -68 -8 0 -69 30 -135 68 l-120 69 -3
130 -3 130 123 71 c68 39 129 71 137 71 8 0 70 -30 138 -67z m-515 -284 l3
-132 117 -66 c65 -36 118 -69 118 -72 0 -3 -53 -35 -117 -71 l-118 -65 0 -243
0 -243 120 -68 c66 -38 121 -72 122 -76 2 -5 -44 -36 -102 -71 l-105 -63 0
-145 c0 -79 -2 -144 -4 -144 -2 0 -118 65 -257 144 l-254 143 0 523 0 523 225
128 c124 70 230 128 237 128 9 1 13 -35 15 -130z m513 -418 l120 -69 0 -48 0
-49 -255 0 -255 0 0 49 0 49 120 68 c66 38 127 68 135 68 8 0 69 -30 135 -68z
m120 -345 l0 -50 -120 -72 c-66 -41 -124 -73 -130 -73 -5 0 -66 33 -135 72
-123 72 -125 74 -128 111 -6 70 -19 67 260 64 l253 -3 0 -49z m-73 -449 l58
-32 0 -135 0 -136 -115 -67 c-63 -37 -120 -67 -127 -67 -7 0 -58 26 -113 58
l-100 58 0 144 0 144 110 67 110 66 60 -34 c33 -18 86 -48 117 -66z"/>
</g>
</svg>
