<?xml version="1.0" standalone="no"?>
<!DOCTYPE svg PUBLIC "-//W3C//DTD SVG 20010904//EN"
 "http://www.w3.org/TR/2001/REC-SVG-20010904/DTD/svg10.dtd">
<svg version="1.0" xmlns="http://www.w3.org/2000/svg"
 width="256.000000pt" height="256.000000pt" viewBox="0 0 256.000000 256.000000"
 preserveAspectRatio="xMidYMid meet">

<g transform="translate(0.000000,256.000000) scale(0.100000,-0.100000)"
fill="#000000" stroke="none">
<path d="M1550 1625 l0 -55 -55 0 -55 0 0 -55 0 -55 -55 0 -56 0 3 -77 3 -78
53 -3 52 -3 0 -55 0 -54 135 0 135 0 0 -80 0 -80 -187 -2 -188 -3 0 -50 0 -50
108 -3 107 -3 0 -54 0 -55 55 0 55 0 0 55 c0 52 1 55 25 55 24 0 25 3 25 55
l0 55 55 0 55 0 0 80 0 80 -55 0 -55 0 0 55 0 55 -135 0 -135 0 0 80 0 80 190
0 190 0 0 55 0 55 -80 0 -80 0 0 55 0 55 -55 0 -55 0 0 -55z"/>
<path d="M190 1515 l0 -55 -55 0 -55 0 0 -215 0 -215 55 0 55 0 0 -55 0 -55
160 0 160 0 0 55 0 55 55 0 55 0 0 135 0 135 -160 0 -160 0 0 -55 0 -55 105 0
105 0 0 -80 0 -80 -160 0 -160 0 0 215 0 215 215 0 215 0 0 55 0 55 -215 0
-215 0 0 -55z"/>
<path d="M740 1245 l0 -325 50 0 50 0 0 135 0 135 135 0 135 0 0 -135 0 -135
55 0 55 0 0 325 0 325 -49 0 -48 0 -7 -92 c-3 -50 -6 -111 -6 -135 l0 -43
-135 0 -135 0 0 135 0 135 -50 0 -50 0 0 -325z"/>
<path d="M1940 1515 l0 -55 105 0 105 0 2 -272 3 -273 53 -3 52 -3 0 275 0
276 110 0 110 0 0 55 0 55 -270 0 -270 0 0 -55z"/>
</g>
</svg>
