<?xml version="1.0" standalone="no"?>
<!DOCTYPE svg PUBLIC "-//W3C//DTD SVG 20010904//EN"
 "http://www.w3.org/TR/2001/REC-SVG-20010904/DTD/svg10.dtd">
<svg version="1.0" xmlns="http://www.w3.org/2000/svg"
 width="256.000000pt" height="256.000000pt" viewBox="0 0 256.000000 256.000000"
 preserveAspectRatio="xMidYMid meet">

<g transform="translate(0.000000,256.000000) scale(0.100000,-0.100000)"
fill="#000000" stroke="none">
<path d="M1662 2357 l-123 -123 -77 38 c-380 187 -811 -145 -732 -563 28 -150
142 -297 281 -364 40 -19 88 -38 106 -41 l33 -6 0 -93 0 -92 -66 -22 c-90 -29
-148 -65 -214 -131 -200 -201 -198 -523 4 -726 203 -203 525 -204 727 -3 203
203 207 517 8 724 -65 68 -160 125 -242 146 l-48 12 3 90 3 90 65 21 c119 39
212 107 275 202 107 161 120 348 37 514 l-38 75 123 125 123 125 -63 63 -62
62 -123 -123z m-277 -236 c72 -36 148 -118 175 -188 29 -77 25 -206 -9 -271
-106 -205 -354 -262 -531 -122 -82 65 -138 201 -125 305 15 121 107 241 218
284 74 30 202 26 272 -8z m0 -1211 c64 -31 134 -101 165 -165 22 -43 25 -64
25 -150 0 -113 -14 -151 -83 -227 -152 -168 -420 -148 -541 40 -41 64 -65 160
-56 227 15 121 107 241 218 284 75 30 202 26 272 -9z"/>
</g>
</svg>
