<?xml version="1.0" standalone="no"?>
<!DOCTYPE svg PUBLIC "-//W3C//DTD SVG 20010904//EN"
 "http://www.w3.org/TR/2001/REC-SVG-20010904/DTD/svg10.dtd">
<svg version="1.0" xmlns="http://www.w3.org/2000/svg"
 width="256.000000pt" height="256.000000pt" viewBox="0 0 256.000000 256.000000"
 preserveAspectRatio="xMidYMid meet">

<g transform="translate(0.000000,256.000000) scale(0.100000,-0.100000)"
fill="#000000" stroke="none">
<path d="M1388 2310 c-74 -13 -146 -39 -233 -83 -63 -32 -101 -61 -176 -137
-83 -83 -103 -110 -143 -191 -51 -105 -74 -191 -78 -291 l-3 -68 760 0 760 0
-2 71 c-9 294 -224 569 -522 669 -78 26 -114 32 -205 35 -61 2 -132 0 -158 -5z"/>
<path d="M440 1336 c0 -35 1 -36 36 -36 34 0 35 1 32 33 -3 28 -7 32 -35 35
-32 3 -33 2 -33 -32z"/>
<path d="M640 1335 l0 -35 870 0 870 0 0 35 0 35 -870 0 -870 0 0 -35z"/>
<path d="M80 1145 c0 -31 3 -35 25 -35 22 0 25 4 25 35 0 31 -3 35 -25 35 -22
0 -25 -4 -25 -35z"/>
<path d="M237 1173 c-4 -3 -7 -19 -7 -35 l0 -28 665 0 665 0 0 35 0 35 -658 0
c-362 0 -662 -3 -665 -7z"/>
<path d="M440 940 c0 -28 3 -30 35 -30 32 0 35 2 35 30 0 28 -3 30 -35 30 -32
0 -35 -2 -35 -30z"/>
<path d="M640 940 l0 -30 870 0 870 0 0 30 0 30 -870 0 -870 0 0 -30z"/>
<path d="M172 738 c3 -29 6 -33 33 -33 27 0 30 4 33 33 3 31 2 32 -33 32 -35
0 -36 -1 -33 -32z"/>
<path d="M372 738 l3 -33 333 -3 332 -2 0 35 0 35 -336 0 -335 0 3 -32z"/>
<path d="M1132 738 l3 -33 670 0 670 0 3 33 3 32 -676 0 -676 0 3 -32z"/>
<path d="M1227 543 c-4 -3 -7 -19 -7 -35 0 -21 5 -28 20 -28 16 0 20 7 20 35
0 33 -16 46 -33 28z"/>
<path d="M1330 515 l0 -35 463 2 462 3 0 30 0 30 -462 3 -463 2 0 -35z"/>
<path d="M757 343 c-4 -3 -7 -19 -7 -35 0 -25 3 -28 35 -28 33 0 35 2 35 35 0
32 -3 35 -28 35 -16 0 -32 -3 -35 -7z"/>
<path d="M959 345 c-1 -3 -1 -17 -2 -32 l-1 -28 402 -3 402 -2 0 35 0 35 -400
0 c-220 0 -400 -2 -401 -5z"/>
</g>
</svg>
