<?xml version="1.0" standalone="no"?>
<!DOCTYPE svg PUBLIC "-//W3C//DTD SVG 20010904//EN"
 "http://www.w3.org/TR/2001/REC-SVG-20010904/DTD/svg10.dtd">
<svg version="1.0" xmlns="http://www.w3.org/2000/svg"
 width="256.000000pt" height="256.000000pt" viewBox="0 0 256.000000 256.000000"
 preserveAspectRatio="xMidYMid meet">

<g transform="translate(0.000000,256.000000) scale(0.100000,-0.100000)"
fill="#000000" stroke="none">
<path d="M1145 2474 c-168 -26 -282 -62 -418 -132 -317 -162 -546 -464 -623
-822 -26 -118 -26 -362 0 -480 102 -474 462 -834 936 -936 118 -26 362 -26
480 0 474 102 834 462 936 936 26 118 26 362 0 480 -101 467 -454 826 -916
931 -83 19 -327 33 -395 23z m298 -129 c565 -85 972 -609 909 -1173 -16 -145
-43 -237 -107 -367 -113 -230 -276 -391 -509 -501 -399 -188 -873 -112 -1197
193 -97 92 -161 180 -224 308 -64 130 -91 222 -107 367 -34 305 73 620 289
849 243 257 593 377 946 324z"/>
<path d="M1065 2095 c-24 -24 -25 -28 -25 -185 l0 -160 -179 0 c-150 0 -182
-3 -195 -16 -14 -14 -16 -69 -16 -454 0 -385 2 -440 16 -454 13 -13 45 -16
195 -16 l179 0 0 -154 c0 -140 2 -156 21 -180 24 -30 59 -34 82 -8 14 15 17
47 19 177 l3 160 115 0 115 0 3 -160 c2 -130 5 -162 19 -177 23 -26 58 -22 82
8 19 24 21 40 21 180 l0 154 179 0 c150 0 182 3 195 16 14 13 16 50 16 253 0
218 -2 239 -18 254 -17 15 -60 17 -409 17 -215 0 -399 -3 -408 -6 -37 -15 -38
-82 -1 -106 6 -4 170 -8 364 -8 l352 0 0 -150 0 -150 -510 0 -510 0 0 350 0
350 548 0 c603 0 592 -1 592 60 0 56 -13 60 -211 60 l-179 0 0 160 c0 157 -1
161 -25 185 -29 30 -45 31 -74 8 -19 -17 -21 -29 -23 -178 l-3 -160 -115 0
-115 0 -3 160 c-2 149 -4 161 -23 178 -29 23 -45 22 -74 -8z"/>
</g>
</svg>
