<?xml version="1.0" standalone="no"?>
<!DOCTYPE svg PUBLIC "-//W3C//DTD SVG 20010904//EN"
 "http://www.w3.org/TR/2001/REC-SVG-20010904/DTD/svg10.dtd">
<svg version="1.0" xmlns="http://www.w3.org/2000/svg"
 width="256.000000pt" height="256.000000pt" viewBox="0 0 256.000000 256.000000"
 preserveAspectRatio="xMidYMid meet">

<g transform="translate(0.000000,256.000000) scale(0.100000,-0.100000)"
fill="#000000" stroke="none">
<path d="M687 1301 c-329 -467 -597 -852 -597 -855 0 -3 369 -6 820 -6 451 0
820 3 820 6 0 8 -434 654 -440 654 -3 0 -59 -81 -124 -180 l-119 -180 -103 0
c-57 0 -104 3 -104 8 0 12 445 672 452 669 3 -1 165 -221 358 -489 l352 -488
234 0 c129 0 234 3 234 6 0 3 -161 238 -357 523 -196 284 -460 666 -586 849
-126 182 -233 332 -237 332 -4 0 -275 -382 -603 -849z"/>
</g>
</svg>
