<?xml version="1.0" standalone="no"?>
<!DOCTYPE svg PUBLIC "-//W3C//DTD SVG 20010904//EN"
 "http://www.w3.org/TR/2001/REC-SVG-20010904/DTD/svg10.dtd">
<svg version="1.0" xmlns="http://www.w3.org/2000/svg"
 width="256.000000pt" height="256.000000pt" viewBox="0 0 256.000000 256.000000"
 preserveAspectRatio="xMidYMid meet">

<g transform="translate(0.000000,256.000000) scale(0.100000,-0.100000)"
fill="#000000" stroke="none">
<path d="M1045 2466 c-265 -44 -525 -177 -705 -360 l-55 -56 483 -483 482
-482 472 472 473 473 -70 71 c-180 182 -399 302 -650 354 -106 23 -327 28
-430 11z m410 -121 c195 -42 369 -127 515 -251 30 -25 57 -51 59 -56 4 -11
-768 -788 -782 -788 -8 0 -790 786 -795 800 -2 5 34 39 80 75 148 117 366 209
553 234 90 13 280 5 370 -14z"/>
<path d="M263 1868 c-50 -66 -118 -226 -149 -353 -94 -382 15 -787 288 -1071
101 -105 186 -170 299 -229 331 -172 709 -179 1045 -19 175 83 352 236 456
394 70 106 97 162 137 274 81 228 82 510 5 741 -27 80 -89 213 -118 250 -15
20 -16 19 -55 -20 l-41 -40 28 -65 c24 -58 27 -78 27 -176 0 -107 -1 -112 -38
-186 -86 -174 -273 -272 -457 -239 -39 7 -92 24 -118 37 l-47 24 -140 -140
-140 -140 -120 120 c-66 66 -124 120 -129 120 -5 0 -33 -11 -62 -25 -162 -77
-354 -47 -486 75 -150 137 -187 330 -101 523 l26 58 -50 50 c-38 39 -52 47
-60 37z"/>
<path d="M1830 1495 l-164 -164 39 -17 c49 -21 138 -22 185 -2 108 46 170 166
141 273 -24 90 -20 92 -201 -90z"/>
<path d="M485 1609 c-66 -126 8 -293 147 -334 64 -18 111 -14 172 17 l39 20
-164 164 c-90 90 -167 164 -171 164 -4 0 -15 -14 -23 -31z"/>
</g>
</svg>
