<?xml version="1.0" standalone="no"?>
<!DOCTYPE svg PUBLIC "-//W3C//DTD SVG 20010904//EN"
 "http://www.w3.org/TR/2001/REC-SVG-20010904/DTD/svg10.dtd">
<svg version="1.0" xmlns="http://www.w3.org/2000/svg"
 width="256.000000pt" height="256.000000pt" viewBox="0 0 256.000000 256.000000"
 preserveAspectRatio="xMidYMid meet">

<g transform="translate(0.000000,256.000000) scale(0.100000,-0.100000)"
fill="#000000" stroke="none">
<path d="M1092 2384 c-467 -78 -840 -455 -917 -925 -122 -752 532 -1406 1284
-1284 475 77 849 451 926 926 48 301 -29 610 -213 855 -249 330 -670 497
-1080 428z m447 -113 c41 -12 79 -25 85 -28 14 -9 -22 -21 -65 -22 -49 -1
-134 -46 -167 -89 -36 -48 -37 -109 -2 -147 32 -34 72 -55 107 -55 23 -1 18
-6 -33 -29 -104 -48 -151 -131 -142 -248 10 -129 94 -244 224 -305 60 -28 72
-30 137 -25 40 3 89 13 109 21 21 9 42 16 47 16 17 0 31 -63 31 -147 0 -105
12 -134 89 -212 86 -87 93 -99 80 -144 -12 -44 4 -147 29 -190 l16 -27 -74
-75 c-130 -132 -269 -214 -456 -272 -83 -25 -102 -27 -269 -27 -160 -1 -189 2
-262 23 -46 13 -83 26 -83 28 0 3 7 11 16 17 19 15 33 75 34 147 0 53 1 56 34
72 42 20 78 66 104 133 10 28 45 82 77 119 67 79 106 159 113 227 8 83 -22
125 -104 147 -31 8 -46 21 -67 54 -35 56 -83 102 -122 118 -16 7 -79 13 -138
14 l-108 1 -26 33 c-27 35 -92 70 -129 71 -16 0 -24 10 -33 39 -11 37 -60 91
-83 91 -12 0 -3 57 12 75 6 7 50 15 103 18 176 11 263 57 389 205 39 46 63 65
91 73 49 13 105 63 128 114 25 55 24 72 -9 105 -23 22 -41 30 -88 35 -93 10
-159 26 -143 36 79 44 411 50 548 10z m-437 -141 c27 0 38 -4 38 -15 0 -20
-58 -55 -92 -55 -21 0 -39 -15 -86 -73 -76 -92 -134 -144 -186 -167 -47 -21
-170 -40 -257 -40 l-60 0 -24 -52 c-17 -36 -25 -71 -25 -107 0 -51 2 -56 50
-102 56 -54 61 -69 26 -69 -32 0 -155 96 -163 128 -6 27 18 114 50 177 78 155
226 310 391 409 l55 33 123 -33 c68 -19 140 -34 160 -34z m745 1 c48 -32 97
-69 108 -81 19 -22 19 -22 0 -36 -26 -19 -44 -18 -171 13 l-112 27 -74 -18
c-117 -27 -172 -1 -111 54 23 21 48 30 102 38 44 6 88 20 114 36 23 14 45 25
49 26 4 0 46 -27 95 -59z m248 -232 c25 -34 45 -65 45 -69 0 -15 -85 -42 -147
-47 -92 -8 -121 1 -202 66 -70 56 -121 80 -172 82 -22 0 -23 1 -4 9 34 14 87
11 160 -11 39 -11 97 -21 131 -22 53 -2 65 2 95 25 19 15 37 27 42 28 4 0 27
-27 52 -61z m-399 -99 c21 -17 57 -44 78 -60 98 -76 234 -77 408 -5 13 5 22
-9 46 -72 61 -158 67 -193 66 -388 0 -167 -2 -186 -28 -270 -29 -95 -96 -248
-114 -259 -18 -11 -24 31 -17 108 9 89 6 96 -92 198 -40 42 -73 85 -74 95 0
10 -2 52 -3 93 -3 88 -20 151 -52 185 -35 38 -69 41 -141 16 -108 -39 -173
-28 -270 45 -72 55 -110 206 -68 271 35 53 75 71 166 72 48 1 62 -3 95 -29z
m-1352 -379 c36 -27 80 -55 99 -62 l34 -12 -22 -61 c-57 -158 -33 -287 65
-354 29 -20 44 -23 90 -19 30 2 62 7 70 11 9 3 24 0 34 -7 17 -12 17 -17 5
-53 -30 -91 -7 -329 42 -425 11 -23 18 -43 15 -46 -10 -11 -156 101 -228 175
-126 130 -200 258 -254 438 -20 69 -27 118 -31 221 -5 116 2 243 12 243 2 0
33 -22 69 -49z m333 -87 c43 -55 69 -64 183 -64 126 0 159 -12 195 -74 34 -58
75 -93 125 -106 22 -6 42 -15 45 -20 4 -6 -1 -34 -9 -63 -11 -37 -37 -80 -91
-146 -42 -53 -79 -110 -85 -131 -14 -52 -44 -86 -86 -100 -45 -15 -64 -56 -64
-140 0 -33 -4 -60 -8 -60 -4 0 -15 12 -24 28 -49 83 -75 304 -44 376 21 51 20
82 -4 121 -35 56 -118 81 -185 55 -53 -20 -105 40 -105 123 0 94 66 237 110
237 11 0 32 -16 47 -36z"/>
</g>
</svg>
