<?xml version="1.0" standalone="no"?>
<!DOCTYPE svg PUBLIC "-//W3C//DTD SVG 20010904//EN"
 "http://www.w3.org/TR/2001/REC-SVG-20010904/DTD/svg10.dtd">
<svg version="1.0" xmlns="http://www.w3.org/2000/svg"
 width="256.000000pt" height="256.000000pt" viewBox="0 0 256.000000 256.000000"
 preserveAspectRatio="xMidYMid meet">

<g transform="translate(0.000000,256.000000) scale(0.100000,-0.100000)"
fill="#000000" stroke="none">
<path d="M1240 2464 c-48 -20 -63 -47 -68 -130 -5 -78 10 -123 51 -148 12 -7
60 -16 108 -20 199 -14 367 -83 483 -198 88 -87 117 -148 96 -199 -18 -42 -46
-58 -117 -65 -59 -6 -63 -5 -121 33 -247 165 -620 148 -783 -36 -82 -92 -129
-240 -129 -403 1 -353 200 -528 602 -528 110 0 129 3 176 25 92 43 213 174
265 288 9 21 17 40 17 42 0 3 -127 5 -282 5 -322 0 -335 3 -375 75 -35 64 -37
103 -11 155 42 82 34 81 504 77 261 -3 417 -8 430 -15 32 -17 74 -67 83 -98
13 -45 -5 -210 -34 -308 -41 -141 -110 -268 -200 -365 -123 -134 -370 -248
-588 -271 -50 -5 -100 -16 -113 -25 -40 -26 -64 -74 -64 -130 0 -63 25 -106
76 -130 96 -46 369 18 605 141 149 78 321 246 446 437 126 191 165 320 165
557 0 287 -73 545 -214 753 -91 135 -265 287 -418 366 -204 106 -482 160 -590
115z"/>
<path d="M745 2301 c-68 -41 -89 -115 -55 -186 68 -140 270 -92 270 64 0 82
-61 141 -147 141 -21 0 -52 -8 -68 -19z"/>
<path d="M414 1919 c-18 -5 -46 -25 -62 -44 -57 -64 -51 -147 14 -205 29 -25
43 -30 85 -30 62 0 101 19 128 63 46 74 17 172 -62 207 -46 22 -57 22 -103 9z"/>
<path d="M240 1418 c-98 -51 -107 -168 -20 -242 45 -37 125 -37 170 0 61 51
76 119 42 184 -19 36 -88 80 -127 80 -11 0 -41 -10 -65 -22z"/>
<path d="M380 928 c-95 -49 -107 -161 -25 -238 23 -21 36 -25 90 -25 54 0 67
4 90 25 42 39 58 78 52 127 -6 57 -30 91 -80 114 -54 24 -74 24 -127 -3z"/>
<path d="M770 509 c-64 -27 -108 -100 -96 -164 24 -124 201 -159 266 -52 24
38 26 106 5 147 -30 58 -118 93 -175 69z"/>
</g>
</svg>
