<?xml version="1.0" standalone="no"?>
<!DOCTYPE svg PUBLIC "-//W3C//DTD SVG 20010904//EN"
 "http://www.w3.org/TR/2001/REC-SVG-20010904/DTD/svg10.dtd">
<svg version="1.0" xmlns="http://www.w3.org/2000/svg"
 width="256.000000pt" height="256.000000pt" viewBox="0 0 256.000000 256.000000"
 preserveAspectRatio="xMidYMid meet">

<g transform="translate(0.000000,256.000000) scale(0.100000,-0.100000)"
fill="#000000" stroke="none">
<path d="M1596 2461 c-27 -11 -60 -30 -74 -43 -31 -29 -61 -94 -62 -132 0 -29
1 -28 30 16 37 56 80 78 155 78 112 0 165 -50 165 -155 -1 -103 -72 -235 -208
-385 l-59 -65 -49 27 c-86 46 -158 62 -284 62 -210 0 -336 -47 -455 -168 -175
-178 -202 -415 -70 -621 35 -55 120 -139 160 -157 14 -6 25 -14 25 -17 -1 -3
-24 -24 -52 -46 -63 -49 -145 -146 -169 -200 -21 -45 -24 -100 -8 -142 13 -36
64 -88 100 -104 30 -12 36 -23 19 -34 -18 -11 -190 -215 -190 -224 0 -5 33
-23 72 -39 l73 -31 6 50 c9 62 48 144 97 199 l38 43 149 -12 c83 -6 242 -16
355 -21 251 -13 350 -25 391 -45 34 -18 59 -67 59 -115 0 -35 11 -38 51 -9 65
46 78 137 33 227 -30 60 -63 89 -154 131 -87 41 -164 50 -490 61 -303 9 -365
20 -403 71 -29 40 -15 80 51 149 l57 59 50 -10 c28 -6 106 -11 175 -11 191 0
310 38 412 130 148 134 195 364 114 564 l-24 58 108 0 108 0 36 107 c20 59 33
109 30 112 -3 3 -18 -8 -33 -26 -14 -17 -39 -37 -54 -42 -26 -10 -307 -16
-307 -7 0 2 35 41 77 86 209 222 279 355 252 479 -29 136 -168 206 -303 152z
m-338 -697 c228 -113 289 -562 103 -757 -51 -54 -100 -77 -163 -77 -70 1 -123
26 -180 87 -167 180 -182 515 -30 684 82 91 172 112 270 63z"/>
</g>
</svg>
