<?xml version="1.0" standalone="no"?>
<!DOCTYPE svg PUBLIC "-//W3C//DTD SVG 20010904//EN"
 "http://www.w3.org/TR/2001/REC-SVG-20010904/DTD/svg10.dtd">
<svg version="1.0" xmlns="http://www.w3.org/2000/svg"
 width="256.000000pt" height="256.000000pt" viewBox="0 0 256.000000 256.000000"
 preserveAspectRatio="xMidYMid meet">

<g transform="translate(0.000000,256.000000) scale(0.100000,-0.100000)"
fill="#000000" stroke="none">
<path d="M970 2465 c-259 -55 -461 -211 -569 -438 -59 -123 -75 -200 -75 -347
-1 -174 35 -297 123 -432 131 -200 341 -330 582 -361 388 -49 763 213 864 602
67 259 -13 553 -205 749 -103 106 -225 176 -380 219 -78 21 -260 26 -340 8z
m285 -270 c135 -35 268 -140 332 -261 190 -358 -65 -784 -469 -784 -143 0
-271 53 -373 155 -288 288 -156 784 236 889 72 19 201 20 274 1z"/>
<path d="M1993 2465 c-49 -21 -75 -69 -70 -128 10 -110 137 -162 216 -88 112
105 -5 278 -146 216z"/>
<path d="M1725 864 c-34 -17 -531 -508 -576 -568 -21 -28 -29 -50 -29 -80 0
-99 104 -166 188 -122 41 22 590 577 602 609 14 39 13 63 -6 103 -31 65 -113
92 -179 58z"/>
</g>
</svg>
