<?xml version="1.0" standalone="no"?>
<!DOCTYPE svg PUBLIC "-//W3C//DTD SVG 20010904//EN"
 "http://www.w3.org/TR/2001/REC-SVG-20010904/DTD/svg10.dtd">
<svg version="1.0" xmlns="http://www.w3.org/2000/svg"
 width="256.000000pt" height="256.000000pt" viewBox="0 0 256.000000 256.000000"
 preserveAspectRatio="xMidYMid meet">

<g transform="translate(0.000000,256.000000) scale(0.100000,-0.100000)"
fill="#000000" stroke="none">
<path d="M740 2161 l-495 -238 0 -643 0 -643 270 -130 c149 -71 373 -178 498
-238 l228 -108 497 238 497 238 3 322 2 321 80 40 80 40 0 160 0 160 -360
-180 -360 -180 0 -160 0 -160 120 60 121 60 -3 -141 -3 -140 -332 -160 c-183
-87 -337 -159 -343 -159 -6 0 -160 72 -343 159 l-332 160 0 441 0 441 332 160
c183 87 338 159 343 159 6 0 151 -68 323 -151 l312 -150 178 88 c97 48 177 90
177 93 0 4 -91 50 -202 103 -112 53 -335 159 -496 236 -161 78 -294 141 -295
140 -1 0 -225 -107 -497 -238z"/>
</g>
</svg>
