<?xml version="1.0" standalone="no"?>
<!DOCTYPE svg PUBLIC "-//W3C//DTD SVG 20010904//EN"
 "http://www.w3.org/TR/2001/REC-SVG-20010904/DTD/svg10.dtd">
<svg version="1.0" xmlns="http://www.w3.org/2000/svg"
 width="256.000000pt" height="256.000000pt" viewBox="0 0 256.000000 256.000000"
 preserveAspectRatio="xMidYMid meet">

<g transform="translate(0.000000,256.000000) scale(0.100000,-0.100000)"
fill="#000000" stroke="none">
<path d="M1009 2461 c-23 -18 -24 -25 -27 -170 l-3 -150 -90 -48 c-265 -139
-457 -384 -536 -681 -23 -84 -26 -118 -27 -257 0 -180 10 -243 67 -393 19 -50
56 -129 83 -173 54 -91 177 -227 266 -296 75 -57 206 -127 299 -159 142 -48
218 -54 692 -54 l437 0 0 229 0 229 -82 62 c-46 35 -87 67 -91 71 -5 4 12 33
39 65 89 110 143 262 144 402 0 144 -61 306 -155 409 l-53 58 -24 -22 c-13
-13 -30 -23 -38 -23 -7 0 51 61 129 136 l142 137 -43 44 c-81 84 -202 173
-303 223 -97 48 -252 100 -301 100 -24 0 -24 0 -24 120 0 107 -2 122 -20 140
-25 25 -61 26 -89 3 -19 -16 -21 -30 -23 -133 l-3 -115 -85 -7 c-47 -3 -104
-11 -127 -16 l-41 -10 -4 130 c-3 122 -4 131 -27 149 -29 24 -53 24 -82 0z
m371 -573 c0 -108 3 -135 17 -150 21 -24 68 -23 93 2 18 18 20 33 20 145 l0
126 38 -7 c74 -13 199 -65 275 -114 43 -28 77 -54 75 -59 -2 -5 -95 -95 -206
-200 -187 -175 -206 -190 -230 -183 -15 4 -61 7 -102 7 -61 -1 -84 -6 -125
-27 -113 -59 -170 -154 -170 -283 0 -67 4 -89 28 -137 32 -65 90 -121 156
-151 35 -16 67 -21 133 -22 l88 0 255 -195 255 -195 0 -88 0 -88 -377 3 c-416
5 -433 7 -588 77 -304 138 -505 454 -505 795 0 302 142 569 390 735 l75 50 5
-169 c4 -147 7 -171 24 -189 27 -30 70 -27 95 5 20 25 21 40 21 220 l0 193 53
10 c28 5 61 12 72 14 11 3 46 5 78 6 l57 1 0 -132z m492 -425 c49 -52 83 -110
109 -185 17 -52 20 -79 17 -158 -6 -115 -30 -185 -94 -268 l-44 -57 43 -39
c23 -21 35 -35 27 -30 -18 9 -256 189 -286 216 l-21 19 26 52 c34 70 36 190 5
257 l-21 45 96 92 c53 51 98 92 101 93 3 0 22 -17 42 -37z m-420 -233 c39 -38
40 -42 36 -90 -8 -84 -78 -135 -153 -110 -133 44 -102 239 39 240 32 0 45 -7
78 -40z"/>
</g>
</svg>
