<?xml version="1.0" standalone="no"?>
<!DOCTYPE svg PUBLIC "-//W3C//DTD SVG 20010904//EN"
 "http://www.w3.org/TR/2001/REC-SVG-20010904/DTD/svg10.dtd">
<svg version="1.0" xmlns="http://www.w3.org/2000/svg"
 width="256.000000pt" height="256.000000pt" viewBox="0 0 256.000000 256.000000"
 preserveAspectRatio="xMidYMid meet">

<g transform="translate(0.000000,256.000000) scale(0.100000,-0.100000)"
fill="#000000" stroke="none">
<path d="M745 2388 c-72 -27 -149 -98 -188 -173 -38 -75 -27 -179 27 -250 14
-18 26 -36 26 -39 0 -3 -91 -6 -203 -6 l-203 0 -59 -72 c-33 -39 -59 -76 -57
-81 2 -6 30 -48 63 -94 l60 -83 485 0 484 0 0 125 0 125 100 0 100 0 0 -125 0
-125 484 0 485 0 60 83 c33 46 61 88 63 94 2 5 -24 42 -57 81 l-59 72 -203 0
c-112 0 -203 3 -203 6 0 3 12 21 26 39 101 133 40 321 -131 406 -55 27 -73 31
-119 27 -73 -6 -150 -46 -220 -114 -67 -66 -100 -129 -117 -227 -11 -68 -11
-68 -60 -93 l-49 -24 -49 24 c-49 25 -49 25 -60 93 -7 37 -23 91 -35 119 -29
64 -123 156 -195 191 -61 30 -147 39 -196 21z m146 -191 c40 -27 116 -119 164
-199 l34 -58 -39 0 c-48 0 -179 25 -242 46 -74 24 -94 72 -67 155 27 79 84
100 150 56z m896 1 c42 -47 56 -136 28 -176 -24 -33 -208 -82 -312 -82 l-32 0
34 58 c48 80 124 172 164 199 44 30 91 30 118 1z"/>
<path d="M277 1373 c-4 -3 -7 -200 -7 -438 l0 -431 36 -60 c48 -80 124 -156
193 -190 l56 -29 310 0 310 0 0 575 0 575 -446 3 c-245 1 -449 -1 -452 -5z"/>
<path d="M1385 1368 c-3 -7 -4 -267 -3 -578 l3 -565 310 0 310 0 57 28 c66 32
159 127 201 204 l27 51 -2 434 -3 433 -448 3 c-353 2 -449 0 -452 -10z"/>
</g>
</svg>
