<?xml version="1.0" standalone="no"?>
<!DOCTYPE svg PUBLIC "-//W3C//DTD SVG 20010904//EN"
 "http://www.w3.org/TR/2001/REC-SVG-20010904/DTD/svg10.dtd">
<svg version="1.0" xmlns="http://www.w3.org/2000/svg"
 width="256.000000pt" height="256.000000pt" viewBox="0 0 256.000000 256.000000"
 preserveAspectRatio="xMidYMid meet">

<g transform="translate(0.000000,256.000000) scale(0.100000,-0.100000)"
fill="#000000" stroke="none">
<path d="M1518 2470 c-267 -49 -496 -219 -612 -455 -31 -62 -65 -167 -81 -247
-4 -20 -13 -29 -33 -33 -283 -56 -494 -208 -616 -444 -71 -137 -90 -220 -90
-381 0 -160 19 -244 89 -379 82 -159 197 -274 356 -356 135 -70 219 -89 379
-89 161 0 244 19 381 90 237 122 388 332 444 616 4 20 13 29 33 33 283 56 494
208 616 445 71 136 90 219 90 380 0 160 -19 244 -89 379 -106 205 -293 358
-515 421 -84 24 -274 35 -352 20z m325 -209 c200 -71 342 -209 411 -399 14
-40 26 -84 26 -98 l0 -24 -629 0 c-347 0 -632 3 -634 8 -9 14 23 117 58 187
82 167 239 294 421 340 84 21 269 14 347 -14z m-285 -978 l2 -273 -280 0 -280
0 0 268 c0 148 3 272 7 275 4 4 128 6 277 5 l271 -3 3 -272z m722 254 c0 -34
-33 -127 -72 -200 -47 -92 -173 -213 -268 -259 -76 -37 -184 -71 -194 -60 -8
8 -7 527 1 535 3 4 125 7 270 7 l263 0 0 -23z m-1460 -263 l0 -264 -270 0
c-305 0 -283 -7 -255 83 32 106 78 180 165 268 66 67 102 94 160 122 74 36
178 69 193 60 4 -2 7 -123 7 -269z m721 -489 c-11 -98 -87 -238 -177 -329 -73
-72 -145 -117 -246 -154 -66 -24 -86 -27 -208 -26 -123 0 -142 3 -210 28 -141
53 -247 137 -325 256 -44 68 -95 194 -95 236 l0 24 633 -2 632 -3 -4 -30z"/>
</g>
</svg>
