<?xml version="1.0" standalone="no"?>
<!DOCTYPE svg PUBLIC "-//W3C//DTD SVG 20010904//EN"
 "http://www.w3.org/TR/2001/REC-SVG-20010904/DTD/svg10.dtd">
<svg version="1.0" xmlns="http://www.w3.org/2000/svg"
 width="256.000000pt" height="256.000000pt" viewBox="0 0 256.000000 256.000000"
 preserveAspectRatio="xMidYMid meet">

<g transform="translate(0.000000,256.000000) scale(0.100000,-0.100000)"
fill="#000000" stroke="none">
<path d="M84 1873 c-18 -123 15 -372 70 -516 64 -170 151 -307 279 -435 104
-106 186 -165 322 -232 341 -169 709 -169 1050 0 135 66 207 117 313 223 168
165 281 369 333 597 22 97 35 293 25 363 l-7 47 -968 0 -968 0 -7 -37 c-10
-65 -7 -178 8 -256 57 -295 295 -541 583 -602 81 -17 226 -19 309 -4 229 42
445 213 544 433 17 36 30 68 30 71 0 3 -51 5 -114 5 l-114 0 -28 -47 c-70
-121 -229 -229 -375 -253 -220 -37 -446 69 -560 265 -28 48 -69 162 -69 191 0
12 117 14 760 14 l760 0 0 -29 c0 -16 -7 -60 -15 -98 -79 -374 -354 -664 -725
-765 -123 -33 -357 -33 -480 0 -378 103 -650 396 -731 787 -7 33 -12 120 -12
193 l0 132 -103 0 -103 0 -7 -47z"/>
</g>
</svg>
