<?xml version="1.0" standalone="no"?>
<!DOCTYPE svg PUBLIC "-//W3C//DTD SVG 20010904//EN"
 "http://www.w3.org/TR/2001/REC-SVG-20010904/DTD/svg10.dtd">
<svg version="1.0" xmlns="http://www.w3.org/2000/svg"
 width="256.000000pt" height="256.000000pt" viewBox="0 0 256.000000 256.000000"
 preserveAspectRatio="xMidYMid meet">

<g transform="translate(0.000000,256.000000) scale(0.100000,-0.100000)"
fill="#000000" stroke="none">
<path d="M160 1295 l0 -1025 370 0 370 0 0 185 0 185 277 -2 277 -3 104 -183
104 -182 364 0 c200 0 364 2 364 5 0 3 -63 125 -141 271 -77 146 -138 270
-136 277 3 7 38 50 78 97 97 114 125 161 154 251 28 90 55 261 55 350 -1 262
-182 526 -460 669 -54 27 -147 67 -207 87 l-108 38 -732 3 -733 3 0 -1026z
m1348 356 c46 -24 97 -76 111 -114 6 -16 11 -52 11 -81 0 -65 -27 -110 -85
-143 -39 -22 -48 -23 -332 -23 l-293 0 0 190 0 190 275 0 c252 0 279 -2 313
-19z"/>
</g>
</svg>
