<?xml version="1.0" standalone="no"?>
<!DOCTYPE svg PUBLIC "-//W3C//DTD SVG 20010904//EN"
 "http://www.w3.org/TR/2001/REC-SVG-20010904/DTD/svg10.dtd">
<svg version="1.0" xmlns="http://www.w3.org/2000/svg"
 width="256.000000pt" height="256.000000pt" viewBox="0 0 256.000000 256.000000"
 preserveAspectRatio="xMidYMid meet">

<g transform="translate(0.000000,256.000000) scale(0.100000,-0.100000)"
fill="#000000" stroke="none">
<path d="M990 1986 c-333 -43 -563 -147 -741 -333 -94 -98 -123 -147 -149
-248 -50 -196 -8 -347 140 -496 232 -235 581 -359 1010 -359 355 0 705 93 953
252 88 57 173 141 203 199 34 68 63 182 71 277 l6 82 -622 0 -623 0 -29 -29
c-24 -25 -29 -38 -29 -78 0 -39 5 -54 23 -71 23 -22 27 -22 401 -22 l377 0 -6
-22 c-13 -44 -67 -118 -124 -171 -75 -69 -196 -132 -319 -164 -87 -24 -116
-26 -277 -27 -155 0 -193 3 -270 22 -196 49 -327 146 -401 296 -38 77 -39 84
-39 181 0 97 1 104 39 181 76 155 237 282 412 328 272 71 662 7 794 -129 l34
-35 238 0 c131 0 238 4 238 9 0 14 -104 108 -161 144 -141 90 -339 163 -535
198 -154 27 -462 34 -614 15z"/>
</g>
</svg>
