<?xml version="1.0" standalone="no"?>
<!DOCTYPE svg PUBLIC "-//W3C//DTD SVG 20010904//EN"
 "http://www.w3.org/TR/2001/REC-SVG-20010904/DTD/svg10.dtd">
<svg version="1.0" xmlns="http://www.w3.org/2000/svg"
 width="256.000000pt" height="256.000000pt" viewBox="0 0 256.000000 256.000000"
 preserveAspectRatio="xMidYMid meet">

<g transform="translate(0.000000,256.000000) scale(0.100000,-0.100000)"
fill="#000000" stroke="none">
<path d="M1223 2362 c-1 -83 -7 -127 -27 -195 -50 -167 -112 -266 -326 -517
-221 -259 -312 -401 -362 -560 -19 -61 -23 -97 -23 -190 1 -102 4 -125 32
-202 16 -48 52 -122 78 -165 58 -94 210 -248 312 -316 76 -50 222 -127 242
-127 6 0 -6 24 -28 53 -48 63 -113 198 -136 282 -28 106 -31 237 -6 335 40
159 119 294 281 480 110 126 163 198 200 273 101 207 97 492 -10 713 -32 67
-54 95 -125 162 -48 45 -89 82 -93 82 -4 0 -8 -48 -9 -108z"/>
<path d="M1707 1433 c-93 -151 -133 -223 -215 -388 -137 -274 -162 -349 -162
-491 0 -145 62 -324 149 -424 l38 -44 49 50 c27 28 90 78 140 111 158 106 234
213 289 407 59 208 15 476 -115 697 -33 56 -111 169 -116 169 -1 0 -27 -39
-57 -87z"/>
</g>
</svg>
