<?xml version="1.0" standalone="no"?>
<!DOCTYPE svg PUBLIC "-//W3C//DTD SVG 20010904//EN"
 "http://www.w3.org/TR/2001/REC-SVG-20010904/DTD/svg10.dtd">
<svg version="1.0" xmlns="http://www.w3.org/2000/svg"
 width="256.000000pt" height="256.000000pt" viewBox="0 0 256.000000 256.000000"
 preserveAspectRatio="xMidYMid meet">

<g transform="translate(0.000000,256.000000) scale(0.100000,-0.100000)"
fill="#000000" stroke="none">
<path d="M1235 2385 c-117 -63 -936 -564 -960 -587 l-30 -28 -3 -601 c-2 -537
-1 -604 14 -634 14 -29 59 -60 301 -206 156 -94 288 -167 292 -163 11 13 34
74 30 78 -2 2 -121 74 -263 161 -143 86 -266 164 -273 173 -10 13 -12 141 -13
585 0 531 1 568 18 585 35 35 920 562 944 562 24 0 905 -524 943 -561 19 -19
20 -34 22 -577 2 -432 0 -563 -10 -582 -8 -17 -95 -75 -255 -171 -134 -81
-245 -149 -248 -152 -9 -8 24 -77 37 -77 10 0 389 225 496 294 65 42 63 22 63
674 l0 589 -22 33 c-30 44 -965 610 -1018 617 -21 2 -47 -3 -65 -12z"/>
<path d="M978 1945 c-26 -14 -48 -64 -48 -107 0 -23 -10 -27 -82 -39 -35 -6
-73 -16 -84 -24 -44 -29 -55 -162 -30 -372 15 -127 5 -108 164 -323 l115 -154
-26 -354 c-15 -195 -25 -357 -23 -361 2 -3 160 -5 350 -3 l347 3 -6 112 c-4
61 -10 213 -15 337 l-8 225 33 100 c18 55 50 147 72 205 l38 105 0 180 c0 165
-2 183 -21 220 -45 83 -101 117 -159 95 -15 -6 -29 -9 -29 -8 -49 82 -108 106
-187 73 -12 -4 -20 2 -29 24 -15 37 -47 59 -98 67 -38 6 -79 -7 -93 -28 -4 -6
-18 2 -32 16 -21 21 -35 26 -74 26 -26 -1 -60 -7 -75 -15z"/>
</g>
</svg>
