<?xml version="1.0" standalone="no"?>
<!DOCTYPE svg PUBLIC "-//W3C//DTD SVG 20010904//EN"
 "http://www.w3.org/TR/2001/REC-SVG-20010904/DTD/svg10.dtd">
<svg version="1.0" xmlns="http://www.w3.org/2000/svg"
 width="256.000000pt" height="256.000000pt" viewBox="0 0 256.000000 256.000000"
 preserveAspectRatio="xMidYMid meet">

<g transform="translate(0.000000,256.000000) scale(0.100000,-0.100000)"
fill="#000000" stroke="none">
<path d="M1175 2473 c-47 -10 -100 -39 -475 -255 -257 -148 -411 -243 -438
-270 -23 -22 -54 -66 -70 -97 l-27 -56 0 -515 0 -515 27 -55 c48 -97 94 -131
513 -372 215 -123 404 -229 420 -237 46 -20 163 -25 215 -8 70 21 848 475 893
520 21 21 51 64 66 96 l26 56 0 515 0 515 -27 57 c-15 32 -47 77 -71 100 -58
56 -834 503 -897 517 -45 11 -118 12 -155 4z m505 -390 c206 -118 390 -227
409 -241 54 -40 74 -99 69 -201 -3 -71 -9 -95 -33 -139 -15 -28 -43 -64 -62
-78 -74 -56 -45 -54 -796 -54 -451 0 -714 -4 -753 -11 -32 -6 -86 -24 -118
-40 -33 -16 -61 -29 -63 -29 -8 0 -2 429 8 463 5 21 22 51 37 67 26 28 771
464 822 481 59 19 99 1 480 -218z m480 -1035 c0 -251 -7 -283 -71 -330 -67
-50 -775 -451 -809 -459 -20 -5 -51 -4 -72 2 -52 14 -797 444 -830 479 -15 16
-32 49 -39 72 -14 54 -6 169 16 226 21 52 103 128 153 142 24 6 287 10 721 10
441 0 706 4 746 11 34 6 86 23 116 39 30 15 57 29 62 29 4 1 7 -99 7 -221z"/>
<path d="M780 1913 c-36 -14 -72 -48 -90 -83 -17 -34 -20 -59 -20 -185 l0
-145 85 0 85 0 0 125 0 125 85 0 85 0 0 -125 0 -125 85 0 85 0 0 154 c0 142
-2 155 -22 186 -47 69 -64 75 -221 77 -78 1 -149 -1 -157 -4z"/>
<path d="M1445 1901 c-79 -48 -95 -94 -95 -266 l0 -135 90 0 90 0 0 125 0 126
83 -3 82 -3 3 -122 3 -123 84 0 85 0 0 142 c0 170 -14 212 -84 253 -40 23 -52
25 -177 25 -113 0 -139 -3 -164 -19z"/>
<path d="M670 915 c0 -164 11 -203 72 -247 31 -22 42 -23 184 -23 151 0 151 0
188 29 58 44 66 74 66 241 l0 145 -85 0 -85 0 0 -125 0 -125 -85 0 -85 0 0
125 0 125 -85 0 -85 0 0 -145z"/>
<path d="M1350 925 c0 -144 10 -187 53 -233 42 -46 68 -52 207 -52 142 0 164
6 212 57 42 44 48 74 48 224 l0 139 -85 0 -84 0 -3 -122 -3 -123 -82 -3 -83
-3 0 126 0 125 -90 0 -90 0 0 -135z"/>
</g>
</svg>
