<?xml version="1.0" standalone="no"?>
<!DOCTYPE svg PUBLIC "-//W3C//DTD SVG 20010904//EN"
 "http://www.w3.org/TR/2001/REC-SVG-20010904/DTD/svg10.dtd">
<svg version="1.0" xmlns="http://www.w3.org/2000/svg"
 width="256.000000pt" height="256.000000pt" viewBox="0 0 256.000000 256.000000"
 preserveAspectRatio="xMidYMid meet">

<g transform="translate(0.000000,256.000000) scale(0.100000,-0.100000)"
fill="#000000" stroke="none">
<path d="M388 1923 l-3 -238 -152 -3 -153 -3 0 -149 0 -150 155 0 155 0 0 -80
0 -80 -155 0 -155 0 0 -155 0 -155 155 0 155 0 0 -235 0 -235 175 0 175 0 0
235 0 235 540 0 540 0 0 -235 0 -235 175 0 175 0 0 235 0 234 153 3 152 3 3
153 3 152 -156 0 -155 0 0 80 0 80 155 0 155 0 0 150 0 149 -152 3 -153 3 -3
238 -2 237 -173 -2 -172 -3 -3 -237 -2 -238 -540 0 -540 0 -2 238 -3 237 -172
3 -173 2 -2 -237z m1432 -623 l0 -80 -540 0 -540 0 0 80 0 80 540 0 540 0 0
-80z"/>
</g>
</svg>
