<?xml version="1.0" standalone="no"?>
<!DOCTYPE svg PUBLIC "-//W3C//DTD SVG 20010904//EN"
 "http://www.w3.org/TR/2001/REC-SVG-20010904/DTD/svg10.dtd">
<svg version="1.0" xmlns="http://www.w3.org/2000/svg"
 width="256.000000pt" height="256.000000pt" viewBox="0 0 256.000000 256.000000"
 preserveAspectRatio="xMidYMid meet">

<g transform="translate(0.000000,256.000000) scale(0.100000,-0.100000)"
fill="#000000" stroke="none">
<path d="M383 1808 c-164 -282 -298 -518 -298 -524 0 -20 600 -1033 610 -1030
14 4 605 1018 602 1032 -3 19 -601 1034 -609 1034 -4 0 -141 -231 -305 -512z"/>
<path d="M970 2308 c0 -7 116 -213 258 -458 l257 -445 163 -3 c126 -2 162 0
162 10 0 7 -116 213 -258 458 l-258 445 -162 3 c-126 2 -162 0 -162 -10z"/>
<path d="M1550 2316 c0 -3 133 -235 296 -516 257 -443 295 -515 286 -534 -5
-12 -133 -236 -284 -496 -151 -261 -280 -485 -287 -497 l-12 -23 168 0 168 1
295 510 c162 281 296 514 298 518 1 4 -132 239 -296 522 l-298 514 -167 3
c-92 1 -167 0 -167 -2z"/>
<path d="M1473 1138 c-10 -12 -474 -814 -502 -865 l-12 -23 168 0 168 1 253
438 c138 241 252 443 252 449 0 18 -314 17 -327 0z"/>
</g>
</svg>
