<?xml version="1.0" standalone="no"?>
<!DOCTYPE svg PUBLIC "-//W3C//DTD SVG 20010904//EN"
 "http://www.w3.org/TR/2001/REC-SVG-20010904/DTD/svg10.dtd">
<svg version="1.0" xmlns="http://www.w3.org/2000/svg"
 width="256.000000pt" height="256.000000pt" viewBox="0 0 256.000000 256.000000"
 preserveAspectRatio="xMidYMid meet">

<g transform="translate(0.000000,256.000000) scale(0.100000,-0.100000)"
fill="#000000" stroke="none">
<path d="M937 2473 c-184 -320 -847 -1505 -847 -1512 0 -8 49 -11 162 -9 l162
3 117 185 118 185 566 5 565 5 -76 123 -76 122 -435 0 c-365 0 -434 2 -430 14
3 7 114 204 247 436 133 232 244 429 247 436 4 12 -23 14 -155 14 -89 0 -163
-3 -165 -7z"/>
<path d="M1158 2056 c-109 -189 -201 -351 -204 -360 -5 -14 10 -16 139 -16
l144 0 137 249 c75 137 136 252 136 256 0 9 -144 215 -150 215 -3 0 -94 -155
-202 -344z"/>
<path d="M1950 1974 c0 -4 35 -60 77 -125 l76 -119 164 0 c129 0 163 3 157 13
-5 6 -50 63 -101 125 l-94 112 -139 0 c-77 0 -140 -3 -140 -6z"/>
<path d="M1793 1793 l-69 -119 68 -145 c81 -169 65 -171 167 24 l64 123 -73
109 c-40 61 -76 114 -80 118 -4 5 -39 -45 -77 -110z"/>
<path d="M2098 1593 c-8 -10 -64 -96 -124 -190 l-109 -173 -562 0 c-310 0
-563 -3 -563 -7 0 -5 33 -60 73 -123 l73 -115 437 -5 437 -5 -226 -395 c-124
-217 -239 -419 -255 -447 l-30 -53 163 0 163 0 422 748 c232 411 425 755 429
765 6 16 -6 17 -153 17 -140 0 -162 -2 -175 -17z"/>
<path d="M568 1028 l-76 -141 80 -120 c44 -65 81 -117 83 -115 1 1 33 54 69
116 51 85 65 118 60 135 -11 35 -124 262 -132 264 -4 2 -41 -61 -84 -139z"/>
<path d="M1252 828 c-133 -234 -243 -444 -239 -457 8 -30 140 -212 148 -204 9
10 409 701 409 708 0 3 -65 5 -144 5 l-145 0 -29 -52z"/>
<path d="M90 824 c0 -7 180 -226 195 -236 12 -9 269 -11 277 -2 4 3 -28 59
-70 124 l-77 119 -162 1 c-90 0 -163 -3 -163 -6z"/>
</g>
</svg>
