<?xml version="1.0" standalone="no"?>
<!DOCTYPE svg PUBLIC "-//W3C//DTD SVG 20010904//EN"
 "http://www.w3.org/TR/2001/REC-SVG-20010904/DTD/svg10.dtd">
<svg version="1.0" xmlns="http://www.w3.org/2000/svg"
 width="256.000000pt" height="256.000000pt" viewBox="0 0 256.000000 256.000000"
 preserveAspectRatio="xMidYMid meet">

<g transform="translate(0.000000,256.000000) scale(0.100000,-0.100000)"
fill="#000000" stroke="none">
<path d="M2043 2466 c-104 -34 -176 -98 -222 -196 -23 -48 -26 -68 -26 -165 0
-125 -11 -156 -70 -201 -55 -42 -103 -42 -225 -1 -124 42 -208 52 -309 37
-273 -39 -487 -227 -557 -490 -11 -42 -17 -102 -17 -170 0 -94 4 -116 37 -212
40 -118 44 -154 20 -201 -43 -84 -79 -101 -219 -102 -96 -1 -117 -4 -165 -26
-231 -107 -281 -393 -100 -563 63 -58 121 -85 203 -93 149 -14 280 65 346 207
22 47 25 69 26 160 1 124 17 168 78 208 54 36 120 36 208 0 351 -144 764 60
873 431 38 130 30 295 -22 420 -48 118 -29 210 55 263 32 19 51 22 147 23 97
1 118 4 168 27 79 37 140 96 174 171 38 82 41 205 7 279 -30 66 -105 143 -170
174 -66 33 -175 42 -240 20z m-619 -836 c74 -28 162 -110 201 -187 28 -54 30
-66 30 -168 0 -106 -1 -112 -34 -173 -39 -72 -97 -129 -173 -169 -49 -26 -62
-28 -163 -28 -102 0 -114 2 -168 30 -158 79 -245 262 -203 426 60 231 288 352
510 269z"/>
</g>
</svg>
