<?xml version="1.0" standalone="no"?>
<!DOCTYPE svg PUBLIC "-//W3C//DTD SVG 20010904//EN"
 "http://www.w3.org/TR/2001/REC-SVG-20010904/DTD/svg10.dtd">
<svg version="1.0" xmlns="http://www.w3.org/2000/svg"
 width="256.000000pt" height="256.000000pt" viewBox="0 0 256.000000 256.000000"
 preserveAspectRatio="xMidYMid meet">

<g transform="translate(0.000000,256.000000) scale(0.100000,-0.100000)"
fill="#000000" stroke="none">
<path d="M630 1985 c-95 -21 -234 -94 -308 -160 -378 -343 -298 -960 153
-1181 334 -163 718 -42 908 286 42 74 75 187 91 319 23 182 67 259 188 323 65
34 184 32 253 -4 64 -34 118 -90 147 -153 32 -70 32 -190 0 -260 -81 -176
-295 -237 -452 -129 -27 18 -51 30 -53 26 -2 -4 -10 -25 -17 -47 -20 -64 -75
-165 -123 -230 -52 -68 -51 -70 27 -114 303 -174 696 -84 902 205 255 357 129
867 -261 1060 -117 58 -211 78 -335 71 -204 -11 -378 -101 -505 -260 -95 -118
-127 -209 -160 -449 -16 -122 -37 -170 -96 -229 -62 -62 -118 -84 -214 -84
-67 0 -88 5 -131 27 -60 32 -118 93 -147 157 -31 66 -30 187 1 256 81 177 294
238 453 129 26 -19 50 -30 52 -26 2 4 10 25 17 47 21 66 75 166 125 233 39 51
45 66 34 73 -57 38 -145 81 -204 99 -91 28 -254 36 -345 15z"/>
</g>
</svg>
