<?xml version="1.0" standalone="no"?>
<!DOCTYPE svg PUBLIC "-//W3C//DTD SVG 20010904//EN"
 "http://www.w3.org/TR/2001/REC-SVG-20010904/DTD/svg10.dtd">
<svg version="1.0" xmlns="http://www.w3.org/2000/svg"
 width="256.000000pt" height="256.000000pt" viewBox="0 0 256.000000 256.000000"
 preserveAspectRatio="xMidYMid meet">

<g transform="translate(0.000000,256.000000) scale(0.100000,-0.100000)"
fill="#000000" stroke="none">
<path d="M1765 1825 c-181 -40 -299 -135 -479 -386 -305 -423 -383 -504 -544
-561 -85 -30 -221 -27 -335 6 -99 30 -208 81 -257 123 -41 33 -38 19 13 -66
147 -245 497 -331 783 -190 156 76 243 166 416 429 215 326 353 435 599 475
99 15 273 -37 399 -121 41 -27 79 -51 84 -53 5 -2 -7 25 -25 60 -115 216 -400
340 -654 284z"/>
<path d="M492 1815 c-100 -22 -150 -52 -237 -139 -158 -160 -215 -368 -144
-522 44 -93 159 -180 288 -218 92 -27 99 -20 32 30 -104 78 -144 143 -156 250
-13 115 40 246 129 318 132 108 309 132 445 62 l43 -23 -58 -33 c-69 -40 -58
-47 49 -30 86 13 287 60 287 67 0 15 -67 97 -112 138 -62 56 -112 81 -206 100
-84 18 -276 18 -360 0z"/>
<path d="M2110 1563 c84 -68 121 -109 147 -162 23 -47 28 -69 28 -136 0 -135
-55 -240 -165 -314 -89 -59 -144 -74 -254 -69 -87 4 -186 33 -186 55 0 4 23
21 50 36 28 16 50 31 50 34 0 16 -336 -43 -378 -66 -33 -18 107 -169 194 -211
151 -70 451 -65 594 11 155 82 290 304 290 474 0 140 -74 236 -242 319 -51 26
-109 49 -128 52 l-35 5 35 -28z"/>
</g>
</svg>
