<?xml version="1.0" standalone="no"?>
<!DOCTYPE svg PUBLIC "-//W3C//DTD SVG 20010904//EN"
 "http://www.w3.org/TR/2001/REC-SVG-20010904/DTD/svg10.dtd">
<svg version="1.0" xmlns="http://www.w3.org/2000/svg"
 width="256.000000pt" height="256.000000pt" viewBox="0 0 256.000000 256.000000"
 preserveAspectRatio="xMidYMid meet">

<g transform="translate(0.000000,256.000000) scale(0.100000,-0.100000)"
fill="#000000" stroke="none">
<path d="M404 2433 c9 -72 34 -409 48 -658 8 -143 13 -479 13 -958 l0 -737
196 0 195 0 12 178 c19 277 55 478 119 672 119 360 360 637 527 606 49 -9 109
-65 141 -129 14 -29 36 -95 49 -148 44 -175 51 -272 50 -742 l0 -437 195 2
196 3 8 160 c4 88 6 300 3 470 -6 415 -36 616 -126 826 -86 203 -239 341 -418
378 -76 16 -204 14 -276 -5 -139 -36 -293 -141 -408 -279 -57 -68 -63 -73 -69
-53 -3 13 -9 109 -13 213 -7 186 -30 529 -42 633 l-6 52 -200 0 -200 0 6 -47z"/>
</g>
</svg>
