<?xml version="1.0" standalone="no"?>
<!DOCTYPE svg PUBLIC "-//W3C//DTD SVG 20010904//EN"
 "http://www.w3.org/TR/2001/REC-SVG-20010904/DTD/svg10.dtd">
<svg version="1.0" xmlns="http://www.w3.org/2000/svg"
 width="256.000000pt" height="256.000000pt" viewBox="0 0 256.000000 256.000000"
 preserveAspectRatio="xMidYMid meet">

<g transform="translate(0.000000,256.000000) scale(0.100000,-0.100000)"
fill="#000000" stroke="none">
<path d="M98 2154 c-10 -3 -18 -9 -17 -12 0 -4 24 -59 53 -122 l52 -115 79 -6
c157 -12 295 -72 407 -177 78 -74 118 -132 153 -225 19 -50 22 -69 13 -72 -7
-3 -51 -6 -98 -7 l-84 -3 -48 -110 c-26 -60 -48 -115 -48 -121 0 -18 37 -24
163 -24 137 0 133 4 84 -103 -97 -208 -288 -336 -543 -364 l-68 -8 -47 -105
c-26 -58 -48 -113 -48 -124 -1 -17 8 -18 152 -14 127 4 166 9 242 32 331 99
571 328 650 620 l18 66 113 0 113 0 11 -42 c38 -151 108 -275 220 -389 135
-137 280 -219 476 -270 71 -18 117 -23 226 -23 75 -1 139 2 144 6 5 6 -77 216
-92 237 -2 2 -45 8 -96 12 -250 23 -460 160 -558 364 -48 101 -49 99 54 105
l89 5 49 109 c42 95 54 132 46 137 -2 1 -64 5 -138 8 -157 7 -152 0 -93 120
26 55 56 95 112 150 126 126 253 185 438 204 l102 11 50 116 c28 64 46 119 41
124 -17 17 -309 0 -391 -23 -169 -46 -307 -122 -426 -234 -141 -134 -206 -243
-253 -424 l-11 -43 -110 0 c-79 0 -111 3 -113 13 -58 202 -112 302 -227 422
-185 193 -414 292 -694 300 -72 2 -138 2 -147 -1z"/>
</g>
</svg>
