<?xml version="1.0" standalone="no"?>
<!DOCTYPE svg PUBLIC "-//W3C//DTD SVG 20010904//EN"
 "http://www.w3.org/TR/2001/REC-SVG-20010904/DTD/svg10.dtd">
<svg version="1.0" xmlns="http://www.w3.org/2000/svg"
 width="256.000000pt" height="256.000000pt" viewBox="0 0 256.000000 256.000000"
 preserveAspectRatio="xMidYMid meet">

<g transform="translate(0.000000,256.000000) scale(0.100000,-0.100000)"
fill="#000000" stroke="none">
<path d="M1185 2395 c-21 -282 -89 -482 -226 -665 -31 -41 -104 -129 -163
-195 -184 -206 -266 -348 -302 -525 -76 -379 187 -814 554 -916 96 -27 98 -18
25 129 -93 187 -115 264 -115 407 0 175 59 305 269 591 211 288 252 367 261
511 14 223 -91 533 -232 685 l-64 68 -7 -90z"/>
<path d="M1704 1494 c-46 -130 -107 -244 -224 -424 -151 -231 -204 -373 -204
-545 1 -151 48 -268 161 -394 l48 -54 28 36 c15 20 63 57 106 83 190 113 321
279 373 472 15 58 21 109 21 207 1 155 -19 240 -88 374 -44 85 -149 220 -192
249 -21 13 -23 12 -29 -4z"/>
</g>
</svg>
