<?xml version="1.0" standalone="no"?>
<!DOCTYPE svg PUBLIC "-//W3C//DTD SVG 20010904//EN"
 "http://www.w3.org/TR/2001/REC-SVG-20010904/DTD/svg10.dtd">
<svg version="1.0" xmlns="http://www.w3.org/2000/svg"
 width="256.000000pt" height="256.000000pt" viewBox="0 0 256.000000 256.000000"
 preserveAspectRatio="xMidYMid meet">

<g transform="translate(0.000000,256.000000) scale(0.100000,-0.100000)"
fill="#000000" stroke="none">
<path d="M708 1723 l-3 -758 -152 -3 -153 -3 0 -144 0 -145 465 0 465 0 0 145
0 145 -145 0 -145 0 0 31 c0 16 7 62 16 102 60 267 250 427 479 402 134 -14
237 -93 300 -228 61 -130 65 -171 65 -707 l0 -480 171 0 170 0 -3 568 -4 567
-26 98 c-41 148 -89 240 -167 318 -111 111 -232 155 -416 152 -191 -3 -353
-58 -514 -175 l-66 -48 -3 460 -2 460 -165 0 -165 0 -2 -757z"/>
<path d="M400 215 l0 -135 465 0 466 0 -3 133 -3 132 -462 3 -463 2 0 -135z"/>
</g>
</svg>
