<?xml version="1.0" standalone="no"?>
<!DOCTYPE svg PUBLIC "-//W3C//DTD SVG 20010904//EN"
 "http://www.w3.org/TR/2001/REC-SVG-20010904/DTD/svg10.dtd">
<svg version="1.0" xmlns="http://www.w3.org/2000/svg"
 width="256.000000pt" height="256.000000pt" viewBox="0 0 256.000000 256.000000"
 preserveAspectRatio="xMidYMid meet">

<g transform="translate(0.000000,256.000000) scale(0.100000,-0.100000)"
fill="#000000" stroke="none">
<path d="M703 2461 c-67 -42 -63 12 -63 -966 0 -978 -3 -925 63 -965 61 -38
141 -18 174 43 16 28 19 73 23 402 l5 371 33 66 c67 137 188 212 343 213 79 0
91 -3 161 -38 87 -43 142 -98 185 -186 l28 -56 5 -375 c5 -407 5 -405 63 -440
65 -40 148 -15 180 53 24 50 25 669 1 784 -56 271 -274 475 -549 514 -131 18
-291 -14 -398 -81 -27 -17 -50 -30 -53 -30 -2 0 -4 129 -4 288 0 158 -5 303
-10 323 -23 82 -119 123 -187 80z"/>
<path d="M702 320 c-40 -24 -66 -81 -59 -126 20 -122 174 -155 237 -51 71 115
-63 247 -178 177z"/>
<path d="M1719 317 c-22 -15 -39 -38 -49 -65 -13 -37 -13 -47 0 -84 37 -103
174 -118 230 -25 72 117 -68 250 -181 174z"/>
</g>
</svg>
