<?xml version="1.0" standalone="no"?>
<!DOCTYPE svg PUBLIC "-//W3C//DTD SVG 20010904//EN"
 "http://www.w3.org/TR/2001/REC-SVG-20010904/DTD/svg10.dtd">
<svg version="1.0" xmlns="http://www.w3.org/2000/svg"
 width="256.000000pt" height="256.000000pt" viewBox="0 0 256.000000 256.000000"
 preserveAspectRatio="xMidYMid meet">

<g transform="translate(0.000000,256.000000) scale(0.100000,-0.100000)"
fill="#000000" stroke="none">
<path d="M482 1893 l3 -508 32 -68 c60 -127 177 -215 313 -237 36 -5 209 -10
386 -10 317 0 321 0 365 -23 29 -16 54 -40 74 -72 l30 -48 3 -384 3 -383 205
0 205 0 -3 503 c-3 499 -3 502 -26 560 -46 112 -134 197 -250 240 -53 20 -83
22 -428 27 l-371 5 -42 28 c-29 20 -50 44 -67 80 l-24 52 0 373 0 372 -205 0
-206 0 3 -507z"/>
<path d="M1670 2263 c0 -232 24 -321 114 -420 62 -69 171 -124 248 -127 l53
-1 0 340 0 340 -207 3 -208 2 0 -137z"/>
<path d="M490 506 l0 -346 208 2 207 3 3 130 c5 223 -22 321 -114 424 -56 63
-164 118 -246 127 l-58 7 0 -347z"/>
</g>
</svg>
