<?xml version="1.0" standalone="no"?>
<!DOCTYPE svg PUBLIC "-//W3C//DTD SVG 20010904//EN"
 "http://www.w3.org/TR/2001/REC-SVG-20010904/DTD/svg10.dtd">
<svg version="1.0" xmlns="http://www.w3.org/2000/svg"
 width="256.000000pt" height="256.000000pt" viewBox="0 0 256.000000 256.000000"
 preserveAspectRatio="xMidYMid meet">

<g transform="translate(0.000000,256.000000) scale(0.100000,-0.100000)"
fill="#000000" stroke="none">
<path d="M1110 2498 c-15 -18 -48 -37 -84 -49 -64 -21 -196 -89 -343 -176
-102 -61 -111 -76 -68 -119 l25 -25 187 5 187 6 32 31 c33 32 33 32 141 32
146 -1 187 -13 213 -63 11 -22 20 -53 20 -69 0 -25 -7 -34 -38 -50 -50 -25
-166 -47 -355 -66 -84 -9 -157 -17 -163 -20 -7 -2 -34 19 -60 47 -59 62 -117
89 -188 89 -133 0 -268 -75 -426 -235 -35 -36 -70 -66 -76 -66 -9 0 -9 -9 -1
-36 8 -26 8 -54 -1 -105 -7 -39 -12 -163 -12 -283 0 -186 2 -215 16 -220 55
-21 92 12 149 131 25 52 59 115 75 138 31 45 40 104 21 134 -16 26 88 205 145
250 32 25 99 28 132 5 29 -20 30 -82 1 -167 -42 -128 -163 -389 -184 -397 -11
-4 -46 -15 -78 -25 -77 -22 -136 -79 -167 -160 -36 -96 -32 -241 13 -415 34
-132 35 -135 65 -141 17 -3 52 -25 79 -49 51 -45 168 -120 326 -208 96 -54 99
-55 117 -36 18 18 24 40 21 76 0 9 -32 64 -71 122 -38 59 -76 121 -84 140 -17
40 -51 66 -87 66 -31 0 -64 45 -123 170 -43 89 -44 108 -10 160 65 98 130 51
353 -259 46 -63 85 -119 87 -126 3 -6 -2 -30 -11 -54 -69 -197 84 -374 395
-456 119 -31 150 -31 196 0 20 14 45 25 55 25 23 0 208 94 342 174 106 64 115
79 72 122 l-25 25 -187 -5 -187 -6 -33 -32 -33 -32 -107 1 c-146 0 -187 13
-213 63 -11 22 -20 53 -20 69 0 25 7 34 38 50 50 25 166 47 355 66 84 9 157
17 163 20 7 2 34 -19 60 -47 59 -62 117 -89 188 -89 132 0 242 59 412 223 45
43 86 78 92 78 7 0 7 12 -1 36 -8 26 -8 54 1 105 7 39 12 163 12 283 0 186 -2
215 -16 220 -55 21 -92 -12 -149 -131 -25 -52 -59 -115 -75 -138 -31 -45 -40
-104 -20 -135 13 -21 -62 -159 -121 -221 -41 -45 -49 -49 -90 -49 -65 0 -89
21 -89 76 0 58 25 132 113 333 50 113 78 166 92 171 11 4 46 15 78 25 77 22
136 79 167 160 36 96 32 241 -13 415 -34 132 -35 135 -65 141 -17 3 -52 25
-79 49 -51 45 -168 120 -326 208 -96 54 -99 55 -117 36 -18 -18 -24 -40 -21
-76 0 -9 32 -64 71 -122 38 -59 76 -121 84 -140 17 -40 51 -66 87 -66 31 0 64
-45 123 -170 43 -89 44 -108 10 -160 -65 -99 -130 -51 -355 261 -49 68 -89
127 -89 130 0 4 7 26 15 49 70 198 -84 372 -400 455 -55 15 -109 32 -120 39
-17 11 -23 8 -45 -16z m295 -119 c27 -7 57 -29 91 -63 86 -88 116 -211 75
-301 -44 -97 -195 -175 -339 -175 -45 0 -216 -29 -274 -46 -12 -3 -22 5 -33
25 l-15 30 42 12 c79 21 193 38 258 39 173 1 280 70 280 180 0 120 -70 167
-263 177 -59 3 -110 9 -112 13 -10 16 54 88 87 98 76 24 142 28 203 11z m-720
-429 c63 -32 102 -86 116 -164 15 -82 -2 -166 -55 -279 -24 -51 -57 -134 -72
-184 l-29 -93 -37 0 -37 0 33 98 c19 53 54 138 79 187 87 170 79 283 -23 335
-51 26 -113 26 -156 0 -40 -25 -98 -93 -152 -179 l-40 -64 -21 41 c-35 68 -23
134 40 231 52 79 103 101 224 98 62 -2 91 -8 130 -27z m1494 -54 c61 -32 151
-164 151 -222 0 -12 -9 -51 -20 -87 -36 -116 -139 -207 -234 -207 -109 0 -212
69 -309 208 -30 43 -84 110 -121 150 l-66 72 16 32 17 32 59 -62 c32 -35 87
-107 123 -161 115 -176 196 -221 302 -170 111 54 118 151 22 341 -21 42 -39
80 -39 83 0 11 72 4 99 -9z m-725 -361 c-37 -92 -72 -168 -78 -170 -37 -13
-50 -9 -60 17 -8 24 -5 34 22 70 17 24 64 91 104 149 40 59 74 106 76 104 2
-1 -27 -78 -64 -170z m-346 23 c128 -160 126 -157 114 -189 -9 -21 -15 -25
-40 -21 -26 3 -33 12 -58 70 -15 37 -50 114 -76 172 -27 57 -47 102 -45 100 3
-3 50 -62 105 -132z m484 -268 c54 -5 121 -10 150 -11 83 -1 34 -15 -141 -39
-128 -19 -157 -20 -177 -9 -47 24 -15 83 40 74 17 -3 75 -9 128 -15z m-450
-27 c23 -20 23 -36 1 -55 -16 -14 -31 -15 -138 -2 -66 7 -147 13 -179 14 -33
0 -56 3 -53 7 7 7 271 49 321 52 16 0 38 -6 48 -16z m814 -90 c-19 -54 -54
-138 -79 -188 -87 -170 -79 -283 23 -335 108 -55 190 -8 308 179 l40 64 21
-41 c35 -69 23 -136 -43 -235 -44 -67 -87 -88 -187 -95 -120 -7 -216 34 -255
109 -48 94 -38 218 30 362 24 51 57 134 72 184 l29 93 37 0 37 0 -33 -97z
m-520 -91 c15 -37 50 -114 76 -172 27 -57 47 -102 45 -100 -18 20 -208 262
-217 277 -8 12 -8 26 -2 44 9 21 15 25 40 21 26 -3 33 -12 58 -70z m-186 18
c0 -10 -15 -37 -33 -61 -19 -24 -66 -91 -105 -148 -40 -57 -72 -100 -72 -95 1
5 31 83 68 174 57 141 71 165 92 171 27 7 50 -12 50 -41z m-666 -1 c70 -26
140 -89 209 -187 30 -43 84 -110 121 -150 l66 -72 -16 -32 -17 -32 -59 62
c-32 35 -87 107 -123 161 -115 176 -196 221 -302 170 -111 -54 -118 -151 -22
-341 21 -42 39 -80 39 -83 0 -11 -72 -4 -99 9 -61 32 -151 164 -151 222 0 56
41 153 86 203 83 92 158 112 268 70z m1051 -419 l15 -29 -42 -12 c-79 -21
-193 -38 -258 -39 -173 -1 -280 -70 -280 -180 0 -120 70 -167 263 -177 59 -3
110 -9 112 -13 9 -14 -49 -83 -82 -96 -50 -21 -150 -28 -203 -14 -95 25 -190
165 -190 278 1 145 160 260 365 263 33 0 107 11 165 24 58 12 108 23 112 24 4
0 14 -12 23 -29z"/>
</g>
</svg>
