<?xml version="1.0" standalone="no"?>
<!DOCTYPE svg PUBLIC "-//W3C//DTD SVG 20010904//EN"
 "http://www.w3.org/TR/2001/REC-SVG-20010904/DTD/svg10.dtd">
<svg version="1.0" xmlns="http://www.w3.org/2000/svg"
 width="256.000000pt" height="256.000000pt" viewBox="0 0 256.000000 256.000000"
 preserveAspectRatio="xMidYMid meet">

<g transform="translate(0.000000,256.000000) scale(0.100000,-0.100000)"
fill="#000000" stroke="none">
<path d="M1161 2332 c-50 -76 -91 -141 -91 -144 0 -4 20 -21 45 -38 l44 -31
47 71 c26 38 50 70 53 70 3 -1 80 -117 170 -260 l164 -259 27 16 c14 8 36 23
49 32 l22 17 -212 332 c-116 183 -215 332 -219 332 -4 0 -48 -62 -99 -138z"/>
<path d="M1687 2073 c-4 -3 -7 -30 -7 -60 l0 -53 70 0 c39 0 70 -2 70 -5 0 -4
-226 -332 -240 -348 -4 -5 -28 7 -52 25 -86 66 -140 83 -263 83 -103 0 -114
-2 -178 -32 -214 -101 -310 -340 -223 -555 l25 -61 -77 -111 c-42 -61 -129
-187 -194 -279 -65 -92 -118 -170 -118 -173 0 -2 82 -3 183 -2 l182 3 3 58 3
57 -71 0 c-38 0 -70 3 -70 6 0 5 213 317 230 337 4 5 28 -7 53 -26 131 -100
351 -104 490 -9 171 118 235 314 166 512 l-21 60 196 280 c108 155 196 285
196 290 0 11 -343 14 -353 3z m-340 -508 c117 -35 203 -148 203 -268 0 -33 -5
-77 -11 -97 -18 -59 -78 -130 -139 -164 -49 -28 -64 -31 -135 -31 -67 0 -88 5
-131 27 -99 52 -153 140 -154 249 0 140 66 236 193 280 64 23 108 23 174 4z"/>
<path d="M490 2049 c0 -5 34 -75 76 -154 l75 -145 50 25 c27 14 49 30 49 35 0
6 -13 34 -30 63 -16 30 -30 57 -30 60 0 4 151 7 335 7 l335 0 0 60 0 60 -430
0 c-297 0 -430 -3 -430 -11z"/>
<path d="M715 1589 c-110 -177 -201 -325 -203 -330 -3 -8 171 -243 187 -254 8
-4 91 52 91 62 0 4 -32 48 -71 100 l-70 94 180 290 c100 159 181 293 181 297
0 6 -84 62 -93 62 -1 0 -92 -144 -202 -321z"/>
<path d="M1792 1526 l-42 -34 70 -91 c38 -49 70 -95 70 -102 0 -10 -183 -310
-327 -536 l-32 -51 47 -31 c37 -24 49 -28 58 -18 20 20 397 631 397 642 0 12
-183 255 -192 254 -3 0 -25 -15 -49 -33z"/>
<path d="M897 785 c-20 -14 -37 -29 -37 -33 0 -13 415 -655 425 -659 8 -2 181
246 193 277 5 13 -89 74 -97 63 -3 -5 -24 -38 -46 -71 -22 -34 -42 -62 -45
-62 -3 0 -79 115 -169 255 -89 140 -168 255 -175 255 -6 0 -28 -11 -49 -25z"/>
<path d="M1850 783 c-25 -14 -46 -27 -47 -28 -2 -1 13 -31 33 -68 l35 -67
-340 0 -341 0 0 -60 0 -60 435 0 c239 0 435 3 435 6 0 11 -155 304 -160 304
-3 0 -25 -12 -50 -27z"/>
</g>
</svg>
