<?xml version="1.0" standalone="no"?>
<!DOCTYPE svg PUBLIC "-//W3C//DTD SVG 20010904//EN"
 "http://www.w3.org/TR/2001/REC-SVG-20010904/DTD/svg10.dtd">
<svg version="1.0" xmlns="http://www.w3.org/2000/svg"
 width="256.000000pt" height="256.000000pt" viewBox="0 0 256.000000 256.000000"
 preserveAspectRatio="xMidYMid meet">

<g transform="translate(0.000000,256.000000) scale(0.100000,-0.100000)"
fill="#000000" stroke="none">
<path d="M214 2230 c-51 -20 -68 -84 -38 -146 25 -53 164 -130 356 -199 l93
-33 3 -221 2 -221 -64 0 c-58 0 -67 -3 -85 -26 -26 -33 -26 -59 -3 -103 22
-40 73 -71 119 -71 l33 0 0 -219 0 -219 -82 -28 c-105 -34 -228 -90 -301 -137
-90 -58 -112 -129 -59 -188 37 -42 85 -42 150 -1 141 91 343 163 568 203 111
20 163 23 374 23 211 0 263 -3 374 -23 225 -40 427 -112 568 -203 65 -41 113
-41 150 1 31 35 35 65 14 116 -24 57 -165 136 -363 205 l-93 33 0 218 0 219
60 0 c51 0 65 4 85 25 31 31 32 72 2 116 -28 41 -60 59 -110 59 l-37 0 2 221
3 221 94 34 c190 68 330 147 356 200 24 51 19 91 -14 125 -36 35 -82 38 -126
8 -59 -40 -222 -117 -310 -147 -199 -66 -396 -95 -655 -95 -259 0 -456 29
-655 95 -88 30 -251 107 -310 147 -32 22 -66 26 -101 11z m796 -450 c167 -19
483 -12 668 16 l42 6 -2 -193 -3 -194 -435 0 -435 0 -3 194 -2 193 42 -6 c24
-4 81 -11 128 -16z m710 -758 c0 -104 -2 -191 -5 -193 -2 -3 -46 1 -97 9 -127
19 -549 19 -676 0 -51 -8 -95 -12 -97 -9 -3 2 -5 89 -5 193 l0 188 440 0 440
0 0 -188z"/>
</g>
</svg>
