<?xml version="1.0" standalone="no"?>
<!DOCTYPE svg PUBLIC "-//W3C//DTD SVG 20010904//EN"
 "http://www.w3.org/TR/2001/REC-SVG-20010904/DTD/svg10.dtd">
<svg version="1.0" xmlns="http://www.w3.org/2000/svg"
 width="256.000000pt" height="256.000000pt" viewBox="0 0 256.000000 256.000000"
 preserveAspectRatio="xMidYMid meet">

<g transform="translate(0.000000,256.000000) scale(0.100000,-0.100000)"
fill="#000000" stroke="none">
<path d="M1181 2384 c-175 -29 -349 -104 -488 -210 -218 -167 -387 -439 -437
-704 -27 -140 -34 -130 93 -130 l109 0 12 67 c48 279 246 550 489 673 349 175
785 107 1037 -163 104 -111 131 -203 78 -266 -49 -58 -96 -39 -234 93 -109
104 -196 156 -316 186 -278 71 -583 -51 -739 -295 -44 -67 -85 -190 -85 -249
l0 -46 109 0 108 0 7 48 c9 71 49 142 114 205 145 138 337 174 505 95 56 -27
93 -55 163 -125 114 -114 189 -154 299 -161 69 -4 80 -2 140 27 65 32 113 80
151 151 15 28 19 57 19 141 0 104 -1 106 -43 192 -33 66 -62 106 -120 166
-240 246 -617 364 -971 305z"/>
<path d="M1292 1487 c-49 -18 -100 -63 -123 -109 -32 -62 -24 -162 16 -219 81
-114 254 -121 343 -14 74 91 68 202 -17 286 -64 65 -141 84 -219 56z"/>
<path d="M240 1196 c0 -48 32 -191 60 -269 209 -572 779 -877 1361 -727 265
68 513 249 611 447 42 86 43 88 43 192 0 84 -4 113 -19 141 -37 70 -86 119
-151 151 -58 28 -71 31 -137 28 -110 -6 -186 -47 -304 -163 -124 -124 -211
-165 -345 -166 -200 -1 -412 165 -435 342 l-7 48 -108 0 -109 0 0 -46 c0 -59
41 -182 85 -249 124 -194 346 -315 577 -315 183 0 328 62 478 206 138 132 185
151 234 93 54 -64 23 -166 -84 -275 -132 -135 -313 -219 -525 -246 -110 -13
-254 0 -364 34 -90 27 -220 97 -299 161 -161 130 -296 362 -332 570 l-12 67
-109 0 c-108 0 -109 0 -109 -24z"/>
</g>
</svg>
