<?xml version="1.0" standalone="no"?>
<!DOCTYPE svg PUBLIC "-//W3C//DTD SVG 20010904//EN"
 "http://www.w3.org/TR/2001/REC-SVG-20010904/DTD/svg10.dtd">
<svg version="1.0" xmlns="http://www.w3.org/2000/svg"
 width="256.000000pt" height="256.000000pt" viewBox="0 0 256.000000 256.000000"
 preserveAspectRatio="xMidYMid meet">

<g transform="translate(0.000000,256.000000) scale(0.100000,-0.100000)"
fill="#000000" stroke="none">
<path d="M555 1830 c-155 -33 -280 -118 -370 -248 -184 -270 -115 -634 155
-817 82 -55 146 -79 253 -96 180 -28 353 56 573 276 l121 122 68 -75 c138
-150 285 -258 410 -303 73 -25 192 -27 279 -4 139 37 274 138 348 261 229 377
-24 864 -462 891 -173 10 -320 -66 -529 -274 l-123 -123 -112 113 c-122 123
-256 220 -353 257 -64 25 -192 35 -258 20z m210 -265 c99 -55 176 -118 270
-220 103 -113 106 -93 -38 -239 -189 -191 -315 -241 -458 -183 -143 59 -225
180 -222 332 2 171 117 311 283 344 62 13 93 6 165 -34z m1262 13 c107 -39
190 -145 213 -270 36 -192 -114 -390 -306 -406 -94 -8 -238 82 -397 247 -53
56 -97 106 -97 112 0 6 57 68 128 138 201 200 299 238 459 179z"/>
</g>
</svg>
