<?xml version="1.0" standalone="no"?>
<!DOCTYPE svg PUBLIC "-//W3C//DTD SVG 20010904//EN"
 "http://www.w3.org/TR/2001/REC-SVG-20010904/DTD/svg10.dtd">
<svg version="1.0" xmlns="http://www.w3.org/2000/svg"
 width="256.000000pt" height="256.000000pt" viewBox="0 0 256.000000 256.000000"
 preserveAspectRatio="xMidYMid meet">

<g transform="translate(0.000000,256.000000) scale(0.100000,-0.100000)"
fill="#000000" stroke="none">
<path d="M2160 2467 c-49 -16 -133 -102 -148 -153 -28 -94 -8 -169 63 -239
101 -102 229 -102 330 0 102 101 102 229 0 330 -70 71 -152 91 -245 62z"/>
<path d="M1109 2225 c-377 -71 -671 -353 -766 -733 -23 -93 -23 -331 0 -424
25 -101 72 -215 118 -287 l41 -64 129 129 130 130 -25 55 c-108 231 -54 505
134 682 151 143 357 198 553 148 41 -11 94 -29 118 -41 l42 -22 130 130 130
130 -59 38 c-74 48 -172 89 -272 115 -102 27 -299 34 -403 14z"/>
<path d="M1926 1711 l-127 -127 25 -55 c108 -231 54 -505 -134 -682 -151 -143
-357 -198 -553 -148 -41 11 -94 29 -118 41 l-42 22 -130 -130 -130 -130 59
-38 c130 -83 289 -132 459 -141 459 -23 870 287 980 739 41 166 27 380 -35
549 -28 76 -99 211 -118 223 -5 3 -66 -52 -136 -123z"/>
<path d="M240 547 c-49 -16 -133 -102 -148 -153 -28 -94 -8 -169 63 -239 101
-102 229 -102 330 0 102 101 102 229 0 330 -70 71 -152 91 -245 62z"/>
</g>
</svg>
