<?xml version="1.0" standalone="no"?>
<!DOCTYPE svg PUBLIC "-//W3C//DTD SVG 20010904//EN"
 "http://www.w3.org/TR/2001/REC-SVG-20010904/DTD/svg10.dtd">
<svg version="1.0" xmlns="http://www.w3.org/2000/svg"
 width="256.000000pt" height="256.000000pt" viewBox="0 0 256.000000 256.000000"
 preserveAspectRatio="xMidYMid meet">

<g transform="translate(0.000000,256.000000) scale(0.100000,-0.100000)"
fill="#000000" stroke="none">
<path d="M393 2378 c-11 -13 -68 -85 -127 -160 l-106 -137 307 -396 c170 -218
308 -400 308 -405 0 -5 -138 -187 -308 -404 l-307 -397 123 -157 123 -157 874
0 874 0 123 157 123 158 -310 397 c-170 219 -310 400 -310 403 0 3 140 184
310 403 l310 397 -123 158 -123 157 -870 3 -870 2 -21 -22z m831 -1128 l805
-1035 -786 -3 c-513 -1 -790 1 -798 8 -6 5 -47 55 -89 110 l-77 100 588 0
c608 0 613 0 613 39 0 9 -279 375 -620 814 l-621 797 82 105 c45 58 86 104 90
103 4 -2 370 -469 813 -1038z m993 698 c-35 -46 -155 -200 -266 -343 -111
-143 -206 -261 -211 -263 -4 -2 -54 56 -110 127 l-102 131 91 117 c98 126 110
158 69 187 -18 13 -57 16 -212 16 -181 0 -191 1 -213 22 -25 23 -31 73 -10 81
6 3 241 6 520 6 l509 1 -65 -82z m-1063 -1147 c64 -82 116 -152 116 -155 0 -3
-84 -6 -188 -6 -154 0 -192 3 -210 16 -41 28 -29 62 64 183 48 61 90 111 95
111 4 0 60 -67 123 -149z"/>
</g>
</svg>
