<?xml version="1.0" standalone="no"?>
<!DOCTYPE svg PUBLIC "-//W3C//DTD SVG 20010904//EN"
 "http://www.w3.org/TR/2001/REC-SVG-20010904/DTD/svg10.dtd">
<svg version="1.0" xmlns="http://www.w3.org/2000/svg"
 width="256.000000pt" height="256.000000pt" viewBox="0 0 256.000000 256.000000"
 preserveAspectRatio="xMidYMid meet">

<g transform="translate(0.000000,256.000000) scale(0.100000,-0.100000)"
fill="#000000" stroke="none">
<path d="M108 2313 l-28 -4 0 -785 0 -784 140 0 140 0 0 325 0 326 107 -3 107
-3 182 -320 181 -320 172 -3 c95 -1 171 1 168 5 -2 5 -91 153 -196 331 -105
177 -194 328 -197 336 -3 9 5 15 27 20 59 11 162 70 215 122 58 56 75 97 95
234 8 61 9 99 0 157 -29 192 -120 285 -339 345 -70 19 -106 22 -412 24 -184 1
-347 0 -362 -3z m717 -256 c21 -10 48 -25 59 -35 54 -48 72 -170 37 -248 -41
-90 -119 -114 -378 -114 l-183 0 0 203 c0 112 3 207 8 211 4 4 99 6 212 4 167
-3 212 -7 245 -21z"/>
<path d="M1820 1884 c-81 -17 -178 -65 -221 -110 -18 -19 -37 -34 -41 -34 -4
0 -8 29 -8 65 l0 65 -120 0 -120 0 0 -790 0 -791 133 3 132 3 3 313 2 313 48
-39 c95 -80 215 -120 321 -107 285 33 465 180 516 421 44 208 -9 409 -144 543
-140 139 -306 187 -501 145z m173 -240 c61 -21 141 -94 174 -158 37 -73 43
-180 13 -258 -27 -73 -92 -141 -168 -176 -75 -35 -183 -37 -254 -5 -66 30
-141 104 -169 166 -32 71 -33 191 -2 258 30 67 86 124 155 159 51 25 73 30
133 30 39 0 92 -7 118 -16z"/>
</g>
</svg>
