<?xml version="1.0" standalone="no"?>
<!DOCTYPE svg PUBLIC "-//W3C//DTD SVG 20010904//EN"
 "http://www.w3.org/TR/2001/REC-SVG-20010904/DTD/svg10.dtd">
<svg version="1.0" xmlns="http://www.w3.org/2000/svg"
 width="256.000000pt" height="256.000000pt" viewBox="0 0 256.000000 256.000000"
 preserveAspectRatio="xMidYMid meet">

<g transform="translate(0.000000,256.000000) scale(0.100000,-0.100000)"
fill="#000000" stroke="none">
<path d="M1528 1508 l-6 -887 -26 -53 c-14 -29 -32 -62 -40 -73 -19 -25 -15
-29 59 -85 33 -24 107 -81 164 -127 57 -46 106 -81 108 -79 3 3 -4 30 -16 60
-11 31 -32 102 -47 158 -25 102 -26 108 -27 503 -2 436 1 466 54 562 16 29 29
57 29 62 0 5 -18 39 -41 76 -82 135 -142 332 -174 565 -9 69 -20 143 -24 165
-4 22 -10 -359 -13 -847z"/>
<path d="M1056 2325 c-49 -370 -106 -569 -206 -719 l-39 -59 29 -42 c62 -90
65 -119 65 -560 0 -443 -3 -471 -69 -659 -18 -52 -28 -92 -22 -88 6 3 65 49
131 102 66 52 141 111 168 129 26 19 47 38 47 43 0 5 -16 31 -35 59 -19 28
-37 66 -41 86 -4 19 -9 425 -13 901 -4 509 -10 842 -15 807z"/>
<path d="M1296 1898 c-8 -74 -6 -652 4 -713 4 -29 8 122 9 358 0 224 -1 407
-3 407 -2 0 -6 -24 -10 -52z"/>
<path d="M1110 329 c-102 -77 -189 -145 -195 -151 -5 -5 20 4 57 21 254 113
406 113 656 0 34 -15 62 -26 62 -24 0 5 -368 285 -382 290 -8 3 -96 -57 -198
-136z"/>
</g>
</svg>
