<?xml version="1.0" standalone="no"?>
<!DOCTYPE svg PUBLIC "-//W3C//DTD SVG 20010904//EN"
 "http://www.w3.org/TR/2001/REC-SVG-20010904/DTD/svg10.dtd">
<svg version="1.0" xmlns="http://www.w3.org/2000/svg"
 width="256.000000pt" height="256.000000pt" viewBox="0 0 256.000000 256.000000"
 preserveAspectRatio="xMidYMid meet">

<g transform="translate(0.000000,256.000000) scale(0.100000,-0.100000)"
fill="#000000" stroke="none">
<path d="M107 2218 c11 -13 194 -225 406 -471 346 -401 387 -452 387 -482 0
-34 -114 -172 -727 -875 -46 -52 -83 -98 -83 -102 0 -5 56 -8 125 -8 l125 0
397 462 c218 255 404 475 412 490 14 23 14 30 1 56 -8 17 -194 238 -413 491
l-398 461 -126 0 -126 0 20 -22z"/>
<path d="M552 2231 c2 -5 167 -199 367 -431 l364 -422 34 39 c42 47 73 94 73
110 0 7 -44 61 -98 120 -54 59 -191 217 -305 351 l-208 242 -115 0 c-66 0
-114 -4 -112 -9z"/>
<path d="M1600 2035 c-96 -113 -179 -216 -184 -229 -13 -34 -1 -65 47 -119
l43 -48 234 273 c129 150 246 285 258 300 l24 28 -124 0 -123 -1 -175 -204z"/>
<path d="M1706 1639 c-457 -533 -516 -606 -516 -635 0 -37 -7 -28 366 -464
l219 -255 128 -3 c84 -2 128 1 125 7 -1 6 -132 160 -289 343 -157 183 -291
344 -298 356 -7 13 -10 35 -7 48 4 13 232 281 509 597 276 315 508 581 516
590 12 16 5 17 -111 17 l-125 0 -517 -601z"/>
<path d="M1682 1098 c-71 -85 -81 -68 262 -468 l300 -350 114 0 c70 0 112 4
110 10 -3 10 -725 847 -737 854 -3 2 -26 -19 -49 -46z"/>
<path d="M803 587 c-139 -163 -253 -298 -253 -301 0 -3 53 -6 118 -6 l117 1
175 204 c96 113 179 216 184 229 13 35 1 66 -46 119 l-43 49 -252 -295z"/>
</g>
</svg>
