<?xml version="1.0" standalone="no"?>
<!DOCTYPE svg PUBLIC "-//W3C//DTD SVG 20010904//EN"
 "http://www.w3.org/TR/2001/REC-SVG-20010904/DTD/svg10.dtd">
<svg version="1.0" xmlns="http://www.w3.org/2000/svg"
 width="256.000000pt" height="256.000000pt" viewBox="0 0 256.000000 256.000000"
 preserveAspectRatio="xMidYMid meet">

<g transform="translate(0.000000,256.000000) scale(0.100000,-0.100000)"
fill="#000000" stroke="none">
<path d="M1118 2393 c-21 -2 -38 -8 -38 -12 0 -4 33 -18 73 -30 227 -73 432
-242 497 -410 71 -183 16 -377 -197 -696 -152 -227 -177 -290 -177 -435 1
-130 45 -230 144 -324 141 -135 338 -164 510 -76 120 61 266 248 340 433 171
429 78 916 -235 1233 -94 95 -140 118 -56 29 113 -122 162 -212 202 -380 23
-98 25 -239 4 -359 -35 -198 -164 -503 -261 -613 -47 -55 -130 -103 -176 -103
-34 0 -95 24 -121 48 -50 45 -70 133 -48 210 6 18 44 85 86 148 188 282 298
583 282 775 -11 133 -80 260 -204 380 -102 98 -175 143 -263 164 -74 17 -286
28 -362 18z"/>
<path d="M675 2187 c-57 -19 -124 -55 -167 -89 -61 -48 -165 -186 -217 -288
-231 -450 -150 -986 200 -1333 106 -105 140 -117 42 -14 -87 92 -134 169 -172
283 -74 220 -60 428 46 714 107 288 242 451 374 450 77 -1 153 -76 165 -160 9
-69 -9 -116 -92 -241 -91 -138 -201 -355 -237 -470 -40 -128 -50 -199 -45
-305 5 -86 9 -103 46 -177 50 -101 124 -190 222 -268 97 -77 134 -94 249 -113
132 -22 351 -19 351 5 0 5 -7 9 -16 9 -35 0 -223 83 -289 126 -109 74 -205
177 -251 268 -34 70 -39 88 -42 170 -7 167 42 288 235 581 65 99 127 205 137
235 29 87 33 224 8 307 -39 126 -151 248 -272 295 -68 26 -216 34 -275 15z"/>
</g>
</svg>
