<?xml version="1.0" standalone="no"?>
<!DOCTYPE svg PUBLIC "-//W3C//DTD SVG 20010904//EN"
 "http://www.w3.org/TR/2001/REC-SVG-20010904/DTD/svg10.dtd">
<svg version="1.0" xmlns="http://www.w3.org/2000/svg"
 width="256.000000pt" height="256.000000pt" viewBox="0 0 256.000000 256.000000"
 preserveAspectRatio="xMidYMid meet">

<g transform="translate(0.000000,256.000000) scale(0.100000,-0.100000)"
fill="#000000" stroke="none">
<path d="M1087 2384 c-139 -25 -280 -90 -405 -187 -113 -87 -208 -218 -283
-392 -81 -190 -79 -160 -79 -852 l0 -611 58 -52 c70 -63 179 -118 249 -127 72
-8 131 16 181 72 54 61 62 98 62 277 l0 156 61 -25 c151 -61 366 -75 533 -34
96 23 227 80 301 131 82 56 184 160 240 244 99 150 143 284 152 461 9 184 -28
342 -118 502 -60 107 -225 271 -331 331 -190 107 -408 145 -621 106z m287
-584 c72 -28 148 -101 184 -177 22 -48 26 -72 27 -143 0 -76 -3 -92 -33 -152
-38 -77 -92 -130 -171 -167 -47 -22 -70 -26 -141 -26 -70 1 -95 5 -142 27
-106 49 -177 144 -200 266 -23 122 39 263 145 336 99 67 213 80 331 36z"/>
</g>
</svg>
