<?xml version="1.0" standalone="no"?>
<!DOCTYPE svg PUBLIC "-//W3C//DTD SVG 20010904//EN"
 "http://www.w3.org/TR/2001/REC-SVG-20010904/DTD/svg10.dtd">
<svg version="1.0" xmlns="http://www.w3.org/2000/svg"
 width="256.000000pt" height="256.000000pt" viewBox="0 0 256.000000 256.000000"
 preserveAspectRatio="xMidYMid meet">

<g transform="translate(0.000000,256.000000) scale(0.100000,-0.100000)"
fill="#000000" stroke="none">
<path d="M750 2181 l-505 -298 0 -603 0 -603 508 -298 507 -299 508 299 507
298 0 603 0 603 -500 294 c-275 162 -504 297 -510 298 -5 2 -237 -130 -515
-294z m882 -300 c188 -109 343 -203 345 -207 1 -5 -38 -33 -87 -62 l-89 -52
-257 150 c-159 93 -264 148 -273 145 -9 -3 -94 -52 -189 -108 -198 -116 -193
-97 -48 -180 l84 -48 51 31 c28 18 54 30 59 28 31 -13 162 -93 162 -99 0 -4
-21 -19 -46 -34 -50 -30 -50 -30 20 -73 l49 -30 46 26 46 25 83 -47 c45 -26
82 -51 82 -55 0 -4 -16 -16 -35 -27 -19 -10 -35 -21 -35 -24 0 -3 95 -62 210
-129 116 -68 212 -127 214 -130 4 -6 -716 -433 -738 -439 -10 -2 -759 428
-779 447 -4 4 -6 56 -5 115 l3 106 388 -226 387 -226 185 109 c102 59 185 110
185 113 0 3 -37 26 -83 52 -45 26 -100 59 -122 72 l-41 25 -46 -29 -47 -29
-87 51 -87 51 24 18 c13 10 32 21 42 25 27 9 21 17 -40 53 l-57 34 -38 -22
-38 -22 -80 47 c-44 25 -82 50 -85 54 -3 5 8 16 25 25 16 8 30 19 30 23 -1 4
-89 58 -196 121 l-195 114 148 87 c81 48 247 146 368 218 121 72 226 131 232
131 7 1 167 -88 355 -198z"/>
</g>
</svg>
