<?xml version="1.0" standalone="no"?>
<!DOCTYPE svg PUBLIC "-//W3C//DTD SVG 20010904//EN"
 "http://www.w3.org/TR/2001/REC-SVG-20010904/DTD/svg10.dtd">
<svg version="1.0" xmlns="http://www.w3.org/2000/svg"
 width="256.000000pt" height="256.000000pt" viewBox="0 0 256.000000 256.000000"
 preserveAspectRatio="xMidYMid meet">

<g transform="translate(0.000000,256.000000) scale(0.100000,-0.100000)"
fill="#000000" stroke="none">
<path d="M1760 2458 c-93 -62 -86 -183 13 -234 94 -49 212 55 178 158 -28 85
-122 123 -191 76z"/>
<path d="M849 2221 c-17 -18 -29 -40 -29 -56 0 -29 48 -85 74 -85 54 0 98 53
88 106 -6 31 -47 64 -79 64 -14 0 -37 -13 -54 -29z"/>
<path d="M1103 2220 c-26 -11 -43 -40 -43 -74 0 -28 42 -66 72 -66 27 0 68 44
68 73 0 48 -53 84 -97 67z"/>
<path d="M575 2184 c-56 -60 -16 -154 65 -154 56 0 90 34 90 90 0 56 -34 90
-90 90 -31 0 -47 -6 -65 -26z"/>
<path d="M1277 2142 c-35 -39 -11 -102 38 -102 32 0 55 25 55 59 0 53 -60 80
-93 43z"/>
<path d="M1830 2083 c-31 -12 -70 -58 -76 -89 -12 -65 45 -134 111 -134 65 0
123 71 111 134 -11 60 -93 110 -146 89z"/>
<path d="M1421 2056 c-18 -21 -9 -66 14 -82 44 -29 92 26 65 75 -13 25 -61 28
-79 7z"/>
<path d="M2108 2020 c-87 -67 -42 -200 66 -200 54 0 92 28 105 76 10 36 8 51
-12 92 -24 51 -113 68 -159 32z"/>
<path d="M899 1970 c-29 -17 -43 -66 -29 -100 15 -35 37 -50 75 -50 38 0 60
15 75 50 15 35 0 84 -31 100 -22 13 -69 12 -90 0z"/>
<path d="M1538 1959 c-22 -12 -23 -52 -3 -69 8 -7 25 -10 39 -6 33 8 43 42 20
67 -19 21 -31 23 -56 8z"/>
<path d="M1125 1935 c-30 -30 -31 -54 -4 -89 39 -50 119 -22 119 42 0 34 -37
72 -69 72 -12 0 -33 -11 -46 -25z"/>
<path d="M619 1921 c-61 -61 -23 -161 61 -161 75 0 120 73 86 138 -31 60 -99
71 -147 23z"/>
<path d="M1316 1874 c-43 -43 5 -120 60 -96 13 7 29 23 36 36 24 55 -53 103
-96 60z"/>
<path d="M320 1811 c-52 -51 -52 -111 0 -162 78 -79 215 9 180 116 -26 78
-124 103 -180 46z"/>
<path d="M1472 1794 c-27 -18 -29 -55 -4 -77 35 -32 82 -10 82 38 0 20 -32 55
-50 55 -3 0 -16 -7 -28 -16z"/>
<path d="M1784 1744 c-91 -44 -59 -184 42 -184 53 0 94 40 94 92 0 49 -22 83
-62 97 -38 14 -37 14 -74 -5z"/>
<path d="M2087 1699 c-23 -13 -47 -62 -47 -94 0 -16 12 -38 29 -56 62 -62 161
-20 161 68 0 68 -84 116 -143 82z"/>
<path d="M1005 1665 c-62 -61 3 -162 85 -134 36 13 50 36 50 83 0 68 -86 101
-135 51z"/>
<path d="M1247 1650 c-20 -16 -27 -30 -27 -55 0 -67 79 -95 123 -43 53 62 -31
149 -96 98z"/>
<path d="M740 1633 c-40 -37 -47 -78 -20 -121 53 -85 175 -51 175 50 0 33 -6
45 -33 69 -42 37 -82 38 -122 2z"/>
<path d="M2316 1584 c-38 -38 -36 -95 3 -135 58 -58 147 -26 158 57 4 33 1 45
-22 72 -22 27 -34 32 -70 32 -32 0 -48 -6 -69 -26z"/>
<path d="M1437 1582 c-35 -38 -9 -102 41 -102 28 0 64 47 56 74 -13 46 -67 61
-97 28z"/>
<path d="M434 1516 c-40 -40 -46 -92 -15 -142 58 -95 201 -47 201 66 0 34 -6
48 -34 76 -28 28 -42 34 -76 34 -34 0 -48 -6 -76 -34z"/>
<path d="M1687 1468 c-21 -17 -38 -63 -30 -85 26 -73 115 -87 148 -22 21 40
19 66 -10 94 -27 28 -80 34 -108 13z"/>
<path d="M1993 1418 c-29 -32 -34 -53 -22 -88 26 -73 137 -66 154 9 17 78 -80
136 -132 79z"/>
<path d="M1040 1352 c-30 -24 -30 -70 0 -94 12 -10 29 -18 37 -18 19 0 63 45
63 65 0 20 -44 65 -63 65 -8 0 -25 -8 -37 -18z"/>
<path d="M142 1330 c-55 -34 -77 -112 -47 -170 24 -46 62 -70 112 -70 83 0
133 51 133 134 0 38 -6 52 -33 82 -43 47 -113 57 -165 24z"/>
<path d="M2264 1340 c-55 -22 -70 -95 -29 -135 48 -49 135 -17 135 50 0 47 -8
64 -41 80 -32 17 -36 17 -65 5z"/>
<path d="M1569 1262 c-45 -37 -17 -122 40 -122 43 0 71 26 71 66 0 64 -62 95
-111 56z"/>
<path d="M842 1258 c-29 -29 -5 -88 36 -88 35 0 52 16 52 50 0 14 -5 31 -12
38 -15 15 -61 15 -76 0z"/>
<path d="M1875 1215 c-63 -63 18 -160 88 -105 37 29 37 80 1 109 -35 27 -59
26 -89 -4z"/>
<path d="M670 1215 c-17 -20 -5 -62 21 -70 24 -8 59 19 59 45 0 37 -55 55 -80
25z"/>
<path d="M1093 1175 c-47 -20 -52 -88 -9 -117 24 -16 75 -8 90 14 44 63 -11
132 -81 103z"/>
<path d="M2125 1115 c-14 -13 -25 -35 -25 -48 0 -31 39 -67 73 -67 32 0 67 35
67 67 0 30 -42 73 -70 73 -11 0 -32 -11 -45 -25z"/>
<path d="M1432 1118 c-19 -19 -15 -72 7 -92 26 -24 60 -17 85 17 19 26 19 30
5 55 -11 20 -24 28 -49 30 -19 2 -41 -3 -48 -10z"/>
<path d="M845 1095 c-14 -13 -25 -31 -25 -40 0 -19 44 -65 62 -65 30 0 58 31
58 65 0 24 -7 39 -22 49 -31 22 -45 20 -73 -9z"/>
<path d="M634 1075 c-15 -23 -15 -27 0 -50 20 -30 56 -33 79 -7 21 23 22 46 1
66 -24 24 -61 20 -80 -9z"/>
<path d="M1754 1082 c-37 -24 -36 -91 1 -106 44 -17 95 12 95 54 0 42 -62 75
-96 52z"/>
<path d="M1190 987 c-32 -16 -52 -59 -44 -92 8 -31 49 -65 79 -65 12 0 34 9
48 20 49 38 43 106 -12 135 -36 18 -39 18 -71 2z"/>
<path d="M1627 989 c-31 -18 -40 -48 -22 -75 19 -30 55 -31 80 -4 35 39 -13
103 -58 79z"/>
<path d="M1996 979 c-31 -25 -34 -61 -6 -89 25 -25 62 -26 85 0 24 27 22 70
-5 92 -29 23 -41 23 -74 -3z"/>
<path d="M642 934 c-25 -17 -29 -60 -9 -88 19 -26 67 -24 89 4 25 31 23 55 -8
79 -32 25 -43 26 -72 5z"/>
<path d="M886 919 c-53 -41 -21 -119 48 -119 64 0 90 79 40 119 -15 12 -34 21
-44 21 -10 0 -29 -9 -44 -21z"/>
<path d="M1868 889 c-21 -12 -24 -59 -6 -77 7 -7 21 -12 33 -12 43 0 61 53 29
84 -18 18 -32 20 -56 5z"/>
<path d="M1732 838 c-17 -17 -15 -53 3 -68 20 -17 61 -5 68 19 11 42 -42 78
-71 49z"/>
<path d="M1326 769 c-36 -43 -35 -91 3 -130 22 -21 39 -29 66 -29 27 0 44 8
66 29 38 39 39 87 3 130 -21 26 -33 31 -69 31 -36 0 -48 -5 -69 -31z"/>
<path d="M679 752 c-48 -40 -17 -122 46 -122 40 0 65 26 65 68 0 62 -63 92
-111 54z"/>
<path d="M1004 740 c-28 -11 -54 -48 -54 -78 0 -32 52 -82 85 -82 35 0 75 41
75 79 0 43 -9 60 -41 76 -32 17 -36 17 -65 5z"/>
<path d="M1600 612 c-49 -24 -76 -80 -61 -125 18 -54 55 -82 108 -82 38 0 49
5 74 33 53 59 35 148 -37 178 -42 18 -42 18 -84 -4z"/>
<path d="M793 570 c-30 -12 -55 -63 -47 -95 8 -32 49 -65 81 -65 14 0 38 13
55 30 25 26 29 36 24 63 -11 56 -64 87 -113 67z"/>
<path d="M1149 537 c-47 -36 -52 -105 -10 -148 62 -61 161 -14 161 77 0 40
-51 84 -97 84 -21 0 -45 -6 -54 -13z"/>
<path d="M1913 480 c-88 -53 -82 -190 10 -233 44 -21 70 -21 113 -1 68 33 95
125 54 191 -37 61 -116 81 -177 43z"/>
<path d="M932 358 c-66 -72 -10 -181 84 -164 70 14 99 106 49 160 -32 35 -101
37 -133 4z"/>
<path d="M1388 360 c-110 -86 -4 -250 121 -186 33 17 51 54 51 102 0 53 -53
104 -108 104 -24 0 -49 -8 -64 -20z"/>
</g>
</svg>
