<?xml version="1.0" standalone="no"?>
<!DOCTYPE svg PUBLIC "-//W3C//DTD SVG 20010904//EN"
 "http://www.w3.org/TR/2001/REC-SVG-20010904/DTD/svg10.dtd">
<svg version="1.0" xmlns="http://www.w3.org/2000/svg"
 width="256.000000pt" height="256.000000pt" viewBox="0 0 256.000000 256.000000"
 preserveAspectRatio="xMidYMid meet">

<g transform="translate(0.000000,256.000000) scale(0.100000,-0.100000)"
fill="#000000" stroke="none">
<path d="M1298 2226 c-125 -72 -229 -134 -232 -136 -2 -3 101 -66 230 -140
l234 -135 0 -275 -1 -275 -234 -134 c-129 -74 -233 -136 -232 -137 3 -3 897
-518 924 -532 19 -10 49 5 257 124 l236 137 0 546 0 546 -474 273 c-261 149
-476 272 -478 271 -1 0 -105 -60 -230 -133z m148 -263 c-3 -3 -205 107 -224
122 -2 2 48 32 110 68 l113 65 3 -126 c1 -68 1 -127 -2 -129z m484 -149 c0
-117 -1 -126 -18 -122 -31 9 -214 120 -207 126 14 14 201 120 213 121 9 1 12
-30 12 -125z m470 -274 l0 -131 -22 12 c-31 16 -158 88 -186 106 -23 14 -22
16 85 78 59 35 111 64 116 65 4 0 7 -59 7 -130z m-470 -270 c0 -71 -3 -130 -7
-130 -12 0 -223 123 -223 129 1 6 209 128 223 130 4 1 7 -57 7 -129z m-484
-397 c-3 -3 -55 23 -115 58 -71 40 -107 66 -99 71 7 4 58 33 113 66 l100 58 3
-124 c1 -69 1 -127 -2 -129z m954 123 l0 -135 -108 62 c-60 34 -109 67 -108
72 0 7 197 131 214 135 1 0 2 -60 2 -134z m-470 -276 c0 -71 -2 -130 -4 -130
-9 0 -216 122 -221 130 -4 7 200 129 218 130 4 0 7 -58 7 -130z"/>
<path d="M746 1992 c-120 -70 -218 -131 -218 -137 1 -5 81 -56 178 -112 98
-57 181 -106 186 -111 4 -4 -18 -22 -50 -39 l-58 -32 -234 134 c-128 74 -235
135 -237 135 -2 0 -3 -121 -3 -270 0 -148 2 -270 5 -270 2 0 27 14 55 30 28
17 56 30 61 30 6 0 37 -15 70 -32 l59 -33 0 -82 0 -81 -215 -124 c-118 -67
-214 -126 -212 -131 1 -4 103 -65 227 -137 l225 -129 3 77 3 78 137 79 c75 43
175 101 221 128 l84 50 -56 32 c-31 17 -59 34 -62 37 -3 3 99 65 227 138 l231
134 40 -23 c21 -12 41 -21 43 -18 2 2 3 124 2 270 l-3 266 -232 -133 c-128
-73 -235 -131 -238 -128 -3 3 -5 124 -5 269 0 144 -3 263 -7 262 -5 0 -106
-57 -227 -127z m634 -412 c0 -71 -3 -130 -7 -130 -5 0 -57 29 -117 64 -97 57
-107 65 -90 76 88 53 200 119 207 119 4 1 7 -57 7 -129z m-866 45 c58 -33 105
-62 105 -65 0 -5 -199 -121 -220 -128 -5 -2 -9 50 -9 128 0 78 4 130 9 128 6
-1 57 -30 115 -63z m688 -263 c9 -9 -191 -132 -213 -132 -10 0 -13 243 -3 252
5 5 198 -102 216 -120z m-695 -618 c-5 -5 -217 117 -217 125 0 3 49 34 108 67
l107 61 3 -125 c1 -68 1 -126 -1 -128z"/>
<path d="M870 600 l0 -272 53 32 c28 17 71 40 94 52 l42 21 172 -99 c95 -54
179 -100 186 -102 10 -3 13 49 13 262 0 146 -3 266 -7 266 -4 0 -47 -23 -96
-51 l-89 -50 -162 92 c-88 51 -171 99 -183 107 l-23 14 0 -272z m480 -105 c0
-77 -4 -125 -10 -125 -12 0 -188 99 -195 110 -2 3 39 31 91 60 60 34 93 59 90
67 -3 7 1 13 9 13 12 0 15 -22 15 -125z"/>
<path d="M1530 365 c0 -146 3 -265 6 -265 4 0 110 59 235 132 195 112 226 133
211 143 -31 21 -441 255 -446 255 -4 0 -6 -119 -6 -265z"/>
</g>
</svg>
