<?xml version="1.0" standalone="no"?>
<!DOCTYPE svg PUBLIC "-//W3C//DTD SVG 20010904//EN"
 "http://www.w3.org/TR/2001/REC-SVG-20010904/DTD/svg10.dtd">
<svg version="1.0" xmlns="http://www.w3.org/2000/svg"
 width="256.000000pt" height="256.000000pt" viewBox="0 0 256.000000 256.000000"
 preserveAspectRatio="xMidYMid meet">

<g transform="translate(0.000000,256.000000) scale(0.100000,-0.100000)"
fill="#000000" stroke="none">
<path d="M1055 2225 c-34 -7 -83 -23 -110 -36 -64 -30 -174 -135 -224 -214
-36 -56 -44 -63 -87 -74 -166 -42 -302 -190 -320 -352 -7 -58 -8 -60 -70 -109
-163 -128 -208 -321 -116 -505 74 -151 191 -235 354 -257 75 -11 88 -15 101
-38 39 -64 120 -140 183 -171 76 -38 180 -49 263 -29 l52 12 50 -47 c98 -91
254 -139 436 -133 90 2 116 7 158 27 57 28 157 125 200 193 l29 46 81 12 c201
29 296 94 380 261 39 77 65 169 65 232 0 49 -31 160 -61 220 -18 35 -19 41 -4
89 8 28 15 82 15 118 0 144 -112 277 -268 319 -23 7 -42 17 -42 22 0 6 -17 48
-38 93 -46 98 -93 143 -200 194 -67 32 -88 37 -171 40 -52 3 -117 -1 -147 -7
l-53 -12 -68 45 c-109 73 -241 93 -388 61z m292 -119 c27 -15 62 -37 78 -50
l29 -23 -53 -67 c-51 -64 -60 -96 -27 -96 7 0 39 31 70 70 49 60 63 71 108 85
76 22 195 20 263 -6 88 -33 135 -74 172 -151 51 -106 51 -109 -5 -140 -56 -31
-87 -62 -77 -77 10 -18 32 -13 78 19 74 50 182 35 265 -36 60 -51 85 -111 80
-187 -3 -34 -10 -75 -17 -91 -11 -27 -12 -28 -36 -12 -34 23 -65 21 -65 -4 0
-11 4 -20 9 -20 25 0 100 -84 125 -140 51 -113 44 -211 -26 -342 -61 -115
-135 -162 -294 -188 -100 -17 -94 -21 -94 73 0 45 -4 98 -9 117 -5 23 -3 45 5
65 7 17 13 42 14 58 l0 27 79 0 c92 0 111 5 111 31 0 16 -10 19 -92 21 l-91 3
-13 55 c-34 150 -121 251 -242 282 -34 8 -43 16 -47 37 -3 14 -10 46 -17 71
-27 109 -19 154 42 223 44 50 48 62 23 71 -22 9 -109 -81 -118 -123 -4 -17 -9
-31 -12 -31 -2 0 -30 23 -61 50 -64 57 -131 86 -235 100 -86 12 -97 24 -97
101 0 57 -9 72 -37 61 -15 -5 -18 -119 -3 -142 7 -11 0 -18 -33 -30 l-42 -16
-56 38 c-55 37 -147 68 -202 68 l-28 0 23 41 c33 59 123 155 172 184 104 61
290 71 383 21z m-432 -324 c27 -13 57 -30 67 -39 17 -15 16 -19 -27 -64 -47
-50 -56 -76 -30 -85 10 -4 31 12 61 45 25 28 54 51 64 51 10 0 23 6 29 14 34
41 213 38 307 -4 66 -29 167 -133 187 -194 9 -27 17 -62 17 -76 0 -27 -2 -27
-74 -32 -82 -5 -179 -45 -229 -93 -52 -50 -8 -75 47 -27 52 45 134 72 220 72
147 0 238 -50 295 -163 30 -59 35 -80 39 -157 3 -50 1 -90 -3 -90 -4 0 -30 20
-57 45 -49 44 -80 56 -93 35 -4 -6 22 -38 58 -73 80 -78 93 -116 84 -258 -6
-91 -9 -103 -39 -146 -45 -66 -109 -128 -157 -152 -80 -41 -284 -23 -407 35
-50 24 -99 72 -139 138 -9 14 -16 14 -78 -9 -112 -41 -212 -30 -293 31 -19 15
-57 57 -82 93 -46 64 -47 67 -51 154 -5 148 25 216 126 280 24 15 43 33 40 40
-7 23 -39 19 -88 -12 -47 -29 -50 -29 -84 -16 -23 10 -71 15 -145 15 -101 0
-110 -2 -110 -19 0 -26 18 -31 120 -31 49 0 100 -5 113 -11 l24 -11 -20 -40
c-16 -31 -22 -68 -25 -151 l-5 -110 -59 6 c-96 9 -156 35 -219 97 -80 79 -114
154 -114 250 0 55 6 87 22 122 42 93 161 181 264 196 45 6 54 11 54 27 0 18
-6 20 -57 18 -57 -2 -58 -1 -58 26 0 46 28 125 59 168 39 54 91 92 154 115 74
26 222 21 292 -10z"/>
<path d="M1950 1433 c-26 -10 -50 -36 -50 -55 0 -22 27 -23 54 -3 12 9 42 15
72 15 52 0 67 10 56 38 -4 12 -101 16 -132 5z"/>
<path d="M749 1439 c-23 -14 1 -41 72 -77 53 -28 72 -33 112 -29 53 5 73 17
64 42 -6 13 -16 15 -56 9 -45 -6 -57 -3 -114 29 -43 23 -69 32 -78 26z"/>
<path d="M1128 1293 c-35 -39 -51 -98 -53 -187 l-2 -90 -48 -13 c-34 -10 -62
-29 -96 -64 -51 -52 -60 -75 -33 -86 10 -4 32 11 64 44 35 36 63 54 96 63 l46
13 34 -40 c63 -76 183 -133 280 -133 52 0 64 -16 64 -89 0 -53 12 -70 35 -51
17 15 20 95 5 135 -9 25 -6 31 40 72 51 46 61 69 35 79 -9 4 -35 -12 -65 -39
-57 -51 -91 -62 -158 -52 -98 15 -187 77 -228 161 -23 46 -26 64 -21 112 2 31
15 78 27 103 31 63 15 104 -22 62z"/>
</g>
</svg>
