<?xml version="1.0" standalone="no"?>
<!DOCTYPE svg PUBLIC "-//W3C//DTD SVG 20010904//EN"
 "http://www.w3.org/TR/2001/REC-SVG-20010904/DTD/svg10.dtd">
<svg version="1.0" xmlns="http://www.w3.org/2000/svg"
 width="256.000000pt" height="256.000000pt" viewBox="0 0 256.000000 256.000000"
 preserveAspectRatio="xMidYMid meet">

<g transform="translate(0.000000,256.000000) scale(0.100000,-0.100000)"
fill="#000000" stroke="none">
<path d="M955 2445 c-112 -30 -216 -72 -287 -118 -62 -39 -214 -166 -272 -226
l-39 -40 49 -45 c27 -25 53 -45 59 -46 5 0 32 22 60 49 165 159 303 241 477
283 109 26 105 21 92 122 -8 55 -10 55 -139 21z"/>
<path d="M1165 2329 c-37 -78 -89 -191 -115 -253 l-47 -111 -397 -39 c-218
-22 -396 -42 -396 -45 0 -3 79 -104 175 -225 96 -120 175 -225 175 -233 0 -16
-30 -87 -209 -486 -61 -136 -111 -250 -111 -252 0 -8 444 30 518 44 41 8 44 7
66 -23 13 -17 117 -161 231 -321 113 -160 210 -291 214 -293 4 -1 50 106 101
239 52 133 100 247 106 254 14 14 10 13 460 60 187 19 343 36 347 38 11 3
-197 311 -284 417 l-36 45 165 363 c90 199 163 364 161 367 -2 2 -125 -15
-273 -38 l-270 -41 -33 39 c-18 22 -129 173 -246 334 -117 162 -218 296 -223
298 -6 2 -41 -60 -79 -138z m245 -335 c78 -108 161 -220 185 -249 59 -72 91
-124 105 -172 11 -35 9 -46 -14 -106 -51 -127 -164 -362 -173 -362 -13 0 -163
184 -163 199 0 6 39 113 86 239 48 125 84 230 81 233 -3 4 -90 -1 -194 -10
-103 -9 -195 -16 -205 -16 -19 0 -18 4 19 130 21 72 120 310 128 310 2 0 67
-88 145 -196z m-455 -221 c-4 -21 -8 -39 -8 -40 -1 -1 -38 -6 -81 -12 -92 -13
-148 -41 -198 -101 l-33 -40 -67 85 c-38 46 -68 88 -68 93 0 5 93 18 208 29
285 28 256 30 247 -14z m1085 -91 c0 -11 -180 -405 -189 -415 -4 -4 -20 6 -36
23 l-28 29 34 83 c36 90 44 180 20 226 -7 13 -11 26 -9 28 4 3 158 29 196 33
6 0 12 -3 12 -7z m-740 -75 c0 -5 -101 -271 -104 -274 -1 -2 -111 -20 -245
-42 -133 -21 -244 -41 -247 -44 -3 -2 44 -76 105 -163 73 -105 106 -161 98
-165 -46 -25 -408 -81 -423 -66 -3 3 40 107 95 231 56 125 113 256 127 293 29
78 78 159 108 178 12 7 89 20 171 29 83 9 164 17 180 19 43 6 135 8 135 4z
m103 -614 c76 -95 142 -171 146 -168 4 2 43 80 86 172 43 92 80 170 82 172 9
12 163 -155 235 -254 l80 -110 -78 -8 c-44 -4 -178 -20 -299 -34 -417 -49
-393 -54 -503 95 -132 179 -195 273 -188 279 3 4 66 16 139 28 95 15 136 18
146 11 8 -6 77 -89 154 -183z m-334 -273 c66 -87 93 -106 174 -126 l64 -16
-35 -89 c-20 -49 -38 -89 -41 -89 -3 0 -66 84 -139 187 -131 185 -139 202 -92
203 8 0 39 -32 69 -70z"/>
<path d="M1435 2405 c-9 -36 -16 -67 -14 -69 2 -2 49 -21 104 -41 213 -80 313
-142 462 -288 l82 -80 55 42 c31 23 56 45 56 49 0 11 -184 189 -235 229 -59
46 -153 99 -247 139 -91 39 -215 84 -233 84 -7 0 -20 -29 -30 -65z"/>
<path d="M140 1649 c-70 -262 -76 -424 -23 -696 15 -82 16 -83 42 -76 101 25
116 31 113 44 -2 8 -13 75 -24 149 -27 181 -21 320 21 485 17 65 27 122 23
125 -9 8 -112 50 -122 50 -4 0 -18 -36 -30 -81z"/>
<path d="M2303 1636 c-34 -11 -64 -23 -67 -26 -3 -3 4 -39 14 -80 57 -219 60
-354 14 -523 -14 -51 -27 -101 -30 -112 -4 -16 5 -24 48 -42 81 -34 79 -35
104 40 66 192 75 368 30 580 -14 70 -32 141 -39 156 l-12 28 -62 -21z"/>
<path d="M381 599 c-30 -22 -57 -41 -59 -43 -7 -8 135 -151 206 -208 41 -32
110 -76 155 -97 93 -45 281 -110 329 -113 31 -3 32 -2 45 56 8 33 12 64 10 70
-3 6 -36 20 -73 30 -114 32 -263 92 -323 132 -31 20 -96 77 -145 126 -49 48
-89 88 -90 88 0 -1 -26 -19 -55 -41z"/>
<path d="M1995 533 c-178 -147 -318 -221 -508 -267 l-88 -21 6 -65 c4 -36 11
-69 15 -74 19 -20 274 60 400 125 70 36 234 153 325 233 l40 35 -50 50 c-27
28 -52 51 -55 51 -3 0 -41 -30 -85 -67z"/>
</g>
</svg>
