<?xml version="1.0" standalone="no"?>
<!DOCTYPE svg PUBLIC "-//W3C//DTD SVG 20010904//EN"
 "http://www.w3.org/TR/2001/REC-SVG-20010904/DTD/svg10.dtd">
<svg version="1.0" xmlns="http://www.w3.org/2000/svg"
 width="256.000000pt" height="256.000000pt" viewBox="0 0 256.000000 256.000000"
 preserveAspectRatio="xMidYMid meet">

<g transform="translate(0.000000,256.000000) scale(0.100000,-0.100000)"
fill="#000000" stroke="none">
<path d="M1074 2456 c-282 -131 -524 -770 -524 -1383 l0 -151 -87 -58 c-49
-33 -135 -106 -194 -164 -85 -84 -113 -120 -143 -180 -63 -130 -59 -225 16
-306 142 -154 510 -176 938 -57 210 58 472 176 641 289 l84 56 45 -17 c177
-69 247 -88 340 -93 109 -5 165 7 210 45 131 110 76 357 -144 651 -175 233
-472 490 -727 628 l-49 27 0 90 c0 175 -47 393 -106 495 -82 139 -183 183
-300 128z m154 -70 c92 -48 157 -197 181 -420 12 -107 14 -186 5 -186 -4 0
-45 15 -93 34 -156 62 -299 80 -398 51 -84 -25 -143 -107 -143 -201 0 -100 82
-295 184 -437 31 -43 56 -81 56 -85 0 -4 -46 -24 -103 -46 -56 -21 -138 -56
-181 -78 -43 -21 -81 -36 -83 -34 -12 12 -14 255 -4 366 54 559 293 1049 514
1050 21 0 50 -6 65 -14z m-8 -580 c47 -14 111 -36 143 -50 l58 -26 -6 -63
c-12 -125 -36 -284 -56 -369 -17 -71 -24 -88 -39 -88 -10 0 -71 -13 -135 -30
-65 -16 -122 -27 -127 -24 -24 15 -135 178 -174 257 -59 117 -81 211 -65 282
30 135 178 176 401 111z m390 -182 c495 -310 874 -816 786 -1049 -31 -80 -95
-115 -212 -115 -62 0 -218 35 -287 65 l-39 16 91 94 c137 144 191 272 161 380
-42 150 -249 234 -549 222 l-133 -5 6 36 c22 128 37 240 43 325 4 60 10 97 17
97 6 0 58 -30 116 -66z m260 -490 c72 -21 114 -48 139 -88 45 -72 17 -171 -79
-278 -57 -64 -177 -158 -201 -158 -29 0 -269 161 -394 265 -9 8 -3 39 28 132
l39 121 82 11 c44 6 95 13 111 15 56 8 221 -4 275 -20z m-574 -58 c-10 -41
-45 -116 -54 -116 -10 0 -97 88 -91 94 5 5 130 45 143 45 4 1 5 -10 2 -23z
m-123 -101 l58 -64 -27 -53 c-60 -121 -168 -244 -239 -274 -84 -35 -162 -4
-220 86 -21 34 -69 150 -63 155 51 44 382 212 423 214 6 1 36 -28 68 -64z
m217 -196 c41 -33 124 -93 183 -134 127 -86 134 -69 -63 -164 -141 -68 -319
-130 -472 -163 -84 -18 -135 -22 -273 -22 -153 0 -176 2 -227 22 -35 14 -70
38 -92 62 -32 35 -36 46 -36 93 0 34 8 67 23 95 24 47 90 129 123 155 22 16
22 15 49 -71 33 -107 73 -179 126 -226 49 -45 76 -56 137 -56 132 0 270 135
393 383 24 48 46 87 49 87 3 0 39 -28 80 -61z"/>
</g>
</svg>
