<?xml version="1.0" standalone="no"?>
<!DOCTYPE svg PUBLIC "-//W3C//DTD SVG 20010904//EN"
 "http://www.w3.org/TR/2001/REC-SVG-20010904/DTD/svg10.dtd">
<svg version="1.0" xmlns="http://www.w3.org/2000/svg"
 width="256.000000pt" height="256.000000pt" viewBox="0 0 256.000000 256.000000"
 preserveAspectRatio="xMidYMid meet">

<g transform="translate(0.000000,256.000000) scale(0.100000,-0.100000)"
fill="#000000" stroke="none">
<path d="M845 2241 l-410 -239 -3 -590 c-2 -508 -4 -591 -17 -602 -10 -9 -15
-32 -15 -76 l0 -63 40 -22 40 -23 0 -95 0 -96 134 -72 c73 -40 138 -73 145
-73 6 0 34 11 61 25 27 14 56 25 63 25 8 0 119 -58 247 -129 200 -111 236
-128 254 -119 12 6 87 47 169 90 l147 80 0 40 0 39 24 -27 23 -28 172 99 171
99 0 113 0 112 -32 17 -32 16 27 20 c26 19 27 24 27 106 0 83 2 90 35 139 30
45 35 60 35 112 0 57 -1 60 -35 80 l-35 20 0 90 0 89 30 7 c30 7 30 7 30 76
l0 69 -40 20 -40 20 -2 207 -3 208 -399 237 c-219 131 -399 238 -400 238 0 -1
-185 -108 -411 -239z m38 -815 c15 -9 17 -28 17 -142 l0 -132 176 -206 175
-206 42 24 c199 114 772 426 784 426 39 0 53 -20 53 -75 0 -52 -4 -60 -87
-180 -72 -103 -90 -122 -99 -110 -10 13 -18 6 -54 -41 -30 -41 -47 -54 -60
-51 -14 4 -30 -13 -69 -74 l-50 -78 -47 21 -48 21 -24 -31 c-21 -28 -26 -29
-59 -20 -22 6 -38 6 -42 0 -4 -5 -40 -5 -94 0 -57 6 -98 6 -116 0 -27 -9 -52
3 -305 150 l-276 160 0 72 c0 45 9 104 25 161 20 71 25 114 25 204 0 104 2
117 22 138 l21 23 36 -22 c20 -12 44 -27 54 -32z m997 -185 l0 -48 -60 -32
-60 -32 0 43 c1 40 4 45 53 80 29 20 55 37 60 38 4 0 7 -22 7 -49z m-247 -37
c16 -10 13 -15 -32 -43 l-51 -31 0 -59 0 -59 -46 -26 c-26 -14 -50 -26 -55
-26 -5 0 -9 52 -9 115 l0 114 53 34 52 35 35 -21 c19 -11 43 -26 53 -33z"/>
</g>
</svg>
