<?xml version="1.0" standalone="no"?>
<!DOCTYPE svg PUBLIC "-//W3C//DTD SVG 20010904//EN"
 "http://www.w3.org/TR/2001/REC-SVG-20010904/DTD/svg10.dtd">
<svg version="1.0" xmlns="http://www.w3.org/2000/svg"
 width="256.000000pt" height="256.000000pt" viewBox="0 0 256.000000 256.000000"
 preserveAspectRatio="xMidYMid meet">

<g transform="translate(0.000000,256.000000) scale(0.100000,-0.100000)"
fill="#000000" stroke="none">
<path d="M124 2407 c32 -355 240 -686 550 -878 328 -201 754 -224 1101 -59
346 165 589 489 650 865 8 49 15 102 15 118 l0 27 -199 0 -199 0 -6 -64 c-29
-269 -243 -526 -521 -623 -74 -26 -91 -28 -235 -28 -149 0 -159 1 -243 31
-183 66 -322 180 -420 346 -44 74 -85 197 -94 279 l-6 59 -200 0 -200 0 7 -73z"/>
<path d="M1230 2470 c-59 -12 -88 -28 -135 -71 -130 -120 -105 -334 51 -425
53 -31 147 -42 211 -25 93 25 178 127 190 228 20 173 -149 330 -317 293z"/>
<path d="M180 985 l0 -185 1100 0 1100 0 0 185 0 185 -1100 0 -1100 0 0 -185z"/>
<path d="M1197 606 c-164 -59 -233 -239 -149 -389 50 -90 155 -145 258 -134
124 13 226 113 241 236 22 187 -175 349 -350 287z"/>
</g>
</svg>
