<?xml version="1.0" standalone="no"?>
<!DOCTYPE svg PUBLIC "-//W3C//DTD SVG 20010904//EN"
 "http://www.w3.org/TR/2001/REC-SVG-20010904/DTD/svg10.dtd">
<svg version="1.0" xmlns="http://www.w3.org/2000/svg"
 width="256.000000pt" height="256.000000pt" viewBox="0 0 256.000000 256.000000"
 preserveAspectRatio="xMidYMid meet">

<g transform="translate(0.000000,256.000000) scale(0.100000,-0.100000)"
fill="#000000" stroke="none">
<path d="M560 2275 l0 -125 275 0 275 0 0 -530 0 -530 -25 -41 c-46 -72 -99
-113 -255 -196 -85 -46 -159 -84 -164 -86 -9 -3 100 -227 110 -227 9 0 182 93
290 156 108 63 195 151 254 257 l40 72 0 688 0 687 -400 0 -400 0 0 -125z"/>
<path d="M1680 1688 c0 -743 1 -727 -72 -878 -32 -67 -57 -101 -117 -160 -78
-78 -220 -179 -322 -231 l-58 -29 51 -112 c27 -62 52 -115 54 -117 6 -7 198
107 289 171 110 78 228 193 280 273 22 33 56 101 76 150 69 167 69 166 69 920
l0 675 -125 0 -125 0 0 -662z"/>
</g>
</svg>
