<?xml version="1.0" standalone="no"?>
<!DOCTYPE svg PUBLIC "-//W3C//DTD SVG 20010904//EN"
 "http://www.w3.org/TR/2001/REC-SVG-20010904/DTD/svg10.dtd">
<svg version="1.0" xmlns="http://www.w3.org/2000/svg"
 width="256.000000pt" height="256.000000pt" viewBox="0 0 256.000000 256.000000"
 preserveAspectRatio="xMidYMid meet">

<g transform="translate(0.000000,256.000000) scale(0.100000,-0.100000)"
fill="#000000" stroke="none">
<path d="M784 2302 c4 -9 68 -164 142 -343 116 -279 141 -332 174 -364 l38
-38 86 263 c47 144 86 266 86 270 0 4 -71 37 -157 73 -87 36 -207 86 -266 111
-86 36 -108 42 -103 28z"/>
<path d="M347 2041 l-187 -240 191 -446 191 -445 321 -315 c176 -174 321 -314
323 -312 6 5 -640 1997 -647 1997 -3 0 -90 -108 -192 -239z"/>
<path d="M1840 2183 c-146 -36 -267 -67 -269 -69 -6 -5 -191 -589 -191 -604 0
-11 101 -53 343 -143 188 -70 347 -127 352 -127 15 1 320 427 317 442 -8 36
-267 568 -276 567 -6 -1 -130 -31 -276 -66z"/>
<path d="M1113 1296 c3 -7 74 -224 157 -482 84 -258 155 -475 159 -481 4 -8
101 123 248 335 165 238 237 349 229 354 -13 7 -787 288 -794 288 -2 0 -2 -6
1 -14z"/>
</g>
</svg>
