<?xml version="1.0" standalone="no"?>
<!DOCTYPE svg PUBLIC "-//W3C//DTD SVG 20010904//EN"
 "http://www.w3.org/TR/2001/REC-SVG-20010904/DTD/svg10.dtd">
<svg version="1.0" xmlns="http://www.w3.org/2000/svg"
 width="256.000000pt" height="256.000000pt" viewBox="0 0 256.000000 256.000000"
 preserveAspectRatio="xMidYMid meet">

<g transform="translate(0.000000,256.000000) scale(0.100000,-0.100000)"
fill="#000000" stroke="none">
<path d="M160 1284 l0 -1116 153 4 c142 3 156 5 208 31 73 35 140 108 166 178
44 117 52 279 22 457 -10 58 -29 95 -29 56 0 -47 -84 -124 -136 -124 -16 0
-16 1 -1 18 29 32 49 93 42 129 -3 18 -7 33 -9 33 -2 0 -23 -11 -47 -24 -68
-38 -117 -43 -159 -14 -19 13 -36 32 -38 42 -2 11 0 16 7 12 18 -12 75 20 116
65 23 24 88 113 145 198 195 289 252 345 380 372 37 8 68 23 95 46 65 56 178
107 239 107 43 1 136 -27 136 -41 0 -1 -19 -20 -42 -41 -195 -174 -298 -357
-298 -529 0 -71 22 -122 134 -311 114 -194 138 -239 181 -351 45 -117 65 -223
67 -350 l1 -106 20 60 c13 41 21 98 24 180 6 133 -6 218 -56 396 -16 57 -28
105 -26 107 1 2 101 -132 220 -297 l217 -301 244 0 c134 0 244 3 244 8 0 4
-217 304 -481 667 l-481 660 44 40 c24 22 240 222 481 443 240 222 437 405
437 408 0 2 -132 4 -292 4 l-293 -1 -388 -353 c-396 -360 -437 -392 -538 -415
-24 -6 -104 -11 -176 -11 l-133 0 0 390 0 390 -200 0 -200 0 0 -1116z"/>
<path d="M948 1495 c-32 -21 -88 -97 -88 -118 0 -11 54 14 78 36 21 19 62 87
62 102 0 11 -16 4 -52 -20z"/>
</g>
</svg>
