<?xml version="1.0" standalone="no"?>
<!DOCTYPE svg PUBLIC "-//W3C//DTD SVG 20010904//EN"
 "http://www.w3.org/TR/2001/REC-SVG-20010904/DTD/svg10.dtd">
<svg version="1.0" xmlns="http://www.w3.org/2000/svg"
 width="256.000000pt" height="256.000000pt" viewBox="0 0 256.000000 256.000000"
 preserveAspectRatio="xMidYMid meet">

<g transform="translate(0.000000,256.000000) scale(0.100000,-0.100000)"
fill="#000000" stroke="none">
<path d="M240 1280 l0 -1200 210 0 210 0 0 1200 0 1200 -210 0 -210 0 0 -1200z"/>
<path d="M1349 1886 c-250 -327 -454 -600 -454 -606 0 -6 204 -279 454 -606
l455 -594 258 0 c142 0 258 2 258 6 0 3 -199 269 -442 592 -243 323 -442 594
-442 602 0 9 198 278 439 598 242 321 442 587 443 593 2 5 -98 9 -255 9 l-259
0 -455 -594z"/>
</g>
</svg>
