<?xml version="1.0" standalone="no"?>
<!DOCTYPE svg PUBLIC "-//W3C//DTD SVG 20010904//EN"
 "http://www.w3.org/TR/2001/REC-SVG-20010904/DTD/svg10.dtd">
<svg version="1.0" xmlns="http://www.w3.org/2000/svg"
 width="256.000000pt" height="256.000000pt" viewBox="0 0 256.000000 256.000000"
 preserveAspectRatio="xMidYMid meet">

<g transform="translate(0.000000,256.000000) scale(0.100000,-0.100000)"
fill="#000000" stroke="none">
<path d="M1515 2381 c-28 -13 -159 -141 -430 -422 l-390 -403 -5 266 -5 265
-29 37 c-53 69 -126 98 -197 77 -51 -15 -98 -56 -120 -106 -18 -38 -19 -84
-19 -815 0 -731 1 -777 19 -815 22 -50 69 -91 120 -106 71 -21 144 8 197 77
l29 37 5 266 5 265 393 -406 c408 -422 427 -438 506 -438 18 0 51 10 74 23 47
25 592 578 615 623 54 107 0 241 -110 274 -84 25 -103 13 -348 -231 -121 -120
-225 -219 -232 -219 -6 0 -30 21 -53 48 -24 26 -164 169 -312 319 -147 149
-268 277 -268 283 0 7 64 78 143 159 212 218 377 390 432 449 27 28 53 52 59
51 6 0 103 -96 216 -213 226 -236 262 -263 335 -252 56 9 116 53 140 102 24
50 24 129 1 173 -26 49 -569 602 -618 629 -50 27 -99 28 -153 3z"/>
<path d="M1550 1458 c-79 -22 -140 -100 -140 -178 0 -113 119 -208 225 -179
83 23 145 99 145 179 0 49 -32 113 -71 143 -28 21 -101 49 -119 46 -3 0 -21
-5 -40 -11z"/>
</g>
</svg>
