<?xml version="1.0" standalone="no"?>
<!DOCTYPE svg PUBLIC "-//W3C//DTD SVG 20010904//EN"
 "http://www.w3.org/TR/2001/REC-SVG-20010904/DTD/svg10.dtd">
<svg version="1.0" xmlns="http://www.w3.org/2000/svg"
 width="256.000000pt" height="256.000000pt" viewBox="0 0 256.000000 256.000000"
 preserveAspectRatio="xMidYMid meet">

<g transform="translate(0.000000,256.000000) scale(0.100000,-0.100000)"
fill="#000000" stroke="none">
<path d="M160 2085 l0 -235 115 0 115 0 0 -585 0 -585 -115 0 -115 0 0 -235 0
-235 515 0 515 0 0 235 0 235 -90 0 -90 0 0 195 0 195 68 0 67 0 163 -183 163
-182 -76 -3 -75 -3 0 -234 0 -235 530 0 530 0 0 235 0 235 -82 0 -83 1 -245
283 c-135 156 -245 288 -245 294 0 6 112 139 248 296 l248 286 79 0 79 0 5 43
c3 23 8 126 11 230 l6 187 -538 -2 -538 -3 0 -225 0 -225 78 -3 c43 -2 77 -6
75 -10 -2 -4 -75 -92 -163 -194 l-160 -187 -67 -1 -68 0 0 195 0 195 90 0 90
0 0 230 0 230 -125 0 -125 0 0 -90 0 -90 -70 0 -70 0 0 90 0 90 -125 0 -125 0
0 -90 0 -90 -70 0 -70 0 0 90 0 90 -130 0 -130 0 0 -235z"/>
</g>
</svg>
