<?xml version="1.0" standalone="no"?>
<!DOCTYPE svg PUBLIC "-//W3C//DTD SVG 20010904//EN"
 "http://www.w3.org/TR/2001/REC-SVG-20010904/DTD/svg10.dtd">
<svg version="1.0" xmlns="http://www.w3.org/2000/svg"
 width="256.000000pt" height="256.000000pt" viewBox="0 0 256.000000 256.000000"
 preserveAspectRatio="xMidYMid meet">

<g transform="translate(0.000000,256.000000) scale(0.100000,-0.100000)"
fill="#000000" stroke="none">
<path d="M1169 2470 c-41 -12 -77 -39 -99 -75 -20 -32 -20 -48 -20 -734 0
-659 -1 -702 -17 -707 -120 -40 -244 -149 -284 -249 -19 -50 -24 -78 -24 -165
0 -155 39 -254 134 -343 143 -134 355 -154 520 -48 185 119 268 359 186 539
-36 78 -139 176 -242 230 l-83 43 0 420 0 419 165 0 166 0 41 39 c51 47 57 94
18 137 -47 49 -68 54 -235 54 l-155 0 0 124 0 124 243 3 c212 4 246 6 270 22
40 26 37 73 -5 114 -70 65 -61 63 -318 62 -129 0 -247 -4 -261 -9z m76 -1729
c50 -22 109 -86 125 -136 7 -20 10 -63 8 -95 -14 -190 -237 -280 -385 -156
-96 81 -99 255 -5 344 65 61 177 80 257 43z"/>
</g>
</svg>
