<?xml version="1.0" standalone="no"?>
<!DOCTYPE svg PUBLIC "-//W3C//DTD SVG 20010904//EN"
 "http://www.w3.org/TR/2001/REC-SVG-20010904/DTD/svg10.dtd">
<svg version="1.0" xmlns="http://www.w3.org/2000/svg"
 width="256.000000pt" height="256.000000pt" viewBox="0 0 256.000000 256.000000"
 preserveAspectRatio="xMidYMid meet">

<g transform="translate(0.000000,256.000000) scale(0.100000,-0.100000)"
fill="#000000" stroke="none">
<path d="M658 2455 c-15 -20 -18 -46 -18 -164 l0 -139 130 -93 c72 -51 130
-95 129 -98 0 -3 -58 -50 -130 -104 l-129 -98 0 -316 0 -316 30 59 c21 42 48
73 92 110 35 28 323 232 641 454 l577 402 0 147 c-1 105 -4 151 -14 164 -12
15 -32 17 -171 17 l-157 0 -170 -120 -171 -120 -96 67 c-53 37 -129 91 -170
120 l-74 53 -141 0 c-137 -1 -141 -1 -158 -25z"/>
<path d="M1565 1776 c-98 -73 -180 -137 -181 -142 -2 -5 71 -60 162 -123 90
-63 164 -116 164 -117 0 -5 -389 -274 -405 -280 -10 -4 -75 33 -185 106 l-169
112 -50 -28 c-77 -42 -173 -125 -213 -185 -59 -90 -62 -82 78 -193 69 -54 123
-100 121 -103 -2 -2 -36 -27 -74 -56 -38 -28 -93 -73 -121 -99 l-52 -46 2
-269 3 -270 602 426 c331 234 631 447 667 473 l66 48 0 365 0 365 -105 70
c-58 39 -111 73 -118 75 -7 2 -93 -56 -192 -129z"/>
<path d="M1560 649 c-96 -72 -176 -134 -178 -138 -2 -7 0 -9 176 -138 l114
-83 126 0 c123 0 127 1 154 27 l28 27 0 140 -1 141 -109 78 c-59 42 -114 77
-122 76 -7 0 -92 -59 -188 -130z"/>
</g>
</svg>
