<?xml version="1.0" standalone="no"?>
<!DOCTYPE svg PUBLIC "-//W3C//DTD SVG 20010904//EN"
 "http://www.w3.org/TR/2001/REC-SVG-20010904/DTD/svg10.dtd">
<svg version="1.0" xmlns="http://www.w3.org/2000/svg"
 width="256.000000pt" height="256.000000pt" viewBox="0 0 256.000000 256.000000"
 preserveAspectRatio="xMidYMid meet">

<g transform="translate(0.000000,256.000000) scale(0.100000,-0.100000)"
fill="#000000" stroke="none">
<path d="M160 1280 l0 -1120 334 0 334 0 4 248 3 247 29 63 c49 105 136 163
280 183 91 12 162 5 226 -23 124 -53 173 -167 189 -440 9 -162 22 -202 79
-246 l35 -27 324 -3 323 -3 0 316 c0 341 -2 354 -54 389 -38 24 -132 46 -202
46 -169 0 -347 105 -410 243 -24 53 -28 74 -28 147 1 135 53 224 163 279 81
40 139 52 293 60 148 7 167 14 212 75 20 26 21 42 24 357 l3 329 -288 0 c-167
0 -304 -4 -325 -10 -49 -14 -94 -53 -120 -104 -18 -35 -22 -61 -23 -176 -3
-183 -31 -283 -105 -372 -84 -102 -278 -126 -434 -55 -75 35 -121 80 -158 155
l-33 67 -3 247 -4 248 -334 0 -334 0 0 -1120z"/>
</g>
</svg>
