<?xml version="1.0" standalone="no"?>
<!DOCTYPE svg PUBLIC "-//W3C//DTD SVG 20010904//EN"
 "http://www.w3.org/TR/2001/REC-SVG-20010904/DTD/svg10.dtd">
<svg version="1.0" xmlns="http://www.w3.org/2000/svg"
 width="256.000000pt" height="256.000000pt" viewBox="0 0 256.000000 256.000000"
 preserveAspectRatio="xMidYMid meet">

<g transform="translate(0.000000,256.000000) scale(0.100000,-0.100000)"
fill="#000000" stroke="none">
<path d="M1376 2378 c-34 -54 -496 -857 -496 -863 0 -3 57 -4 127 -3 l127 3
252 435 c139 239 253 438 253 443 1 4 -55 7 -124 7 -118 0 -125 -1 -139 -22z"/>
<path d="M1525 1964 c-137 -239 -251 -439 -253 -444 -2 -6 24 -10 60 -10 l63
0 31 -56 31 -56 257 446 256 446 -31 55 -31 55 -66 0 -67 0 -250 -436z"/>
<path d="M1784 1738 c-137 -238 -250 -440 -252 -448 -3 -16 107 -220 119 -220
7 0 503 856 507 876 3 12 -95 194 -117 217 -4 4 -120 -187 -257 -425z"/>
<path d="M712 1898 c-22 -28 -545 -942 -545 -953 0 -7 100 -186 223 -399 l223
-386 455 2 454 3 419 725 418 725 -22 40 c-55 96 -102 175 -107 175 -3 0 -192
-325 -421 -723 l-416 -722 -325 -3 -326 -2 -161 280 c-89 154 -161 282 -161
284 0 3 124 219 275 481 151 262 275 479 275 481 0 2 -56 4 -124 4 -87 0 -127
-4 -134 -12z"/>
<path d="M685 1183 c-66 -113 -124 -214 -128 -223 -6 -12 25 -76 119 -238
l128 -222 262 0 261 0 127 218 c69 121 126 223 126 227 0 4 -57 106 -127 227
l-126 218 -261 0 -261 0 -120 -207z"/>
</g>
</svg>
