<?xml version="1.0" standalone="no"?>
<!DOCTYPE svg PUBLIC "-//W3C//DTD SVG 20010904//EN"
 "http://www.w3.org/TR/2001/REC-SVG-20010904/DTD/svg10.dtd">
<svg version="1.0" xmlns="http://www.w3.org/2000/svg"
 width="256.000000pt" height="256.000000pt" viewBox="0 0 256.000000 256.000000"
 preserveAspectRatio="xMidYMid meet">

<g transform="translate(0.000000,256.000000) scale(0.100000,-0.100000)"
fill="#000000" stroke="none">
<path d="M1309 2453 c-125 -329 -609 -1614 -609 -1618 0 -4 194 191 432 432
238 241 543 550 678 686 143 145 241 251 234 255 -5 4 -39 28 -75 54 -135 98
-324 174 -502 203 -132 21 -145 20 -158 -12z"/>
<path d="M540 1795 l-463 -463 6 -114 c14 -235 94 -462 225 -641 39 -53 46
-59 53 -42 187 491 649 1719 646 1721 -1 2 -212 -205 -467 -461z"/>
<path d="M1820 1668 c-206 -209 -377 -385 -379 -390 -2 -6 167 -181 375 -389
429 -429 379 -398 457 -281 125 187 191 384 203 608 12 204 -25 391 -117 583
-43 91 -145 251 -159 250 -3 0 -174 -171 -380 -381z"/>
<path d="M906 739 c-207 -210 -376 -385 -376 -390 0 -13 134 -101 217 -143
175 -87 317 -119 533 -119 175 0 243 10 386 58 123 41 290 133 362 198 l23 21
-378 378 c-208 208 -381 378 -384 378 -4 0 -176 -171 -383 -381z"/>
</g>
</svg>
