<?xml version="1.0" standalone="no"?>
<!DOCTYPE svg PUBLIC "-//W3C//DTD SVG 20010904//EN"
 "http://www.w3.org/TR/2001/REC-SVG-20010904/DTD/svg10.dtd">
<svg version="1.0" xmlns="http://www.w3.org/2000/svg"
 width="256.000000pt" height="256.000000pt" viewBox="0 0 256.000000 256.000000"
 preserveAspectRatio="xMidYMid meet">

<g transform="translate(0.000000,256.000000) scale(0.100000,-0.100000)"
fill="#000000" stroke="none">
<path d="M160 1275 l0 -1115 223 2 222 3 2 890 3 890 -222 223 c-122 122 -223
222 -225 222 -2 0 -3 -502 -3 -1115z"/>
<path d="M1050 832 l0 -672 225 0 225 0 0 448 0 447 -225 225 -225 225 0 -673z"/>
<path d="M2157 1049 l-217 -221 0 -334 0 -334 225 0 225 0 0 555 c0 305 -4
555 -8 555 -4 0 -106 -99 -225 -221z"/>
</g>
</svg>
