<?xml version="1.0" standalone="no"?>
<!DOCTYPE svg PUBLIC "-//W3C//DTD SVG 20010904//EN"
 "http://www.w3.org/TR/2001/REC-SVG-20010904/DTD/svg10.dtd">
<svg version="1.0" xmlns="http://www.w3.org/2000/svg"
 width="256.000000pt" height="256.000000pt" viewBox="0 0 256.000000 256.000000"
 preserveAspectRatio="xMidYMid meet">

<g transform="translate(0.000000,256.000000) scale(0.100000,-0.100000)"
fill="#000000" stroke="none">
<path d="M1125 2469 c-103 -14 -249 -53 -342 -92 -114 -48 -212 -116 -319
-222 -157 -155 -261 -316 -323 -501 -168 -500 31 -1088 464 -1370 288 -188
707 -252 1031 -158 183 53 325 136 470 276 180 174 287 380 345 662 37 183 36
422 -3 503 -30 63 -116 90 -179 58 -61 -32 -69 -61 -62 -229 8 -226 -29 -404
-123 -586 -81 -158 -206 -282 -370 -367 -138 -72 -212 -88 -404 -88 -180 1
-249 14 -412 76 -268 104 -475 366 -533 674 -23 121 -16 318 15 425 47 163
143 313 289 452 97 93 179 141 306 181 153 48 287 56 537 31 54 -5 58 -4 93
28 32 29 38 42 42 84 5 59 -19 104 -68 130 -75 38 -287 54 -454 33z"/>
<path d="M1962 2197 c-19 -6 -54 -29 -78 -51 -42 -39 -46 -46 -61 -126 -28
-154 -31 -162 -87 -216 -29 -28 -78 -63 -109 -78 -51 -26 -64 -28 -124 -22
-256 24 -318 19 -427 -36 -182 -92 -268 -275 -225 -480 46 -219 219 -346 458
-336 80 3 106 8 152 30 111 55 197 157 240 285 20 61 21 76 13 172 -14 176
-11 250 15 299 57 111 161 182 264 182 72 0 117 20 161 72 48 55 61 115 41
182 -33 112 -122 159 -233 123z"/>
</g>
</svg>
