<?xml version="1.0" standalone="no"?>
<!DOCTYPE svg PUBLIC "-//W3C//DTD SVG 20010904//EN"
 "http://www.w3.org/TR/2001/REC-SVG-20010904/DTD/svg10.dtd">
<svg version="1.0" xmlns="http://www.w3.org/2000/svg"
 width="256.000000pt" height="256.000000pt" viewBox="0 0 256.000000 256.000000"
 preserveAspectRatio="xMidYMid meet">

<g transform="translate(0.000000,256.000000) scale(0.100000,-0.100000)"
fill="#000000" stroke="none">
<path d="M1319 2463 c-10 -11 -58 -207 -123 -503 -59 -267 -109 -491 -112
-499 -3 -9 1 -11 13 -7 22 9 823 450 876 483 71 44 70 46 -280 303 -175 129
-327 235 -338 238 -12 2 -28 -5 -36 -15z"/>
<path d="M764 2219 c-159 -121 -305 -236 -324 -255 l-35 -34 -3 -620 c-2 -531
0 -624 12 -649 13 -23 538 -438 626 -493 36 -23 70 -8 70 30 0 15 -51 269
-113 564 l-114 536 112 524 c62 287 115 537 119 554 8 35 -12 64 -44 64 -10 0
-148 -99 -306 -221z"/>
<path d="M1573 1543 c-249 -142 -452 -260 -452 -263 0 -9 904 -520 920 -520
38 0 39 9 39 520 0 512 -1 520 -40 520 -8 0 -219 -116 -467 -257z"/>
<path d="M1095 1053 c7 -32 57 -256 111 -498 56 -253 104 -448 113 -458 9 -10
24 -17 36 -14 11 2 163 109 338 237 350 258 350 258 280 304 -56 36 -874 486
-883 486 -5 0 -2 -26 5 -57z"/>
</g>
</svg>
