<?xml version="1.0" standalone="no"?>
<!DOCTYPE svg PUBLIC "-//W3C//DTD SVG 20010904//EN"
 "http://www.w3.org/TR/2001/REC-SVG-20010904/DTD/svg10.dtd">
<svg version="1.0" xmlns="http://www.w3.org/2000/svg"
 width="256.000000pt" height="256.000000pt" viewBox="0 0 256.000000 256.000000"
 preserveAspectRatio="xMidYMid meet">

<g transform="translate(0.000000,256.000000) scale(0.100000,-0.100000)"
fill="#000000" stroke="none">
<path d="M1404 2442 c-72 -57 -161 -150 -204 -212 -100 -146 -119 -223 -130
-525 -5 -126 -9 -322 -10 -435 -1 -251 -11 -334 -50 -417 -51 -110 -181 -222
-381 -329 -117 -63 -192 -119 -270 -200 -55 -59 -121 -150 -153 -211 l-17 -33
42 0 c38 0 46 5 100 64 101 110 244 168 414 169 172 0 297 -43 501 -173 24
-15 -2 -33 295 201 l137 108 21 -51 c33 -79 107 -175 173 -224 33 -24 64 -44
69 -44 5 0 109 79 231 176 l223 177 3 43 c2 24 0 44 -3 44 -4 0 -48 -32 -98
-70 -50 -39 -97 -70 -104 -70 -19 0 -100 107 -134 178 -17 35 -52 151 -79 259
-38 150 -60 217 -95 289 -77 155 -219 289 -367 347 -32 12 -58 26 -58 30 0 4
85 106 188 225 188 216 189 217 243 230 127 29 234 114 291 230 27 54 33 79
36 153 4 88 4 89 -19 89 -18 -1 -29 -12 -45 -43 -70 -143 -270 -163 -429 -42
-26 20 -51 33 -55 28 -4 -4 -78 -93 -165 -198 -87 -104 -165 -198 -173 -208
-14 -16 -14 -20 7 -40 l22 -22 21 25 c11 14 35 42 54 62 l33 37 64 -30 c35
-16 94 -36 131 -44 38 -7 70 -16 73 -18 5 -5 -572 -680 -585 -685 -10 -3 -4
460 8 584 19 205 106 357 293 510 l48 39 -24 33 -25 33 -48 -39z m-81 -1265
c32 -17 80 -54 107 -84 93 -102 142 -213 195 -443 34 -144 34 -145 14 -166
-44 -47 -60 -49 -120 -8 -139 95 -305 146 -481 148 l-107 1 59 59 c106 106
149 223 150 400 0 83 2 92 26 117 23 24 29 26 62 17 21 -5 63 -24 95 -41z"/>
<path d="M577 2440 c-133 -34 -261 -156 -386 -369 l-30 -51 32 0 c27 0 35 6
52 37 45 84 134 101 303 59 157 -39 199 -40 307 -10 12 3 1 -10 -25 -33 -86
-72 -162 -148 -190 -188 -40 -59 -70 -150 -78 -235 l-7 -75 -64 -7 c-77 -9
-159 -47 -199 -93 -70 -79 -96 -239 -58 -352 16 -48 20 -53 47 -53 27 0 29 3
29 38 0 20 9 51 20 69 29 48 67 63 156 63 l77 0 -6 -197 c-4 -158 -9 -210 -25
-260 -22 -70 -78 -152 -116 -173 -79 -42 27 -40 124 3 149 65 300 189 350 286
44 87 50 151 50 556 0 216 5 408 11 445 25 157 103 305 226 428 40 40 73 80
73 87 0 19 -2 19 -43 -5 -49 -29 -169 -52 -226 -44 -25 4 -95 22 -154 40 -121
38 -194 48 -250 34z"/>
</g>
</svg>
