<?xml version="1.0" standalone="no"?>
<!DOCTYPE svg PUBLIC "-//W3C//DTD SVG 20010904//EN"
 "http://www.w3.org/TR/2001/REC-SVG-20010904/DTD/svg10.dtd">
<svg version="1.0" xmlns="http://www.w3.org/2000/svg"
 width="256.000000pt" height="256.000000pt" viewBox="0 0 256.000000 256.000000"
 preserveAspectRatio="xMidYMid meet">

<g transform="translate(0.000000,256.000000) scale(0.100000,-0.100000)"
fill="#000000" stroke="none">
<path d="M2054 1966 c-39 -20 -113 -72 -164 -117 -77 -67 -119 -93 -235 -149
-84 -41 -265 -148 -450 -265 -170 -109 -354 -225 -407 -259 -53 -33 -94 -63
-92 -65 2 -3 33 -7 68 -10 l65 -6 -359 -185 c-315 -162 -356 -186 -329 -190
l31 -5 -47 -34 c-44 -32 -47 -35 -28 -44 13 -6 42 -4 79 4 33 7 64 12 71 10 7
-1 70 19 140 45 421 153 755 235 869 214 l39 -7 -28 -11 c-16 -7 -34 -13 -40
-13 -25 -3 50 -17 95 -18 43 -1 48 -4 54 -28 13 -55 54 -111 116 -156 35 -26
69 -56 76 -68 13 -20 11 -24 -15 -45 l-28 -24 55 6 c30 3 61 7 68 10 7 2 45
-1 84 -6 39 -6 73 -8 76 -6 2 3 -29 20 -69 39 -57 26 -88 49 -135 99 -73 78
-91 130 -73 203 15 61 47 87 215 175 165 86 213 117 277 179 56 53 80 97 137
246 23 59 49 124 60 144 29 57 89 108 164 139 38 15 71 32 72 38 4 12 -154
143 -202 167 -20 10 -59 21 -88 24 -44 4 -60 0 -122 -31z"/>
</g>
</svg>
