<?xml version="1.0" standalone="no"?>
<!DOCTYPE svg PUBLIC "-//W3C//DTD SVG 20010904//EN"
 "http://www.w3.org/TR/2001/REC-SVG-20010904/DTD/svg10.dtd">
<svg version="1.0" xmlns="http://www.w3.org/2000/svg"
 width="256.000000pt" height="256.000000pt" viewBox="0 0 256.000000 256.000000"
 preserveAspectRatio="xMidYMid meet">

<g transform="translate(0.000000,256.000000) scale(0.100000,-0.100000)"
fill="#000000" stroke="none">
<path d="M1542 2362 c-111 -140 -240 -385 -302 -569 -68 -204 -84 -301 -84
-513 0 -211 16 -309 84 -511 60 -180 194 -435 302 -571 l29 -38 61 43 c33 23
62 48 65 54 3 7 -9 30 -25 51 -143 180 -285 505 -327 747 -20 116 -20 334 0
450 42 242 184 567 327 747 16 21 28 44 25 51 -3 6 -32 31 -65 54 l-61 43 -29
-38z"/>
<path d="M800 1280 l0 -560 85 0 85 0 0 560 0 560 -85 0 -85 0 0 -560z"/>
</g>
</svg>
