<?xml version="1.0" standalone="no"?>
<!DOCTYPE svg PUBLIC "-//W3C//DTD SVG 20010904//EN"
 "http://www.w3.org/TR/2001/REC-SVG-20010904/DTD/svg10.dtd">
<svg version="1.0" xmlns="http://www.w3.org/2000/svg"
 width="256.000000pt" height="256.000000pt" viewBox="0 0 256.000000 256.000000"
 preserveAspectRatio="xMidYMid meet">

<g transform="translate(0.000000,256.000000) scale(0.100000,-0.100000)"
fill="#000000" stroke="none">
<path d="M530 1280 c-198 -396 -360 -724 -360 -730 0 -7 206 -10 603 -10 l602
0 93 150 94 150 181 -2 181 -3 36 -145 35 -145 194 -3 c107 -1 198 1 202 5 4
5 -52 332 -124 728 l-132 720 -260 3 -260 2 -209 -580 -209 -580 -244 0 c-133
0 -243 2 -243 4 0 2 106 255 236 562 130 307 239 567 241 577 5 16 -7 17 -146
17 l-151 0 -360 -720z m1323 78 c21 -106 38 -196 37 -200 0 -5 -61 -8 -136 -8
-75 0 -134 4 -132 8 19 51 183 392 188 392 3 0 23 -87 43 -192z"/>
</g>
</svg>
