<?xml version="1.0" standalone="no"?>
<!DOCTYPE svg PUBLIC "-//W3C//DTD SVG 20010904//EN"
 "http://www.w3.org/TR/2001/REC-SVG-20010904/DTD/svg10.dtd">
<svg version="1.0" xmlns="http://www.w3.org/2000/svg"
 width="256.000000pt" height="256.000000pt" viewBox="0 0 256.000000 256.000000"
 preserveAspectRatio="xMidYMid meet">

<g transform="translate(0.000000,256.000000) scale(0.100000,-0.100000)"
fill="#000000" stroke="none">
<path d="M2072 2248 l3 -153 153 -3 152 -3 0 156 0 155 -155 0 -156 0 3 -152z"/>
<path d="M605 2071 c-52 -24 -88 -58 -117 -112 l-23 -44 -3 -587 -3 -588 130
0 131 0 2 548 3 547 540 2 540 2 3 126 3 125 -583 0 c-545 0 -586 -2 -623 -19z"/>
<path d="M1818 1273 l-3 -548 -540 -2 -540 -2 -3 -126 -3 -125 581 0 c640 0
620 -2 689 63 73 70 71 44 71 700 l0 587 -125 0 -125 0 -2 -547z"/>
<path d="M1000 1555 c0 -3 0 -128 -1 -277 l0 -273 271 -3 270 -2 0 280 0 280
-270 0 c-148 0 -270 -2 -270 -5z"/>
<path d="M160 315 l0 -155 150 0 150 0 0 155 0 155 -150 0 -150 0 0 -155z"/>
</g>
</svg>
