<?xml version="1.0" standalone="no"?>
<!DOCTYPE svg PUBLIC "-//W3C//DTD SVG 20010904//EN"
 "http://www.w3.org/TR/2001/REC-SVG-20010904/DTD/svg10.dtd">
<svg version="1.0" xmlns="http://www.w3.org/2000/svg"
 width="256.000000pt" height="256.000000pt" viewBox="0 0 256.000000 256.000000"
 preserveAspectRatio="xMidYMid meet">

<g transform="translate(0.000000,256.000000) scale(0.100000,-0.100000)"
fill="#000000" stroke="none">
<path d="M125 2045 c22 -19 58 -40 79 -46 22 -6 64 -24 94 -40 30 -16 62 -29
72 -29 9 0 27 -11 40 -25 15 -16 34 -25 55 -25 21 0 39 -8 53 -25 12 -14 33
-25 46 -25 13 0 29 -7 36 -15 7 -8 27 -17 46 -21 18 -3 38 -12 45 -20 6 -8 21
-14 33 -14 12 0 37 -9 56 -20 19 -11 71 -38 115 -61 161 -83 169 -88 152 -95
-9 -3 -15 -10 -12 -14 3 -4 -11 -17 -30 -29 -19 -11 -35 -25 -35 -31 0 -6 -27
-10 -65 -10 l-65 0 0 -282 c0 -307 7 -359 57 -466 41 -89 157 -199 265 -252
85 -42 89 -43 130 -31 116 34 267 158 325 267 57 108 63 151 63 473 l0 291
-125 0 c-72 0 -125 4 -125 9 0 25 43 81 62 81 11 0 46 16 78 35 32 19 62 35
68 35 6 0 37 16 69 35 32 19 67 35 78 35 11 0 37 11 57 25 20 14 43 25 50 25
7 0 28 9 46 20 18 11 37 20 43 20 6 0 23 8 37 19 15 10 39 21 53 24 14 4 42
18 63 32 20 14 42 25 48 25 5 0 32 16 58 35 26 19 55 35 63 35 9 0 51 19 94
43 l78 42 -85 3 c-47 2 -245 2 -440 0 -406 -3 -394 -1 -484 -91 -51 -52 -137
-97 -184 -97 -39 0 -119 49 -160 98 -73 87 -66 86 -587 89 l-450 3 40 -35z
m1561 -177 c4 -4 1 -14 -6 -23 -8 -10 -33 -16 -79 -17 -53 -1 -57 -2 -21 -5
25 -3 49 -8 54 -13 4 -4 21 -4 36 1 15 6 52 9 81 7 48 -3 54 -6 57 -27 3 -20
1 -22 -15 -15 -10 4 -54 9 -98 10 l-80 2 82 -7 c46 -4 88 -12 95 -19 9 -9 -17
-12 -123 -12 -118 0 -137 -3 -159 -20 -34 -26 -80 -26 -87 0 -3 11 -12 20 -19
20 -16 0 -19 16 -4 25 5 3 7 12 4 19 -3 8 -1 17 5 21 24 14 8 25 -38 25 -47 0
-80 18 -63 34 9 10 368 3 378 -6z m-228 -220 c18 -18 15 -23 -28 -52 -37 -24
-110 -37 -110 -18 0 7 110 82 121 82 3 0 10 -5 17 -12z m-247 -18 c30 -16 23
-29 -27 -52 -36 -15 -54 -18 -78 -11 l-30 9 54 31 c65 38 57 35 81 23z m-61
-705 l0 -286 -30 16 c-76 40 -148 151 -170 264 -5 30 -10 107 -10 172 l0 119
105 0 105 0 0 -285z m208 -6 l-3 -291 -49 -20 -49 -19 -46 23 -46 23 -3 275
c-1 151 0 280 3 287 3 9 32 13 100 13 l95 0 -2 -291z m230 221 c5 -91 -14
-240 -38 -301 -29 -74 -74 -134 -125 -169 l-45 -31 0 286 0 286 103 -3 102 -3
3 -65z"/>
</g>
</svg>
