<?xml version="1.0" standalone="no"?>
<!DOCTYPE svg PUBLIC "-//W3C//DTD SVG 20010904//EN"
 "http://www.w3.org/TR/2001/REC-SVG-20010904/DTD/svg10.dtd">
<svg version="1.0" xmlns="http://www.w3.org/2000/svg"
 width="256.000000pt" height="256.000000pt" viewBox="0 0 256.000000 256.000000"
 preserveAspectRatio="xMidYMid meet">

<g transform="translate(0.000000,256.000000) scale(0.100000,-0.100000)"
fill="#000000" stroke="none">
<path d="M680 2222 l0 -167 303 -303 303 -302 292 293 292 294 0 179 0 179
-118 -120 c-65 -66 -196 -202 -292 -303 l-175 -182 -300 300 c-164 165 -301
300 -302 300 -2 0 -3 -75 -3 -168z"/>
<path d="M285 1762 c66 -65 202 -197 303 -293 l182 -174 -300 -300 c-165 -164
-300 -300 -300 -302 0 -2 75 -3 168 -3 l167 0 303 303 303 303 -295 292 -294
292 -179 0 -178 0 120 -118z"/>
<path d="M1744 1568 l-295 -292 303 -303 303 -303 167 0 c93 0 168 2 168 3 0
2 -135 138 -300 303 l-300 298 182 175 c101 96 237 228 303 293 l120 118 -178
0 -179 0 -294 -292z"/>
<path d="M973 808 l-303 -303 0 -168 c0 -92 2 -167 3 -167 2 0 138 135 303
300 l298 300 175 -182 c96 -101 228 -237 293 -303 l118 -120 0 178 0 179 -292
294 -293 295 -302 -303z"/>
</g>
</svg>
