<?xml version="1.0" standalone="no"?>
<!DOCTYPE svg PUBLIC "-//W3C//DTD SVG 20010904//EN"
 "http://www.w3.org/TR/2001/REC-SVG-20010904/DTD/svg10.dtd">
<svg version="1.0" xmlns="http://www.w3.org/2000/svg"
 width="256.000000pt" height="256.000000pt" viewBox="0 0 256.000000 256.000000"
 preserveAspectRatio="xMidYMid meet">

<g transform="translate(0.000000,256.000000) scale(0.100000,-0.100000)"
fill="#000000" stroke="none">
<path d="M942 2017 c-166 -249 -302 -457 -302 -462 0 -6 138 -87 306 -181
l306 -171 137 77 c75 42 214 120 308 174 l172 97 -306 459 c-168 253 -309 460
-313 460 -4 0 -143 -204 -308 -453z m506 -109 c104 -156 191 -288 195 -294 3
-6 -75 -56 -193 -122 l-198 -112 -189 106 c-103 58 -192 110 -197 115 -10 9
370 589 385 589 5 0 94 -127 197 -282z"/>
<path d="M526 1377 c-91 -154 -121 -269 -120 -452 1 -121 4 -152 28 -228 87
-290 293 -495 583 -583 77 -24 106 -27 228 -28 165 0 233 14 370 79 252 118
427 347 475 621 21 117 9 289 -27 401 -32 97 -96 221 -118 230 -8 2 -153 -71
-322 -165 -169 -93 -323 -177 -341 -186 l-33 -17 -337 186 c-186 102 -343 185
-350 185 -6 0 -22 -19 -36 -43z"/>
</g>
</svg>
