<?xml version="1.0" standalone="no"?>
<!DOCTYPE svg PUBLIC "-//W3C//DTD SVG 20010904//EN"
 "http://www.w3.org/TR/2001/REC-SVG-20010904/DTD/svg10.dtd">
<svg version="1.0" xmlns="http://www.w3.org/2000/svg"
 width="256.000000pt" height="256.000000pt" viewBox="0 0 256.000000 256.000000"
 preserveAspectRatio="xMidYMid meet">

<g transform="translate(0.000000,256.000000) scale(0.100000,-0.100000)"
fill="#000000" stroke="none">
<path d="M1160 2410 c-69 -38 -126 -73 -127 -77 -2 -5 20 -20 48 -36 l50 -27
77 41 78 42 247 -144 247 -144 0 -247 0 -248 -145 0 -145 0 0 -135 c0 -102 3
-135 13 -134 6 0 98 35 202 78 l190 78 3 331 2 332 -37 24 c-49 31 -570 336
-575 336 -1 0 -59 -32 -128 -70z"/>
<path d="M780 2234 c-41 -25 -172 -105 -290 -177 -118 -72 -223 -137 -232
-145 -16 -13 -18 -36 -18 -199 l0 -183 54 0 53 0 7 38 c3 20 6 91 6 158 l0
121 248 151 c137 84 254 152 260 152 7 0 99 -49 206 -110 106 -60 198 -110
203 -110 11 0 60 87 53 93 -20 16 -456 257 -464 257 -7 0 -45 -21 -86 -46z"/>
<path d="M2080 1990 c-17 -22 -30 -44 -28 -49 1 -5 48 -47 103 -93 l100 -84 3
-250 c2 -229 1 -252 -15 -266 -10 -8 -106 -70 -213 -138 -107 -67 -201 -128
-208 -135 -12 -10 -9 -20 13 -55 18 -28 31 -40 42 -36 8 4 125 74 259 158
l244 151 0 311 0 311 -112 90 c-62 50 -122 98 -134 108 -22 17 -23 16 -54 -23z"/>
<path d="M480 1446 l-235 -123 -3 -310 -2 -310 130 -91 c72 -51 134 -92 138
-92 7 0 62 74 62 84 0 2 -50 40 -111 83 l-112 78 7 155 c3 85 6 198 6 250 l0
96 191 93 191 94 177 -76 c98 -43 181 -77 184 -77 4 0 7 61 7 135 l0 135 -197
0 -198 -1 -235 -123z"/>
<path d="M970 1123 c47 -48 87 -90 90 -93 3 -3 40 -42 83 -87 l79 -80 -1 -156
-2 -156 203 -155 c112 -86 208 -156 213 -156 10 1 589 410 612 433 8 8 13 60
14 152 l2 140 -62 3 -62 3 2 -118 2 -118 -253 -182 -253 -182 -126 96 c-191
146 -171 115 -171 268 l0 131 46 44 c25 25 100 102 166 173 l120 127 -393 0
-394 0 85 -87z"/>
<path d="M687 954 c-4 -4 -7 -134 -7 -289 l0 -282 299 -152 299 -151 103 42
c57 22 106 43 108 44 3 3 -27 93 -34 102 -2 2 -41 -12 -87 -31 l-85 -34 -239
121 -239 121 -5 255 -5 255 -50 3 c-28 2 -54 0 -58 -4z"/>
</g>
</svg>
