<?xml version="1.0" standalone="no"?>
<!DOCTYPE svg PUBLIC "-//W3C//DTD SVG 20010904//EN"
 "http://www.w3.org/TR/2001/REC-SVG-20010904/DTD/svg10.dtd">
<svg version="1.0" xmlns="http://www.w3.org/2000/svg"
 width="256.000000pt" height="256.000000pt" viewBox="0 0 256.000000 256.000000"
 preserveAspectRatio="xMidYMid meet">

<g transform="translate(0.000000,256.000000) scale(0.100000,-0.100000)"
fill="#000000" stroke="none">
<path d="M1283 2308 c-21 -26 -1193 -2059 -1193 -2068 0 -7 160 -9 462 -8
l463 3 572 1015 c314 558 579 1027 588 1043 l16 27 -449 0 c-348 0 -452 -3
-459 -12z m736 -128 c-27 -50 -167 -194 -866 -886 -458 -455 -835 -825 -837
-823 -2 2 226 401 507 887 l511 882 359 0 358 0 -32 -60z"/>
<path d="M1600 764 c-157 -278 -286 -512 -288 -520 -3 -12 75 -14 578 -14 506
0 581 2 578 15 -4 19 -572 1025 -578 1025 -3 -1 -133 -228 -290 -506z m589
-178 c83 -147 151 -270 151 -272 0 -3 -57 -3 -127 -2 l-127 3 -27 230 c-15
127 -30 253 -34 280 -4 32 -3 46 3 40 5 -5 78 -131 161 -279z"/>
</g>
</svg>
