<?xml version="1.0" standalone="no"?>
<!DOCTYPE svg PUBLIC "-//W3C//DTD SVG 20010904//EN"
 "http://www.w3.org/TR/2001/REC-SVG-20010904/DTD/svg10.dtd">
<svg version="1.0" xmlns="http://www.w3.org/2000/svg"
 width="256.000000pt" height="256.000000pt" viewBox="0 0 256.000000 256.000000"
 preserveAspectRatio="xMidYMid meet">

<g transform="translate(0.000000,256.000000) scale(0.100000,-0.100000)"
fill="#000000" stroke="none">
<path d="M668 1933 c-420 -421 -633 -642 -647 -670 -28 -56 -31 -245 -5 -296
23 -45 79 -112 115 -138 l31 -22 690 689 c505 505 696 702 716 739 36 67 37
181 3 268 l-22 57 -127 0 -127 0 -627 -627z"/>
<path d="M1208 1513 c-666 -668 -697 -701 -718 -758 -34 -91 -32 -184 4 -259
25 -52 125 -166 144 -166 4 0 321 312 704 693 674 669 697 694 718 752 45 123
9 269 -94 383 -26 28 -51 52 -55 52 -3 0 -320 -314 -703 -697z"/>
<path d="M1698 1038 c-563 -561 -701 -703 -720 -743 -19 -42 -23 -66 -23 -145
0 -52 6 -107 12 -122 l13 -28 152 0 153 0 616 618 c699 700 665 659 657 807
-6 100 -38 173 -112 251 l-51 55 -697 -693z"/>
</g>
</svg>
