<?xml version="1.0" standalone="no"?>
<!DOCTYPE svg PUBLIC "-//W3C//DTD SVG 20010904//EN"
 "http://www.w3.org/TR/2001/REC-SVG-20010904/DTD/svg10.dtd">
<svg version="1.0" xmlns="http://www.w3.org/2000/svg"
 width="256.000000pt" height="256.000000pt" viewBox="0 0 256.000000 256.000000"
 preserveAspectRatio="xMidYMid meet">

<g transform="translate(0.000000,256.000000) scale(0.100000,-0.100000)"
fill="#000000" stroke="none">
<path d="M916 1918 l-369 -398 -136 0 -136 0 -97 -97 -97 -98 70 -60 c39 -33
75 -62 81 -64 6 -2 74 60 152 137 l141 141 100 -14 c55 -8 110 -15 122 -15 15
0 106 93 334 343 172 188 321 352 333 365 l20 22 -40 41 c-21 22 -55 53 -74
68 l-35 28 -369 -399z"/>
<path d="M1340 1685 l-271 -295 -154 0 -154 0 -166 -182 -165 -182 72 -74 73
-74 221 226 221 226 139 1 139 0 243 249 244 250 -54 49 c-29 26 -67 60 -84
75 l-32 26 -272 -295z"/>
<path d="M1774 1460 l-198 -210 -145 0 -146 -1 -255 -268 c-140 -148 -255
-273 -255 -278 0 -13 154 -145 164 -141 5 2 134 136 286 298 152 162 285 303
294 313 17 17 26 18 142 6 l123 -12 168 173 c92 95 168 178 168 184 0 12 -130
146 -142 146 -3 0 -95 -94 -204 -210z"/>
<path d="M2198 1223 l-127 -126 -129 12 -130 13 -74 -78 c-201 -211 -618 -660
-618 -664 0 -3 33 -35 74 -72 l73 -67 366 387 c200 213 376 397 389 409 l24
23 117 -16 117 -16 89 81 c48 44 93 86 99 93 8 10 -7 30 -63 81 -40 37 -75 67
-77 67 -2 0 -60 -57 -130 -127z"/>
</g>
</svg>
