<?xml version="1.0" standalone="no"?>
<!DOCTYPE svg PUBLIC "-//W3C//DTD SVG 20010904//EN"
 "http://www.w3.org/TR/2001/REC-SVG-20010904/DTD/svg10.dtd">
<svg version="1.0" xmlns="http://www.w3.org/2000/svg"
 width="256.000000pt" height="256.000000pt" viewBox="0 0 256.000000 256.000000"
 preserveAspectRatio="xMidYMid meet">

<g transform="translate(0.000000,256.000000) scale(0.100000,-0.100000)"
fill="#000000" stroke="none">
<path d="M1195 2385 c-44 -8 -121 -28 -170 -45 -50 -17 -130 -45 -180 -61
-364 -121 -631 -408 -732 -787 -23 -86 -26 -116 -26 -267 0 -151 3 -181 25
-266 36 -133 78 -230 146 -334 169 -259 427 -434 725 -490 113 -21 319 -19
433 4 85 18 129 33 332 120 193 81 311 160 431 286 350 369 399 931 118 1358
-157 240 -408 412 -692 474 -99 21 -311 26 -410 8z m-666 -384 c-142 -194
-212 -351 -239 -540 -17 -113 -8 -323 18 -421 64 -244 184 -435 370 -589 138
-115 298 -192 482 -231 l85 -19 -85 0 c-292 -2 -601 158 -792 409 -69 91 -144
247 -175 365 -22 86 -26 120 -26 250 0 130 4 163 27 250 47 181 129 325 260
463 76 79 103 102 75 63z m864 -289 c112 -40 211 -138 277 -276 94 -198 76
-430 -46 -593 -48 -63 -206 -90 -342 -58 -209 49 -377 205 -428 398 -51 191
42 434 196 513 93 47 235 54 343 16z"/>
</g>
</svg>
