<?xml version="1.0" standalone="no"?>
<!DOCTYPE svg PUBLIC "-//W3C//DTD SVG 20010904//EN"
 "http://www.w3.org/TR/2001/REC-SVG-20010904/DTD/svg10.dtd">
<svg version="1.0" xmlns="http://www.w3.org/2000/svg"
 width="256.000000pt" height="256.000000pt" viewBox="0 0 256.000000 256.000000"
 preserveAspectRatio="xMidYMid meet">

<g transform="translate(0.000000,256.000000) scale(0.100000,-0.100000)"
fill="#000000" stroke="none">
<path d="M1092 2390 c-12 -5 -25 -17 -29 -26 -7 -19 22 -78 71 -146 41 -56 49
-111 41 -257 -10 -174 -7 -167 -65 -175 -62 -8 -393 -89 -480 -118 -132 -43
-230 -109 -230 -154 0 -22 29 -75 59 -107 36 -40 73 -57 121 -57 35 0 48 7 98
54 32 29 80 61 105 71 58 22 130 16 160 -13 l20 -20 -26 -45 c-50 -85 -376
-376 -649 -578 -184 -136 -197 -148 -204 -175 -9 -36 32 -73 112 -104 72 -27
149 -23 215 10 59 30 192 135 258 203 90 93 265 320 423 547 l17 25 25 -27
c41 -45 49 -118 42 -353 -8 -296 -24 -375 -88 -438 -39 -38 -40 -42 -36 -93 6
-72 58 -172 119 -229 42 -39 54 -45 92 -45 34 0 57 8 93 33 47 31 49 34 48 77
-1 25 -8 106 -17 180 -26 213 -39 470 -35 663 3 165 5 180 23 193 53 39 85 6
255 -265 122 -196 236 -350 317 -428 116 -112 244 -154 365 -119 57 16 144 69
161 97 27 44 -37 124 -157 196 -135 81 -906 803 -906 849 0 78 190 90 395 24
164 -52 197 -41 203 66 4 87 -17 126 -86 157 -67 30 -236 35 -405 11 -93 -13
-133 -15 -145 -7 -14 9 -17 28 -17 108 0 91 2 99 24 114 70 48 90 93 76 168
-9 47 -58 95 -122 118 -56 20 -208 29 -241 15z"/>
</g>
</svg>
