<?xml version="1.0" standalone="no"?>
<!DOCTYPE svg PUBLIC "-//W3C//DTD SVG 20010904//EN"
 "http://www.w3.org/TR/2001/REC-SVG-20010904/DTD/svg10.dtd">
<svg version="1.0" xmlns="http://www.w3.org/2000/svg"
 width="256.000000pt" height="256.000000pt" viewBox="0 0 256.000000 256.000000"
 preserveAspectRatio="xMidYMid meet">

<g transform="translate(0.000000,256.000000) scale(0.100000,-0.100000)"
fill="#000000" stroke="none">
<path d="M1366 2415 c215 -376 343 -590 376 -629 27 -32 81 -71 172 -124 207
-123 516 -295 521 -290 3 3 -936 939 -1089 1085 -5 4 4 -15 20 -42z"/>
<path d="M645 1900 c-302 -302 -543 -550 -535 -550 19 1 861 217 867 224 4 4
230 823 236 855 1 8 -3 16 -8 17 -6 2 -258 -243 -560 -546z"/>
<path d="M1280 2447 c0 -4 -52 -196 -115 -428 -64 -232 -114 -423 -112 -425 7
-8 583 149 600 164 9 8 17 25 17 38 0 13 -84 162 -186 331 -178 295 -204 335
-204 320z"/>
<path d="M1321 1615 c-156 -41 -288 -78 -292 -82 -10 -10 -101 -327 -140 -490
-34 -137 -31 -173 12 -173 19 0 607 159 618 167 9 7 161 591 161 621 0 31 -2
32 -37 31 -21 0 -166 -34 -322 -74z"/>
<path d="M1758 1660 c-15 -11 -32 -35 -38 -54 -23 -72 -148 -541 -144 -545 3
-3 722 186 858 226 15 4 16 7 5 18 -25 23 -605 364 -630 370 -17 4 -33 0 -51
-15z"/>
<path d="M513 1406 c-232 -61 -425 -114 -428 -118 -6 -5 365 -251 529 -350 89
-54 140 -62 170 -29 20 22 45 104 117 381 28 107 53 203 55 213 3 10 0 17 -8
16 -7 0 -203 -51 -435 -113z"/>
<path d="M1980 1106 l-434 -122 -112 -447 c-61 -246 -109 -447 -105 -447 16 0
1123 1119 1117 1129 -4 6 -13 11 -19 10 -7 0 -208 -55 -447 -123z"/>
<path d="M655 650 c286 -286 521 -520 523 -520 11 0 -172 291 -278 442 -124
179 -266 299 -603 509 -78 49 -146 89 -152 89 -5 0 224 -234 510 -520z"/>
<path d="M1475 975 c-5 -2 -77 -22 -160 -45 -373 -104 -452 -139 -443 -198 3
-25 396 -642 408 -642 6 0 221 857 220 878 0 12 -6 14 -25 7z"/>
</g>
</svg>
