<?xml version="1.0" standalone="no"?>
<!DOCTYPE svg PUBLIC "-//W3C//DTD SVG 20010904//EN"
 "http://www.w3.org/TR/2001/REC-SVG-20010904/DTD/svg10.dtd">
<svg version="1.0" xmlns="http://www.w3.org/2000/svg"
 width="256.000000pt" height="256.000000pt" viewBox="0 0 256.000000 256.000000"
 preserveAspectRatio="xMidYMid meet">

<g transform="translate(0.000000,256.000000) scale(0.100000,-0.100000)"
fill="#000000" stroke="none">
<path d="M1125 2390 c-363 -58 -668 -273 -833 -588 -118 -225 -156 -457 -117
-701 110 -675 800 -1096 1452 -886 126 41 187 75 191 107 5 45 -25 55 -178 61
-408 16 -755 226 -895 542 -91 208 -89 462 6 662 83 173 274 295 486 309 407
27 730 -348 624 -728 -24 -90 -43 -116 -104 -143 -149 -68 -394 -44 -544 54
-148 96 -213 195 -263 399 -16 61 -43 86 -88 79 -91 -15 -126 -102 -120 -295
7 -201 53 -298 227 -473 202 -202 352 -275 586 -286 130 -6 256 16 375 66 173
72 355 257 427 434 46 114 46 348 -1 520 -50 182 -104 302 -199 440 -133 194
-348 337 -605 403 -110 29 -322 40 -427 24z m1170 -996 c33 -254 7 -366 -122
-527 -149 -185 -342 -277 -583 -277 -177 0 -293 40 -437 149 -176 133 -297
300 -324 446 -18 95 2 275 30 275 4 0 15 -32 25 -70 75 -292 343 -490 664
-490 179 0 313 55 449 184 73 69 91 93 147 200 35 66 67 132 71 146 4 14 17
47 28 74 19 44 21 46 29 27 4 -13 15 -74 23 -137z"/>
</g>
</svg>
