<?xml version="1.0" standalone="no"?>
<!DOCTYPE svg PUBLIC "-//W3C//DTD SVG 20010904//EN"
 "http://www.w3.org/TR/2001/REC-SVG-20010904/DTD/svg10.dtd">
<svg version="1.0" xmlns="http://www.w3.org/2000/svg"
 width="256.000000pt" height="256.000000pt" viewBox="0 0 256.000000 256.000000"
 preserveAspectRatio="xMidYMid meet">

<g transform="translate(0.000000,256.000000) scale(0.100000,-0.100000)"
fill="#000000" stroke="none">
<path d="M450 2174 c-113 -80 -224 -163 -247 -186 -83 -82 -130 -209 -120
-327 11 -133 73 -240 184 -319 36 -26 77 -56 91 -68 l25 -20 -79 -56 c-124
-87 -173 -149 -208 -267 -31 -105 -13 -229 47 -329 43 -72 68 -93 306 -261
157 -111 207 -141 221 -135 30 15 470 326 470 333 0 5 -14 16 -100 73 l-26 18
-179 -125 -178 -125 -81 57 c-216 150 -273 194 -295 227 -67 101 -68 204 -2
308 21 33 59 67 132 117 57 40 108 70 114 68 5 -3 315 -219 689 -481 373 -262
683 -476 688 -476 19 0 425 293 465 336 86 92 127 227 106 348 -23 134 -79
217 -215 314 -43 30 -78 58 -78 61 1 3 37 30 82 60 135 91 203 200 215 342 10
115 -30 229 -109 316 -23 24 -116 96 -207 160 -91 64 -187 131 -212 149 l-45
33 -239 -167 c-131 -92 -238 -172 -239 -177 0 -6 27 -29 60 -51 l59 -42 178
125 178 125 82 -56 c242 -167 272 -191 304 -245 41 -69 51 -139 29 -215 -21
-72 -64 -120 -182 -202 l-92 -64 -692 485 c-380 267 -692 485 -693 485 -1 -1
-94 -66 -207 -146z m831 -476 c340 -238 618 -436 619 -440 0 -4 -107 -82 -237
-173 -131 -91 -239 -170 -241 -174 -2 -7 109 -91 122 -91 3 0 111 74 241 165
130 91 242 168 249 171 7 3 62 -30 122 -73 96 -69 112 -85 139 -137 53 -105
36 -233 -43 -311 -17 -17 -102 -81 -190 -143 l-160 -112 -618 433 c-340 238
-619 437 -621 443 -1 5 105 83 237 174 131 91 239 168 239 172 1 9 -109 88
-123 88 -6 0 -120 -77 -254 -170 l-243 -170 -94 65 c-114 80 -161 132 -181
204 -27 90 4 209 70 269 24 23 336 242 344 242 3 0 283 -195 623 -432z"/>
</g>
</svg>
