<?xml version="1.0" standalone="no"?>
<!DOCTYPE svg PUBLIC "-//W3C//DTD SVG 20010904//EN"
 "http://www.w3.org/TR/2001/REC-SVG-20010904/DTD/svg10.dtd">
<svg version="1.0" xmlns="http://www.w3.org/2000/svg"
 width="256.000000pt" height="256.000000pt" viewBox="0 0 256.000000 256.000000"
 preserveAspectRatio="xMidYMid meet">

<g transform="translate(0.000000,256.000000) scale(0.100000,-0.100000)"
fill="#000000" stroke="none">
<path d="M953 2225 c-309 -56 -576 -263 -708 -548 -61 -133 -79 -223 -79 -392
1 -129 4 -164 27 -248 78 -293 284 -534 550 -643 34 -14 98 -35 142 -46 78
-21 102 -22 799 -25 l719 -4 -7 60 c-27 234 -139 437 -304 548 -31 20 -58 38
-60 39 -1 0 8 41 20 90 31 122 31 342 0 455 -101 375 -397 649 -769 714 -102
18 -232 18 -330 0z m362 -199 c33 -9 103 -37 155 -63 82 -40 108 -60 190 -142
72 -72 105 -116 137 -176 93 -179 116 -388 63 -576 -10 -37 -11 -37 -48 -27
-20 6 -165 11 -322 12 -297 3 -377 12 -492 56 -230 87 -359 306 -375 635 l-6
121 35 26 c87 66 204 119 318 143 81 18 262 13 345 -9z"/>
</g>
</svg>
