<?xml version="1.0" standalone="no"?>
<!DOCTYPE svg PUBLIC "-//W3C//DTD SVG 20010904//EN"
 "http://www.w3.org/TR/2001/REC-SVG-20010904/DTD/svg10.dtd">
<svg version="1.0" xmlns="http://www.w3.org/2000/svg"
 width="256.000000pt" height="256.000000pt" viewBox="0 0 256.000000 256.000000"
 preserveAspectRatio="xMidYMid meet">

<g transform="translate(0.000000,256.000000) scale(0.100000,-0.100000)"
fill="#000000" stroke="none">
<path d="M1175 2243 c-49 -82 -93 -155 -98 -163 -6 -11 86 -177 353 -634 198
-340 359 -624 356 -630 -2 -6 -127 -149 -278 -317 -150 -168 -279 -313 -287
-322 -12 -16 3 -17 216 -17 l229 0 269 305 c149 168 272 310 273 315 4 11
-929 1610 -939 1610 -3 0 -46 -66 -94 -147z"/>
<path d="M665 1363 c-187 -318 -340 -581 -340 -585 0 -3 120 -144 268 -312
l267 -306 103 0 102 1 140 164 c77 91 141 169 143 175 2 6 -55 10 -161 10
l-166 0 -23 29 c-13 16 -76 88 -141 160 l-118 130 230 392 c127 215 231 396
231 400 0 8 -173 292 -190 311 -3 5 -159 -252 -345 -569z"/>
</g>
</svg>
