<?xml version="1.0" standalone="no"?>
<!DOCTYPE svg PUBLIC "-//W3C//DTD SVG 20010904//EN"
 "http://www.w3.org/TR/2001/REC-SVG-20010904/DTD/svg10.dtd">
<svg version="1.0" xmlns="http://www.w3.org/2000/svg"
 width="256.000000pt" height="256.000000pt" viewBox="0 0 256.000000 256.000000"
 preserveAspectRatio="xMidYMid meet">

<g transform="translate(0.000000,256.000000) scale(0.100000,-0.100000)"
fill="#000000" stroke="none">
<path d="M1182 2383 c-14 -13 -67 -178 -191 -603 -95 -322 -175 -588 -179
-592 -4 -3 -65 -24 -137 -46 l-130 -40 -33 -92 c-18 -51 -31 -94 -30 -96 2 -1
61 16 132 37 70 22 130 38 132 36 3 -3 -184 -657 -232 -809 -5 -17 35 -18 739
-18 696 0 745 1 760 18 17 19 97 284 97 323 0 14 -5 30 -12 37 -9 9 -133 12
-494 12 -266 0 -485 3 -487 8 -3 6 51 195 153 533 l19 65 136 38 c74 21 138
43 141 47 10 16 55 181 51 185 -2 3 -61 -13 -131 -34 -98 -31 -126 -36 -126
-25 0 8 63 228 140 490 77 262 140 486 140 499 0 13 -9 28 -19 34 -12 6 -101
10 -219 10 -176 0 -202 -2 -220 -17z"/>
</g>
</svg>
