<?xml version="1.0" standalone="no"?>
<!DOCTYPE svg PUBLIC "-//W3C//DTD SVG 20010904//EN"
 "http://www.w3.org/TR/2001/REC-SVG-20010904/DTD/svg10.dtd">
<svg version="1.0" xmlns="http://www.w3.org/2000/svg"
 width="256.000000pt" height="256.000000pt" viewBox="0 0 256.000000 256.000000"
 preserveAspectRatio="xMidYMid meet">

<g transform="translate(0.000000,256.000000) scale(0.100000,-0.100000)"
fill="#000000" stroke="none">
<path d="M1507 2347 c-54 -64 -128 -102 -233 -123 -191 -36 -433 -116 -564
-186 -271 -144 -447 -372 -522 -675 -32 -131 -32 -358 0 -463 53 -165 145
-315 271 -440 142 -140 369 -250 590 -286 123 -20 312 -14 428 15 236 59 495
195 603 318 l34 38 -31 3 -30 3 52 78 c106 158 171 382 164 560 l-2 56 41 -3
c59 -3 55 20 -12 83 -37 34 -56 61 -61 85 -11 55 -65 178 -109 253 -85 142
-211 266 -364 356 -71 43 -209 101 -237 101 -19 0 -20 -4 19 105 25 69 35 175
17 175 -5 0 -29 -24 -54 -53z m-19 -327 c186 -52 381 -191 489 -350 36 -53 90
-158 109 -213 l14 -39 -33 5 c-171 30 -319 15 -536 -55 -192 -61 -263 -69
-341 -39 -115 46 -190 119 -221 216 -20 66 -16 193 9 241 21 41 81 102 124
125 21 12 296 126 308 128 3 1 38 -8 78 -19z m646 -813 c9 -57 -8 -203 -34
-297 -26 -92 -95 -226 -156 -304 -46 -58 -46 -58 -88 -52 -125 19 -196 73
-250 186 -62 132 -30 278 86 393 88 88 164 114 344 116 l92 1 6 -43z"/>
</g>
</svg>
