<?xml version="1.0" standalone="no"?>
<!DOCTYPE svg PUBLIC "-//W3C//DTD SVG 20010904//EN"
 "http://www.w3.org/TR/2001/REC-SVG-20010904/DTD/svg10.dtd">
<svg version="1.0" xmlns="http://www.w3.org/2000/svg"
 width="256.000000pt" height="256.000000pt" viewBox="0 0 256.000000 256.000000"
 preserveAspectRatio="xMidYMid meet">

<g transform="translate(0.000000,256.000000) scale(0.100000,-0.100000)"
fill="#000000" stroke="none">
<path d="M1092 2386 c-170 -33 -267 -77 -298 -137 -36 -71 19 -139 184 -222
142 -73 243 -111 569 -218 l273 -90 29 -64 c37 -80 76 -138 149 -216 70 -77
265 -237 331 -273 l50 -27 7 48 c8 56 -2 262 -15 306 -5 18 -19 68 -31 112
-45 168 -170 369 -308 495 -142 131 -303 218 -491 267 -121 31 -337 40 -449
19z"/>
<path d="M470 2051 c-529 -555 -355 -1456 343 -1786 390 -185 856 -118 1199
170 134 113 255 286 309 442 10 31 19 57 19 58 0 1 -57 -10 -127 -23 -167 -33
-430 -37 -563 -9 -285 61 -526 193 -723 396 -189 194 -312 430 -368 704 -11
56 -22 104 -25 106 -3 3 -32 -23 -64 -58z"/>
</g>
</svg>
