<?xml version="1.0" standalone="no"?>
<!DOCTYPE svg PUBLIC "-//W3C//DTD SVG 20010904//EN"
 "http://www.w3.org/TR/2001/REC-SVG-20010904/DTD/svg10.dtd">
<svg version="1.0" xmlns="http://www.w3.org/2000/svg"
 width="256.000000pt" height="256.000000pt" viewBox="0 0 256.000000 256.000000"
 preserveAspectRatio="xMidYMid meet">

<g transform="translate(0.000000,256.000000) scale(0.100000,-0.100000)"
fill="#000000" stroke="none">
<path d="M80 1761 l0 -719 24 -84 c108 -370 375 -648 778 -807 63 -25 220 -71
242 -71 4 0 5 75 4 166 l-3 165 -51 18 c-149 50 -311 226 -374 404 -25 70 -25
94 -2 101 35 10 303 66 316 66 9 0 22 -28 35 -68 40 -132 117 -203 228 -210
82 -6 143 17 180 65 51 66 42 201 -19 278 -24 31 -96 68 -239 124 -265 103
-387 234 -413 441 -9 75 9 194 40 257 32 67 133 161 229 214 l75 41 0 169 0
169 -525 0 -525 0 0 -719z"/>
<path d="M1510 2306 l0 -164 99 -66 c102 -68 188 -152 220 -215 l19 -36 -124
-82 c-68 -46 -126 -83 -129 -83 -3 0 -32 28 -63 62 -65 70 -135 108 -201 108
-102 0 -181 -49 -181 -115 0 -85 62 -143 245 -231 182 -87 265 -136 332 -197
90 -83 124 -176 124 -342 1 -159 -33 -265 -113 -352 -45 -48 -187 -147 -237
-164 l-31 -11 0 -169 c0 -93 2 -169 4 -169 24 0 192 62 271 100 389 188 641
496 709 865 48 267 19 506 -89 733 -88 184 -231 354 -377 450 -78 50 -447 242
-467 242 -8 0 -11 -52 -11 -164z"/>
</g>
</svg>
