<?xml version="1.0" standalone="no"?>
<!DOCTYPE svg PUBLIC "-//W3C//DTD SVG 20010904//EN"
 "http://www.w3.org/TR/2001/REC-SVG-20010904/DTD/svg10.dtd">
<svg version="1.0" xmlns="http://www.w3.org/2000/svg"
 width="256.000000pt" height="256.000000pt" viewBox="0 0 256.000000 256.000000"
 preserveAspectRatio="xMidYMid meet">

<g transform="translate(0.000000,256.000000) scale(0.100000,-0.100000)"
fill="#000000" stroke="none">
<path d="M1601 2471 c-8 -5 -42 -152 -92 -400 -43 -215 -87 -411 -98 -435 -20
-47 -85 -124 -134 -158 -16 -12 -122 -53 -235 -93 -120 -41 -210 -78 -216 -88
-21 -33 8 -50 216 -122 113 -40 219 -81 235 -93 49 -34 114 -111 134 -158 11
-24 53 -211 94 -416 41 -205 77 -383 80 -395 7 -28 42 -40 62 -20 10 9 45 162
94 406 45 226 87 407 98 429 65 125 116 160 369 247 116 41 211 79 217 89 7
11 7 21 0 32 -6 10 -101 48 -217 89 -253 87 -304 122 -369 247 -11 22 -53 205
-99 435 -45 223 -86 400 -93 405 -16 10 -29 10 -46 -1z"/>
<path d="M805 2398 c-2 -7 -16 -75 -31 -152 -33 -170 -42 -183 -154 -222 -44
-16 -80 -34 -80 -41 0 -6 36 -23 80 -38 110 -37 121 -52 156 -230 37 -194 46
-200 75 -53 11 51 24 117 30 146 15 77 45 106 139 137 44 15 80 32 80 39 0 7
-31 22 -70 35 -77 24 -122 56 -138 98 -6 16 -21 78 -32 138 -12 61 -24 120
-27 133 -6 24 -21 29 -28 10z"/>
<path d="M447 1253 c-3 -4 -22 -91 -42 -193 -20 -102 -43 -196 -50 -210 -24
-47 -64 -72 -167 -109 -61 -21 -103 -42 -103 -49 0 -8 43 -30 103 -52 100 -37
142 -63 165 -105 6 -11 29 -108 52 -215 30 -149 44 -195 55 -195 11 0 25 46
55 195 23 107 46 204 52 215 24 42 65 68 165 104 64 24 103 43 103 52 0 9 -38
27 -103 50 -99 35 -141 62 -165 104 -6 11 -29 107 -52 214 -36 173 -52 220
-68 194z"/>
</g>
</svg>
