<?xml version="1.0" standalone="no"?>
<!DOCTYPE svg PUBLIC "-//W3C//DTD SVG 20010904//EN"
 "http://www.w3.org/TR/2001/REC-SVG-20010904/DTD/svg10.dtd">
<svg version="1.0" xmlns="http://www.w3.org/2000/svg"
 width="256.000000pt" height="256.000000pt" viewBox="0 0 256.000000 256.000000"
 preserveAspectRatio="xMidYMid meet">

<g transform="translate(0.000000,256.000000) scale(0.100000,-0.100000)"
fill="#000000" stroke="none">
<path d="M1745 2381 c-104 -31 -144 -53 -832 -449 l-672 -387 -1 -110 c0 -238
58 -353 240 -478 25 -17 343 -203 708 -413 l663 -382 77 45 c157 93 227 156
263 239 47 106 49 129 49 989 0 764 -1 811 -17 823 -10 7 -56 34 -102 59 -151
83 -253 100 -376 64z m-205 -1067 l0 -156 -65 36 c-162 91 -199 114 -202 122
-2 8 243 154 260 154 4 0 7 -70 7 -156z"/>
</g>
</svg>
