<?xml version="1.0" standalone="no"?>
<!DOCTYPE svg PUBLIC "-//W3C//DTD SVG 20010904//EN"
 "http://www.w3.org/TR/2001/REC-SVG-20010904/DTD/svg10.dtd">
<svg version="1.0" xmlns="http://www.w3.org/2000/svg"
 width="256.000000pt" height="256.000000pt" viewBox="0 0 256.000000 256.000000"
 preserveAspectRatio="xMidYMid meet">

<g transform="translate(0.000000,256.000000) scale(0.100000,-0.100000)"
fill="#000000" stroke="none">
<path d="M900 2138 c-61 -32 -95 -97 -85 -165 13 -91 115 -157 204 -133 48 13
107 76 116 124 14 71 -21 143 -84 176 -52 26 -96 25 -151 -2z"/>
<path d="M1665 1932 c-74 -37 -126 -90 -160 -165 -24 -51 -27 -68 -23 -140 5
-133 69 -231 182 -283 187 -85 393 12 453 215 41 141 -36 305 -175 373 -35 17
-68 24 -132 26 -77 3 -91 0 -145 -26z"/>
<path d="M570 1154 c-217 -262 -396 -480 -398 -485 -2 -5 253 -10 621 -11
l625 -3 -105 -125 -104 -125 587 -3 c323 -1 589 0 591 2 5 5 -577 706 -586
706 -3 0 -46 -50 -96 -110 -49 -60 -94 -110 -100 -109 -5 0 -147 166 -315 369
-168 203 -309 369 -315 369 -5 0 -188 -214 -405 -475z"/>
</g>
</svg>
