<?xml version="1.0" standalone="no"?>
<!DOCTYPE svg PUBLIC "-//W3C//DTD SVG 20010904//EN"
 "http://www.w3.org/TR/2001/REC-SVG-20010904/DTD/svg10.dtd">
<svg version="1.0" xmlns="http://www.w3.org/2000/svg"
 width="256.000000pt" height="256.000000pt" viewBox="0 0 256.000000 256.000000"
 preserveAspectRatio="xMidYMid meet">

<g transform="translate(0.000000,256.000000) scale(0.100000,-0.100000)"
fill="#000000" stroke="none">
<path d="M748 2187 l-508 -291 0 -602 0 -601 511 -307 512 -306 531 304 531
305 3 603 2 604 -533 292 c-294 161 -536 292 -538 291 -2 0 -232 -132 -511
-292z m536 -68 c74 -68 179 -195 223 -269 38 -62 71 -181 92 -329 30 -202 46
-265 92 -351 62 -114 171 -260 281 -376 l39 -41 -115 -66 -115 -65 -63 67
c-75 79 -181 213 -233 295 -53 83 -71 142 -95 307 -48 332 -108 461 -321 684
-51 52 -90 97 -88 99 17 13 206 116 215 116 5 0 45 -32 88 -71z m834 -779 c1
-236 0 -430 -3 -430 -18 0 -192 219 -246 311 -52 87 -62 122 -88 306 -34 238
-62 326 -142 448 -27 42 -49 77 -49 80 0 2 118 -61 263 -140 l262 -144 3 -431z
m-1250 578 c85 -78 179 -187 229 -264 56 -87 87 -191 113 -374 25 -185 42
-248 88 -333 43 -80 162 -242 251 -341 33 -38 61 -72 61 -76 0 -6 -235 -143
-256 -148 -24 -6 -273 295 -337 408 -36 63 -53 132 -77 300 -27 187 -43 247
-91 347 -47 99 -123 201 -225 305 -43 43 -75 81 -71 84 10 10 241 143 250 143
4 1 33 -23 65 -51z m-361 -310 c106 -111 177 -220 211 -323 11 -33 30 -127 42
-210 36 -257 74 -356 191 -511 65 -85 66 -89 22 -63 -22 13 -148 89 -281 169
l-242 145 0 417 c0 230 4 418 8 418 4 0 26 -19 49 -42z"/>
</g>
</svg>
