<?xml version="1.0" standalone="no"?>
<!DOCTYPE svg PUBLIC "-//W3C//DTD SVG 20010904//EN"
 "http://www.w3.org/TR/2001/REC-SVG-20010904/DTD/svg10.dtd">
<svg version="1.0" xmlns="http://www.w3.org/2000/svg"
 width="256.000000pt" height="256.000000pt" viewBox="0 0 256.000000 256.000000"
 preserveAspectRatio="xMidYMid meet">

<g transform="translate(0.000000,256.000000) scale(0.100000,-0.100000)"
fill="#000000" stroke="none">
<path d="M1100 2385 c-118 -20 -213 -52 -329 -111 -319 -162 -538 -462 -596
-815 -64 -399 90 -800 407 -1053 444 -356 1088 -320 1489 83 175 175 285 392
319 630 17 115 8 323 -19 424 -102 389 -388 692 -758 807 -155 48 -357 62
-513 35z m796 -444 c48 -29 64 -75 64 -180 l0 -91 -680 0 -680 0 0 106 0 106
39 39 39 39 593 0 c564 0 596 -1 625 -19z m59 -571 l0 -185 -587 -3 c-537 -2
-588 -4 -588 -19 0 -9 15 -48 34 -87 65 -135 206 -244 354 -275 203 -42 423
44 528 208 l39 60 113 0 112 1 0 -166 c0 -186 -9 -221 -64 -255 -29 -18 -61
-19 -625 -19 l-593 0 -39 39 -39 39 0 426 0 426 678 -2 677 -3 0 -185z m-365
-319 c-16 -31 -92 -88 -156 -118 -50 -23 -72 -27 -149 -28 -49 0 -108 6 -131
12 -56 18 -156 84 -183 122 l-22 31 326 0 c319 0 325 0 315 -19z"/>
<path d="M921 1455 c-51 -16 -107 -66 -127 -112 -21 -49 -18 -53 39 -53 45 0
56 4 80 30 23 24 37 30 72 30 35 0 49 -6 72 -30 24 -26 35 -30 80 -30 41 0 53
3 53 16 0 49 -78 130 -144 149 -59 18 -68 18 -125 0z"/>
<path d="M1525 1461 c-68 -17 -118 -56 -149 -118 -24 -48 -21 -53 38 -53 47 0
59 4 84 30 24 24 39 30 72 30 34 0 48 -6 70 -30 25 -26 35 -30 83 -30 l56 0
-11 33 c-33 98 -146 162 -243 138z"/>
</g>
</svg>
