<?xml version="1.0" standalone="no"?>
<!DOCTYPE svg PUBLIC "-//W3C//DTD SVG 20010904//EN"
 "http://www.w3.org/TR/2001/REC-SVG-20010904/DTD/svg10.dtd">
<svg version="1.0" xmlns="http://www.w3.org/2000/svg"
 width="256.000000pt" height="256.000000pt" viewBox="0 0 256.000000 256.000000"
 preserveAspectRatio="xMidYMid meet">

<g transform="translate(0.000000,256.000000) scale(0.100000,-0.100000)"
fill="#000000" stroke="none">
<path d="M774 1830 c-72 -29 -99 -139 -48 -199 57 -68 169 -58 210 20 53 104
-54 223 -162 179z"/>
<path d="M1673 1821 c-127 -80 -45 -270 99 -230 55 15 88 60 88 120 0 42 -5
55 -33 85 -42 46 -104 56 -154 25z"/>
<path d="M563 1623 c-34 -6 -81 -59 -88 -97 -14 -73 49 -146 128 -146 28 0 46
8 73 33 68 62 51 168 -31 203 -35 14 -42 15 -82 7z"/>
<path d="M994 1616 c-121 -53 -86 -236 46 -236 70 0 120 51 120 123 0 52 -27
93 -76 113 -41 17 -50 17 -90 0z"/>
<path d="M1474 1616 c-94 -41 -102 -176 -13 -222 59 -30 136 -9 164 46 35 69
8 147 -61 176 -41 17 -50 17 -90 0z"/>
<path d="M1913 1615 c-81 -35 -96 -141 -29 -202 27 -25 45 -33 73 -33 138 0
179 184 52 234 -47 19 -55 19 -96 1z"/>
<path d="M774 1376 c-49 -22 -74 -61 -74 -118 0 -43 5 -55 33 -83 43 -43 79
-52 131 -34 107 37 114 192 11 235 -42 17 -61 17 -101 0z"/>
<path d="M1681 1373 c-100 -49 -91 -195 15 -232 52 -18 88 -9 131 34 28 28 33
40 33 83 0 58 -25 97 -76 118 -43 18 -61 17 -103 -3z"/>
<path d="M305 1325 c-54 -53 -15 -149 59 -149 81 0 121 100 61 151 -36 31 -88
31 -120 -2z"/>
<path d="M1216 1319 c-44 -51 -31 -110 30 -135 30 -12 39 -12 69 0 58 25 71
85 29 135 -20 25 -34 31 -64 31 -30 0 -44 -6 -64 -31z"/>
<path d="M2135 1327 c-60 -51 -20 -151 61 -151 74 0 113 96 59 149 -32 33 -84
33 -120 2z"/>
<path d="M535 1095 c-44 -43 -26 -124 32 -146 61 -23 133 42 117 106 -15 62
-104 86 -149 40z"/>
<path d="M986 1089 c-33 -39 -34 -82 -2 -114 33 -33 67 -40 105 -20 57 29 66
91 22 136 -41 41 -90 40 -125 -2z"/>
<path d="M1446 1089 c-41 -48 -30 -106 25 -134 38 -20 72 -13 105 20 32 32 31
75 -2 114 -20 25 -34 31 -64 31 -30 0 -44 -6 -64 -31z"/>
<path d="M1907 1100 c-53 -42 -38 -128 26 -149 62 -21 117 20 117 87 0 70 -85
107 -143 62z"/>
<path d="M101 1081 c-26 -26 -27 -62 -3 -84 38 -34 102 -9 102 39 0 51 -64 80
-99 45z"/>
<path d="M2400 1093 c-40 -14 -53 -69 -22 -96 58 -53 137 28 82 83 -20 20 -33
23 -60 13z"/>
<path d="M325 846 c-29 -29 -31 -43 -9 -74 29 -42 104 -18 104 34 0 26 -20 50
-47 59 -17 4 -29 -1 -48 -19z"/>
<path d="M1250 852 c-43 -35 -23 -102 31 -102 56 0 82 73 37 104 -29 20 -41
20 -68 -2z"/>
<path d="M2180 863 c-22 -8 -40 -34 -40 -58 0 -51 75 -74 104 -33 22 31 20 45
-9 73 -25 26 -29 27 -55 18z"/>
</g>
</svg>
