<?xml version="1.0" standalone="no"?>
<!DOCTYPE svg PUBLIC "-//W3C//DTD SVG 20010904//EN"
 "http://www.w3.org/TR/2001/REC-SVG-20010904/DTD/svg10.dtd">
<svg version="1.0" xmlns="http://www.w3.org/2000/svg"
 width="256.000000pt" height="256.000000pt" viewBox="0 0 256.000000 256.000000"
 preserveAspectRatio="xMidYMid meet">

<g transform="translate(0.000000,256.000000) scale(0.100000,-0.100000)"
fill="#000000" stroke="none">
<path d="M665 2296 c-111 -54 -541 -315 -560 -340 -19 -26 -20 -44 -23 -354
-2 -206 1 -340 7 -362 6 -20 23 -47 38 -61 49 -45 553 -331 592 -336 21 -3 52
1 71 9 19 8 247 138 505 289 448 261 472 274 520 273 44 0 67 -10 203 -88 84
-49 165 -104 181 -122 37 -42 44 -92 39 -295 -4 -204 0 -197 -204 -318 -98
-58 -171 -95 -194 -98 -46 -6 -105 20 -280 124 -148 88 -160 107 -160 265 0
59 -2 108 -5 108 -3 0 -57 -30 -120 -66 l-115 -66 0 -106 c1 -110 14 -167 45
-202 10 -11 142 -92 295 -180 300 -173 321 -181 393 -144 88 46 515 299 535
317 51 47 52 53 52 409 0 326 -1 334 -23 372 -19 34 -59 60 -297 199 -357 208
-326 203 -540 77 -85 -51 -229 -134 -320 -185 -91 -51 -230 -131 -309 -179
-203 -123 -217 -129 -267 -123 -64 7 -360 189 -386 237 -17 32 -18 54 -16 240
3 192 4 207 25 235 13 18 84 66 181 123 216 125 205 125 423 -6 205 -123 209
-128 209 -300 0 -62 4 -112 8 -110 5 2 59 32 121 68 l113 65 -4 125 c-5 189
27 156 -412 414 -222 129 -235 133 -321 92z"/>
</g>
</svg>
