<?xml version="1.0" standalone="no"?>
<!DOCTYPE svg PUBLIC "-//W3C//DTD SVG 20010904//EN"
 "http://www.w3.org/TR/2001/REC-SVG-20010904/DTD/svg10.dtd">
<svg version="1.0" xmlns="http://www.w3.org/2000/svg"
 width="256.000000pt" height="256.000000pt" viewBox="0 0 256.000000 256.000000"
 preserveAspectRatio="xMidYMid meet">

<g transform="translate(0.000000,256.000000) scale(0.100000,-0.100000)"
fill="#000000" stroke="none">
<path d="M160 1288 l0 -955 243 47 c133 25 405 77 604 115 199 38 360 72 357
74 -2 3 -120 26 -261 51 l-257 46 -186 -22 c-102 -13 -206 -25 -232 -29 l-48
-6 0 676 c0 371 3 675 8 675 4 0 109 -18 233 -40 l226 -40 254 71 c140 39 257
74 261 78 4 3 -255 50 -575 104 -320 54 -592 101 -604 104 l-23 5 0 -954z"/>
<path d="M1765 1914 c-330 -62 -664 -125 -742 -140 l-143 -26 0 -459 c0 -252
3 -460 8 -462 4 -3 340 -78 747 -166 407 -89 746 -164 753 -166 9 -4 12 154
12 765 0 727 -1 770 -17 769 -10 -1 -288 -52 -618 -115z"/>
</g>
</svg>
