<?xml version="1.0" standalone="no"?>
<!DOCTYPE svg PUBLIC "-//W3C//DTD SVG 20010904//EN"
 "http://www.w3.org/TR/2001/REC-SVG-20010904/DTD/svg10.dtd">
<svg version="1.0" xmlns="http://www.w3.org/2000/svg"
 width="256.000000pt" height="256.000000pt" viewBox="0 0 256.000000 256.000000"
 preserveAspectRatio="xMidYMid meet">

<g transform="translate(0.000000,256.000000) scale(0.100000,-0.100000)"
fill="#000000" stroke="none">
<path d="M1073 1797 c-117 -67 -213 -124 -213 -127 0 -3 97 -65 214 -138 l214
-133 206 133 c113 73 206 135 206 138 -1 4 -393 241 -409 247 -3 1 -102 -53
-218 -120z"/>
<path d="M437 1412 l-276 -167 -1 -293 0 -293 28 15 c15 8 139 80 276 160
l249 147 286 -161 c235 -133 289 -160 306 -152 11 5 134 78 274 161 l254 152
276 -158 c152 -87 279 -159 283 -161 5 -2 8 128 8 290 l0 293 -237 140 c-130
77 -257 152 -283 167 l-46 27 -268 -164 c-147 -91 -272 -165 -278 -165 -9 0
-200 109 -543 312 l-31 18 -277 -168z"/>
</g>
</svg>
