<?xml version="1.0" standalone="no"?>
<!DOCTYPE svg PUBLIC "-//W3C//DTD SVG 20010904//EN"
 "http://www.w3.org/TR/2001/REC-SVG-20010904/DTD/svg10.dtd">
<svg version="1.0" xmlns="http://www.w3.org/2000/svg"
 width="256.000000pt" height="256.000000pt" viewBox="0 0 256.000000 256.000000"
 preserveAspectRatio="xMidYMid meet">

<g transform="translate(0.000000,256.000000) scale(0.100000,-0.100000)"
fill="#000000" stroke="none">
<path d="M1097 2385 c-425 -72 -773 -380 -892 -789 -13 -47 -29 -123 -36 -169
-11 -78 -10 -89 11 -153 49 -148 143 -317 232 -419 57 -65 175 -140 262 -167
86 -27 252 -29 329 -5 47 15 157 77 206 115 l24 19 -45 64 c-79 111 -111 193
-128 321 -18 142 15 296 91 425 43 73 188 218 262 262 146 86 302 111 455 73
148 -38 300 -129 405 -242 31 -34 57 -58 57 -55 0 4 -18 45 -39 91 -211 449
-707 711 -1194 629z"/>
<path d="M1569 1897 c-72 -25 -153 -71 -213 -122 l-39 -33 36 -42 c19 -23 52
-73 72 -110 125 -238 93 -528 -82 -743 -51 -63 -188 -163 -277 -202 -65 -29
-202 -45 -296 -35 -141 15 -294 92 -392 198 -54 58 -134 177 -175 259 -15 31
-28 52 -30 47 -6 -18 44 -199 76 -275 102 -245 334 -478 581 -585 153 -66 254
-87 435 -88 169 -1 223 7 360 51 288 92 536 311 665 586 79 168 122 386 100
507 -28 155 -93 301 -168 382 -51 55 -180 144 -256 177 -130 56 -282 67 -397
28z"/>
</g>
</svg>
