<?xml version="1.0" standalone="no"?>
<!DOCTYPE svg PUBLIC "-//W3C//DTD SVG 20010904//EN"
 "http://www.w3.org/TR/2001/REC-SVG-20010904/DTD/svg10.dtd">
<svg version="1.0" xmlns="http://www.w3.org/2000/svg"
 width="256.000000pt" height="256.000000pt" viewBox="0 0 256.000000 256.000000"
 preserveAspectRatio="xMidYMid meet">

<g transform="translate(0.000000,256.000000) scale(0.100000,-0.100000)"
fill="#000000" stroke="none">
<path d="M760 2196 l-515 -294 -2 -618 -2 -619 516 -295 c284 -162 522 -295
528 -295 7 0 247 133 534 295 l521 295 -2 620 -3 620 -515 288 c-283 159 -522
291 -530 292 -8 2 -247 -128 -530 -289z m1013 -160 l407 -228 -2 -526 -3 -527
-445 -251 c-319 -181 -449 -250 -460 -244 -8 5 -206 119 -440 253 l-425 244
-3 525 -2 524 442 251 443 252 40 -23 c22 -12 223 -125 448 -250z"/>
<path d="M880 1823 c-18 -76 -38 -162 -45 -190 l-13 -53 464 0 c420 0 464 2
464 16 0 17 -46 300 -55 342 l-5 22 -389 0 -389 0 -32 -137z"/>
<path d="M1090 1451 c0 -5 9 -38 20 -73 16 -51 20 -92 20 -215 l0 -153 175 0
175 0 0 150 c0 135 2 156 25 216 14 36 25 70 25 75 0 5 -99 9 -220 9 -126 0
-220 -4 -220 -9z"/>
<path d="M656 1319 c-69 -55 -126 -104 -126 -107 0 -4 79 -149 175 -322 l174
-315 93 -3 93 -3 72 78 c68 73 73 81 73 123 0 45 -1 46 -95 123 l-94 78 -3
156 -3 156 -60 37 c-33 20 -85 51 -116 68 l-56 32 -127 -101z"/>
<path d="M1690 1352 l-115 -68 -3 -156 -3 -157 -94 -78 c-94 -77 -95 -78 -95
-123 0 -42 5 -50 73 -123 l72 -78 93 3 94 3 174 315 c95 173 174 318 174 322
0 6 -245 208 -252 208 -2 0 -55 -31 -118 -68z"/>
</g>
</svg>
