<?xml version="1.0" standalone="no"?>
<!DOCTYPE svg PUBLIC "-//W3C//DTD SVG 20010904//EN"
 "http://www.w3.org/TR/2001/REC-SVG-20010904/DTD/svg10.dtd">
<svg version="1.0" xmlns="http://www.w3.org/2000/svg"
 width="256.000000pt" height="256.000000pt" viewBox="0 0 256.000000 256.000000"
 preserveAspectRatio="xMidYMid meet">

<g transform="translate(0.000000,256.000000) scale(0.100000,-0.100000)"
fill="#000000" stroke="none">
<path d="M1104 2466 c-198 -45 -368 -163 -477 -329 -93 -142 -134 -267 -144
-437 -20 -374 204 -714 545 -826 l82 -27 0 -79 0 -78 -160 0 -160 0 0 -50 0
-50 160 0 160 0 0 -45 0 -45 -160 0 -160 0 0 -50 0 -50 160 0 160 0 0 -160 0
-160 130 0 129 0 3 158 3 157 158 3 157 3 0 49 0 49 -157 3 -158 3 0 40 0 40
158 3 157 3 0 49 0 49 -157 3 -158 3 -3 69 c-2 38 1 73 6 78 4 4 34 15 66 23
75 20 195 82 268 140 124 97 234 272 279 440 30 115 31 298 0 420 -69 281
-274 504 -536 585 -91 28 -264 36 -351 16z m263 -405 c134 -68 214 -214 214
-391 0 -228 -133 -403 -317 -418 -89 -7 -151 17 -224 85 -128 118 -172 317
-111 496 42 121 130 212 241 248 44 15 152 4 197 -20z"/>
</g>
</svg>
