<?xml version="1.0" standalone="no"?>
<!DOCTYPE svg PUBLIC "-//W3C//DTD SVG 20010904//EN"
 "http://www.w3.org/TR/2001/REC-SVG-20010904/DTD/svg10.dtd">
<svg version="1.0" xmlns="http://www.w3.org/2000/svg"
 width="256.000000pt" height="256.000000pt" viewBox="0 0 256.000000 256.000000"
 preserveAspectRatio="xMidYMid meet">

<g transform="translate(0.000000,256.000000) scale(0.100000,-0.100000)"
fill="#000000" stroke="none">
<path d="M1040 2283 c-113 -63 -280 -158 -373 -210 l-167 -94 27 -50 c16 -27
30 -49 33 -49 3 0 144 79 315 175 l310 174 5 -255 c5 -238 6 -257 24 -270 11
-8 27 -14 36 -14 9 0 25 6 36 14 18 13 19 32 24 270 l5 255 310 -170 c171 -94
315 -173 321 -176 7 -2 24 17 38 43 21 38 24 50 14 59 -11 10 -746 416 -751
415 -1 -1 -94 -53 -207 -117z"/>
<path d="M265 1953 c-46 -24 -66 -45 -86 -88 -35 -75 -14 -164 50 -218 160
-134 382 69 266 244 -45 69 -159 100 -230 62z"/>
<path d="M2100 1959 c-32 -13 -78 -56 -96 -91 -20 -39 -18 -122 6 -168 36 -71
124 -110 202 -90 58 16 85 36 113 85 56 94 16 219 -82 261 -37 16 -107 17
-143 3z"/>
<path d="M573 1748 c-6 -7 -29 -48 -52 -90 l-42 -77 23 -14 c13 -8 146 -83
296 -167 244 -136 275 -157 292 -190 75 -147 271 -138 341 15 12 25 62 56 294
182 154 83 288 157 298 163 17 10 15 17 -29 98 -26 48 -48 88 -49 90 -1 1
-134 -69 -295 -157 l-292 -159 -34 14 c-43 18 -96 18 -140 -1 l-36 -15 -251
141 c-139 78 -266 150 -283 160 -25 15 -34 16 -41 7z"/>
<path d="M230 1275 l0 -275 105 0 105 0 0 275 0 275 -105 0 -105 0 0 -275z"/>
<path d="M2072 1278 l3 -273 103 -3 102 -3 0 276 0 275 -105 0 -105 0 2 -272z"/>
<path d="M287 946 c-50 -18 -85 -51 -108 -101 -23 -49 -24 -94 -4 -142 20 -48
41 -71 87 -94 108 -55 244 16 264 137 20 132 -115 245 -239 200z"/>
<path d="M2120 949 c-82 -25 -130 -91 -130 -179 0 -104 77 -180 181 -180 141
0 226 153 154 277 -40 67 -130 104 -205 82z"/>
<path d="M1225 838 c-11 -6 -23 -16 -27 -22 -4 -6 -8 -116 -8 -243 0 -128 -3
-233 -8 -233 -4 0 -146 76 -316 170 -171 94 -313 170 -316 170 -8 0 -55 -99
-49 -103 2 -2 173 -97 380 -211 l376 -206 369 207 c203 113 371 208 373 210 6
4 -30 82 -44 93 -9 7 -101 -40 -324 -165 -171 -96 -313 -175 -316 -175 -3 0
-5 108 -5 239 l0 240 -26 20 c-31 24 -32 24 -59 9z"/>
</g>
</svg>
