<?xml version="1.0" standalone="no"?>
<!DOCTYPE svg PUBLIC "-//W3C//DTD SVG 20010904//EN"
 "http://www.w3.org/TR/2001/REC-SVG-20010904/DTD/svg10.dtd">
<svg version="1.0" xmlns="http://www.w3.org/2000/svg"
 width="256.000000pt" height="256.000000pt" viewBox="0 0 256.000000 256.000000"
 preserveAspectRatio="xMidYMid meet">

<g transform="translate(0.000000,256.000000) scale(0.100000,-0.100000)"
fill="#000000" stroke="none">
<path d="M536 2224 c-86 -17 -194 -68 -264 -124 -64 -51 -134 -148 -167 -229
l-25 -61 0 -657 0 -658 167 -110 c91 -60 168 -108 169 -105 2 3 5 339 6 747 3
731 3 742 24 769 33 45 65 64 131 75 121 21 259 -20 390 -118 83 -62 355 -306
428 -385 134 -143 159 -276 73 -374 -30 -34 -103 -64 -158 -64 -85 0 -180 58
-242 148 -55 80 -40 161 50 263 l41 46 -114 113 -114 113 -65 -53 c-155 -125
-215 -241 -202 -383 8 -82 42 -189 92 -290 91 -181 289 -289 529 -290 165 -1
300 47 411 146 115 103 174 232 174 381 0 141 -25 191 -202 403 -190 227 -417
439 -600 560 -210 139 -347 174 -532 137z"/>
<path d="M1840 2225 c-85 -18 -136 -37 -219 -80 -77 -40 -187 -128 -220 -173
l-21 -30 113 -65 c62 -36 120 -69 130 -72 9 -4 65 6 124 21 81 21 132 28 205
28 112 1 134 -10 180 -88 l28 -47 2 -724 3 -725 157 113 157 112 1 635 c0 683
-1 695 -53 811 -58 130 -173 238 -291 275 -70 22 -216 27 -296 9z"/>
</g>
</svg>
