<?xml version="1.0" standalone="no"?>
<!DOCTYPE svg PUBLIC "-//W3C//DTD SVG 20010904//EN"
 "http://www.w3.org/TR/2001/REC-SVG-20010904/DTD/svg10.dtd">
<svg version="1.0" xmlns="http://www.w3.org/2000/svg"
 width="256.000000pt" height="256.000000pt" viewBox="0 0 256.000000 256.000000"
 preserveAspectRatio="xMidYMid meet">

<g transform="translate(0.000000,256.000000) scale(0.100000,-0.100000)"
fill="#000000" stroke="none">
<path d="M794 2061 c-23 -10 -52 -34 -66 -52 -42 -58 -568 -1255 -568 -1293 0
-46 16 -85 48 -119 39 -41 74 -57 127 -57 58 0 109 23 139 64 13 17 145 306
295 641 289 651 293 663 257 733 -47 90 -142 124 -232 83z"/>
<path d="M1474 2064 c-17 -8 -43 -27 -57 -42 -14 -15 -89 -171 -168 -347 -114
-256 -142 -329 -142 -365 -1 -153 174 -234 292 -134 21 17 67 111 175 353 155
349 166 385 132 449 -46 87 -151 126 -232 86z"/>
<path d="M2142 2059 c-27 -14 -51 -36 -67 -63 -13 -22 -143 -310 -289 -639
-223 -499 -266 -605 -266 -643 0 -98 62 -165 159 -172 65 -5 100 9 143 55 39
41 578 1257 578 1303 0 41 -29 108 -56 132 -29 25 -89 48 -126 48 -18 0 -52
-10 -76 -21z"/>
</g>
</svg>
