<?xml version="1.0" standalone="no"?>
<!DOCTYPE svg PUBLIC "-//W3C//DTD SVG 20010904//EN"
 "http://www.w3.org/TR/2001/REC-SVG-20010904/DTD/svg10.dtd">
<svg version="1.0" xmlns="http://www.w3.org/2000/svg"
 width="256.000000pt" height="256.000000pt" viewBox="0 0 256.000000 256.000000"
 preserveAspectRatio="xMidYMid meet">

<g transform="translate(0.000000,256.000000) scale(0.100000,-0.100000)"
fill="#000000" stroke="none">
<path d="M92 1828 c-8 -8 -12 -61 -12 -174 0 -134 3 -165 16 -178 13 -13 43
-16 173 -16 140 0 160 2 174 18 24 27 25 322 1 346 -13 13 -44 16 -178 16
-113 0 -166 -4 -174 -12z"/>
<path d="M910 1830 c-12 -7 -16 -40 -18 -165 -5 -216 -15 -205 179 -205 l150
0 50 -42 49 -43 0 -333 c0 -211 4 -340 10 -353 10 -18 23 -19 178 -19 117 0
172 4 180 12 17 17 17 709 0 726 -8 8 -55 12 -148 12 l-135 0 -68 61 -67 61 0
137 c0 93 -4 141 -12 149 -15 15 -325 17 -348 2z"/>
<path d="M1690 1830 c-12 -7 -16 -40 -18 -165 -5 -216 -15 -205 179 -205 l150
0 50 -42 49 -43 0 -333 c0 -211 4 -340 10 -353 10 -18 23 -19 178 -19 117 0
172 4 180 12 17 17 17 709 0 726 -8 8 -55 12 -148 12 l-135 0 -68 61 -67 61 0
137 c0 93 -4 141 -12 149 -15 15 -325 17 -348 2z"/>
<path d="M522 1408 c-17 -17 -17 -709 0 -726 8 -8 63 -12 180 -12 155 0 168 1
178 19 6 13 10 142 10 353 0 286 -2 337 -16 356 -15 21 -21 22 -178 22 -113 0
-166 -4 -174 -12z"/>
</g>
</svg>
