<?xml version="1.0" standalone="no"?>
<!DOCTYPE svg PUBLIC "-//W3C//DTD SVG 20010904//EN"
 "http://www.w3.org/TR/2001/REC-SVG-20010904/DTD/svg10.dtd">
<svg version="1.0" xmlns="http://www.w3.org/2000/svg"
 width="256.000000pt" height="256.000000pt" viewBox="0 0 256.000000 256.000000"
 preserveAspectRatio="xMidYMid meet">

<g transform="translate(0.000000,256.000000) scale(0.100000,-0.100000)"
fill="#000000" stroke="none">
<path d="M80 1646 l0 -674 197 -156 c109 -86 201 -156 205 -156 4 0 9 211 10
469 l3 470 385 -254 c212 -140 390 -255 395 -255 6 0 278 144 605 319 l595
319 3 297 2 297 -22 -14 c-13 -8 -283 -169 -601 -358 -517 -306 -581 -342
-602 -332 -12 6 -261 153 -551 328 -291 174 -550 330 -576 345 l-48 28 0 -673z"/>
<path d="M1873 1027 l-603 -322 0 -247 c0 -162 4 -248 10 -248 11 0 1179 636
1193 649 4 4 6 116 5 249 l-3 241 -602 -322z"/>
</g>
</svg>
