<?xml version="1.0" standalone="no"?>
<!DOCTYPE svg PUBLIC "-//W3C//DTD SVG 20010904//EN"
 "http://www.w3.org/TR/2001/REC-SVG-20010904/DTD/svg10.dtd">
<svg version="1.0" xmlns="http://www.w3.org/2000/svg"
 width="256.000000pt" height="256.000000pt" viewBox="0 0 256.000000 256.000000"
 preserveAspectRatio="xMidYMid meet">

<g transform="translate(0.000000,256.000000) scale(0.100000,-0.100000)"
fill="#000000" stroke="none">
<path d="M1030 2464 c-38 -14 -114 -86 -473 -443 -302 -301 -434 -439 -450
-471 -31 -63 -31 -177 0 -236 66 -124 204 -181 334 -139 50 16 82 45 482 444
285 284 434 440 448 467 64 133 7 299 -126 366 -53 28 -155 33 -215 12z"/>
<path d="M1275 1630 c-38 -15 -81 -51 -183 -152 -73 -73 -143 -151 -155 -173
-31 -57 -31 -183 0 -241 66 -124 194 -178 328 -139 54 15 70 28 193 148 143
141 179 193 189 276 12 103 -55 224 -151 273 -59 30 -157 34 -221 8z"/>
<path d="M2115 1385 c-22 -8 -42 -15 -45 -15 -15 0 -865 -862 -883 -895 -17
-31 -22 -57 -22 -120 0 -71 3 -86 31 -135 48 -84 141 -140 235 -140 19 0 60 7
90 16 52 15 72 34 476 436 274 274 430 437 447 467 116 215 -100 468 -329 386z"/>
</g>
</svg>
