<?xml version="1.0" standalone="no"?>
<!DOCTYPE svg PUBLIC "-//W3C//DTD SVG 20010904//EN"
 "http://www.w3.org/TR/2001/REC-SVG-20010904/DTD/svg10.dtd">
<svg version="1.0" xmlns="http://www.w3.org/2000/svg"
 width="256.000000pt" height="256.000000pt" viewBox="0 0 256.000000 256.000000"
 preserveAspectRatio="xMidYMid meet">

<g transform="translate(0.000000,256.000000) scale(0.100000,-0.100000)"
fill="#000000" stroke="none">
<path d="M440 2389 c-68 -27 -100 -85 -108 -191 l-5 -79 -46 -24 c-58 -29
-136 -111 -161 -169 -39 -93 -41 -134 -38 -921 l3 -760 150 0 150 0 3 916 c2
861 3 917 20 924 26 11 205 17 220 7 8 -5 40 -220 92 -628 44 -340 88 -644 96
-674 36 -124 114 -219 217 -265 34 -15 63 -28 64 -29 1 -1 7 -39 13 -86 15
-108 32 -145 85 -175 76 -45 174 -26 221 43 14 21 25 61 33 124 7 51 13 93 14
94 1 0 28 13 59 27 109 49 189 146 223 272 9 33 52 336 95 674 53 410 84 617
92 623 15 10 193 4 221 -7 16 -7 17 -60 17 -921 l0 -914 155 0 155 0 0 765 c0
523 -4 781 -11 817 -25 119 -97 219 -191 265 l-45 23 -6 78 c-2 44 -12 93 -21
109 -34 67 -107 103 -178 89 -76 -14 -128 -73 -143 -161 -16 -96 -14 -93 -71
-119 -114 -52 -203 -168 -239 -311 -8 -33 -48 -329 -89 -658 -40 -329 -77
-601 -81 -605 -9 -9 -241 -9 -250 0 -4 4 -41 276 -81 605 -41 329 -81 625 -90
658 -36 144 -116 250 -230 306 -66 33 -65 31 -79 124 -3 22 -16 58 -28 80 -37
68 -135 102 -207 74z"/>
</g>
</svg>
