<?xml version="1.0" standalone="no"?>
<!DOCTYPE svg PUBLIC "-//W3C//DTD SVG 20010904//EN"
 "http://www.w3.org/TR/2001/REC-SVG-20010904/DTD/svg10.dtd">
<svg version="1.0" xmlns="http://www.w3.org/2000/svg"
 width="256.000000pt" height="256.000000pt" viewBox="0 0 256.000000 256.000000"
 preserveAspectRatio="xMidYMid meet">

<g transform="translate(0.000000,256.000000) scale(0.100000,-0.100000)"
fill="#000000" stroke="none">
<path d="M1310 2285 c0 -107 -3 -195 -7 -195 -5 0 -78 18 -163 40 -85 22 -156
40 -157 40 -2 0 -3 -85 -3 -190 0 -104 -2 -190 -5 -190 -3 0 -76 16 -162 35
-86 19 -160 35 -165 35 -4 0 -7 -275 -6 -612 l3 -611 165 -51 165 -52 3 -184
2 -185 153 -39 c83 -22 158 -41 164 -44 10 -3 13 42 15 191 l3 195 155 -39
c85 -21 163 -38 173 -39 16 0 17 16 17 190 0 138 3 190 12 190 6 0 76 -18 154
-40 79 -22 145 -40 149 -40 3 0 5 278 5 618 l0 619 -127 33 c-71 18 -143 37
-160 42 l-33 9 -2 187 -3 186 -170 48 c-93 26 -171 48 -172 48 -2 0 -3 -88 -3
-195z m88 -865 c6 0 1 -729 -5 -733 -5 -2 -117 25 -250 61 l-243 65 0 368 0
367 248 -64 c136 -35 248 -64 250 -64z"/>
</g>
</svg>
