<?xml version="1.0" standalone="no"?>
<!DOCTYPE svg PUBLIC "-//W3C//DTD SVG 20010904//EN"
 "http://www.w3.org/TR/2001/REC-SVG-20010904/DTD/svg10.dtd">
<svg version="1.0" xmlns="http://www.w3.org/2000/svg"
 width="256.000000pt" height="256.000000pt" viewBox="0 0 256.000000 256.000000"
 preserveAspectRatio="xMidYMid meet">

<g transform="translate(0.000000,256.000000) scale(0.100000,-0.100000)"
fill="#000000" stroke="none">
<path d="M1617 1889 c-9 -13 -84 -141 -167 -284 -83 -143 -155 -264 -159 -268
-5 -4 -86 75 -181 177 -96 103 -177 186 -180 186 -4 0 -89 -117 -189 -260
-136 -195 -243 -332 -418 -538 l-236 -277 1188 -3 c654 -1 1190 0 1192 2 3 2
-71 105 -163 228 -143 189 -205 285 -412 633 -134 225 -247 414 -252 419 -4 4
-15 -2 -23 -15z m-7 -408 l0 -199 -67 -74 c-107 -118 -235 -250 -238 -246 -2
2 1 54 6 117 l10 113 142 244 c78 134 143 244 145 244 1 0 2 -90 2 -199z m316
-248 c-1 -2 -60 5 -132 15 l-129 17 -2 210 -3 210 134 -225 c74 -124 133 -226
132 -227z m-817 142 l161 -170 -6 -110 c-4 -60 -10 -118 -13 -128 -6 -15 -31
7 -133 120 -69 76 -140 151 -157 167 l-31 30 0 134 c0 80 4 132 9 130 6 -1 82
-79 170 -173z m-225 -2 l-1 -88 -93 -48 c-50 -27 -94 -47 -96 -44 -6 5 176
267 185 267 3 0 5 -39 5 -87z m48 -322 c-178 -257 -229 -326 -237 -324 -5 0
-42 62 -82 137 -56 104 -71 141 -64 154 22 41 85 85 216 150 l140 70 47 -46
47 -45 -67 -96z m891 -102 c92 -125 167 -229 167 -233 0 -3 -72 -6 -160 -6
l-160 0 -162 86 c-90 48 -169 90 -176 94 -10 5 33 56 138 169 l152 161 17 -22
c10 -13 93 -125 184 -249z m66 237 c74 -11 75 -11 103 -58 l29 -46 -3 -157 -3
-157 -46 64 c-25 34 -98 134 -163 221 l-117 159 63 -7 c35 -4 96 -12 137 -19z
m-744 -199 l97 -107 -53 -85 -54 -85 -187 0 c-104 0 -188 2 -188 5 0 15 274
394 280 388 4 -5 51 -56 105 -116z m1035 -130 c55 -74 100 -137 100 -140 0 -4
-47 -7 -105 -7 l-105 0 0 140 c0 77 2 140 5 140 3 0 50 -60 105 -133z m-1611
-12 c34 -63 61 -119 61 -125 0 -6 -61 -10 -166 -10 -118 0 -165 3 -162 11 5
16 191 238 200 238 3 1 34 -51 67 -114z m842 -51 c68 -37 128 -70 134 -75 5
-5 -65 -9 -168 -9 -97 0 -177 3 -177 6 0 5 83 144 86 144 0 0 56 -30 125 -66z"/>
</g>
</svg>
