<?xml version="1.0" standalone="no"?>
<!DOCTYPE svg PUBLIC "-//W3C//DTD SVG 20010904//EN"
 "http://www.w3.org/TR/2001/REC-SVG-20010904/DTD/svg10.dtd">
<svg version="1.0" xmlns="http://www.w3.org/2000/svg"
 width="256.000000pt" height="256.000000pt" viewBox="0 0 256.000000 256.000000"
 preserveAspectRatio="xMidYMid meet">

<g transform="translate(0.000000,256.000000) scale(0.100000,-0.100000)"
fill="#000000" stroke="none">
<path d="M1250 2471 c-42 -6 -47 -9 -70 -56 -13 -27 -53 -156 -87 -285 l-62
-235 42 -39 c140 -128 167 -149 213 -157 l47 -9 83 75 c97 88 91 69 99 335 l6
185 -94 98 c-60 61 -101 96 -113 95 -10 0 -39 -4 -64 -7z"/>
<path d="M678 1379 l-198 -99 0 -253 0 -252 98 -98 c53 -53 100 -97 104 -97 3
0 57 43 120 95 l113 94 3 -149 3 -149 175 -195 175 -196 53 58 c29 31 110 120
179 196 l126 140 3 147 3 148 119 -97 119 -97 98 105 98 105 1 250 0 250 -195
98 -195 97 -403 -1 -402 0 -197 -100z m773 -9 c19 -5 43 -16 53 -23 17 -12 17
-15 2 -29 -27 -28 -120 -40 -265 -36 -92 3 -146 9 -166 18 -98 49 31 94 240
84 55 -2 116 -9 136 -14z"/>
</g>
</svg>
