<?xml version="1.0" standalone="no"?>
<!DOCTYPE svg PUBLIC "-//W3C//DTD SVG 20010904//EN"
 "http://www.w3.org/TR/2001/REC-SVG-20010904/DTD/svg10.dtd">
<svg version="1.0" xmlns="http://www.w3.org/2000/svg"
 width="256.000000pt" height="256.000000pt" viewBox="0 0 256.000000 256.000000"
 preserveAspectRatio="xMidYMid meet">

<g transform="translate(0.000000,256.000000) scale(0.100000,-0.100000)"
fill="#000000" stroke="none">
<path d="M145 1911 c-11 -5 -29 -19 -40 -31 -19 -21 -20 -38 -23 -606 l-2
-584 95 0 95 0 2 480 3 479 362 -272 362 -272 1 -207 0 -208 95 0 95 0 0 229
c0 142 -4 240 -11 260 -9 26 -95 95 -452 364 -242 183 -456 342 -476 354 -37
24 -71 28 -106 14z"/>
<path d="M2309 1898 c-20 -13 -234 -172 -476 -355 -357 -269 -443 -338 -452
-364 -7 -20 -11 -118 -11 -260 l0 -229 95 0 95 0 0 208 1 207 362 272 362 272
3 -479 2 -480 95 0 95 0 -2 585 -3 585 -26 26 c-37 37 -94 42 -140 12z"/>
</g>
</svg>
