<?xml version="1.0" standalone="no"?>
<!DOCTYPE svg PUBLIC "-//W3C//DTD SVG 20010904//EN"
 "http://www.w3.org/TR/2001/REC-SVG-20010904/DTD/svg10.dtd">
<svg version="1.0" xmlns="http://www.w3.org/2000/svg"
 width="256.000000pt" height="256.000000pt" viewBox="0 0 256.000000 256.000000"
 preserveAspectRatio="xMidYMid meet">

<g transform="translate(0.000000,256.000000) scale(0.100000,-0.100000)"
fill="#000000" stroke="none">
<path d="M82 1329 l3 -351 28 -24 c25 -22 37 -24 122 -24 l95 0 2 160 3 159
75 -94 c41 -52 78 -94 82 -94 4 -1 40 43 80 96 l73 96 3 -161 2 -162 86 0 c90
0 135 14 154 49 6 13 10 146 10 361 l0 341 -127 -3 -127 -3 -72 -119 c-40 -65
-75 -120 -78 -123 -3 -3 -42 52 -86 121 l-82 126 -124 0 -125 0 3 -351z"/>
<path d="M972 1616 c7 -79 16 -86 109 -86 76 0 80 1 89 26 6 14 10 45 10 70
l0 44 -106 0 -106 0 4 -54z"/>
<path d="M1270 1334 c0 -211 4 -342 10 -355 21 -39 62 -49 195 -49 l125 0 0
104 0 104 -56 4 c-32 3 -60 11 -66 19 -5 8 -8 111 -5 262 l4 247 -104 0 -103
0 0 -336z"/>
<path d="M1840 1345 c0 -358 2 -370 60 -400 18 -9 56 -15 100 -15 l70 0 0 53
c0 44 4 58 24 76 l24 23 31 -65 c17 -35 37 -70 45 -76 15 -12 243 -17 255 -6
3 3 -31 80 -76 170 l-82 163 89 124 c49 67 90 126 90 131 0 4 -55 7 -123 7
l-123 0 -69 -85 c-37 -47 -72 -85 -77 -85 -4 0 -8 70 -8 155 l0 155 -115 0
-115 0 0 -325z"/>
<path d="M988 1453 c-16 -4 -18 -23 -18 -221 0 -197 2 -220 20 -249 10 -17 29
-37 41 -43 34 -19 100 -6 126 25 22 25 23 32 23 254 l0 229 -31 6 c-35 7 -134
6 -161 -1z"/>
<path d="M1677 1003 c-12 -12 -7 -50 7 -63 8 -6 25 -10 38 -8 19 2 24 10 26
41 3 36 2 37 -31 37 -18 0 -37 -3 -40 -7z"/>
</g>
</svg>
