<?xml version="1.0" standalone="no"?>
<!DOCTYPE svg PUBLIC "-//W3C//DTD SVG 20010904//EN"
 "http://www.w3.org/TR/2001/REC-SVG-20010904/DTD/svg10.dtd">
<svg version="1.0" xmlns="http://www.w3.org/2000/svg"
 width="256.000000pt" height="256.000000pt" viewBox="0 0 256.000000 256.000000"
 preserveAspectRatio="xMidYMid meet">

<g transform="translate(0.000000,256.000000) scale(0.100000,-0.100000)"
fill="#000000" stroke="none">
<path d="M1470 2064 c-42 -18 -86 -58 -108 -99 -15 -26 -17 -74 -20 -347 l-3
-318 -205 0 -204 0 0 213 c0 193 -2 215 -20 244 -37 62 -116 81 -178 43 -56
-34 -62 -64 -62 -295 l0 -205 -167 2 -168 3 -5 93 c-5 90 -6 95 -37 122 -43
39 -91 47 -138 24 -58 -27 -75 -64 -75 -161 l0 -83 125 0 125 0 0 -97 c0 -115
11 -161 47 -204 74 -87 214 -74 270 26 20 35 23 54 23 158 l0 117 130 0 130 0
0 -302 c0 -184 4 -318 11 -342 6 -22 29 -56 53 -81 94 -94 240 -78 317 33 l24
35 3 329 3 328 199 0 200 0 0 -243 c0 -216 2 -246 18 -276 48 -89 171 -93 222
-8 18 29 20 52 20 280 l0 247 115 0 115 0 0 -85 c0 -82 1 -87 33 -121 58 -64
152 -55 197 19 15 24 20 50 20 110 l0 77 -125 0 -125 0 0 226 c0 253 -4 269
-69 300 -31 15 -40 15 -75 3 -25 -9 -49 -27 -63 -48 -22 -33 -23 -41 -23 -257
l0 -224 -130 0 -130 0 0 313 c0 282 -2 316 -19 352 -44 96 -156 140 -251 99z"/>
</g>
</svg>
