<?xml version="1.0" standalone="no"?>
<!DOCTYPE svg PUBLIC "-//W3C//DTD SVG 20010904//EN"
 "http://www.w3.org/TR/2001/REC-SVG-20010904/DTD/svg10.dtd">
<svg version="1.0" xmlns="http://www.w3.org/2000/svg"
 width="256.000000pt" height="256.000000pt" viewBox="0 0 256.000000 256.000000"
 preserveAspectRatio="xMidYMid meet">

<g transform="translate(0.000000,256.000000) scale(0.100000,-0.100000)"
fill="#000000" stroke="none">
<path d="M1340 2384 c-106 -28 -310 -150 -310 -187 0 -21 86 -128 136 -169 96
-79 194 -112 329 -110 133 1 310 55 423 128 l22 15 -39 57 c-154 227 -352 321
-561 266z"/>
<path d="M885 1994 c-38 -9 -108 -34 -155 -56 -68 -33 -101 -57 -171 -127 -73
-74 -93 -101 -138 -191 -74 -152 -94 -234 -95 -405 -1 -117 3 -152 21 -217
100 -342 381 -616 772 -752 178 -62 281 -79 486 -80 193 -1 253 9 362 59 116
53 201 170 211 291 6 84 -9 123 -80 202 -127 142 -197 273 -283 527 -91 270
-164 407 -287 538 -32 34 -40 37 -89 37 -124 0 -257 53 -351 139 -63 58 -80
61 -203 35z"/>
</g>
</svg>
