<?xml version="1.0" standalone="no"?>
<!DOCTYPE svg PUBLIC "-//W3C//DTD SVG 20010904//EN"
 "http://www.w3.org/TR/2001/REC-SVG-20010904/DTD/svg10.dtd">
<svg version="1.0" xmlns="http://www.w3.org/2000/svg"
 width="256.000000pt" height="256.000000pt" viewBox="0 0 256.000000 256.000000"
 preserveAspectRatio="xMidYMid meet">

<g transform="translate(0.000000,256.000000) scale(0.100000,-0.100000)"
fill="#000000" stroke="none">
<path d="M610 2153 c-36 -15 -72 -47 -94 -86 -25 -43 -436 -1568 -436 -1618 0
-25 23 -65 50 -86 23 -19 69 -15 101 8 16 11 149 158 295 325 147 167 270 304
273 304 4 0 29 -26 56 -58 194 -227 313 -356 347 -373 48 -24 108 -24 156 0
34 17 153 146 347 374 27 31 52 57 56 57 3 0 126 -137 273 -304 146 -167 279
-314 295 -325 32 -23 78 -27 101 -8 27 21 50 61 50 86 0 50 -411 1575 -436
1618 -38 66 -77 88 -154 88 -45 -1 -76 -7 -101 -20 -23 -13 -125 -122 -268
-287 -128 -148 -236 -268 -241 -268 -5 0 -113 120 -241 268 -144 166 -245 274
-267 286 -36 19 -135 31 -162 19z"/>
</g>
</svg>
