<?xml version="1.0" standalone="no"?>
<!DOCTYPE svg PUBLIC "-//W3C//DTD SVG 20010904//EN"
 "http://www.w3.org/TR/2001/REC-SVG-20010904/DTD/svg10.dtd">
<svg version="1.0" xmlns="http://www.w3.org/2000/svg"
 width="256.000000pt" height="256.000000pt" viewBox="0 0 256.000000 256.000000"
 preserveAspectRatio="xMidYMid meet">

<g transform="translate(0.000000,256.000000) scale(0.100000,-0.100000)"
fill="#000000" stroke="none">
<path d="M1092 2384 c-467 -78 -840 -455 -917 -925 -122 -752 532 -1406 1284
-1284 475 77 849 451 926 926 48 301 -29 610 -213 855 -249 330 -670 497
-1080 428z m375 -179 c376 -80 658 -362 738 -738 18 -82 20 -281 4 -360 l-12
-57 -594 0 -595 0 -29 25 c-82 68 -213 18 -233 -89 -9 -50 22 -119 66 -146 56
-34 149 -22 187 24 12 14 77 16 572 16 308 0 559 -3 559 -7 0 -12 -62 -117
-93 -158 -140 -185 -341 -312 -570 -360 -88 -19 -286 -19 -374 0 -383 81 -672
377 -743 760 -6 33 -10 116 -8 185 l3 125 604 3 603 2 33 -29 c18 -15 49 -31
69 -35 50 -9 119 22 146 66 26 43 26 113 0 155 -46 76 -161 91 -220 28 l-23
-25 -584 0 -584 0 6 23 c14 44 95 188 139 245 133 174 332 298 556 348 78 17
294 17 377 -1z"/>
</g>
</svg>
