<?xml version="1.0" standalone="no"?>
<!DOCTYPE svg PUBLIC "-//W3C//DTD SVG 20010904//EN"
 "http://www.w3.org/TR/2001/REC-SVG-20010904/DTD/svg10.dtd">
<svg version="1.0" xmlns="http://www.w3.org/2000/svg"
 width="256.000000pt" height="256.000000pt" viewBox="0 0 256.000000 256.000000"
 preserveAspectRatio="xMidYMid meet">

<g transform="translate(0.000000,256.000000) scale(0.100000,-0.100000)"
fill="#000000" stroke="none">
<path d="M1280 2395 c-8 -2 -49 -9 -90 -15 -220 -36 -466 -161 -625 -317 -226
-221 -335 -501 -322 -828 13 -328 121 -597 327 -818 116 -124 301 -257 357
-257 23 0 63 43 63 67 0 21 -44 58 -135 115 -162 102 -322 299 -401 491 -61
151 -78 247 -78 447 0 202 15 274 84 419 55 114 113 193 210 284 133 125 279
204 480 260 63 17 103 21 255 20 163 0 189 -2 279 -26 126 -34 261 -100 350
-171 74 -60 94 -64 129 -24 28 33 20 58 -32 109 -122 118 -344 210 -571 238
-76 10 -242 13 -280 6z m871 -286 c8 -16 8 -28 0 -45 -15 -34 -67 -34 -82 0
-16 35 3 66 41 66 20 0 33 -7 41 -21z"/>
<path d="M1267 2085 c-310 -52 -522 -205 -652 -469 -69 -139 -88 -224 -88
-391 0 -111 5 -156 21 -218 23 -84 80 -206 133 -284 79 -116 269 -272 355
-289 40 -8 77 21 77 61 0 33 -13 44 -105 95 -123 69 -250 221 -307 370 -134
348 16 759 332 915 134 66 222 86 406 92 132 5 156 8 172 24 27 27 24 64 -7
88 -24 19 -40 21 -143 20 -64 -1 -151 -7 -194 -14z m333 -25 c22 -41 -13 -80
-59 -65 -25 8 -35 38 -21 65 15 27 65 27 80 0z"/>
<path d="M1268 1825 c-48 -8 -97 -19 -108 -25 -23 -12 -35 -49 -25 -79 12 -39
38 -43 147 -25 185 31 350 2 445 -79 139 -119 189 -231 182 -407 -5 -111 -49
-207 -138 -302 -106 -114 -219 -168 -349 -168 -160 0 -332 95 -409 228 -60
102 -84 251 -63 397 12 81 11 88 -6 105 -32 31 -77 30 -98 -3 -9 -12 -21 -66
-27 -119 -34 -272 76 -522 284 -646 267 -161 586 -102 789 145 99 120 148 248
148 389 0 169 -59 314 -175 429 -78 77 -159 125 -251 149 -89 23 -243 28 -346
11z m-347 -355 c23 -13 26 -62 3 -80 -11 -10 -23 -11 -42 -4 -36 13 -42 56
-10 78 27 19 24 19 49 6z"/>
<path d="M1335 1556 c-107 -27 -185 -90 -229 -185 -17 -37 -21 -65 -21 -149 0
-114 9 -132 65 -132 46 0 60 27 60 116 1 130 47 198 152 224 95 24 175 -7 233
-89 28 -40 30 -49 30 -130 0 -81 -2 -91 -29 -130 -64 -92 -187 -123 -283 -73
-54 28 -88 28 -107 0 -33 -47 -9 -91 67 -123 175 -73 358 -9 448 157 33 60 34
67 34 168 0 94 -3 111 -28 161 -32 66 -109 142 -170 169 -57 25 -159 33 -222
16z m-34 -567 c18 -34 -3 -69 -41 -69 -22 0 -33 6 -41 24 -16 35 3 66 41 66
20 0 33 -7 41 -21z"/>
<path d="M2188 1130 c-9 -6 -29 -47 -44 -93 -53 -160 -127 -282 -235 -381 -55
-52 -104 -80 -220 -129 -41 -17 -57 -54 -39 -88 17 -31 49 -38 105 -22 202 59
395 264 490 521 49 131 51 147 21 177 -26 26 -50 31 -78 15z"/>
</g>
</svg>
