<?xml version="1.0" standalone="no"?>
<!DOCTYPE svg PUBLIC "-//W3C//DTD SVG 20010904//EN"
 "http://www.w3.org/TR/2001/REC-SVG-20010904/DTD/svg10.dtd">
<svg version="1.0" xmlns="http://www.w3.org/2000/svg"
 width="256.000000pt" height="256.000000pt" viewBox="0 0 256.000000 256.000000"
 preserveAspectRatio="xMidYMid meet">

<g transform="translate(0.000000,256.000000) scale(0.100000,-0.100000)"
fill="#000000" stroke="none">
<path d="M961 2463 c-65 -23 -136 -98 -155 -164 -20 -65 -20 -92 -1 -155 28
-94 136 -184 221 -184 36 0 33 9 64 -160 11 -63 23 -122 26 -131 3 -12 -11
-25 -49 -47 -115 -65 -180 -178 -180 -312 0 -111 29 -178 110 -257 l64 -62
-77 -198 c-42 -109 -87 -225 -100 -258 l-24 -60 -68 0 c-57 0 -75 -4 -108 -26
l-39 -26 -43 30 c-38 27 -42 34 -35 57 4 14 8 50 8 81 0 66 -31 115 -91 144
-50 23 -129 17 -174 -15 -37 -26 -69 -90 -70 -138 -1 -111 118 -197 224 -162
33 11 38 9 85 -26 l51 -38 -6 -53 c-13 -107 69 -208 180 -220 175 -20 286 195
169 328 -12 14 -1 49 90 285 74 191 109 268 118 265 8 -2 48 -4 89 -4 84 1
138 17 203 62 l44 30 195 -197 c166 -167 195 -200 188 -217 -15 -36 -10 -128
9 -171 10 -22 37 -56 61 -76 108 -93 274 -65 347 59 36 62 39 156 6 219 -60
113 -195 157 -309 99 l-48 -25 -195 195 -195 194 18 38 c60 126 30 290 -74
393 -56 56 -116 86 -205 103 l-69 12 -29 150 -28 150 22 15 c88 58 129 131
129 227 0 104 -44 180 -131 228 -64 35 -153 42 -218 18z m177 -110 c98 -72 96
-212 -4 -271 -48 -28 -130 -26 -172 4 -32 24 -72 98 -72 134 0 45 42 113 85
138 49 28 122 26 163 -5z m191 -872 c55 -28 93 -82 99 -140 7 -80 -4 -118 -52
-165 -82 -83 -203 -81 -279 3 -32 36 -57 92 -57 131 0 58 52 144 104 172 57
31 124 30 185 -1z m832 -814 c39 -26 66 -89 55 -131 -11 -43 -66 -96 -106
-102 -81 -13 -150 49 -150 135 0 37 6 49 39 82 33 34 45 39 83 39 30 0 56 -8
79 -23z m-1700 -10 c44 -33 50 -93 15 -134 -34 -39 -98 -39 -132 0 -31 37 -31
78 2 116 20 24 34 31 62 31 21 0 44 -6 53 -13z m406 -312 c25 -28 30 -82 13
-116 -13 -24 -61 -49 -94 -49 -35 0 -84 45 -92 85 -7 38 16 87 50 104 35 18
98 6 123 -24z"/>
</g>
</svg>
