<?xml version="1.0" standalone="no"?>
<!DOCTYPE svg PUBLIC "-//W3C//DTD SVG 20010904//EN"
 "http://www.w3.org/TR/2001/REC-SVG-20010904/DTD/svg10.dtd">
<svg version="1.0" xmlns="http://www.w3.org/2000/svg"
 width="256.000000pt" height="256.000000pt" viewBox="0 0 256.000000 256.000000"
 preserveAspectRatio="xMidYMid meet">

<g transform="translate(0.000000,256.000000) scale(0.100000,-0.100000)"
fill="#000000" stroke="none">
<path d="M537 2272 c-3 -20 -22 -172 -43 -337 l-37 -301 -46 -31 c-125 -87
-224 -201 -280 -325 -164 -361 87 -754 595 -931 172 -60 285 -79 498 -85 257
-6 417 16 621 89 499 176 747 569 584 927 -56 125 -147 231 -279 324 l-56 39
-38 317 c-22 174 -42 325 -46 335 -5 14 -48 -35 -194 -222 -103 -133 -192
-243 -197 -247 -5 -3 -35 0 -66 6 -137 26 -412 23 -584 -6 l-35 -6 -188 241
c-103 132 -191 243 -196 246 -4 2 -10 -12 -13 -33z m333 -767 c21 -25 -3 -61
-55 -84 -26 -11 -68 -38 -93 -59 -57 -47 -132 -95 -139 -89 -10 10 42 93 89
143 49 51 134 104 169 104 9 0 22 -7 29 -15z m928 -7 c59 -28 139 -107 175
-175 16 -29 25 -53 22 -53 -15 0 -69 34 -119 75 -30 24 -82 58 -115 75 -53 26
-61 34 -61 58 0 50 24 54 98 20z m-709 -235 l43 -53 156 0 157 0 48 59 48 60
35 -21 c20 -12 33 -26 30 -33 -13 -36 -312 -494 -320 -492 -5 2 -81 115 -168
252 l-158 249 37 23 c21 12 40 19 43 15 4 -4 26 -31 49 -59z"/>
<path d="M1173 1126 c9 -22 108 -156 115 -156 12 1 121 157 115 164 -4 3 -58
6 -121 6 -95 0 -113 -2 -109 -14z"/>
</g>
</svg>
