<?xml version="1.0" standalone="no"?>
<!DOCTYPE svg PUBLIC "-//W3C//DTD SVG 20010904//EN"
 "http://www.w3.org/TR/2001/REC-SVG-20010904/DTD/svg10.dtd">
<svg version="1.0" xmlns="http://www.w3.org/2000/svg"
 width="256.000000pt" height="256.000000pt" viewBox="0 0 256.000000 256.000000"
 preserveAspectRatio="xMidYMid meet">

<g transform="translate(0.000000,256.000000) scale(0.100000,-0.100000)"
fill="#000000" stroke="none">
<path d="M715 2228 c-3 -7 -146 -437 -319 -955 l-314 -943 241 0 242 0 164
523 c90 287 167 525 170 530 4 4 63 -230 132 -520 l124 -528 118 0 117 0 298
535 297 535 248 3 247 2 0 415 0 415 -247 0 -248 0 -280 -500 c-159 -285 -282
-494 -286 -487 -4 6 -64 231 -135 500 l-128 487 -218 0 c-166 0 -220 -3 -223
-12z"/>
<path d="M1975 998 c-3 -7 -4 -162 -3 -343 l3 -330 235 0 235 0 0 340 0 340
-233 3 c-181 2 -234 0 -237 -10z"/>
</g>
</svg>
