<?xml version="1.0" standalone="no"?>
<!DOCTYPE svg PUBLIC "-//W3C//DTD SVG 20010904//EN"
 "http://www.w3.org/TR/2001/REC-SVG-20010904/DTD/svg10.dtd">
<svg version="1.0" xmlns="http://www.w3.org/2000/svg"
 width="256.000000pt" height="256.000000pt" viewBox="0 0 256.000000 256.000000"
 preserveAspectRatio="xMidYMid meet">

<g transform="translate(0.000000,256.000000) scale(0.100000,-0.100000)"
fill="#000000" stroke="none">
<path d="M1125 2473 c-449 -61 -747 -400 -780 -888 -3 -49 -2 -102 2 -116 l8
-27 87 58 c133 87 198 105 388 105 232 -1 325 -32 517 -177 162 -122 244 -152
418 -152 124 0 221 27 292 81 67 51 72 60 73 131 0 85 -27 343 -45 419 -52
224 -265 448 -502 526 -120 40 -327 58 -458 40z"/>
<path d="M692 1461 c-109 -27 -232 -92 -307 -163 -71 -65 -80 -93 -45 -128 31
-31 54 -25 116 30 154 135 345 186 544 146 106 -22 195 -63 335 -156 227 -151
263 -165 430 -164 160 1 303 46 397 124 42 35 51 76 22 104 -24 25 -57 19
-113 -18 -86 -58 -152 -78 -277 -84 -150 -6 -186 6 -359 119 -249 163 -374
210 -564 208 -66 0 -134 -7 -179 -18z"/>
<path d="M890 1242 c-20 -17 -20 -21 -18 -582 l3 -565 29 -10 c24 -8 31 -6 47
14 18 22 19 48 19 570 0 423 -3 551 -12 563 -20 24 -45 28 -68 10z"/>
<path d="M672 1228 c-17 -17 -17 -549 0 -566 19 -19 66 -15 78 7 6 12 10 120
10 280 0 223 -2 262 -16 275 -18 19 -55 21 -72 4z"/>
<path d="M1116 1164 c-14 -13 -16 -50 -16 -245 0 -140 4 -238 10 -250 12 -22
59 -26 78 -7 9 9 12 78 12 249 0 203 -2 240 -16 253 -8 9 -24 16 -34 16 -10 0
-26 -7 -34 -16z"/>
<path d="M440 1111 c-6 -12 -10 -101 -10 -221 0 -120 4 -209 10 -221 7 -12 21
-19 40 -19 19 0 33 7 40 19 6 12 10 101 10 221 0 120 -4 209 -10 221 -7 12
-21 19 -40 19 -19 0 -33 -7 -40 -19z"/>
<path d="M1332 1034 c-20 -14 -22 -24 -22 -99 0 -88 12 -115 50 -115 38 0 50
27 50 115 0 75 -2 85 -22 99 -12 9 -25 16 -28 16 -3 0 -16 -7 -28 -16z"/>
<path d="M1977 952 c-13 -15 -17 -39 -17 -116 0 -111 9 -136 48 -136 46 0 52
15 52 135 0 73 -4 115 -12 123 -18 18 -53 15 -71 -6z"/>
<path d="M1536 944 c-14 -13 -16 -56 -16 -313 0 -276 1 -299 18 -314 24 -22
45 -21 65 1 15 16 17 53 17 314 0 273 -1 296 -18 311 -23 21 -46 22 -66 1z"/>
<path d="M1782 908 c-17 -17 -17 -489 0 -506 15 -15 51 -15 66 0 9 9 12 79 12
253 0 253 -2 265 -45 265 -12 0 -26 -5 -33 -12z"/>
</g>
</svg>
