<?xml version="1.0" standalone="no"?>
<!DOCTYPE svg PUBLIC "-//W3C//DTD SVG 20010904//EN"
 "http://www.w3.org/TR/2001/REC-SVG-20010904/DTD/svg10.dtd">
<svg version="1.0" xmlns="http://www.w3.org/2000/svg"
 width="256.000000pt" height="256.000000pt" viewBox="0 0 256.000000 256.000000"
 preserveAspectRatio="xMidYMid meet">

<g transform="translate(0.000000,256.000000) scale(0.100000,-0.100000)"
fill="#000000" stroke="none">
<path d="M1777 2150 c-218 -39 -357 -122 -596 -354 -222 -216 -362 -338 -380
-330 -34 13 -170 33 -231 34 -121 0 -235 -43 -328 -124 -97 -86 -168 -249
-159 -363 6 -75 41 -141 95 -178 80 -55 244 -83 372 -65 l35 5 52 -144 c52
-142 66 -171 85 -171 5 0 71 24 146 54 264 104 368 128 927 210 242 36 450 68
462 71 37 9 36 43 -6 175 l-39 125 21 15 c82 58 133 133 189 276 65 168 73
305 25 442 -52 149 -162 258 -306 303 -75 23 -282 34 -364 19z m316 -95 c123
-32 198 -95 256 -215 35 -72 36 -79 36 -185 0 -94 -4 -123 -28 -197 -56 -168
-137 -278 -207 -278 -37 0 -42 9 -21 39 23 32 51 124 51 168 0 32 -1 33 -39
33 -38 0 -39 -1 -46 -42 -17 -108 -80 -188 -146 -188 -44 0 -44 1 -29 81 11
56 -3 173 -21 185 -5 3 -25 0 -44 -6 -32 -10 -34 -14 -27 -38 9 -34 9 -136 -1
-184 -8 -36 -8 -36 -70 -43 -62 -7 -326 -57 -382 -73 -31 -9 -33 -19 -15 -67
l9 -23 75 19 c198 51 490 80 621 62 l59 -8 33 -109 c18 -60 31 -111 29 -113
-2 -2 -199 -33 -437 -69 -239 -36 -481 -76 -539 -90 -103 -25 -305 -91 -406
-132 l-51 -20 -43 121 c-41 112 -43 121 -26 131 47 29 47 29 21 63 l-25 32
-57 -26 c-107 -49 -295 -40 -390 18 -50 31 -66 70 -61 149 7 135 96 263 227
327 53 26 64 28 188 28 72 0 135 -4 140 -8 4 -5 -4 -18 -20 -29 -33 -24 -34
-38 -2 -68 29 -27 13 -36 165 95 148 127 205 180 369 337 209 203 319 275 485
318 91 24 286 27 369 5z"/>
<path d="M1117 904 c-84 -20 -257 -94 -257 -110 0 -20 22 -64 32 -64 4 0 50
18 101 39 50 22 118 45 150 52 32 7 60 15 62 19 8 13 -8 80 -19 79 -6 0 -37
-7 -69 -15z"/>
</g>
</svg>
