<?xml version="1.0" standalone="no"?>
<!DOCTYPE svg PUBLIC "-//W3C//DTD SVG 20010904//EN"
 "http://www.w3.org/TR/2001/REC-SVG-20010904/DTD/svg10.dtd">
<svg version="1.0" xmlns="http://www.w3.org/2000/svg"
 width="256.000000pt" height="256.000000pt" viewBox="0 0 256.000000 256.000000"
 preserveAspectRatio="xMidYMid meet">

<g transform="translate(0.000000,256.000000) scale(0.100000,-0.100000)"
fill="#000000" stroke="none">
<path d="M810 2305 c-325 -73 -549 -315 -631 -681 -18 -79 -18 -339 0 -429 50
-254 165 -471 345 -651 135 -134 257 -211 416 -262 171 -55 381 -53 520 4 31
13 39 13 75 0 280 -106 570 -17 730 224 288 433 89 1114 -391 1342 -45 21 -89
38 -98 38 -8 0 -64 49 -123 108 -154 156 -282 235 -460 288 -111 32 -285 41
-383 19z m360 -95 c139 -40 326 -153 424 -259 l30 -31 -51 0 c-27 0 -85 -9
-128 -20 -334 -85 -532 -443 -474 -856 35 -251 180 -505 370 -648 l60 -45 -43
-13 c-24 -7 -96 -12 -163 -12 -141 -1 -231 21 -360 85 -407 203 -660 715 -580
1172 59 340 278 582 586 647 70 15 244 4 329 -20z"/>
</g>
</svg>
