<?xml version="1.0" standalone="no"?>
<!DOCTYPE svg PUBLIC "-//W3C//DTD SVG 20010904//EN"
 "http://www.w3.org/TR/2001/REC-SVG-20010904/DTD/svg10.dtd">
<svg version="1.0" xmlns="http://www.w3.org/2000/svg"
 width="256.000000pt" height="256.000000pt" viewBox="0 0 256.000000 256.000000"
 preserveAspectRatio="xMidYMid meet">

<g transform="translate(0.000000,256.000000) scale(0.100000,-0.100000)"
fill="#000000" stroke="none">
<path d="M232 2140 c-18 -11 -41 -34 -52 -52 -19 -32 -20 -52 -20 -771 0 -658
2 -743 16 -773 46 -96 200 -99 249 -5 14 27 15 116 13 785 l-3 754 -25 27
c-53 57 -120 70 -178 35z"/>
<path d="M2195 2141 c-16 -10 -39 -28 -50 -41 -20 -22 -20 -38 -23 -776 -2
-669 -1 -758 13 -785 49 -94 203 -91 249 5 14 30 16 115 16 773 0 719 -1 739
-20 771 -41 67 -124 91 -185 53z"/>
<path d="M892 1850 c-33 -15 -47 -29 -63 -65 -19 -43 -20 -63 -17 -488 l3
-444 27 -35 c47 -62 133 -74 197 -29 55 40 56 46 56 533 0 435 -1 447 -21 474
-50 67 -113 86 -182 54z"/>
<path d="M1541 1613 c-66 -33 -71 -52 -71 -298 0 -249 4 -266 75 -299 70 -34
151 -6 188 65 16 30 17 58 15 244 -3 203 -4 211 -27 244 -41 58 -115 76 -180
44z"/>
</g>
</svg>
