<?xml version="1.0" standalone="no"?>
<!DOCTYPE svg PUBLIC "-//W3C//DTD SVG 20010904//EN"
 "http://www.w3.org/TR/2001/REC-SVG-20010904/DTD/svg10.dtd">
<svg version="1.0" xmlns="http://www.w3.org/2000/svg"
 width="256.000000pt" height="256.000000pt" viewBox="0 0 256.000000 256.000000"
 preserveAspectRatio="xMidYMid meet">

<g transform="translate(0.000000,256.000000) scale(0.100000,-0.100000)"
fill="#000000" stroke="none">
<path d="M775 1907 c-22 -8 -54 -21 -71 -30 -42 -22 -221 -212 -228 -243 -9
-33 18 -82 51 -95 49 -19 79 -2 170 96 109 118 152 136 231 96 21 -11 61 -40
88 -65 l51 -45 61 51 c34 28 62 54 62 58 0 18 -132 128 -186 155 -68 34 -163
43 -229 22z"/>
<path d="M1630 1904 c-30 -8 -73 -27 -96 -42 -23 -15 -223 -207 -445 -426
-222 -219 -442 -432 -488 -472 -81 -72 -85 -74 -135 -74 -88 1 -159 46 -189
120 -40 95 -27 162 45 245 l35 39 41 -33 42 -33 0 131 0 131 -142 0 -143 -1
38 -32 c20 -18 37 -36 37 -40 0 -5 -18 -30 -41 -55 -118 -135 -138 -281 -58
-441 90 -179 325 -260 486 -165 49 28 157 131 648 613 187 184 353 343 370
353 66 40 117 19 254 -107 57 -53 77 -65 104 -65 36 1 58 14 76 48 22 41 4 77
-74 151 -90 86 -167 137 -230 157 -58 17 -65 17 -135 -2z"/>
<path d="M2110 1360 c0 -71 3 -130 7 -130 4 0 23 16 43 35 l37 36 42 -46 c45
-49 71 -99 71 -138 0 -54 -32 -128 -73 -171 -52 -54 -101 -70 -166 -54 -40 10
-76 41 -309 267 -145 141 -267 257 -271 257 -3 1 -30 -25 -60 -57 l-55 -60 45
-45 c24 -25 148 -146 275 -269 264 -254 285 -268 424 -269 63 0 84 5 133 29
63 31 144 110 175 171 82 162 63 315 -56 445 l-51 56 37 36 37 37 -143 0 -142
0 0 -130z"/>
</g>
</svg>
