<?xml version="1.0" standalone="no"?>
<!DOCTYPE svg PUBLIC "-//W3C//DTD SVG 20010904//EN"
 "http://www.w3.org/TR/2001/REC-SVG-20010904/DTD/svg10.dtd">
<svg version="1.0" xmlns="http://www.w3.org/2000/svg"
 width="256.000000pt" height="256.000000pt" viewBox="0 0 256.000000 256.000000"
 preserveAspectRatio="xMidYMid meet">

<g transform="translate(0.000000,256.000000) scale(0.100000,-0.100000)"
fill="#000000" stroke="none">
<path d="M850 2299 c-94 -24 -169 -69 -230 -137 l-47 -53 -7 90 -8 91 -200 0
-201 0 7 -46 c3 -26 6 -345 6 -710 l0 -664 210 0 209 0 3 483 c3 465 4 484 24
527 46 98 138 148 256 137 86 -8 140 -43 175 -114 l28 -58 3 -487 3 -488 205
0 204 0 0 358 c1 543 15 654 94 731 75 73 226 80 312 15 18 -13 43 -45 55 -71
24 -48 24 -49 29 -538 l5 -490 208 -3 208 -2 -4 522 c-4 568 -4 567 -63 684
-31 61 -120 151 -180 182 -143 73 -340 78 -481 12 -71 -33 -150 -102 -190
-166 -16 -24 -30 -44 -33 -44 -3 0 -16 20 -29 45 -32 60 -119 141 -184 170
-110 48 -259 58 -387 24z"/>
<path d="M160 375 l0 -175 1120 0 1120 0 0 175 0 175 -1120 0 -1120 0 0 -175z"/>
</g>
</svg>
