<?xml version="1.0" standalone="no"?>
<!DOCTYPE svg PUBLIC "-//W3C//DTD SVG 20010904//EN"
 "http://www.w3.org/TR/2001/REC-SVG-20010904/DTD/svg10.dtd">
<svg version="1.0" xmlns="http://www.w3.org/2000/svg"
 width="256.000000pt" height="256.000000pt" viewBox="0 0 256.000000 256.000000"
 preserveAspectRatio="xMidYMid meet">

<g transform="translate(0.000000,256.000000) scale(0.100000,-0.100000)"
fill="#000000" stroke="none">
<path d="M605 1826 c-40 -19 -501 -483 -515 -519 -14 -40 -13 -82 6 -125 18
-45 452 -484 500 -507 40 -19 117 -19 152 -1 15 8 130 118 257 245 l230 231
45 0 45 0 230 -231 c127 -127 244 -237 262 -245 42 -18 107 -18 147 1 48 23
482 462 500 507 19 43 20 85 6 125 -14 37 -476 501 -517 519 -42 18 -85 18
-131 -2 -24 -9 -118 -95 -262 -240 l-226 -224 -54 0 -54 0 -226 224 c-144 145
-238 231 -262 240 -45 19 -93 20 -133 2z"/>
</g>
</svg>
