<?xml version="1.0" standalone="no"?>
<!DOCTYPE svg PUBLIC "-//W3C//DTD SVG 20010904//EN"
 "http://www.w3.org/TR/2001/REC-SVG-20010904/DTD/svg10.dtd">
<svg version="1.0" xmlns="http://www.w3.org/2000/svg"
 width="256.000000pt" height="256.000000pt" viewBox="0 0 256.000000 256.000000"
 preserveAspectRatio="xMidYMid meet">

<g transform="translate(0.000000,256.000000) scale(0.100000,-0.100000)"
fill="#000000" stroke="none">
<path d="M845 1948 c-86 -32 -175 -115 -257 -238 -72 -109 -356 -679 -374
-752 -20 -78 -13 -145 21 -203 20 -35 39 -51 92 -77 l68 -33 880 0 c730 0 887
2 920 14 134 47 188 154 151 299 -19 74 -302 643 -376 754 -63 96 -152 185
-216 218 -39 20 -64 25 -124 25 -138 0 -223 -62 -303 -222 -23 -46 -44 -83
-47 -83 -3 0 -24 37 -47 83 -52 105 -100 159 -169 193 -62 30 -169 41 -219 22z"/>
</g>
</svg>
