<?xml version="1.0" standalone="no"?>
<!DOCTYPE svg PUBLIC "-//W3C//DTD SVG 20010904//EN"
 "http://www.w3.org/TR/2001/REC-SVG-20010904/DTD/svg10.dtd">
<svg version="1.0" xmlns="http://www.w3.org/2000/svg"
 width="256.000000pt" height="256.000000pt" viewBox="0 0 256.000000 256.000000"
 preserveAspectRatio="xMidYMid meet">

<g transform="translate(0.000000,256.000000) scale(0.100000,-0.100000)"
fill="#000000" stroke="none">
<path d="M2069 2386 c-47 -17 -93 -50 -117 -84 -11 -15 -180 -306 -377 -647
-196 -341 -360 -623 -364 -628 -4 -4 -101 147 -216 335 -115 189 -228 373
-252 411 l-43 67 -230 0 -230 0 0 -840 0 -840 257 2 258 3 0 358 c0 196 3 356
7 355 4 -2 86 -129 181 -283 l173 -280 126 -3 125 -3 179 302 179 302 9 -377
9 -376 253 0 254 0 0 841 0 842 67 119 c53 97 67 131 71 174 14 171 -160 307
-319 250z"/>
</g>
</svg>
