<?xml version="1.0" standalone="no"?>
<!DOCTYPE svg PUBLIC "-//W3C//DTD SVG 20010904//EN"
 "http://www.w3.org/TR/2001/REC-SVG-20010904/DTD/svg10.dtd">
<svg version="1.0" xmlns="http://www.w3.org/2000/svg"
 width="256.000000pt" height="256.000000pt" viewBox="0 0 256.000000 256.000000"
 preserveAspectRatio="xMidYMid meet">

<g transform="translate(0.000000,256.000000) scale(0.100000,-0.100000)"
fill="#000000" stroke="none">
<path d="M1164 2273 c-37 -109 -95 -276 -129 -371 l-60 -173 -435 -206 c-239
-113 -439 -209 -443 -213 -5 -4 153 -72 351 -151 l359 -142 219 -463 c120
-255 221 -460 225 -456 4 4 59 169 123 366 64 197 117 361 120 363 2 2 205
100 451 217 246 117 446 217 445 222 -1 5 -155 66 -342 136 -187 69 -342 128
-344 131 -3 3 -107 211 -231 464 -123 252 -228 462 -232 466 -5 5 -39 -81 -77
-190z m271 -389 c169 -346 178 -366 160 -377 -92 -54 -736 -375 -733 -365 3 7
90 259 194 561 104 301 191 547 194 547 4 0 87 -165 185 -366z m-505 -283 c0
-12 -157 -462 -164 -468 -6 -7 -454 166 -461 177 -4 7 599 299 618 300 4 0 7
-4 7 -9z m1000 -244 c138 -52 253 -96 255 -99 3 -3 -167 -87 -378 -187 l-383
-182 -248 85 c-137 47 -251 87 -253 90 -4 3 735 384 749 385 4 1 120 -41 258
-92z m-778 -463 c122 -42 228 -79 234 -83 7 -4 -17 -90 -69 -250 -43 -134 -82
-240 -87 -235 -5 5 -70 140 -145 299 -76 160 -144 302 -151 318 -8 15 -13 27
-10 27 2 0 105 -34 228 -76z"/>
</g>
</svg>
