<?xml version="1.0" standalone="no"?>
<!DOCTYPE svg PUBLIC "-//W3C//DTD SVG 20010904//EN"
 "http://www.w3.org/TR/2001/REC-SVG-20010904/DTD/svg10.dtd">
<svg version="1.0" xmlns="http://www.w3.org/2000/svg"
 width="256.000000pt" height="256.000000pt" viewBox="0 0 256.000000 256.000000"
 preserveAspectRatio="xMidYMid meet">

<g transform="translate(0.000000,256.000000) scale(0.100000,-0.100000)"
fill="#000000" stroke="none">
<path d="M454 2305 c-65 -33 -64 -29 -64 -489 l0 -416 -97 -1 c-119 0 -160
-13 -190 -58 -28 -42 -29 -86 -3 -129 29 -48 72 -62 190 -62 l100 0 0 -435 c0
-478 0 -479 60 -510 59 -31 130 -11 164 45 14 25 16 78 16 464 l0 436 293 0
292 -1 384 -468 c211 -258 394 -474 408 -480 50 -23 93 -14 134 28 l39 39 0
441 0 441 95 0 c112 0 156 15 185 62 26 43 25 87 -3 129 -30 45 -71 58 -184
58 l-92 1 -3 425 -3 425 -31 31 c-58 58 -160 44 -192 -26 -9 -19 -12 -145 -12
-440 l0 -415 -309 0 -309 0 -355 433 c-195 237 -366 442 -380 455 -32 30 -92
38 -133 17z m365 -675 c100 -121 181 -222 181 -225 0 -3 -83 -5 -185 -5 l-185
0 0 225 c0 124 2 225 4 225 2 0 86 -99 185 -220z m1121 -726 c0 -150 -4 -243
-9 -239 -6 3 -92 105 -192 228 -100 122 -189 230 -197 240 -14 16 -4 17 191
17 l207 0 0 -246z"/>
</g>
</svg>
