<?xml version="1.0" standalone="no"?>
<!DOCTYPE svg PUBLIC "-//W3C//DTD SVG 20010904//EN"
 "http://www.w3.org/TR/2001/REC-SVG-20010904/DTD/svg10.dtd">
<svg version="1.0" xmlns="http://www.w3.org/2000/svg"
 width="256.000000pt" height="256.000000pt" viewBox="0 0 256.000000 256.000000"
 preserveAspectRatio="xMidYMid meet">

<g transform="translate(0.000000,256.000000) scale(0.100000,-0.100000)"
fill="#000000" stroke="none">
<path d="M1109 1744 c-51 -15 -136 -70 -153 -98 -9 -15 6 -33 104 -126 132
-125 152 -139 175 -120 12 10 15 41 15 170 0 87 -3 165 -6 174 -8 20 -71 20
-135 0z"/>
<path d="M1331 1747 c-12 -12 -16 -311 -5 -341 3 -9 13 -16 21 -16 17 0 263
226 263 241 0 19 -105 90 -153 103 -82 22 -113 26 -126 13z"/>
<path d="M1625 1556 c-107 -114 -190 -212 -190 -222 0 -18 15 -19 314 -22
l313 -2 211 208 c154 154 209 213 204 226 -6 14 -39 16 -334 15 l-328 0 -190
-203z"/>
<path d="M752 1450 c-74 -78 -112 -126 -108 -135 4 -13 43 -15 241 -15 206 0
236 2 242 16 7 19 -222 254 -247 254 -8 0 -66 -54 -128 -120z"/>
<path d="M1448 1209 c-10 -5 -18 -15 -18 -22 0 -14 231 -247 245 -247 17 0
245 234 245 251 0 9 -7 20 -16 23 -27 10 -438 6 -456 -5z"/>
<path d="M288 993 c-115 -115 -208 -213 -208 -220 0 -6 7 -14 16 -17 9 -3 157
-6 329 -6 l314 0 193 205 c106 113 193 213 193 223 0 16 -23 17 -315 20 l-315
2 -207 -207z"/>
<path d="M1070 1001 l-125 -121 40 -35 c61 -53 115 -76 187 -78 l63 -2 0 175
c0 225 4 224 -165 61z"/>
<path d="M1316 1104 c-3 -9 -6 -87 -6 -174 0 -128 3 -160 15 -170 21 -18 108
-5 170 25 49 24 115 78 115 94 0 5 -56 61 -124 125 -121 114 -157 135 -170
100z"/>
</g>
</svg>
