<?xml version="1.0" standalone="no"?>
<!DOCTYPE svg PUBLIC "-//W3C//DTD SVG 20010904//EN"
 "http://www.w3.org/TR/2001/REC-SVG-20010904/DTD/svg10.dtd">
<svg version="1.0" xmlns="http://www.w3.org/2000/svg"
 width="256.000000pt" height="256.000000pt" viewBox="0 0 256.000000 256.000000"
 preserveAspectRatio="xMidYMid meet">

<g transform="translate(0.000000,256.000000) scale(0.100000,-0.100000)"
fill="#000000" stroke="none">
<path d="M1046 2465 c-65 -17 -189 -73 -184 -83 68 -130 73 -145 73 -242 0
-112 -21 -167 -91 -237 -120 -119 -297 -142 -467 -59 l-67 32 -10 -30 c-5 -17
-20 -74 -32 -126 -21 -92 -22 -118 -25 -729 -4 -614 -3 -636 16 -701 39 -126
129 -197 267 -207 140 -11 259 30 333 113 72 82 71 75 71 720 0 541 1 575 20
635 23 74 76 157 123 193 66 51 126 70 212 70 152 -1 248 -73 312 -234 16 -41
18 -103 23 -650 l5 -605 29 -63 c58 -124 168 -190 306 -180 129 10 236 83 302
210 l33 63 0 650 0 650 -33 84 c-82 215 -301 492 -468 594 -83 50 -202 96
-309 119 -123 26 -359 33 -439 13z"/>
<path d="M453 2444 c-60 -22 -128 -86 -160 -151 -74 -153 2 -342 163 -403 195
-73 400 68 399 275 -1 114 -53 203 -154 263 -56 32 -181 41 -248 16z"/>
</g>
</svg>
