<?xml version="1.0" standalone="no"?>
<!DOCTYPE svg PUBLIC "-//W3C//DTD SVG 20010904//EN"
 "http://www.w3.org/TR/2001/REC-SVG-20010904/DTD/svg10.dtd">
<svg version="1.0" xmlns="http://www.w3.org/2000/svg"
 width="256.000000pt" height="256.000000pt" viewBox="0 0 256.000000 256.000000"
 preserveAspectRatio="xMidYMid meet">

<g transform="translate(0.000000,256.000000) scale(0.100000,-0.100000)"
fill="#000000" stroke="none">
<path d="M1407 2380 c-13 -19 -54 -28 -331 -74 -266 -44 -319 -51 -334 -40
-35 27 -76 6 -84 -43 -1 -12 -97 -119 -211 -237 -155 -160 -215 -216 -232
-216 -35 0 -58 -28 -49 -59 4 -14 10 -186 13 -381 l6 -355 82 -165 c50 -101
78 -169 72 -174 -26 -28 3 -86 42 -86 24 0 390 -257 436 -306 30 -32 35 -34
100 -34 180 0 529 -23 544 -36 25 -22 56 -16 78 14 29 41 408 266 443 264 29
-2 58 20 58 45 0 9 55 112 123 229 94 165 128 215 148 223 30 10 40 36 28 69
-8 21 -24 27 -59 22 -25 -3 -34 -18 -35 -58 0 -29 -25 -80 -115 -234 -78 -134
-120 -198 -132 -198 -21 0 -148 147 -148 171 0 10 -11 26 -25 37 l-25 20 0
494 c0 484 0 493 20 506 18 11 46 -1 251 -109 126 -67 232 -120 234 -118 3 4
-226 423 -260 476 -8 12 -53 43 -100 68 -55 31 -89 56 -97 73 -10 20 -23 28
-48 32 -51 7 -303 146 -315 173 -14 30 -58 35 -78 7z m58 -19 c3 -5 1 -13 -5
-16 -15 -9 -43 3 -35 15 8 13 32 13 40 1z m-125 -56 c0 -13 -136 -105 -157
-105 -13 0 -32 -5 -42 -12 -14 -9 -44 -6 -135 12 -64 12 -116 26 -116 29 0 4
96 23 213 43 236 40 237 40 237 33z m278 -65 l121 -65 -124 -3 c-69 -1 -182
-1 -251 0 l-126 3 86 65 c75 57 91 65 129 65 34 0 69 -14 165 -65z m-888 -10
c0 -13 -7 -20 -20 -20 -13 0 -20 7 -20 20 0 13 7 20 20 20 13 0 20 -7 20 -20z
m235 -61 c88 -17 163 -35 167 -38 11 -9 -122 -261 -137 -261 -7 0 -18 -7 -25
-15 -16 -20 -199 -22 -219 -2 -7 7 -43 12 -94 13 -141 2 -140 -5 -45 167 67
120 85 147 104 147 12 0 27 7 35 16 7 8 22 13 33 11 12 -3 93 -20 181 -38z
m230 -10 c0 -7 -8 -15 -17 -17 -18 -3 -25 18 -11 32 10 10 28 1 28 -15z m621
10 c3 -6 0 -15 -7 -20 -14 -8 -32 9 -23 23 7 11 22 10 30 -3z m-56 -58 c14
-28 13 -244 -2 -259 -19 -19 -262 -16 -278 3 -7 8 -21 15 -31 15 -11 0 -60 49
-123 124 -58 68 -106 127 -106 130 0 3 119 6 265 6 251 0 265 -1 275 -19z
m-469 -137 c57 -69 103 -132 101 -140 -2 -9 4 -26 13 -40 13 -20 15 -55 13
-226 l-3 -201 -176 212 c-218 263 -212 245 -127 407 33 63 63 114 68 114 4 0
54 -57 111 -126z m783 -77 c37 -65 66 -121 64 -122 -3 -3 -201 228 -253 293
-18 24 -14 23 52 -13 l71 -38 66 -120z m-74 -25 c95 -112 171 -205 169 -207
-9 -8 -307 160 -331 187 -27 28 -28 34 -28 129 0 56 4 99 9 97 4 -1 86 -94
181 -206z m-1463 106 c-42 -79 -49 -86 -143 -150 -55 -37 -103 -67 -109 -67
-5 -1 58 67 140 149 82 83 151 150 153 150 2 0 -16 -37 -41 -82z m913 -159
c-12 -21 -30 -17 -30 6 0 14 20 25 33 18 4 -2 2 -13 -3 -24z m370 6 c0 -19
-20 -29 -32 -17 -15 15 -2 43 17 36 8 -3 15 -12 15 -19z m-1219 4 c95 -19 90
16 87 -554 l-3 -497 -188 196 c-171 178 -187 197 -175 215 10 16 9 25 -1 44
-11 22 -3 52 83 303 53 153 99 285 101 292 5 15 26 15 96 1z m129 2 c0 -13
-26 -32 -33 -24 -14 13 -6 33 13 33 11 0 20 -4 20 -9z m290 -5 c0 -20 -19 -31
-32 -18 -6 6 -7 15 -4 21 10 16 36 13 36 -3z m-646 -262 c-48 -137 -90 -252
-93 -257 -4 -4 -15 76 -24 179 -15 171 -15 187 -1 202 21 20 196 133 201 129
2 -2 -36 -116 -83 -253z m600 221 c11 -8 28 -15 37 -15 23 0 371 -418 384
-461 13 -43 36 -56 69 -41 30 13 36 61 11 82 -12 10 -15 47 -15 215 0 253 -12
237 166 233 l129 -3 3 -519 c1 -375 -1 -523 -9 -532 -8 -10 -38 -14 -103 -14
-90 0 -92 1 -139 38 -26 20 -128 126 -227 235 -140 155 -179 204 -182 229 -4
37 -26 53 -61 44 -33 -8 -43 -40 -23 -71 14 -21 16 -56 14 -237 l-3 -213 -134
-3 c-90 -2 -138 1 -147 9 -19 16 -21 988 -2 1019 11 18 24 20 113 20 72 -1
105 -5 119 -15z m-754 -60 c0 -8 -7 -15 -15 -15 -8 0 -15 7 -15 15 0 8 7 15
15 15 8 0 15 -7 15 -15z m10 -479 c-7 -7 -10 22 -9 80 l2 89 8 -80 c5 -50 5
-83 -1 -89z m1238 66 c5 -17 -27 -27 -41 -13 -9 9 -8 14 3 21 18 11 32 8 38
-8z m-388 -83 c0 -5 -11 -9 -25 -9 -26 0 -35 25 -12 33 13 5 37 -10 37 -24z
m-782 -16 c6 -19 -25 -16 -32 3 -4 11 -1 14 11 12 9 -2 18 -9 21 -15z m-66
-21 c3 -9 1 -26 -3 -37 -6 -15 -8 -11 -8 18 -1 40 4 48 11 19z m1055 -252
c149 -164 160 -178 155 -208 -3 -21 1 -39 11 -50 10 -12 16 -54 21 -149 4 -73
4 -133 0 -133 -3 0 -88 68 -188 151 -125 105 -182 158 -184 174 -2 13 -10 29
-18 35 -11 10 -14 51 -14 214 l0 201 29 -30 c15 -17 100 -109 188 -205z m-992
39 c14 -79 25 -153 25 -164 0 -11 -23 27 -50 84 -28 57 -50 107 -50 112 0 15
42 120 46 116 3 -2 16 -69 29 -148z m204 -62 c111 -115 161 -174 161 -190 0
-19 -15 -27 -116 -64 -112 -39 -118 -40 -136 -24 -14 14 -27 66 -53 221 -37
212 -41 250 -26 235 4 -6 81 -85 170 -178z m1819 80 c4 -20 -25 -34 -40 -19
-15 15 -1 44 19 40 10 -2 19 -11 21 -21z m-1598 -272 c7 -9 11 -18 8 -20 -9
-10 -38 7 -38 21 0 18 14 18 30 -1z m355 -5 c0 -22 -29 -18 -33 3 -3 14 1 18
15 15 10 -2 18 -10 18 -18z m425 -5 c0 -8 -4 -16 -9 -19 -12 -8 -34 21 -27 33
9 14 36 2 36 -14z m318 2 c2 -12 -3 -17 -17 -17 -12 0 -21 6 -21 13 0 31 32
34 38 4z m-808 -27 c9 -16 -2 -51 -57 -185 -38 -90 -71 -165 -74 -165 -3 0
-35 76 -70 168 -51 131 -63 172 -55 185 9 14 29 17 128 17 107 0 118 -2 128
-20z m755 -10 c3 -5 19 -10 34 -10 23 0 40 -14 85 -66 31 -37 56 -74 54 -82
-2 -10 -66 -36 -193 -79 -104 -34 -197 -63 -206 -63 -13 0 -17 14 -22 68 -9
88 -9 227 0 235 10 11 241 8 248 -3z m-1055 -30 c15 -27 130 -330 130 -341 0
-5 -4 -9 -10 -9 -20 0 -403 280 -389 285 150 56 227 83 241 84 10 1 22 -8 28
-19z m543 -121 c206 -170 192 -157 185 -164 -3 -4 -121 -25 -263 -49 -196 -33
-258 -40 -262 -31 -6 16 147 385 159 385 5 0 87 -64 181 -141z m-853 87 c0 -2
-3 -11 -6 -20 -9 -23 -34 -20 -34 4 0 13 7 20 20 20 11 0 20 -2 20 -4z m1610
-121 c0 -8 -7 -15 -15 -15 -16 0 -20 12 -8 23 11 12 23 8 23 -8z m-181 -69
c-13 -12 -292 -176 -300 -176 -15 0 -10 43 9 67 11 13 66 38 147 66 122 43
154 53 144 43z m-318 -99 c-5 -5 -17 -7 -26 -3 -14 5 -15 9 -5 21 10 12 16 13
27 4 9 -8 10 -16 4 -22z m-49 -24 c23 -21 23 -36 -2 -58 -17 -16 -35 -17 -207
-10 -103 4 -192 10 -198 13 -8 5 313 67 369 71 11 0 28 -6 38 -16z m-588 -39
c8 -22 8 -24 -8 -24 -18 0 -29 16 -21 30 9 15 22 12 29 -6z m636 -49 c10 -12
9 -16 -5 -21 -19 -8 -40 9 -31 25 10 15 21 14 36 -4z"/>
</g>
</svg>
