<?xml version="1.0" standalone="no"?>
<!DOCTYPE svg PUBLIC "-//W3C//DTD SVG 20010904//EN"
 "http://www.w3.org/TR/2001/REC-SVG-20010904/DTD/svg10.dtd">
<svg version="1.0" xmlns="http://www.w3.org/2000/svg"
 width="256.000000pt" height="256.000000pt" viewBox="0 0 256.000000 256.000000"
 preserveAspectRatio="xMidYMid meet">

<g transform="translate(0.000000,256.000000) scale(0.100000,-0.100000)"
fill="#000000" stroke="none">
<path d="M1037 2298 c-40 -34 -45 -78 -14 -114 l25 -29 299 -6 c327 -7 358
-12 488 -74 179 -86 318 -257 371 -455 23 -87 23 -253 0 -339 -65 -243 -263
-440 -502 -501 -73 -19 -113 -20 -673 -20 -387 0 -609 -4 -634 -11 -51 -14
-76 -62 -57 -109 26 -63 7 -62 693 -58 711 4 689 2 882 97 221 109 378 296
451 536 24 78 27 108 28 230 1 161 -13 230 -74 362 -111 238 -300 401 -557
480 -86 26 -96 27 -394 31 l-306 4 -26 -24z"/>
<path d="M342 1897 c-31 -33 -29 -87 4 -118 l26 -24 621 -5 c622 -5 622 -5
664 -28 66 -35 110 -79 140 -140 39 -80 39 -184 0 -259 -33 -63 -83 -114 -145
-145 -46 -22 -55 -23 -410 -28 l-364 -5 -24 -28 c-32 -38 -31 -72 5 -108 l29
-29 349 0 c380 0 417 4 517 58 65 35 153 123 188 188 140 262 9 587 -273 675
-57 18 -100 19 -683 19 l-623 0 -21 -23z"/>
<path d="M671 1514 c-38 -31 -41 -78 -10 -118 20 -26 21 -26 165 -26 141 0
146 1 169 25 35 34 33 78 -4 116 l-29 29 -130 0 c-126 0 -132 -1 -161 -26z"/>
<path d="M189 331 c-31 -31 -36 -59 -17 -94 24 -46 29 -46 326 -47 l283 0 24
25 c17 16 25 35 25 60 0 25 -8 44 -25 60 l-24 25 -281 0 -282 0 -29 -29z"/>
</g>
</svg>
