<?xml version="1.0" standalone="no"?>
<!DOCTYPE svg PUBLIC "-//W3C//DTD SVG 20010904//EN"
 "http://www.w3.org/TR/2001/REC-SVG-20010904/DTD/svg10.dtd">
<svg version="1.0" xmlns="http://www.w3.org/2000/svg"
 width="256.000000pt" height="256.000000pt" viewBox="0 0 256.000000 256.000000"
 preserveAspectRatio="xMidYMid meet">

<g transform="translate(0.000000,256.000000) scale(0.100000,-0.100000)"
fill="#000000" stroke="none">
<path d="M375 2301 c-22 -10 -54 -34 -72 -52 -66 -70 -63 -19 -63 -971 0 -819
1 -865 19 -903 37 -80 120 -135 203 -135 47 0 133 36 159 66 41 47 462 681
467 702 6 28 -14 52 -42 52 -13 0 -106 -74 -240 -190 -121 -105 -225 -190
-233 -190 -11 0 -13 103 -13 595 0 511 2 595 14 595 8 0 310 -353 670 -784
360 -431 667 -793 682 -805 38 -30 99 -44 175 -39 92 5 154 43 191 117 l28 55
0 863 c0 953 3 902 -63 972 -42 44 -101 71 -157 71 -49 0 -134 -35 -161 -66
-45 -52 -469 -695 -469 -711 0 -25 19 -43 45 -43 12 0 108 77 237 190 120 105
224 190 233 190 13 0 15 -66 15 -595 0 -511 -2 -595 -14 -595 -8 0 -309 352
-669 783 -360 430 -664 790 -675 800 -53 48 -193 62 -267 28z"/>
</g>
</svg>
