<?xml version="1.0" standalone="no"?>
<!DOCTYPE svg PUBLIC "-//W3C//DTD SVG 20010904//EN"
 "http://www.w3.org/TR/2001/REC-SVG-20010904/DTD/svg10.dtd">
<svg version="1.0" xmlns="http://www.w3.org/2000/svg"
 width="256.000000pt" height="256.000000pt" viewBox="0 0 256.000000 256.000000"
 preserveAspectRatio="xMidYMid meet">

<g transform="translate(0.000000,256.000000) scale(0.100000,-0.100000)"
fill="#000000" stroke="none">
<path d="M1237 2468 c-15 -5 -231 -128 -480 -272 -432 -251 -453 -265 -482
-311 l-30 -48 0 -557 0 -557 30 -48 c29 -46 50 -60 440 -287 226 -131 441
-254 479 -273 76 -39 125 -44 182 -20 19 8 227 125 462 261 450 259 500 295
521 370 15 54 15 1054 0 1108 -21 75 -71 111 -520 370 -234 135 -442 253 -462
261 -41 17 -99 18 -140 3z m347 -733 l256 -148 0 -306 0 -307 -263 -152 c-145
-84 -267 -152 -272 -152 -5 0 -127 68 -272 152 l-263 152 0 306 0 306 258 151
c158 94 265 151 279 149 11 -2 136 -69 277 -151z"/>
<path d="M1527 1409 l-227 -132 0 -259 c0 -212 2 -259 13 -256 8 2 111 59 230
128 l217 125 0 263 c0 144 -1 262 -3 262 -1 0 -105 -59 -230 -131z"/>
</g>
</svg>
