<?xml version="1.0" standalone="no"?>
<!DOCTYPE svg PUBLIC "-//W3C//DTD SVG 20010904//EN"
 "http://www.w3.org/TR/2001/REC-SVG-20010904/DTD/svg10.dtd">
<svg version="1.0" xmlns="http://www.w3.org/2000/svg"
 width="256.000000pt" height="256.000000pt" viewBox="0 0 256.000000 256.000000"
 preserveAspectRatio="xMidYMid meet">

<g transform="translate(0.000000,256.000000) scale(0.100000,-0.100000)"
fill="#000000" stroke="none">
<path d="M785 2290 c-280 -104 -536 -198 -567 -210 l-58 -21 0 -803 0 -802
518 -186 517 -185 3 807 2 807 43 16 c37 15 1031 380 1066 392 8 3 12 7 10 10
-7 6 -1011 365 -1018 364 -3 -1 -235 -86 -516 -189z"/>
<path d="M1815 1790 l-490 -188 -3 -414 -2 -414 442 -163 c244 -90 471 -175
506 -187 l62 -24 0 790 c0 626 -3 790 -12 789 -7 0 -233 -85 -503 -189z"/>
</g>
</svg>
