<?xml version="1.0" standalone="no"?>
<!DOCTYPE svg PUBLIC "-//W3C//DTD SVG 20010904//EN"
 "http://www.w3.org/TR/2001/REC-SVG-20010904/DTD/svg10.dtd">
<svg version="1.0" xmlns="http://www.w3.org/2000/svg"
 width="256.000000pt" height="256.000000pt" viewBox="0 0 256.000000 256.000000"
 preserveAspectRatio="xMidYMid meet">

<g transform="translate(0.000000,256.000000) scale(0.100000,-0.100000)"
fill="#000000" stroke="none">
<path d="M1610 2165 c-145 -85 -266 -157 -267 -162 -2 -4 137 -87 307 -183
l310 -174 0 -434 0 -434 -22 14 c-17 11 -1145 664 -1200 695 -5 2 -8 -108 -8
-245 l0 -249 616 -352 616 -352 256 149 257 148 3 692 2 692 -37 24 c-43 27
-562 326 -566 326 -1 -1 -121 -70 -267 -155z"/>
<path d="M333 2121 l-253 -146 3 -695 2 -695 297 -172 297 -172 271 157 c148
86 270 158 270 161 0 4 -139 85 -308 181 l-307 175 -3 399 c-2 355 -1 398 13
392 9 -3 284 -161 611 -351 328 -190 598 -345 600 -345 3 0 3 127 2 281 l-3
282 -615 348 c-338 191 -617 348 -620 347 -3 0 -119 -66 -257 -147z"/>
</g>
</svg>
