<?xml version="1.0" standalone="no"?>
<!DOCTYPE svg PUBLIC "-//W3C//DTD SVG 20010904//EN"
 "http://www.w3.org/TR/2001/REC-SVG-20010904/DTD/svg10.dtd">
<svg version="1.0" xmlns="http://www.w3.org/2000/svg"
 width="256.000000pt" height="256.000000pt" viewBox="0 0 256.000000 256.000000"
 preserveAspectRatio="xMidYMid meet">

<g transform="translate(0.000000,256.000000) scale(0.100000,-0.100000)"
fill="#000000" stroke="none">
<path d="M1093 2465 c-362 -66 -643 -319 -746 -675 -21 -74 -22 -87 -25 -893
l-3 -817 941 0 940 0 0 788 c0 507 -4 810 -11 848 -57 326 -296 602 -614 711
-150 51 -332 65 -482 38z m355 -51 c337 -69 599 -321 688 -660 16 -63 18 -138
21 -846 l4 -778 -895 0 -896 0 0 765 c0 843 0 844 62 994 44 106 115 205 211
298 122 117 262 192 422 226 95 21 286 21 383 1z"/>
<path d="M1100 2304 c-203 -43 -373 -162 -491 -342 -51 -77 -80 -145 -107
-251 -15 -59 -17 -142 -17 -766 l0 -700 778 -3 777 -2 0 703 c0 674 -1 707
-20 783 -73 285 -294 508 -570 574 -100 24 -252 26 -350 4z m-114 -349 c181
-46 357 -148 450 -263 50 -61 75 -107 107 -192 21 -53 22 -75 25 -591 l3 -537
-32 -11 c-17 -6 -69 -15 -115 -21 -347 -43 -677 185 -765 528 -17 67 -19 112
-19 412 0 300 2 345 19 412 21 82 54 153 108 236 33 49 37 52 78 52 23 0 87
-11 141 -25z m-93 -1514 c36 -26 91 -61 123 -77 l59 -29 -114 -3 c-63 -1 -121
0 -128 2 -9 4 -13 28 -13 81 0 41 2 75 4 75 3 0 34 -22 69 -49z"/>
<path d="M1206 1558 c-22 -6 -57 -29 -83 -54 -45 -42 -46 -43 -62 -23 -17 21
-68 39 -88 32 -26 -9 -13 -41 21 -53 54 -18 59 -40 64 -282 2 -130 0 -218 -5
-218 -16 0 -51 44 -58 72 -8 32 -29 42 -46 22 -9 -11 -8 -24 5 -59 40 -105
167 -126 235 -39 22 28 29 98 11 109 -16 10 -40 -14 -40 -39 0 -13 -11 -33
-26 -47 l-25 -23 3 229 c3 222 4 231 26 263 65 90 196 86 259 -8 13 -18 23
-45 23 -59 0 -15 5 -32 11 -38 20 -20 39 -3 39 34 0 73 -66 155 -144 178 -56
17 -65 17 -120 3z"/>
<path d="M763 1403 c-17 -6 -18 -184 -2 -200 24 -24 39 -2 39 53 0 30 4 54 8
54 4 0 34 -27 67 -60 75 -76 87 -70 83 44 -3 73 -5 81 -23 81 -16 0 -21 -8
-25 -43 l-5 -43 -60 61 c-33 33 -62 60 -65 59 -3 0 -11 -3 -17 -6z"/>
<path d="M1222 1355 c-53 -23 -80 -115 -33 -115 9 0 23 15 31 33 12 26 21 32
45 32 24 0 33 -6 45 -32 15 -33 43 -43 57 -20 19 31 -13 90 -59 106 -39 14
-46 13 -86 -4z"/>
</g>
</svg>
