<?xml version="1.0" standalone="no"?>
<!DOCTYPE svg PUBLIC "-//W3C//DTD SVG 20010904//EN"
 "http://www.w3.org/TR/2001/REC-SVG-20010904/DTD/svg10.dtd">
<svg version="1.0" xmlns="http://www.w3.org/2000/svg"
 width="256.000000pt" height="256.000000pt" viewBox="0 0 256.000000 256.000000"
 preserveAspectRatio="xMidYMid meet">

<g transform="translate(0.000000,256.000000) scale(0.100000,-0.100000)"
fill="#000000" stroke="none">
<path d="M283 2143 c-53 -18 -135 -91 -169 -150 -15 -24 -24 -46 -22 -49 3 -2
22 4 44 13 29 13 67 17 144 18 101 0 108 -1 184 -38 63 -30 97 -55 158 -117
l78 -79 -1 -463 c0 -255 -4 -471 -8 -481 -4 -10 -27 -29 -51 -41 -49 -24 -74
-66 -52 -88 13 -13 550 -26 596 -14 42 10 35 50 -14 81 -22 14 -42 35 -45 48
-3 12 -4 129 -3 259 l3 238 347 -364 c357 -374 465 -473 578 -529 59 -29 73
-32 160 -32 117 0 191 18 236 57 68 60 37 87 -99 89 -135 1 -149 8 -312 157
l-145 133 0 468 c0 300 4 479 10 498 8 21 24 36 53 49 35 16 43 24 45 52 l3
32 -325 0 c-315 0 -326 -1 -326 -19 0 -35 11 -50 46 -61 24 -8 40 -23 54 -51
19 -36 20 -56 18 -285 l-3 -246 -265 289 c-146 158 -303 328 -350 377 -127
133 -220 196 -353 241 -85 28 -151 31 -214 8z"/>
</g>
</svg>
