<?xml version="1.0" standalone="no"?>
<!DOCTYPE svg PUBLIC "-//W3C//DTD SVG 20010904//EN"
 "http://www.w3.org/TR/2001/REC-SVG-20010904/DTD/svg10.dtd">
<svg version="1.0" xmlns="http://www.w3.org/2000/svg"
 width="256.000000pt" height="256.000000pt" viewBox="0 0 256.000000 256.000000"
 preserveAspectRatio="xMidYMid meet">

<g transform="translate(0.000000,256.000000) scale(0.100000,-0.100000)"
fill="#000000" stroke="none">
<path d="M160 1864 l0 -535 26 -77 c54 -162 147 -304 259 -395 78 -64 288
-166 443 -217 67 -22 127 -40 132 -40 6 0 10 272 10 750 0 857 8 781 -92 886
-63 67 -128 109 -215 140 -65 22 -80 24 -315 24 l-248 0 0 -536z"/>
<path d="M1792 2369 c-76 -38 -146 -100 -211 -188 l-51 -68 0 -589 c0 -585 0
-588 -22 -633 -47 -98 -195 -212 -311 -240 -94 -23 -97 -27 -97 -156 l0 -112
58 -55 c31 -30 97 -81 145 -113 l88 -59 143 12 c167 14 307 47 412 97 124 60
266 209 397 417 l57 91 0 814 0 813 -273 0 -274 0 -61 -31z"/>
</g>
</svg>
