<?xml version="1.0" standalone="no"?>
<!DOCTYPE svg PUBLIC "-//W3C//DTD SVG 20010904//EN"
 "http://www.w3.org/TR/2001/REC-SVG-20010904/DTD/svg10.dtd">
<svg version="1.0" xmlns="http://www.w3.org/2000/svg"
 width="256.000000pt" height="256.000000pt" viewBox="0 0 256.000000 256.000000"
 preserveAspectRatio="xMidYMid meet">

<g transform="translate(0.000000,256.000000) scale(0.100000,-0.100000)"
fill="#000000" stroke="none">
<path d="M1516 2458 c-50 -79 -71 -265 -42 -378 30 -115 108 -219 220 -292 73
-47 100 -49 121 -8 45 87 39 341 -10 448 -35 75 -139 174 -262 246 -7 4 -18
-3 -27 -16z"/>
<path d="M936 2414 c-10 -27 -7 -125 6 -168 8 -25 32 -61 63 -92 60 -62 132
-91 242 -101 l76 -6 -6 62 c-13 151 -119 260 -294 306 -72 19 -79 19 -87 -1z"/>
<path d="M940 1965 c-84 -17 -195 -58 -290 -105 -121 -62 -118 -55 -70 -128
144 -224 347 -321 607 -292 158 17 376 104 444 176 l21 23 -48 56 c-62 73
-189 175 -273 219 -123 64 -246 80 -391 51z"/>
<path d="M1863 1525 c-35 -7 -93 -28 -130 -46 -91 -44 -230 -183 -292 -292
-52 -92 -100 -228 -108 -302 l-6 -54 38 -7 c62 -11 264 3 346 25 196 51 308
150 416 366 22 44 52 116 66 160 44 135 45 122 -15 140 -74 23 -238 28 -315
10z"/>
<path d="M472 1365 c-97 -23 -190 -104 -277 -239 -42 -66 -43 -63 45 -97 70
-27 228 -37 308 -19 120 26 256 129 316 240 38 70 33 91 -29 112 -61 21 -282
23 -363 3z"/>
<path d="M949 1145 c-120 -107 -218 -241 -261 -361 -41 -116 -35 -262 20 -424
25 -76 114 -264 130 -274 14 -9 108 51 173 111 182 168 235 386 164 668 -18
73 -103 247 -142 294 l-29 34 -55 -48z"/>
<path d="M2078 917 c-57 -17 -148 -71 -190 -114 l-32 -33 23 -24 c60 -64 180
-102 276 -86 85 14 235 88 235 116 0 21 -69 90 -117 116 -60 33 -133 42 -195
25z"/>
<path d="M453 840 c-94 -33 -146 -83 -194 -184 -34 -72 -55 -164 -41 -178 5
-5 42 -10 81 -10 167 0 270 114 288 318 l6 74 -44 0 c-24 -1 -68 -9 -96 -20z"/>
<path d="M1432 700 c-84 -15 -122 -35 -122 -63 0 -69 179 -261 298 -319 61
-30 74 -33 162 -33 108 0 229 21 237 41 8 20 -48 132 -97 192 -52 65 -152 137
-225 163 -66 23 -180 32 -253 19z"/>
</g>
</svg>
