<?xml version="1.0" standalone="no"?>
<!DOCTYPE svg PUBLIC "-//W3C//DTD SVG 20010904//EN"
 "http://www.w3.org/TR/2001/REC-SVG-20010904/DTD/svg10.dtd">
<svg version="1.0" xmlns="http://www.w3.org/2000/svg"
 width="256.000000pt" height="256.000000pt" viewBox="0 0 256.000000 256.000000"
 preserveAspectRatio="xMidYMid meet">

<g transform="translate(0.000000,256.000000) scale(0.100000,-0.100000)"
fill="#000000" stroke="none">
<path d="M491 1472 c-123 -378 -248 -760 -277 -850 l-52 -162 176 2 177 3 162
405 c89 223 166 405 171 405 6 0 173 -183 372 -408 l363 -408 150 3 151 3 258
845 c141 465 257 846 258 848 0 1 -59 1 -131 0 l-130 -3 -191 -427 c-106 -236
-194 -428 -198 -428 -3 0 -154 194 -335 430 l-329 430 -186 0 -185 0 -224
-688z m828 -57 l380 -440 0 -133 c1 -76 -3 -132 -8 -130 -5 2 -185 216 -400
476 l-391 472 0 117 c0 117 0 117 20 98 11 -11 190 -218 399 -460z"/>
</g>
</svg>
