<?xml version="1.0" standalone="no"?>
<!DOCTYPE svg PUBLIC "-//W3C//DTD SVG 20010904//EN"
 "http://www.w3.org/TR/2001/REC-SVG-20010904/DTD/svg10.dtd">
<svg version="1.0" xmlns="http://www.w3.org/2000/svg"
 width="256.000000pt" height="256.000000pt" viewBox="0 0 256.000000 256.000000"
 preserveAspectRatio="xMidYMid meet">

<g transform="translate(0.000000,256.000000) scale(0.100000,-0.100000)"
fill="#000000" stroke="none">
<path d="M1177 2470 c-224 -57 -358 -304 -282 -521 7 -20 92 -174 189 -344 97
-169 175 -310 173 -312 -2 -2 -141 76 -308 174 -170 99 -330 185 -362 195
-188 58 -382 -33 -470 -221 -28 -59 -32 -76 -32 -156 0 -105 20 -169 75 -242
106 -140 280 -196 440 -140 36 13 197 100 359 195 162 95 296 171 298 169 2
-2 -76 -143 -173 -312 -97 -170 -182 -324 -189 -344 -67 -191 25 -405 213
-494 61 -29 76 -32 162 -32 86 0 101 3 162 32 188 89 280 303 213 494 -7 20
-92 174 -189 344 -97 169 -175 310 -173 312 2 2 143 -78 313 -177 170 -99 325
-185 344 -191 198 -59 393 30 484 220 28 60 31 75 31 161 0 86 -3 101 -32 162
-17 37 -50 87 -74 112 -57 63 -163 114 -252 123 -115 10 -159 -8 -502 -208
-170 -98 -310 -177 -312 -176 -2 2 76 143 173 312 97 170 182 324 189 344 86
247 -92 514 -353 527 -42 2 -94 -1 -115 -6z"/>
</g>
</svg>
