<?xml version="1.0" standalone="no"?>
<!DOCTYPE svg PUBLIC "-//W3C//DTD SVG 20010904//EN"
 "http://www.w3.org/TR/2001/REC-SVG-20010904/DTD/svg10.dtd">
<svg version="1.0" xmlns="http://www.w3.org/2000/svg"
 width="256.000000pt" height="256.000000pt" viewBox="0 0 256.000000 256.000000"
 preserveAspectRatio="xMidYMid meet">

<g transform="translate(0.000000,256.000000) scale(0.100000,-0.100000)"
fill="#000000" stroke="none">
<path d="M1745 2050 l-350 -350 145 -145 145 -145 350 350 350 350 -145 145
-145 145 -350 -350z"/>
<path d="M302 2237 l-142 -142 350 -350 350 -350 145 145 145 145 -347 347
c-192 192 -350 348 -353 348 -3 0 -69 -64 -148 -143z"/>
<path d="M1122 1427 c-72 -73 -132 -136 -132 -140 0 -4 63 -71 141 -148 l141
-142 139 139 139 139 -142 142 c-79 79 -145 143 -148 143 -3 0 -65 -60 -138
-133z"/>
<path d="M1552 1017 l-142 -142 350 -350 350 -350 145 145 145 145 -347 347
c-192 192 -350 348 -353 348 -3 0 -69 -64 -148 -143z"/>
<path d="M525 800 l-350 -350 145 -145 145 -145 350 350 350 350 -145 145
-145 145 -350 -350z"/>
</g>
</svg>
