<?xml version="1.0" standalone="no"?>
<!DOCTYPE svg PUBLIC "-//W3C//DTD SVG 20010904//EN"
 "http://www.w3.org/TR/2001/REC-SVG-20010904/DTD/svg10.dtd">
<svg version="1.0" xmlns="http://www.w3.org/2000/svg"
 width="256.000000pt" height="256.000000pt" viewBox="0 0 256.000000 256.000000"
 preserveAspectRatio="xMidYMid meet">

<g transform="translate(0.000000,256.000000) scale(0.100000,-0.100000)"
fill="#000000" stroke="none">
<path d="M722 1837 c-303 -303 -552 -557 -552 -562 0 -16 1094 -1105 1110
-1105 22 0 1113 1094 1109 1112 -2 8 -59 73 -127 144 l-122 128 -430 -429
-430 -430 -292 293 -293 292 292 292 293 293 75 -75 c41 -41 75 -79 75 -85 0
-5 -93 -103 -207 -217 l-208 -208 133 -132 132 -133 345 345 345 345 -340 340
c-187 187 -344 341 -348 343 -4 1 -256 -247 -560 -551z"/>
</g>
</svg>
