<?xml version="1.0" standalone="no"?>
<!DOCTYPE svg PUBLIC "-//W3C//DTD SVG 20010904//EN"
 "http://www.w3.org/TR/2001/REC-SVG-20010904/DTD/svg10.dtd">
<svg version="1.0" xmlns="http://www.w3.org/2000/svg"
 width="256.000000pt" height="256.000000pt" viewBox="0 0 256.000000 256.000000"
 preserveAspectRatio="xMidYMid meet">

<g transform="translate(0.000000,256.000000) scale(0.100000,-0.100000)"
fill="#000000" stroke="none">
<path d="M1040 2188 c-118 -117 -304 -300 -412 -407 -109 -107 -198 -196 -198
-197 0 -1 107 -4 238 -6 311 -6 322 -9 610 -181 155 -93 251 -137 370 -169
105 -29 338 -31 462 -5 95 21 240 66 240 76 0 3 -246 252 -547 553 l-548 548
-215 -212z"/>
<path d="M515 1354 c-150 -22 -345 -77 -345 -98 0 -6 245 -256 545 -556 l545
-544 217 214 c120 119 307 303 416 410 l198 195 -238 6 c-311 9 -329 14 -600
176 -253 150 -376 192 -583 198 -69 2 -138 1 -155 -1z"/>
</g>
</svg>
