<?xml version="1.0" standalone="no"?>
<!DOCTYPE svg PUBLIC "-//W3C//DTD SVG 20010904//EN"
 "http://www.w3.org/TR/2001/REC-SVG-20010904/DTD/svg10.dtd">
<svg version="1.0" xmlns="http://www.w3.org/2000/svg"
 width="256.000000pt" height="256.000000pt" viewBox="0 0 256.000000 256.000000"
 preserveAspectRatio="xMidYMid meet">

<g transform="translate(0.000000,256.000000) scale(0.100000,-0.100000)"
fill="#000000" stroke="none">
<path d="M1775 1953 c-49 -25 -91 -46 -92 -47 -2 -2 66 -148 151 -327 84 -178
162 -349 172 -379 12 -36 19 -83 19 -135 0 -70 -4 -86 -28 -128 -51 -86 -146
-134 -247 -125 -62 6 -120 43 -163 104 -17 24 -113 218 -214 429 -100 212
-198 410 -218 439 -103 155 -238 219 -383 182 -178 -45 -289 -157 -316 -319
l-13 -72 -41 83 c-23 45 -46 82 -51 82 -12 0 -172 -77 -183 -88 -4 -4 94 -221
218 -482 124 -261 241 -508 259 -547 l34 -73 97 45 c54 25 99 47 101 49 2 2
-64 145 -146 318 -181 380 -194 417 -195 523 -1 93 19 141 80 195 113 98 252
92 340 -16 21 -26 114 -206 225 -439 103 -217 204 -420 224 -450 45 -68 119
-135 182 -166 39 -19 64 -24 133 -24 78 0 92 3 162 37 137 65 201 145 222 279
6 38 13 69 16 69 3 0 20 -34 39 -75 18 -42 37 -78 42 -81 8 -4 199 80 199 89
0 14 -518 1091 -525 1093 -6 2 -50 -18 -100 -43z"/>
</g>
</svg>
