<?xml version="1.0" standalone="no"?>
<!DOCTYPE svg PUBLIC "-//W3C//DTD SVG 20010904//EN"
 "http://www.w3.org/TR/2001/REC-SVG-20010904/DTD/svg10.dtd">
<svg version="1.0" xmlns="http://www.w3.org/2000/svg"
 width="256.000000pt" height="256.000000pt" viewBox="0 0 256.000000 256.000000"
 preserveAspectRatio="xMidYMid meet">

<g transform="translate(0.000000,256.000000) scale(0.100000,-0.100000)"
fill="#000000" stroke="none">
<path d="M1285 2472 c-3 -3 -5 -188 -5 -411 l0 -406 100 -139 100 -139 0 407
c0 223 3 406 6 406 9 0 308 -123 317 -130 4 -3 6 -272 5 -597 l-3 -591 -170
102 -170 102 -346 467 c-190 258 -352 475 -361 483 -13 13 -22 14 -56 5 -54
-15 -96 -59 -121 -126 -21 -55 -21 -72 -21 -788 l0 -732 363 -151 362 -152 3
276 2 275 -102 136 -103 136 -3 -268 c-2 -249 -4 -268 -20 -263 -9 4 -80 32
-157 64 l-140 57 -3 599 c-1 330 0 598 2 595 2 -2 125 -170 274 -372 l269
-368 255 -159 256 -160 64 20 c73 22 91 38 113 99 13 37 15 141 15 735 l0 691
-360 151 c-198 83 -362 149 -365 146z"/>
</g>
</svg>
