<?xml version="1.0" standalone="no"?>
<!DOCTYPE svg PUBLIC "-//W3C//DTD SVG 20010904//EN"
 "http://www.w3.org/TR/2001/REC-SVG-20010904/DTD/svg10.dtd">
<svg version="1.0" xmlns="http://www.w3.org/2000/svg"
 width="256.000000pt" height="256.000000pt" viewBox="0 0 256.000000 256.000000"
 preserveAspectRatio="xMidYMid meet">

<g transform="translate(0.000000,256.000000) scale(0.100000,-0.100000)"
fill="#000000" stroke="none">
<path d="M1092 2384 c-167 -28 -348 -107 -489 -213 -376 -284 -536 -795 -388
-1238 37 -110 115 -260 126 -242 5 8 9 21 10 29 0 8 8 32 17 53 l17 38 0 -89
c0 -79 3 -93 27 -129 41 -62 118 -96 229 -101 107 -5 193 9 325 53 322 107
663 365 816 617 199 326 39 537 -352 462 -161 -30 -355 -114 -529 -228 -109
-72 -84 -45 49 54 428 316 912 481 1220 416 36 -8 67 -12 69 -10 6 6 -88 132
-146 194 -113 122 -295 237 -466 295 -157 53 -364 68 -535 39z m-356 -1108
c30 -30 34 -40 34 -84 0 -41 -5 -55 -28 -80 -60 -64 -157 -48 -196 31 -16 33
-17 45 -7 77 17 56 62 90 118 90 38 0 50 -5 79 -34z"/>
<path d="M2352 1289 c-177 -349 -637 -730 -1108 -917 -108 -44 -259 -87 -339
-98 -83 -11 -84 -19 -4 -48 109 -39 200 -56 334 -62 565 -27 1061 380 1150
942 9 55 15 137 13 183 l-3 84 -43 -84z"/>
</g>
</svg>
