<?xml version="1.0" standalone="no"?>
<!DOCTYPE svg PUBLIC "-//W3C//DTD SVG 20010904//EN"
 "http://www.w3.org/TR/2001/REC-SVG-20010904/DTD/svg10.dtd">
<svg version="1.0" xmlns="http://www.w3.org/2000/svg"
 width="256.000000pt" height="256.000000pt" viewBox="0 0 256.000000 256.000000"
 preserveAspectRatio="xMidYMid meet">

<g transform="translate(0.000000,256.000000) scale(0.100000,-0.100000)"
fill="#000000" stroke="none">
<path d="M1864 1828 c-49 -51 -267 -275 -485 -498 -218 -223 -411 -422 -429
-442 l-32 -38 177 0 177 0 175 165 176 165 39 -22 39 -22 384 384 c212 212
385 388 385 392 0 5 -116 8 -258 8 l-258 0 -90 -92z"/>
<path d="M631 1883 c14 -16 88 -95 165 -177 l139 -148 94 98 c51 55 125 134
163 177 l70 77 -328 0 -328 0 25 -27z"/>
<path d="M1110 1588 l-173 -162 -37 21 -37 22 -389 -390 -389 -389 261 0 261
0 389 398 c214 218 447 457 518 530 l130 132 -181 0 -180 0 -173 -162z"/>
<path d="M1462 876 l-163 -176 327 0 326 0 -123 131 c-68 72 -142 151 -164
176 l-40 45 -163 -176z"/>
</g>
</svg>
