<?xml version="1.0" standalone="no"?>
<!DOCTYPE svg PUBLIC "-//W3C//DTD SVG 20010904//EN"
 "http://www.w3.org/TR/2001/REC-SVG-20010904/DTD/svg10.dtd">
<svg version="1.0" xmlns="http://www.w3.org/2000/svg"
 width="256.000000pt" height="256.000000pt" viewBox="0 0 256.000000 256.000000"
 preserveAspectRatio="xMidYMid meet">

<g transform="translate(0.000000,256.000000) scale(0.100000,-0.100000)"
fill="#000000" stroke="none">
<path d="M391 1665 c-54 -15 -131 -53 -131 -65 0 -3 24 -29 54 -59 l53 -52 58
16 c174 51 338 -70 337 -249 0 -73 -18 -120 -67 -174 -124 -138 -339 -106
-428 62 -28 54 -30 164 -4 216 l18 35 -58 52 c-32 29 -61 52 -65 53 -3 0 -18
-24 -32 -52 -80 -165 -51 -349 75 -483 239 -253 661 -120 720 228 30 181 -71
367 -246 449 -81 37 -198 47 -284 23z"/>
<path d="M1700 1655 c0 -7 279 -363 289 -369 4 -3 26 18 50 45 l42 49 -108
140 -108 139 -82 1 c-46 0 -83 -2 -83 -5z"/>
<path d="M2197 1520 l-108 -140 42 -49 c24 -27 46 -48 50 -45 9 5 282 354 287
366 2 4 -34 8 -80 8 l-83 -1 -108 -139z"/>
<path d="M1222 1558 c-27 -51 -120 -232 -206 -401 l-158 -308 77 3 76 3 125
245 c69 135 129 249 134 253 4 5 36 -43 71 -107 l64 -116 68 0 67 0 -130 260
c-72 143 -132 260 -134 260 -3 0 -27 -42 -54 -92z"/>
<path d="M1847 1060 c-76 -99 -140 -187 -143 -195 -5 -13 6 -15 73 -15 l80 0
106 139 c59 77 108 144 109 150 3 10 -69 101 -80 101 -4 0 -69 -81 -145 -180z"/>
<path d="M2133 1195 c-21 -26 -37 -51 -35 -57 1 -6 50 -73 109 -149 l106 -139
80 0 c61 0 78 3 74 13 -7 19 -277 371 -287 375 -4 2 -25 -18 -47 -43z"/>
<path d="M1480 980 c0 -6 14 -37 30 -70 l30 -60 65 0 c36 0 65 2 65 5 0 2 -14
34 -32 70 l-32 65 -63 0 c-37 0 -63 -4 -63 -10z"/>
</g>
</svg>
