<?xml version="1.0" standalone="no"?>
<!DOCTYPE svg PUBLIC "-//W3C//DTD SVG 20010904//EN"
 "http://www.w3.org/TR/2001/REC-SVG-20010904/DTD/svg10.dtd">
<svg version="1.0" xmlns="http://www.w3.org/2000/svg"
 width="256.000000pt" height="256.000000pt" viewBox="0 0 256.000000 256.000000"
 preserveAspectRatio="xMidYMid meet">

<g transform="translate(0.000000,256.000000) scale(0.100000,-0.100000)"
fill="#000000" stroke="none">
<path d="M1205 2386 c-37 -16 -82 -68 -91 -102 -10 -41 2 -110 24 -142 45 -63
157 -81 220 -35 32 23 72 97 72 133 0 14 -10 46 -22 70 -39 76 -127 109 -203
76z"/>
<path d="M716 2138 c-132 -78 -83 -282 71 -295 37 -3 57 1 88 19 43 25 85 93
85 138 0 36 -40 110 -72 134 -42 30 -124 32 -172 4z"/>
<path d="M1674 2146 c-37 -17 -69 -55 -84 -102 -23 -69 12 -149 79 -184 69
-35 139 -21 195 39 58 61 44 183 -27 233 -37 27 -120 34 -163 14z"/>
<path d="M240 1898 c-77 -53 -100 -139 -58 -213 25 -43 93 -85 138 -85 36 0
110 40 134 72 30 42 32 124 4 172 -44 74 -150 100 -218 54z"/>
<path d="M1177 1895 c-47 -32 -67 -71 -67 -130 0 -171 220 -224 298 -72 20 38
23 55 18 92 -18 115 -153 175 -249 110z"/>
<path d="M2134 1901 c-78 -47 -103 -130 -62 -208 79 -154 298 -99 298 74 0 56
-33 114 -80 138 -41 21 -118 19 -156 -4z"/>
<path d="M716 1668 c-132 -78 -83 -282 71 -295 37 -3 57 1 88 19 43 25 85 93
85 138 0 36 -40 110 -72 134 -42 30 -124 32 -172 4z"/>
<path d="M1674 1676 c-37 -16 -69 -55 -84 -102 -34 -103 59 -214 168 -201 150
17 196 220 66 294 -44 26 -103 29 -150 9z"/>
<path d="M1182 1430 c-46 -28 -72 -76 -72 -133 0 -173 219 -228 298 -74 56
109 -19 227 -145 227 -30 0 -60 -7 -81 -20z"/>
<path d="M274 1430 c-67 -27 -87 -133 -36 -188 75 -80 202 -28 202 82 0 84
-86 139 -166 106z"/>
<path d="M2158 1425 c-63 -36 -77 -123 -28 -179 36 -40 76 -52 125 -36 83 27
105 138 41 199 -31 30 -100 37 -138 16z"/>
<path d="M714 1166 c-29 -29 -34 -41 -34 -81 0 -40 5 -52 34 -81 29 -29 41
-34 81 -34 40 0 52 5 81 34 29 29 34 41 34 81 0 40 -5 52 -34 81 -29 29 -41
34 -81 34 -40 0 -52 -5 -81 -34z"/>
<path d="M1673 1180 c-36 -21 -60 -82 -50 -122 24 -93 149 -124 207 -51 63 81
11 193 -90 193 -19 0 -49 -9 -67 -20z"/>
<path d="M282 1033 c-21 -8 -43 -61 -36 -88 8 -31 49 -65 79 -65 40 0 75 37
75 79 0 61 -59 98 -118 74z"/>
<path d="M2162 1017 c-32 -34 -30 -89 4 -116 37 -29 70 -26 105 8 33 33 35 50
14 90 -24 48 -87 57 -123 18z"/>
<path d="M1194 937 c-70 -64 -49 -165 41 -196 35 -12 45 -11 77 2 41 17 78 68
78 105 0 37 -28 86 -59 105 -47 28 -96 22 -137 -16z"/>
<path d="M752 793 c-21 -8 -43 -61 -36 -87 15 -60 98 -82 135 -37 25 31 24 86
-1 111 -19 19 -67 26 -98 13z"/>
<path d="M1681 774 c-31 -39 -27 -77 10 -108 34 -29 50 -32 82 -14 50 26 61
77 26 122 -29 37 -89 37 -118 0z"/>
<path d="M288 695 c-8 -19 -8 -28 2 -40 18 -21 57 -19 70 4 13 25 13 27 -6 45
-23 24 -53 20 -66 -9z"/>
<path d="M2186 704 c-19 -18 -19 -20 -6 -45 13 -23 52 -25 70 -4 10 12 10 21
2 40 -13 29 -43 33 -66 9z"/>
<path d="M1244 560 c-28 -11 -54 -48 -54 -76 0 -12 9 -33 21 -48 29 -37 89
-37 118 0 27 34 27 67 -1 98 -27 29 -55 38 -84 26z"/>
<path d="M762 468 c-27 -27 -6 -68 35 -68 29 0 48 33 33 60 -12 22 -49 27 -68
8z"/>
<path d="M1710 465 c-26 -32 13 -81 48 -59 22 14 27 41 12 59 -16 19 -44 19
-60 0z"/>
<path d="M1237 233 c-11 -11 -8 -48 5 -61 30 -30 75 0 64 43 -5 19 -13 25 -35
25 -15 0 -31 -3 -34 -7z"/>
</g>
</svg>
