<?xml version="1.0" standalone="no"?>
<!DOCTYPE svg PUBLIC "-//W3C//DTD SVG 20010904//EN"
 "http://www.w3.org/TR/2001/REC-SVG-20010904/DTD/svg10.dtd">
<svg version="1.0" xmlns="http://www.w3.org/2000/svg"
 width="256.000000pt" height="256.000000pt" viewBox="0 0 256.000000 256.000000"
 preserveAspectRatio="xMidYMid meet">

<g transform="translate(0.000000,256.000000) scale(0.100000,-0.100000)"
fill="#000000" stroke="none">
<path d="M827 2212 l-427 -267 0 -675 0 -675 422 -254 c232 -140 427 -254 433
-254 7 0 206 114 443 253 l432 253 0 676 0 676 -392 240 c-215 132 -412 252
-437 267 l-47 27 -427 -267z m353 -953 c0 -768 -2 -930 -13 -927 -8 2 -149 88
-315 193 l-302 190 0 557 0 558 23 14 c51 34 593 346 600 346 4 0 7 -419 7
-931z m558 721 l262 -142 0 -209 0 -209 -85 0 -84 0 -3 157 -3 157 -140 78
c-77 42 -146 77 -152 77 -10 1 -13 -130 -13 -624 0 -371 4 -625 9 -625 5 0 75
39 155 86 l146 86 0 109 0 109 -60 0 -60 0 0 85 0 85 145 0 145 0 -2 -246 -3
-246 -285 -170 c-157 -93 -302 -178 -322 -189 l-38 -19 0 931 0 931 63 -34
c34 -19 180 -99 325 -178z"/>
<path d="M863 1813 l-133 -77 0 -465 1 -466 132 -82 132 -82 3 315 c1 173 1
454 0 624 l-3 309 -132 -76z"/>
</g>
</svg>
