<?xml version="1.0" standalone="no"?>
<!DOCTYPE svg PUBLIC "-//W3C//DTD SVG 20010904//EN"
 "http://www.w3.org/TR/2001/REC-SVG-20010904/DTD/svg10.dtd">
<svg version="1.0" xmlns="http://www.w3.org/2000/svg"
 width="256.000000pt" height="256.000000pt" viewBox="0 0 256.000000 256.000000"
 preserveAspectRatio="xMidYMid meet">

<g transform="translate(0.000000,256.000000) scale(0.100000,-0.100000)"
fill="#000000" stroke="none">
<path d="M1075 2385 c-393 -70 -652 -345 -751 -795 -27 -123 -27 -497 0 -620
20 -92 70 -248 84 -262 5 -5 110 97 235 228 l227 237 0 84 c0 269 68 520 167
615 63 60 134 88 229 88 47 0 99 -6 127 -16 55 -19 130 -82 168 -143 l29 -44
-37 -41 c-19 -23 -90 -97 -157 -166 -108 -111 -602 -626 -839 -877 l-87 -91
61 -82 c180 -238 455 -355 797 -337 472 24 789 321 887 828 23 119 30 342 16
468 -13 106 -54 288 -69 303 -5 5 -118 -107 -253 -248 l-244 -256 -6 -91 c-12
-174 -58 -344 -116 -427 -43 -61 -114 -114 -176 -131 -65 -17 -204 -7 -254 19
-48 25 -113 79 -113 94 0 15 39 58 275 303 117 121 352 366 523 545 l310 324
-20 41 c-50 98 -165 232 -258 300 -73 54 -185 105 -288 132 -123 31 -344 40
-467 18z"/>
</g>
</svg>
