<?xml version="1.0" standalone="no"?>
<!DOCTYPE svg PUBLIC "-//W3C//DTD SVG 20010904//EN"
 "http://www.w3.org/TR/2001/REC-SVG-20010904/DTD/svg10.dtd">
<svg version="1.0" xmlns="http://www.w3.org/2000/svg"
 width="256.000000pt" height="256.000000pt" viewBox="0 0 256.000000 256.000000"
 preserveAspectRatio="xMidYMid meet">

<g transform="translate(0.000000,256.000000) scale(0.100000,-0.100000)"
fill="#000000" stroke="none">
<path d="M1185 1828 c-16 -46 -335 -1048 -335 -1052 0 -10 109 -6 115 4 3 5
70 197 150 426 79 229 146 418 148 420 2 2 68 -170 147 -383 78 -214 151 -407
161 -430 l18 -43 60 0 c34 0 61 2 61 4 0 2 -77 224 -171 493 -94 268 -178 507
-186 531 l-15 42 -74 0 c-51 0 -76 -4 -79 -12z"/>
<path d="M1951 1824 c-52 -22 -116 -79 -135 -118 -14 -29 -16 -79 -16 -354 0
-358 6 -399 73 -499 51 -76 73 -83 272 -83 158 0 173 2 210 23 50 28 100 101
114 167 7 31 11 178 11 371 0 303 -1 321 -21 364 -27 56 -96 120 -145 134 -61
17 -322 13 -363 -5z m314 -139 c22 -9 55 -28 73 -41 l32 -25 0 -278 c0 -273 0
-279 -22 -307 -59 -75 -127 -108 -228 -108 -89 -1 -147 26 -183 84 -21 34 -22
46 -25 315 -2 211 1 286 10 305 7 14 38 38 68 53 51 27 61 28 145 24 52 -3
107 -12 130 -22z"/>
<path d="M80 1295 l0 -525 213 0 c240 0 287 8 359 63 24 18 53 52 66 77 22 44
23 49 20 365 l-3 320 -27 50 c-34 65 -99 132 -151 156 -37 16 -68 19 -259 19
l-218 0 0 -525z m435 386 c60 -27 101 -80 115 -146 7 -35 10 -128 8 -248 l-3
-192 -31 -55 c-52 -91 -61 -94 -240 -98 l-154 -3 0 380 0 381 133 0 c106 0
140 -4 172 -19z"/>
</g>
</svg>
