<?xml version="1.0" standalone="no"?>
<!DOCTYPE svg PUBLIC "-//W3C//DTD SVG 20010904//EN"
 "http://www.w3.org/TR/2001/REC-SVG-20010904/DTD/svg10.dtd">
<svg version="1.0" xmlns="http://www.w3.org/2000/svg"
 width="256.000000pt" height="256.000000pt" viewBox="0 0 256.000000 256.000000"
 preserveAspectRatio="xMidYMid meet">

<g transform="translate(0.000000,256.000000) scale(0.100000,-0.100000)"
fill="#000000" stroke="none">
<path d="M349 1667 c-175 -50 -281 -214 -266 -412 11 -144 87 -264 205 -322
52 -26 66 -28 167 -28 130 1 176 17 253 89 90 85 137 231 115 360 -33 196
-159 313 -345 322 -50 2 -101 -1 -129 -9z m162 -128 c129 -28 208 -185 165
-330 -23 -80 -53 -120 -115 -151 -179 -91 -357 47 -338 259 11 112 68 190 161
219 52 16 64 16 127 3z"/>
<path d="M2057 1670 c-173 -44 -279 -211 -264 -420 9 -128 59 -229 143 -290
117 -84 295 -80 387 7 l27 27 0 -37 0 -37 65 0 65 0 -2 198 -3 197 -170 0
-170 0 -3 -62 -3 -63 104 0 c57 0 106 -3 110 -6 9 -9 -20 -75 -46 -103 -32
-34 -78 -51 -142 -51 -136 0 -214 80 -223 231 -6 102 16 177 66 227 99 99 294
73 332 -43 l12 -35 69 0 c79 0 80 1 49 82 -24 65 -86 129 -154 159 -56 24
-187 34 -249 19z"/>
<path d="M930 1290 l0 -370 60 0 60 0 0 252 c0 142 4 248 9 243 4 -6 48 -119
96 -253 l88 -243 65 3 65 3 91 250 91 249 3 -252 2 -252 65 0 65 0 0 370 0
370 -88 0 -87 0 -100 -276 c-55 -152 -102 -277 -105 -279 -3 -2 -50 121 -105
273 l-100 277 -88 3 -87 3 0 -371z"/>
</g>
</svg>
