<?xml version="1.0" standalone="no"?>
<!DOCTYPE svg PUBLIC "-//W3C//DTD SVG 20010904//EN"
 "http://www.w3.org/TR/2001/REC-SVG-20010904/DTD/svg10.dtd">
<svg version="1.0" xmlns="http://www.w3.org/2000/svg"
 width="256.000000pt" height="256.000000pt" viewBox="0 0 256.000000 256.000000"
 preserveAspectRatio="xMidYMid meet">

<g transform="translate(0.000000,256.000000) scale(0.100000,-0.100000)"
fill="#000000" stroke="none">
<path d="M1838 2465 c-169 -43 -305 -169 -366 -338 -26 -71 -26 -76 -30 -404
l-4 -333 -76 0 c-43 0 -114 -3 -159 -6 l-81 -7 -4 334 c-4 309 -6 339 -26 400
-102 309 -455 451 -743 298 -104 -56 -200 -171 -241 -289 l-23 -65 0 -775 0
-775 23 -65 c73 -211 267 -350 486 -350 233 0 426 140 498 359 20 61 22 91 26
394 l4 327 76 0 c43 0 114 3 159 6 l81 7 4 -334 c4 -309 6 -339 26 -400 72
-217 266 -359 492 -359 223 0 411 132 492 345 l23 60 3 754 c2 491 -1 773 -8
810 -32 172 -165 327 -335 390 -78 29 -217 37 -297 16z m-1114 -224 c63 -31
109 -74 141 -132 l30 -54 3 -347 3 -347 -23 -5 c-242 -53 -400 -107 -512 -174
-37 -23 -70 -42 -72 -42 -10 0 -3 842 7 890 21 97 102 186 201 222 65 23 161
18 222 -11z m1373 -4 c62 -32 116 -89 145 -152 20 -44 23 -65 23 -185 0 -127
-2 -138 -27 -186 -50 -96 -152 -169 -318 -228 -72 -26 -221 -66 -247 -66 -16
0 -18 575 -3 630 49 178 262 271 427 187z m171 -1264 l-3 -448 -28 -57 c-55
-112 -153 -173 -277 -173 -117 1 -209 55 -265 156 l-30 54 -3 347 -3 347 23 5
c242 53 403 108 508 173 36 23 69 42 73 42 4 1 7 -200 5 -446z m-1370 -150
c-3 -308 -4 -319 -26 -360 -35 -66 -79 -110 -140 -140 -48 -24 -69 -28 -137
-27 -96 0 -158 27 -221 96 -64 70 -79 120 -79 273 0 121 2 133 27 180 63 120
208 208 448 271 47 12 95 23 108 23 l23 1 -3 -317z"/>
</g>
</svg>
