<?xml version="1.0" standalone="no"?>
<!DOCTYPE svg PUBLIC "-//W3C//DTD SVG 20010904//EN"
 "http://www.w3.org/TR/2001/REC-SVG-20010904/DTD/svg10.dtd">
<svg version="1.0" xmlns="http://www.w3.org/2000/svg"
 width="256.000000pt" height="256.000000pt" viewBox="0 0 256.000000 256.000000"
 preserveAspectRatio="xMidYMid meet">

<g transform="translate(0.000000,256.000000) scale(0.100000,-0.100000)"
fill="#000000" stroke="none">
<path d="M1130 2465 c-132 -28 -275 -92 -389 -172 l-63 -46 -87 86 c-47 47
-93 86 -101 87 -32 5 -51 -1 -70 -20 -19 -19 -20 -33 -20 -536 0 -590 -2 -571
85 -749 160 -328 483 -525 863 -525 168 0 344 57 509 166 l97 64 93 -91 c83
-82 95 -91 120 -85 16 4 36 16 46 28 16 19 17 59 17 535 0 589 2 571 -85 748
-122 247 -337 423 -601 491 -124 32 -316 41 -414 19z m338 -151 c256 -52 474
-233 578 -481 l29 -68 5 -433 c3 -237 3 -432 0 -432 -10 0 -1260 1255 -1260
1266 0 25 190 118 304 149 70 19 250 18 344 -1z m342 -1409 c0 -21 -147 -100
-249 -135 -125 -42 -295 -44 -446 -5 -231 59 -445 254 -534 485 l-31 79 0 423
0 423 630 -630 c347 -346 630 -634 630 -640z"/>
<path d="M436 768 c-23 -33 -23 -313 0 -346 17 -24 62 -30 82 -10 17 17 17
349 0 366 -20 20 -65 14 -82 -10z"/>
<path d="M2132 504 c-20 -14 -22 -23 -22 -125 0 -126 8 -149 50 -149 52 0 60
19 60 141 0 96 -2 111 -20 129 -24 24 -38 25 -68 4z"/>
<path d="M1277 462 c-14 -16 -17 -44 -17 -184 0 -147 2 -167 18 -181 24 -22
55 -21 75 1 14 16 17 44 17 184 0 147 -2 167 -18 181 -24 22 -55 21 -75 -1z"/>
</g>
</svg>
