<?xml version="1.0" standalone="no"?>
<!DOCTYPE svg PUBLIC "-//W3C//DTD SVG 20010904//EN"
 "http://www.w3.org/TR/2001/REC-SVG-20010904/DTD/svg10.dtd">
<svg version="1.0" xmlns="http://www.w3.org/2000/svg"
 width="256.000000pt" height="256.000000pt" viewBox="0 0 256.000000 256.000000"
 preserveAspectRatio="xMidYMid meet">

<g transform="translate(0.000000,256.000000) scale(0.100000,-0.100000)"
fill="#000000" stroke="none">
<path d="M1177 2329 c-116 -12 -260 -54 -375 -109 -96 -46 -235 -130 -247
-150 -3 -5 396 -410 886 -901 l890 -893 -4 549 c-3 515 -5 555 -24 635 -120
489 -478 823 -934 870 -56 5 -104 9 -108 9 -3 -1 -41 -5 -84 -10z"/>
<path d="M173 1749 c4 -443 7 -547 21 -609 96 -442 395 -778 783 -881 100 -27
295 -36 401 -19 103 16 249 64 347 112 88 45 209 120 220 137 6 10 -1741 1781
-1766 1790 -7 2 -9 -167 -6 -530z"/>
</g>
</svg>
