<?xml version="1.0" standalone="no"?>
<!DOCTYPE svg PUBLIC "-//W3C//DTD SVG 20010904//EN"
 "http://www.w3.org/TR/2001/REC-SVG-20010904/DTD/svg10.dtd">
<svg version="1.0" xmlns="http://www.w3.org/2000/svg"
 width="256.000000pt" height="256.000000pt" viewBox="0 0 256.000000 256.000000"
 preserveAspectRatio="xMidYMid meet">

<g transform="translate(0.000000,256.000000) scale(0.100000,-0.100000)"
fill="#000000" stroke="none">
<path d="M1092 2384 c-232 -39 -475 -170 -632 -342 -77 -83 -96 -117 -82 -147
12 -26 336 -215 369 -215 14 0 53 27 98 69 128 116 267 171 435 171 165 0 306
-55 429 -166 48 -43 80 -64 97 -64 24 0 275 137 342 187 45 34 42 61 -17 130
-166 198 -411 335 -672 378 -114 18 -255 18 -367 -1z"/>
<path d="M2077 1664 c-92 -53 -174 -106 -182 -118 -13 -20 -13 -31 5 -101 24
-95 26 -223 4 -315 -27 -116 -79 -205 -174 -300 -132 -132 -268 -190 -450
-190 -182 0 -318 58 -450 190 -95 95 -147 184 -174 300 -20 85 -20 211 1 305
12 55 13 81 6 98 -7 13 -77 60 -183 121 -208 119 -210 119 -251 11 -84 -218
-89 -507 -14 -732 246 -732 1126 -1008 1741 -545 329 248 495 663 429 1070
-28 171 -83 302 -127 302 -7 0 -89 -43 -181 -96z"/>
</g>
</svg>
