<?xml version="1.0" standalone="no"?>
<!DOCTYPE svg PUBLIC "-//W3C//DTD SVG 20010904//EN"
 "http://www.w3.org/TR/2001/REC-SVG-20010904/DTD/svg10.dtd">
<svg version="1.0" xmlns="http://www.w3.org/2000/svg"
 width="256.000000pt" height="256.000000pt" viewBox="0 0 256.000000 256.000000"
 preserveAspectRatio="xMidYMid meet">

<g transform="translate(0.000000,256.000000) scale(0.100000,-0.100000)"
fill="#000000" stroke="none">
<path d="M730 2226 c-314 -67 -545 -286 -626 -591 -25 -97 -25 -293 0 -390 76
-287 293 -505 581 -581 50 -13 108 -19 205 -20 l135 -1 95 -94 c77 -77 112
-104 187 -142 134 -69 220 -90 373 -90 153 0 240 21 371 89 273 141 446 446
426 753 -7 116 -29 197 -82 306 -95 198 -265 342 -490 416 -59 19 -94 23 -222
25 l-153 2 -35 43 c-100 122 -257 222 -415 263 -88 23 -267 29 -350 12z m1095
-451 c353 -75 588 -429 521 -785 -37 -202 -178 -391 -356 -478 -113 -56 -194
-75 -310 -75 -170 0 -331 61 -453 173 -37 34 -67 66 -67 70 0 5 25 20 55 34
371 170 552 598 419 991 -13 38 -24 73 -24 78 0 12 142 7 215 -8z"/>
</g>
</svg>
