<?xml version="1.0" standalone="no"?>
<!DOCTYPE svg PUBLIC "-//W3C//DTD SVG 20010904//EN"
 "http://www.w3.org/TR/2001/REC-SVG-20010904/DTD/svg10.dtd">
<svg version="1.0" xmlns="http://www.w3.org/2000/svg"
 width="256.000000pt" height="256.000000pt" viewBox="0 0 256.000000 256.000000"
 preserveAspectRatio="xMidYMid meet">

<g transform="translate(0.000000,256.000000) scale(0.100000,-0.100000)"
fill="#000000" stroke="none">
<path d="M553 1906 c-126 -32 -246 -122 -332 -251 -94 -140 -134 -292 -135
-505 -1 -183 13 -235 83 -312 114 -125 286 -165 509 -119 257 54 422 209 492
466 31 114 40 389 16 478 -32 116 -105 190 -224 228 -86 27 -328 36 -409 15z
m256 -263 c68 -51 81 -152 42 -315 -52 -221 -169 -358 -305 -358 -99 0 -139
51 -137 179 1 204 127 463 246 507 50 18 119 12 154 -13z"/>
<path d="M1575 1878 c-4 -18 -63 -282 -131 -587 -68 -305 -124 -558 -124 -563
0 -4 69 -8 153 -8 l154 0 53 204 53 205 196 3 196 3 85 41 c105 51 185 122
231 206 32 59 34 69 34 158 0 83 -4 103 -28 156 -34 73 -111 152 -183 188
l-52 26 -315 0 -315 0 -7 -32z m541 -241 c20 -18 28 -35 31 -74 7 -65 -18
-108 -84 -152 -45 -30 -49 -31 -165 -31 -75 0 -118 4 -118 10 0 11 48 236 55
258 3 9 38 12 129 12 116 0 127 -2 152 -23z"/>
</g>
</svg>
