<?xml version="1.0" standalone="no"?>
<!DOCTYPE svg PUBLIC "-//W3C//DTD SVG 20010904//EN"
 "http://www.w3.org/TR/2001/REC-SVG-20010904/DTD/svg10.dtd">
<svg version="1.0" xmlns="http://www.w3.org/2000/svg"
 width="256.000000pt" height="256.000000pt" viewBox="0 0 256.000000 256.000000"
 preserveAspectRatio="xMidYMid meet">

<g transform="translate(0.000000,256.000000) scale(0.100000,-0.100000)"
fill="#000000" stroke="none">
<path d="M1170 2393 c0 -14 168 -93 197 -93 28 0 153 59 153 72 0 12 -37 16
-197 23 -84 3 -153 2 -153 -2z"/>
<path d="M918 2323 c-143 -115 -201 -167 -190 -171 9 -3 463 89 515 104 9 3
17 10 17 15 0 12 -214 119 -240 119 -10 0 -57 -30 -102 -67z"/>
<path d="M1585 2339 c-107 -56 -128 -71 -114 -84 18 -16 489 -177 489 -166 0
8 -197 186 -268 244 -41 32 -54 33 -107 6z"/>
<path d="M666 2221 c-37 -22 -75 -46 -84 -55 -14 -14 -14 -16 1 -22 16 -6 39
9 150 98 37 29 6 19 -67 -21z"/>
<path d="M959 2140 c-296 -63 -299 -64 -299 -82 1 -7 69 -92 153 -188 112
-128 159 -175 175 -175 18 0 47 42 166 245 79 135 142 248 139 253 -8 14 -70
4 -334 -53z"/>
<path d="M1460 2179 c0 -6 64 -103 141 -215 115 -166 146 -204 165 -204 26 0
264 203 264 225 0 7 -15 18 -32 25 -50 18 -531 180 -535 180 -2 0 -3 -5 -3
-11z"/>
<path d="M1353 2168 c-34 -43 -283 -484 -281 -497 3 -11 13 -15 33 -14 82 6
552 55 563 58 6 2 12 12 12 20 0 22 -291 445 -306 445 -6 0 -16 -6 -21 -12z"/>
<path d="M1997 2113 c67 -77 79 -87 99 -79 21 8 9 24 -66 80 -85 65 -89 65
-33 -1z"/>
<path d="M505 2102 c-17 -11 -108 -133 -103 -137 7 -7 138 119 138 133 0 13
-19 16 -35 4z"/>
<path d="M579 1983 c-41 -107 -209 -562 -209 -567 0 -16 54 2 292 97 175 69
260 108 264 119 4 13 -39 69 -148 195 -85 98 -161 179 -171 181 -11 2 -21 -6
-28 -25z"/>
<path d="M2137 1984 c-3 -4 -1 -16 5 -28 15 -28 108 -140 108 -129 0 15 -85
157 -96 160 -5 2 -13 0 -17 -3z"/>
<path d="M370 1855 c-69 -62 -129 -125 -135 -140 -7 -21 -2 -49 30 -142 22
-63 44 -115 50 -115 8 0 194 482 195 505 0 17 -21 0 -140 -108z"/>
<path d="M1946 1823 c-91 -77 -126 -112 -126 -129 0 -15 45 -64 153 -165 217
-204 216 -203 223 -197 6 6 -93 575 -103 591 -9 15 -25 4 -147 -100z"/>
<path d="M2170 1832 c0 -31 91 -497 99 -505 14 -14 121 133 121 166 0 17 -38
85 -105 187 -97 149 -115 173 -115 152z"/>
<path d="M1385 1629 c-328 -35 -308 -32 -312 -45 -2 -6 87 -116 198 -245 244
-284 265 -307 279 -293 6 6 44 140 85 299 78 301 80 317 31 314 -11 -1 -138
-14 -281 -30z"/>
<path d="M1760 1598 c-5 -13 -41 -146 -79 -296 -58 -225 -67 -274 -55 -279 14
-5 487 175 532 203 12 8 22 19 22 23 0 13 -378 365 -396 369 -7 2 -18 -7 -24
-20z"/>
<path d="M177 1389 c-10 -95 -15 -175 -11 -178 8 -8 58 54 86 106 l23 42 -33
101 c-18 55 -37 100 -41 100 -4 0 -15 -77 -24 -171z"/>
<path d="M660 1452 c-238 -95 -279 -114 -280 -132 0 -6 339 -323 378 -354 16
-12 27 -15 33 -9 6 6 43 139 84 296 54 212 70 289 62 296 -8 6 -99 -26 -277
-97z"/>
<path d="M1000 1526 c0 -3 -34 -136 -75 -296 -42 -160 -73 -295 -70 -301 4 -5
27 -9 53 -9 92 1 562 56 573 67 8 8 -40 70 -181 234 -270 314 -266 309 -284
309 -9 0 -16 -2 -16 -4z"/>
<path d="M2346 1314 c-25 -32 -48 -71 -51 -86 -7 -32 52 -225 65 -211 9 10 44
343 36 350 -2 3 -25 -21 -50 -53z"/>
<path d="M222 1178 c-29 -40 -52 -84 -52 -97 0 -26 8 -41 128 -224 46 -71 86
-126 89 -124 2 3 -14 108 -36 233 -53 294 -50 284 -65 284 -7 0 -36 -33 -64
-72z"/>
<path d="M360 1233 c0 -19 101 -567 106 -574 3 -5 11 -9 19 -9 18 0 248 198
257 222 9 23 2 30 -204 222 -143 133 -178 160 -178 139z"/>
<path d="M1900 1062 c-171 -69 -266 -112 -268 -122 -4 -22 306 -382 325 -378
17 3 237 583 227 599 -3 5 -8 9 -12 9 -4 -1 -126 -49 -272 -108z"/>
<path d="M2230 1098 c-32 -74 -180 -484 -177 -491 3 -9 237 196 265 231 6 9
12 27 12 41 0 35 -69 241 -81 241 -5 0 -14 -10 -19 -22z"/>
<path d="M1170 889 c-140 -15 -263 -28 -272 -28 -11 -1 -18 -9 -18 -20 0 -11
61 -109 136 -218 156 -227 161 -233 179 -227 17 7 295 485 295 507 0 22 -1 21
-320 -14z"/>
<path d="M1552 878 c-5 -7 -73 -121 -151 -253 -85 -146 -137 -243 -131 -249 6
-6 129 16 317 55 258 55 308 68 308 82 0 20 -304 377 -321 377 -6 0 -16 -6
-22 -12z"/>
<path d="M658 714 c-68 -58 -124 -111 -126 -119 -2 -7 6 -18 17 -24 30 -16
520 -181 538 -181 8 0 13 6 10 13 -6 15 -254 376 -275 400 -8 9 -21 17 -28 17
-7 0 -68 -47 -136 -106z"/>
<path d="M311 743 c2 -23 87 -158 99 -158 26 0 11 35 -43 101 -50 64 -58 71
-56 57z"/>
<path d="M2081 546 c-55 -54 -64 -67 -53 -78 11 -11 19 -7 42 20 43 51 92 122
85 122 -4 0 -37 -29 -74 -64z"/>
<path d="M450 532 c0 -5 10 -18 23 -29 35 -32 137 -104 137 -97 0 15 -125 134
-142 134 -10 0 -18 -4 -18 -8z"/>
<path d="M600 482 c0 -4 65 -65 145 -135 111 -97 152 -127 173 -127 30 0 151
60 172 85 10 12 10 16 -1 20 -41 15 -481 165 -485 165 -2 0 -4 -3 -4 -8z"/>
<path d="M1570 372 c-146 -31 -265 -61 -265 -67 0 -17 197 -114 232 -115 26 0
57 21 167 110 75 61 136 115 136 120 0 6 -1 10 -2 9 -2 0 -122 -26 -268 -57z"/>
<path d="M1893 384 c-87 -70 -93 -79 -33 -49 84 42 131 75 125 85 -12 19 -35
10 -92 -36z"/>
<path d="M1111 244 c-39 -19 -71 -39 -71 -44 0 -9 80 -17 248 -24 60 -2 102 0
102 5 0 10 -176 99 -195 99 -7 0 -44 -16 -84 -36z"/>
</g>
</svg>
