<?xml version="1.0" standalone="no"?>
<!DOCTYPE svg PUBLIC "-//W3C//DTD SVG 20010904//EN"
 "http://www.w3.org/TR/2001/REC-SVG-20010904/DTD/svg10.dtd">
<svg version="1.0" xmlns="http://www.w3.org/2000/svg"
 width="256.000000pt" height="256.000000pt" viewBox="0 0 256.000000 256.000000"
 preserveAspectRatio="xMidYMid meet">

<g transform="translate(0.000000,256.000000) scale(0.100000,-0.100000)"
fill="#000000" stroke="none">
<path d="M1248 2464 c-35 -19 -48 -43 -48 -92 0 -29 7 -46 26 -65 28 -29 46
-33 171 -42 273 -19 550 -187 708 -428 93 -143 139 -279 156 -462 12 -123 18
-139 59 -160 36 -19 63 -19 99 0 45 23 55 61 48 178 -26 422 -304 816 -696
988 -183 80 -450 123 -523 83z"/>
<path d="M1125 1984 c-88 -19 -234 -89 -304 -147 -117 -98 -217 -262 -246
-405 -54 -263 42 -539 246 -709 116 -95 304 -163 454 -163 205 0 422 102 551
258 255 309 209 776 -101 1021 -171 135 -391 189 -600 145z m292 -316 c207
-76 318 -297 254 -506 -75 -248 -346 -366 -578 -252 -118 58 -199 169 -224
304 -32 174 66 362 228 438 108 51 212 56 320 16z"/>
<path d="M184 1661 c-36 -22 -58 -75 -48 -115 3 -14 20 -37 36 -51 84 -70 206
18 164 118 -15 38 -59 67 -98 67 -13 0 -37 -9 -54 -19z"/>
<path d="M114 1326 c-31 -31 -34 -39 -34 -92 0 -33 7 -102 14 -154 38 -251
151 -475 331 -655 208 -209 466 -326 755 -341 111 -6 136 3 163 59 16 31 17
42 7 73 -18 54 -54 70 -168 77 -467 28 -859 414 -888 877 -7 106 -19 144 -51
170 -40 32 -89 26 -129 -14z"/>
<path d="M2239 1061 c-52 -52 -35 -144 31 -171 72 -30 145 19 145 97 0 38 -5
49 -33 74 -45 41 -102 41 -143 0z"/>
</g>
</svg>
