<?xml version="1.0" standalone="no"?>
<!DOCTYPE svg PUBLIC "-//W3C//DTD SVG 20010904//EN"
 "http://www.w3.org/TR/2001/REC-SVG-20010904/DTD/svg10.dtd">
<svg version="1.0" xmlns="http://www.w3.org/2000/svg"
 width="256.000000pt" height="256.000000pt" viewBox="0 0 256.000000 256.000000"
 preserveAspectRatio="xMidYMid meet">

<g transform="translate(0.000000,256.000000) scale(0.100000,-0.100000)"
fill="#000000" stroke="none">
<path d="M1955 2221 c-47 -21 -102 -80 -111 -119 -3 -15 -7 -33 -10 -40 -2 -7
1 -36 7 -64 22 -102 138 -175 235 -149 92 25 154 102 154 192 -1 144 -146 239
-275 180z"/>
<path d="M900 2131 c-346 -75 -618 -336 -711 -681 -33 -122 -33 -338 -1 -460
89 -332 344 -586 677 -676 109 -29 362 -27 469 4 223 65 417 204 535 385 26
40 50 67 61 67 37 0 53 36 61 138 4 53 10 104 13 112 3 8 9 49 14 90 l7 75 77
50 c43 28 106 66 140 86 100 57 172 172 154 244 -9 36 -72 103 -120 127 -64
33 -153 22 -257 -31 -45 -23 -83 -40 -84 -39 -2 2 -12 21 -23 43 -31 63 -106
159 -174 226 -113 109 -258 191 -418 233 -100 27 -313 31 -420 7z m325 -406
c180 -47 335 -203 374 -376 8 -35 7 -56 -5 -95 -9 -28 -16 -86 -16 -134 0 -75
-4 -92 -30 -142 -58 -109 -179 -208 -300 -243 -83 -25 -213 -25 -296 0 -161
47 -296 186 -346 354 -18 62 -21 193 -5 261 39 171 193 327 370 374 72 19 181
20 254 1z"/>
</g>
</svg>
