<?xml version="1.0" standalone="no"?>
<!DOCTYPE svg PUBLIC "-//W3C//DTD SVG 20010904//EN"
 "http://www.w3.org/TR/2001/REC-SVG-20010904/DTD/svg10.dtd">
<svg version="1.0" xmlns="http://www.w3.org/2000/svg"
 width="256.000000pt" height="256.000000pt" viewBox="0 0 256.000000 256.000000"
 preserveAspectRatio="xMidYMid meet">

<g transform="translate(0.000000,256.000000) scale(0.100000,-0.100000)"
fill="#000000" stroke="none">
<path d="M1680 2389 c-80 -34 -127 -151 -95 -241 19 -55 20 -51 -13 -70 -27
-16 -32 -16 -92 2 -157 47 -359 52 -515 11 -340 -89 -610 -367 -695 -713 -148
-599 283 -1186 890 -1215 271 -13 521 85 715 281 169 170 259 358 285 597 21
186 -14 370 -101 546 l-51 102 16 49 17 49 44 -5 c57 -6 126 19 159 58 79 94
52 216 -75 341 -80 78 -185 151 -270 185 -69 28 -180 40 -219 23z m155 -1093
c106 -24 196 -73 218 -118 17 -34 17 -47 7 -130 -43 -359 -292 -651 -637 -750
-113 -32 -324 -32 -438 0 -359 102 -619 417 -642 778 -7 103 1 125 50 150 28
15 51 16 192 8 88 -4 223 -8 300 -8 127 0 151 3 260 33 201 55 243 60 440 56
115 -2 205 -9 250 -19z"/>
</g>
</svg>
