<?xml version="1.0" standalone="no"?>
<!DOCTYPE svg PUBLIC "-//W3C//DTD SVG 20010904//EN"
 "http://www.w3.org/TR/2001/REC-SVG-20010904/DTD/svg10.dtd">
<svg version="1.0" xmlns="http://www.w3.org/2000/svg"
 width="256.000000pt" height="256.000000pt" viewBox="0 0 256.000000 256.000000"
 preserveAspectRatio="xMidYMid meet">

<g transform="translate(0.000000,256.000000) scale(0.100000,-0.100000)"
fill="#000000" stroke="none">
<path d="M1495 2381 c-110 -50 -153 -178 -94 -279 11 -19 16 -39 12 -45 -4 -7
-63 -88 -130 -181 l-124 -170 -88 -22 c-335 -84 -569 -366 -588 -707 -21 -368
216 -693 578 -793 47 -13 100 -18 199 -18 126 0 141 2 230 33 208 71 352 193
449 381 63 120 85 213 85 355 0 183 -48 325 -160 474 -110 146 -318 268 -501
293 -21 3 -15 15 70 150 l92 148 48 0 c58 0 113 26 155 74 35 40 47 85 40 157
-12 124 -157 203 -273 150z m-62 -1049 c79 -36 158 -108 198 -177 16 -27 29
-53 29 -57 0 -5 -20 8 -45 27 -105 80 -240 69 -332 -27 -44 -45 -63 -96 -63
-165 1 -93 52 -178 133 -219 83 -43 203 -24 279 44 45 40 46 37 14 -26 -123
-243 -445 -318 -661 -154 -106 81 -165 191 -173 329 -10 177 83 339 240 419
71 36 113 44 219 40 83 -2 105 -7 162 -34z"/>
</g>
</svg>
