<?xml version="1.0" standalone="no"?>
<!DOCTYPE svg PUBLIC "-//W3C//DTD SVG 20010904//EN"
 "http://www.w3.org/TR/2001/REC-SVG-20010904/DTD/svg10.dtd">
<svg version="1.0" xmlns="http://www.w3.org/2000/svg"
 width="256.000000pt" height="256.000000pt" viewBox="0 0 256.000000 256.000000"
 preserveAspectRatio="xMidYMid meet">

<g transform="translate(0.000000,256.000000) scale(0.100000,-0.100000)"
fill="#000000" stroke="none">
<path d="M1100 2365 c0 -84 -3 -117 -12 -119 -182 -48 -282 -100 -389 -206
-88 -86 -115 -142 -129 -270 -15 -135 9 -259 73 -362 82 -135 291 -242 576
-294 301 -56 369 -93 379 -209 11 -132 -107 -224 -299 -233 -157 -7 -275 38
-360 140 -77 92 -123 209 -136 346 -6 63 -6 63 -65 108 -165 127 -232 325
-191 559 l5 30 -17 -23 c-28 -39 -75 -163 -103 -272 -23 -92 -26 -125 -26
-270 0 -142 4 -180 26 -276 34 -143 77 -247 149 -354 105 -157 239 -260 415
-319 l89 -30 5 -113 5 -113 177 -3 177 -2 3 116 3 117 55 14 c145 36 309 144
410 270 89 110 93 121 98 253 5 138 -7 205 -54 299 -43 87 -119 158 -223 210
-91 46 -161 67 -385 116 -247 53 -313 83 -347 159 -41 91 -8 175 88 222 75 37
212 45 310 19 184 -50 288 -188 339 -452 2 -13 26 -35 62 -57 62 -37 144 -118
179 -176 36 -59 64 -157 72 -254 l7 -91 26 85 c112 360 36 802 -179 1049 -94
109 -261 214 -395 251 l-63 17 -3 117 -3 116 -174 0 -175 0 0 -115z"/>
</g>
</svg>
