<?xml version="1.0" standalone="no"?>
<!DOCTYPE svg PUBLIC "-//W3C//DTD SVG 20010904//EN"
 "http://www.w3.org/TR/2001/REC-SVG-20010904/DTD/svg10.dtd">
<svg version="1.0" xmlns="http://www.w3.org/2000/svg"
 width="256.000000pt" height="256.000000pt" viewBox="0 0 256.000000 256.000000"
 preserveAspectRatio="xMidYMid meet">

<g transform="translate(0.000000,256.000000) scale(0.100000,-0.100000)"
fill="#000000" stroke="none">
<path d="M115 2291 c53 -51 1158 -1011 1164 -1011 6 0 1124 970 1171 1016 l25
24 -1195 0 -1195 0 30 -29z"/>
<path d="M1134 1148 c-77 -68 -344 -301 -593 -518 l-453 -395 596 -3 c328 -1
864 -1 1192 0 l596 3 -591 515 c-325 283 -595 516 -599 518 -4 1 -71 -53 -148
-120z"/>
</g>
</svg>
