<?xml version="1.0" standalone="no"?>
<!DOCTYPE svg PUBLIC "-//W3C//DTD SVG 20010904//EN"
 "http://www.w3.org/TR/2001/REC-SVG-20010904/DTD/svg10.dtd">
<svg version="1.0" xmlns="http://www.w3.org/2000/svg"
 width="256.000000pt" height="256.000000pt" viewBox="0 0 256.000000 256.000000"
 preserveAspectRatio="xMidYMid meet">

<g transform="translate(0.000000,256.000000) scale(0.100000,-0.100000)"
fill="#000000" stroke="none">
<path d="M109 2291 c-39 -40 -39 -82 0 -122 20 -20 39 -29 61 -29 43 0 90 47
90 90 0 43 -47 90 -90 90 -22 0 -41 -9 -61 -29z"/>
<path d="M555 2310 c-55 -22 -90 -95 -74 -153 39 -143 249 -115 249 33 0 92
-92 155 -175 120z"/>
<path d="M1215 2304 c-187 -33 -270 -83 -295 -174 -33 -123 35 -239 170 -292
50 -19 72 -21 228 -19 131 1 187 -2 235 -15 202 -52 362 -207 412 -401 19 -74
19 -213 0 -288 -51 -194 -199 -350 -388 -410 -102 -33 -244 -35 -340 -5 -125
39 -241 140 -301 263 -35 72 -66 198 -66 271 0 191 -97 312 -261 324 -71 5
-121 -11 -170 -55 -53 -48 -63 -86 -63 -238 0 -208 36 -361 125 -535 252 -492
825 -684 1349 -452 139 61 311 200 411 331 71 94 155 267 186 386 23 88 26
119 26 265 1 147 -2 176 -26 262 -94 353 -352 626 -700 743 -158 53 -369 68
-532 39z"/>
<path d="M355 1956 c-84 -37 -117 -133 -75 -215 63 -125 252 -103 289 34 34
125 -95 234 -214 181z"/>
</g>
</svg>
