<?xml version="1.0" standalone="no"?>
<!DOCTYPE svg PUBLIC "-//W3C//DTD SVG 20010904//EN"
 "http://www.w3.org/TR/2001/REC-SVG-20010904/DTD/svg10.dtd">
<svg version="1.0" xmlns="http://www.w3.org/2000/svg"
 width="256.000000pt" height="256.000000pt" viewBox="0 0 256.000000 256.000000"
 preserveAspectRatio="xMidYMid meet">

<g transform="translate(0.000000,256.000000) scale(0.100000,-0.100000)"
fill="#000000" stroke="none">
<path d="M1123 2385 c-70 -19 -116 -43 -190 -99 -56 -42 -65 -46 -119 -46
-144 0 -268 -38 -342 -105 -89 -80 -122 -164 -186 -480 -35 -170 -67 -277
-124 -412 -97 -231 -106 -424 -25 -562 63 -108 197 -191 383 -237 98 -25 108
-30 160 -78 73 -69 134 -110 234 -157 113 -52 201 -72 303 -67 72 4 93 10 165
46 50 25 115 69 163 111 44 39 130 113 190 166 140 122 256 199 422 281 245
119 336 247 320 448 -5 71 -50 212 -85 270 -17 29 -17 32 6 115 18 63 25 114
26 191 1 101 -1 108 -32 173 -57 115 -95 134 -372 182 -254 44 -365 84 -520
184 -34 22 -87 50 -119 62 -73 27 -189 34 -258 14z m253 -476 c164 -30 311
-146 384 -302 22 -46 49 -122 60 -168 24 -103 27 -259 5 -344 -80 -316 -395
-508 -720 -440 -225 47 -423 233 -479 451 -20 77 -20 219 -1 302 77 327 427
561 751 501z"/>
</g>
</svg>
