<?xml version="1.0" standalone="no"?>
<!DOCTYPE svg PUBLIC "-//W3C//DTD SVG 20010904//EN"
 "http://www.w3.org/TR/2001/REC-SVG-20010904/DTD/svg10.dtd">
<svg version="1.0" xmlns="http://www.w3.org/2000/svg"
 width="256.000000pt" height="256.000000pt" viewBox="0 0 256.000000 256.000000"
 preserveAspectRatio="xMidYMid meet">

<g transform="translate(0.000000,256.000000) scale(0.100000,-0.100000)"
fill="#000000" stroke="none">
<path d="M977 1258 c-163 -397 -295 -723 -294 -725 2 -1 137 99 300 222 l297
226 297 -226 c163 -123 298 -223 300 -222 4 5 -590 1447 -597 1447 -3 0 -140
-325 -303 -722z"/>
<path d="M670 1566 c0 -167 3 -226 13 -233 6 -5 32 -18 57 -27 25 -10 66 -27
92 -37 l48 -19 45 89 44 89 -144 181 c-80 100 -148 181 -150 181 -3 0 -5 -101
-5 -224z"/>
<path d="M1738 1612 l-147 -184 44 -89 45 -89 48 19 c26 10 67 27 92 36 25 10
51 23 58 30 9 8 12 64 10 236 l-3 224 -147 -183z"/>
<path d="M90 1476 c0 -11 532 -901 537 -899 11 3 212 577 205 585 -7 6 -729
318 -738 318 -2 0 -4 -2 -4 -4z"/>
<path d="M2095 1324 c-198 -86 -363 -158 -367 -162 -6 -6 190 -574 203 -586 4
-5 526 864 537 895 2 5 0 9 -5 8 -4 0 -170 -70 -368 -155z"/>
<path d="M1036 693 l-237 -168 240 -3 c133 -1 349 -1 481 0 l241 3 -229 162
c-127 90 -236 165 -244 168 -8 3 -113 -64 -252 -162z"/>
</g>
</svg>
