<?xml version="1.0" standalone="no"?>
<!DOCTYPE svg PUBLIC "-//W3C//DTD SVG 20010904//EN"
 "http://www.w3.org/TR/2001/REC-SVG-20010904/DTD/svg10.dtd">
<svg version="1.0" xmlns="http://www.w3.org/2000/svg"
 width="256.000000pt" height="256.000000pt" viewBox="0 0 256.000000 256.000000"
 preserveAspectRatio="xMidYMid meet">

<g transform="translate(0.000000,256.000000) scale(0.100000,-0.100000)"
fill="#000000" stroke="none">
<path d="M335 2468 c-94 -20 -187 -96 -228 -187 -16 -35 -21 -67 -22 -136 l0
-90 235 -5 235 -5 5 -850 5 -850 28 -57 c33 -67 90 -121 166 -157 l56 -26 685
0 c765 0 738 -2 834 71 87 66 129 149 141 277 l7 77 -120 0 -120 0 -7 375 c-4
206 -6 583 -4 838 l4 462 -27 58 c-33 71 -112 155 -175 188 l-48 24 -807 0
c-444 0 -823 -3 -843 -7z m1668 -107 c50 -31 94 -81 118 -136 l23 -50 -3 -675
c-2 -372 1 -764 5 -873 l7 -197 114 0 115 0 -6 -27 c-22 -90 -94 -170 -179
-195 -32 -10 -195 -13 -702 -13 l-660 0 -53 28 c-63 33 -107 90 -121 158 -7
33 -11 334 -11 904 l0 855 -241 0 -241 0 7 43 c15 93 81 166 171 189 39 10
223 13 837 11 768 -2 788 -2 820 -22z"/>
<path d="M820 2045 l0 -45 285 0 285 0 0 45 0 45 -285 0 -285 0 0 -45z"/>
<path d="M827 1683 c-4 -3 -7 -24 -7 -45 l0 -38 571 0 570 0 -3 43 -3 42 -561
3 c-308 1 -564 -1 -567 -5z"/>
<path d="M824 1446 c-3 -8 -4 -29 -2 -48 l3 -33 488 -3 487 -2 0 50 0 50 -485
0 c-408 0 -486 -2 -491 -14z"/>
<path d="M822 1178 l3 -43 533 -3 532 -2 0 45 0 45 -536 0 -535 0 3 -42z"/>
<path d="M820 945 l0 -45 568 2 567 3 0 40 0 40 -567 3 -568 2 0 -45z"/>
<path d="M820 695 l0 -45 223 2 222 3 3 43 3 42 -225 0 -226 0 0 -45z"/>
</g>
</svg>
