<?xml version="1.0" standalone="no"?>
<!DOCTYPE svg PUBLIC "-//W3C//DTD SVG 20010904//EN"
 "http://www.w3.org/TR/2001/REC-SVG-20010904/DTD/svg10.dtd">
<svg version="1.0" xmlns="http://www.w3.org/2000/svg"
 width="256.000000pt" height="256.000000pt" viewBox="0 0 256.000000 256.000000"
 preserveAspectRatio="xMidYMid meet">

<g transform="translate(0.000000,256.000000) scale(0.100000,-0.100000)"
fill="#000000" stroke="none">
<path d="M1092 2384 c-467 -78 -840 -455 -917 -925 -65 -403 99 -819 419
-1063 192 -147 397 -222 636 -232 569 -26 1064 375 1155 937 48 301 -29 610
-213 855 -249 330 -670 497 -1080 428z m372 -95 c86 -17 178 -103 239 -224 71
-143 82 -362 23 -490 -69 -151 -205 -226 -473 -260 -320 -40 -475 -154 -540
-396 -23 -88 -23 -254 1 -334 21 -69 58 -146 93 -193 40 -53 4 -37 -54 23
-142 151 -210 361 -174 538 18 85 73 187 130 240 85 80 177 116 365 142 234
32 339 70 427 152 93 87 157 263 147 405 -10 138 -123 294 -273 379 -30 17
-55 33 -55 35 0 5 80 -5 144 -17z m-247 -28 c159 -65 293 -181 333 -288 64
-171 -36 -425 -193 -492 -53 -23 -206 -57 -317 -71 -183 -23 -307 -77 -399
-176 -107 -114 -157 -252 -149 -414 5 -88 14 -126 62 -255 4 -11 -12 2 -37 29
-38 43 -48 62 -66 136 -58 238 -26 425 94 542 90 88 223 140 450 177 162 27
251 66 328 143 92 92 120 184 98 323 -15 96 -60 184 -124 240 -63 55 -152 102
-214 111 -30 4 -41 9 -32 15 27 17 97 9 166 -20z m536 -67 c74 -38 187 -123
254 -190 343 -343 397 -881 131 -1286 -210 -320 -590 -501 -960 -459 -108 12
-142 25 -211 80 -135 109 -207 278 -193 453 21 262 156 396 441 437 185 28
212 33 260 48 184 58 317 191 354 354 15 65 13 255 -4 326 -16 69 -62 177 -95
223 -25 34 -21 36 23 14z m-651 -14 c67 -19 160 -90 195 -149 61 -102 69 -240
19 -325 -56 -95 -149 -146 -322 -175 -65 -12 -145 -27 -176 -36 -315 -82 -469
-256 -472 -532 -1 -51 -2 -93 -4 -93 -1 0 -12 21 -24 48 -15 35 -20 68 -20
132 0 196 72 335 209 403 55 28 71 32 191 53 225 38 379 122 436 236 50 101
28 243 -54 347 -41 52 -83 74 -165 87 l-50 8 40 7 c48 9 146 3 197 -11z m-240
-80 c48 -6 99 -15 112 -22 52 -23 108 -133 109 -213 2 -143 -131 -234 -418
-284 -197 -35 -309 -105 -385 -241 l-31 -55 6 70 c11 119 19 138 78 184 75 58
112 70 259 87 219 25 304 74 328 188 28 135 -65 239 -234 261 -49 7 -52 20 -6
28 45 8 93 7 182 -3z m-142 -111 c60 -13 116 -57 125 -99 10 -44 -11 -106 -44
-129 -38 -28 -123 -48 -249 -60 -80 -7 -118 -17 -168 -40 -35 -16 -64 -26 -64
-20 0 23 61 142 108 210 77 111 87 121 145 135 67 16 85 16 147 3z"/>
</g>
</svg>
