<?xml version="1.0" standalone="no"?>
<!DOCTYPE svg PUBLIC "-//W3C//DTD SVG 20010904//EN"
 "http://www.w3.org/TR/2001/REC-SVG-20010904/DTD/svg10.dtd">
<svg version="1.0" xmlns="http://www.w3.org/2000/svg"
 width="256.000000pt" height="256.000000pt" viewBox="0 0 256.000000 256.000000"
 preserveAspectRatio="xMidYMid meet">

<g transform="translate(0.000000,256.000000) scale(0.100000,-0.100000)"
fill="#000000" stroke="none">
<path d="M915 2224 c-45 -14 -82 -48 -378 -342 -227 -227 -334 -341 -350 -372
-31 -62 -31 -177 0 -236 13 -23 212 -233 480 -502 504 -508 500 -505 618 -506
116 -1 98 -15 608 493 421 420 469 471 487 519 24 64 25 122 3 188 -14 42 -45
79 -217 253 -228 231 -257 251 -366 251 -82 0 -148 -30 -210 -94 -24 -25 -49
-46 -55 -46 -5 0 -91 81 -190 181 -99 99 -198 190 -220 201 -52 27 -145 33
-210 12z m118 -856 l-273 -273 -150 150 -150 150 272 272 273 273 150 -150
150 -150 -272 -272z m920 154 l147 -147 -143 -143 -142 -142 -150 150 -150
150 140 140 c77 77 142 140 145 140 3 0 72 -66 153 -148z m-490 -490 l147
-147 -160 -160 -160 -160 -150 150 -150 150 157 157 c87 87 160 158 163 158 3
0 72 -66 153 -148z"/>
</g>
</svg>
