<?xml version="1.0" standalone="no"?>
<!DOCTYPE svg PUBLIC "-//W3C//DTD SVG 20010904//EN"
 "http://www.w3.org/TR/2001/REC-SVG-20010904/DTD/svg10.dtd">
<svg version="1.0" xmlns="http://www.w3.org/2000/svg"
 width="256.000000pt" height="256.000000pt" viewBox="0 0 256.000000 256.000000"
 preserveAspectRatio="xMidYMid meet">

<g transform="translate(0.000000,256.000000) scale(0.100000,-0.100000)"
fill="#000000" stroke="none">
<path d="M92 2113 c18 -65 68 -153 115 -204 32 -35 81 -67 172 -115 69 -37
248 -134 398 -215 149 -82 274 -149 277 -149 3 0 -7 20 -22 45 -24 38 -96 92
-477 356 -248 171 -455 314 -462 316 -9 4 -9 -4 -1 -34z"/>
<path d="M2010 1835 c-385 -268 -458 -322 -482 -360 -15 -25 -25 -45 -22 -45
3 0 128 67 277 149 150 81 329 178 398 215 142 75 198 125 247 222 32 63 55
134 44 134 -4 0 -212 -142 -462 -315z"/>
<path d="M210 1803 c1 -38 30 -101 68 -144 34 -39 60 -52 277 -137 83 -33 248
-103 368 -157 121 -53 220 -95 222 -93 2 2 -11 23 -29 48 -30 41 -65 62 -407
244 -206 110 -402 215 -436 234 l-63 34 0 -29z"/>
<path d="M1911 1596 c-398 -212 -437 -235 -467 -276 -18 -25 -31 -46 -29 -48
1 -2 101 40 221 94 121 53 287 123 369 156 217 85 243 98 277 137 38 43 70
114 66 146 -3 22 -27 11 -437 -209z"/>
<path d="M305 1523 c10 -43 40 -77 87 -100 98 -49 803 -304 831 -301 l30 3
-51 43 c-43 36 -116 69 -471 212 -231 94 -423 170 -426 170 -4 0 -4 -12 0 -27z"/>
<path d="M1245 1505 c-10 -24 -15 -56 -13 -69 4 -18 -3 -32 -23 -52 -16 -15
-29 -36 -29 -46 0 -19 81 -188 90 -188 3 0 24 31 48 69 37 60 42 76 42 127 l0
58 -38 -37 c-21 -20 -41 -37 -45 -37 -4 0 -7 19 -7 42 0 29 8 51 26 75 l26 34
-27 34 c-14 19 -28 35 -30 35 -2 0 -11 -20 -20 -45z"/>
<path d="M1827 1380 c-352 -143 -426 -176 -469 -212 l-51 -43 30 -3 c34 -3
816 284 862 317 37 27 79 112 54 111 -5 -1 -196 -77 -426 -170z"/>
<path d="M1176 855 c-31 -124 -56 -233 -56 -243 0 -21 45 -68 53 -55 3 4 18
69 33 143 l29 135 5 -180 c7 -222 16 -251 59 -181 17 27 21 50 21 118 0 72 3
88 20 103 11 10 22 16 24 14 2 -2 9 -38 15 -79 7 -41 14 -76 16 -78 2 -2 15
19 29 47 l26 51 -62 217 -63 218 -5 -150 -5 -150 -34 148 c-19 81 -38 147 -42
147 -3 0 -32 -101 -63 -225z"/>
</g>
</svg>
