<?xml version="1.0" standalone="no"?>
<!DOCTYPE svg PUBLIC "-//W3C//DTD SVG 20010904//EN"
 "http://www.w3.org/TR/2001/REC-SVG-20010904/DTD/svg10.dtd">
<svg version="1.0" xmlns="http://www.w3.org/2000/svg"
 width="256.000000pt" height="256.000000pt" viewBox="0 0 256.000000 256.000000"
 preserveAspectRatio="xMidYMid meet">

<g transform="translate(0.000000,256.000000) scale(0.100000,-0.100000)"
fill="#000000" stroke="none">
<path d="M497 2382 c-16 -17 -17 -105 -15 -1112 3 -983 5 -1094 19 -1103 12
-7 44 6 135 59 l119 69 5 787 5 787 22 23 c22 22 23 22 60 4 91 -43 575 -330
587 -348 29 -41 8 -58 -260 -213 l-259 -151 -3 -128 c-2 -109 0 -132 14 -147
10 -11 24 -19 33 -19 9 0 248 135 531 298 487 282 515 300 518 328 2 19 -3 36
-15 46 -34 29 -1445 838 -1463 838 -9 0 -24 -8 -33 -18z"/>
<path d="M1930 1283 c-26 -10 -814 -465 -832 -481 -23 -20 -23 -74 0 -94 32
-30 836 -488 854 -488 10 0 27 9 38 20 18 18 20 33 20 128 0 93 -3 111 -19
129 -11 11 -101 67 -200 124 -101 58 -184 112 -187 122 -3 10 0 24 6 32 7 8
95 62 196 121 102 58 189 114 194 124 12 22 13 220 2 236 -7 10 -47 35 -54 33
-2 0 -10 -3 -18 -6z"/>
<path d="M1038 570 c-92 -27 -151 -106 -151 -199 0 -226 299 -291 394 -86 73
157 -79 334 -243 285z"/>
</g>
</svg>
