<?xml version="1.0" standalone="no"?>
<!DOCTYPE svg PUBLIC "-//W3C//DTD SVG 20010904//EN"
 "http://www.w3.org/TR/2001/REC-SVG-20010904/DTD/svg10.dtd">
<svg version="1.0" xmlns="http://www.w3.org/2000/svg"
 width="256.000000pt" height="256.000000pt" viewBox="0 0 256.000000 256.000000"
 preserveAspectRatio="xMidYMid meet">

<g transform="translate(0.000000,256.000000) scale(0.100000,-0.100000)"
fill="#000000" stroke="none">
<path d="M753 2401 c-380 -61 -475 -80 -492 -95 l-21 -20 2 -740 3 -741 34
-65 c52 -97 195 -235 361 -345 129 -87 398 -230 543 -290 82 -34 72 -36 295
71 396 190 668 397 754 572 l33 67 3 731 c2 702 2 732 -16 754 -17 22 -58 30
-503 102 -266 43 -493 77 -504 77 -11 -1 -232 -35 -492 -78z m956 -85 c382
-61 456 -76 468 -92 11 -15 13 -132 11 -704 l-3 -685 -30 -55 c-89 -167 -403
-393 -769 -556 l-128 -56 -69 27 c-97 38 -318 151 -428 219 -211 132 -359 268
-412 380 l-29 61 0 681 c0 615 2 683 16 695 12 10 822 150 909 158 6 0 214
-32 464 -73z"/>
<path d="M900 2027 c0 -33 6 -49 23 -65 23 -21 30 -22 300 -22 253 0 281 -2
331 -20 72 -27 139 -88 173 -158 24 -49 28 -69 28 -142 0 -66 -5 -96 -22 -132
-27 -60 -94 -127 -158 -158 -49 -25 -56 -25 -348 -30 -282 -5 -299 -6 -313
-25 -12 -16 -14 -77 -12 -359 l3 -341 45 4 c81 5 79 -3 82 310 l3 276 260 5
c259 5 260 5 320 33 179 84 275 229 275 417 0 202 -117 365 -309 430 -56 18
-84 20 -371 20 l-310 0 0 -43z"/>
<path d="M803 1675 c-9 -24 4 -87 22 -104 13 -14 54 -16 263 -19 240 -3 249
-2 275 18 36 29 36 71 1 99 -25 20 -39 21 -291 21 -228 0 -264 -2 -270 -15z"/>
</g>
</svg>
