<?xml version="1.0" standalone="no"?>
<!DOCTYPE svg PUBLIC "-//W3C//DTD SVG 20010904//EN"
 "http://www.w3.org/TR/2001/REC-SVG-20010904/DTD/svg10.dtd">
<svg version="1.0" xmlns="http://www.w3.org/2000/svg"
 width="256.000000pt" height="256.000000pt" viewBox="0 0 256.000000 256.000000"
 preserveAspectRatio="xMidYMid meet">

<g transform="translate(0.000000,256.000000) scale(0.100000,-0.100000)"
fill="#000000" stroke="none">
<path d="M524 2382 c-76 -27 -128 -73 -165 -147 -29 -59 -31 -71 -27 -137 3
-40 11 -86 19 -101 9 -21 137 -107 516 -348 277 -176 510 -322 518 -325 7 -3
122 63 255 147 195 123 239 155 228 165 -7 6 -285 181 -618 388 -660 411 -624
393 -726 358z"/>
<path d="M320 1637 c0 -117 3 -464 7 -771 l6 -557 40 -45 c78 -89 201 -124
307 -89 56 19 132 80 154 124 10 20 13 160 12 629 l-1 604 -230 139 c-126 77
-245 150 -262 161 l-33 20 0 -215z"/>
<path d="M1445 1206 l-520 -313 -3 -293 c-2 -233 0 -291 10 -287 47 17 1237
734 1255 754 23 29 53 122 53 169 0 126 -112 256 -240 278 -33 6 -72 -16 -555
-308z"/>
</g>
</svg>
