<?xml version="1.0" standalone="no"?>
<!DOCTYPE svg PUBLIC "-//W3C//DTD SVG 20010904//EN"
 "http://www.w3.org/TR/2001/REC-SVG-20010904/DTD/svg10.dtd">
<svg version="1.0" xmlns="http://www.w3.org/2000/svg"
 width="256.000000pt" height="256.000000pt" viewBox="0 0 256.000000 256.000000"
 preserveAspectRatio="xMidYMid meet">

<g transform="translate(0.000000,256.000000) scale(0.100000,-0.100000)"
fill="#000000" stroke="none">
<path d="M747 2348 c-24 -29 -166 -205 -315 -390 l-272 -337 108 -487 107
-488 455 -224 454 -223 451 221 450 221 103 467 c56 257 105 476 108 487 4 15
-72 117 -307 413 l-312 392 -493 0 -492 0 -45 -52z m851 -88 c-5 -15 -312
-419 -318 -419 -5 0 -296 386 -313 415 -7 12 45 14 313 14 217 0 321 -3 318
-10z m-589 -280 c100 -129 180 -240 178 -247 -3 -18 -471 -592 -482 -592 -12
0 -380 454 -380 469 0 15 487 611 496 608 4 -2 89 -109 188 -238z m976 -46
c127 -157 238 -296 247 -308 17 -22 15 -25 -173 -257 -104 -129 -193 -234
-198 -234 -6 0 -348 419 -482 591 -5 7 61 101 177 252 103 133 189 242 193
242 3 -1 110 -129 236 -286z m-469 -596 c126 -155 235 -290 241 -299 11 -15
-18 -55 -227 -316 -132 -164 -245 -298 -250 -298 -5 0 -118 134 -250 298 -209
261 -238 301 -227 316 39 55 472 581 477 581 4 0 110 -127 236 -282z m-1026
-132 c61 -76 116 -146 122 -156 10 -15 0 -33 -61 -109 -41 -51 -75 -90 -78
-87 -5 5 -112 475 -113 496 0 18 -3 22 130 -144z m1660 -98 c-28 -128 -54
-241 -58 -252 -7 -15 -20 -3 -81 74 -43 55 -70 98 -67 106 8 22 248 315 253
310 3 -2 -18 -109 -47 -238z m-1242 -425 c105 -130 190 -238 188 -240 -1 -2
-127 58 -280 132 -254 125 -276 137 -264 153 41 57 152 192 158 192 4 0 93
-107 198 -237z m1014 150 c40 -49 79 -96 87 -106 13 -16 -8 -28 -260 -151
-151 -73 -276 -132 -277 -130 -3 2 369 472 375 473 1 1 35 -38 75 -86z"/>
</g>
</svg>
