<?xml version="1.0" standalone="no"?>
<!DOCTYPE svg PUBLIC "-//W3C//DTD SVG 20010904//EN"
 "http://www.w3.org/TR/2001/REC-SVG-20010904/DTD/svg10.dtd">
<svg version="1.0" xmlns="http://www.w3.org/2000/svg"
 width="256.000000pt" height="256.000000pt" viewBox="0 0 256.000000 256.000000"
 preserveAspectRatio="xMidYMid meet">

<g transform="translate(0.000000,256.000000) scale(0.100000,-0.100000)"
fill="#000000" stroke="none">
<path d="M487 1830 l-327 -410 231 -547 c127 -302 232 -549 233 -550 2 -2
1084 -73 1116 -73 13 0 113 136 322 437 166 240 311 448 320 463 18 26 17 27
-207 526 -124 274 -226 502 -227 506 -2 5 -1089 61 -1126 57 -4 0 -154 -184
-335 -409z m1191 323 c89 -4 132 -10 130 -17 -6 -24 -103 -196 -110 -196 -10
0 -488 209 -508 222 -15 9 185 6 488 -9z m-468 -173 c366 -157 343 -146 305
-160 -16 -6 -191 -74 -388 -152 -197 -77 -360 -139 -361 -137 -7 7 128 579
136 579 4 0 143 -58 308 -130z m-495 48 c-2 -7 -36 -150 -75 -318 -40 -168
-73 -307 -75 -309 -4 -3 -297 57 -303 63 -3 4 447 576 454 576 2 0 2 -6 -1
-12z m1367 -274 c71 -152 127 -278 125 -281 -6 -5 -357 358 -357 370 0 18 90
200 96 194 4 -3 65 -131 136 -283z m-38 -331 c127 -130 231 -240 231 -245 0
-13 -589 -449 -593 -439 -2 5 24 209 58 454 33 246 60 451 60 457 0 5 3 10 7
10 3 0 110 -106 237 -237z m-404 216 c0 -5 -25 -198 -55 -427 -30 -229 -55
-423 -55 -429 0 -7 -5 -13 -10 -13 -15 0 -676 513 -676 525 -1 8 765 352 789
354 4 1 7 -4 7 -10z m-1096 -360 c2 -2 6 -157 10 -344 5 -236 3 -335 -4 -323
-11 18 -299 693 -307 719 -4 14 17 11 147 -16 83 -18 152 -34 154 -36z m496
-411 c186 -133 338 -244 336 -246 -2 -2 -156 -43 -342 -91 l-339 -88 -3 51
c-1 28 -6 180 -10 339 -6 230 -4 286 6 282 7 -2 165 -114 352 -247z m1083 -10
c-244 -348 -340 -481 -347 -482 -10 -1 -107 175 -103 186 2 8 497 378 505 378
2 0 -23 -37 -55 -82z m-521 -446 c28 -51 48 -95 46 -97 -2 -3 -139 4 -304 15
-164 11 -317 20 -338 20 -22 0 -37 3 -33 6 8 8 549 152 565 150 8 0 37 -43 64
-94z"/>
</g>
</svg>
