<?xml version="1.0" standalone="no"?>
<!DOCTYPE svg PUBLIC "-//W3C//DTD SVG 20010904//EN"
 "http://www.w3.org/TR/2001/REC-SVG-20010904/DTD/svg10.dtd">
<svg version="1.0" xmlns="http://www.w3.org/2000/svg"
 width="256.000000pt" height="256.000000pt" viewBox="0 0 256.000000 256.000000"
 preserveAspectRatio="xMidYMid meet">

<g transform="translate(0.000000,256.000000) scale(0.100000,-0.100000)"
fill="#000000" stroke="none">
<path d="M1092 2224 c-345 -58 -652 -285 -810 -599 -205 -408 -148 -878 149
-1235 l50 -60 67 54 c251 202 577 304 855 267 212 -28 461 -136 625 -269 63
-51 57 -54 143 61 185 246 262 555 214 856 -19 117 -52 215 -109 330 -218 432
-702 676 -1184 595z m311 -252 c99 -44 161 -141 160 -252 -2 -270 -350 -374
-502 -150 -60 88 -62 201 -5 297 67 114 220 161 347 105z"/>
<path d="M1212 1840 c-50 -31 -74 -76 -69 -133 16 -187 287 -173 287 15 0 103
-128 172 -218 118z"/>
</g>
</svg>
