<?xml version="1.0" standalone="no"?>
<!DOCTYPE svg PUBLIC "-//W3C//DTD SVG 20010904//EN"
 "http://www.w3.org/TR/2001/REC-SVG-20010904/DTD/svg10.dtd">
<svg version="1.0" xmlns="http://www.w3.org/2000/svg"
 width="256.000000pt" height="256.000000pt" viewBox="0 0 256.000000 256.000000"
 preserveAspectRatio="xMidYMid meet">

<g transform="translate(0.000000,256.000000) scale(0.100000,-0.100000)"
fill="#000000" stroke="none">
<path d="M1720 2385 l-65 -14 -607 -613 -608 -613 0 -319 0 -320 -137 -132
-138 -133 69 0 69 -1 102 100 101 100 315 0 314 1 615 645 c338 355 621 659
628 676 20 47 26 150 13 220 -34 174 -163 321 -337 385 -87 32 -237 40 -334
18z m281 -101 c75 -23 128 -56 187 -118 75 -79 104 -144 110 -243 2 -45 2 -93
-2 -107 -3 -14 -47 -68 -97 -121 l-91 -95 -224 0 c-123 0 -224 3 -224 7 0 4
69 76 152 160 l153 153 -33 32 -32 33 -155 -155 -155 -155 0 245 0 246 63 61
c34 34 71 63 82 66 50 12 214 6 266 -9z m-648 -850 l-138 -145 -3 248 -2 247
137 138 138 138 3 -240 2 -241 -137 -145z m-373 -379 l-130 -130 0 250 0 250
128 128 127 127 3 -247 2 -248 -130 -130z m1030 449 c0 -3 -51 -59 -112 -125
l-113 -119 -235 0 -235 0 125 125 125 125 222 0 c123 0 223 -3 223 -6z m-1250
-427 l0 -243 -110 -114 -109 -115 -1 255 0 255 102 102 c57 57 106 103 110
103 5 0 8 -109 8 -243z m901 57 c-11 -14 -74 -82 -140 -150 l-121 -124 -234 2
-235 3 141 148 140 147 235 0 234 0 -20 -26z m-363 -374 c-1 -5 -47 -57 -101
-115 l-98 -104 -244 -3 c-135 -2 -245 -1 -245 2 0 3 51 55 112 117 l113 113
233 0 c149 0 232 -4 230 -10z"/>
</g>
</svg>
