<?xml version="1.0" standalone="no"?>
<!DOCTYPE svg PUBLIC "-//W3C//DTD SVG 20010904//EN"
 "http://www.w3.org/TR/2001/REC-SVG-20010904/DTD/svg10.dtd">
<svg version="1.0" xmlns="http://www.w3.org/2000/svg"
 width="256.000000pt" height="256.000000pt" viewBox="0 0 256.000000 256.000000"
 preserveAspectRatio="xMidYMid meet">

<g transform="translate(0.000000,256.000000) scale(0.100000,-0.100000)"
fill="#000000" stroke="none">
<path d="M760 1892 l0 -429 66 -33 c123 -60 225 -190 254 -321 7 -32 11 -95 8
-146 -3 -77 -9 -100 -41 -167 -47 -99 -130 -184 -221 -227 l-66 -31 0 -159 0
-159 240 0 240 0 0 289 0 289 268 5 c230 4 278 7 347 26 271 72 469 282 527
558 36 177 12 385 -61 531 -71 141 -193 261 -332 326 -150 71 -138 70 -711 74
l-518 3 0 -429z m955 0 c109 -52 179 -157 191 -287 17 -179 -67 -330 -212
-385 -48 -18 -78 -20 -254 -20 l-200 0 0 360 0 360 208 0 c207 0 207 0 267
-28z"/>
<path d="M500 1335 c-117 -33 -223 -141 -250 -256 -16 -65 -8 -160 19 -222 11
-26 43 -72 71 -101 105 -111 258 -142 392 -79 201 94 269 333 147 517 -79 119
-240 179 -379 141z"/>
</g>
</svg>
