<?xml version="1.0" standalone="no"?>
<!DOCTYPE svg PUBLIC "-//W3C//DTD SVG 20010904//EN"
 "http://www.w3.org/TR/2001/REC-SVG-20010904/DTD/svg10.dtd">
<svg version="1.0" xmlns="http://www.w3.org/2000/svg"
 width="256.000000pt" height="256.000000pt" viewBox="0 0 256.000000 256.000000"
 preserveAspectRatio="xMidYMid meet">

<g transform="translate(0.000000,256.000000) scale(0.100000,-0.100000)"
fill="#000000" stroke="none">
<path d="M1443 1983 l-72 -15 -263 -219 -263 -218 -125 -41 c-120 -40 -127
-44 -177 -98 l-53 -57 -96 -5 -97 -5 -44 -82 -44 -82 -62 -18 c-58 -16 -60
-18 -32 -24 80 -18 89 -14 145 61 56 75 60 77 140 60 100 -22 90 -11 90 -98 0
-68 -6 -94 -44 -198 -25 -66 -56 -168 -69 -227 -14 -59 -37 -127 -51 -152 -15
-25 -23 -45 -18 -45 5 0 35 5 66 12 l58 11 -6 46 c-6 42 -1 58 50 167 l57 122
96 37 c128 50 132 53 177 130 31 52 55 78 114 121 41 29 81 52 90 50 8 -3 74
-14 146 -26 l131 -21 139 64 c76 35 140 63 142 62 2 -1 -7 -46 -19 -99 l-22
-96 -37 0 c-21 0 -51 -3 -68 -6 -28 -6 -30 -10 -45 -83 -8 -42 -14 -77 -12
-79 2 -2 27 12 55 31 28 19 92 52 142 73 l90 38 74 111 c61 91 76 120 81 163
3 29 8 52 10 52 2 0 15 -13 29 -29 14 -16 79 -64 146 -106 l122 -77 60 28 c34
16 64 31 68 34 13 10 -9 312 -26 359 -19 53 -20 52 77 77 67 18 71 21 129 91
50 62 59 78 56 105 l-4 33 -11 -26 c-6 -14 -43 -53 -81 -86 -69 -60 -71 -61
-147 -68 -68 -6 -80 -5 -96 12 -17 17 -16 21 49 112 67 94 67 94 130 111 89
24 88 31 -3 23 -78 -6 -80 -7 -184 -81 l-105 -75 -100 7 c-100 7 -102 8 -248
82 -81 41 -150 73 -155 73 -4 -1 -40 -8 -80 -16z"/>
</g>
</svg>
