<?xml version="1.0" standalone="no"?>
<!DOCTYPE svg PUBLIC "-//W3C//DTD SVG 20010904//EN"
 "http://www.w3.org/TR/2001/REC-SVG-20010904/DTD/svg10.dtd">
<svg version="1.0" xmlns="http://www.w3.org/2000/svg"
 width="256.000000pt" height="256.000000pt" viewBox="0 0 256.000000 256.000000"
 preserveAspectRatio="xMidYMid meet">

<g transform="translate(0.000000,256.000000) scale(0.100000,-0.100000)"
fill="#000000" stroke="none">
<path d="M1455 2066 c-16 -7 -327 -312 -691 -677 -527 -530 -663 -672 -674
-703 -45 -138 95 -262 226 -200 35 17 1328 1316 1351 1357 7 12 12 45 13 73 0
56 -24 101 -72 137 -34 25 -113 32 -153 13z"/>
<path d="M2265 2070 c-19 -6 -251 -230 -678 -657 -357 -356 -662 -666 -678
-687 -55 -74 -34 -189 43 -236 37 -22 109 -27 155 -9 15 5 254 238 535 522
l507 512 0 -455 c1 -452 1 -456 24 -500 57 -115 202 -123 281 -17 21 28 21 36
24 714 2 678 2 686 -19 729 -33 70 -120 107 -194 84z"/>
</g>
</svg>
