<?xml version="1.0" standalone="no"?>
<!DOCTYPE svg PUBLIC "-//W3C//DTD SVG 20010904//EN"
 "http://www.w3.org/TR/2001/REC-SVG-20010904/DTD/svg10.dtd">
<svg version="1.0" xmlns="http://www.w3.org/2000/svg"
 width="256.000000pt" height="256.000000pt" viewBox="0 0 256.000000 256.000000"
 preserveAspectRatio="xMidYMid meet">

<g transform="translate(0.000000,256.000000) scale(0.100000,-0.100000)"
fill="#000000" stroke="none">
<path d="M1335 2461 c-33 -10 -83 -34 -111 -54 -29 -21 -63 -37 -79 -37 -15 0
-56 16 -92 37 -55 31 -64 33 -54 15 6 -11 16 -24 21 -27 6 -3 10 -10 10 -15 0
-5 -25 0 -57 11 -31 10 -58 17 -60 15 -2 -2 18 -18 44 -35 50 -34 51 -34 -34
-15 -26 6 -26 4 10 -22 40 -29 45 -39 23 -47 -29 -11 -24 -99 7 -119 9 -5 6
-13 -9 -29 -21 -20 -23 -20 -54 -4 -17 9 -34 14 -37 12 -2 -3 3 -21 11 -40 12
-31 13 -37 0 -48 -21 -17 -18 -24 21 -38 31 -11 35 -16 35 -48 0 -42 33 -91
91 -133 l40 -28 -53 -17 c-29 -10 -66 -24 -81 -32 -16 -8 -31 -13 -33 -10 -2
2 12 22 32 46 39 45 40 43 -14 103 l-25 27 -53 -46 c-30 -26 -54 -50 -54 -54
0 -4 15 -16 33 -28 20 -13 26 -21 15 -21 -11 0 -22 -17 -33 -49 -13 -39 -27
-58 -71 -92 -187 -144 -307 -382 -321 -639 -23 -434 283 -822 716 -904 452
-86 891 195 1012 649 31 114 31 317 0 430 -50 188 -169 369 -315 480 -20 15
-36 33 -36 39 0 7 -16 27 -35 46 -19 19 -35 38 -35 42 0 5 14 14 30 19 17 6
30 14 30 18 0 7 -93 90 -117 104 -6 4 -25 -10 -44 -34 l-33 -42 37 -32 c20
-18 37 -37 37 -44 0 -14 5 -15 -60 9 -30 12 -61 23 -69 26 -9 3 1 20 33 54 45
48 56 73 36 85 -20 13 -9 25 23 25 26 0 40 9 75 50 29 33 38 50 28 50 -12 0
-16 11 -16 46 l0 45 -26 -20 -26 -20 -39 19 c-35 18 -39 24 -39 58 0 35 -5 42
-75 96 -41 32 -86 74 -101 93 -25 33 -25 35 -9 59 9 14 15 27 13 29 -2 1 -30
-5 -63 -14z m275 -1054 c0 -333 0 -334 -22 -355 -36 -33 -73 -42 -174 -42 -66
0 -104 -5 -124 -15 -27 -14 -33 -14 -60 0 -20 10 -58 15 -123 15 -91 0 -94 1
-123 31 l-29 30 -3 335 -3 334 331 0 330 0 0 -333z m-792 -662 c17 -38 16 -41
-33 -69 -25 -15 -45 -29 -45 -32 0 -10 34 -64 40 -64 3 0 25 13 50 30 41 27
45 28 62 13 27 -24 22 -35 -27 -66 -25 -16 -45 -31 -45 -34 0 -3 14 -28 30
-55 17 -26 30 -50 30 -52 0 -3 -13 -14 -29 -25 l-30 -21 -74 123 c-41 68 -82
135 -91 149 l-17 26 73 51 c40 27 78 50 84 50 6 1 16 -10 22 -24z m494 -12
c54 -49 -16 -139 -77 -99 -54 36 -35 116 27 116 17 0 40 -7 50 -17z m465 -27
c90 -30 129 -104 86 -166 -36 -52 -82 -67 -142 -46 l-39 13 -23 -49 c-21 -44
-26 -49 -48 -43 -15 4 -29 9 -33 13 -9 10 125 303 137 299 6 -2 33 -12 62 -21z
m-439 -248 c3 -27 1 -28 -41 -28 -53 0 -73 -19 -83 -76 -5 -37 -3 -43 21 -62
18 -14 42 -22 67 -22 37 0 39 -2 36 -27 -3 -25 -8 -28 -43 -31 -54 -4 -123 32
-147 78 -54 100 25 203 152 197 30 -2 35 -6 38 -29z"/>
<path d="M1000 1565 l0 -155 135 0 136 0 -3 153 -3 152 -132 3 -133 3 0 -156z"/>
<path d="M1300 1565 l0 -155 135 0 136 0 -3 153 -3 152 -132 3 -133 3 0 -156z"/>
<path d="M1000 1226 l0 -153 92 -7 c50 -3 111 -6 135 -6 l43 0 0 160 0 160
-135 0 -135 0 0 -154z"/>
<path d="M1300 1219 l0 -162 127 8 c70 4 131 9 135 11 5 3 8 72 8 155 l0 149
-135 0 -135 0 0 -161z"/>
<path d="M1731 609 c-25 -44 -22 -54 20 -64 21 -5 30 -2 43 16 21 31 20 45 -4
69 -28 28 -33 26 -59 -21z"/>
</g>
</svg>
