<?xml version="1.0" standalone="no"?>
<!DOCTYPE svg PUBLIC "-//W3C//DTD SVG 20010904//EN"
 "http://www.w3.org/TR/2001/REC-SVG-20010904/DTD/svg10.dtd">
<svg version="1.0" xmlns="http://www.w3.org/2000/svg"
 width="256.000000pt" height="256.000000pt" viewBox="0 0 256.000000 256.000000"
 preserveAspectRatio="xMidYMid meet">

<g transform="translate(0.000000,256.000000) scale(0.100000,-0.100000)"
fill="#000000" stroke="none">
<path d="M1165 2280 c-68 -68 -117 -110 -130 -110 -11 0 -85 18 -165 40 -79
21 -146 37 -148 35 -2 -2 -23 -74 -46 -161 l-42 -157 -158 -42 c-86 -24 -159
-45 -161 -47 -2 -2 14 -69 35 -148 22 -80 40 -154 40 -165 0 -13 -42 -63 -110
-130 -60 -60 -110 -114 -110 -120 0 -6 49 -60 110 -120 60 -60 110 -116 110
-125 0 -8 -18 -80 -40 -160 -21 -79 -38 -146 -36 -148 2 -2 75 -22 162 -45
l157 -43 43 -158 c23 -86 44 -159 46 -161 2 -2 75 16 163 40 l160 43 118 -116
117 -116 115 114 115 115 162 -42 c89 -23 163 -41 164 -40 1 1 21 74 45 161
l44 159 159 43 c87 24 160 45 162 46 2 2 -15 69 -36 148 -22 80 -40 152 -40
160 0 9 50 65 110 125 61 60 110 114 110 120 0 6 -49 60 -110 120 -68 67 -110
117 -110 130 0 11 18 85 40 165 21 79 37 146 35 148 -2 2 -75 23 -161 47
l-158 42 -42 157 c-23 87 -44 159 -46 161 -2 2 -69 -14 -148 -35 -80 -22 -154
-40 -165 -40 -13 0 -62 42 -130 110 -60 61 -112 110 -115 110 -3 0 -55 -49
-115 -110z m52 -562 l63 -62 65 64 c35 35 67 61 71 58 3 -4 15 -41 26 -84 11
-43 21 -81 24 -85 2 -4 43 4 90 18 48 13 88 22 90 20 2 -2 -7 -42 -20 -90 -13
-48 -20 -89 -17 -92 4 -2 42 -12 85 -23 43 -11 80 -23 84 -26 3 -4 -23 -36
-58 -71 l-64 -65 62 -63 c34 -34 62 -65 62 -69 0 -3 -37 -16 -82 -28 -46 -12
-86 -24 -89 -26 -3 -2 4 -43 17 -91 13 -48 22 -88 20 -90 -2 -2 -47 7 -99 20
l-96 25 -16 -54 c-8 -29 -18 -67 -21 -84 -4 -16 -9 -30 -12 -30 -4 0 -32 26
-64 57 l-58 57 -63 -62 c-34 -34 -65 -62 -69 -62 -3 0 -16 37 -28 83 -12 45
-24 85 -26 89 -2 3 -43 -5 -91 -18 -48 -13 -88 -22 -90 -20 -2 2 7 42 20 90
14 47 22 88 18 90 -3 2 -43 14 -88 26 -46 12 -83 25 -83 28 0 4 28 35 62 69
l62 63 -64 65 c-35 35 -61 67 -58 70 3 3 38 15 79 26 41 11 79 21 85 23 8 3 4
32 -12 92 -13 48 -22 89 -20 91 2 2 42 -7 90 -20 47 -14 88 -22 90 -18 2 3 9
26 16 51 6 25 16 62 21 83 5 20 13 37 17 37 3 0 35 -28 69 -62z"/>
</g>
</svg>
