<?xml version="1.0" standalone="no"?>
<!DOCTYPE svg PUBLIC "-//W3C//DTD SVG 20010904//EN"
 "http://www.w3.org/TR/2001/REC-SVG-20010904/DTD/svg10.dtd">
<svg version="1.0" xmlns="http://www.w3.org/2000/svg"
 width="256.000000pt" height="256.000000pt" viewBox="0 0 256.000000 256.000000"
 preserveAspectRatio="xMidYMid meet">

<g transform="translate(0.000000,256.000000) scale(0.100000,-0.100000)"
fill="#000000" stroke="none">
<path d="M1168 2390 c-47 -14 -94 -48 -121 -87 -132 -192 70 -438 278 -339 90
42 135 112 135 208 -1 150 -149 261 -292 218z"/>
<path d="M871 1821 c-64 -22 -98 -47 -129 -91 l-22 -33 2 -536 3 -536 135 0
135 0 3 608 2 607 -37 0 c-21 -1 -62 -9 -92 -19z"/>
<path d="M1100 1000 l0 -840 135 0 135 0 0 229 0 229 123 4 c105 3 130 8 178
30 75 34 137 92 165 153 24 49 24 54 24 406 l0 355 -36 60 c-46 78 -127 159
-188 189 -49 25 -55 25 -293 25 l-243 0 0 -840z m413 538 c52 -20 57 -44 57
-303 0 -137 -4 -244 -10 -255 -11 -21 -53 -36 -127 -46 l-53 -7 0 310 c0 170
3 313 7 317 9 8 88 -2 126 -16z"/>
</g>
</svg>
