<?xml version="1.0" standalone="no"?>
<!DOCTYPE svg PUBLIC "-//W3C//DTD SVG 20010904//EN"
 "http://www.w3.org/TR/2001/REC-SVG-20010904/DTD/svg10.dtd">
<svg version="1.0" xmlns="http://www.w3.org/2000/svg"
 width="256.000000pt" height="256.000000pt" viewBox="0 0 256.000000 256.000000"
 preserveAspectRatio="xMidYMid meet">

<g transform="translate(0.000000,256.000000) scale(0.100000,-0.100000)"
fill="#000000" stroke="none">
<path d="M160 1285 l0 -1115 293 2 292 3 3 337 2 336 243 4 c220 4 248 6 307
27 250 87 427 301 487 589 24 117 14 281 -24 393 -74 218 -210 378 -399 470
-137 67 -158 69 -711 69 l-493 0 0 -1115z m939 559 c70 -28 111 -113 111 -229
0 -88 -16 -134 -65 -182 l-42 -43 -177 0 -176 0 0 235 0 235 155 0 c117 0 164
-4 194 -16z"/>
<path d="M1014 581 c-2 -2 -4 -98 -4 -213 l0 -208 690 0 690 0 -2 210 -3 210
-683 3 c-376 1 -686 0 -688 -2z"/>
</g>
</svg>
