<?xml version="1.0" standalone="no"?>
<!DOCTYPE svg PUBLIC "-//W3C//DTD SVG 20010904//EN"
 "http://www.w3.org/TR/2001/REC-SVG-20010904/DTD/svg10.dtd">
<svg version="1.0" xmlns="http://www.w3.org/2000/svg"
 width="256.000000pt" height="256.000000pt" viewBox="0 0 256.000000 256.000000"
 preserveAspectRatio="xMidYMid meet">

<g transform="translate(0.000000,256.000000) scale(0.100000,-0.100000)"
fill="#000000" stroke="none">
<path d="M1607 2368 c111 -121 204 -448 173 -608 -24 -125 -111 -240 -225
-296 -53 -25 -70 -29 -145 -28 -103 1 -180 25 -383 120 -236 110 -335 135
-462 114 -173 -27 -281 -124 -314 -278 -43 -206 50 -428 282 -669 55 -57 101
-102 103 -100 2 2 -1 31 -7 64 -14 80 2 192 37 251 72 122 321 182 509 124
254 -78 415 -337 364 -584 -20 -95 -65 -173 -147 -249 l-74 -69 33 0 c19 0 76
7 128 15 504 82 889 507 918 1016 7 132 -8 242 -52 376 -112 336 -370 640
-672 792 -74 37 -94 39 -66 9z"/>
<path d="M1026 690 c-68 -21 -110 -89 -104 -165 7 -89 68 -145 158 -145 78 0
143 57 156 137 17 110 -101 208 -210 173z"/>
</g>
</svg>
