<?xml version="1.0" standalone="no"?>
<!DOCTYPE svg PUBLIC "-//W3C//DTD SVG 20010904//EN"
 "http://www.w3.org/TR/2001/REC-SVG-20010904/DTD/svg10.dtd">
<svg version="1.0" xmlns="http://www.w3.org/2000/svg"
 width="256.000000pt" height="256.000000pt" viewBox="0 0 256.000000 256.000000"
 preserveAspectRatio="xMidYMid meet">

<g transform="translate(0.000000,256.000000) scale(0.100000,-0.100000)"
fill="#000000" stroke="none">
<path d="M645 2474 c-11 -2 -45 -9 -75 -15 -30 -6 -96 -30 -147 -55 -161 -77
-269 -213 -320 -404 -29 -106 -24 -325 10 -462 49 -197 125 -367 244 -548 98
-147 173 -237 309 -370 236 -230 476 -382 743 -470 369 -122 680 -81 877 116
125 124 184 282 184 492 0 135 -20 255 -66 392 -205 614 -819 1179 -1419 1305
-77 17 -298 29 -340 19z m320 -460 c95 -23 288 -124 406 -213 253 -191 478
-467 576 -709 113 -276 64 -465 -130 -503 -143 -29 -380 62 -614 234 -102 76
-329 309 -405 417 -83 117 -171 290 -198 390 -24 91 -27 215 -4 268 51 124
173 162 369 116z"/>
</g>
</svg>
