<?xml version="1.0" standalone="no"?>
<!DOCTYPE svg PUBLIC "-//W3C//DTD SVG 20010904//EN"
 "http://www.w3.org/TR/2001/REC-SVG-20010904/DTD/svg10.dtd">
<svg version="1.0" xmlns="http://www.w3.org/2000/svg"
 width="256.000000pt" height="256.000000pt" viewBox="0 0 256.000000 256.000000"
 preserveAspectRatio="xMidYMid meet">

<g transform="translate(0.000000,256.000000) scale(0.100000,-0.100000)"
fill="#000000" stroke="none">
<path d="M1087 2384 c-375 -68 -706 -336 -846 -686 -32 -80 -65 -206 -76 -295
l-7 -53 271 0 271 0 0 165 0 165 -30 0 -30 0 0 120 0 120 120 0 120 0 0 -120
0 -120 -30 0 -30 0 0 -400 0 -400 30 0 c27 0 30 -3 30 -30 l0 -30 400 0 400 0
0 30 c0 27 3 30 30 30 l30 0 0 163 0 164 -112 6 c-62 4 -179 7 -260 7 l-148 0
0 255 0 255 230 0 230 0 0 -40 0 -41 123 3 122 3 3 133 3 132 -126 0 -125 0 0
-35 0 -35 -230 0 -230 0 0 275 0 275 -27 -1 c-16 0 -63 -7 -106 -15z"/>
<path d="M165 1158 c20 -179 108 -400 216 -543 186 -248 476 -416 777 -450
l62 -7 -2 268 -3 269 -167 3 -168 2 0 -30 0 -30 -125 0 -125 0 0 119 0 119 35
6 35 7 0 164 0 165 -271 0 -271 0 7 -62z"/>
<path d="M1860 1045 l0 -165 30 0 30 0 0 -120 0 -120 -119 0 -120 0 -3 28 -3
27 -167 3 -168 2 0 -271 0 -271 63 7 c426 49 808 358 942 764 21 67 55 228 55
267 0 12 -48 14 -270 14 l-270 0 0 -165z"/>
</g>
</svg>
