<?xml version="1.0" standalone="no"?>
<!DOCTYPE svg PUBLIC "-//W3C//DTD SVG 20010904//EN"
 "http://www.w3.org/TR/2001/REC-SVG-20010904/DTD/svg10.dtd">
<svg version="1.0" xmlns="http://www.w3.org/2000/svg"
 width="256.000000pt" height="256.000000pt" viewBox="0 0 256.000000 256.000000"
 preserveAspectRatio="xMidYMid meet">

<g transform="translate(0.000000,256.000000) scale(0.100000,-0.100000)"
fill="#000000" stroke="none">
<path d="M1137 2268 c-7 -141 -39 -321 -102 -568 -27 -104 -50 -166 -102 -270
-37 -74 -69 -138 -71 -142 -2 -5 172 -8 387 -8 215 0 391 2 391 5 0 3 -12 24
-26 47 -122 192 -224 588 -242 933 l-7 130 -111 3 -111 3 -6 -133z"/>
<path d="M777 1168 c-79 -116 -205 -263 -340 -397 l-115 -115 46 -60 c50 -65
251 -276 262 -276 4 0 12 42 18 93 13 103 47 212 87 281 41 70 135 149 238
200 114 57 188 76 295 76 103 0 185 -20 276 -68 181 -95 288 -261 317 -492 5
-46 11 -85 12 -86 1 -1 43 31 93 71 81 66 234 235 234 258 0 5 -33 44 -73 86
-92 96 -369 401 -422 464 l-39 47 -416 0 -416 0 -57 -82z"/>
<path d="M1131 895 c-195 -55 -342 -249 -341 -449 1 -141 68 -222 215 -263 82
-22 285 -27 400 -9 183 28 252 59 289 131 18 34 21 58 21 160 0 110 -2 125
-28 179 -57 123 -136 199 -244 237 -78 28 -238 35 -312 14z m184 -209 l38 -94
-44 -81 c-24 -44 -46 -81 -49 -81 -3 0 -24 37 -47 82 l-41 81 46 93 c26 52 49
94 53 94 3 0 23 -42 44 -94z m178 -168 c24 -25 28 -36 23 -62 -9 -44 -41 -68
-88 -64 -43 3 -52 18 -19 33 29 13 24 49 -7 53 -12 2 -38 -6 -57 -18 -45 -28
-44 -15 2 39 59 69 95 74 146 19z m-363 7 c16 -9 36 -29 45 -45 23 -45 18 -55
-11 -21 -29 35 -40 37 -72 15 l-22 -15 22 -29 c12 -17 19 -33 15 -36 -12 -13
-80 8 -103 31 -29 30 -30 54 -3 89 24 31 81 36 129 11z m150 -189 c0 -6 -5
-18 -10 -26 -8 -13 -11 -13 -26 1 -13 14 -14 20 -3 37 10 16 16 18 26 10 7 -6
13 -16 13 -22z"/>
</g>
</svg>
