<?xml version="1.0" standalone="no"?>
<!DOCTYPE svg PUBLIC "-//W3C//DTD SVG 20010904//EN"
 "http://www.w3.org/TR/2001/REC-SVG-20010904/DTD/svg10.dtd">
<svg version="1.0" xmlns="http://www.w3.org/2000/svg"
 width="256.000000pt" height="256.000000pt" viewBox="0 0 256.000000 256.000000"
 preserveAspectRatio="xMidYMid meet">

<g transform="translate(0.000000,256.000000) scale(0.100000,-0.100000)"
fill="#000000" stroke="none">
<path d="M493 2088 c-46 -44 -83 -83 -83 -87 0 -3 139 -145 309 -315 l308
-308 82 81 c44 44 81 84 81 88 0 5 -138 146 -307 315 l-308 307 -82 -81z"/>
<path d="M1677 1862 c-169 -169 -307 -311 -307 -315 0 -4 37 -44 81 -88 l82
-81 308 308 c170 170 309 311 309 315 0 4 -160 169 -164 169 -1 0 -139 -138
-309 -308z"/>
<path d="M1197 1382 c-42 -42 -77 -82 -77 -87 0 -6 36 -46 80 -90 l80 -80 80
80 c44 44 80 84 80 90 0 10 -151 165 -160 165 -3 0 -40 -35 -83 -78z"/>
<path d="M715 900 l-310 -310 80 -80 c44 -44 84 -80 90 -80 13 0 615 602 615
615 0 10 -151 165 -160 165 -3 0 -145 -139 -315 -310z"/>
<path d="M1447 1132 c-42 -42 -77 -82 -77 -87 0 -13 602 -615 615 -615 6 0 46
36 90 80 l80 80 -310 310 c-170 171 -312 310 -315 310 -3 0 -40 -35 -83 -78z"/>
</g>
</svg>
