<?xml version="1.0" standalone="no"?>
<!DOCTYPE svg PUBLIC "-//W3C//DTD SVG 20010904//EN"
 "http://www.w3.org/TR/2001/REC-SVG-20010904/DTD/svg10.dtd">
<svg version="1.0" xmlns="http://www.w3.org/2000/svg"
 width="256.000000pt" height="256.000000pt" viewBox="0 0 256.000000 256.000000"
 preserveAspectRatio="xMidYMid meet">

<g transform="translate(0.000000,256.000000) scale(0.100000,-0.100000)"
fill="#000000" stroke="none">
<path d="M250 2152 c0 -14 232 -253 345 -355 108 -98 288 -238 373 -291 l43
-27 -50 72 c-47 67 -111 208 -111 245 0 10 32 -14 85 -65 223 -210 547 -412
844 -525 183 -70 427 -126 616 -140 l70 -5 -140 48 c-351 121 -639 267 -780
395 l-40 36 53 -30 c81 -46 164 -78 258 -101 48 -11 88 -19 90 -17 5 6 424
760 424 765 0 2 -154 2 -342 1 l-342 -3 -170 -327 c-94 -180 -175 -329 -180
-330 -5 -2 -102 146 -215 327 l-207 330 -312 3 c-172 1 -312 -1 -312 -6z"/>
<path d="M340 1634 c250 -270 497 -471 724 -591 56 -29 96 -53 89 -53 -22 0
-177 52 -242 81 -35 16 -66 28 -67 26 -4 -3 395 -726 436 -791 9 -15 20 -24
22 -20 54 92 449 816 446 818 -2 1 -25 11 -53 21 -101 36 -243 99 -377 165
-76 38 -138 66 -138 64 0 -14 75 -120 129 -182 34 -40 60 -72 58 -72 -7 0
-255 109 -357 157 -204 96 -433 230 -610 358 -118 84 -122 86 -60 19z"/>
</g>
</svg>
