<?xml version="1.0" standalone="no"?>
<!DOCTYPE svg PUBLIC "-//W3C//DTD SVG 20010904//EN"
 "http://www.w3.org/TR/2001/REC-SVG-20010904/DTD/svg10.dtd">
<svg version="1.0" xmlns="http://www.w3.org/2000/svg"
 width="256.000000pt" height="256.000000pt" viewBox="0 0 256.000000 256.000000"
 preserveAspectRatio="xMidYMid meet">

<g transform="translate(0.000000,256.000000) scale(0.100000,-0.100000)"
fill="#000000" stroke="none">
<path d="M841 2464 c-82 -22 -150 -62 -216 -129 -68 -68 -107 -135 -130 -220
-22 -87 -23 -1382 0 -1468 43 -164 163 -293 322 -346 59 -20 84 -21 495 -21
238 0 447 4 464 9 30 9 35 5 140 -100 l109 -109 52 52 53 52 -90 91 -90 90 55
54 c61 61 118 161 134 239 7 36 11 271 11 725 0 730 0 728 -56 839 -34 67
-135 168 -202 202 -106 54 -131 56 -582 55 -330 0 -426 -3 -469 -15z m940
-200 c60 -28 125 -93 153 -153 21 -46 21 -51 21 -731 l0 -685 -28 -57 c-25
-50 -94 -128 -115 -128 -4 0 -59 52 -122 115 l-115 115 -52 -52 -53 -52 82
-84 83 -83 -375 3 -375 3 -51 27 c-59 31 -108 84 -138 147 -21 45 -21 56 -21
731 l0 685 24 49 c43 88 118 148 204 166 23 5 220 8 437 7 381 -2 397 -3 441
-23z"/>
</g>
</svg>
