<?xml version="1.0" standalone="no"?>
<!DOCTYPE svg PUBLIC "-//W3C//DTD SVG 20010904//EN"
 "http://www.w3.org/TR/2001/REC-SVG-20010904/DTD/svg10.dtd">
<svg version="1.0" xmlns="http://www.w3.org/2000/svg"
 width="256.000000pt" height="256.000000pt" viewBox="0 0 256.000000 256.000000"
 preserveAspectRatio="xMidYMid meet">

<g transform="translate(0.000000,256.000000) scale(0.100000,-0.100000)"
fill="#000000" stroke="none">
<path d="M981 1688 c-354 -429 -645 -787 -648 -795 -4 -11 49 -13 331 -11 330
3 336 3 336 -17 0 -11 -29 -190 -64 -398 -34 -207 -60 -377 -57 -376 3 0 314
332 690 737 l684 737 -385 5 -385 5 73 445 c40 244 72 445 70 447 -1 2 -292
-349 -645 -779z m120 -341 l-20 -57 250 0 c137 0 249 -3 249 -8 0 -13 -229
-236 -235 -230 -4 3 -2 23 4 45 6 21 11 41 11 46 0 4 -108 7 -240 7 -132 0
-240 3 -240 6 0 8 232 255 237 251 1 -2 -6 -29 -16 -60z"/>
</g>
</svg>
