<?xml version="1.0" standalone="no"?>
<!DOCTYPE svg PUBLIC "-//W3C//DTD SVG 20010904//EN"
 "http://www.w3.org/TR/2001/REC-SVG-20010904/DTD/svg10.dtd">
<svg version="1.0" xmlns="http://www.w3.org/2000/svg"
 width="256.000000pt" height="256.000000pt" viewBox="0 0 256.000000 256.000000"
 preserveAspectRatio="xMidYMid meet">

<g transform="translate(0.000000,256.000000) scale(0.100000,-0.100000)"
fill="#000000" stroke="none">
<path d="M1115 2389 c-153 -22 -337 -95 -476 -190 -89 -60 -238 -207 -297
-292 -131 -190 -182 -354 -182 -582 1 -443 159 -760 492 -986 187 -128 419
-188 673 -176 128 6 245 24 245 37 0 4 -69 100 -154 213 l-154 204 -69 6
c-176 17 -365 115 -466 241 -47 59 -99 167 -118 246 -8 33 -14 108 -13 190 0
215 49 351 166 470 67 67 179 128 288 157 100 26 292 24 395 -5 182 -52 312
-155 384 -303 61 -127 82 -226 87 -412 l5 -159 135 -184 c75 -101 140 -184
145 -184 13 0 85 156 120 261 91 272 93 532 5 737 -72 166 -165 301 -297 427
-124 118 -238 188 -394 240 -143 48 -361 67 -520 44z"/>
<path d="M1110 1143 c0 -12 310 -442 423 -588 162 -210 268 -301 401 -347 42
-14 86 -17 244 -18 105 0 192 3 192 7 0 9 -218 296 -414 548 -183 233 -269
320 -365 368 l-74 37 -203 0 c-112 0 -204 -3 -204 -7z"/>
</g>
</svg>
