<?xml version="1.0" standalone="no"?>
<!DOCTYPE svg PUBLIC "-//W3C//DTD SVG 20010904//EN"
 "http://www.w3.org/TR/2001/REC-SVG-20010904/DTD/svg10.dtd">
<svg version="1.0" xmlns="http://www.w3.org/2000/svg"
 width="256.000000pt" height="256.000000pt" viewBox="0 0 256.000000 256.000000"
 preserveAspectRatio="xMidYMid meet">

<g transform="translate(0.000000,256.000000) scale(0.100000,-0.100000)"
fill="#000000" stroke="none">
<path d="M207 2149 c-47 -27 -47 -30 -47 -862 l0 -784 23 -34 c20 -30 29 -34
71 -37 30 -2 56 2 70 12 18 11 473 587 552 698 10 15 22 28 25 28 3 0 74 -90
158 -200 83 -110 160 -204 171 -210 24 -13 76 -13 100 0 11 6 88 100 171 210
84 110 155 200 158 200 3 0 15 -13 25 -28 51 -71 500 -645 530 -677 32 -34 38
-36 87 -33 48 3 56 6 76 37 l23 34 0 784 c0 653 -2 789 -14 818 -24 56 -75 71
-131 37 -17 -10 -155 -174 -309 -363 -153 -189 -282 -345 -286 -347 -4 -1 -75
85 -159 192 -83 107 -160 200 -170 206 -25 13 -77 13 -101 0 -11 -6 -88 -98
-171 -206 -84 -107 -156 -193 -159 -192 -4 2 -133 158 -286 347 -154 189 -292
353 -309 363 -34 20 -71 23 -98 7z m397 -603 c108 -137 196 -254 196 -261 0
-7 -19 -37 -42 -67 -67 -86 -369 -448 -374 -448 -2 0 -4 237 -4 527 0 454 2
525 14 513 8 -8 102 -127 210 -264z m1574 -519 l-3 -261 -166 199 c-226 273
-251 306 -246 325 2 10 96 133 208 275 l204 258 3 -267 c1 -147 1 -385 0 -529z
m-857 566 c20 -21 82 -98 138 -171 l102 -132 -125 -164 c-69 -90 -132 -166
-140 -169 -9 -4 -23 -4 -32 0 -8 3 -71 79 -140 169 l-125 164 102 132 c99 130
167 208 179 208 3 0 22 -17 41 -37z"/>
</g>
</svg>
