<?xml version="1.0" standalone="no"?>
<!DOCTYPE svg PUBLIC "-//W3C//DTD SVG 20010904//EN"
 "http://www.w3.org/TR/2001/REC-SVG-20010904/DTD/svg10.dtd">
<svg version="1.0" xmlns="http://www.w3.org/2000/svg"
 width="256.000000pt" height="256.000000pt" viewBox="0 0 256.000000 256.000000"
 preserveAspectRatio="xMidYMid meet">

<g transform="translate(0.000000,256.000000) scale(0.100000,-0.100000)"
fill="#000000" stroke="none">
<path d="M1219 2385 c-51 -28 -61 -96 -21 -145 16 -20 35 -25 133 -36 189 -22
332 -66 438 -134 120 -78 271 -241 329 -356 46 -90 112 -347 112 -435 0 -70
67 -115 131 -89 59 25 69 76 44 218 -51 295 -131 465 -295 636 -200 207 -376
298 -663 340 -127 19 -174 20 -208 1z"/>
<path d="M1244 2041 c-58 -25 -72 -105 -26 -150 22 -23 39 -29 97 -35 98 -10
180 -33 248 -69 84 -44 188 -151 227 -231 31 -65 69 -214 70 -270 0 -75 98
-113 157 -62 26 22 28 30 27 93 -1 82 -43 242 -85 328 -87 177 -272 324 -471
375 -93 23 -215 34 -244 21z"/>
<path d="M1173 1675 c-81 -22 -132 -53 -189 -111 -77 -78 -98 -140 -99 -279 0
-99 3 -116 27 -168 15 -31 51 -81 80 -110 80 -80 237 -149 301 -133 60 15 90
76 65 130 -16 33 -38 47 -105 65 -111 30 -183 116 -183 221 0 106 56 175 160
200 136 33 234 -42 255 -195 10 -66 20 -84 59 -100 57 -24 120 9 131 69 8 41
-18 162 -45 217 -36 69 -113 143 -183 175 -76 34 -192 42 -274 19z"/>
<path d="M209 1375 c-58 -31 -61 -108 -14 -315 55 -246 134 -397 291 -554 188
-189 370 -280 644 -321 144 -22 196 -20 225 9 32 32 40 69 25 107 -18 42 -40
51 -165 65 -292 35 -465 123 -649 335 -104 119 -167 274 -201 495 -10 60 -19
119 -21 132 -5 25 -58 62 -89 62 -11 -1 -32 -7 -46 -15z"/>
<path d="M547 1350 c-37 -29 -43 -76 -23 -179 39 -199 96 -314 215 -431 119
-117 233 -176 396 -205 134 -23 171 -21 206 14 39 40 40 91 1 130 -22 23 -39
29 -97 34 -90 9 -176 31 -243 63 -76 37 -191 153 -230 234 -31 63 -71 217 -72
273 0 70 -96 111 -153 67z"/>
<path d="M1551 1056 c-90 -50 -50 -186 55 -186 16 0 39 13 61 35 32 32 35 40
30 73 -12 71 -86 111 -146 78z"/>
</g>
</svg>
