<?xml version="1.0" standalone="no"?>
<!DOCTYPE svg PUBLIC "-//W3C//DTD SVG 20010904//EN"
 "http://www.w3.org/TR/2001/REC-SVG-20010904/DTD/svg10.dtd">
<svg version="1.0" xmlns="http://www.w3.org/2000/svg"
 width="256.000000pt" height="256.000000pt" viewBox="0 0 256.000000 256.000000"
 preserveAspectRatio="xMidYMid meet">

<g transform="translate(0.000000,256.000000) scale(0.100000,-0.100000)"
fill="#000000" stroke="none">
<path d="M868 2411 c-103 -37 -190 -70 -194 -74 -6 -6 580 -699 597 -705 8 -3
377 207 402 228 9 8 -114 166 -249 321 -152 175 -298 300 -348 298 -12 0 -105
-31 -208 -68z"/>
<path d="M1830 2225 c0 -27 -61 -209 -96 -284 -19 -41 -34 -75 -34 -76 0 -2
93 -63 208 -135 114 -73 208 -134 210 -135 2 -2 41 -452 42 -486 0 -4 -76 -68
-170 -143 -93 -75 -172 -141 -175 -146 -6 -10 148 -324 173 -352 21 -24 62
-22 93 5 37 33 154 177 174 216 14 27 16 47 10 100 -12 125 -41 231 -77 283
-10 14 -18 28 -18 31 0 2 35 8 78 12 88 8 117 22 125 62 3 15 -1 102 -9 193
-15 181 -15 182 -84 200 -19 5 -61 12 -92 16 -32 4 -58 10 -58 15 0 4 7 38 16
76 24 102 15 214 -25 298 -36 78 -120 169 -205 226 -65 42 -86 48 -86 24z"/>
<path d="M725 1579 c-292 -20 -531 -37 -532 -38 -1 0 -10 -16 -19 -33 -16 -30
-16 -50 -4 -228 6 -107 17 -203 22 -213 20 -38 68 -47 290 -53 235 -7 806 10
820 24 9 9 -31 562 -41 573 -3 3 -244 -11 -536 -32z"/>
<path d="M1094 594 c-136 -277 -212 -444 -209 -455 7 -23 47 -35 162 -50 180
-23 259 0 336 100 103 133 410 606 405 623 -3 8 -461 218 -475 218 -2 0 -101
-196 -219 -436z"/>
</g>
</svg>
