<?xml version="1.0" standalone="no"?>
<!DOCTYPE svg PUBLIC "-//W3C//DTD SVG 20010904//EN"
 "http://www.w3.org/TR/2001/REC-SVG-20010904/DTD/svg10.dtd">
<svg version="1.0" xmlns="http://www.w3.org/2000/svg"
 width="256.000000pt" height="256.000000pt" viewBox="0 0 256.000000 256.000000"
 preserveAspectRatio="xMidYMid meet">

<g transform="translate(0.000000,256.000000) scale(0.100000,-0.100000)"
fill="#000000" stroke="none">
<path d="M1105 2303 c10 -27 18 -83 12 -83 -4 0 -24 9 -47 21 -43 22 -183 51
-188 38 -2 -4 9 -26 24 -49 15 -22 25 -43 22 -45 -3 -3 -24 1 -47 10 -47 16
-171 32 -171 21 0 -4 7 -18 16 -31 l16 -25 -118 -1 c-66 0 -141 -6 -169 -13
l-50 -12 45 -13 c24 -7 53 -19 63 -26 16 -11 16 -13 2 -19 -9 -3 -34 -6 -55
-6 -41 0 -187 -28 -209 -40 -9 -5 5 -12 40 -20 30 -7 66 -19 81 -26 30 -16 59
-56 36 -52 -7 2 -14 -7 -16 -19 -2 -13 -7 -23 -11 -23 -14 0 -33 -58 -26 -79
5 -17 2 -21 -14 -21 -27 0 -27 -15 1 -34 l22 -16 -26 0 c-31 0 -25 14 -77
-191 -46 -179 -93 -516 -74 -527 8 -5 6 -23 -7 -62 -21 -59 -26 -140 -10 -140
6 0 10 8 10 18 1 9 7 28 15 42 25 43 20 -106 -5 -165 -11 -26 -20 -49 -20 -51
0 -9 74 8 103 23 16 8 30 13 32 11 2 -2 -3 -21 -11 -43 -7 -22 -14 -53 -14
-70 0 -29 1 -29 66 35 l66 65 -5 -47 c-5 -56 6 -61 61 -28 18 11 35 20 37 20
3 0 5 -23 5 -50 0 -61 -17 -96 -65 -139 l-36 -31 54 0 c67 0 115 19 169 68 36
32 41 34 36 14 -5 -19 -3 -22 12 -17 17 5 18 2 13 -29 -3 -19 -2 -43 1 -53 6
-15 10 -13 28 15 11 17 23 32 28 32 13 0 20 -40 20 -114 0 -67 1 -69 19 -52
10 9 26 43 36 74 10 31 19 58 21 60 8 10 44 -22 44 -38 0 -23 15 -27 24 -5 8
22 26 18 26 -6 0 -24 17 -59 29 -59 4 0 21 24 37 53 l29 52 5 -60 5 -60 33 45
c17 24 32 53 32 64 1 19 3 18 23 -7 l23 -28 18 56 c18 57 36 65 36 16 0 -27
54 -121 70 -121 13 0 47 60 61 107 7 24 15 43 19 43 4 0 13 -20 20 -45 11 -41
30 -70 30 -48 0 5 6 17 13 27 12 17 16 13 48 -39 l34 -57 5 59 5 58 35 -57
c19 -32 38 -58 42 -58 4 0 13 18 19 40 13 43 18 47 38 28 11 -11 14 -10 18 0
3 7 12 20 21 28 15 15 17 15 23 -2 52 -147 64 -154 73 -45 4 45 11 83 16 86 5
3 17 -6 28 -20 17 -21 21 -22 26 -9 3 9 6 29 6 45 0 18 4 28 10 24 6 -4 10 6
10 21 l0 28 33 -31 c67 -64 105 -83 168 -83 l59 0 -40 36 c-42 38 -60 82 -60
147 0 41 2 43 33 23 12 -8 32 -17 45 -21 20 -6 22 -3 22 34 l0 40 46 -26 c25
-14 51 -34 57 -44 22 -35 30 -20 23 43 l-7 61 25 -17 c14 -9 47 -19 73 -23
l48 -6 -18 24 c-30 41 -47 87 -47 126 0 21 -4 55 -9 76 -7 27 -6 37 4 37 18 0
26 163 14 295 -11 117 -47 325 -77 439 -16 64 -21 70 -51 81 l-33 11 23 17
c19 13 21 18 10 26 -8 5 -11 16 -8 25 9 24 -13 66 -35 66 -15 0 -17 3 -8 19
16 31 12 43 -12 36 -42 -11 32 43 82 61 91 32 90 30 32 47 -29 9 -88 19 -130
23 -102 9 -113 16 -63 39 23 10 41 21 41 25 0 13 -91 31 -182 37 -96 6 -120
15 -100 35 35 35 -21 33 -136 -4 -35 -11 -66 -18 -69 -14 -3 3 6 25 21 50 14
24 26 47 26 49 0 15 -149 -16 -232 -48 -23 -9 -24 15 -3 55 l16 30 -50 0 c-28
0 -71 -7 -96 -15 -41 -14 -52 -14 -120 0 -94 19 -99 19 -90 -2z m-427 -463
c100 -52 194 -124 271 -205 72 -78 84 -110 51 -137 -12 -10 -38 -18 -58 -18
-26 0 -44 -8 -67 -29 -68 -66 -182 -55 -248 23 -50 60 -97 213 -97 319 0 101
28 110 148 47z m1347 23 c23 -23 14 -108 -18 -177 -14 -28 -28 -71 -31 -95
-11 -74 -53 -138 -108 -167 -46 -24 -98 -17 -162 21 -39 23 -71 35 -96 35 -24
0 -43 7 -54 19 -17 19 -17 22 9 70 29 53 117 146 175 184 90 60 222 125 257
127 6 0 19 -8 28 -17z m-656 -173 c80 -40 96 -80 111 -275 7 -94 16 -147 26
-163 15 -22 20 -24 72 -17 32 3 78 14 104 23 61 21 74 11 56 -43 -14 -43 -36
-55 -139 -75 -110 -21 -174 -109 -219 -300 -33 -138 -68 -246 -84 -259 -12
-10 -19 -8 -34 7 -37 37 -91 217 -92 303 0 111 -60 196 -157 225 -138 40 -159
49 -185 75 -28 27 -37 72 -18 84 5 3 24 -2 42 -12 19 -10 56 -17 88 -18 30 0
67 -4 82 -9 39 -12 47 12 57 172 9 148 23 197 69 246 55 58 149 73 221 36z"/>
<path d="M769 1616 c-46 -31 -89 -110 -71 -128 28 -28 152 80 152 133 0 27
-37 25 -81 -5z"/>
<path d="M1743 1605 c-43 -37 -69 -85 -59 -111 17 -45 146 63 146 123 0 35
-39 30 -87 -12z"/>
</g>
</svg>
