<?xml version="1.0" standalone="no"?>
<!DOCTYPE svg PUBLIC "-//W3C//DTD SVG 20010904//EN"
 "http://www.w3.org/TR/2001/REC-SVG-20010904/DTD/svg10.dtd">
<svg version="1.0" xmlns="http://www.w3.org/2000/svg"
 width="256.000000pt" height="256.000000pt" viewBox="0 0 256.000000 256.000000"
 preserveAspectRatio="xMidYMid meet">

<g transform="translate(0.000000,256.000000) scale(0.100000,-0.100000)"
fill="#000000" stroke="none">
<path d="M213 2344 c-68 -68 -123 -128 -123 -134 0 -6 83 -93 185 -195 102
-102 185 -188 185 -192 0 -4 -18 -41 -39 -83 -70 -135 -111 -303 -111 -454 0
-144 51 -339 120 -460 22 -38 40 -73 40 -78 0 -4 -85 -94 -190 -198 -104 -104
-190 -194 -190 -200 0 -13 247 -260 260 -260 6 0 96 86 200 190 104 105 196
190 203 190 7 0 17 -4 22 -9 21 -20 154 -80 230 -104 241 -75 517 -49 743 72
l73 39 190 -189 c104 -104 194 -189 199 -189 13 0 260 247 260 260 0 6 -83 93
-185 195 -102 102 -185 187 -185 190 0 3 20 40 45 83 161 280 164 635 8 933
l-45 87 181 181 c99 99 181 185 181 191 0 13 -247 260 -260 260 -6 0 -92 -82
-192 -182 -168 -168 -182 -180 -201 -168 -53 33 -178 90 -238 108 -158 49
-373 54 -534 13 -44 -11 -133 -47 -199 -80 l-119 -59 -183 184 c-101 101 -189
184 -196 183 -7 0 -68 -56 -135 -125z m1201 -514 c107 -27 169 -63 252 -145
150 -148 206 -358 148 -555 -8 -28 -18 -50 -22 -50 -4 0 -59 52 -122 116 -63
63 -145 142 -181 175 l-67 59 -135 -143 -135 -143 173 -180 c96 -98 174 -182
175 -185 0 -8 -41 -25 -98 -39 -56 -14 -196 -14 -258 1 -92 22 -193 79 -263
149 -115 115 -166 239 -164 405 1 164 59 293 182 407 139 129 328 176 515 128z"/>
</g>
</svg>
