<?xml version="1.0" standalone="no"?>
<!DOCTYPE svg PUBLIC "-//W3C//DTD SVG 20010904//EN"
 "http://www.w3.org/TR/2001/REC-SVG-20010904/DTD/svg10.dtd">
<svg version="1.0" xmlns="http://www.w3.org/2000/svg"
 width="256.000000pt" height="256.000000pt" viewBox="0 0 256.000000 256.000000"
 preserveAspectRatio="xMidYMid meet">

<g transform="translate(0.000000,256.000000) scale(0.100000,-0.100000)"
fill="#000000" stroke="none">
<path d="M1077 2469 c-9 -5 -24 -24 -33 -40 -39 -77 43 -158 119 -117 34 17
46 39 47 80 0 63 -78 109 -133 77z"/>
<path d="M1354 2470 c-30 -12 -54 -49 -54 -83 0 -40 49 -87 90 -87 42 0 90 47
90 89 0 59 -71 105 -126 81z"/>
<path d="M749 2401 c-20 -21 -29 -39 -29 -62 0 -29 16 -49 133 -166 l133 -133
122 0 123 0 -3 88 -3 87 -87 5 -87 5 -104 103 c-89 87 -109 102 -136 102 -23
0 -42 -9 -62 -29z"/>
<path d="M1590 2325 l-106 -105 -82 0 -82 0 0 -90 0 -90 121 0 121 0 120 118
c137 133 156 164 134 216 -17 40 -42 56 -87 56 -27 0 -48 -16 -139 -105z"/>
<path d="M505 2258 c-16 -14 -28 -38 -32 -61 l-6 -38 196 -197 197 -197 367
-3 c203 -2 384 0 403 3 28 5 69 40 214 183 98 97 185 192 193 210 12 30 12 37
-4 70 -20 42 -56 59 -99 48 -19 -5 -86 -64 -189 -167 l-161 -159 -329 0 -329
0 -166 165 c-144 143 -171 165 -198 165 -18 0 -42 -9 -57 -22z"/>
<path d="M320 2062 c-23 -23 -30 -39 -30 -68 0 -35 10 -48 165 -204 l165 -166
0 -324 0 -324 -165 -166 c-155 -156 -165 -169 -165 -204 0 -43 44 -96 80 -96
40 0 76 29 253 207 l177 179 0 404 0 404 -188 188 c-160 161 -192 189 -224
194 -32 6 -41 2 -68 -24z"/>
<path d="M2095 2078 c-21 -11 -328 -318 -364 -364 -21 -26 -21 -35 -21 -418
l0 -390 299 -300 c282 -282 302 -300 336 -300 49 0 89 40 89 89 0 33 -18 54
-272 308 l-272 273 0 325 0 324 161 160 c88 88 165 171 170 184 28 71 -59 146
-126 109z"/>
<path d="M165 1815 c-18 -17 -25 -35 -25 -61 0 -34 10 -47 105 -144 l105 -106
0 -82 0 -82 90 0 90 0 0 117 0 116 -132 134 c-124 125 -134 133 -170 133 -28
0 -46 -7 -63 -25z"/>
<path d="M2128 1723 c-66 -65 -126 -130 -134 -145 -9 -18 -14 -61 -14 -133 l0
-105 90 0 90 0 0 80 0 81 105 102 c88 85 107 108 112 139 5 32 1 41 -25 68
-23 22 -40 30 -67 30 -33 0 -48 -11 -157 -117z"/>
<path d="M134 1516 c-87 -38 -59 -166 36 -166 99 0 126 128 35 166 -40 16 -33
16 -71 0z"/>
<path d="M2315 1521 c-92 -39 -71 -171 27 -171 107 0 122 152 18 174 -14 3
-34 1 -45 -3z"/>
<path d="M134 1246 c-87 -38 -59 -166 36 -166 100 0 127 127 35 166 -40 16
-33 16 -71 0z"/>
<path d="M2320 1253 c-62 -23 -81 -103 -35 -148 55 -55 149 -17 149 61 0 55
-66 105 -114 87z"/>
<path d="M350 1168 l0 -82 -105 -106 c-95 -97 -105 -110 -105 -144 0 -51 36
-86 87 -86 34 0 47 10 170 133 l133 133 0 117 0 117 -90 0 -90 0 0 -82z"/>
<path d="M1980 1133 l0 -117 133 -134 c122 -122 137 -134 170 -135 51 -1 91
38 91 88 0 31 -12 47 -107 143 l-107 109 0 82 0 81 -90 0 -90 0 0 -117z"/>
<path d="M865 850 c-11 -4 -104 -93 -207 -197 -167 -168 -188 -193 -188 -222
0 -44 46 -91 91 -91 28 0 53 20 204 170 l172 170 318 0 319 0 266 -264 c146
-145 275 -269 288 -276 54 -27 122 21 122 88 0 33 -19 55 -282 320 -156 156
-295 290 -310 298 -22 11 -96 14 -400 13 -205 0 -382 -4 -393 -9z"/>
<path d="M859 453 c-85 -83 -130 -136 -134 -155 -8 -36 21 -89 57 -102 48 -17
80 2 180 104 l96 99 84 3 83 3 3 88 3 87 -122 0 -122 0 -128 -127z"/>
<path d="M1320 490 l0 -90 82 0 82 0 106 -105 c91 -89 112 -105 139 -105 45 0
70 16 87 56 22 52 3 83 -133 217 l-120 117 -121 0 -122 0 0 -90z"/>
<path d="M1077 289 c-9 -5 -24 -24 -33 -40 -29 -57 18 -129 85 -129 11 0 33
12 50 26 62 52 28 154 -51 154 -18 0 -41 -5 -51 -11z"/>
<path d="M1328 270 c-26 -27 -30 -36 -25 -68 13 -78 94 -107 148 -53 41 41 40
90 -2 125 -42 36 -82 34 -121 -4z"/>
<path d="M2329 261 c-32 -33 -36 -58 -14 -100 20 -40 66 -55 110 -37 60 25 72
84 29 135 -35 42 -84 43 -125 2z"/>
</g>
</svg>
