<?xml version="1.0" standalone="no"?>
<!DOCTYPE svg PUBLIC "-//W3C//DTD SVG 20010904//EN"
 "http://www.w3.org/TR/2001/REC-SVG-20010904/DTD/svg10.dtd">
<svg version="1.0" xmlns="http://www.w3.org/2000/svg"
 width="256.000000pt" height="256.000000pt" viewBox="0 0 256.000000 256.000000"
 preserveAspectRatio="xMidYMid meet">

<g transform="translate(0.000000,256.000000) scale(0.100000,-0.100000)"
fill="#000000" stroke="none">
<path d="M1110 2469 c-178 -22 -324 -73 -390 -138 -40 -38 -49 -54 -55 -93 -9
-57 -2 -101 24 -151 l19 -36 -74 -56 c-90 -68 -116 -105 -147 -215 -59 -205
-37 -348 72 -471 36 -41 39 -50 42 -114 l4 -70 -39 -10 c-32 -8 -45 -6 -79 13
l-40 22 7 -54 c5 -43 3 -56 -11 -67 -29 -24 -59 -120 -33 -104 6 4 26 1 45 -5
l34 -11 -39 -51 c-33 -41 -40 -58 -40 -94 0 -24 2 -44 5 -44 3 0 20 17 39 37
42 46 54 38 32 -18 l-17 -42 26 17 c15 10 29 16 31 13 8 -7 -46 -177 -72 -230
l-26 -51 23 17 c57 41 57 41 55 -16 -1 -36 5 -62 17 -81 l19 -28 25 53 c24 53
59 99 75 99 4 0 8 -20 8 -45 0 -26 8 -60 17 -78 l17 -32 7 33 c10 48 25 60 33
26 8 -31 62 -104 77 -104 6 0 8 4 5 9 -4 5 -3 17 0 26 6 14 9 13 31 -7 20 -19
25 -20 33 -8 8 13 10 13 10 -1 0 -9 9 -24 20 -34 20 -18 20 -17 20 20 l0 37
20 -23 c18 -23 19 -23 20 -4 0 13 13 -1 36 -40 91 -152 131 -176 295 -183 168
-7 250 29 330 144 16 24 42 56 56 70 l26 26 -6 -31 c-8 -39 18 -44 35 -6 13
29 28 33 28 8 0 -14 6 -11 25 12 l24 30 1 -27 c0 -16 4 -28 9 -28 13 0 61 59
79 97 21 44 36 37 42 -18 l6 -44 17 54 c9 30 17 73 17 95 l0 40 35 -34 c33
-32 50 -66 58 -120 3 -23 5 -21 25 20 12 25 22 60 22 78 0 35 19 43 40 17 28
-34 28 -11 0 39 -27 48 -59 160 -60 209 0 16 2 17 31 1 l31 -16 -4 36 c-5 44
1 45 27 3 l20 -32 3 59 c3 49 -1 65 -23 98 -15 22 -24 46 -21 54 6 16 32 19
41 4 3 -5 10 -10 15 -10 14 0 -10 73 -32 97 -17 18 -19 29 -13 76 8 59 1 97
-17 97 -6 0 -8 -3 -5 -6 3 -4 2 -15 -4 -25 -8 -15 -21 -19 -64 -19 l-55 0 0
71 c0 66 2 74 31 107 125 142 128 423 6 604 -37 55 -104 119 -138 130 -8 3 -5
17 11 47 14 28 24 70 27 116 l6 72 -34 25 c-78 59 -235 122 -381 154 -88 19
-342 27 -448 13z m58 -886 c43 -32 69 -79 86 -153 23 -98 21 -213 -5 -296
l-21 -68 28 -23 c39 -31 93 -31 121 0 20 21 20 27 10 130 -14 136 1 285 34
353 17 36 32 51 66 66 39 17 50 18 94 8 41 -10 54 -19 80 -56 17 -25 42 -70
57 -102 25 -52 27 -67 26 -167 -1 -84 -7 -131 -26 -198 -21 -74 -23 -94 -14
-128 31 -116 -122 -166 -284 -93 -65 29 -74 39 -84 97 -9 48 -32 48 -41 0 -17
-94 -59 -123 -177 -123 -145 0 -188 27 -188 118 0 31 -5 75 -10 97 -22 93 -32
256 -20 342 15 116 46 171 115 212 30 17 121 8 153 -16z m714 -847 c35 -23 70
-90 66 -128 -2 -24 -12 -38 -37 -55 -89 -60 -230 -58 -426 7 -171 56 -203 56
-366 -3 -144 -52 -239 -66 -318 -47 -108 26 -142 108 -76 185 l26 30 -21 -40
c-28 -55 -26 -89 6 -114 72 -56 194 -53 376 10 161 57 201 57 363 1 267 -91
435 -74 435 45 0 63 -38 100 -127 123 -35 9 -34 9 19 6 31 -3 67 -11 80 -20z
m-263 -334 c-27 -82 -93 -158 -174 -200 -41 -21 -64 -26 -130 -26 -71 -1 -86
3 -134 29 -57 32 -106 84 -140 153 -33 66 -20 59 28 -13 49 -76 92 -111 157
-131 104 -31 210 -8 279 60 22 23 58 76 80 119 40 76 58 82 34 9z"/>
<path d="M1050 1465 c0 -24 -6 -37 -21 -45 -33 -18 -59 -69 -52 -104 7 -35 30
-66 50 -66 7 0 13 -9 13 -20 0 -15 -9 -22 -31 -27 -30 -6 -31 -7 -14 -20 11
-7 27 -13 37 -13 10 0 18 -7 19 -17 0 -15 3 -14 16 5 9 12 26 22 40 22 38 0
63 18 63 45 0 28 -26 45 -69 45 l-31 0 0 74 c0 66 2 75 20 81 12 4 28 1 36 -6
19 -16 30 -4 14 16 -7 8 -25 15 -41 15 -24 0 -29 4 -29 25 0 14 -4 25 -10 25
-5 0 -10 -16 -10 -35z m0 -124 c0 -62 -7 -75 -34 -65 -34 13 -11 124 26 124 4
0 8 -27 8 -59z m81 -116 c0 -5 -12 -11 -26 -13 -18 -2 -25 1 -25 13 0 12 7 15
25 13 14 -2 26 -7 26 -13z"/>
<path d="M1530 1469 c0 -22 -10 -40 -35 -63 -28 -27 -35 -41 -35 -72 0 -43 22
-84 46 -84 25 0 16 -39 -11 -46 -34 -8 -32 -23 5 -30 18 -4 30 -13 31 -23 0
-12 4 -11 16 7 9 12 26 22 40 22 38 0 63 18 63 45 0 28 -26 45 -69 45 l-31 0
0 74 c0 65 2 75 20 81 10 3 28 1 40 -5 11 -6 20 -7 20 -2 0 17 -25 32 -52 32
-23 0 -28 4 -28 25 0 14 -4 25 -10 25 -5 0 -10 -14 -10 -31z m0 -128 c0 -63
-11 -81 -35 -61 -20 17 -19 79 2 102 26 29 33 21 33 -41z m88 -113 c-7 -20
-58 -23 -58 -4 0 11 10 16 31 16 20 0 29 -4 27 -12z"/>
<path d="M1041 1074 c-46 -17 -94 -44 -88 -50 2 -2 31 7 65 21 37 15 83 25
114 26 39 0 48 3 33 9 -30 13 -75 11 -124 -6z"/>
<path d="M1470 1081 c-19 -6 -8 -9 44 -15 38 -4 85 -13 104 -22 35 -14 35 -14
17 6 -30 33 -106 48 -165 31z"/>
</g>
</svg>
