<?xml version="1.0" standalone="no"?>
<!DOCTYPE svg PUBLIC "-//W3C//DTD SVG 20010904//EN"
 "http://www.w3.org/TR/2001/REC-SVG-20010904/DTD/svg10.dtd">
<svg version="1.0" xmlns="http://www.w3.org/2000/svg"
 width="256.000000pt" height="256.000000pt" viewBox="0 0 256.000000 256.000000"
 preserveAspectRatio="xMidYMid meet">

<g transform="translate(0.000000,256.000000) scale(0.100000,-0.100000)"
fill="#000000" stroke="none">
<path d="M1145 2234 c-91 -14 -198 -39 -260 -61 -457 -163 -770 -576 -801
-1058 -6 -96 -6 -103 21 -155 79 -157 237 -344 363 -429 267 -180 583 -172
820 23 152 124 198 234 156 375 -21 74 -98 150 -179 181 -122 46 -401 38 -477
-14 -39 -25 -45 -54 -24 -98 9 -17 15 -33 13 -34 -7 -8 -198 44 -222 60 -22
15 -54 56 -69 91 -3 6 -19 -5 -35 -24 l-31 -35 -21 48 c-28 65 -29 156 -1 219
23 52 91 144 145 195 l34 33 6 -36 c8 -50 23 -65 64 -65 45 0 156 53 182 86
16 21 23 23 40 15 30 -17 31 -15 10 39 -23 61 -24 92 -3 135 16 35 65 65 106
65 23 0 255 126 292 158 10 10 29 39 42 65 14 26 29 45 33 43 18 -12 41 -76
41 -115 0 -23 3 -41 7 -41 10 0 103 60 165 107 69 53 149 134 145 147 -4 13
-64 33 -167 57 -83 19 -326 33 -395 23z"/>
<path d="M1780 2099 c0 -18 -18 -69 -40 -114 -37 -77 -78 -126 -139 -166 -24
-15 -22 -16 65 -38 207 -55 337 -116 471 -223 105 -85 245 -209 240 -214 -2
-2 -36 7 -76 21 -71 24 -190 50 -197 43 -1 -2 28 -37 67 -78 126 -133 195
-253 255 -445 l28 -90 10 40 c17 73 13 350 -8 445 -75 348 -297 648 -598 810
l-78 42 0 -33z"/>
<path d="M1163 1746 c-45 -18 -98 -44 -118 -57 -36 -25 -55 -63 -38 -80 12
-12 119 8 154 28 36 21 114 143 91 143 -4 0 -44 -15 -89 -34z"/>
<path d="M526 1368 c-27 -39 -21 -46 29 -33 50 12 71 28 61 44 -13 20 -74 13
-90 -11z"/>
</g>
</svg>
