<?xml version="1.0" standalone="no"?>
<!DOCTYPE svg PUBLIC "-//W3C//DTD SVG 20010904//EN"
 "http://www.w3.org/TR/2001/REC-SVG-20010904/DTD/svg10.dtd">
<svg version="1.0" xmlns="http://www.w3.org/2000/svg"
 width="256.000000pt" height="256.000000pt" viewBox="0 0 256.000000 256.000000"
 preserveAspectRatio="xMidYMid meet">

<g transform="translate(0.000000,256.000000) scale(0.100000,-0.100000)"
fill="#000000" stroke="none">
<path d="M2159 2385 c-183 -45 -371 -188 -485 -371 -74 -119 -196 -417 -354
-862 l-33 -93 -33 61 c-125 234 -398 444 -657 505 -80 19 -203 19 -256 0 -51
-18 -101 -52 -101 -69 0 -7 40 -55 90 -107 49 -52 90 -97 90 -101 0 -18 179
-161 236 -189 56 -28 71 -31 120 -26 70 7 147 56 195 121 18 25 35 46 39 46
16 0 91 -75 124 -124 71 -108 80 -213 46 -557 -25 -243 -28 -356 -11 -397 18
-44 70 -66 139 -59 65 7 108 41 118 95 4 19 -3 116 -15 216 -31 259 -35 365
-21 501 22 214 77 369 160 450 l41 40 117 5 c93 5 128 11 172 30 83 36 148 76
222 137 147 120 210 276 239 592 l13 134 -23 18 c-28 23 -89 24 -172 4z"/>
</g>
</svg>
