<?xml version="1.0" standalone="no"?>
<!DOCTYPE svg PUBLIC "-//W3C//DTD SVG 20010904//EN"
 "http://www.w3.org/TR/2001/REC-SVG-20010904/DTD/svg10.dtd">
<svg version="1.0" xmlns="http://www.w3.org/2000/svg"
 width="256.000000pt" height="256.000000pt" viewBox="0 0 256.000000 256.000000"
 preserveAspectRatio="xMidYMid meet">

<g transform="translate(0.000000,256.000000) scale(0.100000,-0.100000)"
fill="#000000" stroke="none">
<path d="M1720 2468 c-25 -5 -49 -13 -53 -17 -4 -5 -36 -120 -71 -257 l-63
-249 -72 -3 c-66 -3 -72 -1 -67 15 2 10 17 74 31 143 15 69 28 131 30 138 3 9
-39 12 -188 12 l-193 0 -28 -173 -28 -174 -71 -59 c-142 -118 -257 -285 -293
-425 -12 -47 -15 -87 -11 -149 9 -118 29 -187 93 -318 l56 -112 -46 -183 c-61
-247 -86 -377 -86 -452 0 -56 3 -66 26 -84 35 -28 116 -42 215 -39 l83 3 75
260 c41 143 75 262 77 263 3 4 115 -18 126 -24 3 -2 -9 -62 -28 -132 -18 -70
-34 -130 -34 -135 0 -4 89 -6 197 -5 l197 3 34 185 34 185 36 29 c62 49 171
165 207 219 60 92 85 258 66 447 -13 126 -25 165 -62 207 -15 18 -33 50 -39
72 -11 42 -13 31 64 403 54 261 62 324 44 358 -26 49 -149 72 -258 48z m-285
-985 c49 -26 76 -54 105 -112 33 -66 26 -170 -15 -237 -43 -68 -108 -107 -190
-112 -82 -5 -128 11 -186 65 -62 58 -83 111 -77 197 11 179 200 283 363 199z"/>
</g>
</svg>
