<?xml version="1.0" standalone="no"?>
<!DOCTYPE svg PUBLIC "-//W3C//DTD SVG 20010904//EN"
 "http://www.w3.org/TR/2001/REC-SVG-20010904/DTD/svg10.dtd">
<svg version="1.0" xmlns="http://www.w3.org/2000/svg"
 width="256.000000pt" height="256.000000pt" viewBox="0 0 256.000000 256.000000"
 preserveAspectRatio="xMidYMid meet">

<g transform="translate(0.000000,256.000000) scale(0.100000,-0.100000)"
fill="#000000" stroke="none">
<path d="M758 2173 l-518 -305 0 -598 0 -598 519 -296 520 -296 520 297 521
297 0 596 0 596 -516 304 c-284 168 -519 306 -523 307 -3 1 -239 -136 -523
-304z m906 -205 l397 -223 0 -464 c-1 -256 -4 -468 -8 -472 -5 -4 -115 -68
-246 -142 l-239 -135 -76 45 c-43 25 -81 48 -85 53 -5 4 88 63 205 130 117 68
230 134 251 147 l37 23 -2 347 -3 346 -308 189 -308 188 -314 -176 -315 -177
0 -458 c0 -253 -3 -459 -6 -459 -4 0 -40 18 -80 41 l-74 41 2 466 3 467 385
222 c212 123 386 223 386 223 1 0 180 -100 398 -222z m-134 -259 l240 -132 0
-293 0 -292 -247 -142 c-137 -79 -250 -144 -253 -146 -3 -1 -113 62 -245 140
l-240 142 -3 297 -2 296 237 135 c131 75 246 134 255 132 10 -2 126 -64 258
-137z m-423 -1039 c175 -110 319 -204 321 -208 2 -7 -128 -86 -155 -94 -6 -2
-120 60 -252 137 l-241 140 0 112 c0 62 2 113 5 113 2 0 147 -90 322 -200z"/>
<path d="M1102 1548 l-152 -91 2 -180 3 -181 150 -87 c83 -49 154 -88 159 -89
5 0 80 39 167 88 l159 87 -2 184 -3 184 -155 88 c-85 49 -159 88 -165 88 -5 0
-79 -41 -163 -91z"/>
</g>
</svg>
