<?xml version="1.0" standalone="no"?>
<!DOCTYPE svg PUBLIC "-//W3C//DTD SVG 20010904//EN"
 "http://www.w3.org/TR/2001/REC-SVG-20010904/DTD/svg10.dtd">
<svg version="1.0" xmlns="http://www.w3.org/2000/svg"
 width="256.000000pt" height="256.000000pt" viewBox="0 0 256.000000 256.000000"
 preserveAspectRatio="xMidYMid meet">

<g transform="translate(0.000000,256.000000) scale(0.100000,-0.100000)"
fill="#000000" stroke="none">
<path d="M460 1913 c-153 -26 -285 -114 -342 -231 -30 -61 -33 -74 -33 -162 1
-134 25 -192 119 -286 56 -56 91 -81 166 -117 98 -48 235 -87 305 -87 58 -1
113 -30 168 -89 57 -61 77 -104 77 -165 0 -58 -38 -103 -112 -137 -46 -21 -69
-24 -164 -24 -108 0 -112 1 -190 39 -99 49 -180 129 -248 247 -97 165 -86 176
-86 -88 l0 -233 407 0 406 0 42 44 c130 135 173 272 125 398 -42 111 -165 243
-283 304 -27 14 -90 34 -140 44 -184 39 -318 135 -352 254 -10 34 -14 69 -10
87 10 44 57 93 117 120 47 21 68 24 178 24 109 0 131 -3 174 -23 97 -44 153
-106 187 -205 l18 -52 1 173 0 172 -252 -1 c-139 -1 -264 -4 -278 -6z"/>
<path d="M1268 1838 l82 -83 0 -505 0 -505 -82 -82 -83 -83 273 0 c149 0 272
3 272 6 0 3 -27 41 -60 84 l-60 79 0 204 0 203 31 30 c29 27 31 28 44 11 7
-10 93 -153 191 -317 l179 -299 210 -1 210 0 -48 43 c-26 23 -144 166 -261
317 l-214 275 47 16 c116 40 203 106 243 184 29 56 34 147 13 221 -31 109
-103 196 -207 251 l-53 28 -405 3 -405 3 83 -83z m537 -39 c55 -15 116 -81
139 -149 9 -30 20 -98 23 -150 4 -81 2 -100 -15 -130 -32 -58 -88 -82 -204
-88 l-98 -5 0 267 0 266 58 0 c31 0 75 -5 97 -11z"/>
</g>
</svg>
