<?xml version="1.0" standalone="no"?>
<!DOCTYPE svg PUBLIC "-//W3C//DTD SVG 20010904//EN"
 "http://www.w3.org/TR/2001/REC-SVG-20010904/DTD/svg10.dtd">
<svg version="1.0" xmlns="http://www.w3.org/2000/svg"
 width="256.000000pt" height="256.000000pt" viewBox="0 0 256.000000 256.000000"
 preserveAspectRatio="xMidYMid meet">

<g transform="translate(0.000000,256.000000) scale(0.100000,-0.100000)"
fill="#000000" stroke="none">
<path d="M160 1285 l0 -795 325 0 325 0 0 270 0 270 399 0 c415 0 435 -2 480
-43 53 -49 61 -85 61 -299 l0 -198 325 0 325 0 0 268 c0 306 -6 339 -70 420
-21 27 -61 64 -89 82 l-51 33 38 17 c112 50 181 202 170 377 -11 168 -142 313
-337 373 -61 19 -97 20 -982 20 l-919 0 0 -795z m1562 298 c37 -35 37 -73 0
-114 l-29 -32 -369 12 c-203 6 -397 14 -431 17 l-63 6 0 69 0 69 432 0 432 0
28 -27z"/>
</g>
</svg>
