<?xml version="1.0" standalone="no"?>
<!DOCTYPE svg PUBLIC "-//W3C//DTD SVG 20010904//EN"
 "http://www.w3.org/TR/2001/REC-SVG-20010904/DTD/svg10.dtd">
<svg version="1.0" xmlns="http://www.w3.org/2000/svg"
 width="256.000000pt" height="256.000000pt" viewBox="0 0 256.000000 256.000000"
 preserveAspectRatio="xMidYMid meet">

<g transform="translate(0.000000,256.000000) scale(0.100000,-0.100000)"
fill="#000000" stroke="none">
<path d="M785 2204 c-275 -151 -510 -286 -522 -300 l-23 -25 0 -583 c0 -541 1
-585 18 -605 26 -32 1022 -611 1050 -611 30 0 1016 583 1037 613 13 18 15 88
15 450 l0 428 -87 -3 -88 -3 -3 -387 -2 -386 -427 -254 c-235 -139 -433 -254
-440 -256 -7 -2 -211 113 -453 255 l-440 257 0 502 0 501 438 241 c241 133
443 242 450 242 7 0 163 -86 348 -192 285 -162 337 -189 348 -177 19 20 81
137 76 142 -36 29 -754 427 -771 427 -13 0 -249 -124 -524 -276z"/>
<path d="M2186 1955 c-71 -25 -101 -71 -94 -147 11 -109 129 -161 220 -97 55
39 72 112 42 176 -30 61 -102 90 -168 68z"/>
<path d="M960 1756 l0 -75 238 -3 c221 -3 240 -4 278 -25 166 -89 163 -304 -5
-361 -22 -8 -122 -12 -286 -12 -234 0 -255 -1 -276 -19 -24 -19 -24 -21 -27
-245 l-3 -226 80 0 81 0 0 169 0 170 233 3 c228 3 233 3 289 30 76 35 141 103
168 176 32 83 25 204 -15 285 -34 70 -103 135 -183 174 l-57 28 -257 3 -258 3
0 -75z"/>
<path d="M1498 984 c-27 -25 -48 -48 -48 -51 0 -8 161 -183 169 -183 3 0 30
22 60 48 l54 48 -83 92 c-45 51 -88 92 -94 92 -6 0 -32 -21 -58 -46z"/>
</g>
</svg>
