<?xml version="1.0" standalone="no"?>
<!DOCTYPE svg PUBLIC "-//W3C//DTD SVG 20010904//EN"
 "http://www.w3.org/TR/2001/REC-SVG-20010904/DTD/svg10.dtd">
<svg version="1.0" xmlns="http://www.w3.org/2000/svg"
 width="256.000000pt" height="256.000000pt" viewBox="0 0 256.000000 256.000000"
 preserveAspectRatio="xMidYMid meet">

<g transform="translate(0.000000,256.000000) scale(0.100000,-0.100000)"
fill="#000000" stroke="none">
<path d="M1154 1708 c-237 -249 -490 -514 -561 -588 -71 -74 -198 -207 -282
-295 l-153 -160 63 -58 c35 -31 66 -57 69 -56 3 0 293 304 645 674 352 370
645 674 651 674 13 1 564 -565 564 -580 0 -6 -145 -167 -322 -357 -177 -191
-333 -360 -347 -375 l-26 -29 60 -54 c33 -29 65 -53 70 -53 6 0 191 197 413
436 l402 435 -252 260 c-139 143 -323 332 -408 419 l-155 160 -431 -453z"/>
</g>
</svg>
