<?xml version="1.0" standalone="no"?>
<!DOCTYPE svg PUBLIC "-//W3C//DTD SVG 20010904//EN"
 "http://www.w3.org/TR/2001/REC-SVG-20010904/DTD/svg10.dtd">
<svg version="1.0" xmlns="http://www.w3.org/2000/svg"
 width="256.000000pt" height="256.000000pt" viewBox="0 0 256.000000 256.000000"
 preserveAspectRatio="xMidYMid meet">

<g transform="translate(0.000000,256.000000) scale(0.100000,-0.100000)"
fill="#000000" stroke="none">
<path d="M1113 2226 c-406 -78 -715 -379 -797 -779 -17 -81 -21 -282 -7 -353
7 -40 6 -44 -66 -140 -77 -104 -92 -137 -76 -162 34 -55 77 -40 137 48 l49 71
41 -83 c130 -263 364 -456 643 -529 111 -29 292 -36 409 -15 175 30 347 111
484 227 112 95 231 272 281 417 48 136 67 302 50 432 -10 79 -10 87 9 110 11
14 45 62 76 107 61 88 66 120 23 144 -35 18 -62 2 -108 -66 -24 -36 -45 -65
-47 -65 -1 0 -18 34 -38 76 -72 152 -190 295 -321 390 -76 55 -240 131 -335
154 -110 27 -307 35 -407 16z m439 -146 c232 -78 414 -240 518 -463 64 -136
64 -133 -21 -228 -96 -106 -242 -228 -327 -272 -78 -41 -204 -80 -330 -101
-101 -18 -352 -39 -360 -31 -3 3 38 50 91 104 53 54 97 102 97 108 0 5 -17 25
-38 46 l-37 36 -168 -174 c-113 -119 -167 -182 -167 -197 0 -15 61 -83 202
-225 l202 -203 38 37 c21 20 38 42 38 47 0 6 -66 76 -146 157 l-146 146 139 6
c151 7 336 35 452 67 169 48 299 129 470 294 l94 91 -6 -115 c-7 -132 -31
-230 -84 -334 -200 -400 -639 -584 -1059 -445 -247 82 -446 275 -538 522 l-26
67 66 73 c84 91 200 196 270 242 116 77 263 123 479 149 145 17 275 25 275 16
0 -3 -16 -22 -36 -41 -20 -18 -63 -65 -97 -102 l-60 -68 40 -40 39 -40 167
175 c112 117 167 183 167 197 0 15 -62 84 -197 220 -108 110 -201 199 -207
199 -13 0 -76 -61 -76 -74 0 -6 66 -76 146 -157 l146 -146 -126 -6 c-146 -8
-308 -30 -419 -58 -199 -50 -322 -121 -494 -283 -55 -53 -104 -96 -109 -96
-14 0 5 215 26 295 77 297 322 541 623 621 82 22 108 24 242 21 138 -3 158 -6
247 -37z"/>
</g>
</svg>
