<?xml version="1.0" standalone="no"?>
<!DOCTYPE svg PUBLIC "-//W3C//DTD SVG 20010904//EN"
 "http://www.w3.org/TR/2001/REC-SVG-20010904/DTD/svg10.dtd">
<svg version="1.0" xmlns="http://www.w3.org/2000/svg"
 width="256.000000pt" height="256.000000pt" viewBox="0 0 256.000000 256.000000"
 preserveAspectRatio="xMidYMid meet">

<g transform="translate(0.000000,256.000000) scale(0.100000,-0.100000)"
fill="#000000" stroke="none">
<path d="M1132 2257 l-142 -143 45 -44 45 -44 98 97 98 98 24 -27 c14 -14 60
-58 103 -97 l78 -70 45 44 45 45 -149 141 -149 142 -141 -142z"/>
<path d="M1869 2355 c-90 -29 -150 -109 -204 -274 -23 -69 -38 -95 -89 -153
-148 -168 -153 -178 -104 -220 43 -38 64 -24 217 153 50 57 63 81 96 178 28
83 48 124 76 154 l37 42 103 0 c94 0 110 -3 162 -28 57 -28 96 -75 81 -98 -11
-19 -67 -37 -134 -44 -80 -9 -110 -26 -110 -63 0 -52 21 -67 93 -66 186 5 305
97 278 216 -20 85 -84 149 -190 189 -74 28 -245 36 -312 14z"/>
<path d="M287 2325 c-108 -38 -157 -162 -104 -265 43 -87 157 -143 316 -156
76 -6 78 -6 99 21 27 34 27 46 2 77 -16 21 -30 26 -92 31 -139 12 -211 48
-216 109 -3 29 1 40 20 51 38 24 94 29 196 17 180 -21 193 -36 266 -301 30
-108 107 -170 411 -334 201 -108 238 -133 260 -175 20 -39 19 -156 -1 -237
-19 -76 -14 -105 22 -121 67 -31 111 47 121 218 9 155 -25 237 -131 309 -23
16 -115 68 -206 116 -182 97 -297 171 -328 209 -11 14 -29 64 -41 111 -53 213
-127 295 -292 324 -90 15 -255 13 -302 -4z"/>
<path d="M1857 1783 c-25 -21 -46 -41 -46 -45 -1 -3 87 -109 194 -233 l194
-228 -47 -52 c-26 -29 -114 -124 -197 -210 l-150 -157 45 -39 c25 -22 48 -39
52 -39 7 0 461 476 465 488 2 4 -86 111 -195 237 -108 127 -213 250 -233 273
l-37 43 -45 -38z"/>
<path d="M421 1565 c-154 -162 -230 -249 -225 -257 8 -13 411 -487 445 -522
18 -19 19 -19 61 19 24 21 44 42 46 45 1 3 -85 109 -193 234 l-195 228 87 93
c49 52 137 145 196 209 l108 115 -42 38 c-23 21 -45 39 -48 41 -4 1 -112 -108
-240 -243z"/>
<path d="M1027 1538 c-9 -7 -26 -51 -38 -98 -30 -119 -24 -245 16 -319 35 -64
80 -98 255 -192 212 -113 313 -174 357 -217 35 -34 43 -51 63 -130 43 -175
111 -272 216 -305 70 -23 229 -40 293 -33 147 17 231 114 207 238 -20 108
-146 184 -333 203 -69 7 -73 6 -98 -20 -21 -20 -25 -32 -20 -53 9 -39 27 -48
103 -55 140 -13 222 -56 222 -115 0 -63 -75 -83 -235 -62 -152 20 -181 50
-232 241 -49 179 -79 204 -523 444 -60 32 -125 74 -143 93 -32 33 -32 34 -32
130 0 53 6 125 14 159 14 58 14 64 -4 83 -20 23 -63 26 -88 8z"/>
<path d="M1028 889 c-19 -11 -87 -81 -166 -172 -41 -47 -57 -77 -87 -165 -65
-190 -85 -206 -234 -200 -75 3 -107 9 -144 27 -43 21 -87 69 -87 94 0 15 85
45 150 52 73 8 100 26 100 65 0 44 -31 63 -97 61 -184 -6 -298 -90 -276 -204
28 -148 184 -235 405 -225 80 3 101 8 141 32 47 27 99 87 119 136 6 14 26 67
44 119 30 84 41 102 111 178 95 103 115 132 107 158 -12 40 -55 62 -86 44z"/>
<path d="M1031 516 l-42 -43 148 -142 147 -141 143 142 143 143 -45 45 -45 45
-98 -98 -99 -98 -100 95 c-56 53 -103 96 -105 96 -2 0 -23 -20 -47 -44z"/>
</g>
</svg>
