<?xml version="1.0" standalone="no"?>
<!DOCTYPE svg PUBLIC "-//W3C//DTD SVG 20010904//EN"
 "http://www.w3.org/TR/2001/REC-SVG-20010904/DTD/svg10.dtd">
<svg version="1.0" xmlns="http://www.w3.org/2000/svg"
 width="256.000000pt" height="256.000000pt" viewBox="0 0 256.000000 256.000000"
 preserveAspectRatio="xMidYMid meet">

<g transform="translate(0.000000,256.000000) scale(0.100000,-0.100000)"
fill="#000000" stroke="none">
<path d="M1147 2390 c-331 -42 -590 -165 -779 -369 -149 -161 -166 -304 -47
-391 55 -40 80 -45 135 -30 89 25 187 140 266 311 84 182 224 241 578 243 149
1 196 -2 240 -16 112 -35 188 -106 232 -218 31 -79 31 -244 0 -313 -72 -162
-480 -418 -587 -369 -56 26 -43 96 55 299 95 198 100 232 34 259 -47 20 -91
17 -125 -6 -91 -66 -391 -544 -669 -1068 -113 -215 -150 -313 -150 -402 0 -77
19 -114 72 -141 144 -73 281 98 458 571 33 90 63 166 65 168 2 2 24 -36 49
-86 98 -194 249 -439 323 -522 23 -25 65 -59 94 -75 52 -29 58 -30 179 -29
155 2 268 22 362 66 129 59 250 173 305 288 29 61 36 137 14 163 -30 36 -58
21 -169 -93 -90 -91 -120 -115 -182 -144 -41 -20 -102 -41 -135 -47 -130 -24
-266 19 -345 109 -73 82 -148 265 -161 390 l-4 34 135 49 c264 96 415 183 546
314 88 88 131 161 161 275 24 90 23 291 -1 380 -58 210 -205 348 -413 386 -94
17 -441 26 -536 14z"/>
</g>
</svg>
