<?xml version="1.0" standalone="no"?>
<!DOCTYPE svg PUBLIC "-//W3C//DTD SVG 20010904//EN"
 "http://www.w3.org/TR/2001/REC-SVG-20010904/DTD/svg10.dtd">
<svg version="1.0" xmlns="http://www.w3.org/2000/svg"
 width="256.000000pt" height="256.000000pt" viewBox="0 0 256.000000 256.000000"
 preserveAspectRatio="xMidYMid meet">

<g transform="translate(0.000000,256.000000) scale(0.100000,-0.100000)"
fill="#000000" stroke="none">
<path d="M80 1250 l0 -1070 400 0 400 0 0 170 0 170 304 0 305 0 102 -170 103
-170 389 0 c366 0 389 1 382 18 -3 9 -73 137 -156 284 -82 146 -149 269 -149
272 0 3 29 35 65 72 179 181 267 406 252 644 -23 360 -276 669 -651 794 -162
54 -197 56 -1003 56 l-743 0 0 -1070z m1465 349 c52 -14 122 -86 131 -134 15
-80 -30 -160 -111 -196 -36 -17 -72 -19 -362 -19 l-323 0 0 180 0 180 313 0
c195 0 327 -4 352 -11z"/>
</g>
</svg>
