<?xml version="1.0" standalone="no"?>
<!DOCTYPE svg PUBLIC "-//W3C//DTD SVG 20010904//EN"
 "http://www.w3.org/TR/2001/REC-SVG-20010904/DTD/svg10.dtd">
<svg version="1.0" xmlns="http://www.w3.org/2000/svg"
 width="256.000000pt" height="256.000000pt" viewBox="0 0 256.000000 256.000000"
 preserveAspectRatio="xMidYMid meet">

<g transform="translate(0.000000,256.000000) scale(0.100000,-0.100000)"
fill="#000000" stroke="none">
<path d="M825 2119 c-264 -154 -487 -284 -495 -289 -8 -5 -12 -11 -9 -14 3 -4
67 28 142 69 117 65 139 74 156 63 16 -10 31 -5 99 30 65 34 81 39 86 27 3 -8
10 -15 16 -15 16 0 590 333 590 343 0 8 -90 68 -99 66 -4 -1 -222 -127 -486
-280z"/>
<path d="M896 1982 c-503 -290 -603 -352 -569 -352 5 0 66 34 136 75 71 41
131 75 134 75 4 0 14 -7 23 -15 14 -13 33 -5 174 76 145 83 159 89 171 73 11
-16 36 -4 298 145 156 89 293 168 303 175 18 14 9 21 -96 73 -3 2 -261 -145
-574 -325z"/>
<path d="M980 1844 c-349 -201 -642 -369 -650 -374 -8 -5 -12 -11 -8 -15 3 -3
67 28 143 70 126 71 137 75 149 59 8 -10 20 -15 29 -11 10 3 117 65 239 138
203 120 223 129 235 114 11 -16 36 -4 290 140 153 88 291 167 307 176 l29 17
-51 26 c-28 14 -57 26 -64 26 -7 0 -299 -165 -648 -366z"/>
<path d="M1045 1706 c-431 -247 -721 -420 -723 -430 -3 -15 27 1 250 132 25
15 29 14 46 -1 18 -16 33 -9 328 159 252 144 312 174 326 165 14 -8 71 21 315
160 164 94 299 172 301 174 6 5 -95 55 -110 55 -7 -1 -337 -187 -733 -414z"/>
<path d="M1130 1574 c-443 -257 -807 -468 -809 -470 -2 -2 -2 -6 1 -9 3 -3 67
28 143 70 121 67 139 75 154 62 14 -13 59 10 406 208 326 186 392 220 405 210
14 -12 107 37 604 316 16 10 12 15 -38 45 -32 19 -58 34 -59 34 -1 0 -364
-210 -807 -466z"/>
<path d="M1224 1451 c-474 -273 -872 -504 -884 -512 -13 -8 -21 -20 -19 -26 2
-6 62 24 137 68 73 43 136 79 139 79 4 0 14 -7 23 -15 15 -14 60 9 485 255
386 223 470 268 477 255 5 -8 13 -15 17 -15 11 0 572 319 590 336 11 10 4 17
-40 43 -30 17 -56 31 -59 30 -3 0 -393 -224 -866 -498z"/>
<path d="M1285 1305 c-522 -305 -954 -556 -960 -558 -5 -2 -7 -7 -4 -11 4 -4
68 27 144 69 133 73 137 75 153 56 17 -18 24 -15 252 120 666 394 702 414 715
395 12 -16 44 1 366 182 338 189 354 200 357 229 2 25 -3 35 -26 52 -17 12
-34 21 -39 20 -4 0 -435 -250 -958 -554z"/>
<path d="M1815 1428 c-259 -148 -679 -389 -934 -535 -344 -198 -459 -268 -448
-275 11 -6 38 5 92 38 69 43 77 46 88 30 11 -16 57 8 486 254 435 248 475 269
487 253 10 -14 17 -16 31 -7 10 5 170 97 356 204 l337 194 0 58 c0 40 -4 58
-12 57 -7 0 -224 -122 -483 -271z"/>
<path d="M1438 1032 c-484 -281 -853 -501 -848 -506 5 -5 41 12 83 38 81 50
92 54 105 30 7 -13 60 14 333 168 502 286 460 264 474 244 12 -15 47 3 366
191 l354 208 3 63 c2 34 -1 62 -5 61 -4 0 -394 -224 -865 -497z"/>
<path d="M1775 1044 c-280 -162 -628 -362 -773 -445 -144 -83 -260 -155 -256
-160 3 -5 44 11 91 36 47 25 87 44 88 43 1 -2 6 -10 11 -20 8 -14 54 10 323
168 287 168 315 182 327 166 10 -13 17 -15 31 -6 10 5 170 97 356 204 l337
193 0 58 c0 41 -4 59 -12 58 -7 0 -242 -133 -523 -295z"/>
<path d="M1590 762 c-388 -224 -697 -408 -688 -410 9 -2 53 15 97 38 67 33 82
38 87 25 4 -8 10 -15 15 -15 5 0 113 59 240 132 213 121 232 131 244 114 12
-16 42 -1 367 186 l353 204 3 67 c2 37 -1 67 -5 66 -4 0 -325 -184 -713 -407z"/>
<path d="M1675 629 c-335 -192 -614 -350 -620 -353 -6 -2 -6 -8 2 -16 9 -10
28 -3 94 35 76 45 83 47 95 31 12 -17 25 -11 170 73 129 74 160 88 167 76 4
-8 12 -15 17 -15 6 0 167 91 360 202 l350 201 0 59 c0 40 -4 58 -12 57 -7 0
-287 -158 -623 -350z"/>
<path d="M1760 495 c-294 -173 -536 -319 -538 -325 -5 -14 17 -3 95 47 59 37
66 39 83 18 10 -12 23 -9 93 26 74 38 82 40 93 24 11 -15 49 5 366 187 l353
203 3 68 c2 37 -1 67 -5 66 -4 0 -249 -142 -543 -314z"/>
</g>
</svg>
