<?xml version="1.0" standalone="no"?>
<!DOCTYPE svg PUBLIC "-//W3C//DTD SVG 20010904//EN"
 "http://www.w3.org/TR/2001/REC-SVG-20010904/DTD/svg10.dtd">
<svg version="1.0" xmlns="http://www.w3.org/2000/svg"
 width="256.000000pt" height="256.000000pt" viewBox="0 0 256.000000 256.000000"
 preserveAspectRatio="xMidYMid meet">

<g transform="translate(0.000000,256.000000) scale(0.100000,-0.100000)"
fill="#000000" stroke="none">
<path d="M1145 2473 c-330 -43 -624 -210 -820 -468 -52 -68 -131 -202 -124
-210 2 -2 72 36 155 84 109 63 174 108 232 161 119 111 272 196 424 236 49 12
331 164 363 195 9 9 -165 11 -230 2z"/>
<path d="M1442 2377 c-56 -33 -101 -61 -100 -63 2 -1 41 -8 88 -14 l85 -12 93
53 c50 29 92 56 92 59 0 10 -104 40 -131 39 -13 -1 -70 -28 -127 -62z"/>
<path d="M1748 2294 c-43 -25 -78 -49 -78 -53 0 -3 26 -18 58 -32 l57 -25 78
45 c42 25 77 48 77 51 0 7 -95 60 -106 60 -5 -1 -44 -21 -86 -46z"/>
<path d="M1130 2205 c-195 -31 -369 -122 -515 -270 -152 -154 -239 -333 -265
-547 -25 -198 22 -415 126 -590 66 -111 211 -256 322 -322 175 -104 392 -151
590 -126 128 16 267 62 375 126 110 66 255 211 321 322 104 175 151 392 126
590 -26 214 -113 393 -265 547 -149 152 -320 240 -525 270 -114 18 -176 18
-290 0z m164 -331 c41 -7 42 -11 20 -100 -18 -71 -15 -78 32 -88 l32 -7 17 73
c10 40 21 77 25 81 7 7 100 -11 100 -19 0 -2 -9 -37 -20 -76 -11 -40 -20 -76
-20 -80 0 -4 29 -21 65 -39 69 -34 121 -83 131 -125 11 -44 -1 -133 -23 -162
-11 -15 -36 -38 -55 -51 l-36 -23 35 -31 c63 -55 76 -111 47 -208 -21 -70 -81
-132 -144 -149 -25 -7 -84 -11 -134 -9 l-90 4 -19 -77 c-21 -85 -23 -86 -88
-68 l-37 10 19 73 c23 89 23 94 2 101 -10 2 -28 7 -39 10 -19 6 -23 1 -33 -41
-7 -27 -16 -64 -22 -84 l-9 -37 -43 10 c-23 6 -45 14 -49 17 -4 3 2 42 13 85
11 43 18 80 15 83 -2 3 -46 15 -96 28 -50 13 -94 26 -98 29 -3 4 6 31 20 60
l27 54 46 -11 c37 -8 49 -8 60 4 8 8 41 120 74 249 69 267 69 270 -14 291 -30
8 -45 17 -45 28 0 33 21 91 33 91 7 0 54 -11 104 -24 l93 -24 9 37 c6 20 15
58 22 84 8 32 16 46 25 43 7 -3 29 -8 48 -12z"/>
<path d="M1266 1572 c-3 -4 -16 -51 -29 -104 l-25 -97 47 -10 c95 -21 110 -22
150 -11 96 26 95 138 -1 183 -50 23 -137 47 -142 39z"/>
<path d="M1185 1257 c-7 -20 -55 -202 -55 -209 0 -11 135 -38 190 -38 63 0
103 20 120 59 27 66 -13 122 -115 160 -84 31 -135 42 -140 28z"/>
<path d="M1965 2159 c-38 -23 -71 -42 -73 -44 -1 -1 18 -19 43 -39 l45 -37 76
41 76 42 -38 39 c-21 22 -43 39 -49 39 -5 0 -41 -19 -80 -41z"/>
<path d="M2137 1999 c-49 -29 -67 -45 -63 -56 8 -21 49 -72 59 -72 15 -2 137
73 137 84 0 5 -15 27 -33 47 l-32 37 -68 -40z"/>
<path d="M2258 1809 l-67 -40 21 -47 c11 -26 22 -49 24 -50 4 -5 133 68 139
78 6 9 -35 101 -44 99 -4 0 -36 -19 -73 -40z"/>
<path d="M240 1682 l-115 -68 -12 -49 c-23 -101 -24 -100 75 -44 48 28 92 56
98 62 9 10 76 167 71 167 -1 0 -54 -31 -117 -68z"/>
<path d="M2350 1601 l-65 -38 3 -48 c1 -27 6 -53 11 -58 9 -9 135 55 147 74 7
12 -15 109 -24 109 -4 0 -36 -18 -72 -39z"/>
<path d="M163 1379 l-83 -50 0 -60 c0 -32 4 -59 9 -59 16 0 153 82 156 94 8
28 14 126 8 125 -5 0 -45 -23 -90 -50z"/>
<path d="M2388 1363 l-78 -45 0 -65 0 -64 58 32 c31 18 69 40 84 49 25 13 28
21 28 65 0 28 -4 55 -8 61 -5 8 -31 -2 -84 -33z"/>
<path d="M181 1129 c-83 -49 -83 -49 -75 -96 11 -70 15 -71 94 -24 l72 43 -7
51 c-4 29 -10 55 -14 58 -3 3 -35 -11 -70 -32z"/>
<path d="M2376 1096 l-89 -51 -24 -74 c-13 -40 -22 -75 -21 -77 2 -1 48 23
103 55 99 56 100 57 113 106 7 28 11 60 10 71 -3 21 -9 19 -92 -30z"/>
<path d="M232 898 c-79 -44 -79 -44 -43 -115 l16 -31 71 41 72 42 -20 50 c-11
27 -20 51 -21 52 -2 1 -35 -16 -75 -39z"/>
<path d="M2254 767 c-96 -57 -132 -85 -171 -132 -171 -206 -377 -326 -635
-371 -83 -14 -105 -23 -213 -86 -66 -38 -124 -73 -129 -78 -13 -13 140 -23
249 -16 422 27 796 271 989 644 45 88 54 113 39 111 -5 0 -63 -33 -129 -72z"/>
<path d="M323 692 c-35 -21 -63 -40 -63 -43 0 -3 14 -25 30 -48 l30 -41 48 27
c27 16 59 35 72 44 l23 15 -28 42 c-15 23 -33 42 -39 41 -6 0 -39 -17 -73 -37z"/>
<path d="M475 519 c-38 -23 -72 -43 -75 -45 -2 -3 14 -23 36 -45 l40 -40 72
41 c40 23 72 45 72 49 0 4 -17 23 -37 44 l-38 36 -70 -40z"/>
<path d="M641 355 l-74 -43 48 -31 c27 -17 54 -31 60 -31 6 0 46 21 89 46 l79
46 -49 29 c-27 16 -56 29 -64 28 -8 0 -48 -20 -89 -44z"/>
<path d="M892 241 c-46 -27 -83 -52 -83 -57 -1 -5 26 -18 59 -31 l60 -22 108
62 107 62 -74 17 c-41 9 -78 17 -84 17 -5 0 -47 -22 -93 -48z"/>
</g>
</svg>
