<?xml version="1.0" standalone="no"?>
<!DOCTYPE svg PUBLIC "-//W3C//DTD SVG 20010904//EN"
 "http://www.w3.org/TR/2001/REC-SVG-20010904/DTD/svg10.dtd">
<svg version="1.0" xmlns="http://www.w3.org/2000/svg"
 width="256.000000pt" height="256.000000pt" viewBox="0 0 256.000000 256.000000"
 preserveAspectRatio="xMidYMid meet">

<g transform="translate(0.000000,256.000000) scale(0.100000,-0.100000)"
fill="#000000" stroke="none">
<path d="M1148 2463 c-39 -46 -599 -996 -594 -1008 8 -22 158 -115 180 -113
15 2 88 118 265 415 136 227 251 413 257 413 6 0 123 -187 260 -415 172 -288
254 -415 265 -415 30 0 179 101 179 121 0 19 -585 999 -604 1011 -6 4 -52 8
-102 8 -74 0 -94 -3 -106 -17z"/>
<path d="M414 1232 c-19 -12 -254 -411 -254 -431 0 -11 7 -26 15 -34 30 -30
1065 -687 1082 -687 10 0 259 154 553 343 504 322 535 344 538 373 2 25 -21
72 -117 231 -67 111 -127 203 -135 206 -19 8 -186 -101 -186 -121 0 -10 31
-69 69 -132 53 -87 67 -118 58 -126 -7 -6 -183 -121 -392 -254 -323 -207 -383
-241 -402 -234 -35 14 -773 488 -773 497 0 5 32 62 71 127 39 65 68 124 64
129 -17 29 -176 123 -191 113z"/>
</g>
</svg>
