<?xml version="1.0" standalone="no"?>
<!DOCTYPE svg PUBLIC "-//W3C//DTD SVG 20010904//EN"
 "http://www.w3.org/TR/2001/REC-SVG-20010904/DTD/svg10.dtd">
<svg version="1.0" xmlns="http://www.w3.org/2000/svg"
 width="256.000000pt" height="256.000000pt" viewBox="0 0 256.000000 256.000000"
 preserveAspectRatio="xMidYMid meet">

<g transform="translate(0.000000,256.000000) scale(0.100000,-0.100000)"
fill="#000000" stroke="none">
<path d="M399 2386 c-56 -20 -96 -53 -126 -104 l-28 -47 0 -960 0 -960 28 -47
c70 -120 238 -142 343 -46 77 71 74 35 74 940 l0 798 547 0 546 0 -74 -77
c-353 -367 -578 -611 -596 -646 -26 -49 -30 -131 -9 -180 8 -18 194 -212 427
-444 436 -434 459 -453 544 -452 57 1 101 19 142 59 73 71 94 180 52 267 -14
30 -114 135 -325 341 -167 163 -304 302 -304 307 0 6 133 143 296 305 162 162
303 309 312 325 15 26 17 66 17 313 l0 284 -24 19 c-22 18 -51 19 -915 19
-702 -1 -899 -4 -927 -14z"/>
</g>
</svg>
