<?xml version="1.0" standalone="no"?>
<!DOCTYPE svg PUBLIC "-//W3C//DTD SVG 20010904//EN"
 "http://www.w3.org/TR/2001/REC-SVG-20010904/DTD/svg10.dtd">
<svg version="1.0" xmlns="http://www.w3.org/2000/svg"
 width="256.000000pt" height="256.000000pt" viewBox="0 0 256.000000 256.000000"
 preserveAspectRatio="xMidYMid meet">

<g transform="translate(0.000000,256.000000) scale(0.100000,-0.100000)"
fill="#000000" stroke="none">
<path d="M1352 2224 c-79 -22 -233 -92 -361 -164 -95 -54 -111 -67 -107 -84 3
-12 136 -342 295 -735 160 -393 288 -718 285 -722 -3 -5 -33 -24 -67 -44 -112
-62 -262 -66 -385 -10 -74 34 -162 121 -203 202 -29 57 -33 76 -33 138 0 63 4
82 37 148 31 62 54 91 128 160 l91 84 -378 328 -377 328 -39 -44 c-21 -24 -47
-55 -57 -69 l-19 -25 299 -259 c165 -142 299 -261 299 -264 0 -3 -11 -17 -24
-31 -14 -15 -41 -52 -60 -85 -133 -222 -96 -469 101 -662 71 -71 168 -124 273
-150 82 -21 272 -15 340 10 52 19 300 165 300 176 0 4 -133 334 -295 734 -162
399 -295 729 -295 732 0 8 217 109 279 129 142 46 301 -38 363 -194 19 -47 23
-75 23 -176 0 -118 -1 -121 -34 -183 -41 -74 -83 -111 -174 -148 -37 -15 -67
-31 -67 -35 0 -4 179 -161 397 -349 l398 -341 28 33 c15 18 41 49 57 69 l29
36 -289 247 c-159 136 -294 254 -300 261 -9 11 -4 23 23 57 78 96 117 213 117
348 -1 282 -147 492 -385 555 -72 18 -142 18 -213 -1z"/>
</g>
</svg>
