<?xml version="1.0" standalone="no"?>
<!DOCTYPE svg PUBLIC "-//W3C//DTD SVG 20010904//EN"
 "http://www.w3.org/TR/2001/REC-SVG-20010904/DTD/svg10.dtd">
<svg version="1.0" xmlns="http://www.w3.org/2000/svg"
 width="256.000000pt" height="256.000000pt" viewBox="0 0 256.000000 256.000000"
 preserveAspectRatio="xMidYMid meet">

<g transform="translate(0.000000,256.000000) scale(0.100000,-0.100000)"
fill="#000000" stroke="none">
<path d="M240 1985 l0 -490 239 239 240 240 -29 35 c-16 20 -124 133 -239 251
l-210 215 -1 -490z"/>
<path d="M2018 2229 c-123 -132 -223 -246 -223 -253 0 -7 102 -118 227 -247
l228 -234 0 488 c0 268 -2 487 -4 487 -3 0 -105 -108 -228 -241z"/>
<path d="M905 1843 c4 -16 83 -356 176 -757 93 -401 171 -731 173 -733 6 -6 2
-25 181 762 91 402 168 736 170 743 3 9 -71 12 -351 12 l-356 0 7 -27z"/>
<path d="M537 1619 l-238 -221 18 -28 c56 -87 888 -1268 891 -1265 6 5 -422
1735 -429 1735 -3 0 -112 -100 -242 -221z"/>
<path d="M1725 1829 c-11 -33 -415 -1722 -412 -1726 2 -1 202 288 444 645
l441 647 -192 186 c-252 245 -275 264 -281 248z"/>
</g>
</svg>
