<?xml version="1.0" standalone="no"?>
<!DOCTYPE svg PUBLIC "-//W3C//DTD SVG 20010904//EN"
 "http://www.w3.org/TR/2001/REC-SVG-20010904/DTD/svg10.dtd">
<svg version="1.0" xmlns="http://www.w3.org/2000/svg"
 width="256.000000pt" height="256.000000pt" viewBox="0 0 256.000000 256.000000"
 preserveAspectRatio="xMidYMid meet">

<g transform="translate(0.000000,256.000000) scale(0.100000,-0.100000)"
fill="#000000" stroke="none">
<path d="M240 1939 l0 -461 47 40 c73 60 197 138 261 164 50 19 81 23 252 28
l195 5 5 76 5 76 314 -192 c172 -105 313 -195 313 -200 1 -5 -140 -102 -313
-216 l-314 -207 -3 89 c-3 88 -3 89 -28 89 -50 0 -121 -23 -224 -72 -92 -44
-116 -61 -190 -137 -93 -93 -142 -174 -179 -294 -58 -191 -22 -398 92 -522
l42 -46 871 3 870 3 -138 304 c-76 167 -138 310 -138 318 0 9 13 32 29 52 44
56 110 167 152 256 83 175 111 343 90 530 -18 168 -51 267 -128 382 -113 171
-259 272 -520 362 l-90 31 -637 0 -636 0 0 -461z"/>
</g>
</svg>
