<?xml version="1.0" standalone="no"?>
<!DOCTYPE svg PUBLIC "-//W3C//DTD SVG 20010904//EN"
 "http://www.w3.org/TR/2001/REC-SVG-20010904/DTD/svg10.dtd">
<svg version="1.0" xmlns="http://www.w3.org/2000/svg"
 width="256.000000pt" height="256.000000pt" viewBox="0 0 256.000000 256.000000"
 preserveAspectRatio="xMidYMid meet">

<g transform="translate(0.000000,256.000000) scale(0.100000,-0.100000)"
fill="#000000" stroke="none">
<path d="M1145 2474 c-168 -26 -282 -62 -418 -132 -317 -162 -546 -464 -623
-822 -26 -118 -26 -362 0 -480 102 -474 462 -834 936 -936 118 -26 362 -26
480 0 474 102 834 462 936 936 26 118 26 362 0 480 -101 467 -454 826 -916
931 -83 19 -327 33 -395 23z m437 -187 c229 -61 423 -191 555 -373 54 -74 121
-222 151 -331 24 -91 26 -112 26 -303 0 -190 -2 -212 -26 -302 -63 -231 -192
-423 -374 -555 -74 -54 -222 -121 -331 -151 -91 -24 -112 -26 -303 -26 -190 0
-212 2 -302 26 -231 63 -423 192 -555 374 -54 74 -121 222 -151 331 -24 91
-26 112 -26 303 0 190 2 212 26 302 104 383 370 633 763 718 75 16 120 19 270
16 155 -3 194 -7 277 -29z"/>
<path d="M1085 2194 c-343 -76 -609 -329 -707 -669 -20 -69 -23 -103 -23 -245
0 -142 3 -176 23 -245 92 -320 337 -565 657 -657 69 -20 103 -23 245 -23 142
0 176 3 245 23 320 92 565 337 657 657 20 69 23 103 23 245 0 142 -3 176 -23
245 -91 318 -336 565 -652 656 -101 29 -342 36 -445 13z m332 -145 c96 -13
225 -56 300 -100 73 -44 188 -159 232 -232 144 -245 144 -629 0 -874 -44 -73
-159 -188 -232 -232 -86 -51 -211 -90 -331 -103 -191 -22 -398 18 -543 103
-73 44 -188 159 -232 232 -144 245 -144 629 0 874 44 73 159 188 232 232 154
91 369 128 574 100z"/>
<path d="M1170 1980 c-161 -26 -281 -88 -402 -210 -72 -73 -94 -103 -132 -181
-124 -258 -93 -542 85 -766 57 -71 155 -148 244 -192 196 -95 420 -93 625 6
81 39 108 59 185 137 74 74 99 107 132 176 92 187 104 373 39 562 -76 218
-268 394 -493 452 -76 20 -212 27 -283 16z m260 -164 c102 -22 177 -62 251
-136 105 -104 149 -224 149 -405 0 -288 -134 -476 -385 -540 -76 -19 -260 -19
-343 0 -187 44 -323 180 -367 367 -19 83 -19 267 0 343 50 196 184 328 375
369 84 19 238 19 320 2z"/>
</g>
</svg>
