<?xml version="1.0" standalone="no"?>
<!DOCTYPE svg PUBLIC "-//W3C//DTD SVG 20010904//EN"
 "http://www.w3.org/TR/2001/REC-SVG-20010904/DTD/svg10.dtd">
<svg version="1.0" xmlns="http://www.w3.org/2000/svg"
 width="256.000000pt" height="256.000000pt" viewBox="0 0 256.000000 256.000000"
 preserveAspectRatio="xMidYMid meet">

<g transform="translate(0.000000,256.000000) scale(0.100000,-0.100000)"
fill="#000000" stroke="none">
<path d="M950 2437 c-70 -56 -149 -140 -185 -197 -95 -150 -100 -335 -13 -488
36 -63 121 -157 177 -197 37 -25 41 -32 41 -69 0 -35 -5 -43 -29 -58 -40 -22
-61 -58 -69 -114 l-7 -46 -112 -65 -111 -65 -27 18 c-40 26 -114 24 -154 -6
-81 -57 -78 -183 6 -232 l33 -20 0 -138 0 -139 -27 -16 c-43 -25 -66 -63 -70
-114 -9 -108 110 -187 202 -132 20 11 40 21 45 21 4 0 56 -27 114 -61 104 -60
106 -61 106 -97 0 -72 69 -142 138 -142 74 0 142 64 142 134 l0 43 110 62 109
63 44 -21 c51 -24 87 -27 125 -7 49 26 75 62 80 114 5 61 -16 106 -64 134
l-34 20 0 136 0 137 30 17 c40 23 70 75 70 121 0 55 28 65 114 42 181 -49 317
45 357 244 11 59 11 65 -7 78 -33 24 -115 43 -186 43 -125 0 -210 -64 -248
-188 -11 -35 -20 -70 -20 -76 0 -7 -11 -18 -24 -24 -20 -9 -32 -7 -63 9 -43
22 -97 20 -138 -7 -22 -15 -29 -12 -138 50 l-114 66 -5 51 c-5 52 -40 102 -80
115 -14 4 -18 16 -18 49 0 39 4 46 34 64 19 12 63 52 99 90 237 251 190 575
-116 805 -27 20 -52 36 -55 36 -4 0 -32 -20 -62 -43z m148 -128 c199 -200 208
-421 26 -618 -31 -34 -60 -61 -65 -61 -5 0 -10 77 -11 171 -3 151 -5 173 -20
183 -13 8 -23 8 -35 0 -16 -10 -18 -32 -21 -183 -1 -94 -6 -171 -11 -171 -20
0 -122 124 -151 184 -82 167 -45 331 110 489 41 42 83 77 91 77 9 0 48 -32 87
-71z m-50 -955 c31 -22 30 -78 -2 -99 -64 -42 -130 41 -76 95 24 24 48 25 78
4z m911 5 c28 -6 53 -14 55 -18 2 -3 -4 -30 -13 -59 -21 -60 -61 -108 -108
-128 -35 -15 -123 -19 -123 -6 0 5 18 18 39 30 48 27 55 44 32 73 l-17 21 -52
-26 c-29 -14 -52 -24 -52 -21 0 14 40 82 58 98 22 20 86 46 114 47 9 0 40 -5
67 -11z m-1019 -174 l30 -16 0 -138 0 -139 -30 -12 c-27 -11 -36 -8 -142 53
-112 64 -113 65 -113 102 0 37 1 38 110 101 60 35 111 64 113 64 2 0 16 -7 32
-15z m286 -48 l109 -63 0 -39 0 -40 -114 -66 c-113 -65 -115 -66 -143 -50
l-28 16 0 137 0 137 28 15 c15 8 30 15 33 16 4 0 55 -28 115 -63z m-646 -55
c43 -35 15 -112 -41 -112 -41 0 -74 62 -51 96 9 13 43 33 58 34 7 0 22 -8 34
-18z m942 1 c26 -23 24 -78 -4 -97 -30 -21 -54 -20 -78 4 -56 56 23 146 82 93z
m-767 -217 c108 -62 110 -64 113 -102 l3 -39 -118 -67 c-113 -64 -118 -66
-145 -52 l-28 15 0 137 0 137 28 17 c15 9 29 16 32 17 3 0 55 -28 115 -63z
m658 45 l27 -14 0 -137 c0 -136 0 -138 -25 -154 -24 -16 -28 -15 -142 52 -113
65 -118 70 -121 104 l-3 36 113 65 c62 36 115 65 118 64 3 -2 17 -9 33 -16z
m-355 -116 c51 -64 -35 -137 -93 -79 -35 35 -2 104 49 104 14 0 33 -11 44 -25z
m-88 -308 l0 -132 -27 -12 c-15 -7 -32 -13 -37 -13 -6 1 -58 29 -116 63 -99
59 -105 65 -108 98 -3 36 -3 36 109 101 l113 65 33 -19 33 -20 0 -131z m298
84 c69 -40 72 -43 72 -79 -1 -37 -2 -38 -112 -101 l-111 -63 -34 16 -33 16 0
129 0 129 33 20 32 20 40 -23 c22 -12 73 -41 113 -64z m-679 -46 c32 -31 2
-105 -43 -105 -34 0 -66 28 -66 58 1 62 64 89 109 47z m941 -4 c35 -67 -27
-128 -88 -85 -26 18 -29 60 -5 86 22 25 79 24 93 -1z m-476 -257 c36 -35 7
-104 -42 -104 -54 0 -81 62 -45 102 20 22 66 24 87 2z"/>
</g>
</svg>
