<?xml version="1.0" standalone="no"?>
<!DOCTYPE svg PUBLIC "-//W3C//DTD SVG 20010904//EN"
 "http://www.w3.org/TR/2001/REC-SVG-20010904/DTD/svg10.dtd">
<svg version="1.0" xmlns="http://www.w3.org/2000/svg"
 width="256.000000pt" height="256.000000pt" viewBox="0 0 256.000000 256.000000"
 preserveAspectRatio="xMidYMid meet">

<g transform="translate(0.000000,256.000000) scale(0.100000,-0.100000)"
fill="#000000" stroke="none">
<path d="M860 1979 c-228 -275 -422 -510 -431 -522 -9 -12 -19 -50 -23 -84
l-7 -63 43 0 c43 0 54 8 398 294 195 162 356 291 358 286 2 -6 -319 -1617
-343 -1717 -4 -18 2 -24 43 -37 145 -47 340 -65 491 -47 101 13 281 49 300 60
8 5 -37 256 -158 876 -93 478 -168 871 -166 873 1 2 164 -130 361 -292 l359
-296 47 0 48 0 0 45 c0 44 -5 50 -441 572 -243 290 -446 533 -452 540 -9 9
-109 -105 -427 -488z"/>
</g>
</svg>
