<?xml version="1.0" standalone="no"?>
<!DOCTYPE svg PUBLIC "-//W3C//DTD SVG 20010904//EN"
 "http://www.w3.org/TR/2001/REC-SVG-20010904/DTD/svg10.dtd">
<svg version="1.0" xmlns="http://www.w3.org/2000/svg"
 width="256.000000pt" height="256.000000pt" viewBox="0 0 256.000000 256.000000"
 preserveAspectRatio="xMidYMid meet">

<g transform="translate(0.000000,256.000000) scale(0.100000,-0.100000)"
fill="#000000" stroke="none">
<path d="M630 1823 c-30 -8 -93 -32 -139 -54 -46 -21 -85 -39 -87 -39 -2 0 -4
18 -4 40 l0 40 -120 0 -120 0 2 -552 3 -553 132 -3 132 -3 3 369 3 368 28 42
c15 23 46 54 69 69 37 25 50 28 122 27 61 0 100 -7 155 -27 41 -14 76 -25 77
-24 5 6 107 173 114 188 8 14 1 23 -41 50 -70 44 -170 79 -227 78 -26 0 -72
-7 -102 -16z"/>
<path d="M1350 1435 l0 -355 128 -136 127 -136 5 264 c6 301 7 305 97 389 58
54 106 73 185 73 79 -1 143 -35 186 -98 l32 -48 0 -334 0 -334 146 0 147 0 -8
293 c-9 392 -17 475 -49 540 -66 135 -228 237 -374 237 -85 0 -202 -33 -298
-84 l-84 -45 0 65 0 64 -120 0 -120 0 0 -355z"/>
<path d="M1189 1757 c-19 -12 -74 -72 -122 -132 -49 -61 -110 -135 -136 -165
l-48 -55 -50 46 c-69 64 -106 82 -160 76 -23 -2 -54 -12 -68 -21 l-25 -16 0
-390 0 -390 140 0 140 0 2 221 3 222 194 -222 194 -221 169 0 c158 0 168 1
159 18 -13 23 -80 101 -293 341 -98 110 -178 205 -178 211 0 7 38 53 85 102
l85 91 0 153 0 154 -29 0 c-15 0 -43 -10 -62 -23z"/>
</g>
</svg>
