<?xml version="1.0" standalone="no"?>
<!DOCTYPE svg PUBLIC "-//W3C//DTD SVG 20010904//EN"
 "http://www.w3.org/TR/2001/REC-SVG-20010904/DTD/svg10.dtd">
<svg version="1.0" xmlns="http://www.w3.org/2000/svg"
 width="256.000000pt" height="256.000000pt" viewBox="0 0 256.000000 256.000000"
 preserveAspectRatio="xMidYMid meet">

<g transform="translate(0.000000,256.000000) scale(0.100000,-0.100000)"
fill="#000000" stroke="none">
<path d="M485 2467 c-98 -33 -172 -97 -213 -185 -23 -48 -27 -71 -27 -142 0
-71 4 -94 26 -140 33 -70 95 -132 167 -167 49 -24 69 -28 142 -28 73 0 93 4
141 28 67 32 142 109 172 175 30 66 30 198 0 264 -30 65 -105 143 -170 174
-65 32 -175 42 -238 21z"/>
<path d="M1203 2046 c-136 -44 -230 -169 -237 -313 -2 -51 -9 -80 -25 -106
-31 -50 -43 -58 -104 -64 -47 -5 -63 -1 -113 23 -51 25 -71 29 -144 29 -103 0
-170 -27 -239 -96 -69 -69 -96 -136 -96 -239 0 -103 27 -170 96 -239 69 -69
136 -96 239 -96 103 0 155 21 230 91 63 59 97 128 108 225 15 123 42 155 145
174 30 6 50 2 100 -21 87 -40 196 -40 279 -2 69 32 136 97 168 163 35 72 40
189 10 267 -28 76 -96 150 -168 184 -68 33 -182 42 -249 20z"/>
<path d="M1913 1602 c-140 -50 -232 -172 -233 -311 -1 -134 -104 -189 -232
-123 -46 24 -64 27 -143 27 -78 0 -97 -4 -146 -28 -62 -30 -126 -93 -157 -154
-24 -45 -45 -153 -36 -177 6 -16 -33 -93 -60 -115 -8 -7 -39 -15 -69 -18 -47
-5 -63 -1 -113 23 -51 25 -71 29 -144 29 -73 0 -93 -4 -141 -28 -67 -32 -142
-109 -172 -175 -33 -71 -31 -198 4 -272 34 -72 97 -136 167 -168 48 -23 71
-27 142 -27 71 0 94 4 140 26 112 53 182 155 198 290 15 123 42 155 145 174
30 6 50 2 100 -21 52 -24 75 -29 142 -29 71 0 89 4 148 33 111 55 174 149 187
276 7 72 30 131 59 153 9 6 33 16 54 21 33 9 45 6 109 -27 66 -34 77 -36 157
-35 104 1 158 22 230 89 142 133 142 357 0 490 -27 25 -70 55 -96 66 -69 30
-175 34 -240 11z"/>
</g>
</svg>
