<?xml version="1.0" standalone="no"?>
<!DOCTYPE svg PUBLIC "-//W3C//DTD SVG 20010904//EN"
 "http://www.w3.org/TR/2001/REC-SVG-20010904/DTD/svg10.dtd">
<svg version="1.0" xmlns="http://www.w3.org/2000/svg"
 width="256.000000pt" height="256.000000pt" viewBox="0 0 256.000000 256.000000"
 preserveAspectRatio="xMidYMid meet">

<g transform="translate(0.000000,256.000000) scale(0.100000,-0.100000)"
fill="#000000" stroke="none">
<path d="M805 2121 l-480 -277 0 -563 0 -563 483 -279 483 -279 482 278 482
278 2 565 2 564 -479 275 c-263 151 -482 275 -487 276 -4 1 -224 -122 -488
-275z m804 -274 c173 -100 314 -186 314 -191 -1 -5 -69 -49 -153 -98 -145 -84
-153 -87 -178 -74 -15 8 -89 50 -165 95 l-138 80 -162 -93 -162 -94 -3 -371
c-1 -204 -4 -371 -7 -371 -2 0 -73 40 -157 89 l-153 88 -3 375 -2 376 322 186
c178 102 325 186 328 186 3 -1 146 -83 319 -183z"/>
</g>
</svg>
