<?xml version="1.0" standalone="no"?>
<!DOCTYPE svg PUBLIC "-//W3C//DTD SVG 20010904//EN"
 "http://www.w3.org/TR/2001/REC-SVG-20010904/DTD/svg10.dtd">
<svg version="1.0" xmlns="http://www.w3.org/2000/svg"
 width="256.000000pt" height="256.000000pt" viewBox="0 0 256.000000 256.000000"
 preserveAspectRatio="xMidYMid meet">

<g transform="translate(0.000000,256.000000) scale(0.100000,-0.100000)"
fill="#000000" stroke="none">
<path d="M310 1775 l0 -464 -72 -3 -73 -3 0 -280 0 -280 70 -1 70 -1 3 -232 2
-231 280 0 280 0 2 231 3 230 249 -1 c218 -1 255 -3 290 -19 70 -31 120 -97
206 -276 l80 -165 343 0 c189 0 346 3 349 6 5 5 -86 208 -178 399 l-29 60 -75
3 -75 3 -36 59 c-42 65 -123 132 -196 160 l-48 18 30 12 c128 47 240 135 305
238 l45 71 77 0 77 1 18 58 c13 40 18 89 18 167 -1 212 -55 357 -184 486 -117
117 -266 181 -484 209 -48 6 -343 10 -714 10 l-633 0 0 -465z m1252 -100 c23
-17 53 -45 65 -63 64 -96 22 -227 -91 -281 -40 -20 -59 -21 -354 -21 l-312 0
0 200 0 201 324 -3 324 -3 44 -30z"/>
</g>
</svg>
