<?xml version="1.0" standalone="no"?>
<!DOCTYPE svg PUBLIC "-//W3C//DTD SVG 20010904//EN"
 "http://www.w3.org/TR/2001/REC-SVG-20010904/DTD/svg10.dtd">
<svg version="1.0" xmlns="http://www.w3.org/2000/svg"
 width="256.000000pt" height="256.000000pt" viewBox="0 0 256.000000 256.000000"
 preserveAspectRatio="xMidYMid meet">

<g transform="translate(0.000000,256.000000) scale(0.100000,-0.100000)"
fill="#000000" stroke="none">
<path d="M1280 2355 l0 -45 44 0 c65 0 201 -26 285 -54 538 -184 829 -771 647
-1305 -184 -537 -771 -829 -1304 -647 -148 51 -268 123 -384 234 -344 328
-416 847 -176 1264 31 53 44 68 57 62 37 -16 109 -27 142 -20 48 9 110 50 139
93 34 50 40 154 12 209 -55 108 -181 148 -289 92 -91 -46 -137 -170 -99 -262
16 -38 16 -40 -13 -85 -256 -402 -237 -910 48 -1288 369 -490 1073 -587 1567
-215 329 248 495 663 429 1071 -77 475 -451 849 -926 926 -52 8 -113 15 -136
15 l-43 0 0 -45z m-663 -201 c80 -51 70 -178 -17 -214 -47 -20 -100 -6 -137
35 -95 102 37 255 154 179z"/>
<path d="M1214 1790 c-120 -18 -220 -69 -302 -154 -199 -206 -193 -527 12
-724 206 -198 528 -193 724 12 97 101 145 219 144 357 -1 139 -48 255 -144
355 -111 116 -281 176 -434 154z"/>
</g>
</svg>
