<?xml version="1.0" standalone="no"?>
<!DOCTYPE svg PUBLIC "-//W3C//DTD SVG 20010904//EN"
 "http://www.w3.org/TR/2001/REC-SVG-20010904/DTD/svg10.dtd">
<svg version="1.0" xmlns="http://www.w3.org/2000/svg"
 width="256.000000pt" height="256.000000pt" viewBox="0 0 256.000000 256.000000"
 preserveAspectRatio="xMidYMid meet">

<g transform="translate(0.000000,256.000000) scale(0.100000,-0.100000)"
fill="#000000" stroke="none">
<path d="M585 2386 c-37 -17 -80 -62 -94 -99 -8 -19 -11 -264 -11 -747 0 -649
2 -724 17 -761 14 -37 61 -77 361 -317 189 -151 356 -280 370 -288 38 -19 81
-17 120 6 44 27 683 539 704 565 9 11 21 39 27 62 14 52 15 1400 1 1457 -12
54 -38 87 -90 114 l-44 22 -666 0 c-533 -1 -671 -3 -695 -14z m1168 -279 c66
-50 71 -70 75 -274 5 -258 -11 -318 -100 -362 l-41 -20 29 -11 c36 -14 71 -46
92 -85 14 -25 17 -63 17 -230 0 -183 -2 -203 -20 -235 -24 -40 -301 -269 -327
-270 -17 0 -18 22 -18 318 0 282 -2 321 -18 351 -31 62 -60 75 -177 79 -58 3
-116 1 -130 -2 l-25 -6 -2 -368 c-3 -317 -5 -367 -18 -369 -25 -5 -302 222
-327 269 l-23 41 0 533 c0 352 4 542 11 561 14 37 57 82 94 99 24 11 114 13
451 11 l421 -2 36 -28z"/>
<path d="M1114 1957 c-2 -7 -3 -102 -2 -212 l3 -200 122 -3 c146 -3 174 7 204
71 15 35 19 66 19 184 0 78 -3 148 -6 157 -5 14 -30 16 -170 16 -124 0 -166
-3 -170 -13z"/>
</g>
</svg>
