<?xml version="1.0" standalone="no"?>
<!DOCTYPE svg PUBLIC "-//W3C//DTD SVG 20010904//EN"
 "http://www.w3.org/TR/2001/REC-SVG-20010904/DTD/svg10.dtd">
<svg version="1.0" xmlns="http://www.w3.org/2000/svg"
 width="256.000000pt" height="256.000000pt" viewBox="0 0 256.000000 256.000000"
 preserveAspectRatio="xMidYMid meet">

<g transform="translate(0.000000,256.000000) scale(0.100000,-0.100000)"
fill="#000000" stroke="none">
<path d="M1145 2473 c-522 -68 -930 -441 -1041 -953 -26 -118 -26 -362 0 -480
87 -403 351 -711 706 -825 122 -39 325 -47 453 -16 460 110 787 555 787 1073
0 234 -64 402 -205 543 -87 87 -149 126 -240 150 -57 14 -166 21 -177 10 -3
-3 27 -38 66 -78 157 -161 238 -372 238 -617 0 -372 -193 -675 -496 -780 -225
-77 -482 9 -648 218 -119 150 -177 315 -185 529 -22 555 322 1064 817 1207
l85 25 -65 -1 c-36 -1 -78 -3 -95 -5z"/>
<path d="M1275 2356 c-162 -43 -286 -112 -409 -226 -226 -212 -356 -520 -356
-842 0 -234 64 -402 205 -543 87 -87 149 -126 240 -150 57 -14 166 -21 177
-10 3 3 -27 38 -66 78 -108 111 -188 263 -222 422 -26 124 -22 305 10 428 135
522 640 739 1015 435 116 -93 216 -256 261 -423 31 -115 38 -310 15 -447 -79
-479 -383 -847 -805 -973 l-85 -26 100 6 c535 29 985 419 1101 955 26 118 26
362 0 480 -87 403 -350 711 -706 825 -74 24 -105 28 -235 32 -134 3 -160 1
-240 -21z"/>
</g>
</svg>
