<?xml version="1.0" standalone="no"?>
<!DOCTYPE svg PUBLIC "-//W3C//DTD SVG 20010904//EN"
 "http://www.w3.org/TR/2001/REC-SVG-20010904/DTD/svg10.dtd">
<svg version="1.0" xmlns="http://www.w3.org/2000/svg"
 width="256.000000pt" height="256.000000pt" viewBox="0 0 256.000000 256.000000"
 preserveAspectRatio="xMidYMid meet">

<g transform="translate(0.000000,256.000000) scale(0.100000,-0.100000)"
fill="#000000" stroke="none">
<path d="M650 2120 l0 -280 -205 0 -205 0 0 -170 0 -170 205 0 205 0 0 -65 0
-65 -205 0 -205 0 0 -175 0 -175 205 0 205 0 0 -430 0 -430 215 0 215 0 0 430
0 430 143 0 142 -1 238 -429 239 -430 239 0 c131 0 239 2 239 4 0 2 -115 200
-255 440 -140 241 -255 441 -255 445 0 5 33 20 73 35 190 69 332 219 383 406
14 50 18 102 19 230 0 142 -3 176 -23 243 -57 200 -160 316 -339 383 -126 48
-215 54 -765 54 l-508 0 0 -280z m1101 -103 c21 -10 46 -35 60 -60 23 -41 24
-49 24 -247 0 -200 -1 -206 -25 -249 -16 -28 -39 -52 -65 -65 -38 -20 -55 -21
-350 -21 l-310 0 -3 320 c-1 176 0 326 3 333 4 11 65 13 317 10 276 -3 317 -5
349 -21z"/>
</g>
</svg>
