<?xml version="1.0" standalone="no"?>
<!DOCTYPE svg PUBLIC "-//W3C//DTD SVG 20010904//EN"
 "http://www.w3.org/TR/2001/REC-SVG-20010904/DTD/svg10.dtd">
<svg version="1.0" xmlns="http://www.w3.org/2000/svg"
 width="256.000000pt" height="256.000000pt" viewBox="0 0 256.000000 256.000000"
 preserveAspectRatio="xMidYMid meet">

<g transform="translate(0.000000,256.000000) scale(0.100000,-0.100000)"
fill="#000000" stroke="none">
<path d="M342 2283 l3 -118 108 -3 107 -3 0 -904 0 -904 -117 -3 -118 -3 -3
-92 -3 -93 356 0 355 0 0 95 0 95 -115 0 -115 0 0 410 0 410 196 -2 197 -3
258 -405 257 -405 -119 -3 -119 -3 0 -94 0 -95 380 0 381 0 -3 93 -3 92 -117
5 -117 5 -266 410 -265 410 72 7 c203 18 360 122 453 300 48 92 65 148 72 249
12 173 -57 361 -176 480 -76 75 -143 116 -256 156 l-80 28 -603 3 -603 3 3
-118z m1240 -140 c90 -42 160 -110 201 -192 30 -62 32 -72 32 -176 0 -97 -3
-116 -25 -160 -35 -72 -117 -150 -197 -188 l-68 -32 -320 -3 c-176 -2 -339 0
-362 3 l-43 6 0 390 0 390 358 -3 357 -3 67 -32z"/>
</g>
</svg>
