<?xml version="1.0" standalone="no"?>
<!DOCTYPE svg PUBLIC "-//W3C//DTD SVG 20010904//EN"
 "http://www.w3.org/TR/2001/REC-SVG-20010904/DTD/svg10.dtd">
<svg version="1.0" xmlns="http://www.w3.org/2000/svg"
 width="256.000000pt" height="256.000000pt" viewBox="0 0 256.000000 256.000000"
 preserveAspectRatio="xMidYMid meet">

<g transform="translate(0.000000,256.000000) scale(0.100000,-0.100000)"
fill="#000000" stroke="none">
<path d="M1581 2167 c-392 -166 -712 -306 -711 -312 4 -14 501 -525 511 -525
4 0 157 183 340 408 184 224 393 480 466 570 73 89 128 162 121 161 -7 0 -334
-136 -727 -302z"/>
<path d="M818 709 c-311 -337 -564 -616 -562 -618 2 -2 1643 686 1651 693 2 1
-116 123 -260 271 l-263 269 -566 -615z"/>
</g>
</svg>
