<?xml version="1.0" standalone="no"?>
<!DOCTYPE svg PUBLIC "-//W3C//DTD SVG 20010904//EN"
 "http://www.w3.org/TR/2001/REC-SVG-20010904/DTD/svg10.dtd">
<svg version="1.0" xmlns="http://www.w3.org/2000/svg"
 width="256.000000pt" height="256.000000pt" viewBox="0 0 256.000000 256.000000"
 preserveAspectRatio="xMidYMid meet">

<g transform="translate(0.000000,256.000000) scale(0.100000,-0.100000)"
fill="#000000" stroke="none">
<path d="M1286 2450 c-69 -25 -88 -37 -157 -106 l-79 -79 0 -57 c0 -51 -7 -73
-54 -166 l-54 -108 -186 -905 c-102 -497 -188 -912 -190 -921 -2 -10 -1 -18 2
-18 4 0 140 97 302 215 l295 215 217 0 216 0 16 68 c8 37 69 293 135 570 l120
503 -54 82 c-54 81 -55 83 -80 231 -14 82 -25 157 -25 165 0 11 39 31 126 65
69 27 127 52 129 56 2 3 -67 29 -154 58 -152 50 -158 54 -211 107 l-54 55 -91
-1 c-73 0 -105 -6 -169 -29z"/>
</g>
</svg>
