<?xml version="1.0" standalone="no"?>
<!DOCTYPE svg PUBLIC "-//W3C//DTD SVG 20010904//EN"
 "http://www.w3.org/TR/2001/REC-SVG-20010904/DTD/svg10.dtd">
<svg version="1.0" xmlns="http://www.w3.org/2000/svg"
 width="256.000000pt" height="256.000000pt" viewBox="0 0 256.000000 256.000000"
 preserveAspectRatio="xMidYMid meet">

<g transform="translate(0.000000,256.000000) scale(0.100000,-0.100000)"
fill="#000000" stroke="none">
<path d="M860 2233 c1 -5 14 -24 31 -43 l30 -35 -244 -5 c-261 -5 -277 -9
-277 -56 0 -14 10 -30 25 -40 25 -16 32 -45 19 -78 -5 -14 -31 -16 -181 -16
-155 0 -174 -2 -169 -16 3 -8 81 -123 173 -255 l167 -239 236 0 c197 0 239 3
258 16 27 19 28 37 1 80 -11 19 -19 46 -17 61 l3 28 180 3 181 2 174 -247 c96
-136 175 -250 175 -253 0 -3 -30 -6 -66 -8 l-66 -3 -132 181 c-73 99 -134 180
-137 180 -2 0 -4 -261 -4 -580 l0 -580 135 0 135 0 0 290 0 290 213 0 c301 0
390 24 499 131 108 107 152 289 114 470 -35 162 -132 272 -292 330 -53 20 -86
23 -338 28 l-279 6 -132 180 -131 180 -142 3 c-78 1 -142 -1 -142 -5z m1053
-613 c60 -22 117 -73 142 -127 23 -47 30 -138 15 -191 -19 -72 -133 -176 -159
-146 -9 10 -312 451 -325 472 -6 9 24 12 133 12 116 0 150 -3 194 -20z"/>
<path d="M2045 824 c-33 -14 -86 -27 -117 -31 -32 -3 -58 -7 -58 -9 0 -1 73
-103 163 -226 l163 -223 137 -3 c75 -1 137 1 137 6 0 13 -344 505 -355 508 -5
1 -37 -9 -70 -22z"/>
</g>
</svg>
