<?xml version="1.0" standalone="no"?>
<!DOCTYPE svg PUBLIC "-//W3C//DTD SVG 20010904//EN"
 "http://www.w3.org/TR/2001/REC-SVG-20010904/DTD/svg10.dtd">
<svg version="1.0" xmlns="http://www.w3.org/2000/svg"
 width="256.000000pt" height="256.000000pt" viewBox="0 0 256.000000 256.000000"
 preserveAspectRatio="xMidYMid meet">

<g transform="translate(0.000000,256.000000) scale(0.100000,-0.100000)"
fill="#000000" stroke="none">
<path d="M1000 2470 c-311 -39 -600 -146 -810 -300 -36 -27 -76 -60 -89 -74
l-23 -25 16 -123 c63 -465 237 -886 503 -1218 143 -180 471 -494 636 -611 l55
-39 79 62 c108 85 357 337 483 489 116 140 241 312 315 434 157 260 260 593
272 881 l6 131 -54 40 c-206 153 -540 284 -859 338 -113 19 -424 28 -530 15z
m437 -185 c273 -35 558 -135 767 -269 l59 -38 -6 -111 c-13 -236 -108 -526
-247 -752 -63 -103 -182 -265 -291 -395 -105 -125 -412 -430 -433 -430 -21 0
-201 155 -337 290 -225 223 -353 395 -464 623 -103 209 -192 513 -211 715 l-7
68 37 30 c56 47 183 119 277 158 267 110 563 148 856 111z"/>
<path d="M1155 1897 c-69 -18 -107 -40 -144 -83 -42 -47 -51 -73 -51 -140 0
-102 70 -197 170 -228 25 -8 85 -23 133 -32 131 -25 177 -64 177 -149 0 -54
-28 -105 -70 -130 -28 -16 -52 -20 -120 -20 -108 1 -166 18 -207 61 -28 30
-38 34 -82 34 -29 0 -51 -5 -51 -10 0 -24 41 -89 72 -115 46 -39 101 -61 187
-75 122 -20 224 0 291 58 72 61 100 145 81 248 -23 121 -85 168 -274 208 -136
29 -168 48 -193 112 -17 45 -17 48 2 82 52 96 221 109 331 25 l45 -35 36 29
c20 16 37 34 39 40 5 15 -89 82 -149 105 -66 25 -160 31 -223 15z"/>
</g>
</svg>
