<?xml version="1.0" standalone="no"?>
<!DOCTYPE svg PUBLIC "-//W3C//DTD SVG 20010904//EN"
 "http://www.w3.org/TR/2001/REC-SVG-20010904/DTD/svg10.dtd">
<svg version="1.0" xmlns="http://www.w3.org/2000/svg"
 width="256.000000pt" height="256.000000pt" viewBox="0 0 256.000000 256.000000"
 preserveAspectRatio="xMidYMid meet">

<g transform="translate(0.000000,256.000000) scale(0.100000,-0.100000)"
fill="#000000" stroke="none">
<path d="M1170 2395 c-8 -2 -49 -9 -90 -15 -336 -55 -644 -287 -802 -605 -216
-432 -121 -964 213 -1191 104 -70 179 -95 309 -101 173 -9 343 34 553 138 116
57 160 88 246 172 130 127 221 303 250 482 14 92 22 209 13 221 -8 13 -567
397 -577 397 -4 -1 -137 -90 -296 -199 l-290 -199 7 -90 c12 -167 40 -269 110
-405 44 -85 110 -170 176 -229 l36 -32 67 26 c36 13 70 27 76 30 5 4 -12 23
-39 44 -155 123 -258 316 -277 519 l-6 67 213 145 c117 80 218 145 223 145 6
0 106 -65 223 -145 l213 -145 -6 -67 c-9 -97 -40 -200 -88 -293 -96 -185 -326
-344 -600 -416 -114 -30 -270 -31 -349 -2 -141 52 -270 190 -322 344 l-19 56
23 32 c42 55 26 137 -32 167 -28 14 -28 16 -23 82 14 160 68 352 96 343 8 -2
47 -6 87 -9 63 -4 79 -1 127 22 98 49 165 152 165 256 0 33 -15 96 -34 141 -6
13 14 27 96 68 320 157 673 138 974 -54 71 -45 191 -159 246 -233 l40 -54 -20
-21 c-105 -115 -39 -310 113 -333 37 -5 45 -10 49 -33 36 -192 -11 -431 -119
-611 -243 -400 -805 -604 -1325 -480 -47 12 -122 37 -168 57 -46 19 -85 33
-87 31 -8 -7 116 -103 176 -137 71 -40 170 -74 279 -97 105 -23 383 -26 475
-6 364 79 655 305 805 625 316 674 -96 1456 -834 1582 -77 13 -231 19 -276 10z
m-445 -387 c19 -64 19 -72 -1 -137 -32 -108 -135 -178 -247 -168 -32 3 -61 8
-64 11 -7 7 41 89 92 156 46 59 179 190 195 190 5 0 16 -23 25 -52z m1486
-441 c12 -37 19 -70 17 -72 -2 -3 -20 0 -40 6 -104 28 -151 162 -86 245 l22
27 33 -69 c19 -38 43 -100 54 -137z m-1871 -423 c0 -18 -4 -35 -9 -38 -9 -6
-21 39 -21 76 0 17 3 18 15 8 8 -7 15 -27 15 -46z"/>
<path d="M1245 1473 c-28 -45 -30 -55 -33 -165 l-4 -116 -28 -12 c-15 -6 -40
-25 -56 -41 l-28 -29 184 0 184 0 -28 29 c-16 16 -41 35 -57 41 l-29 12 0 110
c0 105 -2 113 -31 164 -17 30 -34 54 -37 54 -4 0 -20 -21 -37 -47z"/>
<path d="M1964 1075 c-51 -35 -55 -127 -7 -165 31 -24 94 -27 128 -4 29 19 48
72 39 108 -11 44 -52 76 -98 76 -23 0 -51 -7 -62 -15z m98 -42 c37 -33 11
-103 -39 -103 -28 0 -63 33 -63 60 0 26 34 60 62 60 12 0 30 -7 40 -17z"/>
<path d="M1220 1050 c0 -31 9 -37 27 -19 8 8 13 -3 18 -40 4 -28 11 -51 15
-51 4 0 11 23 15 51 5 37 10 48 18 40 18 -18 27 -12 27 19 l0 30 -60 0 -60 0
0 -30z"/>
</g>
</svg>
