<?xml version="1.0" standalone="no"?>
<!DOCTYPE svg PUBLIC "-//W3C//DTD SVG 20010904//EN"
 "http://www.w3.org/TR/2001/REC-SVG-20010904/DTD/svg10.dtd">
<svg version="1.0" xmlns="http://www.w3.org/2000/svg"
 width="256.000000pt" height="256.000000pt" viewBox="0 0 256.000000 256.000000"
 preserveAspectRatio="xMidYMid meet">

<g transform="translate(0.000000,256.000000) scale(0.100000,-0.100000)"
fill="#000000" stroke="none">
<path d="M1252 2389 c-188 -31 -381 -144 -503 -292 -74 -92 -146 -242 -169
-357 -19 -89 -20 -141 -20 -838 l0 -743 110 3 109 3 4 750 c4 834 0 788 74
935 52 101 152 202 253 252 117 59 169 68 377 68 l183 0 0 115 0 115 -182 -1
c-101 -1 -207 -5 -236 -10z"/>
<path d="M1782 1290 l3 -1112 105 0 105 0 0 1109 0 1108 -108 3 -107 3 2
-1111z"/>
<path d="M922 1164 c-18 -12 -22 -25 -22 -68 0 -74 16 -86 112 -86 93 0 108
12 108 88 0 67 -20 82 -110 82 -43 0 -73 -5 -88 -16z"/>
</g>
</svg>
