<?xml version="1.0" standalone="no"?>
<!DOCTYPE svg PUBLIC "-//W3C//DTD SVG 20010904//EN"
 "http://www.w3.org/TR/2001/REC-SVG-20010904/DTD/svg10.dtd">
<svg version="1.0" xmlns="http://www.w3.org/2000/svg"
 width="256.000000pt" height="256.000000pt" viewBox="0 0 256.000000 256.000000"
 preserveAspectRatio="xMidYMid meet">

<g transform="translate(0.000000,256.000000) scale(0.100000,-0.100000)"
fill="#000000" stroke="none">
<path d="M1257 2299 c-24 -52 -219 -461 -432 -909 -213 -448 -432 -907 -485
-1020 l-97 -205 534 -3 c294 -1 772 -1 1063 0 l529 3 -526 1105 c-289 608
-529 1109 -533 1114 -5 5 -29 -34 -53 -85z m376 -1200 c175 -366 317 -669 317
-672 0 -4 -291 -7 -646 -7 -561 0 -645 2 -641 15 31 80 642 1344 647 1338 4
-4 149 -308 323 -674z"/>
</g>
</svg>
