<?xml version="1.0" standalone="no"?>
<!DOCTYPE svg PUBLIC "-//W3C//DTD SVG 20010904//EN"
 "http://www.w3.org/TR/2001/REC-SVG-20010904/DTD/svg10.dtd">
<svg version="1.0" xmlns="http://www.w3.org/2000/svg"
 width="256.000000pt" height="256.000000pt" viewBox="0 0 256.000000 256.000000"
 preserveAspectRatio="xMidYMid meet">

<g transform="translate(0.000000,256.000000) scale(0.100000,-0.100000)"
fill="#000000" stroke="none">
<path d="M1543 2373 c-26 -29 -83 -138 -124 -236 l-23 -58 -51 7 c-68 10 -71
10 -145 1 -96 -13 -109 -4 -159 100 -68 140 -119 193 -188 193 -47 0 -89 -48
-149 -170 -77 -156 -102 -221 -134 -343 -16 -60 -31 -112 -34 -115 -3 -3 -14
2 -24 11 -10 10 -22 17 -25 17 -11 0 -8 -136 3 -166 13 -34 11 -36 -30 -24
-19 5 -35 8 -36 7 -2 -2 8 -26 22 -55 14 -29 27 -74 30 -100 5 -44 2 -53 -59
-155 -47 -77 -70 -127 -81 -177 -21 -90 -20 -97 5 -74 20 18 20 18 13 -11 -4
-17 -11 -41 -16 -55 -5 -14 -12 -63 -15 -110 -7 -123 12 -174 140 -369 59 -88
110 -161 116 -161 5 0 12 12 15 26 7 25 7 25 71 -34 72 -66 150 -111 240 -139
81 -25 348 -25 485 0 169 31 197 42 262 107 l58 58 0 -33 c0 -34 18 -85 29
-85 4 0 14 21 23 48 26 73 73 138 120 168 156 100 257 239 273 377 4 31 11 59
15 62 5 3 18 -12 31 -33 l23 -37 7 39 c22 128 -47 346 -168 529 -40 60 -44 72
-38 104 4 23 21 51 45 75 l38 38 -45 0 -45 0 6 33 c15 84 18 118 12 133 -6 16
-8 16 -20 -1 -13 -18 -36 -13 -36 8 0 17 -73 212 -108 288 -44 98 -179 297
-215 320 -45 27 -83 24 -114 -8z m-198 -942 c-8 -25 19 -45 50 -37 23 6 25 4
25 -29 0 -29 -5 -37 -27 -46 -33 -12 -91 -3 -115 18 -40 36 -7 113 48 113 20
0 24 -4 19 -19z m-474 -1 c39 -21 18 -82 -34 -99 -45 -15 -87 0 -87 30 0 16 5
20 20 16 24 -6 44 16 37 43 -4 16 0 20 20 20 13 0 33 -5 44 -10z m114 -154
c-146 -30 -215 -114 -215 -263 0 -35 6 -78 14 -97 15 -36 73 -106 88 -106 17
0 123 91 131 113 7 19 9 18 25 -14 20 -40 103 -93 160 -102 21 -4 56 -2 77 4
54 15 127 91 153 160 l20 54 -26 45 -25 45 47 -45 c26 -25 52 -53 58 -63 12
-23 1 -78 -11 -58 -6 9 -14 -4 -26 -40 -42 -128 -89 -187 -182 -230 l-49 -22
-1 -72 c-1 -82 -15 -119 -56 -149 -40 -29 -133 -27 -206 4 -75 33 -93 74 -90
205 l2 95 -43 56 c-68 90 -84 136 -84 234 0 177 80 259 249 258 l50 0 -60 -12z
m143 -103 c21 -18 25 -32 23 -65 -2 -28 -66 -93 -111 -113 l-40 -18 -46 29
c-100 62 -108 119 -24 162 57 29 167 31 198 5z"/>
<path d="M961 814 c-52 -59 -65 -100 -59 -189 8 -118 54 -175 151 -183 65 -5
109 14 126 55 7 18 11 73 9 148 l-3 120 -55 27 c-30 15 -60 27 -66 27 -26 2
-54 -86 -54 -166 -1 -81 -12 -83 -24 -6 -6 41 -2 56 51 180 2 6 -4 16 -15 22
-18 9 -26 4 -61 -35z"/>
</g>
</svg>
