<?xml version="1.0" standalone="no"?>
<!DOCTYPE svg PUBLIC "-//W3C//DTD SVG 20010904//EN"
 "http://www.w3.org/TR/2001/REC-SVG-20010904/DTD/svg10.dtd">
<svg version="1.0" xmlns="http://www.w3.org/2000/svg"
 width="256.000000pt" height="256.000000pt" viewBox="0 0 256.000000 256.000000"
 preserveAspectRatio="xMidYMid meet">

<g transform="translate(0.000000,256.000000) scale(0.100000,-0.100000)"
fill="#000000" stroke="none">
<path d="M582 2217 l-102 -102 0 -420 0 -420 105 -102 106 -103 414 0 415 0 0
-205 0 -205 -205 0 -205 0 0 100 0 100 -315 0 -315 0 0 -208 0 -207 103 -103
102 -102 630 0 630 0 102 102 103 103 0 418 0 418 -106 105 -106 104 -414 0
-414 0 0 205 0 205 205 0 205 0 0 -100 0 -100 315 0 315 0 0 208 0 207 -103
103 -102 102 -630 0 -630 0 -103 -103z"/>
</g>
</svg>
