<?xml version="1.0" standalone="no"?>
<!DOCTYPE svg PUBLIC "-//W3C//DTD SVG 20010904//EN"
 "http://www.w3.org/TR/2001/REC-SVG-20010904/DTD/svg10.dtd">
<svg version="1.0" xmlns="http://www.w3.org/2000/svg"
 width="256.000000pt" height="256.000000pt" viewBox="0 0 256.000000 256.000000"
 preserveAspectRatio="xMidYMid meet">

<g transform="translate(0.000000,256.000000) scale(0.100000,-0.100000)"
fill="#000000" stroke="none">
<path d="M464 2213 l-175 -184 49 -44 c84 -76 117 -189 88 -303 -16 -65 -75
-189 -148 -312 -83 -140 -118 -262 -118 -414 0 -154 47 -263 165 -382 132
-134 246 -187 436 -203 199 -18 258 -34 390 -107 64 -35 122 -64 128 -64 7 0
65 29 129 64 133 73 192 89 391 107 190 16 304 69 436 203 150 152 192 304
150 541 -14 82 -31 119 -173 386 -34 63 -69 144 -78 179 -29 116 3 228 88 305
l49 44 -175 184 -174 183 -99 -48 c-150 -73 -324 -108 -543 -108 -219 0 -393
35 -543 108 l-99 48 -174 -183z m238 56 c122 -62 244 -92 445 -109 142 -12
337 -2 463 24 36 8 66 13 67 12 4 -3 -1303 -856 -1312 -856 -3 0 2 15 13 33
40 65 110 213 126 266 34 115 15 246 -49 341 -19 29 -35 54 -35 57 0 6 231
253 237 253 2 0 22 -10 45 -21z m1318 -1103 l0 -654 -51 -22 c-29 -12 -76 -24
-105 -27 l-54 -6 2 619 3 619 95 63 c52 34 98 62 102 62 5 0 8 -294 8 -654z
m-410 -170 l0 -564 -43 -6 c-23 -4 -66 -18 -96 -31 -29 -14 -55 -25 -57 -25
-2 0 -4 240 -4 533 l0 534 93 61 c50 33 95 61 100 61 4 1 7 -253 7 -563z
m-413 -652 c-1 -1 -38 15 -81 37 -43 21 -86 39 -95 39 -40 0 -41 12 -41 375 0
192 4 355 8 361 4 6 52 41 107 77 l100 65 3 -475 c1 -262 1 -477 -1 -479z
m1104 761 c6 -33 9 -109 7 -170 -4 -100 -7 -116 -36 -172 -17 -34 -36 -64 -42
-68 -7 -4 -10 94 -9 302 l1 308 34 -70 c18 -38 39 -97 45 -130z m-1531 -365
l0 -280 -43 0 c-24 0 -67 7 -95 15 l-52 16 0 205 0 205 93 59 c50 33 93 60 95
60 1 0 2 -126 2 -280z m-400 -35 c0 -30 -2 -55 -4 -55 -3 0 -17 16 -32 36
l-28 36 25 19 c13 10 27 19 32 19 4 0 7 -25 7 -55z"/>
<path d="M700 2154 c-88 -38 -149 -141 -136 -230 16 -122 103 -198 226 -199
78 0 142 32 182 92 33 50 40 74 40 133 -1 127 -95 220 -222 219 -30 0 -71 -7
-90 -15z m165 -23 c50 -23 101 -79 116 -130 26 -86 -20 -190 -103 -232 -62
-32 -154 -24 -205 17 -54 44 -83 99 -83 158 0 147 146 246 275 187z"/>
</g>
</svg>
