<?xml version="1.0" standalone="no"?>
<!DOCTYPE svg PUBLIC "-//W3C//DTD SVG 20010904//EN"
 "http://www.w3.org/TR/2001/REC-SVG-20010904/DTD/svg10.dtd">
<svg version="1.0" xmlns="http://www.w3.org/2000/svg"
 width="256.000000pt" height="256.000000pt" viewBox="0 0 256.000000 256.000000"
 preserveAspectRatio="xMidYMid meet">

<g transform="translate(0.000000,256.000000) scale(0.100000,-0.100000)"
fill="#000000" stroke="none">
<path d="M1078 2465 c-711 -116 -1158 -841 -942 -1527 114 -361 394 -648 752
-769 169 -58 192 -59 924 -59 l669 0 -4 672 c-3 641 -4 677 -24 758 -57 230
-155 410 -312 573 -171 178 -359 285 -591 338 -114 27 -353 34 -472 14z m380
-480 c201 -48 376 -187 472 -377 70 -140 75 -180 75 -628 l0 -395 -385 -3
c-447 -3 -489 2 -635 73 -187 91 -313 239 -374 439 -115 374 118 785 501 886
91 24 257 26 346 5z"/>
</g>
</svg>
