<?xml version="1.0" standalone="no"?>
<!DOCTYPE svg PUBLIC "-//W3C//DTD SVG 20010904//EN"
 "http://www.w3.org/TR/2001/REC-SVG-20010904/DTD/svg10.dtd">
<svg version="1.0" xmlns="http://www.w3.org/2000/svg"
 width="256.000000pt" height="256.000000pt" viewBox="0 0 256.000000 256.000000"
 preserveAspectRatio="xMidYMid meet">

<g transform="translate(0.000000,256.000000) scale(0.100000,-0.100000)"
fill="#000000" stroke="none">
<path d="M1045 2469 c-220 -28 -434 -129 -549 -261 -53 -61 -110 -169 -131
-253 -21 -80 -21 -261 0 -339 26 -99 83 -193 161 -271 126 -123 274 -202 646
-345 240 -93 356 -151 424 -213 76 -69 98 -115 99 -202 0 -127 -73 -230 -210
-295 -89 -42 -145 -53 -285 -53 -261 1 -450 80 -685 288 -91 81 -105 88 -142
74 -35 -13 -52 -37 -53 -74 0 -61 253 -268 421 -344 309 -139 704 -132 1027
19 380 178 530 535 366 869 -89 180 -280 310 -684 466 -248 95 -358 145 -439
199 -116 77 -175 161 -188 265 -15 130 97 260 270 313 61 18 85 20 191 15 258
-13 440 -94 656 -292 92 -84 122 -94 165 -50 50 49 27 92 -114 208 -196 163
-358 240 -568 272 -106 16 -267 18 -378 4z m-347 -310 c-18 -52 -22 -86 -23
-184 0 -113 2 -123 28 -173 81 -154 234 -249 657 -407 416 -155 565 -249 646
-406 23 -45 28 -70 32 -150 6 -136 -27 -236 -111 -341 -32 -41 -123 -118 -138
-118 -4 0 4 26 19 57 22 49 27 75 30 165 3 79 0 119 -11 152 -50 147 -189 244
-522 366 -425 155 -550 217 -667 331 -97 94 -148 214 -148 343 1 105 62 279
123 346 29 32 100 91 104 86 2 -2 -6 -32 -19 -67z"/>
</g>
</svg>
