<?xml version="1.0" standalone="no"?>
<!DOCTYPE svg PUBLIC "-//W3C//DTD SVG 20010904//EN"
 "http://www.w3.org/TR/2001/REC-SVG-20010904/DTD/svg10.dtd">
<svg version="1.0" xmlns="http://www.w3.org/2000/svg"
 width="256.000000pt" height="256.000000pt" viewBox="0 0 256.000000 256.000000"
 preserveAspectRatio="xMidYMid meet">

<g transform="translate(0.000000,256.000000) scale(0.100000,-0.100000)"
fill="#000000" stroke="none">
<path d="M1092 2384 c-467 -78 -840 -455 -917 -925 -122 -752 532 -1406 1284
-1284 475 77 849 451 926 926 48 301 -29 610 -213 855 -249 330 -670 497
-1080 428z m583 -462 c96 -56 264 -219 313 -304 52 -88 99 -205 118 -293 23
-108 23 -305 0 -400 -24 -100 -95 -239 -163 -319 -107 -127 -280 -237 -428
-272 -136 -32 -325 -3 -414 63 -86 63 -121 136 -121 253 1 148 46 227 272 471
199 215 258 300 300 427 45 138 20 315 -58 418 -19 24 -34 46 -34 49 0 12 142
-50 215 -93z"/>
</g>
</svg>
