<?xml version="1.0" standalone="no"?>
<!DOCTYPE svg PUBLIC "-//W3C//DTD SVG 20010904//EN"
 "http://www.w3.org/TR/2001/REC-SVG-20010904/DTD/svg10.dtd">
<svg version="1.0" xmlns="http://www.w3.org/2000/svg"
 width="256.000000pt" height="256.000000pt" viewBox="0 0 256.000000 256.000000"
 preserveAspectRatio="xMidYMid meet">

<g transform="translate(0.000000,256.000000) scale(0.100000,-0.100000)"
fill="#000000" stroke="none">
<path d="M1702 2445 c-368 -94 -632 -217 -831 -387 -188 -162 -279 -341 -269
-533 4 -67 10 -93 41 -157 48 -98 136 -209 218 -273 59 -46 62 -47 36 -15 -83
102 -124 163 -161 240 -40 84 -41 87 -41 195 0 106 1 112 37 185 114 233 461
492 817 610 114 38 328 90 370 90 11 0 21 4 21 10 0 10 -83 70 -97 70 -4 -1
-68 -16 -141 -35z"/>
<path d="M1835 2321 c-211 -54 -451 -147 -607 -234 -220 -123 -430 -337 -473
-481 -15 -50 -19 -190 -6 -234 5 -18 9 -7 19 45 37 195 205 390 475 551 201
119 474 217 839 299 l38 8 -46 38 c-58 46 -86 47 -239 8z"/>
<path d="M2025 2184 c-455 -98 -814 -272 -1043 -504 -87 -87 -148 -180 -162
-247 -12 -56 0 -156 25 -203 14 -24 14 -23 15 25 1 71 26 172 57 225 97 165
424 390 705 484 112 37 300 86 408 107 36 6 73 16 83 21 14 7 67 96 67 113 0
9 -43 4 -155 -21z"/>
<path d="M1950 1995 c-326 -60 -685 -239 -890 -445 -143 -143 -186 -260 -145
-396 l19 -59 8 60 c23 178 100 284 298 416 223 148 411 234 628 289 85 22 156
41 157 42 5 9 35 57 50 81 l17 27 -33 -1 c-19 0 -68 -7 -109 -14z"/>
<path d="M1613 1480 c83 -102 124 -163 161 -240 40 -84 41 -87 41 -195 0 -106
-1 -112 -37 -185 -113 -233 -461 -492 -817 -610 -114 -38 -328 -90 -370 -90
-33 0 -25 -16 24 -50 l45 -31 108 26 c296 71 547 171 727 290 288 192 425 404
413 640 -4 67 -10 93 -41 157 -48 98 -136 209 -218 273 -59 46 -62 47 -36 15z"/>
<path d="M1571 1433 c-4 -168 -103 -314 -301 -444 -225 -148 -416 -236 -629
-290 -85 -21 -158 -44 -163 -51 -4 -7 -19 -33 -34 -57 l-27 -44 68 8 c408 43
944 343 1085 605 32 60 35 72 34 150 0 56 -6 97 -16 120 l-16 35 -1 -32z"/>
<path d="M1650 1314 c-2 -223 -124 -377 -456 -574 -186 -110 -361 -174 -644
-235 -69 -14 -135 -30 -147 -35 -22 -9 -79 -107 -69 -117 8 -8 208 33 354 73
510 140 955 458 1007 721 7 37 -11 147 -30 183 -14 25 -14 24 -15 -16z"/>
<path d="M1742 1143 c-37 -195 -205 -390 -475 -551 -180 -107 -386 -185 -690
-261 l-188 -48 48 -37 c46 -36 50 -38 106 -32 176 18 548 150 753 267 107 62
273 197 345 282 33 40 74 101 92 136 26 54 32 78 35 155 2 50 0 106 -5 124 -8
32 -9 30 -21 -35z"/>
</g>
</svg>
