<?xml version="1.0" standalone="no"?>
<!DOCTYPE svg PUBLIC "-//W3C//DTD SVG 20010904//EN"
 "http://www.w3.org/TR/2001/REC-SVG-20010904/DTD/svg10.dtd">
<svg version="1.0" xmlns="http://www.w3.org/2000/svg"
 width="256.000000pt" height="256.000000pt" viewBox="0 0 256.000000 256.000000"
 preserveAspectRatio="xMidYMid meet">

<g transform="translate(0.000000,256.000000) scale(0.100000,-0.100000)"
fill="#000000" stroke="none">
<path d="M1073 2470 c-195 -28 -316 -82 -455 -205 -155 -137 -245 -259 -282
-384 -21 -70 -21 -215 0 -294 54 -211 262 -444 519 -583 180 -97 351 -228 385
-293 17 -35 51 -171 44 -180 -2 -2 -29 19 -61 47 -114 98 -217 163 -411 257
-300 147 -445 252 -543 396 -44 65 -149 275 -149 299 0 9 -3 10 -9 5 -5 -6
-15 -57 -22 -115 -15 -135 -6 -320 20 -423 66 -254 346 -638 526 -723 143 -67
250 -109 335 -132 88 -24 111 -26 305 -26 197 0 216 2 310 27 324 87 643 350
717 591 17 57 20 84 15 155 -13 183 -87 370 -186 471 -35 35 -150 119 -301
220 -135 89 -231 159 -215 156 130 -31 390 -155 500 -238 130 -98 226 -251
295 -467 42 -130 41 -131 60 49 30 290 -3 523 -100 708 -95 181 -202 320 -331
432 -206 177 -407 246 -744 255 -88 2 -188 0 -222 -5z m534 -124 c131 -24 158
-34 205 -76 63 -55 79 -101 85 -241 8 -153 -2 -229 -28 -229 -26 0 -86 64
-128 136 -19 33 -48 83 -65 112 -38 65 -99 128 -149 153 -101 52 -291 48 -371
-8 -85 -59 -135 -177 -123 -289 9 -86 42 -148 117 -217 66 -61 119 -95 432
-281 170 -101 304 -200 363 -268 86 -98 118 -231 92 -378 -42 -236 -151 -379
-372 -484 -161 -78 -306 -100 -536 -84 -118 8 -134 11 -221 50 -144 64 -229
119 -255 165 -73 128 -68 433 5 433 13 0 55 -55 132 -171 127 -190 181 -247
294 -303 229 -115 419 -75 487 102 29 76 31 224 3 297 -17 43 -32 59 -109 118
-196 147 -473 330 -593 391 -151 77 -222 220 -222 451 0 120 27 258 65 339 32
68 126 172 195 216 62 40 152 69 250 80 103 12 348 4 447 -14z"/>
</g>
</svg>
