<?xml version="1.0" standalone="no"?>
<!DOCTYPE svg PUBLIC "-//W3C//DTD SVG 20010904//EN"
 "http://www.w3.org/TR/2001/REC-SVG-20010904/DTD/svg10.dtd">
<svg version="1.0" xmlns="http://www.w3.org/2000/svg"
 width="256.000000pt" height="256.000000pt" viewBox="0 0 256.000000 256.000000"
 preserveAspectRatio="xMidYMid meet">

<g transform="translate(0.000000,256.000000) scale(0.100000,-0.100000)"
fill="#000000" stroke="none">
<path d="M1220 2460 c-30 -10 -94 -31 -142 -46 l-88 -26 0 -1094 0 -1093 30
-16 c36 -19 230 -95 242 -95 4 0 9 255 10 568 l3 567 148 3 147 3 0 134 0 134
-147 3 -148 3 -3 329 c-1 187 2 334 7 339 5 5 64 -8 144 -32 75 -23 138 -41
141 -41 3 0 6 66 6 148 l0 148 -142 42 c-79 24 -145 42 -148 42 -3 -1 -30 -10
-60 -20z"/>
<path d="M1660 1488 l0 -880 48 27 c61 36 141 95 192 143 l40 39 0 206 0 207
200 0 200 0 0 464 0 464 -47 16 c-27 8 -160 49 -298 91 -137 42 -269 82 -292
90 l-43 14 0 -881z m347 475 l53 -17 -2 -220 -3 -221 -57 -3 -58 -3 0 241 c0
132 3 240 7 240 3 0 30 -8 60 -17z"/>
<path d="M635 2280 c-137 -43 -283 -88 -322 -99 l-73 -22 0 -464 0 -465 190 0
190 0 0 -242 -1 -243 -34 38 c-47 54 -65 114 -65 219 l0 88 -140 0 -140 0 0
-103 c0 -59 6 -127 15 -160 42 -162 165 -312 370 -449 75 -51 253 -148 270
-148 3 0 5 286 5 635 l0 635 -190 0 -190 0 0 223 0 223 108 33 c59 18 144 44
190 58 l82 25 0 149 c0 82 -3 148 -7 148 -5 -1 -120 -36 -258 -79z"/>
<path d="M2058 978 c-3 -94 -8 -121 -27 -158 -35 -66 -134 -164 -236 -232 -92
-62 -289 -162 -382 -194 l-53 -19 0 -147 0 -148 103 36 c146 51 374 164 492
241 117 78 255 212 304 297 59 100 74 156 79 304 l4 132 -140 0 -140 0 -4
-112z"/>
</g>
</svg>
