<?xml version="1.0" standalone="no"?>
<!DOCTYPE svg PUBLIC "-//W3C//DTD SVG 20010904//EN"
 "http://www.w3.org/TR/2001/REC-SVG-20010904/DTD/svg10.dtd">
<svg version="1.0" xmlns="http://www.w3.org/2000/svg"
 width="256.000000pt" height="256.000000pt" viewBox="0 0 256.000000 256.000000"
 preserveAspectRatio="xMidYMid meet">

<g transform="translate(0.000000,256.000000) scale(0.100000,-0.100000)"
fill="#000000" stroke="none">
<path d="M1058 2238 c-129 -134 -267 -278 -306 -320 -244 -267 -299 -418 -258
-711 9 -65 26 -142 37 -170 42 -114 168 -246 313 -331 53 -31 66 -44 71 -69
32 -158 140 -362 267 -500 l53 -59 200 195 c191 185 363 369 438 467 186 245
218 589 76 825 -43 72 -172 203 -272 275 -60 43 -76 60 -76 81 -2 47 -41 182
-65 224 -21 36 -215 306 -236 328 -4 5 -113 -101 -242 -235z m278 -186 c68
-152 77 -313 25 -434 -10 -24 -70 -111 -132 -193 -131 -173 -196 -274 -259
-403 -24 -51 -49 -92 -56 -92 -18 0 -98 65 -128 104 -83 109 -116 284 -81 421
28 107 54 139 389 488 213 223 194 215 242 109z m336 -482 c66 -59 108 -121
144 -215 22 -57 27 -87 28 -165 1 -114 -15 -156 -101 -264 -75 -95 -491 -508
-504 -501 -15 10 -85 155 -109 226 -26 76 -22 147 15 244 30 80 62 131 145
230 87 103 163 218 246 372 36 68 69 123 73 123 4 0 32 -22 63 -50z"/>
</g>
</svg>
