<?xml version="1.0" standalone="no"?>
<!DOCTYPE svg PUBLIC "-//W3C//DTD SVG 20010904//EN"
 "http://www.w3.org/TR/2001/REC-SVG-20010904/DTD/svg10.dtd">
<svg version="1.0" xmlns="http://www.w3.org/2000/svg"
 width="256.000000pt" height="256.000000pt" viewBox="0 0 256.000000 256.000000"
 preserveAspectRatio="xMidYMid meet">

<g transform="translate(0.000000,256.000000) scale(0.100000,-0.100000)"
fill="#000000" stroke="none">
<path d="M161 2454 c-34 -43 -43 -91 -48 -244 -7 -221 34 -491 111 -724 l33
-98 -43 -102 c-71 -168 -112 -333 -129 -516 l-7 -75 149 0 c129 0 156 -3 213
-24 86 -30 168 -81 241 -148 33 -31 61 -54 62 -52 2 2 12 24 22 49 39 92 115
208 166 254 187 168 460 164 648 -9 61 -57 103 -127 141 -232 13 -35 25 -63
28 -63 2 0 31 25 63 55 72 66 160 116 259 146 63 20 96 23 206 23 l131 -1 -4
71 c-12 192 -57 375 -130 528 l-46 97 31 108 c133 462 163 769 92 931 l-20 45
-50 -5 c-102 -10 -279 -122 -399 -254 -30 -32 -84 -96 -120 -142 -53 -68 -69
-82 -86 -77 -280 83 -534 93 -751 29 -136 -40 -122 -43 -184 32 -91 111 -281
298 -349 344 -70 47 -147 80 -185 80 -15 0 -33 -11 -45 -26z m186 -210 c62
-36 178 -132 261 -217 l74 -74 -59 -46 c-79 -60 -208 -198 -263 -280 -25 -36
-48 -67 -52 -67 -8 0 -40 105 -73 240 -49 206 -55 372 -16 473 l11 27 37 -15
c21 -9 57 -27 80 -41z m1902 30 c34 -76 33 -261 -4 -423 -28 -120 -77 -291
-84 -291 -4 0 -29 32 -56 71 -62 91 -175 211 -254 269 -33 25 -60 48 -61 51 0
12 216 216 265 249 49 34 165 99 176 100 3 0 11 -12 18 -26z m-1457 -790 c46
-32 82 -101 72 -139 -11 -43 -46 -58 -146 -63 -82 -4 -91 -3 -114 18 -48 46
-23 147 48 190 46 28 94 25 140 -6z m1032 3 c51 -29 79 -79 72 -132 -8 -66
-33 -78 -143 -73 -115 6 -143 21 -143 77 0 69 78 151 144 151 17 0 49 -10 70
-23z m-1103 -339 c167 -87 282 -188 265 -233 -8 -22 -106 -19 -199 4 -92 24
-178 63 -223 103 -32 28 -34 34 -34 90 0 32 5 68 11 80 16 29 63 18 180 -44z
m1244 52 c13 -22 17 -111 6 -138 -28 -67 -214 -149 -363 -159 -64 -5 -79 -3
-83 10 -15 38 47 108 162 181 141 91 260 136 278 106z"/>
<path d="M1125 685 c-20 -19 -25 -34 -25 -76 0 -86 28 -126 129 -184 30 -18
34 -25 34 -61 0 -28 -7 -49 -24 -68 l-24 -28 -125 7 c-123 7 -124 6 -107 -12
9 -11 17 -29 17 -41 0 -11 7 -25 17 -30 9 -5 23 -29 32 -53 9 -23 21 -42 26
-41 6 1 11 30 13 64 l3 63 189 0 190 0 0 -52 c0 -88 20 -110 40 -45 7 20 23
47 36 60 13 13 24 28 24 35 0 7 3 23 7 35 l6 24 -110 -7 c-110 -7 -110 -7
-136 19 -35 35 -39 111 -7 121 30 9 79 53 95 86 9 16 18 55 21 87 6 53 4 60
-21 90 l-27 32 -124 0 c-119 0 -126 -1 -149 -25z"/>
<path d="M1160 176 c0 -20 28 -28 51 -13 20 12 22 12 49 -33 7 -13 12 -11 33
9 18 16 31 21 47 16 21 -7 39 6 40 28 0 4 -49 7 -110 7 -87 0 -110 -3 -110
-14z"/>
</g>
</svg>
