<?xml version="1.0" standalone="no"?>
<!DOCTYPE svg PUBLIC "-//W3C//DTD SVG 20010904//EN"
 "http://www.w3.org/TR/2001/REC-SVG-20010904/DTD/svg10.dtd">
<svg version="1.0" xmlns="http://www.w3.org/2000/svg"
 width="256.000000pt" height="256.000000pt" viewBox="0 0 256.000000 256.000000"
 preserveAspectRatio="xMidYMid meet">

<g transform="translate(0.000000,256.000000) scale(0.100000,-0.100000)"
fill="#000000" stroke="none">
<path d="M1030 2399 c-319 -145 -524 -252 -537 -279 -10 -19 -13 -213 -13
-838 0 -700 2 -817 15 -842 16 -32 -2 -22 439 -225 275 -127 302 -137 342
-131 73 10 712 310 738 347 14 21 16 68 16 426 l0 402 -27 26 c-24 24 -542
269 -691 327 l-52 21 -63 -21 c-90 -30 -294 -131 -302 -149 -9 -25 9 -37 140
-96 l120 -54 49 24 c62 31 57 33 326 -95 153 -73 208 -103 217 -122 9 -18 13
-94 13 -277 0 -241 -1 -253 -20 -271 -11 -10 -124 -65 -250 -121 l-230 -103
-48 17 c-26 9 -139 60 -252 113 l-205 97 -3 293 c-2 286 -2 293 17 287 11 -3
119 -51 241 -105 122 -55 235 -100 251 -100 45 0 359 149 359 170 0 12 -38 35
-131 79 l-130 62 -40 -20 c-22 -12 -52 -21 -67 -21 -14 0 -130 48 -255 107
-179 84 -231 112 -238 131 -15 38 -11 505 4 524 15 19 463 228 489 228 23 0
486 -209 496 -224 4 -6 9 -90 12 -186 l5 -175 75 -37 c41 -21 94 -45 117 -54
74 -29 73 -32 73 286 0 271 -1 278 -22 310 -20 29 -71 56 -367 192 -288 132
-352 158 -390 158 -36 -1 -86 -19 -221 -81z"/>
<path d="M830 829 l0 -220 207 -100 207 -100 213 102 213 103 0 219 c0 204 -1
219 -17 214 -10 -2 -105 -41 -212 -86 -164 -70 -197 -81 -220 -73 -14 6 -104
44 -200 86 -96 42 -178 76 -183 76 -4 0 -8 -99 -8 -221z"/>
</g>
</svg>
