<?xml version="1.0" standalone="no"?>
<!DOCTYPE svg PUBLIC "-//W3C//DTD SVG 20010904//EN"
 "http://www.w3.org/TR/2001/REC-SVG-20010904/DTD/svg10.dtd">
<svg version="1.0" xmlns="http://www.w3.org/2000/svg"
 width="256.000000pt" height="256.000000pt" viewBox="0 0 256.000000 256.000000"
 preserveAspectRatio="xMidYMid meet">

<g transform="translate(0.000000,256.000000) scale(0.100000,-0.100000)"
fill="#000000" stroke="none">
<path d="M84 1573 c3 -412 9 -890 12 -1064 l6 -317 462 -6 c253 -3 675 -7 936
-8 l475 -3 3 123 3 122 -806 0 -805 0 0 825 0 825 805 0 805 0 0 125 0 125
-951 0 -952 0 7 -747z"/>
<path d="M1795 1904 c-133 -30 -239 -105 -292 -206 -22 -44 -27 -69 -31 -148
-3 -80 0 -104 18 -154 50 -131 160 -193 422 -236 154 -25 191 -37 235 -75 31
-27 37 -38 40 -86 6 -68 -21 -113 -87 -147 -40 -21 -56 -23 -140 -20 -106 5
-169 29 -224 87 -36 37 -112 68 -192 76 -69 7 -107 -8 -112 -44 -10 -67 129
-251 221 -291 178 -79 505 -70 646 18 135 83 211 283 166 437 -19 66 -61 134
-99 158 -46 31 -170 74 -316 112 -242 62 -320 104 -320 171 0 71 83 119 205
119 90 -1 138 -18 194 -70 63 -58 79 -65 168 -71 101 -7 137 3 141 40 9 73
-110 224 -218 278 -119 59 -297 81 -425 52z"/>
</g>
</svg>
