<?xml version="1.0" standalone="no"?>
<!DOCTYPE svg PUBLIC "-//W3C//DTD SVG 20010904//EN"
 "http://www.w3.org/TR/2001/REC-SVG-20010904/DTD/svg10.dtd">
<svg version="1.0" xmlns="http://www.w3.org/2000/svg"
 width="256.000000pt" height="256.000000pt" viewBox="0 0 256.000000 256.000000"
 preserveAspectRatio="xMidYMid meet">

<g transform="translate(0.000000,256.000000) scale(0.100000,-0.100000)"
fill="#000000" stroke="none">
<path d="M223 2145 c-36 -15 -95 -100 -125 -178 -17 -44 -18 -93 -18 -670 0
-531 2 -632 16 -682 30 -117 92 -185 152 -170 89 22 745 526 1422 1090 270
226 340 275 387 275 73 0 114 -59 139 -202 20 -117 32 -677 15 -721 -7 -17
-24 -34 -47 -43 -31 -13 -42 -13 -97 1 -114 29 -329 163 -456 285 -35 33 -65
60 -68 60 -11 0 -143 -102 -143 -110 0 -11 189 -187 300 -280 133 -111 235
-176 365 -231 148 -64 231 -75 289 -40 43 27 90 117 108 211 19 98 16 628 -5
860 -38 407 -54 480 -116 533 -61 51 -98 37 -293 -109 -168 -127 -1063 -815
-1323 -1018 -239 -187 -278 -206 -345 -171 -56 29 -64 60 -68 265 -5 207 13
608 29 657 21 66 87 90 152 57 57 -30 147 -104 163 -136 15 -29 15 -32 -3 -57
-11 -14 -66 -58 -124 -98 -57 -40 -112 -78 -122 -85 -16 -11 -18 -27 -15 -124
l3 -112 200 174 c110 96 205 177 212 180 6 3 54 -24 105 -60 l93 -66 67 67
c37 37 64 70 60 74 -4 3 -160 113 -347 244 -187 131 -363 255 -391 276 -46 35
-112 70 -131 69 -4 -1 -23 -7 -40 -15z"/>
</g>
</svg>
