<?xml version="1.0" standalone="no"?>
<!DOCTYPE svg PUBLIC "-//W3C//DTD SVG 20010904//EN"
 "http://www.w3.org/TR/2001/REC-SVG-20010904/DTD/svg10.dtd">
<svg version="1.0" xmlns="http://www.w3.org/2000/svg"
 width="256.000000pt" height="256.000000pt" viewBox="0 0 256.000000 256.000000"
 preserveAspectRatio="xMidYMid meet">

<g transform="translate(0.000000,256.000000) scale(0.100000,-0.100000)"
fill="#000000" stroke="none">
<path d="M1227 1922 l-46 -68 -103 -16 c-200 -32 -396 -104 -597 -219 -121
-68 -263 -167 -336 -234 l-50 -45 121 59 c160 79 330 150 492 205 140 48 349
102 358 93 3 -3 -11 -27 -30 -55 -20 -27 -36 -54 -36 -59 0 -5 17 -26 38 -46
l38 -37 74 110 74 110 53 0 53 0 43 -67 c24 -38 56 -88 71 -112 l28 -43 43 42
44 43 -40 58 c-22 33 -36 59 -32 59 5 0 62 -13 128 -30 216 -53 460 -143 703
-260 79 -38 142 -66 140 -61 -6 18 -117 105 -217 173 -170 113 -392 218 -577
271 -76 22 -245 57 -275 57 -5 0 -30 32 -55 70 -26 39 -50 70 -54 70 -3 0 -27
-31 -53 -68z"/>
<path d="M892 1410 c-12 -23 -22 -49 -22 -58 0 -10 47 -98 105 -197 66 -114
100 -181 92 -183 -7 -1 -74 13 -148 32 -214 55 -470 153 -713 272 l-111 55 45
-41 c118 -107 341 -249 513 -326 161 -73 295 -112 474 -139 41 -6 44 -10 94
-96 28 -49 55 -89 59 -89 4 0 29 40 54 90 44 84 49 90 84 95 293 47 572 157
822 323 104 69 218 160 219 175 1 4 -39 -13 -88 -38 -149 -74 -367 -164 -536
-220 -165 -55 -351 -102 -362 -92 -3 3 38 88 91 188 53 100 96 186 96 191 0
16 -52 99 -58 93 -3 -3 -65 -114 -138 -248 l-132 -242 -54 -3 -53 -3 -142 233
c-185 303 -164 278 -191 228z"/>
</g>
</svg>
