<?xml version="1.0" standalone="no"?>
<!DOCTYPE svg PUBLIC "-//W3C//DTD SVG 20010904//EN"
 "http://www.w3.org/TR/2001/REC-SVG-20010904/DTD/svg10.dtd">
<svg version="1.0" xmlns="http://www.w3.org/2000/svg"
 width="256.000000pt" height="256.000000pt" viewBox="0 0 256.000000 256.000000"
 preserveAspectRatio="xMidYMid meet">

<g transform="translate(0.000000,256.000000) scale(0.100000,-0.100000)"
fill="#000000" stroke="none">
<path d="M1340 2377 c0 -22 -5 -25 -59 -31 -229 -26 -471 -146 -642 -318 -519
-522 -382 -1403 271 -1742 192 -100 432 -146 624 -120 l46 7 0 102 0 102 51
11 c253 59 490 255 600 497 59 131 74 205 74 370 0 172 -14 240 -75 372 -50
108 -88 163 -174 251 -142 146 -305 231 -518 267 l-38 6 0 -216 0 -215 -83 0
c-139 0 -244 -46 -339 -149 -60 -64 -92 -122 -114 -204 -33 -123 -3 -287 70
-382 14 -19 31 -4 396 360 326 326 382 378 397 369 32 -20 109 -123 142 -191
84 -170 79 -384 -11 -556 -40 -76 -162 -202 -239 -245 -30 -17 -92 -42 -137
-54 l-82 -23 0 -177 0 -178 -92 0 c-360 1 -695 210 -857 536 -78 156 -107 301
-98 482 21 440 334 805 770 897 99 21 115 20 119 -10 3 -25 4 -25 93 30 50 30
91 59 93 63 1 5 -21 21 -50 37 -29 15 -72 39 -95 52 l-43 25 0 -25z"/>
<path d="M1240 2134 c-349 -74 -610 -330 -697 -680 -23 -94 -23 -304 0 -397
93 -376 398 -645 785 -691 l52 -7 0 208 0 209 88 11 c210 29 372 174 413 371
23 112 -4 262 -63 345 l-21 29 -376 -376 c-207 -207 -381 -376 -388 -376 -21
0 -121 120 -156 188 -55 105 -71 172 -70 292 0 85 5 120 26 185 69 209 247
368 465 413 l82 17 0 137 0 138 -37 -1 c-21 0 -67 -7 -103 -15z"/>
</g>
</svg>
