<?xml version="1.0" standalone="no"?>
<!DOCTYPE svg PUBLIC "-//W3C//DTD SVG 20010904//EN"
 "http://www.w3.org/TR/2001/REC-SVG-20010904/DTD/svg10.dtd">
<svg version="1.0" xmlns="http://www.w3.org/2000/svg"
 width="256.000000pt" height="256.000000pt" viewBox="0 0 256.000000 256.000000"
 preserveAspectRatio="xMidYMid meet">

<g transform="translate(0.000000,256.000000) scale(0.100000,-0.100000)"
fill="#000000" stroke="none">
<path d="M1092 2384 c-556 -93 -959 -596 -929 -1159 15 -270 120 -513 308
-709 221 -232 490 -346 814 -346 317 0 587 117 808 350 457 482 394 1252 -136
1651 -247 186 -563 264 -865 213z m39 -181 c-26 -27 -50 -55 -53 -63 -3 -11
-14 -4 -37 23 -18 20 -40 37 -50 37 -50 1 105 47 166 49 20 1 16 -6 -26 -46z
m346 33 c106 -23 108 -24 71 -50 -18 -12 -38 -32 -44 -45 l-12 -24 -16 31 c-8
16 -34 46 -58 66 -47 41 -41 43 59 22z m-129 -86 c85 -52 77 -182 -15 -225
-47 -22 -95 -13 -139 28 -84 78 -29 217 86 217 19 0 50 -9 68 -20z m-497 -18
c-16 -29 -14 -53 8 -95 l19 -37 -57 0 c-90 0 -182 -32 -281 -96 -14 -9 16 24
66 73 57 57 119 107 169 136 43 26 81 45 83 43 2 -3 -1 -13 -7 -24z m931 -15
c85 -53 188 -138 229 -190 l32 -40 -54 37 c-71 48 -163 76 -252 76 l-70 0 21
23 c27 29 36 70 24 107 -6 16 -8 30 -4 29 4 0 37 -19 74 -42z m-798 7 c30 -30
13 -74 -29 -74 -43 0 -58 39 -28 72 20 22 37 23 57 2z m650 0 c30 -30 13 -74
-29 -74 -12 0 -26 5 -33 12 -7 7 -12 21 -12 33 0 42 44 59 74 29z m-574 -120
c0 -14 5 -34 11 -46 16 -30 6 -31 -45 -6 -45 22 -59 38 -33 38 8 0 22 9 32 20
24 27 35 25 35 -6z m471 10 c7 -9 22 -19 33 -23 16 -7 10 -13 -37 -38 -61 -33
-64 -32 -42 7 8 14 14 35 15 48 0 26 12 28 31 6z m-564 -159 c70 -32 133 -93
169 -162 26 -51 29 -68 29 -148 0 -71 -5 -100 -22 -137 -30 -66 -105 -143
-172 -175 -49 -24 -68 -28 -146 -28 -80 0 -97 3 -148 29 -71 36 -130 99 -165
174 -38 81 -38 193 0 274 28 61 96 136 147 162 96 50 213 54 308 11z m898 4
c71 -26 147 -100 183 -176 38 -83 38 -193 -2 -279 -33 -73 -91 -132 -166 -171
-48 -25 -66 -28 -145 -28 -78 0 -97 4 -146 28 -67 32 -142 109 -172 175 -17
37 -22 66 -22 137 0 80 3 97 29 148 84 165 263 233 441 166z m-605 -36 c25 -3
62 0 83 5 l37 10 -20 -28 c-19 -26 -56 -104 -75 -155 -6 -16 -10 -12 -21 25
-7 25 -29 71 -48 104 -26 42 -31 56 -18 51 9 -4 37 -10 62 -12z m980 -351 c12
-59 20 -138 20 -194 l0 -93 -25 32 c-28 35 -83 58 -115 48 -26 -8 -25 -2 5 43
42 64 65 147 66 241 1 82 1 85 14 55 8 -18 23 -77 35 -132z m-1846 -82 c9 -25
28 -62 41 -82 14 -21 25 -40 25 -43 0 -3 -18 -5 -41 -5 -33 0 -47 -6 -74 -33
l-33 -33 -6 47 c-6 41 7 207 19 249 2 8 12 42 22 75 l18 60 6 -95 c4 -52 14
-115 23 -140z m896 40 c0 -32 47 -125 91 -179 l50 -63 -33 9 c-43 10 -192 10
-240 0 l-37 -9 40 43 c39 42 109 168 109 195 0 8 5 14 10 14 6 0 10 -4 10 -10z
m-835 -250 c17 -18 17 -21 1 -45 -27 -40 -76 -28 -76 20 0 44 44 59 75 25z
m1713 8 c17 -17 15 -53 -3 -68 -20 -17 -62 -5 -70 21 -13 40 44 76 73 47z
m-1565 -45 c15 -8 10 -11 -27 -20 l-46 -10 0 39 0 39 28 -19 c15 -10 35 -23
45 -29z m1427 8 l0 -38 -45 10 -44 10 42 28 c23 15 43 28 45 28 1 1 2 -16 2
-38z m-1090 -88 c-23 -27 -55 -73 -71 -103 -17 -35 -28 -48 -29 -35 -1 31 -38
107 -68 138 l-26 28 54 -6 c43 -4 139 9 178 24 2 0 -15 -20 -38 -46z m773 29
l97 -4 -34 -38 c-31 -35 -55 -89 -56 -130 -1 -8 -14 10 -29 40 -16 30 -49 77
-72 104 -28 32 -37 47 -24 41 11 -4 64 -10 118 -13z m-290 -27 c75 -35 133
-94 169 -171 28 -59 30 -71 26 -152 -5 -103 -28 -159 -95 -228 -67 -69 -139
-99 -243 -99 -104 0 -176 30 -243 99 -67 69 -90 125 -95 228 -4 81 -2 93 26
152 46 98 132 170 236 197 56 15 160 2 219 -26z m-1018 -21 l33 -6 -18 -31
c-10 -18 -21 -52 -25 -76 l-7 -44 -15 34 c-8 19 -23 65 -33 102 l-19 68 26
-20 c14 -11 40 -23 58 -27z m1814 -34 c-11 -40 -26 -85 -34 -99 l-14 -26 -1
30 c0 17 -9 50 -20 74 -11 24 -20 44 -20 46 0 1 17 7 39 13 21 7 44 19 51 27
21 25 21 12 -1 -65z m-200 1 c29 -16 51 -63 51 -112 0 -35 -6 -48 -39 -80 -32
-33 -45 -39 -80 -39 -91 0 -136 53 -132 154 1 36 59 93 99 98 30 4 69 -4 101
-21z m-1339 4 c30 -16 56 -54 60 -90 6 -56 -1 -79 -36 -111 -29 -28 -43 -34
-80 -34 -86 0 -134 47 -134 131 0 35 6 48 39 80 32 33 45 39 80 39 23 0 55 -7
71 -15z m143 -344 c-2 -2 -11 3 -21 12 -10 10 -25 17 -34 17 -29 0 -27 13 10
55 l37 43 5 -61 c3 -34 4 -64 3 -66z m972 31 c-16 -8 -39 -21 -49 -30 -18 -16
-19 -16 -13 1 4 10 7 43 7 73 l0 55 43 -43 42 -43 -30 -13z m-1273 2 c18 -9
55 -17 83 -18 l51 -1 -19 -33 c-12 -20 -18 -44 -15 -63 l5 -30 -44 43 c-50 48
-108 118 -98 118 3 0 20 -7 37 -16z m1530 -21 c-17 -21 -49 -56 -71 -78 l-41
-39 0 27 c0 16 -7 41 -15 56 l-14 29 47 4 c26 3 61 12 77 20 46 24 49 21 17
-19z m-1284 -55 c28 -28 7 -78 -33 -78 -27 0 -45 18 -45 45 0 27 18 45 45 45
12 0 26 -5 33 -12z m1096 -10 c13 -19 14 -25 2 -43 -7 -11 -24 -20 -36 -20
-12 0 -29 9 -36 20 -12 18 -11 24 2 43 8 12 24 22 34 22 10 0 26 -10 34 -22z
m-118 -99 c9 -10 32 -23 51 -30 l35 -11 -28 -20 c-78 -52 -239 -117 -334 -133
-32 -5 -30 -3 20 22 71 36 160 124 195 194 28 54 28 54 36 25 4 -15 15 -36 25
-47z m-863 4 c45 -73 107 -134 177 -173 51 -29 53 -31 20 -25 -88 16 -249 81
-328 133 l-24 15 44 21 c28 14 48 32 58 53 8 18 15 33 16 33 1 0 17 -26 37
-57z"/>
</g>
</svg>
