<?xml version="1.0" standalone="no"?>
<!DOCTYPE svg PUBLIC "-//W3C//DTD SVG 20010904//EN"
 "http://www.w3.org/TR/2001/REC-SVG-20010904/DTD/svg10.dtd">
<svg version="1.0" xmlns="http://www.w3.org/2000/svg"
 width="256.000000pt" height="256.000000pt" viewBox="0 0 256.000000 256.000000"
 preserveAspectRatio="xMidYMid meet">

<g transform="translate(0.000000,256.000000) scale(0.100000,-0.100000)"
fill="#000000" stroke="none">
<path d="M1568 2385 c-389 -74 -712 -384 -833 -800 -26 -89 -53 -241 -44 -248
2 -3 38 2 79 9 94 18 361 20 499 4 410 -46 652 -24 844 77 175 92 267 239 267
427 0 239 -145 418 -410 506 -79 27 -113 33 -210 36 -74 2 -142 -2 -192 -11z"/>
<path d="M825 1140 c-247 -21 -450 -125 -529 -270 -153 -281 17 -592 374 -687
99 -27 299 -24 410 5 197 53 391 179 523 342 119 148 220 385 240 568 5 41 4
43 -17 38 -115 -29 -336 -33 -562 -12 -212 20 -336 25 -439 16z"/>
</g>
</svg>
