<?xml version="1.0" standalone="no"?>
<!DOCTYPE svg PUBLIC "-//W3C//DTD SVG 20010904//EN"
 "http://www.w3.org/TR/2001/REC-SVG-20010904/DTD/svg10.dtd">
<svg version="1.0" xmlns="http://www.w3.org/2000/svg"
 width="256.000000pt" height="256.000000pt" viewBox="0 0 256.000000 256.000000"
 preserveAspectRatio="xMidYMid meet">

<g transform="translate(0.000000,256.000000) scale(0.100000,-0.100000)"
fill="#000000" stroke="none">
<path d="M82 1978 l3 -183 277 -3 277 -2 103 -125 c56 -69 105 -125 109 -125
6 0 172 198 242 287 7 9 -11 37 -62 97 -90 108 -135 149 -192 180 -91 50 -139
56 -461 56 l-298 0 2 -182z"/>
<path d="M1821 2144 c-77 -21 -141 -58 -199 -117 -28 -29 -257 -304 -510 -612
-252 -308 -469 -566 -483 -572 -17 -9 -98 -13 -286 -13 l-263 0 0 -181 0 -180
333 3 332 3 65 32 c95 47 122 73 301 291 88 108 165 198 169 200 4 1 76 -82
160 -185 210 -256 245 -288 363 -325 52 -16 97 -18 368 -18 l309 0 0 180 0
180 -259 0 c-143 0 -271 4 -284 9 -22 8 -397 455 -398 474 -1 5 77 104 173
220 95 116 180 220 190 232 15 19 30 20 295 25 l278 5 3 183 2 182 -302 -1
c-232 0 -316 -4 -357 -15z"/>
</g>
</svg>
