<?xml version="1.0" standalone="no"?>
<!DOCTYPE svg PUBLIC "-//W3C//DTD SVG 20010904//EN"
 "http://www.w3.org/TR/2001/REC-SVG-20010904/DTD/svg10.dtd">
<svg version="1.0" xmlns="http://www.w3.org/2000/svg"
 width="256.000000pt" height="256.000000pt" viewBox="0 0 256.000000 256.000000"
 preserveAspectRatio="xMidYMid meet">

<g transform="translate(0.000000,256.000000) scale(0.100000,-0.100000)"
fill="#000000" stroke="none">
<path d="M682 1877 c-325 -325 -592 -597 -592 -602 0 -16 1174 -1185 1190
-1185 16 0 1190 1169 1190 1185 0 10 -1180 1195 -1190 1195 -3 0 -272 -267
-598 -593z m734 197 l127 -126 -246 -246 c-136 -136 -247 -250 -247 -255 0 -4
18 -26 41 -49 l40 -42 247 247 c136 136 251 247 255 247 11 0 567 -559 567
-570 0 -13 -907 -920 -920 -920 -8 0 -240 224 -240 232 0 2 114 117 253 256
l252 252 -45 45 -46 45 -249 -250 c-137 -137 -253 -250 -257 -250 -12 0 -588
578 -588 590 0 13 907 920 920 920 5 0 66 -57 136 -126z"/>
</g>
</svg>
