<?xml version="1.0" standalone="no"?>
<!DOCTYPE svg PUBLIC "-//W3C//DTD SVG 20010904//EN"
 "http://www.w3.org/TR/2001/REC-SVG-20010904/DTD/svg10.dtd">
<svg version="1.0" xmlns="http://www.w3.org/2000/svg"
 width="256.000000pt" height="256.000000pt" viewBox="0 0 256.000000 256.000000"
 preserveAspectRatio="xMidYMid meet">

<g transform="translate(0.000000,256.000000) scale(0.100000,-0.100000)"
fill="#000000" stroke="none">
<path d="M564 2227 c-40 -23 -404 -416 -404 -436 0 -11 9 -25 19 -31 13 -7
314 -10 906 -10 808 0 889 1 913 17 44 27 402 411 402 431 0 10 -5 23 -12 30
-17 17 -1794 17 -1824 -1z"/>
<path d="M176 1484 c-9 -8 -16 -22 -16 -30 0 -8 67 -86 149 -172 81 -86 172
-183 202 -214 l55 -58 905 0 c691 0 908 3 917 12 7 7 12 20 12 30 0 18 -377
420 -410 438 -12 6 -341 10 -909 10 -795 0 -891 -2 -905 -16z"/>
<path d="M583 753 c-27 -5 -423 -420 -423 -443 0 -40 -10 -40 930 -40 l905 0
88 92 c237 248 317 337 317 351 0 9 -10 23 -22 31 -20 14 -120 16 -898 15
-481 -1 -885 -4 -897 -6z"/>
</g>
</svg>
