<?xml version="1.0" standalone="no"?>
<!DOCTYPE svg PUBLIC "-//W3C//DTD SVG 20010904//EN"
 "http://www.w3.org/TR/2001/REC-SVG-20010904/DTD/svg10.dtd">
<svg version="1.0" xmlns="http://www.w3.org/2000/svg"
 width="256.000000pt" height="256.000000pt" viewBox="0 0 256.000000 256.000000"
 preserveAspectRatio="xMidYMid meet">

<g transform="translate(0.000000,256.000000) scale(0.100000,-0.100000)"
fill="#000000" stroke="none">
<path d="M965 2309 c-158 -23 -321 -85 -441 -166 -76 -52 -192 -174 -236 -250
-44 -74 -83 -171 -105 -259 -24 -98 -24 -339 1 -454 56 -261 152 -444 318
-611 178 -179 423 -308 691 -366 124 -27 394 -24 502 5 364 99 620 401 689
811 26 153 22 224 -20 354 -75 233 -188 409 -373 582 -129 121 -365 266 -506
311 -152 48 -363 66 -520 43z m460 -83 l50 -13 -60 -7 c-84 -10 -275 -47 -305
-59 -23 -9 -20 -11 35 -23 392 -91 636 -306 752 -659 37 -115 43 -279 14 -396
-26 -106 -94 -243 -166 -337 -53 -69 -55 -72 -28 -66 44 11 140 61 230 120
144 96 245 229 333 439 60 145 60 146 54 100 -22 -153 -70 -326 -118 -429 -74
-159 -251 -292 -483 -363 -77 -23 -106 -27 -228 -27 -163 -1 -238 16 -394 90
-238 112 -406 275 -517 499 -73 149 -96 241 -97 380 -1 164 36 278 137 420 49
67 150 166 221 215 69 47 184 99 256 114 79 18 247 18 314 2z"/>
</g>
</svg>
