<?xml version="1.0" standalone="no"?>
<!DOCTYPE svg PUBLIC "-//W3C//DTD SVG 20010904//EN"
 "http://www.w3.org/TR/2001/REC-SVG-20010904/DTD/svg10.dtd">
<svg version="1.0" xmlns="http://www.w3.org/2000/svg"
 width="256.000000pt" height="256.000000pt" viewBox="0 0 256.000000 256.000000"
 preserveAspectRatio="xMidYMid meet">

<g transform="translate(0.000000,256.000000) scale(0.100000,-0.100000)"
fill="#000000" stroke="none">
<path d="M425 2306 c-86 -27 -149 -74 -199 -150 -68 -102 -67 -90 -64 -902 3
-660 5 -732 20 -760 40 -73 138 -73 219 1 55 49 91 65 152 65 71 0 123 -35
201 -135 82 -105 133 -133 189 -104 12 6 67 56 123 110 107 105 148 129 216
129 70 0 122 -33 206 -132 116 -136 156 -148 231 -70 25 26 65 71 88 99 54 65
127 103 199 103 68 0 91 -9 170 -70 78 -60 111 -64 154 -22 62 62 69 158 69
882 1 627 -2 668 -55 758 -61 104 -144 167 -259 197 -51 13 -169 15 -840 14
-597 0 -789 -3 -820 -13z m496 -488 c91 -27 159 -121 159 -220 0 -129 -99
-228 -227 -228 -250 0 -324 331 -99 436 56 26 108 30 167 12z m892 -21 c56
-33 94 -89 108 -158 19 -92 -16 -175 -99 -233 -35 -25 -55 -31 -110 -34 -45
-3 -80 1 -102 10 -198 83 -192 360 9 435 53 20 142 10 194 -20z"/>
<path d="M775 1721 c-122 -74 -72 -264 68 -264 148 0 200 187 74 263 -40 25
-103 25 -142 1z"/>
<path d="M1633 1724 c-93 -47 -97 -191 -8 -250 34 -22 101 -22 143 0 51 26 74
71 69 134 -3 45 -9 59 -39 89 -29 29 -45 36 -85 40 -32 2 -59 -2 -80 -13z"/>
</g>
</svg>
