<?xml version="1.0" standalone="no"?>
<!DOCTYPE svg PUBLIC "-//W3C//DTD SVG 20010904//EN"
 "http://www.w3.org/TR/2001/REC-SVG-20010904/DTD/svg10.dtd">
<svg version="1.0" xmlns="http://www.w3.org/2000/svg"
 width="256.000000pt" height="256.000000pt" viewBox="0 0 256.000000 256.000000"
 preserveAspectRatio="xMidYMid meet">

<g transform="translate(0.000000,256.000000) scale(0.100000,-0.100000)"
fill="#000000" stroke="none">
<path d="M1144 2461 c-191 -52 -314 -172 -368 -362 -49 -172 -49 -173 -46
-732 l2 -527 178 -366 c97 -200 179 -367 182 -369 2 -2 4 208 3 468 l0 472 29
120 c40 165 40 163 -17 202 -26 17 -73 41 -105 52 -82 30 -104 44 -134 87 -26
37 -63 152 -53 162 6 6 101 -33 252 -104 144 -67 141 -60 117 -257 -21 -174
-14 -214 45 -254 43 -29 68 -29 113 2 56 38 62 70 54 270 -7 169 -7 171 16
192 20 19 316 153 338 153 31 0 13 -116 -25 -166 -14 -19 -69 -54 -142 -93
-174 -92 -158 -65 -134 -228 16 -108 23 -240 32 -605 7 -258 15 -468 18 -468
3 1 84 166 179 369 l172 369 0 547 0 547 -30 89 c-76 227 -200 380 -344 425
-83 25 -248 28 -332 5z"/>
</g>
</svg>
