<?xml version="1.0" standalone="no"?>
<!DOCTYPE svg PUBLIC "-//W3C//DTD SVG 20010904//EN"
 "http://www.w3.org/TR/2001/REC-SVG-20010904/DTD/svg10.dtd">
<svg version="1.0" xmlns="http://www.w3.org/2000/svg"
 width="256.000000pt" height="256.000000pt" viewBox="0 0 256.000000 256.000000"
 preserveAspectRatio="xMidYMid meet">

<g transform="translate(0.000000,256.000000) scale(0.100000,-0.100000)"
fill="#000000" stroke="none">
<path d="M931 2185 c-172 -161 -322 -301 -332 -312 -12 -11 -23 -45 -30 -83
-5 -36 -25 -96 -44 -135 -37 -78 -98 -269 -116 -368 -14 -77 -3 -118 78 -281
195 -393 465 -738 697 -888 49 -32 67 -39 94 -34 121 19 267 163 407 400 39
66 73 109 119 150 35 31 69 56 75 56 7 0 14 6 17 14 3 8 39 41 80 73 94 73 98
87 91 278 -3 88 -1 155 6 182 9 36 7 53 -16 130 -14 48 -42 162 -61 252 l-34
165 -159 155 c-87 86 -246 243 -354 349 -108 105 -198 192 -200 191 -2 0 -145
-132 -318 -294z m289 -138 l0 -312 -160 -259 -160 -259 -14 34 c-7 19 -62 159
-121 312 l-108 278 24 24 c54 52 533 495 536 495 2 0 3 -141 3 -313z m364 19
c157 -153 286 -282 286 -286 0 -9 -268 -162 -312 -179 -23 -9 -41 -1 -150 62
l-123 72 -3 308 c-1 184 1 307 7 305 5 -1 138 -128 295 -282z m-845 -610 c55
-143 99 -261 97 -264 -3 -3 -121 20 -225 44 -24 5 -24 5 -17 107 3 56 10 118
14 137 4 19 5 55 1 80 -7 50 11 188 22 168 4 -7 53 -130 108 -272z m1187 188
c8 -37 13 -69 11 -71 -3 -2 -68 -2 -145 -1 l-142 3 127 72 c70 40 129 70 131
68 2 -2 11 -34 18 -71z m-575 -21 c44 -25 82 -49 84 -53 4 -7 -284 -95 -290
-88 -6 5 108 188 117 188 5 0 45 -21 89 -47z m114 -424 l-38 -313 -41 -62 -41
-63 -128 -31 -128 -30 -29 20 c-25 18 -32 37 -69 193 -62 260 -64 225 19 360
l72 117 111 34 c264 82 302 93 306 90 1 -1 -14 -143 -34 -315z m465 298 c0
-15 -84 -162 -129 -227 -45 -64 -290 -324 -298 -316 -4 4 55 518 61 541 4 12
366 14 366 2z m54 -330 c-21 -62 -58 -157 -84 -212 -39 -83 -56 -108 -99 -144
-49 -41 -54 -43 -96 -36 -26 3 -45 12 -45 19 0 12 172 271 291 437 73 102 82
84 33 -64z m-1234 -25 l124 -27 13 -45 c37 -132 60 -249 48 -242 -32 18 -251
222 -286 266 -36 45 -49 77 -31 76 4 -1 63 -13 132 -28z m917 -430 c8 -5 -2
-18 -28 -40 -41 -35 -49 -30 -24 18 16 30 30 36 52 22z m-390 -82 c-12 -27
-26 -50 -30 -51 -11 -2 -98 63 -93 69 6 5 106 29 128 31 15 1 15 -4 -5 -49z"/>
</g>
</svg>
