<?xml version="1.0" standalone="no"?>
<!DOCTYPE svg PUBLIC "-//W3C//DTD SVG 20010904//EN"
 "http://www.w3.org/TR/2001/REC-SVG-20010904/DTD/svg10.dtd">
<svg version="1.0" xmlns="http://www.w3.org/2000/svg"
 width="256.000000pt" height="256.000000pt" viewBox="0 0 256.000000 256.000000"
 preserveAspectRatio="xMidYMid meet">

<g transform="translate(0.000000,256.000000) scale(0.100000,-0.100000)"
fill="#000000" stroke="none">
<path d="M542 2304 c-75 -20 -160 -63 -187 -96 -45 -53 -45 -168 -1 -333 26
-97 96 -285 107 -285 7 0 89 171 135 285 18 44 50 142 71 218 l38 138 45 -3
45 -3 88 -160 c48 -88 91 -163 96 -168 4 -4 59 69 122 162 l114 170 40 1 40 0
124 -165 c68 -91 127 -168 132 -171 5 -2 47 72 94 166 81 161 87 170 114 170
29 0 30 -3 74 -132 48 -145 198 -507 209 -508 4 0 23 51 42 113 104 334 114
403 72 492 -27 59 -46 77 -106 104 -44 20 -62 21 -750 20 -578 0 -715 -3 -758
-15z"/>
<path d="M416 873 c-63 -164 -90 -275 -90 -383 -1 -133 21 -162 169 -221 l60
-24 715 -3 c519 -2 726 0 755 8 59 18 104 56 131 114 42 90 32 159 -72 494
-19 61 -38 112 -42 112 -11 -1 -161 -363 -209 -507 -44 -130 -45 -133 -74
-133 -27 0 -33 9 -114 170 -47 94 -89 168 -94 166 -5 -3 -64 -80 -132 -171
l-124 -165 -40 0 -40 1 -114 170 c-63 93 -118 166 -122 162 -5 -5 -48 -80 -96
-168 l-88 -160 -46 -3 c-46 -3 -47 -2 -53 30 -18 96 -94 315 -157 453 -39 85
-74 155 -78 155 -4 0 -24 -44 -45 -97z"/>
</g>
</svg>
