<?xml version="1.0" standalone="no"?>
<!DOCTYPE svg PUBLIC "-//W3C//DTD SVG 20010904//EN"
 "http://www.w3.org/TR/2001/REC-SVG-20010904/DTD/svg10.dtd">
<svg version="1.0" xmlns="http://www.w3.org/2000/svg"
 width="256.000000pt" height="256.000000pt" viewBox="0 0 256.000000 256.000000"
 preserveAspectRatio="xMidYMid meet">

<g transform="translate(0.000000,256.000000) scale(0.100000,-0.100000)"
fill="#000000" stroke="none">
<path d="M1146 2386 c-54 -20 -85 -45 -121 -95 -40 -56 -48 -157 -17 -217 17
-33 307 -322 645 -643 l47 -45 91 89 c112 112 133 148 134 235 0 107 -14 126
-300 400 -140 134 -271 253 -292 263 -49 25 -137 31 -187 13z"/>
<path d="M639 1883 l-171 -169 622 -610 c342 -335 626 -610 631 -612 4 -2 85
72 178 165 l170 168 -475 465 c-262 256 -545 532 -630 614 l-155 148 -170
-169z"/>
<path d="M298 1493 c-119 -122 -132 -147 -132 -238 0 -142 92 -235 231 -235
135 1 233 103 233 241 0 71 -38 134 -142 237 l-94 92 -96 -97z"/>
<path d="M2064 1521 c-49 -23 -107 -88 -122 -140 -34 -112 -3 -188 130 -319
l94 -92 96 97 c119 122 132 147 132 238 0 105 -49 183 -141 222 -46 19 -140
16 -189 -6z"/>
<path d="M718 1083 c-47 -49 -95 -108 -107 -132 -28 -53 -30 -135 -5 -183 9
-18 132 -151 272 -295 285 -294 304 -308 412 -308 135 1 232 96 234 230 1 105
-9 118 -374 463 -182 172 -334 312 -338 312 -5 0 -47 -39 -94 -87z"/>
</g>
</svg>
