<?xml version="1.0" standalone="no"?>
<!DOCTYPE svg PUBLIC "-//W3C//DTD SVG 20010904//EN"
 "http://www.w3.org/TR/2001/REC-SVG-20010904/DTD/svg10.dtd">
<svg version="1.0" xmlns="http://www.w3.org/2000/svg"
 width="256.000000pt" height="256.000000pt" viewBox="0 0 256.000000 256.000000"
 preserveAspectRatio="xMidYMid meet">

<g transform="translate(0.000000,256.000000) scale(0.100000,-0.100000)"
fill="#000000" stroke="none">
<path d="M928 2433 c-182 -189 -414 -515 -528 -743 -122 -243 -166 -412 -156
-600 14 -275 110 -493 306 -690 152 -153 296 -236 506 -291 76 -20 112 -23
249 -23 139 1 173 4 257 27 405 108 712 439 783 846 50 281 -29 567 -256 929
-134 215 -439 592 -479 592 -22 0 -50 -25 -50 -45 0 -8 34 -52 76 -99 306
-341 531 -707 610 -992 22 -81 30 -267 14 -362 -50 -310 -251 -577 -541 -716
-153 -74 -225 -90 -419 -90 -138 0 -178 4 -243 22 -285 79 -514 272 -639 538
-66 142 -82 216 -82 394 0 140 3 164 27 242 88 286 306 637 604 973 62 69 75
99 51 123 -21 21 -43 13 -90 -35z"/>
<path d="M1416 2324 c-9 -8 -16 -22 -16 -30 0 -8 41 -58 91 -112 285 -304 509
-645 569 -863 94 -347 -114 -740 -468 -884 -99 -40 -213 -58 -327 -52 -121 7
-195 25 -300 76 -198 95 -333 248 -406 462 -30 86 -33 105 -33 219 -1 104 3
138 22 200 69 219 288 549 556 838 47 50 86 99 86 106 0 17 -27 46 -41 46 -24
0 -52 -25 -149 -135 -273 -306 -449 -576 -532 -818 -30 -85 -32 -102 -32 -222
-1 -151 15 -224 75 -353 89 -192 233 -338 422 -427 126 -60 213 -78 372 -78
122 0 151 3 228 27 270 81 483 273 578 521 124 321 61 594 -234 1009 -137 193
-395 486 -429 486 -9 0 -24 -7 -32 -16z"/>
<path d="M1204 2103 c-233 -257 -431 -536 -505 -712 -61 -145 -70 -225 -43
-359 47 -235 218 -424 449 -498 95 -31 254 -38 345 -15 242 60 429 246 491
489 49 194 1 360 -185 636 -115 171 -304 403 -419 514 l-44 44 -89 -99z m226
-179 c221 -256 378 -497 424 -653 47 -157 -8 -356 -135 -494 -218 -238 -591
-246 -818 -18 -134 135 -198 328 -160 491 36 156 232 459 480 741 l71 80 26
-23 c13 -13 64 -68 112 -124z"/>
</g>
</svg>
