<?xml version="1.0" standalone="no"?>
<!DOCTYPE svg PUBLIC "-//W3C//DTD SVG 20010904//EN"
 "http://www.w3.org/TR/2001/REC-SVG-20010904/DTD/svg10.dtd">
<svg version="1.0" xmlns="http://www.w3.org/2000/svg"
 width="256.000000pt" height="256.000000pt" viewBox="0 0 256.000000 256.000000"
 preserveAspectRatio="xMidYMid meet">

<g transform="translate(0.000000,256.000000) scale(0.100000,-0.100000)"
fill="#000000" stroke="none">
<path d="M1207 2468 c-30 -23 -327 -393 -333 -415 -3 -13 -4 -33 0 -46 3 -12
79 -112 168 -222 167 -204 179 -214 234 -201 27 7 341 387 351 425 3 13 2 34
-3 47 -8 22 -255 330 -315 395 -29 31 -73 38 -102 17z"/>
<path d="M718 1863 c-33 -36 -279 -341 -301 -373 -35 -50 -26 -67 144 -277 89
-109 174 -204 189 -212 47 -23 72 -8 153 91 41 51 115 144 166 206 73 90 91
119 91 145 0 27 -25 63 -146 212 -192 237 -190 235 -234 235 -27 0 -43 -7 -62
-27z"/>
<path d="M1658 1863 c-14 -15 -92 -109 -172 -207 -122 -151 -146 -185 -146
-213 0 -26 17 -54 87 -140 269 -333 263 -328 321 -304 16 7 95 96 190 213 122
150 162 207 162 227 0 33 -14 52 -197 276 -134 164 -140 170 -178 173 -33 2
-45 -2 -67 -25z"/>
<path d="M1142 898 c-227 -274 -272 -334 -272 -366 0 -25 19 -56 91 -144 51
-62 125 -155 166 -206 76 -93 101 -110 146 -98 24 6 335 377 351 420 5 13 6
34 3 47 -6 24 -277 365 -323 407 -16 14 -38 22 -59 22 -30 0 -41 -9 -103 -82z"/>
</g>
</svg>
