<?xml version="1.0" standalone="no"?>
<!DOCTYPE svg PUBLIC "-//W3C//DTD SVG 20010904//EN"
 "http://www.w3.org/TR/2001/REC-SVG-20010904/DTD/svg10.dtd">
<svg version="1.0" xmlns="http://www.w3.org/2000/svg"
 width="256.000000pt" height="256.000000pt" viewBox="0 0 256.000000 256.000000"
 preserveAspectRatio="xMidYMid meet">

<g transform="translate(0.000000,256.000000) scale(0.100000,-0.100000)"
fill="#000000" stroke="none">
<path d="M914 2225 c-357 -77 -637 -435 -611 -780 4 -44 13 -102 21 -128 41
-132 142 -257 245 -306 l56 -26 488 -5 489 -5 24 -28 c32 -37 31 -77 -2 -108
l-26 -24 -676 -5 -676 -5 -37 -240 c-21 -132 -41 -255 -44 -273 l-6 -33 733 3
733 3 88 31 c201 72 358 211 452 399 55 111 75 193 75 310 0 194 -79 355 -226
455 -82 57 -114 60 -606 60 l-447 0 -25 23 c-39 34 -42 68 -11 105 l27 32 676
2 676 3 42 245 c24 135 45 260 49 278 l6 32 -713 -1 c-555 0 -727 -4 -774 -14z"/>
</g>
</svg>
