<?xml version="1.0" standalone="no"?>
<!DOCTYPE svg PUBLIC "-//W3C//DTD SVG 20010904//EN"
 "http://www.w3.org/TR/2001/REC-SVG-20010904/DTD/svg10.dtd">
<svg version="1.0" xmlns="http://www.w3.org/2000/svg"
 width="256.000000pt" height="256.000000pt" viewBox="0 0 256.000000 256.000000"
 preserveAspectRatio="xMidYMid meet">

<g transform="translate(0.000000,256.000000) scale(0.100000,-0.100000)"
fill="#000000" stroke="none">
<path d="M160 2170 l0 -230 435 0 435 0 0 230 0 230 -435 0 -435 0 0 -230z"/>
<path d="M1520 2170 l0 -230 435 0 435 0 0 230 0 230 -435 0 -435 0 0 -230z"/>
<path d="M160 595 l0 -435 435 0 435 0 0 195 0 195 -215 0 -215 0 0 240 0 240
-220 0 -220 0 0 -435z"/>
<path d="M1950 790 l0 -240 -215 0 -215 0 0 -195 0 -195 435 0 435 0 0 435 0
435 -220 0 -220 0 0 -240z"/>
</g>
</svg>
