<?xml version="1.0" standalone="no"?>
<!DOCTYPE svg PUBLIC "-//W3C//DTD SVG 20010904//EN"
 "http://www.w3.org/TR/2001/REC-SVG-20010904/DTD/svg10.dtd">
<svg version="1.0" xmlns="http://www.w3.org/2000/svg"
 width="256.000000pt" height="256.000000pt" viewBox="0 0 256.000000 256.000000"
 preserveAspectRatio="xMidYMid meet">

<g transform="translate(0.000000,256.000000) scale(0.100000,-0.100000)"
fill="#000000" stroke="none">
<path d="M1220 2469 c-32 -13 -68 -47 -86 -81 -18 -35 -17 -116 1 -148 20 -34
19 -40 -8 -40 -14 0 -62 35 -130 94 -115 100 -145 113 -211 95 -32 -9 -86 -59
-86 -80 0 -5 -14 -9 -31 -9 -73 0 -139 -62 -139 -131 0 -19 12 -86 26 -150
l26 -117 -20 -38 c-47 -89 -41 -92 -123 59 -41 75 -77 135 -81 134 -4 -1 -53
-78 -108 -172 l-101 -170 68 -6 c37 -4 107 -7 156 -8 48 0 87 -4 87 -7 0 -3
-12 -27 -26 -53 -26 -46 -27 -47 -153 -90 -69 -24 -137 -53 -149 -65 -53 -47
-68 -124 -33 -167 18 -22 18 -23 -2 -56 -25 -43 -19 -101 15 -145 20 -26 49
-40 159 -79 132 -46 134 -47 163 -93 15 -26 26 -49 23 -52 -2 -3 -46 7 -97 21
-51 15 -95 23 -99 19 -10 -12 -82 -267 -77 -272 4 -3 264 -82 272 -82 2 0 17
45 34 100 17 55 32 100 34 100 2 0 16 -21 32 -47 l27 -47 -27 -115 c-14 -64
-26 -131 -26 -149 0 -72 60 -132 131 -132 31 0 38 -4 49 -31 14 -33 73 -69
114 -69 45 0 77 19 180 109 97 83 112 91 155 82 2 -1 -4 -10 -15 -22 -12 -14
-19 -39 -22 -82 -4 -72 16 -114 70 -147 75 -46 153 -35 211 29 48 53 57 111
28 176 -12 26 -21 49 -21 50 0 1 11 1 25 -1 15 -1 62 -36 118 -87 106 -97 122
-107 172 -107 48 0 92 24 115 63 16 27 25 31 52 29 44 -4 98 32 122 82 l19 40
-27 140 -27 141 26 47 c15 26 30 50 35 53 4 3 43 -59 85 -136 l77 -141 103
173 c57 96 101 177 99 180 -2 3 -69 9 -150 13 -81 3 -149 8 -152 10 -2 3 8 28
24 56 l27 50 131 42 c100 31 137 48 158 70 43 46 49 128 12 169 -12 13 -11 21
6 54 33 64 22 122 -30 170 -12 11 -79 38 -148 60 -126 40 -127 41 -151 84
l-24 44 29 -6 c16 -3 59 -15 96 -26 l68 -19 21 71 c11 40 29 103 40 140 11 38
19 70 17 72 -2 1 -65 21 -140 43 l-137 40 -20 -68 c-12 -38 -21 -70 -21 -73 0
-3 -5 -18 -11 -33 l-10 -28 -30 52 -30 52 27 143 c26 139 26 144 9 180 -23 49
-68 81 -117 81 -32 1 -41 6 -57 32 -20 34 -75 64 -114 64 -46 0 -74 -18 -174
-109 -65 -60 -106 -91 -121 -91 -13 0 -22 3 -20 8 2 4 12 25 22 46 57 126 -84
267 -214 215z m133 -90 c20 -21 27 -39 27 -67 -1 -95 -113 -134 -174 -61 -46
54 -28 126 38 154 41 18 75 10 109 -26z m-386 -144 l108 -95 205 0 205 0 103
95 c88 80 109 95 137 95 36 0 60 -17 70 -50 10 -31 -26 -80 -110 -150 -41 -35
-75 -67 -75 -73 0 -6 7 -19 16 -29 16 -17 19 -16 64 22 26 22 50 40 52 40 3 0
-9 -69 -25 -153 l-31 -154 -36 -20 -35 -21 -55 32 c-49 29 -55 36 -58 68 -3
30 3 41 35 72 l38 35 -22 22 -22 22 -45 -37 c-42 -34 -46 -41 -46 -81 l0 -44
-32 7 c-18 4 -90 7 -160 6 l-128 0 -1 40 c0 40 -3 44 -151 171 -144 124 -208
192 -208 222 0 23 39 53 69 53 23 0 54 -21 138 -95z m-276 -5 c21 0 45 -61 65
-160 l20 -105 32 -3 c36 -4 36 -3 21 68 -6 28 -9 54 -6 57 3 3 58 -41 121 -97
110 -97 116 -104 116 -140 0 -37 -3 -40 -57 -70 -55 -29 -60 -30 -89 -16 -25
11 -34 24 -43 60 -9 39 -15 46 -36 46 -34 0 -38 -13 -24 -75 10 -46 18 -58 46
-75 l34 -20 -27 -27 c-52 -55 -99 -137 -128 -226 -6 -18 -8 -18 -40 2 l-34 21
-203 -70 c-227 -78 -278 -86 -304 -46 -17 25 -9 62 17 84 8 6 68 30 133 53 66
22 126 44 135 49 8 4 33 40 55 79 22 39 45 71 52 71 6 0 11 8 10 18 0 10 20
55 46 99 l48 81 -31 138 c-25 112 -29 143 -20 165 12 28 46 50 68 43 8 -2 18
-4 23 -4z m1249 -10 c26 -26 25 -60 -5 -208 l-24 -121 100 -175 101 -175 117
-35 c141 -44 162 -54 179 -89 11 -22 10 -31 -3 -57 -14 -26 -21 -30 -59 -30
-24 0 -87 15 -140 34 -91 31 -97 32 -106 15 -19 -34 -10 -45 46 -63 31 -10 53
-21 49 -24 -3 -4 -27 -14 -53 -23 -48 -16 -62 -39 -44 -67 7 -11 30 -6 111 22
115 40 160 45 183 19 24 -28 27 -47 13 -80 -12 -28 -23 -34 -126 -66 -63 -20
-126 -39 -140 -42 -20 -5 -37 -26 -70 -86 -24 -43 -49 -79 -56 -79 -6 0 -11
-8 -11 -17 1 -10 -19 -54 -45 -98 l-46 -80 24 -125 c29 -147 30 -168 9 -198
-12 -17 -24 -22 -47 -20 -50 5 -68 51 -112 284 l-39 205 -37 22 -37 23 19 24
c49 60 99 145 115 193 9 29 18 53 19 55 1 2 18 -6 36 -17 33 -19 36 -19 92 -4
57 16 59 17 53 47 -4 16 -8 31 -10 33 -1 2 -22 -3 -45 -12 -37 -13 -45 -13
-76 2 -35 17 -35 17 -35 85 0 68 0 68 35 85 29 14 40 15 76 4 47 -14 49 -13
52 24 2 25 -3 29 -48 42 -49 15 -55 14 -116 -11 -13 -6 -20 1 -29 31 -20 61
-49 114 -96 174 l-43 57 37 25 38 24 38 204 c37 190 58 259 90 281 19 13 46 8
66 -12z m-1530 -379 c22 -41 38 -76 35 -79 -2 -3 -45 -1 -94 4 l-90 9 45 79
c25 43 50 74 54 70 5 -5 27 -42 50 -83z m1818 53 c32 -9 60 -19 64 -23 4 -3
-2 -41 -14 -84 -16 -57 -25 -76 -35 -72 -8 3 -43 13 -79 22 -35 9 -64 21 -64
26 0 5 9 40 21 78 23 77 23 77 107 53z m-839 -119 c172 -41 316 -176 365 -344
25 -84 21 -221 -8 -302 -107 -303 -469 -430 -738 -258 -61 39 -142 128 -174
190 -100 199 -59 438 102 588 129 121 287 165 453 126z m-705 -393 c28 -17 30
-21 30 -89 1 -70 1 -71 -31 -88 -32 -18 -33 -17 -184 35 l-151 53 148 53 c82
29 151 53 154 53 3 1 18 -7 34 -17z m-234 -193 c202 -69 206 -70 238 -54 35
16 52 13 52 -11 0 -27 64 -146 103 -190 41 -46 40 -65 -3 -79 -12 -4 -21 -24
-29 -66 -7 -34 -11 -62 -9 -64 2 -1 15 -5 30 -9 24 -5 27 -3 37 42 9 35 19 51
41 64 29 16 30 16 90 -19 56 -34 60 -38 60 -72 -1 -33 -9 -43 -122 -140 l-121
-105 7 40 c4 21 9 51 12 66 5 23 1 28 -21 34 -15 4 -30 3 -34 -2 -4 -5 -15
-51 -25 -102 -27 -150 -59 -192 -122 -163 -47 21 -49 46 -15 198 l32 140 -101
175 -100 174 -141 49 c-129 44 -142 51 -154 79 -21 50 4 86 59 86 17 0 123
-32 236 -71z m-59 -349 c38 -12 69 -25 69 -29 0 -10 -41 -144 -45 -149 -3 -3
-147 37 -153 43 -7 6 42 155 51 155 5 0 41 -9 78 -20z m1265 -19 c29 -18 32
-25 59 -159 15 -77 26 -145 23 -152 -2 -6 -21 4 -45 25 -23 19 -46 35 -52 35
-9 0 -31 -30 -31 -43 0 -3 35 -35 78 -72 77 -68 112 -112 112 -141 0 -24 -47
-64 -75 -64 -19 0 -55 27 -135 100 l-108 100 -202 0 -201 0 -107 -95 c-94 -83
-112 -95 -144 -95 -29 0 -41 6 -53 24 -28 42 5 85 183 240 155 134 161 140
164 180 3 40 4 41 33 36 47 -8 206 -6 248 3 l37 8 0 -38 c0 -32 7 -46 43 -81
l43 -42 23 24 23 25 -36 32 c-32 27 -37 37 -34 67 3 31 10 40 58 68 30 18 57
33 60 34 3 0 19 -9 36 -19z m643 -16 c2 -2 -14 -32 -35 -67 -66 -111 -56 -110
-108 -14 -25 47 -46 87 -46 88 0 4 184 -3 189 -7z m-969 -450 c37 -19 50 -43
50 -90 0 -86 -109 -128 -171 -66 -42 42 -40 92 5 137 38 38 70 43 116 19z"/>
<path d="M1506 1655 c-28 -29 -56 -83 -50 -99 11 -29 43 -18 69 24 14 22 25
48 25 59 0 25 -26 34 -44 16z"/>
<path d="M1032 1648 c-17 -17 -15 -24 18 -74 32 -46 56 -56 67 -28 9 24 -43
114 -66 114 -4 0 -12 -5 -19 -12z"/>
<path d="M1208 1557 l-56 -83 -98 -27 c-85 -23 -114 -37 -114 -57 0 -3 32 -43
71 -88 44 -54 68 -90 65 -100 -11 -36 -9 -163 3 -175 8 -8 35 -4 109 21 l97
32 96 -32 c132 -43 133 -42 125 78 l-7 96 60 79 c34 43 61 85 61 94 0 19 -37
35 -135 60 l-70 18 -58 83 c-36 53 -65 84 -76 84 -11 0 -38 -30 -73 -83z m169
-134 c8 -6 46 -19 84 -28 38 -10 69 -19 69 -22 0 -2 -21 -32 -47 -66 l-47 -61
3 -73 c1 -40 -2 -73 -7 -73 -4 0 -41 11 -80 24 l-72 25 -65 -25 c-36 -13 -69
-24 -74 -24 -4 0 -6 33 -3 73 l4 72 -52 63 c-29 35 -51 64 -49 66 2 2 37 13
78 24 40 12 74 22 76 24 1 2 21 31 44 66 l43 63 40 -58 c22 -32 46 -63 55 -70z"/>
<path d="M1236 1437 c-25 -31 -47 -46 -79 -54 -25 -7 -47 -19 -50 -27 -3 -8 9
-34 28 -58 30 -37 33 -48 28 -83 -8 -59 11 -72 74 -51 43 15 51 15 95 0 64
-21 80 -10 71 51 -5 38 -2 48 28 85 40 50 33 70 -30 84 -31 7 -49 19 -69 45
-47 64 -50 64 -96 8z m64 -76 c5 -11 23 -22 40 -26 28 -6 29 -8 15 -28 -8 -12
-15 -34 -15 -49 0 -30 -3 -31 -35 -19 -11 5 -32 5 -47 0 -26 -7 -28 -5 -28 20
0 16 -7 34 -15 41 -21 18 -19 27 10 34 13 3 29 15 35 26 13 25 26 25 40 1z"/>
<path d="M910 1207 c-24 -8 -36 -19 -38 -35 -5 -31 17 -36 74 -15 36 14 49 24
49 38 0 25 -35 30 -85 12z"/>
<path d="M1574 1206 c-9 -23 8 -38 57 -52 48 -15 69 -9 69 17 0 22 -24 36 -79
45 -33 5 -42 3 -47 -10z"/>
<path d="M1260 975 c-24 -62 -4 -124 34 -109 25 10 19 127 -6 132 -12 2 -21
-6 -28 -23z"/>
</g>
</svg>
