<?xml version="1.0" standalone="no"?>
<!DOCTYPE svg PUBLIC "-//W3C//DTD SVG 20010904//EN"
 "http://www.w3.org/TR/2001/REC-SVG-20010904/DTD/svg10.dtd">
<svg version="1.0" xmlns="http://www.w3.org/2000/svg"
 width="256.000000pt" height="256.000000pt" viewBox="0 0 256.000000 256.000000"
 preserveAspectRatio="xMidYMid meet">

<g transform="translate(0.000000,256.000000) scale(0.100000,-0.100000)"
fill="#000000" stroke="none">
<path d="M1215 2344 c-250 -201 -325 -326 -312 -526 8 -121 24 -169 219 -628
209 -492 230 -553 236 -696 4 -89 0 -132 -17 -213 -21 -96 -21 -121 -1 -121
13 0 161 123 233 193 132 130 175 246 156 417 -12 105 -44 192 -224 615 -174
409 -200 476 -221 583 -19 100 -17 189 6 301 33 155 30 158 -75 75z"/>
<path d="M490 2124 c-111 -92 -181 -168 -213 -234 -29 -59 -32 -73 -32 -160 1
-117 0 -114 176 -531 75 -179 147 -357 159 -395 31 -102 35 -201 12 -309 -29
-132 -21 -133 118 -13 150 130 195 212 194 348 -1 104 -16 149 -174 521 -76
179 -148 356 -160 395 -31 97 -37 222 -15 318 16 73 15 107 -2 105 -4 0 -33
-20 -63 -45z"/>
<path d="M1969 2117 c-110 -92 -195 -189 -218 -251 -25 -69 -28 -175 -6 -260
8 -32 80 -211 159 -399 80 -188 154 -373 166 -412 27 -87 29 -220 6 -319 -11
-46 -13 -73 -7 -79 24 -24 243 178 287 263 23 45 28 71 32 147 6 120 -4 150
-169 539 -72 170 -143 341 -156 379 -34 94 -42 240 -19 349 24 115 17 119 -75
43z"/>
</g>
</svg>
