<?xml version="1.0" standalone="no"?>
<!DOCTYPE svg PUBLIC "-//W3C//DTD SVG 20010904//EN"
 "http://www.w3.org/TR/2001/REC-SVG-20010904/DTD/svg10.dtd">
<svg version="1.0" xmlns="http://www.w3.org/2000/svg"
 width="256.000000pt" height="256.000000pt" viewBox="0 0 256.000000 256.000000"
 preserveAspectRatio="xMidYMid meet">

<g transform="translate(0.000000,256.000000) scale(0.100000,-0.100000)"
fill="#000000" stroke="none">
<path d="M999 1968 c-152 -233 -275 -424 -274 -426 1 -1 125 68 275 154 152
87 280 154 289 151 9 -2 135 -72 280 -156 145 -83 265 -150 267 -149 4 5 -544
842 -553 845 -5 2 -133 -187 -284 -419z"/>
<path d="M585 1329 c-259 -442 -16 -1004 495 -1145 100 -28 310 -26 413 4 463
132 707 616 528 1049 -15 38 -41 89 -56 112 l-27 44 -27 -49 c-14 -27 -161
-302 -326 -611 -164 -310 -302 -563 -305 -563 -3 0 -142 258 -310 573 -167
314 -314 589 -326 611 l-22 38 -37 -63z"/>
</g>
</svg>
