<?xml version="1.0" standalone="no"?>
<!DOCTYPE svg PUBLIC "-//W3C//DTD SVG 20010904//EN"
 "http://www.w3.org/TR/2001/REC-SVG-20010904/DTD/svg10.dtd">
<svg version="1.0" xmlns="http://www.w3.org/2000/svg"
 width="256.000000pt" height="256.000000pt" viewBox="0 0 256.000000 256.000000"
 preserveAspectRatio="xMidYMid meet">

<g transform="translate(0.000000,256.000000) scale(0.100000,-0.100000)"
fill="#000000" stroke="none">
<path d="M1005 2376 c-220 -58 -380 -151 -535 -313 -119 -123 -191 -235 -245
-377 -28 -73 -67 -227 -60 -234 2 -2 19 7 37 20 18 14 84 46 146 73 237 101
399 228 534 420 56 79 89 141 143 270 21 50 49 104 62 122 37 51 41 51 -82 19z"/>
<path d="M1450 2394 c0 -3 11 -20 23 -37 13 -18 45 -83 72 -144 139 -327 341
-529 668 -668 61 -27 127 -59 145 -73 18 -13 35 -22 37 -20 7 7 -32 161 -60
234 -98 261 -322 501 -578 619 -95 44 -307 105 -307 89z"/>
<path d="M1218 1843 c-18 -11 -46 -55 -82 -128 -78 -158 -168 -244 -319 -306
-74 -30 -117 -76 -117 -125 0 -63 24 -88 138 -143 157 -77 252 -176 313 -324
46 -115 130 -150 204 -86 19 17 35 35 35 40 0 5 17 44 38 86 63 132 185 244
325 299 66 26 98 62 104 117 5 40 2 48 -28 79 -19 19 -59 45 -89 59 -159 68
-267 176 -330 329 -31 76 -78 120 -127 120 -21 0 -50 -8 -65 -17z"/>
<path d="M167 1078 c14 -74 56 -206 88 -275 118 -256 358 -480 619 -578 73
-28 227 -67 234 -60 2 2 -7 19 -20 37 -14 18 -47 84 -73 147 -89 209 -214 377
-366 493 -103 79 -170 117 -301 173 -62 27 -127 59 -145 72 -41 30 -44 29 -36
-9z"/>
<path d="M2355 1086 c-16 -12 -81 -44 -142 -71 -326 -138 -529 -341 -668 -668
-27 -61 -59 -127 -73 -145 -13 -18 -22 -35 -20 -37 7 -7 161 32 234 60 261 98
501 322 619 578 47 101 105 308 87 307 -4 -1 -20 -11 -37 -24z"/>
</g>
</svg>
