<?xml version="1.0" standalone="no"?>
<!DOCTYPE svg PUBLIC "-//W3C//DTD SVG 20010904//EN"
 "http://www.w3.org/TR/2001/REC-SVG-20010904/DTD/svg10.dtd">
<svg version="1.0" xmlns="http://www.w3.org/2000/svg"
 width="256.000000pt" height="256.000000pt" viewBox="0 0 256.000000 256.000000"
 preserveAspectRatio="xMidYMid meet">

<g transform="translate(0.000000,256.000000) scale(0.100000,-0.100000)"
fill="#000000" stroke="none">
<path d="M92 2311 c2 -5 174 -210 383 -455 225 -264 389 -466 402 -494 33 -69
31 -154 -4 -221 -16 -27 -197 -248 -403 -490 -206 -241 -376 -444 -378 -450
-3 -8 86 -11 305 -11 l310 0 366 431 c418 491 411 481 412 639 0 150 -3 155
-419 643 l-357 417 -310 0 c-179 0 -309 -4 -307 -9z"/>
<path d="M1522 2110 c-95 -115 -172 -213 -172 -217 0 -5 87 -30 193 -57 183
-46 195 -48 249 -37 33 7 75 25 100 43 57 42 578 468 578 474 0 2 -175 4 -388
4 l-389 0 -171 -210z"/>
<path d="M1530 676 c-91 -23 -170 -44 -177 -47 -10 -3 213 -288 323 -412 l24
-27 385 0 c212 0 385 3 385 8 -1 12 -574 475 -616 496 -66 35 -138 31 -324
-18z"/>
</g>
</svg>
