<?xml version="1.0" standalone="no"?>
<!DOCTYPE svg PUBLIC "-//W3C//DTD SVG 20010904//EN"
 "http://www.w3.org/TR/2001/REC-SVG-20010904/DTD/svg10.dtd">
<svg version="1.0" xmlns="http://www.w3.org/2000/svg"
 width="256.000000pt" height="256.000000pt" viewBox="0 0 256.000000 256.000000"
 preserveAspectRatio="xMidYMid meet">

<g transform="translate(0.000000,256.000000) scale(0.100000,-0.100000)"
fill="#000000" stroke="none">
<path d="M1190 2381 c-97 -53 -97 -197 -1 -254 l31 -18 0 -235 c0 -215 -1
-235 -17 -240 -10 -4 -47 -20 -83 -36 -57 -27 -178 -65 -220 -71 -8 -1 -90 41
-182 93 l-167 95 -1 39 c0 89 -85 165 -172 153 -75 -10 -128 -68 -135 -144 -7
-91 62 -163 157 -163 26 0 58 8 75 19 l31 18 144 -83 c80 -46 149 -85 155 -87
5 -2 -5 -26 -23 -53 -68 -102 -78 -219 -29 -328 l25 -55 -134 -77 c-133 -76
-134 -76 -166 -61 -57 26 -76 28 -120 17 -119 -33 -156 -177 -67 -262 53 -51
112 -60 176 -27 54 28 83 75 83 134 l0 41 145 83 144 83 67 -33 c57 -28 78
-33 148 -34 49 -1 96 -8 119 -18 l37 -16 0 -220 c0 -208 -1 -220 -19 -226 -32
-10 -89 -81 -97 -120 -13 -71 26 -149 90 -179 115 -55 250 44 231 170 -7 48
-58 117 -96 129 -18 6 -19 18 -19 220 0 160 3 216 13 222 6 4 72 7 146 5 140
-2 161 3 242 55 24 16 28 14 141 -52 l116 -68 5 -50 c7 -59 45 -113 93 -133
103 -43 216 31 216 141 0 118 -130 196 -228 136 l-31 -19 -114 67 c-99 59
-114 70 -112 92 2 13 6 49 9 80 9 78 -14 142 -76 213 -43 50 -70 100 -59 110
2 2 82 47 177 101 l173 97 42 -18 c83 -38 154 -18 205 57 20 28 23 44 20 92
-4 49 -9 62 -38 92 -101 104 -270 36 -270 -109 0 -34 -1 -35 -179 -135 -99
-56 -184 -101 -189 -101 -5 0 -15 7 -23 16 -18 22 -115 69 -201 98 l-73 25 -3
229 -2 230 35 21 c68 40 89 130 48 201 -37 63 -127 87 -193 51z m108 -77 c15
-10 22 -25 22 -46 0 -66 -69 -92 -109 -42 -27 34 -26 50 4 79 28 29 51 31 83
9z m-858 -504 c40 -40 11 -110 -45 -110 -31 0 -65 33 -65 62 0 29 38 68 67 68
13 0 32 -9 43 -20z m1733 -8 c39 -34 7 -104 -48 -104 -55 0 -87 70 -47 104 33
29 60 29 95 0z m-768 -286 c72 -31 143 -116 159 -193 5 -22 18 -38 42 -52 79
-47 94 -167 31 -235 -48 -50 -101 -63 -170 -41 -45 14 -59 15 -78 5 -41 -23
-152 -16 -208 12 -31 15 -56 21 -68 17 -28 -12 -86 -10 -124 2 -106 36 -168
150 -139 253 25 89 109 155 197 156 33 0 50 7 79 32 73 64 187 82 279 44z
m-982 -687 c28 -15 37 -28 37 -58 0 -36 -28 -61 -66 -61 -67 0 -85 86 -24 117
31 15 27 15 53 2z m1739 -16 c26 -23 24 -78 -4 -97 -32 -22 -55 -20 -83 9 -30
29 -32 58 -5 85 24 24 67 26 92 3z m-860 -500 c50 -45 -12 -135 -72 -103 -42
22 -45 86 -6 112 19 13 59 9 78 -9z"/>
</g>
</svg>
