<?xml version="1.0" standalone="no"?>
<!DOCTYPE svg PUBLIC "-//W3C//DTD SVG 20010904//EN"
 "http://www.w3.org/TR/2001/REC-SVG-20010904/DTD/svg10.dtd">
<svg version="1.0" xmlns="http://www.w3.org/2000/svg"
 width="256.000000pt" height="256.000000pt" viewBox="0 0 256.000000 256.000000"
 preserveAspectRatio="xMidYMid meet">

<g transform="translate(0.000000,256.000000) scale(0.100000,-0.100000)"
fill="#000000" stroke="none">
<path d="M1130 2384 c-98 -21 -234 -92 -312 -164 -76 -69 -147 -170 -179 -252
l-21 -55 -70 -11 c-308 -47 -477 -369 -338 -642 54 -106 148 -186 257 -220 59
-18 93 -20 344 -20 217 0 279 -3 279 -12 -1 -7 -61 -193 -134 -413 -74 -220
-133 -401 -131 -403 5 -5 244 312 428 568 l183 255 315 5 c291 5 318 7 366 26
102 42 184 117 233 214 139 273 -30 595 -338 642 l-70 11 -21 55 c-52 136
-183 280 -316 349 -41 21 -75 35 -77 33 -8 -10 -288 -889 -288 -903 0 -11 37
-22 143 -42 78 -15 144 -29 145 -31 4 -3 -317 -454 -322 -454 -2 0 21 77 51
171 30 94 52 173 49 176 -3 4 -74 21 -158 40 -84 19 -153 35 -154 36 -1 1 74
238 167 527 93 288 169 526 169 527 0 8 -144 -1 -200 -13z m0 -171 c0 -5 -295
-927 -307 -959 -2 -6 49 -22 129 -39 73 -15 142 -32 153 -36 11 -5 -113 -7
-275 -6 l-295 2 -57 28 c-185 91 -219 334 -66 472 65 58 129 79 222 72 39 -3
77 -7 85 -9 11 -2 21 21 38 85 30 119 64 178 148 263 80 80 225 163 225 127z
m623 -250 c15 -28 38 -91 50 -140 17 -64 27 -87 38 -85 8 2 46 6 85 9 93 7
157 -14 222 -72 157 -141 117 -389 -77 -479 -42 -19 -67 -21 -285 -24 -197 -3
-238 -1 -229 10 51 66 183 257 183 265 0 10 -45 22 -257 69 -40 9 -73 21 -73
27 0 12 180 577 188 591 8 14 124 -113 155 -171z"/>
</g>
</svg>
