<?xml version="1.0" standalone="no"?>
<!DOCTYPE svg PUBLIC "-//W3C//DTD SVG 20010904//EN"
 "http://www.w3.org/TR/2001/REC-SVG-20010904/DTD/svg10.dtd">
<svg version="1.0" xmlns="http://www.w3.org/2000/svg"
 width="256.000000pt" height="256.000000pt" viewBox="0 0 256.000000 256.000000"
 preserveAspectRatio="xMidYMid meet">

<g transform="translate(0.000000,256.000000) scale(0.100000,-0.100000)"
fill="#000000" stroke="none">
<path d="M800 1890 c-256 -325 -466 -595 -468 -600 -2 -6 175 -11 463 -12
l466 -3 -465 -590 c-256 -324 -465 -593 -466 -597 0 -5 210 -8 468 -8 l467 0
500 592 c275 326 501 596 503 600 2 4 -222 9 -498 10 l-501 3 501 593 c275
326 500 595 500 597 0 3 -226 5 -503 5 l-502 0 -465 -590z"/>
</g>
</svg>
