<?xml version="1.0" standalone="no"?>
<!DOCTYPE svg PUBLIC "-//W3C//DTD SVG 20010904//EN"
 "http://www.w3.org/TR/2001/REC-SVG-20010904/DTD/svg10.dtd">
<svg version="1.0" xmlns="http://www.w3.org/2000/svg"
 width="256.000000pt" height="256.000000pt" viewBox="0 0 256.000000 256.000000"
 preserveAspectRatio="xMidYMid meet">

<g transform="translate(0.000000,256.000000) scale(0.100000,-0.100000)"
fill="#000000" stroke="none">
<path d="M665 2069 c-324 -203 -598 -379 -608 -391 -15 -18 -17 -44 -17 -209
0 -181 1 -189 23 -213 12 -14 285 -192 606 -395 428 -272 591 -371 613 -371
21 0 175 89 539 310 280 171 512 310 514 310 3 0 5 -19 5 -42 l-1 -43 -528
-333 -529 -333 -542 341 c-298 187 -555 347 -571 356 -89 45 -172 -65 -102
-135 16 -14 288 -190 605 -389 458 -287 584 -362 611 -362 26 0 152 75 612
365 319 201 590 377 603 391 21 24 22 33 22 199 0 172 0 174 -26 204 -50 59
-41 63 -646 -305 -304 -184 -556 -336 -560 -337 -5 -1 -247 149 -538 333
l-529 335 -1 57 0 57 515 -309 c397 -239 523 -310 548 -310 24 0 84 31 228
118 106 65 365 221 574 346 209 126 392 241 408 257 31 34 35 77 10 107 -10
12 -259 173 -553 358 -661 417 -640 404 -670 404 -16 0 -249 -141 -615 -371z
m1110 -133 c259 -163 471 -301 473 -305 2 -6 -868 -539 -961 -588 -8 -5 -977
577 -977 586 0 15 956 610 975 607 11 -2 231 -137 490 -300z"/>
</g>
</svg>
