<?xml version="1.0" standalone="no"?>
<!DOCTYPE svg PUBLIC "-//W3C//DTD SVG 20010904//EN"
 "http://www.w3.org/TR/2001/REC-SVG-20010904/DTD/svg10.dtd">
<svg version="1.0" xmlns="http://www.w3.org/2000/svg"
 width="256.000000pt" height="256.000000pt" viewBox="0 0 256.000000 256.000000"
 preserveAspectRatio="xMidYMid meet">

<g transform="translate(0.000000,256.000000) scale(0.100000,-0.100000)"
fill="#000000" stroke="none">
<path d="M455 2256 c52 -80 153 -233 225 -341 72 -108 134 -203 137 -211 4
-12 -43 -14 -326 -14 l-332 0 3 -137 3 -138 1115 0 1115 0 3 138 3 137 -332 0
c-284 0 -330 2 -326 14 3 8 59 95 125 193 65 98 167 251 225 341 l106 162
-177 0 -177 0 -280 -425 c-154 -234 -282 -425 -285 -425 -3 0 -132 191 -285
425 l-280 425 -177 0 -177 0 94 -144z"/>
<path d="M160 1015 l0 -135 340 -2 340 -3 -235 -355 -234 -355 171 -3 c129 -2
175 1 184 10 6 7 132 195 279 418 147 223 270 406 273 407 4 2 131 -186 282
-417 l275 -419 178 -1 c166 0 177 1 168 18 -6 9 -111 170 -235 357 l-225 340
340 3 339 2 0 135 0 135 -1120 0 -1120 0 0 -135z"/>
</g>
</svg>
