<?xml version="1.0" standalone="no"?>
<!DOCTYPE svg PUBLIC "-//W3C//DTD SVG 20010904//EN"
 "http://www.w3.org/TR/2001/REC-SVG-20010904/DTD/svg10.dtd">
<svg version="1.0" xmlns="http://www.w3.org/2000/svg"
 width="256.000000pt" height="256.000000pt" viewBox="0 0 256.000000 256.000000"
 preserveAspectRatio="xMidYMid meet">

<g transform="translate(0.000000,256.000000) scale(0.100000,-0.100000)"
fill="#000000" stroke="none">
<path d="M1608 2065 c-95 -18 -189 -53 -293 -109 l-80 -43 -105 20 c-148 28
-444 30 -544 3 -218 -59 -408 -188 -481 -329 l-28 -53 27 -94 c67 -235 162
-351 329 -402 89 -27 224 -22 309 11 164 63 342 224 496 449 l50 73 59 -52
c110 -97 228 -180 322 -227 l94 -47 136 -3 c351 -9 581 119 581 323 0 22 -7
67 -15 100 -48 182 -194 311 -415 365 -113 28 -334 35 -442 15z m316 -235
c159 -26 245 -73 289 -159 37 -74 35 -93 -11 -119 -60 -33 -156 -52 -273 -52
-99 0 -111 2 -162 29 -65 34 -147 93 -240 173 l-69 58 56 26 c107 49 272 67
410 44z m-880 -127 l29 -9 -77 -101 c-148 -197 -306 -313 -425 -313 -70 0
-130 27 -161 70 -29 41 -69 138 -70 167 0 48 183 159 314 189 66 15 335 13
390 -3z"/>
<path d="M885 928 c4 -18 25 -70 46 -116 52 -107 131 -190 225 -234 133 -62
291 -48 420 38 91 61 187 179 234 290 11 25 20 48 20 50 0 2 -214 4 -476 4
l-476 0 7 -32z"/>
</g>
</svg>
