<?xml version="1.0" standalone="no"?>
<!DOCTYPE svg PUBLIC "-//W3C//DTD SVG 20010904//EN"
 "http://www.w3.org/TR/2001/REC-SVG-20010904/DTD/svg10.dtd">
<svg version="1.0" xmlns="http://www.w3.org/2000/svg"
 width="256.000000pt" height="256.000000pt" viewBox="0 0 256.000000 256.000000"
 preserveAspectRatio="xMidYMid meet">

<g transform="translate(0.000000,256.000000) scale(0.100000,-0.100000)"
fill="#000000" stroke="none">
<path d="M1975 2429 c-82 -84 -177 -122 -506 -203 -340 -83 -534 -142 -635
-192 -209 -103 -314 -263 -302 -465 9 -145 80 -250 243 -358 168 -111 352
-183 615 -241 149 -33 192 -50 128 -50 -20 0 -99 -11 -175 -26 -408 -75 -659
-173 -777 -305 -63 -70 -81 -128 -81 -264 0 -103 19 -235 34 -235 4 0 17 14
30 31 36 49 136 115 224 149 45 18 190 59 322 92 354 88 439 114 554 170 240
118 359 324 307 528 -32 122 -92 196 -244 298 -169 113 -368 192 -622 247 -69
15 -131 31 -139 35 -7 4 17 10 53 14 166 17 402 80 542 146 225 104 376 263
438 460 22 67 45 210 34 210 -2 0 -22 -18 -43 -41z"/>
<path d="M1885 1910 c-97 -100 -223 -178 -386 -239 -94 -36 -101 -41 -79 -49
145 -56 245 -105 326 -159 l54 -36 19 24 c32 38 78 129 95 189 21 70 37 234
28 283 l-7 38 -50 -51z"/>
</g>
</svg>
