<?xml version="1.0" standalone="no"?>
<!DOCTYPE svg PUBLIC "-//W3C//DTD SVG 20010904//EN"
 "http://www.w3.org/TR/2001/REC-SVG-20010904/DTD/svg10.dtd">
<svg version="1.0" xmlns="http://www.w3.org/2000/svg"
 width="256.000000pt" height="256.000000pt" viewBox="0 0 256.000000 256.000000"
 preserveAspectRatio="xMidYMid meet">

<g transform="translate(0.000000,256.000000) scale(0.100000,-0.100000)"
fill="#000000" stroke="none">
<path d="M160 1911 l0 -171 249 0 c137 0 257 -3 265 -6 12 -5 124 -133 202
-233 7 -8 35 22 139 150 l106 129 -71 85 c-86 103 -150 156 -227 187 -55 22
-71 23 -360 26 l-303 3 0 -170z"/>
<path d="M1792 2064 c-61 -16 -121 -49 -174 -96 -20 -18 -226 -265 -458 -548
-232 -283 -435 -528 -451 -545 l-29 -30 -258 -5 -257 -5 -3 -168 -2 -168 312
3 c301 3 315 4 362 26 73 33 137 86 202 166 32 39 102 124 156 189 l97 118
138 -168 c175 -214 219 -258 301 -296 l67 -32 310 0 310 0 0 165 0 165 -262 5
c-155 3 -266 9 -271 15 -40 43 -352 428 -352 434 0 9 331 411 355 431 15 12
67 16 274 20 l256 5 0 165 0 165 -285 2 c-221 1 -297 -1 -338 -13z"/>
</g>
</svg>
