<?xml version="1.0" standalone="no"?>
<!DOCTYPE svg PUBLIC "-//W3C//DTD SVG 20010904//EN"
 "http://www.w3.org/TR/2001/REC-SVG-20010904/DTD/svg10.dtd">
<svg version="1.0" xmlns="http://www.w3.org/2000/svg"
 width="256.000000pt" height="256.000000pt" viewBox="0 0 256.000000 256.000000"
 preserveAspectRatio="xMidYMid meet">

<g transform="translate(0.000000,256.000000) scale(0.100000,-0.100000)"
fill="#000000" stroke="none">
<path d="M770 2389 c-56 -11 -140 -52 -167 -81 -54 -60 -489 -708 -505 -753
-61 -176 50 -427 310 -696 335 -348 770 -595 1139 -647 189 -26 329 6 414 95
37 38 462 662 494 724 26 49 30 143 11 219 -68 270 -319 562 -708 823 -360
242 -743 364 -988 316z m335 -91 c444 -101 1030 -537 1227 -913 230 -442 -160
-589 -767 -290 -643 316 -1120 929 -898 1151 84 84 224 101 438 52z"/>
<path d="M1124 1960 c-12 -4 -31 -21 -43 -36 -51 -65 -8 -182 116 -314 100
-107 186 -170 318 -235 200 -99 342 -111 410 -35 31 34 25 104 -16 180 -40 75
-146 191 -237 260 -83 62 -235 141 -326 169 -70 22 -182 27 -222 11z"/>
</g>
</svg>
