<?xml version="1.0" standalone="no"?>
<!DOCTYPE svg PUBLIC "-//W3C//DTD SVG 20010904//EN"
 "http://www.w3.org/TR/2001/REC-SVG-20010904/DTD/svg10.dtd">
<svg version="1.0" xmlns="http://www.w3.org/2000/svg"
 width="256.000000pt" height="256.000000pt" viewBox="0 0 256.000000 256.000000"
 preserveAspectRatio="xMidYMid meet">

<g transform="translate(0.000000,256.000000) scale(0.100000,-0.100000)"
fill="#000000" stroke="none">
<path d="M650 2005 c0 -62 -1 -65 -27 -71 -193 -42 -369 -151 -439 -269 -55
-94 -104 -290 -104 -415 0 -226 152 -475 350 -572 127 -61 184 -73 360 -72
175 0 247 14 340 67 118 67 255 238 344 428 47 101 89 209 81 209 -8 0 -156
-94 -286 -181 -267 -179 -372 -224 -498 -217 -96 6 -155 31 -226 99 -132 125
-152 316 -50 471 31 47 100 98 132 98 21 0 23 -4 23 -56 0 -31 4 -54 8 -52 5
2 111 61 236 132 l227 129 -227 168 c-125 93 -231 169 -236 169 -4 0 -8 -29
-8 -65z"/>
<path d="M1610 1904 c-51 -8 -111 -27 -149 -45 -115 -57 -245 -199 -344 -379
-39 -71 -107 -234 -107 -257 0 -19 8 -14 242 139 321 210 424 256 546 245 128
-12 237 -88 295 -206 29 -59 32 -74 32 -156 0 -78 -4 -98 -29 -153 -29 -62
-112 -152 -141 -152 -7 0 -20 -3 -29 -6 -13 -5 -16 3 -16 50 0 31 -4 56 -9 56
-5 0 -111 -58 -235 -129 l-227 -128 227 -169 c125 -93 231 -170 236 -172 4 -2
8 27 8 66 l0 69 58 12 c134 30 305 126 369 208 106 134 167 414 129 592 -20
93 -80 219 -143 296 -149 183 -422 267 -713 219z"/>
</g>
</svg>
