<?xml version="1.0" standalone="no"?>
<!DOCTYPE svg PUBLIC "-//W3C//DTD SVG 20010904//EN"
 "http://www.w3.org/TR/2001/REC-SVG-20010904/DTD/svg10.dtd">
<svg version="1.0" xmlns="http://www.w3.org/2000/svg"
 width="256.000000pt" height="256.000000pt" viewBox="0 0 256.000000 256.000000"
 preserveAspectRatio="xMidYMid meet">

<g transform="translate(0.000000,256.000000) scale(0.100000,-0.100000)"
fill="#000000" stroke="none">
<path d="M1588 2362 c-18 -20 -69 -85 -112 -142 -112 -149 -131 -167 -223
-210 -99 -46 -148 -79 -235 -159 -81 -75 -118 -143 -118 -215 1 -105 65 -229
175 -341 55 -56 91 -82 171 -123 127 -64 134 -72 109 -118 -26 -49 -162 -176
-216 -202 -96 -46 -148 -18 -208 112 -54 117 -116 163 -182 136 -64 -27 -115
-138 -107 -235 6 -69 57 -173 137 -279 l59 -79 -22 -36 c-55 -91 -59 -136 -18
-202 54 -85 121 -124 169 -98 29 16 76 92 99 164 9 28 26 61 38 74 32 36 94
61 156 61 96 1 247 81 358 190 74 73 103 128 109 204 7 84 -10 152 -64 258
-63 123 -139 201 -278 288 -62 38 -116 77 -119 86 -13 34 187 194 243 194 17
0 45 -18 81 -50 66 -60 108 -71 158 -44 48 26 102 99 102 139 0 33 -5 40 -117
179 -35 43 -63 85 -63 95 0 9 18 35 40 56 23 22 57 64 77 92 36 52 36 54 23
95 -16 52 -41 82 -99 119 -59 38 -82 37 -123 -9z m-188 -456 c0 -41 -166 -136
-235 -136 l-40 1 56 53 c31 29 76 62 100 74 51 26 119 30 119 8z m80 -143 c0
-39 -181 -173 -215 -159 -8 3 -15 17 -15 31 0 29 53 72 145 116 69 33 85 36
85 12z m-115 -973 c0 -18 -10 -30 -39 -46 -42 -24 -152 -51 -163 -40 -11 11
49 65 102 91 64 31 100 30 100 -5z m95 -95 c17 -20 7 -41 -31 -64 -31 -19
-148 -45 -157 -36 -14 14 71 81 127 101 46 17 46 17 61 -1z"/>
</g>
</svg>
