<?xml version="1.0" standalone="no"?>
<!DOCTYPE svg PUBLIC "-//W3C//DTD SVG 20010904//EN"
 "http://www.w3.org/TR/2001/REC-SVG-20010904/DTD/svg10.dtd">
<svg version="1.0" xmlns="http://www.w3.org/2000/svg"
 width="256.000000pt" height="256.000000pt" viewBox="0 0 256.000000 256.000000"
 preserveAspectRatio="xMidYMid meet">

<g transform="translate(0.000000,256.000000) scale(0.100000,-0.100000)"
fill="#000000" stroke="none">
<path d="M1133 2466 c-119 -30 -156 -57 -373 -276 -512 -516 -585 -594 -618
-656 -90 -171 -79 -366 30 -525 18 -27 40 -49 49 -49 10 0 102 89 205 198 249
261 744 772 966 997 98 100 178 187 178 195 0 20 -82 75 -151 101 -68 27 -212
34 -286 15z"/>
<path d="M1717 2016 c-21 -8 -48 -22 -60 -33 -51 -43 -1219 -1210 -1229 -1227
-9 -16 4 -33 88 -117 115 -115 152 -135 242 -126 33 2 72 12 88 20 16 8 231
212 478 454 356 348 454 438 475 438 20 0 31 -10 51 -45 33 -59 35 -175 4
-233 -11 -20 -217 -238 -459 -483 -242 -245 -440 -451 -440 -457 0 -5 21 -25
48 -43 141 -97 330 -110 497 -32 59 27 102 68 455 422 416 417 444 452 477
575 34 130 19 253 -44 372 -34 65 -430 475 -487 504 -46 23 -136 29 -184 11z"/>
</g>
</svg>
