<?xml version="1.0" standalone="no"?>
<!DOCTYPE svg PUBLIC "-//W3C//DTD SVG 20010904//EN"
 "http://www.w3.org/TR/2001/REC-SVG-20010904/DTD/svg10.dtd">
<svg version="1.0" xmlns="http://www.w3.org/2000/svg"
 width="256.000000pt" height="256.000000pt" viewBox="0 0 256.000000 256.000000"
 preserveAspectRatio="xMidYMid meet">

<g transform="translate(0.000000,256.000000) scale(0.100000,-0.100000)"
fill="#000000" stroke="none">
<path d="M1160 2310 c-173 -24 -328 -73 -482 -152 -242 -124 -412 -303 -484
-513 -38 -108 -41 -264 -7 -370 74 -232 285 -415 593 -513 229 -73 415 -64
500 23 43 44 51 104 22 161 -27 52 -107 126 -173 159 -311 157 -470 389 -415
606 78 303 483 474 994 418 118 -12 308 -50 419 -82 45 -13 80 -20 76 -14 -9
15 -134 92 -218 135 -106 53 -234 97 -353 122 -111 24 -368 34 -472 20z"/>
<path d="M1425 1784 c-74 -19 -116 -39 -144 -68 -92 -95 -22 -229 175 -335
239 -129 366 -274 396 -453 21 -121 -33 -261 -137 -355 -67 -61 -245 -147
-370 -178 -232 -59 -588 -36 -912 58 -46 14 -80 20 -77 15 10 -16 134 -93 219
-136 107 -53 234 -97 358 -124 134 -28 405 -31 543 -5 395 73 712 283 850 562
162 328 47 660 -301 868 -78 46 -210 99 -316 127 -81 20 -243 34 -284 24z"/>
</g>
</svg>
