<?xml version="1.0" standalone="no"?>
<!DOCTYPE svg PUBLIC "-//W3C//DTD SVG 20010904//EN"
 "http://www.w3.org/TR/2001/REC-SVG-20010904/DTD/svg10.dtd">
<svg version="1.0" xmlns="http://www.w3.org/2000/svg"
 width="256.000000pt" height="256.000000pt" viewBox="0 0 256.000000 256.000000"
 preserveAspectRatio="xMidYMid meet">

<g transform="translate(0.000000,256.000000) scale(0.100000,-0.100000)"
fill="#000000" stroke="none">
<path d="M160 1875 l0 -125 375 0 375 0 0 -125 0 -125 -375 0 -375 0 0 -125 0
-125 375 0 375 0 0 -370 0 -370 125 0 125 0 0 370 0 370 120 0 120 0 0 -370 0
-370 125 0 125 0 0 370 0 370 375 0 375 0 0 125 0 125 -375 0 -375 0 0 125 0
125 375 0 375 0 0 125 0 125 -375 0 -375 0 0 -125 0 -125 -125 0 -125 0 0 125
0 125 -120 0 -120 0 0 -125 0 -125 -125 0 -125 0 0 125 0 125 -375 0 -375 0 0
-125z m1240 -250 l0 -125 125 0 125 0 0 -125 0 -125 -125 0 -125 0 0 125 0
125 -120 0 -120 0 0 -125 0 -125 -125 0 -125 0 0 125 0 125 125 0 125 0 0 125
0 125 120 0 120 0 0 -125z"/>
</g>
</svg>
