<?xml version="1.0" standalone="no"?>
<!DOCTYPE svg PUBLIC "-//W3C//DTD SVG 20010904//EN"
 "http://www.w3.org/TR/2001/REC-SVG-20010904/DTD/svg10.dtd">
<svg version="1.0" xmlns="http://www.w3.org/2000/svg"
 width="256.000000pt" height="256.000000pt" viewBox="0 0 256.000000 256.000000"
 preserveAspectRatio="xMidYMid meet">

<g transform="translate(0.000000,256.000000) scale(0.100000,-0.100000)"
fill="#000000" stroke="none">
<path d="M260 2335 l0 -145 300 0 300 0 0 -214 0 -214 -163 -4 -164 -3 -98
-49 c-270 -134 -402 -405 -340 -701 42 -200 212 -403 411 -491 50 -22 68 -24
204 -24 l150 0 0 -195 0 -196 143 3 142 3 3 193 2 192 225 0 225 0 2 -192 3
-193 143 -3 142 -3 0 196 0 195 295 0 295 0 0 145 0 145 -295 0 -295 0 0 345
0 345 295 0 295 0 0 145 0 145 -295 0 -295 0 0 215 0 215 270 0 270 0 0 145 0
145 -1085 0 -1085 0 0 -145z m1340 -360 l0 -215 -225 0 -225 0 0 215 0 215
225 0 225 0 0 -215z m-740 -850 l0 -345 -120 0 c-103 0 -127 3 -163 21 -58 30
-136 114 -172 184 -27 55 -30 69 -30 160 0 89 3 105 27 150 31 59 97 124 153
153 34 18 59 21 173 22 l132 0 0 -345z m740 0 l0 -345 -225 0 -225 0 0 345 0
345 225 0 225 0 0 -345z"/>
</g>
</svg>
