<?xml version="1.0" standalone="no"?>
<!DOCTYPE svg PUBLIC "-//W3C//DTD SVG 20010904//EN"
 "http://www.w3.org/TR/2001/REC-SVG-20010904/DTD/svg10.dtd">
<svg version="1.0" xmlns="http://www.w3.org/2000/svg"
 width="256.000000pt" height="256.000000pt" viewBox="0 0 256.000000 256.000000"
 preserveAspectRatio="xMidYMid meet">

<g transform="translate(0.000000,256.000000) scale(0.100000,-0.100000)"
fill="#000000" stroke="none">
<path d="M898 2242 c-279 -101 -450 -168 -473 -186 -20 -15 -52 -51 -71 -80
-34 -52 -37 -63 -115 -507 -59 -330 -79 -467 -75 -502 9 -81 46 -147 117 -209
203 -178 661 -551 698 -569 24 -11 74 -23 110 -26 65 -5 70 -4 500 151 239 86
450 166 468 177 45 28 100 94 118 143 8 23 49 235 91 471 56 317 74 445 71
486 -6 65 -42 141 -89 186 -105 100 -690 579 -728 596 -27 12 -73 22 -115 24
-69 3 -77 1 -507 -155z m417 -443 c2 -3 -5 -49 -16 -104 -10 -55 -19 -103 -19
-107 0 -5 68 -8 150 -8 172 0 160 9 137 -105 l-13 -60 -155 -3 -155 -2 -32
-168 c-38 -199 -40 -247 -13 -262 11 -5 74 -10 140 -10 139 0 131 9 102 -110
l-18 -75 -151 -3 c-125 -2 -158 0 -184 14 -127 64 -153 180 -99 432 42 194 44
182 -33 182 l-63 0 14 73 15 73 66 34 c60 31 172 129 222 195 12 15 26 20 58
19 23 -1 44 -3 47 -5z"/>
</g>
</svg>
