<?xml version="1.0" standalone="no"?>
<!DOCTYPE svg PUBLIC "-//W3C//DTD SVG 20010904//EN"
 "http://www.w3.org/TR/2001/REC-SVG-20010904/DTD/svg10.dtd">
<svg version="1.0" xmlns="http://www.w3.org/2000/svg"
 width="256.000000pt" height="256.000000pt" viewBox="0 0 256.000000 256.000000"
 preserveAspectRatio="xMidYMid meet">

<g transform="translate(0.000000,256.000000) scale(0.100000,-0.100000)"
fill="#000000" stroke="none">
<path d="M1184 2371 c-2 -170 -46 -303 -143 -432 -28 -36 -121 -140 -208 -230
-88 -91 -180 -194 -206 -230 -130 -183 -171 -374 -132 -616 56 -344 292 -608
654 -732 66 -23 192 -54 195 -49 2 2 14 24 29 49 51 90 135 152 315 232 135
61 208 106 275 174 64 63 91 111 119 208 31 109 34 369 4 455 -31 93 -84 183
-159 274 l-71 87 -12 -61 c-15 -73 -43 -114 -94 -140 -99 -51 -244 3 -270 100
-10 40 -6 62 41 195 84 239 26 471 -170 679 -55 58 -146 136 -159 136 -4 0 -7
-44 -8 -99z m574 -1338 l-3 -148 -155 -2 -155 -1 -3 -157 -3 -156 -147 3 -147
3 -2 153 -2 153 -153 2 -153 2 -3 148 -3 147 466 0 466 0 -3 -147z"/>
<path d="M1814 2120 c-5 -35 -18 -68 -41 -102 -49 -70 -65 -113 -65 -173 -1
-67 25 -120 75 -156 48 -35 63 -36 78 -6 6 12 30 42 54 67 23 25 45 57 49 71
16 70 -36 217 -108 307 l-35 44 -7 -52z"/>
</g>
</svg>
