<?xml version="1.0" standalone="no"?>
<!DOCTYPE svg PUBLIC "-//W3C//DTD SVG 20010904//EN"
 "http://www.w3.org/TR/2001/REC-SVG-20010904/DTD/svg10.dtd">
<svg version="1.0" xmlns="http://www.w3.org/2000/svg"
 width="256.000000pt" height="256.000000pt" viewBox="0 0 256.000000 256.000000"
 preserveAspectRatio="xMidYMid meet">

<g transform="translate(0.000000,256.000000) scale(0.100000,-0.100000)"
fill="#000000" stroke="none">
<path d="M617 2422 l-57 -58 0 -1085 0 -1085 58 -57 58 -57 604 0 604 0 58 57
58 57 0 1085 0 1085 -57 58 -57 58 -606 0 -606 0 -57 -58z m1153 -1142 l0
-960 -490 0 -490 0 0 960 0 960 490 0 490 0 0 -960z"/>
<path d="M1170 1745 l0 -135 -125 0 -126 0 3 -115 3 -116 360 0 360 0 0 113 0
113 -122 3 -123 3 0 134 0 135 -115 0 -115 0 0 -135z"/>
<path d="M920 1055 l0 -115 125 0 125 0 0 -135 0 -135 115 0 115 0 0 135 0
135 125 0 125 0 0 115 0 115 -365 0 -365 0 0 -115z"/>
</g>
</svg>
