<?xml version="1.0" standalone="no"?>
<!DOCTYPE svg PUBLIC "-//W3C//DTD SVG 20010904//EN"
 "http://www.w3.org/TR/2001/REC-SVG-20010904/DTD/svg10.dtd">
<svg version="1.0" xmlns="http://www.w3.org/2000/svg"
 width="256.000000pt" height="256.000000pt" viewBox="0 0 256.000000 256.000000"
 preserveAspectRatio="xMidYMid meet">

<g transform="translate(0.000000,256.000000) scale(0.100000,-0.100000)"
fill="#000000" stroke="none">
<path d="M1092 2384 c-467 -78 -840 -455 -917 -925 -122 -752 532 -1406 1284
-1284 475 77 849 451 926 926 48 301 -29 610 -213 855 -249 330 -670 497
-1080 428z m287 -254 c332 -42 606 -264 710 -576 154 -460 -98 -950 -562
-1093 -438 -134 -910 110 -1056 545 -151 451 88 933 537 1084 135 45 238 56
371 40z"/>
<path d="M1110 1673 c-87 -27 -90 -38 -90 -323 0 -210 2 -244 17 -267 32 -48
62 -53 319 -53 260 0 291 6 319 61 26 49 19 97 -19 135 l-34 34 -186 0 -186 0
0 155 c0 169 -9 212 -52 238 -28 18 -67 27 -88 20z"/>
</g>
</svg>
