<?xml version="1.0" standalone="no"?>
<!DOCTYPE svg PUBLIC "-//W3C//DTD SVG 20010904//EN"
 "http://www.w3.org/TR/2001/REC-SVG-20010904/DTD/svg10.dtd">
<svg version="1.0" xmlns="http://www.w3.org/2000/svg"
 width="256.000000pt" height="256.000000pt" viewBox="0 0 256.000000 256.000000"
 preserveAspectRatio="xMidYMid meet">

<g transform="translate(0.000000,256.000000) scale(0.100000,-0.100000)"
fill="#000000" stroke="none">
<path d="M1110 2141 c-228 -50 -424 -184 -549 -376 -82 -125 -141 -307 -141
-435 0 -46 -2 -49 -55 -90 -81 -62 -216 -208 -248 -268 -40 -74 -46 -146 -15
-192 56 -84 212 -120 430 -100 l118 11 58 -49 c115 -98 205 -148 339 -188 272
-80 587 -14 800 169 189 163 294 373 310 619 l6 97 80 68 c150 126 244 271
235 358 -10 81 -67 128 -186 154 -65 14 -233 14 -326 1 l-70 -10 -35 34 c-80
76 -235 157 -366 192 -96 25 -284 28 -385 5z m290 -215 c230 -42 414 -195 496
-413 30 -78 35 -69 -91 -147 l-89 -55 -37 33 c-53 48 -115 69 -191 64 -147
-10 -249 -116 -253 -263 l-2 -60 -109 -38 c-111 -39 -346 -107 -371 -107 -20
0 -81 133 -98 215 -76 358 168 713 533 775 71 12 129 11 212 -4z m820 -224 c0
-10 -108 -117 -112 -111 -10 15 -48 101 -48 109 0 6 35 10 80 10 44 0 80 -4
80 -8z m-632 -440 c84 -61 79 -188 -11 -242 -95 -58 -217 10 -217 121 0 118
133 188 228 121z m332 -114 c-1 -41 -57 -166 -103 -231 -184 -258 -519 -346
-804 -212 -40 19 -73 38 -73 43 0 4 37 19 83 32 45 12 143 45 217 73 116 43
139 48 165 39 59 -20 95 -23 149 -12 95 19 170 84 202 175 8 21 30 42 80 72
38 23 72 42 77 42 4 1 7 -9 7 -21z m-1436 -191 l24 -57 -85 0 c-80 0 -85 1
-72 18 29 39 94 102 102 99 4 -1 19 -28 31 -60z"/>
</g>
</svg>
