<?xml version="1.0" standalone="no"?>
<!DOCTYPE svg PUBLIC "-//W3C//DTD SVG 20010904//EN"
 "http://www.w3.org/TR/2001/REC-SVG-20010904/DTD/svg10.dtd">
<svg version="1.0" xmlns="http://www.w3.org/2000/svg"
 width="256.000000pt" height="256.000000pt" viewBox="0 0 256.000000 256.000000"
 preserveAspectRatio="xMidYMid meet">

<g transform="translate(0.000000,256.000000) scale(0.100000,-0.100000)"
fill="#000000" stroke="none">
<path d="M1318 2305 c-47 -8 -112 -22 -145 -31 -138 -40 -306 -128 -338 -178
-16 -24 -15 -27 13 -69 49 -70 209 -217 237 -217 13 0 53 16 88 35 84 46 200
75 301 75 206 -1 377 -89 512 -265 77 -102 126 -137 198 -143 43 -3 65 1 110
21 49 23 60 33 78 74 26 58 27 136 3 183 -22 44 -108 159 -169 227 -109 121
-293 232 -451 274 -105 27 -315 34 -437 14z"/>
<path d="M663 1928 c-55 -63 -130 -207 -162 -315 -28 -94 -60 -123 -137 -123
-98 0 -184 -69 -199 -160 -13 -78 46 -193 112 -218 16 -6 58 -14 95 -17 59 -6
71 -10 93 -37 14 -16 25 -36 25 -43 0 -43 56 -183 100 -248 59 -88 216 -241
322 -315 146 -100 333 -172 450 -172 l48 0 0 183 c0 207 1 203 -80 232 -122
43 -330 255 -365 373 l-6 22 144 0 c159 0 216 11 273 55 107 81 98 264 -17
322 -47 25 -202 43 -367 43 -61 0 -84 4 -88 14 -3 8 12 46 32 86 l38 71 -18
34 c-26 48 -152 182 -198 211 -47 30 -69 30 -95 2z"/>
<path d="M2100 1068 c-26 -13 -62 -46 -87 -78 -127 -164 -226 -247 -333 -276
-141 -39 -141 -40 -143 -226 -2 -149 6 -188 45 -211 39 -25 300 65 436 150
167 103 382 371 382 476 0 88 -91 170 -202 183 -43 4 -61 1 -98 -18z"/>
</g>
</svg>
