<?xml version="1.0" standalone="no"?>
<!DOCTYPE svg PUBLIC "-//W3C//DTD SVG 20010904//EN"
 "http://www.w3.org/TR/2001/REC-SVG-20010904/DTD/svg10.dtd">
<svg version="1.0" xmlns="http://www.w3.org/2000/svg"
 width="256.000000pt" height="256.000000pt" viewBox="0 0 256.000000 256.000000"
 preserveAspectRatio="xMidYMid meet">

<g transform="translate(0.000000,256.000000) scale(0.100000,-0.100000)"
fill="#000000" stroke="none">
<path d="M1200 2382 c-30 -15 -45 -37 -109 -167 -62 -125 -75 -160 -79 -211
-5 -72 7 -101 70 -165 62 -64 108 -84 193 -84 87 1 134 23 199 95 53 60 71
110 62 172 -4 23 -40 108 -79 188 -56 114 -79 150 -106 168 -41 27 -102 29
-151 4z"/>
<path d="M876 1759 c-31 -67 -55 -124 -53 -126 2 -2 52 19 111 47 75 35 106
55 103 64 -8 20 -91 135 -98 136 -3 0 -31 -55 -63 -121z"/>
<path d="M1550 1808 l-51 -73 111 -54 c61 -29 113 -52 115 -50 4 5 -112 249
-119 249 -2 0 -28 -33 -56 -72z"/>
<path d="M1215 1659 c-101 -12 -185 -38 -294 -92 l-104 -52 227 -3 c124 -1
328 -1 454 0 l227 3 -91 47 c-151 78 -294 111 -419 97z"/>
<path d="M721 1416 c-24 -14 -71 -81 -71 -103 0 -10 65 -13 290 -13 l290 0 0
-570 0 -570 45 0 45 0 0 570 0 570 290 0 c160 0 290 2 290 5 0 15 -41 82 -60
100 -21 19 -38 20 -559 22 -432 2 -541 0 -560 -11z"/>
<path d="M601 1186 c-12 -13 -34 -57 -49 -97 -22 -64 -26 -90 -26 -189 -1
-327 186 -581 516 -704 35 -13 75 -26 91 -30 l27 -6 0 513 c0 386 -3 516 -12
525 -9 9 -82 12 -268 12 l-257 0 -22 -24z"/>
<path d="M1397 1203 c-7 -6 -10 -1043 -4 -1043 13 0 143 47 195 71 326 147
509 527 408 845 -14 45 -35 93 -47 108 l-20 26 -263 0 c-144 0 -266 -3 -269
-7z"/>
<path d="M390 750 c-23 -45 -38 -86 -33 -90 11 -9 125 -51 129 -48 3 4 -45
210 -51 216 -2 2 -22 -33 -45 -78z"/>
<path d="M2107 820 c-9 -25 -47 -189 -47 -199 0 -9 117 25 132 38 3 3 -13 44
-37 91 -26 51 -45 79 -48 70z"/>
<path d="M298 543 c-29 -32 -130 -245 -135 -282 -3 -25 2 -46 16 -68 l21 -33
178 0 c174 0 179 1 201 23 50 55 33 196 -34 274 -68 79 -209 128 -247 86z"/>
<path d="M2120 543 c-60 -22 -152 -114 -168 -169 -19 -64 -15 -144 8 -182 l20
-32 181 2 182 3 20 28 c33 44 25 85 -43 220 -33 67 -68 128 -77 135 -22 16
-67 14 -123 -5z"/>
<path d="M681 237 c-6 -35 -11 -67 -11 -70 0 -4 46 -7 103 -7 l102 1 -35 30
c-19 16 -60 47 -91 69 l-57 40 -11 -63z"/>
<path d="M1760 233 c-46 -35 -86 -66 -89 -69 -2 -2 43 -4 101 -4 l105 0 -11
64 c-6 36 -13 67 -16 69 -3 2 -43 -24 -90 -60z"/>
</g>
</svg>
