<?xml version="1.0" standalone="no"?>
<!DOCTYPE svg PUBLIC "-//W3C//DTD SVG 20010904//EN"
 "http://www.w3.org/TR/2001/REC-SVG-20010904/DTD/svg10.dtd">
<svg version="1.0" xmlns="http://www.w3.org/2000/svg"
 width="256.000000pt" height="256.000000pt" viewBox="0 0 256.000000 256.000000"
 preserveAspectRatio="xMidYMid meet">

<g transform="translate(0.000000,256.000000) scale(0.100000,-0.100000)"
fill="#000000" stroke="none">
<path d="M1484 2470 c-11 -4 -51 -45 -88 -89 l-68 -81 -389 0 -390 0 -97 -87
c-179 -161 -247 -225 -259 -247 -18 -31 -16 -65 16 -236 l29 -154 -19 -54
c-126 -365 -30 -1045 193 -1370 51 -74 71 -79 260 -58 301 33 558 86 697 144
125 53 361 223 452 325 40 46 76 60 274 103 120 26 119 25 195 304 35 129 63
249 63 265 -1 20 -65 143 -187 357 -102 180 -186 333 -186 340 0 7 23 100 52
206 50 188 51 193 35 227 -27 57 -44 63 -295 90 -255 27 -258 28 -288 15z
m223 -231 c62 -7 113 -16 113 -22 0 -5 -18 -76 -40 -157 -38 -139 -40 -151
-27 -183 8 -18 92 -170 187 -337 94 -166 174 -309 177 -317 3 -8 -14 -88 -38
-178 l-44 -164 -70 -17 c-38 -9 -106 -28 -150 -42 -77 -23 -84 -28 -170 -116
-156 -159 -317 -259 -496 -306 -113 -30 -368 -73 -506 -86 l-73 -7 -35 76
c-153 338 -199 860 -95 1095 26 58 25 85 -6 256 l-25 141 39 35 c22 19 73 65
115 103 l74 67 381 0 c215 0 392 4 406 9 13 6 53 44 88 85 34 42 67 76 72 76
5 0 61 -5 123 -11z"/>
</g>
</svg>
