<?xml version="1.0" standalone="no"?>
<!DOCTYPE svg PUBLIC "-//W3C//DTD SVG 20010904//EN"
 "http://www.w3.org/TR/2001/REC-SVG-20010904/DTD/svg10.dtd">
<svg version="1.0" xmlns="http://www.w3.org/2000/svg"
 width="256.000000pt" height="256.000000pt" viewBox="0 0 256.000000 256.000000"
 preserveAspectRatio="xMidYMid meet">

<g transform="translate(0.000000,256.000000) scale(0.100000,-0.100000)"
fill="#000000" stroke="none">
<path d="M120 1718 c-6 -24 -18 -65 -26 -92 -8 -27 -14 -51 -14 -53 0 -2 55
-2 122 -1 l123 3 21 65 c11 36 24 77 28 93 l6 27 -124 0 -125 0 -11 -42z"/>
<path d="M426 1743 c-7 -24 -216 -961 -216 -968 0 -3 57 -4 127 -3 l126 3 88
395 c49 217 89 396 89 398 0 1 72 2 160 2 121 0 160 -3 160 -12 0 -7 -42 -186
-93 -398 l-93 -385 114 -3 c63 -1 117 0 120 2 6 6 222 952 222 973 0 11 -72
13 -399 13 -372 0 -400 -1 -405 -17z"/>
<path d="M1666 1743 c-11 -40 -206 -944 -206 -958 0 -14 35 -16 293 -13 l292
3 83 33 c108 44 158 83 196 154 28 52 34 58 64 58 33 0 42 11 58 75 6 24 4 25
-40 25 -45 0 -45 1 -56 41 -14 51 -42 79 -102 104 -27 11 -48 22 -48 25 0 3
29 20 64 38 36 19 72 44 81 58 12 19 24 24 60 24 43 0 45 1 54 38 20 75 19 77
-20 80 -33 3 -36 6 -48 49 -19 71 -87 135 -175 162 -61 19 -92 21 -306 21
-219 0 -239 -1 -244 -17z m415 -186 c69 -46 40 -152 -49 -177 -20 -5 -75 -10
-121 -10 -81 0 -83 1 -78 23 3 12 13 59 23 105 l17 82 87 0 c74 0 92 -3 121
-23z m-46 -381 c99 -42 62 -175 -58 -211 -52 -15 -247 -21 -247 -7 0 4 12 58
27 120 l27 112 108 0 c71 0 120 -5 143 -14z"/>
<path d="M1287 1713 c-3 -10 -22 -90 -42 -178 l-37 -161 101 -239 c55 -132
102 -233 105 -225 3 8 23 95 45 194 l39 178 -100 222 c-55 121 -102 222 -103
224 -2 2 -6 -5 -8 -15z"/>
</g>
</svg>
