<?xml version="1.0" standalone="no"?>
<!DOCTYPE svg PUBLIC "-//W3C//DTD SVG 20010904//EN"
 "http://www.w3.org/TR/2001/REC-SVG-20010904/DTD/svg10.dtd">
<svg version="1.0" xmlns="http://www.w3.org/2000/svg"
 width="256.000000pt" height="256.000000pt" viewBox="0 0 256.000000 256.000000"
 preserveAspectRatio="xMidYMid meet">

<g transform="translate(0.000000,256.000000) scale(0.100000,-0.100000)"
fill="#000000" stroke="none">
<path d="M742 2207 l-183 -183 3 -625 c4 -691 2 -667 72 -814 92 -195 273
-344 486 -402 101 -27 292 -25 390 6 302 94 514 347 537 641 l6 80 -185 0
-186 0 -7 -55 c-9 -78 -56 -165 -121 -224 -73 -67 -144 -94 -251 -94 -74 -1
-88 2 -156 36 -88 44 -137 94 -181 186 l-31 66 -3 228 -4 227 378 0 378 0 178
177 c98 98 178 181 178 185 0 4 -249 9 -552 10 l-553 3 -5 368 -5 367 -183
-183z"/>
</g>
</svg>
