<?xml version="1.0" standalone="no"?>
<!DOCTYPE svg PUBLIC "-//W3C//DTD SVG 20010904//EN"
 "http://www.w3.org/TR/2001/REC-SVG-20010904/DTD/svg10.dtd">
<svg version="1.0" xmlns="http://www.w3.org/2000/svg"
 width="256.000000pt" height="256.000000pt" viewBox="0 0 256.000000 256.000000"
 preserveAspectRatio="xMidYMid meet">

<g transform="translate(0.000000,256.000000) scale(0.100000,-0.100000)"
fill="#000000" stroke="none">
<path d="M395 2386 c-61 -19 -96 -40 -139 -83 -79 -78 -115 -212 -83 -311 21
-63 990 -1758 1028 -1797 25 -25 37 -30 79 -30 42 0 54 5 79 30 28 29 974
1647 1015 1735 30 66 29 207 -1 272 -30 66 -104 141 -166 169 l-52 24 -860 2
c-675 2 -869 -1 -900 -11z m765 -938 c0 -392 -4 -708 -8 -703 -5 6 -176 303
-380 660 -244 426 -372 660 -372 678 0 16 10 38 25 52 l24 25 356 0 355 0 0
-712z m955 706 c22 -9 45 -57 45 -95 0 -23 -92 -190 -362 -653 -199 -341 -370
-634 -380 -651 -17 -29 -18 -11 -18 688 l0 717 349 0 c192 0 357 -3 366 -6z"/>
</g>
</svg>
