<?xml version="1.0" standalone="no"?>
<!DOCTYPE svg PUBLIC "-//W3C//DTD SVG 20010904//EN"
 "http://www.w3.org/TR/2001/REC-SVG-20010904/DTD/svg10.dtd">
<svg version="1.0" xmlns="http://www.w3.org/2000/svg"
 width="256.000000pt" height="256.000000pt" viewBox="0 0 256.000000 256.000000"
 preserveAspectRatio="xMidYMid meet">

<g transform="translate(0.000000,256.000000) scale(0.100000,-0.100000)"
fill="#000000" stroke="none">
<path d="M994 2356 c-150 -48 -312 -152 -413 -262 -305 -333 -344 -817 -96
-1188 49 -75 151 -185 218 -237 15 -12 26 -23 24 -25 -2 -2 -38 5 -81 16 -214
55 -387 217 -458 430 l-18 55 6 -45 c10 -79 70 -237 120 -321 58 -95 160 -209
247 -275 83 -63 242 -137 347 -163 369 -89 746 42 989 344 l32 40 -7 -45 c-10
-72 -58 -183 -108 -254 -70 -98 -167 -174 -285 -222 -76 -32 -41 -30 61 2 314
99 551 349 639 674 20 72 23 108 23 240 -1 189 -18 264 -99 425 -62 126 -143
229 -245 312 -38 31 -68 58 -66 60 1 2 38 -6 80 -17 128 -32 200 -74 296 -170
86 -85 125 -145 161 -243 22 -62 25 -37 4 42 -73 281 -298 537 -567 644 -134
54 -181 62 -363 62 -147 0 -181 -3 -250 -23 -180 -51 -369 -174 -482 -313 -69
-83 -76 -74 -39 44 62 198 187 328 406 425 44 19 -3 12 -76 -12z m409 -707
c258 -84 354 -406 187 -618 -78 -98 -187 -151 -313 -151 -160 0 -287 81 -359
228 -30 61 -33 74 -33 162 1 120 25 186 97 265 114 125 265 165 421 114z"/>
</g>
</svg>
