<?xml version="1.0" standalone="no"?>
<!DOCTYPE svg PUBLIC "-//W3C//DTD SVG 20010904//EN"
 "http://www.w3.org/TR/2001/REC-SVG-20010904/DTD/svg10.dtd">
<svg version="1.0" xmlns="http://www.w3.org/2000/svg"
 width="256.000000pt" height="256.000000pt" viewBox="0 0 256.000000 256.000000"
 preserveAspectRatio="xMidYMid meet">

<g transform="translate(0.000000,256.000000) scale(0.100000,-0.100000)"
fill="#000000" stroke="none">
<path d="M124 2068 c-41 -19 -46 -45 -42 -225 4 -225 -7 -213 185 -213 l143 0
0 -528 c0 -525 0 -529 21 -548 19 -17 41 -19 226 -22 146 -2 209 0 219 9 12
10 14 97 14 550 l0 539 85 0 c94 0 121 9 192 66 131 107 101 285 -64 368 -28
14 -87 16 -495 15 -297 0 -471 -4 -484 -11z"/>
<path d="M1716 2064 c-210 -47 -375 -210 -445 -438 -20 -65 -21 -89 -21 -542
0 -332 3 -480 11 -498 22 -46 62 -56 236 -56 127 0 163 3 181 16 43 30 52 64
52 203 l0 129 57 -15 c99 -26 264 5 395 74 129 67 232 216 278 397 25 100 25
172 0 272 -55 219 -196 377 -392 439 -104 33 -254 41 -352 19z m197 -468 c52
-22 79 -59 85 -114 8 -89 -49 -152 -136 -152 -83 0 -137 54 -137 137 0 60 23
99 76 125 41 22 69 23 112 4z"/>
</g>
</svg>
