<?xml version="1.0" standalone="no"?>
<!DOCTYPE svg PUBLIC "-//W3C//DTD SVG 20010904//EN"
 "http://www.w3.org/TR/2001/REC-SVG-20010904/DTD/svg10.dtd">
<svg version="1.0" xmlns="http://www.w3.org/2000/svg"
 width="256.000000pt" height="256.000000pt" viewBox="0 0 256.000000 256.000000"
 preserveAspectRatio="xMidYMid meet">

<g transform="translate(0.000000,256.000000) scale(0.100000,-0.100000)"
fill="#000000" stroke="none">
<path d="M850 2389 c-253 -13 -391 -28 -430 -47 -61 -30 -70 -63 -70 -258 0
-199 4 -225 38 -259 32 -32 70 -42 218 -54 497 -43 1396 -25 1522 30 66 28 72
53 72 276 0 171 -2 191 -20 221 -11 18 -36 40 -54 47 -101 42 -826 67 -1276
44z"/>
<path d="M415 1351 c-55 -23 -66 -67 -86 -331 -13 -169 -7 -501 11 -660 12
-102 28 -141 73 -174 27 -20 40 -21 294 -21 250 0 265 1 279 19 12 17 14 98
14 480 0 424 -2 464 -19 501 -26 58 -88 109 -162 134 -100 33 -367 67 -404 52z"/>
<path d="M1937 1345 c-276 -34 -378 -92 -407 -229 -7 -34 -10 -201 -8 -485 l3
-433 24 -19 c23 -19 38 -20 281 -17 224 3 259 5 283 21 64 42 77 120 84 494 7
379 -13 619 -57 658 -26 23 -78 26 -203 10z"/>
</g>
</svg>
