<?xml version="1.0" standalone="no"?>
<!DOCTYPE svg PUBLIC "-//W3C//DTD SVG 20010904//EN"
 "http://www.w3.org/TR/2001/REC-SVG-20010904/DTD/svg10.dtd">
<svg version="1.0" xmlns="http://www.w3.org/2000/svg"
 width="256.000000pt" height="256.000000pt" viewBox="0 0 256.000000 256.000000"
 preserveAspectRatio="xMidYMid meet">

<g transform="translate(0.000000,256.000000) scale(0.100000,-0.100000)"
fill="#000000" stroke="none">
<path d="M752 1487 l-32 -33 0 -221 c0 -189 2 -222 16 -234 11 -9 20 -10 32
-2 15 9 18 39 22 229 l5 219 184 3 c127 2 188 -1 197 -9 18 -14 19 -130 2
-147 -7 -7 -44 -12 -94 -12 -62 0 -87 -4 -98 -16 -22 -21 -15 -32 112 -157 76
-76 115 -108 128 -105 42 8 27 40 -57 124 l-84 84 52 0 c41 0 58 5 82 26 31
26 31 26 31 128 0 99 -1 103 -28 129 l-28 27 -205 0 -205 0 -32 -33z"/>
<path d="M1387 1492 l-27 -28 0 -195 0 -195 38 -37 38 -37 182 0 182 0 30 42
30 41 0 187 0 186 -33 32 -33 32 -190 0 -190 0 -27 -28z m401 -217 c2 -118 -1
-177 -9 -192 -12 -22 -17 -23 -163 -23 -205 0 -196 -10 -196 205 0 113 4 165
12 173 9 9 59 12 183 10 l170 -3 3 -170z"/>
<path d="M1987 1514 c-4 -4 -7 -57 -7 -119 0 -108 1 -112 28 -138 24 -23 36
-26 112 -29 l85 -3 5 -110 c5 -109 5 -110 30 -110 25 0 25 1 30 110 l5 110 78
5 c71 5 81 8 103 33 23 27 24 35 22 134 -3 90 -6 108 -21 117 -32 20 -47 -16
-47 -114 0 -54 -5 -91 -12 -98 -15 -15 -315 -17 -338 -2 -11 7 -16 36 -20 112
-5 94 -7 103 -25 106 -12 2 -24 0 -28 -4z"/>
<path d="M89 1494 c-9 -11 -10 -20 -2 -32 8 -14 30 -18 122 -20 l111 -3 0
-213 c0 -223 4 -245 44 -230 14 5 16 32 16 225 l0 219 104 0 c116 0 136 4 136
29 0 39 -16 41 -271 41 -213 0 -248 -2 -260 -16z"/>
</g>
</svg>
