<?xml version="1.0" standalone="no"?>
<!DOCTYPE svg PUBLIC "-//W3C//DTD SVG 20010904//EN"
 "http://www.w3.org/TR/2001/REC-SVG-20010904/DTD/svg10.dtd">
<svg version="1.0" xmlns="http://www.w3.org/2000/svg"
 width="256.000000pt" height="256.000000pt" viewBox="0 0 256.000000 256.000000"
 preserveAspectRatio="xMidYMid meet">

<g transform="translate(0.000000,256.000000) scale(0.100000,-0.100000)"
fill="#000000" stroke="none">
<path d="M130 1830 c0 -193 3 -250 13 -250 6 0 40 7 75 15 171 41 282 146 373
354 20 47 40 96 44 109 l6 22 -255 0 -256 0 0 -250z"/>
<path d="M805 2039 c-28 -26 -62 -75 -94 -137 -27 -53 -180 -324 -340 -601
l-291 -505 164 -97 c213 -126 245 -143 249 -138 2 2 135 238 297 524 161 286
298 526 304 532 9 10 44 9 171 -7 88 -11 172 -22 188 -25 l27 -4 0 249 0 250
-315 0 -315 0 -45 -41z"/>
<path d="M1845 2064 c-45 -23 -62 -42 -88 -94 -13 -26 -149 -255 -302 -508
l-278 -462 -194 0 -193 0 2 -221 3 -220 304 1 c253 0 308 3 333 16 62 32 112
98 192 249 180 344 362 657 418 721 l30 34 199 0 199 0 0 250 0 250 -297 0
c-251 0 -303 -3 -328 -16z"/>
<path d="M2151 1286 c-48 -17 -108 -71 -133 -119 -34 -65 -32 -167 5 -230 122
-207 432 -138 454 101 16 172 -162 307 -326 248z"/>
</g>
</svg>
