<?xml version="1.0" standalone="no"?>
<!DOCTYPE svg PUBLIC "-//W3C//DTD SVG 20010904//EN"
 "http://www.w3.org/TR/2001/REC-SVG-20010904/DTD/svg10.dtd">
<svg version="1.0" xmlns="http://www.w3.org/2000/svg"
 width="256.000000pt" height="256.000000pt" viewBox="0 0 256.000000 256.000000"
 preserveAspectRatio="xMidYMid meet">

<g transform="translate(0.000000,256.000000) scale(0.100000,-0.100000)"
fill="#000000" stroke="none">
<path d="M173 2454 c-14 -22 -15 -32 -5 -69 18 -66 179 -464 510 -1260 164
-396 325 -786 357 -867 63 -163 75 -184 97 -176 8 4 190 219 405 480 507 616
842 1024 876 1069 27 35 33 62 21 93 -7 17 -401 397 -436 420 -22 14 -500 106
-1381 266 -214 38 -397 70 -407 70 -11 0 -27 -12 -37 -26z m1005 -295 c336
-62 612 -115 611 -118 0 -6 -413 -356 -463 -393 -23 -17 -25 -16 -397 288
-206 168 -383 315 -394 326 l-20 20 25 -5 c14 -3 301 -56 638 -118z m-354
-302 c221 -187 404 -343 408 -346 4 -3 -20 -231 -52 -506 -33 -275 -60 -507
-60 -514 0 -9 -3 -11 -9 -5 -5 5 -133 313 -284 684 -152 371 -310 757 -351
858 -41 100 -70 179 -64 175 7 -3 192 -159 412 -346z m1260 7 c69 -64 126
-119 126 -123 0 -7 -699 -135 -706 -129 -5 6 428 367 442 367 6 1 68 -51 138
-115z m89 -298 c-40 -53 -907 -1095 -909 -1093 -4 4 111 976 116 981 4 3 740
127 803 135 5 1 0 -10 -10 -23z"/>
</g>
</svg>
