<?xml version="1.0" standalone="no"?>
<!DOCTYPE svg PUBLIC "-//W3C//DTD SVG 20010904//EN"
 "http://www.w3.org/TR/2001/REC-SVG-20010904/DTD/svg10.dtd">
<svg version="1.0" xmlns="http://www.w3.org/2000/svg"
 width="256.000000pt" height="256.000000pt" viewBox="0 0 256.000000 256.000000"
 preserveAspectRatio="xMidYMid meet">

<g transform="translate(0.000000,256.000000) scale(0.100000,-0.100000)"
fill="#000000" stroke="none">
<path d="M1095 2384 c-486 -88 -857 -472 -924 -958 -38 -272 32 -561 191 -793
95 -139 299 -321 334 -298 8 6 140 212 294 459 220 352 278 452 269 462 -9 11
-70 14 -310 14 -263 0 -299 2 -314 16 -9 10 -14 25 -12 36 3 10 148 248 322
530 175 281 318 518 319 527 1 22 -66 24 -169 5z"/>
<path d="M1832 2193 c-80 -116 -536 -862 -536 -878 -1 -20 6 -20 303 -23 204
-1 309 -6 318 -13 7 -6 13 -21 13 -33 0 -12 -145 -253 -322 -536 -176 -283
-323 -523 -326 -533 -6 -22 24 -22 144 -2 469 82 831 437 920 902 69 363 -56
759 -322 1014 -63 61 -150 129 -164 129 -5 0 -17 -12 -28 -27z"/>
</g>
</svg>
