<?xml version="1.0" standalone="no"?>
<!DOCTYPE svg PUBLIC "-//W3C//DTD SVG 20010904//EN"
 "http://www.w3.org/TR/2001/REC-SVG-20010904/DTD/svg10.dtd">
<svg version="1.0" xmlns="http://www.w3.org/2000/svg"
 width="256.000000pt" height="256.000000pt" viewBox="0 0 256.000000 256.000000"
 preserveAspectRatio="xMidYMid meet">

<g transform="translate(0.000000,256.000000) scale(0.100000,-0.100000)"
fill="#000000" stroke="none">
<path d="M1132 2298 c8 -13 158 -276 333 -585 l318 -563 188 0 c104 0 189 2
189 5 0 3 -147 266 -327 585 l-328 580 -193 0 -194 0 14 -22z"/>
<path d="M975 2139 c-44 -77 -81 -144 -83 -150 -2 -5 63 -9 162 -9 91 0 166 3
166 6 0 6 -160 294 -163 294 -1 0 -38 -63 -82 -141z"/>
<path d="M890 1903 c1 -5 43 -82 94 -173 l93 -165 192 -3 c105 -1 191 0 191 3
0 10 -184 330 -194 337 -14 10 -376 10 -376 1z"/>
<path d="M487 1278 l-327 -581 92 -164 c51 -90 96 -162 101 -160 9 3 646 1121
654 1147 4 15 -175 340 -187 340 -3 0 -152 -262 -333 -582z"/>
<path d="M1073 1478 c-14 -17 -183 -317 -183 -323 0 -3 86 -4 191 -3 l192 3
64 115 c36 63 78 139 94 168 l30 52 -189 0 c-140 0 -192 -3 -199 -12z"/>
<path d="M1432 1287 c-51 -90 -92 -169 -92 -177 0 -23 182 -332 191 -323 4 4
48 79 97 166 l90 159 -90 161 c-50 89 -94 165 -97 169 -4 4 -48 -66 -99 -155z"/>
<path d="M894 1063 c4 -10 48 -89 97 -175 l90 -158 184 0 c101 0 186 3 188 8
3 4 -38 82 -90 175 l-95 167 -190 0 c-176 0 -190 -1 -184 -17z"/>
<path d="M1692 917 c-51 -90 -92 -169 -92 -176 0 -8 48 -11 186 -9 l187 3 93
165 c52 91 94 168 94 173 0 4 -85 7 -188 7 l-188 0 -92 -163z"/>
<path d="M722 863 l-92 -166 92 -163 c50 -90 95 -164 99 -164 8 0 189 312 189
325 0 12 -183 335 -189 335 -3 0 -48 -75 -99 -167z"/>
<path d="M2144 885 c-45 -79 -79 -146 -76 -149 11 -11 322 -6 322 5 0 13 -153
289 -160 288 -3 0 -42 -64 -86 -144z"/>
<path d="M985 498 c-49 -89 -91 -165 -93 -170 -2 -4 293 -8 656 -8 l661 0 77
137 c42 76 85 153 96 170 l20 33 -664 0 -663 0 -90 -162z"/>
<path d="M501 469 c-45 -78 -81 -143 -81 -145 0 -2 74 -4 165 -4 91 0 165 3
165 6 0 11 -155 284 -162 284 -3 0 -43 -63 -87 -141z"/>
</g>
</svg>
