<?xml version="1.0" standalone="no"?>
<!DOCTYPE svg PUBLIC "-//W3C//DTD SVG 20010904//EN"
 "http://www.w3.org/TR/2001/REC-SVG-20010904/DTD/svg10.dtd">
<svg version="1.0" xmlns="http://www.w3.org/2000/svg"
 width="256.000000pt" height="256.000000pt" viewBox="0 0 256.000000 256.000000"
 preserveAspectRatio="xMidYMid meet">

<g transform="translate(0.000000,256.000000) scale(0.100000,-0.100000)"
fill="#000000" stroke="none">
<path d="M1110 2465 c-302 -51 -555 -199 -740 -434 -86 -109 -169 -251 -147
-251 1 0 60 7 131 15 205 24 362 60 584 134 114 38 252 81 307 95 372 94 695
82 930 -33 44 -22 81 -38 83 -36 2 2 -9 27 -24 56 -76 151 -317 320 -581 409
-170 57 -375 74 -543 45z"/>
<path d="M1800 1883 c-236 -19 -851 -135 -1175 -222 -38 -10 -142 -26 -231
-35 -88 -9 -183 -23 -211 -31 -47 -14 -52 -19 -74 -68 -21 -46 -24 -67 -24
-173 1 -141 8 -159 80 -193 106 -50 271 -45 475 15 69 20 254 71 411 114 l287
78 183 -59 c101 -33 227 -71 279 -85 105 -27 340 -60 524 -72 l119 -8 16 36
c12 27 16 68 15 180 0 131 -3 153 -28 230 -29 88 -107 252 -134 283 -14 15
-37 17 -241 15 -124 -1 -246 -3 -271 -5z"/>
<path d="M1890 1114 c-19 -2 -78 -9 -130 -15 -206 -24 -443 -81 -748 -180
-280 -91 -356 -111 -547 -149 -166 -32 -213 -52 -207 -86 6 -32 87 -136 160
-207 75 -71 136 -106 189 -107 59 0 230 38 486 109 619 172 884 223 980 192
35 -12 66 -45 50 -54 -5 -3 -39 -8 -78 -11 -130 -13 -190 -27 -310 -75 -143
-57 -327 -119 -485 -162 -110 -30 -125 -32 -342 -36 -126 -3 -228 -9 -228 -14
0 -4 10 -18 23 -30 214 -203 745 -251 1079 -96 239 110 496 374 624 642 43 87
47 160 12 192 -36 33 -78 50 -162 68 -77 15 -297 27 -366 19z"/>
</g>
</svg>
