<?xml version="1.0" standalone="no"?>
<!DOCTYPE svg PUBLIC "-//W3C//DTD SVG 20010904//EN"
 "http://www.w3.org/TR/2001/REC-SVG-20010904/DTD/svg10.dtd">
<svg version="1.0" xmlns="http://www.w3.org/2000/svg"
 width="256.000000pt" height="256.000000pt" viewBox="0 0 256.000000 256.000000"
 preserveAspectRatio="xMidYMid meet">

<g transform="translate(0.000000,256.000000) scale(0.100000,-0.100000)"
fill="#000000" stroke="none">
<path d="M1189 2351 c-207 -136 -422 -201 -667 -201 -119 0 -158 -13 -186 -62
-17 -29 -18 -48 -12 -242 18 -584 62 -872 165 -1081 85 -173 167 -247 471
-423 85 -49 189 -110 230 -136 44 -27 86 -46 104 -46 18 0 59 19 107 50 43 27
143 86 221 131 311 178 396 256 483 442 92 195 138 495 154 1007 8 268 4 300
-42 334 -24 18 -48 21 -180 27 -270 13 -436 64 -633 195 -102 68 -119 69 -215
5z m180 -251 c160 -95 340 -148 600 -178 l65 -7 -2 -110 c-6 -282 -36 -590
-73 -748 -54 -230 -128 -328 -340 -453 -57 -34 -155 -92 -217 -129 l-112 -66
-28 19 c-15 10 -103 63 -197 117 -200 115 -271 167 -325 239 -112 148 -162
411 -186 972 l-7 161 119 12 c201 22 378 76 539 165 44 25 84 45 88 45 5 1 39
-17 76 -39z"/>
</g>
</svg>
