<?xml version="1.0" standalone="no"?>
<!DOCTYPE svg PUBLIC "-//W3C//DTD SVG 20010904//EN"
 "http://www.w3.org/TR/2001/REC-SVG-20010904/DTD/svg10.dtd">
<svg version="1.0" xmlns="http://www.w3.org/2000/svg"
 width="256.000000pt" height="256.000000pt" viewBox="0 0 256.000000 256.000000"
 preserveAspectRatio="xMidYMid meet">

<g transform="translate(0.000000,256.000000) scale(0.100000,-0.100000)"
fill="#000000" stroke="none">
<path d="M1203 2386 c5 -13 747 -1077 806 -1155 14 -19 21 -32 14 -28 -6 4
-247 264 -534 577 -287 314 -529 570 -538 570 -9 0 -22 -4 -30 -9 -13 -8 -13
-12 0 -27 8 -10 234 -259 503 -554 269 -294 505 -553 525 -575 51 -56 59 -62
-632 518 -595 499 -631 527 -651 514 -11 -8 -21 -18 -20 -23 0 -5 284 -248
632 -539 585 -491 674 -567 647 -552 -5 3 -338 215 -740 471 -725 462 -730
465 -747 445 -10 -12 -18 -24 -17 -28 0 -3 328 -215 730 -470 401 -255 728
-465 726 -467 -2 -2 -360 163 -797 367 -729 339 -796 369 -807 353 -7 -10 -13
-23 -13 -28 0 -6 362 -180 804 -386 443 -206 803 -376 802 -377 -1 -2 -380
116 -841 262 -462 145 -840 263 -841 262 -1 -1 -4 -14 -8 -29 -7 -32 -128 10
968 -335 378 -120 684 -219 679 -220 -5 -2 -379 62 -831 142 -452 80 -824 145
-827 145 -11 0 -4 -48 7 -57 7 -5 384 -74 838 -154 453 -79 806 -145 785 -147
-22 -1 -384 13 -805 32 -421 19 -767 33 -768 31 -2 -2 2 -16 10 -32 l13 -28
720 -32 c396 -17 753 -32 794 -32 41 -1 72 -4 69 -7 -3 -3 -333 -34 -733 -69
-400 -35 -729 -66 -732 -68 -2 -3 3 -17 13 -32 15 -23 22 -25 58 -20 23 3 327
30 676 60 349 30 657 57 685 60 27 4 47 4 44 1 -3 -3 -290 -69 -639 -146 -349
-77 -635 -142 -637 -144 -2 -1 8 -13 22 -26 l25 -23 616 137 c339 75 618 135
620 133 2 -1 -231 -88 -516 -192 -286 -104 -516 -192 -512 -196 4 -3 21 -11
38 -18 29 -11 63 0 514 164 266 96 485 173 487 171 2 -2 -168 -93 -379 -202
l-383 -199 51 -8 52 -8 338 177 c187 97 347 180 357 185 51 27 -7 -16 -232
-172 -137 -96 -243 -175 -235 -177 8 -2 37 1 65 7 40 9 90 39 228 135 232 162
249 172 166 96 -38 -36 -92 -87 -120 -113 l-50 -48 40 16 c128 51 314 203 417
339 156 208 237 467 225 721 -6 114 -23 223 -38 240 -5 5 -9 -39 -9 -100 0
-61 -4 -116 -8 -122 -5 -7 -16 80 -26 193 -16 192 -19 211 -47 266 -17 33 -33
58 -36 55 -3 -3 5 -118 17 -256 12 -138 20 -255 18 -262 -2 -7 -39 148 -82
344 l-79 355 -39 39 -40 38 7 -35 c4 -19 45 -204 91 -410 45 -206 82 -376 80
-377 -1 -2 -81 211 -176 473 l-173 475 -39 20 c-21 11 -38 18 -38 16 0 -1 81
-225 180 -497 99 -271 178 -495 176 -497 -2 -2 -118 216 -257 484 -327 631
-307 596 -347 604 -17 4 -32 3 -32 -1 0 -4 131 -258 290 -565 160 -306 290
-559 288 -560 -2 -2 -185 257 -408 576 -398 569 -406 579 -439 579 -25 0 -32
-4 -28 -14z"/>
</g>
</svg>
