<?xml version="1.0" standalone="no"?>
<!DOCTYPE svg PUBLIC "-//W3C//DTD SVG 20010904//EN"
 "http://www.w3.org/TR/2001/REC-SVG-20010904/DTD/svg10.dtd">
<svg version="1.0" xmlns="http://www.w3.org/2000/svg"
 width="256.000000pt" height="256.000000pt" viewBox="0 0 256.000000 256.000000"
 preserveAspectRatio="xMidYMid meet">

<g transform="translate(0.000000,256.000000) scale(0.100000,-0.100000)"
fill="#000000" stroke="none">
<path d="M1210 2393 c-80 -13 -222 -77 -256 -114 -17 -18 -15 -19 48 -19 87 0
254 -17 348 -36 41 -8 166 -46 278 -83 111 -37 202 -65 202 -62 0 22 -68 116
-118 164 -123 116 -331 179 -502 150z"/>
<path d="M443 2150 c-188 -26 -302 -79 -343 -161 -25 -48 -25 -90 0 -170 54
-176 247 -342 498 -428 90 -30 89 -31 84 42 -4 72 16 114 69 146 46 28 103 33
246 21 332 -28 554 -99 663 -210 81 -83 99 -174 55 -269 l-25 -54 182 6 c209
6 384 34 465 73 174 84 190 280 35 447 -67 71 -345 248 -559 355 -312 156
-537 201 -1038 207 -148 2 -298 0 -332 -5z"/>
<path d="M879 1445 c-25 -8 -52 -23 -61 -32 -8 -10 -122 -222 -253 -471 -200
-382 -235 -455 -225 -468 32 -38 181 -139 264 -179 179 -86 367 -125 603 -125
134 0 290 15 305 29 3 3 34 227 68 498 61 486 61 493 43 530 -64 136 -271 221
-553 229 -109 3 -156 0 -191 -11z"/>
</g>
</svg>
