<?xml version="1.0" standalone="no"?>
<!DOCTYPE svg PUBLIC "-//W3C//DTD SVG 20010904//EN"
 "http://www.w3.org/TR/2001/REC-SVG-20010904/DTD/svg10.dtd">
<svg version="1.0" xmlns="http://www.w3.org/2000/svg"
 width="256.000000pt" height="256.000000pt" viewBox="0 0 256.000000 256.000000"
 preserveAspectRatio="xMidYMid meet">

<g transform="translate(0.000000,256.000000) scale(0.100000,-0.100000)"
fill="#000000" stroke="none">
<path d="M895 2143 c-38 -11 -63 -29 -110 -77 -76 -79 -168 -241 -581 -1026
l-118 -225 -1 -85 c0 -73 4 -93 28 -142 34 -69 90 -120 166 -150 56 -23 58
-23 696 -26 463 -2 655 0 695 8 75 16 178 72 227 123 61 62 371 584 496 832
85 170 106 260 70 304 -17 20 -27 21 -285 24 l-268 2 90 160 c49 88 90 168 90
178 0 33 -30 84 -58 98 -41 21 -1065 23 -1137 2z m1005 -62 c96 -5 105 -8 108
-27 2 -11 -37 -91 -90 -185 l-93 -164 -240 -5 c-201 -4 -246 -8 -279 -23 -67
-30 -103 -64 -131 -124 -36 -77 -324 -605 -387 -711 -67 -112 -159 -235 -226
-305 -63 -64 -76 -67 -187 -46 -142 26 -216 106 -218 233 -1 58 3 69 87 231
304 582 505 948 563 1027 67 92 68 92 388 98 410 8 587 8 705 1z"/>
</g>
</svg>
