<?xml version="1.0" standalone="no"?>
<!DOCTYPE svg PUBLIC "-//W3C//DTD SVG 20010904//EN"
 "http://www.w3.org/TR/2001/REC-SVG-20010904/DTD/svg10.dtd">
<svg version="1.0" xmlns="http://www.w3.org/2000/svg"
 width="256.000000pt" height="256.000000pt" viewBox="0 0 256.000000 256.000000"
 preserveAspectRatio="xMidYMid meet">

<g transform="translate(0.000000,256.000000) scale(0.100000,-0.100000)"
fill="#000000" stroke="none">
<path d="M92 1588 c-9 -9 -12 -86 -12 -284 0 -234 2 -275 16 -288 13 -14 58
-16 340 -16 205 0 332 4 345 10 18 10 19 24 19 294 0 322 8 296 -90 296 -48 0
-61 -4 -70 -19 -6 -12 -10 -100 -10 -215 l0 -196 -190 0 -190 0 0 209 c0 181
-2 210 -16 215 -28 11 -130 6 -142 -6z"/>
<path d="M926 1584 c-14 -14 -16 -51 -14 -297 l3 -282 68 -3 c42 -2 74 2 83 9
11 9 14 43 14 150 l0 138 100 -61 100 -61 77 47 c42 26 87 55 100 63 l23 15 0
-139 c0 -95 4 -143 12 -151 16 -16 130 -16 146 0 9 9 12 86 12 284 0 266 0
273 -21 288 -12 8 -29 12 -38 8 -9 -3 -80 -50 -157 -104 -78 -54 -149 -98
-157 -98 -8 0 -25 8 -38 18 -53 41 -280 192 -289 192 -5 0 -16 -7 -24 -16z"/>
<path d="M1772 1588 c-17 -17 -17 -559 0 -576 17 -17 132 -16 147 1 7 9 12 86
13 213 l3 199 185 0 185 0 3 -199 c1 -127 6 -204 13 -213 15 -17 130 -18 147
-1 9 9 12 86 12 284 0 234 -2 275 -16 288 -13 14 -59 16 -348 16 -245 0 -335
-3 -344 -12z"/>
<path d="M2042 1308 c-17 -17 -16 -132 2 -147 9 -7 41 -11 83 -9 l68 3 0 80 0
80 -70 3 c-46 2 -74 -1 -83 -10z"/>
</g>
</svg>
