<?xml version="1.0" standalone="no"?>
<!DOCTYPE svg PUBLIC "-//W3C//DTD SVG 20010904//EN"
 "http://www.w3.org/TR/2001/REC-SVG-20010904/DTD/svg10.dtd">
<svg version="1.0" xmlns="http://www.w3.org/2000/svg"
 width="256.000000pt" height="256.000000pt" viewBox="0 0 256.000000 256.000000"
 preserveAspectRatio="xMidYMid meet">

<g transform="translate(0.000000,256.000000) scale(0.100000,-0.100000)"
fill="#000000" stroke="none">
<path d="M632 1926 l-552 -551 0 -380 0 -381 138 -134 c75 -74 198 -195 273
-267 l137 -133 377 0 377 0 216 213 c119 117 241 235 270 262 28 26 52 51 52
55 0 4 44 50 98 101 53 52 179 175 280 274 l182 179 0 381 -1 380 -272 278
-272 278 -375 -2 -375 -2 -553 -551z m1405 107 l202 -208 0 -290 1 -290 -152
-152 c-84 -84 -156 -153 -160 -153 -5 0 -8 98 -8 218 l-1 217 -272 278 -272
278 -201 2 -201 2 145 153 145 152 286 0 286 0 202 -207z m-558 -552 l201
-209 0 -216 0 -216 -205 0 -206 0 -172 168 c-94 92 -188 183 -207 202 l-35 35
3 223 3 222 208 0 208 0 202 -209z m-684 -471 c83 -79 204 -197 270 -262 l120
-118 213 0 c116 0 212 -2 212 -5 0 -2 -75 -79 -167 -169 l-168 -165 -282 -1
-281 0 -206 201 -206 201 0 291 0 292 168 168 167 167 5 -227 5 -228 150 -145z"/>
</g>
</svg>
