<?xml version="1.0" standalone="no"?>
<!DOCTYPE svg PUBLIC "-//W3C//DTD SVG 20010904//EN"
 "http://www.w3.org/TR/2001/REC-SVG-20010904/DTD/svg10.dtd">
<svg version="1.0" xmlns="http://www.w3.org/2000/svg"
 width="256.000000pt" height="256.000000pt" viewBox="0 0 256.000000 256.000000"
 preserveAspectRatio="xMidYMid meet">

<g transform="translate(0.000000,256.000000) scale(0.100000,-0.100000)"
fill="#000000" stroke="none">
<path d="M190 2445 c83 -114 400 -447 578 -606 39 -36 72 -73 72 -82 0 -45
-112 -91 -154 -63 -12 7 -64 81 -115 162 -50 82 -101 160 -112 174 -22 26 43
-98 95 -185 40 -66 43 -148 8 -192 -39 -48 -61 -106 -77 -204 -21 -124 -62
-209 -165 -339 -108 -138 -130 -184 -130 -278 0 -88 25 -169 80 -256 22 -34
46 -79 55 -99 17 -42 16 -42 134 -5 86 26 153 61 202 105 57 51 72 86 66 146
-5 54 -21 73 -152 181 -102 84 -110 144 -40 304 41 96 56 151 70 273 8 62 37
88 117 104 35 8 75 18 89 23 39 15 90 63 105 99 27 64 20 82 -63 164 -98 95
-553 495 -658 578 -19 15 -19 15 -5 -4z m174 -1591 c34 -33 9 -99 -35 -92 -20
2 -24 8 -22 32 1 17 -2 36 -8 42 -26 31 35 48 65 18z"/>
<path d="M902 2294 c132 -31 224 -103 372 -288 225 -281 280 -312 605 -341
202 -18 246 -31 302 -92 l42 -46 -6 38 c-8 50 -56 149 -103 212 -22 29 -42 53
-45 53 -3 0 -13 -24 -22 -54 -18 -56 -56 -106 -81 -106 -18 0 -46 27 -46 44 0
8 7 30 15 49 15 37 18 122 6 167 -5 19 -27 35 -88 66 -132 67 -192 79 -385 79
l-167 0 -68 67 c-38 36 -90 80 -118 97 -63 40 -163 71 -224 70 l-46 -1 57 -14z"/>
<path d="M820 2177 c0 -191 151 -407 285 -407 32 0 32 9 -6 76 -17 30 -42 96
-54 147 -29 117 -37 136 -69 174 -28 33 -102 73 -136 73 -18 0 -20 -7 -20 -63z"/>
<path d="M1978 2205 c-4 -16 -10 -54 -13 -82 -4 -32 -12 -53 -19 -53 -7 0 -46
11 -86 25 -40 14 -76 25 -79 25 -3 0 28 -19 69 -41 41 -22 83 -48 94 -57 33
-30 46 -77 47 -174 0 -110 16 -92 27 31 4 41 12 76 17 78 6 2 39 -20 74 -48
49 -39 59 -45 43 -23 -11 16 -41 49 -67 74 -72 70 -87 101 -94 194 -5 60 -8
73 -13 51z"/>
<path d="M1492 1618 c11 -164 103 -247 418 -378 169 -71 267 -121 317 -164 45
-39 83 -107 83 -149 0 -42 15 -32 40 25 15 34 24 81 28 134 13 213 -114 382
-338 448 -30 9 -122 28 -205 42 -188 31 -248 48 -304 86 l-44 29 5 -73z"/>
<path d="M959 1556 c-62 -36 -84 -132 -38 -169 47 -38 193 0 213 55 27 75 -99
157 -175 114z m105 -19 c43 -32 -15 -81 -71 -61 -54 19 -33 74 27 74 14 0 34
-6 44 -13z"/>
<path d="M1670 1239 c16 -55 12 -150 -9 -194 -24 -52 -74 -99 -133 -125 -26
-11 -108 -32 -183 -46 -145 -26 -230 -53 -267 -84 -23 -19 -23 -19 27 -4 28 8
124 21 215 29 188 16 252 34 320 92 54 47 90 121 90 189 0 60 -24 135 -50 159
-19 17 -19 17 -10 -16z"/>
<path d="M1784 1184 c-12 -48 2 -159 28 -215 14 -30 64 -114 112 -187 115
-175 139 -229 144 -317 3 -54 -1 -82 -17 -123 l-21 -52 41 21 c135 68 231 258
216 424 -12 125 -65 215 -171 292 -62 45 -302 183 -318 183 -4 0 -11 -12 -14
-26z"/>
<path d="M1033 676 c-34 -8 -99 -32 -145 -54 -82 -39 -208 -124 -208 -141 0
-4 21 -11 48 -14 95 -11 157 -43 246 -128 88 -83 133 -109 188 -109 124 0 189
164 88 223 -63 38 -141 9 -139 -50 l1 -28 8 29 c11 36 25 46 66 46 44 0 74
-32 74 -79 0 -66 -56 -104 -123 -82 -78 26 -108 107 -65 171 43 64 131 74 215
24 55 -32 79 -65 146 -200 81 -161 148 -214 259 -201 41 5 138 48 138 61 0 2
-21 -2 -47 -10 -95 -29 -175 -10 -212 50 -20 33 -30 67 -56 206 -28 145 -90
228 -204 271 -72 26 -196 33 -278 15z"/>
</g>
</svg>
