<?xml version="1.0" standalone="no"?>
<!DOCTYPE svg PUBLIC "-//W3C//DTD SVG 20010904//EN"
 "http://www.w3.org/TR/2001/REC-SVG-20010904/DTD/svg10.dtd">
<svg version="1.0" xmlns="http://www.w3.org/2000/svg"
 width="256.000000pt" height="256.000000pt" viewBox="0 0 256.000000 256.000000"
 preserveAspectRatio="xMidYMid meet">

<g transform="translate(0.000000,256.000000) scale(0.100000,-0.100000)"
fill="#000000" stroke="none">
<path d="M162 1473 l3 -928 25 -50 c53 -109 181 -190 353 -226 85 -17 140 -19
722 -19 391 0 655 4 695 11 205 33 369 140 419 275 21 54 21 71 21 959 l0 905
-375 0 -375 0 0 -695 0 -695 -372 2 -373 3 -2 690 -3 690 -370 3 -370 2 2
-927z"/>
</g>
</svg>
