<?xml version="1.0" standalone="no"?>
<!DOCTYPE svg PUBLIC "-//W3C//DTD SVG 20010904//EN"
 "http://www.w3.org/TR/2001/REC-SVG-20010904/DTD/svg10.dtd">
<svg version="1.0" xmlns="http://www.w3.org/2000/svg"
 width="256.000000pt" height="256.000000pt" viewBox="0 0 256.000000 256.000000"
 preserveAspectRatio="xMidYMid meet">

<g transform="translate(0.000000,256.000000) scale(0.100000,-0.100000)"
fill="#000000" stroke="none">
<path d="M875 2410 c-238 -86 -451 -252 -590 -460 -294 -440 -268 -999 64
-1420 134 -169 371 -333 555 -382 44 -12 49 -11 62 7 9 12 14 44 14 86 0 82
-12 99 -97 132 -138 55 -295 179 -393 308 -124 165 -189 346 -197 552 -8 193
21 336 104 502 97 193 271 360 472 452 109 50 111 53 111 139 0 53 -4 77 -16
88 -19 20 -26 19 -89 -4z"/>
<path d="M1597 2412 c-13 -14 -17 -38 -17 -89 0 -85 11 -100 90 -133 269 -110
479 -350 566 -645 32 -111 43 -303 24 -422 -23 -145 -90 -309 -175 -428 -92
-129 -252 -258 -402 -326 -99 -44 -103 -49 -103 -135 0 -116 13 -121 158 -63
213 85 407 243 538 440 430 645 145 1521 -584 1795 -75 29 -75 29 -95 6z"/>
<path d="M1186 2058 c-11 -16 -16 -46 -16 -99 l0 -77 -69 -21 c-122 -37 -214
-123 -242 -224 -16 -61 -7 -184 19 -233 57 -111 132 -147 410 -198 157 -28
217 -76 216 -171 -1 -72 -31 -117 -102 -152 -59 -29 -152 -34 -230 -13 -58 15
-115 73 -132 134 -7 26 -21 51 -31 56 -27 15 -142 12 -164 -4 -37 -27 5 -159
76 -240 37 -42 152 -102 214 -112 l45 -6 0 -94 c0 -85 2 -94 22 -108 23 -17
133 -22 154 -8 24 16 34 54 34 130 l0 80 37 7 c102 19 217 109 262 205 22 46
26 69 26 145 0 79 -4 97 -29 148 -51 105 -142 152 -366 188 -150 24 -220 53
-244 103 -36 75 -9 157 64 200 28 17 52 21 120 21 124 0 161 -22 222 -134 17
-31 18 -31 96 -31 100 0 111 10 93 78 -29 110 -130 209 -238 233 l-53 12 0 88
c0 112 -6 119 -105 119 -65 0 -76 -3 -89 -22z"/>
</g>
</svg>
