<?xml version="1.0" standalone="no"?>
<!DOCTYPE svg PUBLIC "-//W3C//DTD SVG 20010904//EN"
 "http://www.w3.org/TR/2001/REC-SVG-20010904/DTD/svg10.dtd">
<svg version="1.0" xmlns="http://www.w3.org/2000/svg"
 width="256.000000pt" height="256.000000pt" viewBox="0 0 256.000000 256.000000"
 preserveAspectRatio="xMidYMid meet">

<g transform="translate(0.000000,256.000000) scale(0.100000,-0.100000)"
fill="#000000" stroke="none">
<path d="M1095 2466 c-268 -44 -489 -158 -678 -349 -169 -171 -293 -419 -327
-655 -11 -75 -11 -86 4 -100 31 -31 49 -4 67 101 65 370 284 665 616 831 672
336 1486 -82 1613 -828 17 -103 30 -126 65 -112 15 6 17 15 11 71 -16 156 -97
380 -187 512 -176 261 -422 435 -723 509 -126 31 -338 41 -461 20z"/>
<path d="M852 2118 c-16 -16 -16 -70 0 -86 9 -9 127 -12 469 -12 403 0 459 2
473 16 18 18 20 47 6 75 -10 18 -26 19 -473 19 -347 0 -466 -3 -475 -12z"/>
<path d="M1160 1921 l0 -49 -67 -16 c-156 -39 -291 -134 -342 -240 -46 -94
-44 -239 4 -322 52 -88 187 -173 334 -209 l71 -17 0 -144 c0 -162 -1 -163 -67
-115 -28 20 -47 45 -58 76 -10 25 -26 50 -36 55 -10 6 -78 10 -152 10 -121 0
-136 -2 -152 -20 -43 -47 14 -208 104 -297 66 -63 155 -109 272 -136 l89 -22
0 -45 c0 -54 13 -70 54 -70 46 0 58 13 63 64 5 42 8 46 33 46 25 0 28 -4 33
-46 5 -52 17 -64 63 -64 41 0 52 15 56 74 l3 49 72 17 c292 68 437 314 323
546 -52 105 -161 183 -328 234 l-72 22 0 129 c0 122 1 129 18 120 10 -5 24
-22 32 -38 36 -71 40 -73 191 -73 166 0 174 4 166 87 -15 140 -163 280 -347
326 l-55 14 -3 52 -3 51 -60 0 -59 0 0 -45 c0 -43 -1 -45 -30 -45 -29 0 -30 2
-30 45 l0 45 -60 0 -60 0 0 -49z m180 -457 l0 -135 -27 3 -28 3 -3 133 -3 132
31 0 30 0 0 -136z m-180 11 c0 -52 -3 -95 -7 -95 -14 1 -50 35 -62 59 -17 30
-5 79 27 108 14 12 29 23 33 23 5 0 9 -43 9 -95z m158 -441 c21 -6 22 -10 22
-145 l0 -139 -30 0 -30 0 0 145 c0 80 3 145 8 145 4 0 17 -3 30 -6z m187 -79
c43 -42 29 -126 -26 -155 -18 -10 -19 -7 -19 85 0 59 4 95 10 95 6 0 22 -11
35 -25z"/>
<path d="M90 1195 c-17 -21 3 -152 42 -275 140 -438 504 -750 963 -826 171
-28 390 -9 560 48 237 79 465 250 603 451 109 158 191 371 208 542 6 56 4 65
-11 71 -35 14 -48 -9 -65 -112 -63 -368 -289 -669 -625 -830 -150 -72 -276
-104 -440 -111 -326 -13 -616 99 -846 327 -176 176 -291 407 -325 655 -9 72
-35 95 -64 60z"/>
</g>
</svg>
