<?xml version="1.0" standalone="no"?>
<!DOCTYPE svg PUBLIC "-//W3C//DTD SVG 20010904//EN"
 "http://www.w3.org/TR/2001/REC-SVG-20010904/DTD/svg10.dtd">
<svg version="1.0" xmlns="http://www.w3.org/2000/svg"
 width="256.000000pt" height="256.000000pt" viewBox="0 0 256.000000 256.000000"
 preserveAspectRatio="xMidYMid meet">

<g transform="translate(0.000000,256.000000) scale(0.100000,-0.100000)"
fill="#000000" stroke="none">
<path d="M240 2361 c0 -53 27 -202 51 -286 32 -109 112 -262 183 -351 139
-174 318 -280 557 -331 117 -25 372 -24 489 1 317 67 532 231 672 511 64 129
118 332 118 446 l0 50 -152 -3 -153 -3 -7 -48 c-35 -248 -193 -480 -393 -578
-118 -57 -189 -73 -330 -73 -143 0 -214 16 -335 76 -190 92 -341 302 -395 551
l-17 77 -144 0 -144 0 0 -39z"/>
<path d="M1175 2371 c-112 -52 -169 -180 -134 -305 14 -52 90 -131 144 -152
108 -41 240 3 299 100 44 71 49 165 12 240 -27 56 -71 97 -131 122 -48 20
-141 18 -190 -5z"/>
<path d="M254 1157 c-2 -7 -3 -82 -2 -167 l3 -155 1023 -3 1022 -2 -2 167 -3
168 -1018 3 c-826 2 -1019 0 -1023 -11z"/>
<path d="M1229 653 c-15 -2 -51 -18 -80 -36 -204 -122 -132 -430 107 -454 96
-10 205 53 245 142 55 120 -6 281 -126 331 -36 15 -110 23 -146 17z"/>
</g>
</svg>
