<?xml version="1.0" standalone="no"?>
<!DOCTYPE svg PUBLIC "-//W3C//DTD SVG 20010904//EN"
 "http://www.w3.org/TR/2001/REC-SVG-20010904/DTD/svg10.dtd">
<svg version="1.0" xmlns="http://www.w3.org/2000/svg"
 width="256.000000pt" height="256.000000pt" viewBox="0 0 256.000000 256.000000"
 preserveAspectRatio="xMidYMid meet">

<g transform="translate(0.000000,256.000000) scale(0.100000,-0.100000)"
fill="#000000" stroke="none">
<path d="M812 2047 c-237 -237 -432 -434 -432 -437 0 -3 73 -5 163 -5 284 -1
482 -62 747 -234 258 -167 560 -219 845 -146 62 16 244 83 257 94 4 4 -252
266 -570 584 l-577 577 -433 -433z"/>
<path d="M415 1339 c-112 -12 -325 -75 -325 -97 0 -4 260 -267 578 -585 l577
-577 427 427 428 428 -213 0 c-190 0 -222 3 -307 24 -169 42 -290 96 -460 204
-114 73 -192 109 -304 142 -75 21 -257 48 -305 44 -9 -1 -52 -5 -96 -10z"/>
</g>
</svg>
