<?xml version="1.0" standalone="no"?>
<!DOCTYPE svg PUBLIC "-//W3C//DTD SVG 20010904//EN"
 "http://www.w3.org/TR/2001/REC-SVG-20010904/DTD/svg10.dtd">
<svg version="1.0" xmlns="http://www.w3.org/2000/svg"
 width="256.000000pt" height="256.000000pt" viewBox="0 0 256.000000 256.000000"
 preserveAspectRatio="xMidYMid meet">

<g transform="translate(0.000000,256.000000) scale(0.100000,-0.100000)"
fill="#000000" stroke="none">
<path d="M1150 2290 l0 -190 -118 0 c-187 0 -295 -43 -406 -161 -199 -210
-195 -511 8 -715 115 -114 218 -154 404 -154 l112 0 0 -160 0 -160 -330 0
-330 0 0 -165 0 -165 330 0 330 0 0 -170 0 -170 165 0 165 0 0 169 0 168 143
5 c159 6 218 22 315 85 247 164 283 528 73 742 -106 107 -228 151 -423 151
l-108 0 0 185 0 185 335 0 335 0 0 165 0 165 -335 0 -335 0 0 190 0 190 -165
0 -165 0 0 -190z m0 -705 l0 -185 165 0 165 0 0 -164 0 -164 118 -3 c113 -4
120 -5 156 -33 90 -68 86 -190 -8 -260 -23 -18 -45 -21 -147 -24 l-119 -4 0
161 0 161 -165 0 -165 0 0 165 0 165 -97 0 c-78 0 -105 4 -141 21 -83 41 -122
143 -88 233 34 88 87 115 224 116 l102 0 0 -185z"/>
</g>
</svg>
