<?xml version="1.0" standalone="no"?>
<!DOCTYPE svg PUBLIC "-//W3C//DTD SVG 20010904//EN"
 "http://www.w3.org/TR/2001/REC-SVG-20010904/DTD/svg10.dtd">
<svg version="1.0" xmlns="http://www.w3.org/2000/svg"
 width="256.000000pt" height="256.000000pt" viewBox="0 0 256.000000 256.000000"
 preserveAspectRatio="xMidYMid meet">

<g transform="translate(0.000000,256.000000) scale(0.100000,-0.100000)"
fill="#000000" stroke="none">
<path d="M430 2110 l0 -210 310 0 310 0 0 -134 0 -135 -42 -5 c-24 -3 -101
-10 -173 -16 -225 -20 -469 -72 -570 -122 -55 -27 -105 -77 -105 -104 0 -60
109 -124 285 -168 124 -31 344 -63 493 -72 l112 -7 0 -439 0 -438 230 0 230 0
0 438 0 439 113 7 c347 21 682 104 753 189 32 39 30 67 -8 104 -83 80 -327
145 -643 173 -72 6 -149 13 -172 16 l-43 5 0 134 0 135 313 2 312 3 3 208 2
207 -855 0 -855 0 0 -210z m682 -824 c78 -8 277 -8 346 0 l52 7 0 151 0 151
108 -7 c319 -21 581 -79 654 -145 44 -40 3 -95 -97 -132 -69 -26 -263 -65
-410 -83 -73 -9 -236 -13 -485 -13 -398 0 -496 7 -717 51 -194 38 -293 85
-293 138 0 87 297 163 735 189 l40 2 3 -151 2 -151 62 -7z"/>
</g>
</svg>
