<?xml version="1.0" standalone="no"?>
<!DOCTYPE svg PUBLIC "-//W3C//DTD SVG 20010904//EN"
 "http://www.w3.org/TR/2001/REC-SVG-20010904/DTD/svg10.dtd">
<svg version="1.0" xmlns="http://www.w3.org/2000/svg"
 width="256.000000pt" height="256.000000pt" viewBox="0 0 256.000000 256.000000"
 preserveAspectRatio="xMidYMid meet">

<g transform="translate(0.000000,256.000000) scale(0.100000,-0.100000)"
fill="#000000" stroke="none">
<path d="M1145 2146 c-136 -32 -254 -107 -334 -213 -63 -83 -89 -152 -98 -249
l-6 -74 -41 0 c-72 0 -178 -29 -265 -70 -279 -134 -397 -464 -267 -745 57
-124 187 -254 320 -321 l69 -34 757 0 c840 0 798 -3 934 68 139 73 220 184
251 346 31 162 12 305 -61 454 -98 200 -261 302 -484 302 -269 0 -484 -160
-563 -417 l-22 -73 -77 0 -76 0 -25 43 c-60 101 -162 155 -277 144 -235 -21
-347 -321 -181 -487 56 -56 114 -75 221 -75 61 1 84 6 126 28 61 31 111 88
120 134 l6 33 143 0 c177 0 184 4 189 100 9 171 127 319 290 365 90 26 204 17
286 -22 164 -77 261 -262 230 -434 -25 -144 -92 -231 -230 -302 l-72 -37 -723
0 -723 0 -59 40 c-235 156 -304 413 -166 613 32 46 126 114 203 147 62 27 164
31 239 11 41 -12 45 -11 72 15 28 27 29 31 29 120 0 213 100 360 288 423 191
65 385 -31 517 -257 5 -7 155 71 155 81 0 28 -64 120 -125 180 -67 66 -163
125 -252 153 -68 22 -244 27 -318 10z m-180 -1012 c36 -17 65 -65 65 -107 0
-50 -69 -107 -130 -107 -45 0 -102 55 -103 101 -3 102 77 156 168 113z"/>
</g>
</svg>
