<?xml version="1.0" standalone="no"?>
<!DOCTYPE svg PUBLIC "-//W3C//DTD SVG 20010904//EN"
 "http://www.w3.org/TR/2001/REC-SVG-20010904/DTD/svg10.dtd">
<svg version="1.0" xmlns="http://www.w3.org/2000/svg"
 width="256.000000pt" height="256.000000pt" viewBox="0 0 256.000000 256.000000"
 preserveAspectRatio="xMidYMid meet">

<g transform="translate(0.000000,256.000000) scale(0.100000,-0.100000)"
fill="#000000" stroke="none">
<path d="M1215 2393 c-66 -8 -183 -36 -242 -58 -48 -19 -74 -22 -116 -18 -163
17 -392 -164 -597 -470 -28 -43 -49 -81 -46 -84 8 -8 106 12 249 52 l122 34
73 -77 73 -77 -6 -58 c-12 -143 37 -292 123 -368 68 -61 198 -144 336 -214 67
-34 128 -65 136 -68 12 -5 12 -8 -4 -18 -66 -41 -170 -167 -197 -236 -56 -148
-5 -317 141 -464 94 -95 145 -117 310 -131 212 -19 257 -17 325 16 108 54 304
265 385 417 16 31 30 60 30 63 0 3 -18 6 -40 6 -22 0 -40 5 -40 10 0 6 12 28
26 50 24 36 31 40 68 40 39 0 44 3 65 40 75 134 110 397 81 605 -36 250 -137
450 -320 635 -249 252 -534 383 -819 379 -47 -1 -99 -4 -116 -6z"/>
<path d="M112 1543 c-49 -252 -38 -522 30 -741 82 -266 295 -527 523 -637 38
-19 82 -37 97 -41 26 -6 27 -4 35 53 11 82 8 286 -6 363 -38 202 -90 308 -279
567 -191 261 -370 493 -381 493 -5 0 -13 -26 -19 -57z"/>
</g>
</svg>
