<?xml version="1.0" standalone="no"?>
<!DOCTYPE svg PUBLIC "-//W3C//DTD SVG 20010904//EN"
 "http://www.w3.org/TR/2001/REC-SVG-20010904/DTD/svg10.dtd">
<svg version="1.0" xmlns="http://www.w3.org/2000/svg"
 width="256.000000pt" height="256.000000pt" viewBox="0 0 256.000000 256.000000"
 preserveAspectRatio="xMidYMid meet">

<g transform="translate(0.000000,256.000000) scale(0.100000,-0.100000)"
fill="#000000" stroke="none">
<path d="M697 2043 l-459 -357 4 -310 c5 -296 6 -316 31 -408 106 -397 396
-693 782 -798 120 -33 347 -39 475 -12 213 44 381 134 536 287 114 113 180
207 236 338 80 185 81 193 85 725 l4 472 -210 0 -211 0 0 210 0 210 -407 -1
-408 0 -458 -356z m1273 -748 l0 -685 -660 0 -660 0 0 685 0 685 660 0 660 0
0 -685z"/>
</g>
</svg>
