<?xml version="1.0" standalone="no"?>
<!DOCTYPE svg PUBLIC "-//W3C//DTD SVG 20010904//EN"
 "http://www.w3.org/TR/2001/REC-SVG-20010904/DTD/svg10.dtd">
<svg version="1.0" xmlns="http://www.w3.org/2000/svg"
 width="256.000000pt" height="256.000000pt" viewBox="0 0 256.000000 256.000000"
 preserveAspectRatio="xMidYMid meet">

<g transform="translate(0.000000,256.000000) scale(0.100000,-0.100000)"
fill="#000000" stroke="none">
<path d="M293 2544 c-34 -17 -56 -44 -66 -83 -8 -32 18 -107 148 -438 58 -145
105 -269 105 -274 0 -5 -41 -9 -90 -9 -59 0 -101 -5 -118 -14 -60 -31 -96 -92
-108 -184 l-7 -52 1112 0 1111 0 0 66 c0 74 -8 94 -58 147 l-36 37 -168 0
c-122 0 -168 3 -168 12 0 6 42 120 94 252 172 439 175 449 135 500 -32 40 -76
59 -126 53 -23 -2 -50 -11 -59 -18 -44 -36 -96 -152 -215 -476 -44 -120 -89
-242 -101 -272 l-22 -54 -260 6 c-144 4 -350 7 -458 7 l-197 0 -21 58 c-12 31
-55 154 -95 272 -120 354 -159 441 -207 466 -35 18 -85 17 -125 -2z"/>
<path d="M162 1172 c6 -78 36 -155 70 -174 17 -9 91 -14 273 -18 l249 -5 121
-315 c134 -348 239 -603 261 -637 12 -20 23 -23 72 -23 31 0 62 4 69 8 23 14
157 338 323 780 l73 192 304 0 304 0 49 49 c56 56 75 107 62 167 l-8 39 -1113
3 -1114 2 5 -68z m1228 -202 c0 -23 -174 -420 -180 -413 -14 15 -177 412 -172
418 10 10 352 5 352 -5z"/>
</g>
</svg>
