<?xml version="1.0" standalone="no"?>
<!DOCTYPE svg PUBLIC "-//W3C//DTD SVG 20010904//EN"
 "http://www.w3.org/TR/2001/REC-SVG-20010904/DTD/svg10.dtd">
<svg version="1.0" xmlns="http://www.w3.org/2000/svg"
 width="256.000000pt" height="256.000000pt" viewBox="0 0 256.000000 256.000000"
 preserveAspectRatio="xMidYMid meet">

<g transform="translate(0.000000,256.000000) scale(0.100000,-0.100000)"
fill="#000000" stroke="none">
<path d="M153 1930 l-31 -70 402 0 402 0 136 -282 c74 -156 139 -283 143 -283
4 0 64 126 134 280 l126 280 478 3 c262 1 477 4 477 7 0 3 -14 34 -32 70 l-32
65 -471 0 -470 0 -100 -231 c-55 -127 -105 -231 -110 -231 -5 0 -55 103 -111
229 l-103 228 -403 3 -404 2 -31 -70z"/>
<path d="M115 1758 c-2 -7 -9 -33 -15 -58 -6 -25 -13 -53 -16 -62 -5 -17 17
-18 332 -20 l338 -3 221 -493 c122 -272 225 -494 229 -495 4 -1 103 222 219
495 l212 498 423 0 c233 0 422 4 420 8 -1 4 -14 38 -27 75 l-25 67 -454 -2
-454 -3 -153 -360 c-85 -198 -157 -359 -161 -358 -4 1 -81 163 -170 360 l-163
358 -376 3 c-295 2 -376 0 -380 -10z"/>
<path d="M1770 1536 c0 -52 -7 -56 -91 -56 l-59 0 0 -35 c0 -30 4 -35 28 -41
76 -16 72 -4 72 -202 0 -125 -4 -182 -12 -190 -7 -7 -27 -12 -45 -12 -32 0
-33 -1 -33 -45 l0 -45 65 0 65 0 0 -50 0 -50 39 0 c40 0 40 0 43 43 3 39 5 42
36 45 32 3 32 3 32 -42 0 -44 1 -46 29 -46 29 0 30 2 33 52 l3 53 55 8 c114
16 160 64 160 167 0 61 -32 123 -69 135 -19 6 -19 7 5 42 28 42 32 98 8 131
-18 25 -74 56 -121 67 -32 6 -33 8 -33 61 l0 54 -35 0 c-35 0 -35 0 -35 -45 0
-43 -1 -45 -30 -45 -29 0 -30 2 -30 45 l0 45 -40 0 -40 0 0 -44z m182 -156
c100 -28 57 -120 -57 -120 l-45 0 0 65 0 65 33 0 c17 0 49 -5 69 -10z m79
-241 c27 -27 20 -75 -17 -106 -21 -19 -37 -23 -95 -23 l-69 0 0 75 0 75 80 0
c68 0 83 -3 101 -21z"/>
</g>
</svg>
