<?xml version="1.0" standalone="no"?>
<!DOCTYPE svg PUBLIC "-//W3C//DTD SVG 20010904//EN"
 "http://www.w3.org/TR/2001/REC-SVG-20010904/DTD/svg10.dtd">
<svg version="1.0" xmlns="http://www.w3.org/2000/svg"
 width="256.000000pt" height="256.000000pt" viewBox="0 0 256.000000 256.000000"
 preserveAspectRatio="xMidYMid meet">

<g transform="translate(0.000000,256.000000) scale(0.100000,-0.100000)"
fill="#000000" stroke="none">
<path d="M320 1600 l0 -800 175 0 175 0 0 -160 0 -160 160 0 160 0 0 -160 0
-160 160 0 160 0 0 160 0 160 160 0 160 0 0 160 0 160 -160 0 -160 0 0 -160 0
-160 -160 0 -160 0 0 160 0 160 -160 0 -160 0 0 800 0 800 -175 0 -175 0 0
-800z"/>
<path d="M1600 1760 l0 -640 160 0 160 0 0 -160 0 -160 165 0 165 0 0 160 0
160 -165 0 -165 0 0 640 0 640 -160 0 -160 0 0 -640z"/>
</g>
</svg>
