<?xml version="1.0" standalone="no"?>
<!DOCTYPE svg PUBLIC "-//W3C//DTD SVG 20010904//EN"
 "http://www.w3.org/TR/2001/REC-SVG-20010904/DTD/svg10.dtd">
<svg version="1.0" xmlns="http://www.w3.org/2000/svg"
 width="256.000000pt" height="256.000000pt" viewBox="0 0 256.000000 256.000000"
 preserveAspectRatio="xMidYMid meet">

<g transform="translate(0.000000,256.000000) scale(0.100000,-0.100000)"
fill="#000000" stroke="none">
<path d="M97 2382 c-10 -10 -17 -24 -17 -31 0 -22 1041 -2135 1063 -2159 34
-37 77 -55 132 -55 55 0 98 18 132 55 18 20 267 516 463 923 32 66 164 336
295 600 318 646 321 651 305 670 -18 21 -83 19 -103 -3 -9 -10 -99 -186 -200
-392 -568 -1156 -573 -1165 -606 -1192 -74 -63 -182 -57 -248 14 -12 12 -192
368 -401 790 -209 422 -385 774 -392 783 -10 12 -46 15 -210 15 -178 0 -198
-2 -213 -18z"/>
</g>
</svg>
