<?xml version="1.0" standalone="no"?>
<!DOCTYPE svg PUBLIC "-//W3C//DTD SVG 20010904//EN"
 "http://www.w3.org/TR/2001/REC-SVG-20010904/DTD/svg10.dtd">
<svg version="1.0" xmlns="http://www.w3.org/2000/svg"
 width="256.000000pt" height="256.000000pt" viewBox="0 0 256.000000 256.000000"
 preserveAspectRatio="xMidYMid meet">

<g transform="translate(0.000000,256.000000) scale(0.100000,-0.100000)"
fill="#000000" stroke="none">
<path d="M177 2462 c-10 -10 -17 -24 -17 -30 0 -7 232 -528 516 -1159 331
-736 525 -1156 541 -1171 29 -26 63 -28 91 -4 11 9 211 436 445 947 234 512
471 1029 526 1150 56 121 101 230 101 242 0 12 -9 27 -19 33 -12 6 -114 10
-260 10 l-241 0 -29 -27 c-21 -20 -104 -193 -297 -616 -147 -323 -271 -584
-275 -580 -3 5 -125 275 -269 601 -229 517 -266 595 -291 607 -22 12 -76 15
-267 15 -219 0 -240 -2 -255 -18z"/>
</g>
</svg>
