<?xml version="1.0" standalone="no"?>
<!DOCTYPE svg PUBLIC "-//W3C//DTD SVG 20010904//EN"
 "http://www.w3.org/TR/2001/REC-SVG-20010904/DTD/svg10.dtd">
<svg version="1.0" xmlns="http://www.w3.org/2000/svg"
 width="256.000000pt" height="256.000000pt" viewBox="0 0 256.000000 256.000000"
 preserveAspectRatio="xMidYMid meet">

<g transform="translate(0.000000,256.000000) scale(0.100000,-0.100000)"
fill="#000000" stroke="none">
<path d="M326 2386 c3 -8 56 -133 118 -278 l113 -263 -119 -3 -118 -3 0 -119
0 -120 171 -2 172 -3 33 -77 32 -78 -204 0 -204 0 0 -120 0 -120 256 -2 256
-3 213 -500 c117 -275 217 -506 222 -514 8 -13 92 176 379 856 l69 163 258 0
257 0 0 120 0 120 -206 0 c-113 0 -204 4 -202 8 2 5 17 41 33 80 l30 72 173 0
172 0 0 120 0 120 -121 0 c-93 0 -120 3 -116 13 3 6 55 129 116 272 61 143
111 263 111 268 0 4 -71 6 -157 5 l-156 -3 -57 -135 c-31 -74 -121 -289 -200
-478 l-143 -342 -235 2 -235 3 -57 135 c-31 74 -121 289 -199 478 l-144 342
-158 0 c-134 0 -158 -2 -153 -14z m1074 -1193 c1 -21 -124 -303 -130 -296 -7
7 -94 210 -121 281 l-9 22 130 0 c72 0 130 -3 130 -7z"/>
</g>
</svg>
