<?xml version="1.0" standalone="no"?>
<!DOCTYPE svg PUBLIC "-//W3C//DTD SVG 20010904//EN"
 "http://www.w3.org/TR/2001/REC-SVG-20010904/DTD/svg10.dtd">
<svg version="1.0" xmlns="http://www.w3.org/2000/svg"
 width="256.000000pt" height="256.000000pt" viewBox="0 0 256.000000 256.000000"
 preserveAspectRatio="xMidYMid meet">

<g transform="translate(0.000000,256.000000) scale(0.100000,-0.100000)"
fill="#000000" stroke="none">
<path d="M322 2463 c-18 -9 -43 -30 -55 -47 l-22 -31 -3 -1093 c-2 -995 -1
-1097 14 -1128 22 -47 67 -76 123 -81 44 -5 57 2 376 185 1477 849 1580 910
1602 942 39 56 27 146 -23 192 -11 9 -273 159 -584 334 -492 276 -571 318
-615 322 -60 5 -107 -22 -137 -78 -17 -33 -18 -65 -16 -635 l3 -601 -220 -126
-220 -127 -5 942 c-5 920 -5 943 -25 975 -38 64 -125 89 -193 55z m1284 -989
c173 -97 314 -180 312 -185 -3 -8 -622 -369 -633 -369 -3 0 -5 164 -5 365 0
201 3 365 6 365 3 0 147 -79 320 -176z"/>
</g>
</svg>
