<?xml version="1.0" standalone="no"?>
<!DOCTYPE svg PUBLIC "-//W3C//DTD SVG 20010904//EN"
 "http://www.w3.org/TR/2001/REC-SVG-20010904/DTD/svg10.dtd">
<svg version="1.0" xmlns="http://www.w3.org/2000/svg"
 width="256.000000pt" height="256.000000pt" viewBox="0 0 256.000000 256.000000"
 preserveAspectRatio="xMidYMid meet">

<g transform="translate(0.000000,256.000000) scale(0.100000,-0.100000)"
fill="#000000" stroke="none">
<path d="M1740 2237 c-399 -88 -726 -161 -728 -162 -1 -1 -43 -404 -92 -896
-49 -492 -91 -909 -94 -928 -5 -34 -5 -34 13 -15 11 10 371 485 802 1054 430
569 793 1050 807 1068 14 18 23 34 21 36 -2 2 -330 -69 -729 -157z"/>
<path d="M455 1948 c-203 -44 -371 -81 -372 -82 -1 -1 145 -355 326 -786 180
-432 331 -794 335 -805 5 -11 10 -15 12 -10 2 6 24 375 48 820 25 446 48 840
51 878 6 60 4 67 -12 66 -10 -1 -184 -37 -388 -81z"/>
</g>
</svg>
