<?xml version="1.0" standalone="no"?>
<!DOCTYPE svg PUBLIC "-//W3C//DTD SVG 20010904//EN"
 "http://www.w3.org/TR/2001/REC-SVG-20010904/DTD/svg10.dtd">
<svg version="1.0" xmlns="http://www.w3.org/2000/svg"
 width="256.000000pt" height="256.000000pt" viewBox="0 0 256.000000 256.000000"
 preserveAspectRatio="xMidYMid meet">

<g transform="translate(0.000000,256.000000) scale(0.100000,-0.100000)"
fill="#000000" stroke="none">
<path d="M1220 2458 c-42 -21 -45 -26 -48 -65 -3 -36 1 -47 24 -68 l27 -25
-11 -78 c-7 -42 -12 -100 -12 -128 l0 -51 -122 -56 c-68 -31 -153 -70 -191
-87 l-67 -30 16 -33 c9 -17 18 -33 19 -35 1 -1 67 29 147 68 79 38 174 77 211
87 64 17 70 17 135 0 37 -10 132 -49 211 -87 79 -39 145 -69 146 -68 1 2 10
17 19 35 l16 32 -77 36 c-43 20 -129 59 -190 87 l-113 52 0 58 c0 33 -5 91
-12 130 -11 67 -10 71 10 87 56 43 47 111 -20 141 -55 25 -64 25 -118 -2z"/>
<path d="M1055 1706 c-298 -128 -455 -221 -481 -282 -13 -30 -15 -76 -12 -248
3 -201 5 -215 31 -291 40 -113 145 -326 208 -419 105 -157 238 -277 388 -349
l83 -40 55 18 c139 48 330 212 439 380 65 99 161 297 201 410 27 77 28 89 31
300 2 203 1 222 -17 251 -35 57 -208 155 -471 268 l-105 45 -3 -37 c-1 -20 11
-246 27 -501 l29 -464 -87 -158 c-47 -88 -88 -159 -91 -159 -3 0 -44 72 -91
159 l-85 158 28 454 c15 250 27 475 26 501 l-3 47 -100 -43z"/>
</g>
</svg>
