<?xml version="1.0" standalone="no"?>
<!DOCTYPE svg PUBLIC "-//W3C//DTD SVG 20010904//EN"
 "http://www.w3.org/TR/2001/REC-SVG-20010904/DTD/svg10.dtd">
<svg version="1.0" xmlns="http://www.w3.org/2000/svg"
 width="256.000000pt" height="256.000000pt" viewBox="0 0 256.000000 256.000000"
 preserveAspectRatio="xMidYMid meet">

<g transform="translate(0.000000,256.000000) scale(0.100000,-0.100000)"
fill="#000000" stroke="none">
<path d="M990 2385 c-251 -54 -446 -192 -569 -404 -21 -36 -47 -88 -57 -116
-10 -27 -31 -72 -47 -99 -67 -115 -120 -271 -142 -416 -25 -159 -18 -262 25
-410 11 -36 26 -101 35 -145 21 -113 80 -229 162 -315 113 -120 232 -180 396
-201 55 -7 107 -21 157 -44 100 -46 177 -65 282 -72 140 -9 293 24 425 91 29
14 86 33 126 40 164 32 264 84 367 193 50 52 80 95 108 155 68 144 77 189 77
393 -1 189 -13 263 -65 396 -11 27 -20 66 -20 85 0 113 -62 291 -141 403 -85
121 -225 210 -367 234 -63 11 -75 17 -123 62 -77 72 -141 109 -248 145 -114
38 -273 49 -381 25z m324 -51 c86 -22 173 -64 234 -113 30 -24 52 -44 50 -46
-2 -3 -42 16 -90 40 -283 147 -618 102 -836 -112 -40 -40 -88 -81 -105 -90
-18 -9 -51 -29 -74 -45 -47 -32 -51 -30 -26 10 182 290 533 437 847 356z m49
-114 c77 -24 86 -34 17 -19 -70 16 -265 13 -354 -6 -82 -17 -206 -62 -266 -97
l-35 -20 35 31 c51 44 184 108 265 125 95 21 247 15 338 -14z m493 -155 c39
-19 91 -53 117 -75 54 -48 127 -154 155 -225 20 -52 42 -125 38 -125 -2 0 -23
26 -48 58 -51 64 -240 253 -306 304 -23 19 -54 51 -68 72 l-26 38 33 -7 c19
-3 66 -22 105 -40z m-479 -11 c452 -93 735 -553 613 -994 -68 -241 -258 -450
-490 -536 -429 -160 -888 57 -1044 494 -30 84 -31 92 -31 252 0 155 2 170 28
245 82 235 261 422 482 505 138 51 300 64 442 34z m-848 -133 c-8 -10 -35 -45
-60 -78 -26 -32 -63 -88 -83 -123 -41 -75 -44 -69 -15 25 17 57 30 76 84 131
62 61 104 87 74 45z m1600 -300 l51 -75 -1 -85 c-1 -47 -5 -99 -8 -116 -6 -26
-9 -20 -15 35 -10 79 -46 207 -81 286 -31 69 -16 57 54 -45z m-1839 -171 c-7
-52 -23 -128 -37 -169 -14 -41 -27 -99 -30 -128 -3 -29 -10 -53 -16 -53 -14 0
-1 229 18 310 8 36 28 101 43 145 l27 80 4 -45 c2 -25 -2 -88 -9 -140z m2005
-239 c53 -300 -33 -593 -217 -741 -58 -47 -174 -106 -228 -117 -34 -6 -32 -4
48 72 181 170 262 347 262 571 0 80 4 99 31 159 25 56 55 162 60 210 2 24 31
-77 44 -154z m-2016 -46 c4 -115 68 -287 162 -429 39 -59 68 -110 66 -112 -9
-9 -112 82 -158 139 -83 103 -102 148 -103 246 -1 111 13 234 25 206 4 -11 8
-33 8 -50z m1838 -248 c-8 -85 -56 -212 -111 -295 -53 -79 -178 -203 -260
-258 -55 -36 -63 -38 -150 -42 -50 -2 -122 0 -161 5 l-70 8 74 19 c275 68 496
245 625 503 19 38 38 81 41 96 12 47 18 29 12 -36z m-1808 -173 c33 -49 112
-117 185 -162 33 -20 92 -69 131 -107 38 -39 93 -90 120 -114 l50 -43 -35 7
c-213 39 -389 186 -465 388 -28 74 -23 85 14 31z m490 -318 c50 -24 129 -54
177 -67 98 -26 93 -37 -17 -38 -62 -1 -71 2 -125 39 -64 43 -143 109 -132 110
4 0 47 -20 97 -44z m463 -136 c37 -7 118 -15 180 -19 l113 -7 -54 -17 c-143
-45 -309 -43 -451 5 l-65 22 85 17 c47 9 94 15 105 14 11 -2 50 -9 87 -15z"/>
<path d="M563 1498 c6 -17 346 -519 362 -536 10 -11 36 21 140 175 70 103 139
200 153 216 l26 27 216 0 c205 0 218 -1 235 -20 15 -16 17 -26 9 -48 l-9 -27
-177 -5 c-197 -6 -192 -4 -250 -87 l-29 -43 179 0 179 0 53 -81 c72 -109 86
-119 172 -119 38 0 68 3 66 8 -1 4 -34 53 -72 109 l-68 102 34 34 c71 71 70
177 -1 248 -55 55 -88 60 -361 57 -222 -3 -240 -4 -267 -24 -15 -11 -67 -78
-115 -149 -48 -71 -92 -133 -97 -138 -5 -5 -48 50 -110 141 -112 166 -120 172
-219 172 -39 0 -53 -3 -49 -12z"/>
</g>
</svg>
