<?xml version="1.0" standalone="no"?>
<!DOCTYPE svg PUBLIC "-//W3C//DTD SVG 20010904//EN"
 "http://www.w3.org/TR/2001/REC-SVG-20010904/DTD/svg10.dtd">
<svg version="1.0" xmlns="http://www.w3.org/2000/svg"
 width="256.000000pt" height="256.000000pt" viewBox="0 0 256.000000 256.000000"
 preserveAspectRatio="xMidYMid meet">

<g transform="translate(0.000000,256.000000) scale(0.100000,-0.100000)"
fill="#000000" stroke="none">
<path d="M80 2114 l0 -126 62 -99 61 -99 466 0 466 0 89 96 c48 52 87 97 85
99 -2 2 -90 13 -194 24 -105 12 -204 23 -221 26 -30 5 -33 10 -63 105 l-32
100 -359 0 -360 0 0 -126z"/>
<path d="M1668 2128 c-30 -62 -137 -285 -238 -495 -101 -211 -187 -383 -191
-383 -4 0 -42 27 -85 60 l-78 60 -359 0 c-197 0 -357 -4 -355 -8 1 -5 127
-239 278 -520 l275 -512 340 0 340 0 425 917 c234 505 433 934 442 955 l17 38
-378 0 -378 0 -55 -112z"/>
<path d="M252 1638 c-5 -7 -17 -28 -27 -47 -16 -32 -16 -34 6 -57 l22 -24 469
0 468 0 -57 70 -57 70 -407 0 c-313 0 -409 -3 -417 -12z"/>
</g>
</svg>
