<?xml version="1.0" standalone="no"?>
<!DOCTYPE svg PUBLIC "-//W3C//DTD SVG 20010904//EN"
 "http://www.w3.org/TR/2001/REC-SVG-20010904/DTD/svg10.dtd">
<svg version="1.0" xmlns="http://www.w3.org/2000/svg"
 width="256.000000pt" height="256.000000pt" viewBox="0 0 256.000000 256.000000"
 preserveAspectRatio="xMidYMid meet">

<g transform="translate(0.000000,256.000000) scale(0.100000,-0.100000)"
fill="#000000" stroke="none">
<path d="M150 2390 c-52 -13 -73 -45 -67 -100 11 -92 895 -1838 1026 -2027 48
-70 104 -106 154 -100 75 10 96 37 238 315 72 141 175 343 229 447 54 105 220
431 370 725 150 294 297 581 326 638 l53 102 -69 0 -69 0 -74 -142 c-73 -140
-153 -295 -357 -693 -56 -110 -133 -258 -170 -330 -37 -71 -102 -199 -145
-283 l-79 -153 -105 3 -105 3 -408 790 c-224 435 -409 795 -411 800 -5 13
-289 17 -337 5z"/>
</g>
</svg>
