<?xml version="1.0" standalone="no"?>
<!DOCTYPE svg PUBLIC "-//W3C//DTD SVG 20010904//EN"
 "http://www.w3.org/TR/2001/REC-SVG-20010904/DTD/svg10.dtd">
<svg version="1.0" xmlns="http://www.w3.org/2000/svg"
 width="256.000000pt" height="256.000000pt" viewBox="0 0 256.000000 256.000000"
 preserveAspectRatio="xMidYMid meet">

<g transform="translate(0.000000,256.000000) scale(0.100000,-0.100000)"
fill="#000000" stroke="none">
<path d="M487 2466 c-20 -7 -62 -29 -92 -47 -48 -29 -58 -41 -76 -89 -12 -30
-23 -81 -26 -112 -5 -54 0 -73 102 -343 59 -158 103 -290 99 -294 -5 -4 -29
-13 -54 -20 -68 -20 -155 -67 -179 -97 -38 -49 -24 -90 47 -135 51 -32 199
-83 274 -94 26 -4 51 -12 56 -19 5 -6 42 -96 82 -201 195 -508 317 -781 380
-848 104 -114 239 -114 326 0 35 46 167 350 334 773 l112 285 97 23 c179 44
281 107 281 173 0 41 -66 93 -162 126 -43 16 -78 33 -78 38 0 6 27 84 59 175
141 396 147 548 23 629 -48 32 -167 71 -214 71 -85 0 -136 -44 -180 -155 l-24
-60 -460 -3 -460 -2 -41 87 c-23 49 -55 101 -71 117 -36 34 -98 43 -155 22z
m117 -47 c25 -20 75 -106 90 -156 l7 -23 -126 0 -125 0 2 -182 3 -183 208 -5
208 -5 85 -194 84 -194 0 -115 0 -114 -72 6 c-116 11 -302 37 -309 45 -6 6
-99 254 -103 274 -2 7 -8 23 -14 37 -24 50 -194 506 -204 545 -7 29 -7 57 1
96 18 86 41 115 123 154 84 41 106 43 142 14z m1391 -30 c76 -28 131 -81 141
-134 13 -71 -14 -200 -87 -419 -39 -116 -75 -218 -80 -228 -8 -15 -18 -18 -47
-13 l-37 5 33 -10 c17 -6 32 -16 32 -22 0 -6 -21 -69 -47 -139 l-48 -128 -50
-10 c-59 -12 -180 -27 -287 -37 l-78 -6 0 119 c0 129 -1 125 116 436 l26 67
214 0 214 0 0 185 0 185 -139 0 c-77 0 -142 3 -144 8 -3 4 8 35 23 69 49 107
107 124 245 72z m-955 -656 c-1 -94 -4 -133 -10 -121 -11 18 -110 247 -110
254 0 2 27 4 60 4 l60 0 0 -137z m490 130 c0 -11 -80 -226 -86 -232 -2 -2 -4
50 -4 117 l0 122 45 0 c25 0 45 -3 45 -7z m-969 -431 c23 -62 39 -115 37 -117
-8 -8 -129 33 -172 57 -22 13 -48 35 -59 49 -18 25 -18 28 -3 57 20 38 136
100 147 79 4 -7 27 -64 50 -125z m1504 100 c120 -66 90 -138 -83 -196 -40 -14
-72 -21 -72 -17 0 9 78 220 86 233 8 12 15 10 69 -20z m-1157 -343 l132 -12 0
-379 0 -378 200 0 200 0 0 378 0 378 138 13 c75 7 161 15 190 18 52 6 52 5 43
-18 -129 -337 -334 -836 -386 -939 -69 -138 -174 -165 -277 -72 -44 40 -94
133 -183 342 -53 124 -193 476 -251 629 l-24 64 42 -6 c24 -4 103 -12 176 -18z"/>
<path d="M578 1593 c7 -3 16 -2 19 1 4 3 -2 6 -13 5 -11 0 -14 -3 -6 -6z"/>
</g>
</svg>
