<?xml version="1.0" standalone="no"?>
<!DOCTYPE svg PUBLIC "-//W3C//DTD SVG 20010904//EN"
 "http://www.w3.org/TR/2001/REC-SVG-20010904/DTD/svg10.dtd">
<svg version="1.0" xmlns="http://www.w3.org/2000/svg"
 width="256.000000pt" height="256.000000pt" viewBox="0 0 256.000000 256.000000"
 preserveAspectRatio="xMidYMid meet">

<g transform="translate(0.000000,256.000000) scale(0.100000,-0.100000)"
fill="#000000" stroke="none">
<path d="M110 2307 c-21 -11 -25 -19 -23 -55 1 -24 17 -77 35 -120 34 -77 975
-1707 1047 -1812 40 -57 91 -100 122 -100 29 0 74 46 109 112 46 88 987 1704
1020 1753 95 139 75 215 -55 215 -34 0 -82 -7 -106 -15 -45 -16 -909 -515
-909 -525 0 -3 42 -29 93 -58 l92 -53 125 65 c69 36 193 101 275 144 83 44
152 78 153 76 4 -3 -273 -482 -287 -497 -5 -4 -145 73 -312 171 -462 272
-1178 674 -1234 694 -60 21 -111 22 -145 5z m999 -745 c315 -175 573 -322 573
-328 -1 -12 -396 -694 -402 -693 -6 0 -404 677 -407 693 -2 6 71 54 162 106
91 52 165 97 165 100 0 7 -177 110 -190 110 -6 0 -65 -27 -132 -61 -99 -50
-123 -58 -133 -47 -15 15 -315 486 -315 493 0 3 24 -8 53 -24 28 -17 310 -173
626 -349z"/>
</g>
</svg>
