<?xml version="1.0" standalone="no"?>
<!DOCTYPE svg PUBLIC "-//W3C//DTD SVG 20010904//EN"
 "http://www.w3.org/TR/2001/REC-SVG-20010904/DTD/svg10.dtd">
<svg version="1.0" xmlns="http://www.w3.org/2000/svg"
 width="256.000000pt" height="256.000000pt" viewBox="0 0 256.000000 256.000000"
 preserveAspectRatio="xMidYMid meet">

<g transform="translate(0.000000,256.000000) scale(0.100000,-0.100000)"
fill="#000000" stroke="none">
<path d="M362 2463 c-39 -19 -65 -64 -64 -113 0 -21 50 -154 126 -339 69 -168
126 -308 126 -313 0 -4 -63 -8 -140 -8 -161 0 -198 -10 -230 -62 -24 -40 -25
-79 -4 -124 35 -73 -38 -69 1099 -72 561 -2 1039 0 1062 3 53 8 98 44 113 91
10 29 9 43 -4 79 -29 74 -45 79 -252 85 l-181 5 134 305 c75 168 137 323 140
345 12 109 -127 177 -206 101 -17 -16 -83 -155 -186 -390 l-160 -366 -453 3
-454 2 -151 370 c-138 336 -155 371 -186 392 -40 27 -83 29 -129 6z"/>
<path d="M204 1177 c-64 -58 -55 -152 19 -197 30 -18 52 -20 292 -20 l261 0
129 -282 c249 -545 258 -562 297 -581 49 -23 89 -21 128 6 28 19 61 82 228
440 l196 417 306 0 c302 0 308 0 341 23 19 13 40 39 48 61 20 52 0 111 -48
143 l-34 23 -1064 0 -1063 0 -36 -33z m1263 -229 c-20 -53 -201 -428 -206
-428 -5 0 -177 369 -197 423 -6 16 8 17 201 17 162 0 206 -3 202 -12z"/>
</g>
</svg>
