<?xml version="1.0" standalone="no"?>
<!DOCTYPE svg PUBLIC "-//W3C//DTD SVG 20010904//EN"
 "http://www.w3.org/TR/2001/REC-SVG-20010904/DTD/svg10.dtd">
<svg version="1.0" xmlns="http://www.w3.org/2000/svg"
 width="256.000000pt" height="256.000000pt" viewBox="0 0 256.000000 256.000000"
 preserveAspectRatio="xMidYMid meet">

<g transform="translate(0.000000,256.000000) scale(0.100000,-0.100000)"
fill="#000000" stroke="none">
<path d="M1245 2321 c-16 -4 -39 -13 -50 -19 -11 -6 -224 -215 -474 -465 -424
-425 -454 -458 -466 -502 -15 -61 -4 -126 30 -175 40 -58 877 -886 915 -905
46 -24 134 -24 180 -1 48 25 906 881 933 931 28 54 28 136 0 190 -26 48 -884
906 -928 928 -39 19 -102 27 -140 18z m295 -796 l245 -245 -248 -248 -247
-247 -247 247 -248 248 245 245 c135 135 247 245 250 245 3 0 115 -110 250
-245z"/>
</g>
</svg>
