<?xml version="1.0" standalone="no"?>
<!DOCTYPE svg PUBLIC "-//W3C//DTD SVG 20010904//EN"
 "http://www.w3.org/TR/2001/REC-SVG-20010904/DTD/svg10.dtd">
<svg version="1.0" xmlns="http://www.w3.org/2000/svg"
 width="256.000000pt" height="256.000000pt" viewBox="0 0 256.000000 256.000000"
 preserveAspectRatio="xMidYMid meet">

<g transform="translate(0.000000,256.000000) scale(0.100000,-0.100000)"
fill="#000000" stroke="none">
<path d="M835 2192 l-468 -286 103 -48 c57 -27 112 -51 124 -54 15 -3 121 53
361 192 187 108 345 197 350 197 6 0 156 -85 335 -188 179 -103 335 -192 346
-197 18 -8 44 0 138 43 64 29 113 56 109 60 -8 7 -878 540 -911 558 -15 8
-109 -46 -487 -277z"/>
<path d="M320 1180 c0 -358 3 -650 6 -650 4 0 225 122 491 271 296 166 490
269 499 265 9 -3 228 -125 489 -271 260 -146 476 -265 479 -265 3 0 6 293 6
650 l0 651 -142 -73 -143 -73 -3 -332 -2 -331 -343 195 c-188 108 -346 196
-352 195 -5 0 -163 -87 -350 -194 l-340 -194 -3 331 -2 330 -145 73 -145 72 0
-650z"/>
<path d="M673 622 c-51 -26 -93 -49 -93 -52 1 -8 713 -483 725 -483 13 0 725
475 725 483 0 3 -44 28 -98 54 l-99 49 -244 -148 c-134 -81 -254 -152 -266
-158 -20 -9 -55 9 -282 146 -142 87 -263 157 -267 156 -5 0 -51 -21 -101 -47z"/>
</g>
</svg>
