<?xml version="1.0" standalone="no"?>
<!DOCTYPE svg PUBLIC "-//W3C//DTD SVG 20010904//EN"
 "http://www.w3.org/TR/2001/REC-SVG-20010904/DTD/svg10.dtd">
<svg version="1.0" xmlns="http://www.w3.org/2000/svg"
 width="256.000000pt" height="256.000000pt" viewBox="0 0 256.000000 256.000000"
 preserveAspectRatio="xMidYMid meet">

<g transform="translate(0.000000,256.000000) scale(0.100000,-0.100000)"
fill="#000000" stroke="none">
<path d="M1516 1671 c5 -5 106 -91 224 -191 118 -100 215 -186 215 -190 0 -13
-127 -111 -139 -107 -6 2 -78 80 -161 175 l-150 171 -100 0 -100 1 -194 -230
c-107 -126 -196 -228 -198 -226 -2 1 33 99 77 216 44 117 80 216 80 221 0 5
-35 9 -78 9 l-77 0 -29 -77 c-71 -192 -89 -234 -96 -226 -4 4 -33 74 -65 156
l-57 147 -102 0 -102 0 -53 -155 c-30 -86 -56 -153 -60 -150 -3 4 -31 72 -62
153 l-56 147 -77 3 c-42 2 -76 2 -76 0 0 -2 38 -109 83 -238 l83 -235 109 -3
110 -3 49 143 c27 79 52 146 55 150 3 4 31 -60 61 -142 l54 -150 98 0 c54 0
98 -3 98 -7 0 -3 -22 -32 -50 -64 -27 -32 -50 -60 -50 -63 0 -3 42 -6 93 -6
l94 0 214 255 c118 140 217 254 221 252 4 -1 32 -31 63 -67 l56 -65 -75 -3
-75 -3 -41 -47 -42 -47 161 -3 160 -2 52 -60 52 -60 101 0 101 0 84 75 84 74
60 -52 c120 -105 103 -98 224 -95 l108 3 -370 313 -369 312 -115 0 c-69 0
-111 -4 -105 -9z"/>
<path d="M2191 1471 l-64 -58 60 -36 c34 -21 64 -37 68 -37 8 0 185 150 204
174 12 14 2 16 -95 16 l-109 -1 -64 -58z"/>
</g>
</svg>
