<?xml version="1.0" standalone="no"?>
<!DOCTYPE svg PUBLIC "-//W3C//DTD SVG 20010904//EN"
 "http://www.w3.org/TR/2001/REC-SVG-20010904/DTD/svg10.dtd">
<svg version="1.0" xmlns="http://www.w3.org/2000/svg"
 width="256.000000pt" height="256.000000pt" viewBox="0 0 256.000000 256.000000"
 preserveAspectRatio="xMidYMid meet">

<g transform="translate(0.000000,256.000000) scale(0.100000,-0.100000)"
fill="#000000" stroke="none">
<path d="M983 2232 c-155 -92 -283 -170 -283 -174 0 -4 46 -34 101 -68 l101
-61 179 106 c98 58 184 105 190 105 7 0 93 -47 191 -105 l179 -105 105 62 c58
33 102 64 97 69 -11 10 -555 331 -568 334 -5 2 -137 -72 -292 -163z"/>
<path d="M418 1899 l-98 -60 0 -127 1 -127 95 -55 c52 -30 99 -56 104 -58 5
-2 11 52 12 119 l3 122 103 61 c56 33 102 63 102 66 0 10 -194 120 -210 119
-8 0 -59 -28 -112 -60z"/>
<path d="M1165 1905 c-49 -30 -91 -59 -93 -64 -3 -9 182 -121 200 -121 13 0
208 113 208 120 0 9 -196 120 -211 120 -8 -1 -54 -25 -104 -55z"/>
<path d="M1898 1902 c-54 -31 -98 -59 -98 -62 0 -3 47 -32 105 -65 l105 -60 0
-122 c0 -68 3 -123 7 -123 3 0 50 26 105 57 l98 57 0 130 0 131 -100 58 c-55
31 -105 57 -112 57 -7 -1 -57 -27 -110 -58z"/>
<path d="M797 1687 l-107 -62 2 -129 3 -129 180 -106 180 -106 5 -220 5 -219
95 -57 c52 -32 102 -58 110 -58 8 -1 61 26 118 59 l102 60 0 218 0 217 185
108 186 109 -3 126 -3 126 -107 63 -107 63 -179 -105 c-98 -58 -184 -105 -191
-105 -6 0 -89 46 -184 102 -95 55 -175 102 -178 104 -3 2 -54 -25 -112 -59z"/>
<path d="M322 1059 l3 -343 240 -141 c132 -77 261 -153 287 -168 l48 -28 0
128 -1 128 -179 104 -180 105 0 110 c0 61 -3 161 -6 221 l-7 111 -94 54 c-52
30 -99 57 -104 58 -6 2 -8 -130 -7 -339z"/>
<path d="M2108 1339 l-98 -60 0 -217 -1 -217 -182 -106 -182 -106 -3 -128 c-1
-70 1 -125 6 -123 5 1 135 77 290 168 l282 165 0 343 c0 188 -3 342 -7 341 -5
0 -52 -28 -105 -60z"/>
<path d="M690 1064 l0 -129 99 -57 c55 -32 102 -58 105 -58 3 0 6 55 6 123 l0
122 -82 49 c-46 27 -93 56 -105 64 l-23 14 0 -128z"/>
<path d="M1738 1122 l-98 -57 0 -122 c0 -68 3 -123 8 -123 4 0 52 26 107 58
l100 58 3 122 c2 94 0 122 -10 121 -7 0 -57 -26 -110 -57z"/>
<path d="M1060 408 l0 -123 106 -62 106 -63 107 63 106 63 3 122 c2 78 -1 122
-8 122 -5 0 -54 -26 -109 -59 l-99 -59 -99 59 c-54 32 -101 59 -105 59 -5 0
-8 -55 -8 -122z"/>
</g>
</svg>
