<?xml version="1.0" standalone="no"?>
<!DOCTYPE svg PUBLIC "-//W3C//DTD SVG 20010904//EN"
 "http://www.w3.org/TR/2001/REC-SVG-20010904/DTD/svg10.dtd">
<svg version="1.0" xmlns="http://www.w3.org/2000/svg"
 width="256.000000pt" height="256.000000pt" viewBox="0 0 256.000000 256.000000"
 preserveAspectRatio="xMidYMid meet">

<g transform="translate(0.000000,256.000000) scale(0.100000,-0.100000)"
fill="#000000" stroke="none">
<path d="M1145 2474 c-168 -26 -282 -62 -418 -132 -317 -162 -546 -464 -623
-822 -26 -118 -26 -362 0 -480 102 -474 462 -834 936 -936 118 -26 362 -26
480 0 474 102 834 462 936 936 26 118 26 362 0 480 -101 467 -454 826 -916
931 -83 19 -327 33 -395 23z m252 -95 c380 -42 710 -274 874 -614 155 -322
153 -661 -6 -980 -151 -303 -431 -518 -764 -587 -131 -27 -376 -21 -496 11
-336 92 -605 324 -740 638 -60 140 -77 221 -82 398 -4 134 -2 176 15 256 69
333 284 613 587 764 205 103 396 138 612 114z"/>
<path d="M1142 2300 c-186 -26 -379 -112 -527 -235 l-30 -24 34 -35 33 -34 61
49 c34 27 102 69 152 94 262 130 578 130 835 0 65 -33 160 -96 179 -119 7 -9
21 -16 30 -16 19 0 61 40 61 57 0 18 -152 124 -245 169 -168 81 -403 119 -583
94z"/>
<path d="M489 1937 c-87 -105 -165 -259 -203 -397 -62 -225 -36 -490 68 -704
49 -101 150 -246 171 -246 12 0 55 50 55 64 0 2 -22 35 -50 71 -61 81 -121
204 -152 310 -20 69 -23 103 -23 245 0 142 3 176 23 245 30 107 100 247 161
322 l49 61 -32 31 c-18 17 -34 31 -36 30 -3 0 -17 -15 -31 -32z"/>
<path d="M2005 1940 c-21 -22 -27 -34 -20 -44 6 -7 27 -35 47 -62 157 -205
218 -503 159 -766 -27 -117 -96 -262 -171 -357 -22 -28 -40 -54 -40 -59 0 -4
13 -21 29 -37 l30 -28 28 33 c94 111 170 259 210 408 23 84 26 117 26 252 0
136 -3 167 -26 255 -32 120 -107 275 -177 368 -29 37 -55 67 -59 67 -4 0 -20
-14 -36 -30z"/>
<path d="M1090 1796 l0 -95 -116 -3 -117 -3 0 -60 0 -60 61 -5 c34 -3 67 -11
74 -18 10 -10 13 -77 13 -293 0 -315 4 -299 -77 -299 -26 0 -49 -3 -51 -7 -3
-5 -8 -36 -12 -70 l-7 -63 116 0 116 0 0 -95 0 -95 55 0 55 0 0 95 0 95 50 0
50 0 0 -95 0 -95 55 0 55 0 0 94 0 94 48 6 c137 19 204 46 250 101 37 45 52
96 52 173 0 101 -28 147 -112 187 l-47 22 29 22 c88 64 90 203 6 287 -41 42
-91 62 -188 79 l-38 6 0 94 0 95 -55 0 -55 0 0 -95 0 -95 -45 0 -44 0 -3 93
-3 92 -57 3 -58 3 0 -95z m326 -257 c49 -23 69 -62 60 -113 -12 -61 -91 -96
-217 -96 l-49 0 0 114 c0 111 1 115 23 119 43 8 142 -5 183 -24z m18 -340 c92
-26 126 -116 69 -179 -35 -37 -118 -60 -220 -60 l-73 0 0 132 0 131 93 -6 c50
-4 110 -12 131 -18z"/>
<path d="M622 559 c-18 -16 -32 -31 -32 -35 0 -19 184 -143 264 -179 129 -57
299 -95 426 -95 149 0 356 53 488 125 73 40 202 134 202 147 0 5 -14 21 -32
37 l-32 28 -60 -49 c-74 -60 -215 -130 -321 -160 -69 -20 -103 -23 -245 -23
-142 0 -176 3 -245 23 -106 30 -247 100 -321 160 l-60 49 -32 -28z"/>
</g>
</svg>
