<?xml version="1.0" standalone="no"?>
<!DOCTYPE svg PUBLIC "-//W3C//DTD SVG 20010904//EN"
 "http://www.w3.org/TR/2001/REC-SVG-20010904/DTD/svg10.dtd">
<svg version="1.0" xmlns="http://www.w3.org/2000/svg"
 width="256.000000pt" height="256.000000pt" viewBox="0 0 256.000000 256.000000"
 preserveAspectRatio="xMidYMid meet">

<g transform="translate(0.000000,256.000000) scale(0.100000,-0.100000)"
fill="#000000" stroke="none">
<path d="M1170 2395 c-8 -2 -49 -9 -90 -15 -537 -88 -944 -597 -917 -1146 3
-62 8 -118 12 -124 4 -6 59 -10 144 -10 168 0 168 0 230 129 25 50 46 89 47
88 1 -1 23 -90 48 -197 62 -260 64 -267 82 -285 24 -23 81 -19 98 7 8 13 31
117 51 233 39 233 47 267 52 245 1 -8 21 -172 43 -365 36 -317 42 -352 61
-368 12 -9 34 -17 49 -17 61 0 58 -14 142 698 42 361 77 665 78 674 1 43 -70
66 -90 29 -5 -11 -35 -235 -65 -498 -31 -263 -59 -494 -63 -513 -6 -25 -18 54
-46 300 -21 184 -42 342 -47 351 -19 36 -91 40 -113 7 -8 -13 -31 -120 -51
-238 -42 -252 -55 -323 -61 -318 -2 2 -23 89 -48 192 -26 108 -52 196 -62 207
-22 24 -76 25 -96 2 -9 -10 -43 -73 -77 -140 l-61 -123 -66 0 -67 0 6 128 c4
97 11 149 31 217 100 338 351 590 691 692 83 25 104 27 265 27 205 0 274 -15
429 -90 121 -57 198 -113 287 -205 110 -115 196 -257 235 -386 l12 -43 64 0
c48 0 63 3 63 14 0 28 -52 161 -96 246 -190 368 -585 604 -1002 599 -48 -1
-94 -3 -102 -4z"/>
<path d="M1452 1983 c-7 -2 -17 -13 -22 -23 -10 -19 -160 -1265 -160 -1330 0
-20 5 -41 12 -48 19 -19 56 -14 71 11 9 14 36 212 73 529 32 279 60 506 62
504 2 -2 21 -153 42 -336 42 -362 44 -370 105 -370 58 0 64 16 113 310 25 149
49 267 52 263 4 -5 26 -89 49 -188 24 -99 49 -190 57 -202 15 -24 61 -31 92
-14 9 5 46 68 82 140 l65 132 65 -3 65 -3 -1 -105 c-5 -299 -163 -599 -410
-776 -82 -59 -232 -129 -329 -155 -103 -27 -306 -36 -412 -19 -357 57 -660
310 -779 650 l-23 65 -66 3 c-36 2 -65 1 -65 -1 0 -3 11 -39 25 -81 108 -332
372 -600 700 -713 540 -185 1126 58 1375 571 76 155 101 260 107 443 3 84 2
168 -1 188 l-7 35 -134 0 c-73 0 -145 -4 -159 -10 -19 -7 -38 -35 -73 -105
-26 -52 -50 -95 -53 -95 -3 0 -29 102 -58 228 -30 125 -61 235 -70 245 -8 9
-29 17 -48 17 -56 0 -65 -23 -108 -280 -27 -160 -42 -226 -47 -209 -4 13 -24
174 -45 358 -31 273 -41 338 -57 357 -18 23 -53 30 -85 17z"/>
</g>
</svg>
