<?xml version="1.0" standalone="no"?>
<!DOCTYPE svg PUBLIC "-//W3C//DTD SVG 20010904//EN"
 "http://www.w3.org/TR/2001/REC-SVG-20010904/DTD/svg10.dtd">
<svg version="1.0" xmlns="http://www.w3.org/2000/svg"
 width="256.000000pt" height="256.000000pt" viewBox="0 0 256.000000 256.000000"
 preserveAspectRatio="xMidYMid meet">

<g transform="translate(0.000000,256.000000) scale(0.100000,-0.100000)"
fill="#000000" stroke="none">
<path d="M1119 2143 c-219 -355 -219 -357 -229 -347 -5 5 -78 132 -163 282
-84 151 -158 274 -163 274 -5 0 -116 -176 -246 -391 l-238 -391 400 -688 c220
-378 404 -688 409 -690 5 -2 93 134 197 302 104 168 191 305 194 305 3 0 90
-137 194 -304 104 -168 192 -305 195 -305 4 0 188 311 409 690 l402 691 -238
392 c-131 216 -242 391 -246 390 -5 0 -80 -126 -166 -278 -86 -152 -160 -278
-165 -279 -5 0 -90 132 -190 293 -100 162 -187 297 -192 298 -6 2 -80 -108
-164 -244z m311 -259 c80 -130 146 -240 148 -244 4 -10 -289 -530 -298 -530
-10 0 -302 519 -298 529 9 21 294 480 298 481 3 0 70 -107 150 -236z m-555
-366 c171 -303 312 -557 313 -565 5 -19 -288 -487 -298 -476 -5 4 -151 252
-324 550 l-315 541 152 251 c84 138 154 251 157 251 3 0 144 -249 315 -552z
m1283 302 l152 -251 -316 -542 c-174 -298 -319 -546 -324 -550 -9 -10 -302
459 -298 477 4 20 622 1116 628 1116 3 0 74 -113 158 -250z"/>
</g>
</svg>
