<?xml version="1.0" standalone="no"?>
<!DOCTYPE svg PUBLIC "-//W3C//DTD SVG 20010904//EN"
 "http://www.w3.org/TR/2001/REC-SVG-20010904/DTD/svg10.dtd">
<svg version="1.0" xmlns="http://www.w3.org/2000/svg"
 width="256.000000pt" height="256.000000pt" viewBox="0 0 256.000000 256.000000"
 preserveAspectRatio="xMidYMid meet">

<g transform="translate(0.000000,256.000000) scale(0.100000,-0.100000)"
fill="#000000" stroke="none">
<path d="M1838 2030 c-47 -28 -89 -57 -92 -66 -10 -26 11 -50 93 -108 80 -57
107 -66 129 -44 24 24 13 54 -33 87 -24 17 -47 35 -49 40 -3 5 17 22 44 39 52
32 65 63 38 90 -20 20 -39 14 -130 -38z"/>
<path d="M1044 1996 c-28 -28 -34 -42 -34 -76 0 -34 6 -48 34 -76 29 -29 41
-34 79 -34 80 0 132 70 107 145 -16 49 -53 75 -107 75 -38 0 -50 -5 -79 -34z"/>
<path d="M1100 1658 c-14 -7 -33 -29 -42 -48 -16 -31 -18 -69 -18 -325 0 -256
2 -294 18 -325 34 -68 121 -77 166 -17 20 27 21 42 24 320 3 302 -1 349 -37
381 -25 23 -80 30 -111 14z"/>
<path d="M109 1621 c-16 -17 -29 -40 -29 -54 0 -14 31 -152 69 -308 61 -250
72 -286 96 -306 35 -31 94 -31 126 0 14 12 49 81 79 155 30 72 56 132 59 132
4 0 30 -61 59 -135 36 -91 62 -142 79 -155 37 -29 86 -26 122 8 27 24 37 54
101 307 49 194 69 290 65 312 -12 68 -106 97 -160 51 -21 -18 -32 -48 -56
-143 -17 -66 -32 -121 -34 -123 -1 -1 -22 45 -45 103 -46 114 -80 155 -130
155 -49 0 -84 -41 -130 -155 -24 -58 -45 -104 -46 -102 -1 1 -16 56 -33 122
-35 139 -54 165 -122 165 -31 0 -47 -7 -70 -29z"/>
<path d="M1558 1636 c-84 -23 -157 -89 -187 -169 -7 -17 -11 -127 -11 -278 l0
-250 24 -24 c34 -34 71 -41 113 -21 57 27 63 56 63 299 0 198 1 215 19 231 29
27 94 32 146 11 74 -28 75 -31 75 -272 l0 -213 29 -32 c24 -27 36 -33 71 -33
35 0 47 6 71 33 l29 32 0 233 c0 230 0 234 -26 285 -70 141 -248 213 -416 168z"/>
<path d="M2332 1637 c-12 -7 -72 -82 -132 -167 -90 -124 -110 -160 -110 -188
0 -27 24 -74 101 -201 56 -91 113 -176 126 -188 59 -55 163 -4 163 80 0 13
-38 86 -85 162 -47 76 -85 139 -85 141 0 2 30 45 66 95 86 119 104 150 104
176 0 76 -82 126 -148 90z"/>
<path d="M972 768 c-38 -38 1 -79 134 -139 283 -126 551 -134 824 -22 115 47
150 70 150 97 0 26 -17 46 -41 46 -9 0 -54 -18 -100 -39 -128 -59 -217 -82
-351 -88 -172 -8 -316 25 -489 113 -90 47 -108 51 -127 32z"/>
</g>
</svg>
