<?xml version="1.0" standalone="no"?>
<!DOCTYPE svg PUBLIC "-//W3C//DTD SVG 20010904//EN"
 "http://www.w3.org/TR/2001/REC-SVG-20010904/DTD/svg10.dtd">
<svg version="1.0" xmlns="http://www.w3.org/2000/svg"
 width="256.000000pt" height="256.000000pt" viewBox="0 0 256.000000 256.000000"
 preserveAspectRatio="xMidYMid meet">

<g transform="translate(0.000000,256.000000) scale(0.100000,-0.100000)"
fill="#000000" stroke="none">
<path d="M107 2033 c15 -26 131 -227 258 -446 126 -219 234 -399 240 -400 9
-2 205 327 205 344 0 4 -70 129 -156 278 l-156 271 -209 0 -210 0 28 -47z"/>
<path d="M920 2076 c0 -3 65 -116 143 -253 79 -136 149 -258 156 -271 11 -21
-6 -54 -193 -378 -113 -196 -206 -360 -206 -366 0 -9 185 -336 199 -350 4 -5
147 235 319 533 l312 540 -158 274 -157 274 -207 1 c-115 0 -208 -2 -208 -4z"/>
<path d="M1750 2076 c0 -2 63 -114 141 -248 77 -133 147 -256 156 -271 14 -28
11 -34 -186 -375 -110 -191 -203 -355 -206 -364 -4 -11 29 -78 96 -193 l102
-177 18 29 c9 15 150 259 313 541 l296 513 -157 274 -158 274 -207 1 c-115 0
-208 -2 -208 -4z"/>
</g>
</svg>
