<?xml version="1.0" standalone="no"?>
<!DOCTYPE svg PUBLIC "-//W3C//DTD SVG 20010904//EN"
 "http://www.w3.org/TR/2001/REC-SVG-20010904/DTD/svg10.dtd">
<svg version="1.0" xmlns="http://www.w3.org/2000/svg"
 width="256.000000pt" height="256.000000pt" viewBox="0 0 256.000000 256.000000"
 preserveAspectRatio="xMidYMid meet">

<g transform="translate(0.000000,256.000000) scale(0.100000,-0.100000)"
fill="#000000" stroke="none">
<path d="M1132 2387 c-111 -41 -204 -197 -204 -343 1 -89 15 -124 96 -233 35
-47 69 -97 76 -110 26 -50 -11 -180 -62 -215 -12 -8 -45 -21 -73 -27 -73 -16
-143 5 -215 67 -81 70 -164 105 -243 105 -117 0 -215 -39 -284 -114 -23 -25
-46 -62 -52 -83 -14 -52 -14 -247 1 -295 33 -113 195 -211 344 -211 89 1 124
15 233 96 47 35 97 69 110 76 50 26 180 -11 215 -62 8 -12 21 -45 27 -73 16
-73 -5 -143 -67 -215 -70 -81 -105 -164 -105 -243 0 -117 39 -215 114 -284 25
-23 62 -46 83 -52 52 -14 247 -14 295 1 113 33 211 195 211 344 -1 89 -15 124
-96 233 -35 47 -69 97 -76 110 -26 50 11 180 62 215 12 8 45 21 73 27 73 16
143 -5 215 -67 81 -70 164 -105 243 -105 117 0 215 39 284 114 23 25 46 62 52
83 14 52 14 247 -1 295 -33 113 -195 211 -344 211 -89 -1 -124 -15 -233 -96
-47 -35 -97 -69 -110 -76 -50 -26 -180 11 -215 62 -8 12 -21 45 -27 73 -16 73
5 143 67 215 70 81 105 164 105 243 0 117 -39 215 -114 284 -25 23 -62 46 -83
52 -52 14 -260 13 -302 -2z m234 -136 c86 -39 136 -140 114 -231 -40 -165
-250 -215 -357 -85 -110 133 -15 335 157 335 25 0 63 -9 86 -19z m-822 -772
c162 -40 209 -251 81 -356 -77 -64 -183 -64 -260 -1 -125 104 -84 306 72 355
49 15 56 15 107 2z m1570 0 c162 -40 209 -251 81 -356 -77 -64 -183 -64 -260
-1 -125 104 -84 306 72 355 49 15 56 15 107 2z m-748 -798 c86 -39 136 -140
114 -231 -40 -165 -250 -215 -357 -85 -110 133 -15 335 157 335 25 0 63 -9 86
-19z"/>
<path d="M1224 2191 c-30 -13 -71 -66 -79 -101 -9 -43 11 -94 51 -130 29 -25
43 -30 84 -30 41 0 55 5 85 31 66 59 69 143 5 204 -31 30 -105 43 -146 26z"/>
<path d="M445 1406 c-16 -7 -41 -26 -55 -41 -21 -22 -25 -37 -25 -85 0 -51 4
-63 30 -90 61 -64 145 -62 205 6 59 68 31 174 -57 210 -40 17 -59 17 -98 0z"/>
<path d="M2015 1406 c-87 -38 -114 -143 -54 -211 59 -67 143 -69 205 -4 25 26
29 38 29 89 0 48 -4 63 -25 85 -27 29 -78 55 -107 55 -10 -1 -32 -7 -48 -14z"/>
<path d="M1195 599 c-67 -59 -69 -143 -4 -205 26 -25 38 -29 89 -29 51 0 63 4
90 30 64 61 62 145 -6 205 -29 25 -43 30 -84 30 -41 0 -55 -5 -85 -31z"/>
</g>
</svg>
