<?xml version="1.0" standalone="no"?>
<!DOCTYPE svg PUBLIC "-//W3C//DTD SVG 20010904//EN"
 "http://www.w3.org/TR/2001/REC-SVG-20010904/DTD/svg10.dtd">
<svg version="1.0" xmlns="http://www.w3.org/2000/svg"
 width="256.000000pt" height="256.000000pt" viewBox="0 0 256.000000 256.000000"
 preserveAspectRatio="xMidYMid meet">

<g transform="translate(0.000000,256.000000) scale(0.100000,-0.100000)"
fill="#000000" stroke="none">
<path d="M166 2058 c4 -13 103 -340 221 -728 117 -388 221 -716 231 -730 35
-48 76 -60 205 -60 124 0 167 10 200 47 10 11 69 147 131 302 62 156 116 283
120 284 4 1 59 -123 121 -276 62 -153 121 -289 130 -303 27 -41 72 -54 193
-54 60 0 124 3 141 6 69 14 79 35 194 411 59 191 107 351 107 356 0 4 -82 6
-182 5 l-182 -3 -31 -102 c-17 -56 -33 -104 -36 -107 -3 -3 -50 104 -104 237
-92 222 -104 246 -150 293 -58 59 -120 84 -205 84 -79 0 -170 -46 -214 -107
-17 -24 -77 -151 -133 -281 -56 -130 -104 -230 -107 -222 -3 8 -66 222 -141
475 -75 253 -138 468 -141 478 -5 15 -23 17 -190 17 l-185 0 7 -22z"/>
<path d="M2027 2073 c-7 -12 -167 -542 -167 -553 0 -6 71 -10 183 -10 l182 0
84 273 c46 149 86 278 88 285 4 9 -37 12 -181 12 -101 0 -187 -3 -189 -7z"/>
</g>
</svg>
