<?xml version="1.0" standalone="no"?>
<!DOCTYPE svg PUBLIC "-//W3C//DTD SVG 20010904//EN"
 "http://www.w3.org/TR/2001/REC-SVG-20010904/DTD/svg10.dtd">
<svg version="1.0" xmlns="http://www.w3.org/2000/svg"
 width="256.000000pt" height="256.000000pt" viewBox="0 0 256.000000 256.000000"
 preserveAspectRatio="xMidYMid meet">

<g transform="translate(0.000000,256.000000) scale(0.100000,-0.100000)"
fill="#000000" stroke="none">
<path d="M760 2181 l-515 -298 0 -603 0 -603 517 -298 518 -299 517 299 518
299 0 602 0 602 -510 295 c-280 162 -514 296 -520 298 -5 2 -242 -130 -525
-294z m860 -297 c187 -108 340 -200 340 -204 0 -9 -318 -193 -334 -193 -6 0
-87 43 -179 96 l-168 97 -169 -97 c-93 -54 -170 -100 -170 -103 0 -3 75 -48
165 -100 91 -52 165 -97 165 -100 0 -3 -74 -48 -165 -100 -91 -52 -165 -97
-165 -100 0 -3 77 -49 170 -103 l170 -97 167 97 c92 53 173 96 179 96 16 0
334 -184 334 -193 0 -4 -153 -96 -340 -204 l-340 -196 -343 198 -342 197 0
405 0 405 340 197 c187 108 341 197 342 198 1 0 156 -88 343 -196z"/>
</g>
</svg>
