<?xml version="1.0" standalone="no"?>
<!DOCTYPE svg PUBLIC "-//W3C//DTD SVG 20010904//EN"
 "http://www.w3.org/TR/2001/REC-SVG-20010904/DTD/svg10.dtd">
<svg version="1.0" xmlns="http://www.w3.org/2000/svg"
 width="256.000000pt" height="256.000000pt" viewBox="0 0 256.000000 256.000000"
 preserveAspectRatio="xMidYMid meet">

<g transform="translate(0.000000,256.000000) scale(0.100000,-0.100000)"
fill="#000000" stroke="none">
<path d="M320 2347 c-25 -23 -71 -65 -102 -94 l-58 -51 245 -778 c135 -427
248 -781 251 -785 3 -5 75 -9 159 -9 137 0 155 2 163 17 5 10 44 134 88 275
43 142 81 258 84 258 3 0 42 -123 86 -273 l81 -272 160 -3 160 -2 99 281 c70
199 101 276 106 262 4 -10 71 -236 149 -503 78 -267 145 -489 149 -493 9 -10
210 215 210 234 -1 8 -78 289 -173 624 l-173 610 -156 3 c-142 2 -158 1 -166
-15 -5 -10 -49 -159 -97 -330 -49 -172 -90 -311 -92 -309 -2 2 -39 140 -83
307 -44 167 -85 314 -90 327 -9 21 -14 22 -149 22 l-140 0 -96 -297 c-53 -164
-101 -314 -107 -333 l-11 -35 -22 65 c-11 36 -109 352 -216 702 -107 351 -198
638 -204 638 -5 0 -30 -19 -55 -43z"/>
</g>
</svg>
