<?xml version="1.0" standalone="no"?>
<!DOCTYPE svg PUBLIC "-//W3C//DTD SVG 20010904//EN"
 "http://www.w3.org/TR/2001/REC-SVG-20010904/DTD/svg10.dtd">
<svg version="1.0" xmlns="http://www.w3.org/2000/svg"
 width="256.000000pt" height="256.000000pt" viewBox="0 0 256.000000 256.000000"
 preserveAspectRatio="xMidYMid meet">

<g transform="translate(0.000000,256.000000) scale(0.100000,-0.100000)"
fill="#000000" stroke="none">
<path d="M1214 2248 c-254 -433 -914 -1569 -914 -1573 0 -3 71 -5 158 -5 l159
0 584 441 c321 243 584 447 584 454 0 14 -516 744 -527 745 -4 0 -24 -28 -44
-62z"/>
<path d="M83 1859 c4 -24 27 -267 53 -539 26 -272 48 -497 50 -499 2 -2 5 -2
7 0 14 18 413 695 415 704 2 9 -426 315 -516 369 -12 7 -14 1 -9 -35z"/>
<path d="M1670 1272 l-795 -597 739 -3 c407 -1 741 0 744 2 2 3 28 251 58 553
29 301 56 569 59 596 3 26 2 47 -2 47 -4 0 -366 -269 -803 -598z"/>
<path d="M182 393 l3 -118 1087 -3 1088 -2 0 120 0 120 -1090 0 -1091 0 3
-117z"/>
</g>
</svg>
