<?xml version="1.0" standalone="no"?>
<!DOCTYPE svg PUBLIC "-//W3C//DTD SVG 20010904//EN"
 "http://www.w3.org/TR/2001/REC-SVG-20010904/DTD/svg10.dtd">
<svg version="1.0" xmlns="http://www.w3.org/2000/svg"
 width="256.000000pt" height="256.000000pt" viewBox="0 0 256.000000 256.000000"
 preserveAspectRatio="xMidYMid meet">

<g transform="translate(0.000000,256.000000) scale(0.100000,-0.100000)"
fill="#000000" stroke="none">
<path d="M360 2051 c-52 -16 -137 -43 -187 -61 l-93 -33 0 -524 0 -523 28 -11
c15 -6 54 -9 87 -6 58 6 197 49 223 69 9 8 12 84 12 317 0 288 1 308 20 339
24 40 68 67 132 82 l48 12 0 147 c0 164 -1 166 -77 205 -44 22 -82 19 -193
-13z"/>
<path d="M1335 2069 c-22 -5 -109 -32 -192 -60 l-153 -52 0 -524 0 -523 26
-10 c53 -20 140 -7 267 40 l57 21 0 306 c0 261 2 310 16 339 23 48 74 80 157
98 l28 7 -3 151 -3 151 -37 30 c-41 33 -97 42 -163 26z"/>
<path d="M2245 2049 c-156 -27 -238 -54 -273 -88 -51 -52 -55 -83 -56 -544 -1
-463 0 -474 59 -513 26 -17 31 -17 119 5 249 60 320 84 354 117 l32 32 0 485
0 486 -26 20 c-33 26 -64 26 -209 0z"/>
<path d="M721 1639 c-143 -31 -189 -50 -208 -90 -10 -18 -12 -138 -12 -489 1
-256 4 -478 8 -494 3 -16 18 -38 33 -49 l26 -20 218 47 c120 26 230 54 246 62
37 19 60 55 65 107 7 67 -8 94 -59 102 -58 10 -80 27 -112 84 l-26 49 0 361 0
361 -22 -1 c-13 0 -83 -14 -157 -30z"/>
<path d="M1631 1639 c-131 -28 -193 -54 -205 -85 -3 -9 -6 -238 -6 -510 l0
-495 25 -24 c13 -14 29 -25 34 -25 15 0 324 66 403 85 88 23 120 55 126 128 6
71 -7 93 -58 102 -22 4 -54 18 -71 32 -59 50 -59 48 -59 453 l0 370 -27 -1
c-16 0 -88 -14 -162 -30z"/>
</g>
</svg>
