<?xml version="1.0" standalone="no"?>
<!DOCTYPE svg PUBLIC "-//W3C//DTD SVG 20010904//EN"
 "http://www.w3.org/TR/2001/REC-SVG-20010904/DTD/svg10.dtd">
<svg version="1.0" xmlns="http://www.w3.org/2000/svg"
 width="256.000000pt" height="256.000000pt" viewBox="0 0 256.000000 256.000000"
 preserveAspectRatio="xMidYMid meet">

<g transform="translate(0.000000,256.000000) scale(0.100000,-0.100000)"
fill="#000000" stroke="none">
<path d="M175 2443 c8 -21 221 -558 474 -1193 252 -635 462 -1155 467 -1156 9
-3 1319 1590 1319 1604 0 10 -463 452 -474 452 -8 0 -1727 316 -1774 326 l-28
6 16 -39z m994 -278 c343 -63 625 -116 627 -117 2 -2 -109 -98 -247 -212
l-251 -209 -24 19 c-80 62 -763 630 -763 636 -1 3 7 4 17 2 9 -2 298 -56 641
-119z m-338 -316 l411 -342 -5 -36 c-3 -20 -31 -250 -62 -511 -31 -261 -60
-483 -64 -494 -5 -13 -82 170 -261 620 -380 956 -438 1104 -434 1104 2 0 189
-154 415 -341z m1379 -108 c0 -6 -732 -143 -737 -138 -1 2 104 91 234 199
l236 197 134 -126 c73 -69 133 -129 133 -132z m-22 -149 c-6 -15 -942 -1152
-945 -1148 -5 4 116 999 122 1005 5 4 776 148 808 150 10 0 17 -3 15 -7z"/>
</g>
</svg>
