<?xml version="1.0" standalone="no"?>
<!DOCTYPE svg PUBLIC "-//W3C//DTD SVG 20010904//EN"
 "http://www.w3.org/TR/2001/REC-SVG-20010904/DTD/svg10.dtd">
<svg version="1.0" xmlns="http://www.w3.org/2000/svg"
 width="256.000000pt" height="256.000000pt" viewBox="0 0 256.000000 256.000000"
 preserveAspectRatio="xMidYMid meet">

<g transform="translate(0.000000,256.000000) scale(0.100000,-0.100000)"
fill="#000000" stroke="none">
<path d="M400 1907 c0 -6 18 -75 40 -152 22 -77 40 -141 40 -142 0 -2 -72 -3
-160 -3 l-160 0 0 -110 0 -110 192 -2 193 -3 31 -107 32 -108 -224 0 -225 0 3
-112 3 -113 255 -5 255 -5 37 -135 c21 -74 43 -152 49 -173 l10 -37 182 2 182
3 118 450 c65 248 124 477 131 510 l13 60 8 -40 c7 -36 237 -925 251 -968 5
-16 21 -17 186 -15 l180 3 182 640 c101 352 186 650 190 663 l8 23 -153 -3
-152 -3 -78 -270 c-92 -316 -143 -506 -160 -590 l-12 -60 -22 100 c-13 55 -62
246 -109 425 -48 179 -91 342 -97 363 l-10 37 -214 0 c-118 0 -215 -2 -215 -5
0 -3 -43 -167 -95 -364 -52 -198 -105 -403 -118 -457 l-23 -99 -17 85 c-9 47
-65 255 -124 463 l-107 377 -148 0 c-112 0 -148 -3 -148 -13z"/>
</g>
</svg>
