<?xml version="1.0" standalone="no"?>
<!DOCTYPE svg PUBLIC "-//W3C//DTD SVG 20010904//EN"
 "http://www.w3.org/TR/2001/REC-SVG-20010904/DTD/svg10.dtd">
<svg version="1.0" xmlns="http://www.w3.org/2000/svg"
 width="256.000000pt" height="256.000000pt" viewBox="0 0 256.000000 256.000000"
 preserveAspectRatio="xMidYMid meet">

<g transform="translate(0.000000,256.000000) scale(0.100000,-0.100000)"
fill="#000000" stroke="none">
<path d="M596 2218 c-42 -38 -436 -691 -436 -724 -1 -25 71 -100 537 -562 296
-293 548 -535 561 -538 12 -4 32 -3 45 0 12 3 264 246 560 538 466 462 538
537 537 562 0 32 -377 699 -412 729 -19 16 -67 17 -694 17 l-673 0 -25 -22z
m1174 -363 l0 -95 -185 0 -185 0 0 -59 0 -60 48 -6 c233 -28 345 -57 389 -101
20 -20 23 -33 23 -104 0 -74 -2 -83 -26 -105 -44 -41 -190 -80 -346 -93 l-83
-7 -3 -157 -3 -158 -119 0 -119 0 -3 158 -3 157 -85 7 c-154 14 -296 53 -342
95 -15 13 -18 32 -18 103 0 78 2 89 23 108 44 41 160 71 380 97 l47 6 0 59 0
60 -182 2 -183 3 -3 93 -3 92 491 0 490 0 0 -95z"/>
<path d="M1048 1530 c-113 -14 -221 -39 -276 -66 -51 -25 -52 -27 -36 -45 62
-69 451 -117 734 -90 192 18 370 67 370 102 0 15 -95 56 -170 73 -78 18 -250
37 -262 30 -4 -3 -8 -34 -8 -70 l0 -65 -117 3 -118 3 -3 68 c-3 76 7 71 -114
57z"/>
</g>
</svg>
