<?xml version="1.0" standalone="no"?>
<!DOCTYPE svg PUBLIC "-//W3C//DTD SVG 20010904//EN"
 "http://www.w3.org/TR/2001/REC-SVG-20010904/DTD/svg10.dtd">
<svg version="1.0" xmlns="http://www.w3.org/2000/svg"
 width="256.000000pt" height="256.000000pt" viewBox="0 0 256.000000 256.000000"
 preserveAspectRatio="xMidYMid meet">

<g transform="translate(0.000000,256.000000) scale(0.100000,-0.100000)"
fill="#000000" stroke="none">
<path d="M1400 1670 l0 -330 75 -37 c41 -21 75 -42 75 -47 0 -18 -85 -118
-160 -189 -127 -119 -253 -182 -383 -193 -145 -13 -278 55 -309 157 -10 35 -9
41 8 54 33 25 226 103 319 128 174 48 170 45 69 46 -108 1 -237 -20 -328 -53
-36 -13 -66 -19 -66 -14 0 25 54 109 95 147 71 65 122 84 241 89 93 4 169 -7
237 -33 16 -7 17 1 15 105 l-3 113 -45 14 c-94 29 -196 43 -311 43 -311 0
-491 -112 -564 -350 -10 -34 -19 -107 -22 -193 l-6 -137 -67 -50 c-62 -46 -99
-80 -88 -80 2 0 41 16 85 35 45 19 85 35 91 35 5 0 13 -12 17 -27 9 -39 57
-112 102 -155 57 -54 129 -96 218 -125 70 -23 96 -27 215 -27 163 0 244 19
390 94 53 28 99 50 103 50 4 0 7 -27 7 -60 l0 -60 175 0 175 0 0 323 c0 302 1
324 20 354 22 37 62 60 116 68 47 7 97 -16 128 -58 20 -27 21 -43 24 -358 l3
-329 175 0 175 0 -3 398 c-3 389 -3 398 -26 455 -32 77 -103 148 -179 177
-104 40 -310 24 -398 -30 -18 -11 -34 -20 -36 -20 -2 0 -4 89 -4 197 l0 198
-177 3 -178 2 0 -330z"/>
</g>
</svg>
