<?xml version="1.0" standalone="no"?>
<!DOCTYPE svg PUBLIC "-//W3C//DTD SVG 20010904//EN"
 "http://www.w3.org/TR/2001/REC-SVG-20010904/DTD/svg10.dtd">
<svg version="1.0" xmlns="http://www.w3.org/2000/svg"
 width="256.000000pt" height="256.000000pt" viewBox="0 0 256.000000 256.000000"
 preserveAspectRatio="xMidYMid meet">

<g transform="translate(0.000000,256.000000) scale(0.100000,-0.100000)"
fill="#000000" stroke="none">
<path d="M558 2168 l-398 -230 0 -462 0 -462 161 -92 c88 -52 164 -92 168 -90
4 2 58 32 120 67 73 42 107 67 99 72 -7 5 -78 46 -158 92 l-145 85 -2 328 -2
329 272 155 c149 85 279 155 288 155 8 0 137 -70 287 -155 l272 -155 -3 -329
-2 -329 -152 -86 c-84 -47 -153 -89 -153 -93 0 -3 52 -36 115 -73 l115 -67
160 93 160 94 0 461 0 462 -399 231 c-220 127 -401 231 -403 230 -2 0 -182
-104 -400 -231z"/>
<path d="M998 1637 l-158 -91 0 -462 0 -462 400 -231 401 -231 397 229 397
229 3 465 2 464 -160 92 -161 92 -114 -66 c-63 -37 -115 -70 -115 -73 0 -4 69
-46 153 -93 l152 -86 0 -328 0 -328 -273 -159 c-150 -87 -277 -158 -281 -158
-5 0 -131 71 -282 159 l-274 159 -3 325 -2 325 147 86 c82 46 154 89 162 93
10 7 -19 28 -104 76 -65 37 -120 67 -124 67 -3 -1 -77 -42 -163 -93z"/>
</g>
</svg>
