<?xml version="1.0" standalone="no"?>
<!DOCTYPE svg PUBLIC "-//W3C//DTD SVG 20010904//EN"
 "http://www.w3.org/TR/2001/REC-SVG-20010904/DTD/svg10.dtd">
<svg version="1.0" xmlns="http://www.w3.org/2000/svg"
 width="256.000000pt" height="256.000000pt" viewBox="0 0 256.000000 256.000000"
 preserveAspectRatio="xMidYMid meet">

<g transform="translate(0.000000,256.000000) scale(0.100000,-0.100000)"
fill="#000000" stroke="none">
<path d="M960 2245 c0 -85 -3 -155 -7 -155 -3 0 -29 11 -58 24 -199 94 -448
25 -570 -159 -149 -225 -70 -541 164 -659 240 -122 514 -30 629 211 l37 78 3
408 3 407 -100 0 -101 0 0 -155z m-144 -318 c126 -65 176 -223 109 -346 -48
-88 -122 -131 -223 -131 -266 0 -347 354 -110 475 46 23 62 26 123 22 39 -2
84 -11 101 -20z"/>
<path d="M1575 2266 c-85 -20 -147 -57 -215 -125 -76 -76 -115 -149 -132 -252
-51 -294 224 -570 519 -521 291 48 467 354 357 617 -14 33 -28 66 -31 73 -4 9
30 12 151 12 l156 0 0 105 0 105 -377 -1 c-262 0 -394 -4 -428 -13z m189 -208
c55 -16 138 -99 154 -154 30 -101 9 -188 -63 -259 -97 -98 -238 -103 -342 -11
-59 52 -83 104 -83 184 0 76 19 124 68 176 68 71 164 94 266 64z"/>
<path d="M1802 1304 c-153 -41 -275 -158 -322 -311 -19 -60 -20 -93 -20 -449
l0 -384 100 0 100 0 0 155 c0 128 2 155 14 155 8 0 17 -4 21 -9 8 -14 122 -49
180 -57 109 -13 256 36 347 116 148 130 194 356 108 536 -94 197 -322 304
-528 248z m229 -221 c235 -120 150 -472 -114 -473 -99 0 -175 45 -222 132 -67
123 -18 280 107 342 73 37 155 36 229 -1z"/>
<path d="M851 1190 c-132 -28 -258 -125 -316 -244 -74 -150 -71 -254 12 -443
4 -10 -30 -13 -151 -13 l-156 0 0 -105 0 -105 370 0 c392 0 436 4 530 48 73
34 178 140 213 214 139 295 -62 633 -386 653 -40 2 -92 0 -116 -5z m187 -215
c49 -21 110 -80 133 -130 25 -54 25 -156 0 -210 -23 -50 -84 -109 -133 -130
-44 -18 -125 -20 -179 -3 -93 27 -169 134 -169 238 0 101 70 203 161 236 48
18 143 17 187 -1z"/>
</g>
</svg>
