<?xml version="1.0" standalone="no"?>
<!DOCTYPE svg PUBLIC "-//W3C//DTD SVG 20010904//EN"
 "http://www.w3.org/TR/2001/REC-SVG-20010904/DTD/svg10.dtd">
<svg version="1.0" xmlns="http://www.w3.org/2000/svg"
 width="256.000000pt" height="256.000000pt" viewBox="0 0 256.000000 256.000000"
 preserveAspectRatio="xMidYMid meet">

<g transform="translate(0.000000,256.000000) scale(0.100000,-0.100000)"
fill="#000000" stroke="none">
<path d="M152 2384 c-16 -11 -22 -25 -22 -54 0 -46 -25 -12 424 -580 185 -234
335 -428 333 -432 -1 -4 -177 -231 -392 -504 -214 -274 -395 -507 -402 -518
-19 -33 -15 -65 12 -92 l25 -25 223 3 c246 3 272 9 350 77 20 18 148 174 283
347 136 173 250 314 254 312 5 -2 110 -133 235 -293 257 -328 300 -376 370
-413 l50 -27 289 -3 c191 -2 287 0 285 7 -2 6 -197 256 -434 557 -236 301
-434 554 -438 564 -7 14 80 130 412 548 232 292 421 534 421 537 0 3 -129 5
-287 3 -269 -3 -291 -4 -334 -24 -73 -34 -110 -74 -344 -373 -121 -154 -223
-280 -226 -281 -3 0 -108 131 -234 290 -237 301 -279 344 -368 374 -69 23
-452 24 -485 0z"/>
<path d="M1965 1603 c-115 -147 -211 -273 -213 -280 -3 -12 415 -553 427 -553
3 0 6 248 6 550 0 303 -2 550 -5 550 -3 0 -99 -120 -215 -267z"/>
</g>
</svg>
