<?xml version="1.0" standalone="no"?>
<!DOCTYPE svg PUBLIC "-//W3C//DTD SVG 20010904//EN"
 "http://www.w3.org/TR/2001/REC-SVG-20010904/DTD/svg10.dtd">
<svg version="1.0" xmlns="http://www.w3.org/2000/svg"
 width="256.000000pt" height="256.000000pt" viewBox="0 0 256.000000 256.000000"
 preserveAspectRatio="xMidYMid meet">

<g transform="translate(0.000000,256.000000) scale(0.100000,-0.100000)"
fill="#000000" stroke="none">
<path d="M1225 2461 c-22 -10 -229 -127 -460 -260 -444 -256 -493 -290 -514
-367 -15 -54 -15 -1054 0 -1108 21 -76 71 -112 504 -362 226 -130 433 -247
460 -260 58 -28 120 -31 173 -9 70 30 895 510 924 539 61 60 63 69 66 335 3
203 1 243 -10 238 -8 -3 -228 -128 -489 -279 -556 -322 -529 -308 -569 -308
-38 0 -41 2 -310 157 -231 134 -245 144 -266 185 -20 39 -20 583 0 632 18 44
42 60 306 212 281 161 263 159 443 56 70 -41 127 -79 127 -86 0 -7 -120 -82
-267 -166 -148 -84 -276 -160 -285 -168 -16 -13 -18 -35 -18 -162 0 -128 2
-149 18 -162 33 -28 234 -138 253 -138 21 0 921 514 979 559 53 41 90 121 90
194 0 33 -5 78 -12 100 -24 81 -67 112 -513 368 -231 133 -438 250 -460 260
-51 24 -119 24 -170 0z"/>
</g>
</svg>
