<?xml version="1.0" standalone="no"?>
<!DOCTYPE svg PUBLIC "-//W3C//DTD SVG 20010904//EN"
 "http://www.w3.org/TR/2001/REC-SVG-20010904/DTD/svg10.dtd">
<svg version="1.0" xmlns="http://www.w3.org/2000/svg"
 width="256.000000pt" height="256.000000pt" viewBox="0 0 256.000000 256.000000"
 preserveAspectRatio="xMidYMid meet">

<g transform="translate(0.000000,256.000000) scale(0.100000,-0.100000)"
fill="#000000" stroke="none">
<path d="M1040 2469 c-285 -29 -586 -117 -843 -247 l-112 -57 -3 -45 c-5 -63
15 -273 39 -404 13 -74 30 -128 50 -166 176 -330 622 -395 888 -129 104 104
147 208 166 399 7 74 23 164 34 200 50 158 173 303 325 382 l89 46 -39 6
c-167 26 -423 32 -594 15z"/>
<path d="M1715 2342 c-179 -60 -313 -204 -361 -387 -21 -78 -18 -221 7 -301
43 -143 112 -229 265 -331 111 -75 190 -160 243 -262 53 -103 74 -185 75 -303
0 -54 2 -98 4 -98 17 0 196 268 260 390 153 289 250 643 268 977 l7 130 -69
39 c-93 52 -297 139 -371 158 -99 26 -232 21 -328 -12z"/>
<path d="M1115 1286 c-38 -13 -108 -42 -155 -65 -141 -68 -287 -87 -435 -56
-66 14 -202 74 -253 111 -32 24 -28 6 20 -99 158 -342 374 -625 655 -859 92
-77 311 -228 330 -228 17 0 181 107 271 177 190 147 238 209 277 358 74 284
-112 592 -405 670 -85 23 -221 19 -305 -9z"/>
</g>
</svg>
