<?xml version="1.0" standalone="no"?>
<!DOCTYPE svg PUBLIC "-//W3C//DTD SVG 20010904//EN"
 "http://www.w3.org/TR/2001/REC-SVG-20010904/DTD/svg10.dtd">
<svg version="1.0" xmlns="http://www.w3.org/2000/svg"
 width="256.000000pt" height="256.000000pt" viewBox="0 0 256.000000 256.000000"
 preserveAspectRatio="xMidYMid meet">

<g transform="translate(0.000000,256.000000) scale(0.100000,-0.100000)"
fill="#000000" stroke="none">
<path d="M240 1924 l0 -555 58 32 c31 18 77 45 102 59 l45 26 3 402 2 402 195
0 195 0 2 -289 3 -289 100 55 c55 31 103 61 107 67 5 6 7 153 5 326 l-2 315
-407 3 -408 2 0 -556z"/>
<path d="M1450 2157 l0 -322 -597 -346 -598 -345 -3 -532 -2 -532 397 2 398 3
3 320 3 320 604 345 605 345 0 533 0 532 -405 0 -405 0 0 -323z m600 -241 l0
-374 -605 -348 -604 -349 -1 -288 0 -287 -197 2 -198 3 -3 363 -2 363 47 29
c27 16 298 176 603 354 l555 324 3 291 2 291 200 0 200 0 0 -374z"/>
<path d="M2155 1132 l-100 -58 -3 -402 -2 -402 -195 0 -195 0 -2 290 -3 289
-107 -60 -108 -60 0 -324 0 -325 410 0 410 0 0 555 c0 305 -1 555 -2 555 -2 0
-48 -26 -103 -58z"/>
</g>
</svg>
