<?xml version="1.0" standalone="no"?>
<!DOCTYPE svg PUBLIC "-//W3C//DTD SVG 20010904//EN"
 "http://www.w3.org/TR/2001/REC-SVG-20010904/DTD/svg10.dtd">
<svg version="1.0" xmlns="http://www.w3.org/2000/svg"
 width="256.000000pt" height="256.000000pt" viewBox="0 0 256.000000 256.000000"
 preserveAspectRatio="xMidYMid meet">

<g transform="translate(0.000000,256.000000) scale(0.100000,-0.100000)"
fill="#000000" stroke="none">
<path d="M1114 2306 c-162 -31 -285 -81 -409 -166 -192 -133 -335 -331 -399
-553 -28 -97 -48 -266 -39 -338 11 -94 -28 -162 -122 -210 l-65 -34 0 -102 c0
-57 1 -103 3 -103 2 0 541 274 1198 609 l1194 608 3 102 c1 55 -1 101 -5 101
-4 0 -458 -230 -1007 -510 -550 -280 -1004 -506 -1009 -503 -14 9 -1 229 18
297 44 162 101 261 220 382 93 94 164 142 277 187 207 83 450 78 652 -12 l68
-31 90 47 89 48 -28 23 c-51 42 -208 112 -309 138 -122 32 -312 41 -420 20z"/>
<path d="M1560 1344 c-503 -256 -1042 -531 -1197 -610 l-283 -145 0 -100 c0
-54 3 -99 8 -99 4 0 457 229 1007 509 549 280 1003 507 1009 504 13 -9 0 -238
-19 -308 -9 -33 -38 -105 -65 -160 -154 -312 -492 -497 -832 -455 -94 11 -208
44 -279 80 l-39 20 -90 -47 c-49 -27 -90 -51 -90 -54 0 -12 157 -94 240 -126
337 -126 722 -58 1006 177 138 115 266 312 318 493 29 99 48 256 39 328 -12
102 34 181 135 228 l52 24 0 104 c0 57 -1 103 -2 103 -2 0 -415 -210 -918
-466z"/>
</g>
</svg>
