<?xml version="1.0" standalone="no"?>
<!DOCTYPE svg PUBLIC "-//W3C//DTD SVG 20010904//EN"
 "http://www.w3.org/TR/2001/REC-SVG-20010904/DTD/svg10.dtd">
<svg version="1.0" xmlns="http://www.w3.org/2000/svg"
 width="256.000000pt" height="256.000000pt" viewBox="0 0 256.000000 256.000000"
 preserveAspectRatio="xMidYMid meet">

<g transform="translate(0.000000,256.000000) scale(0.100000,-0.100000)"
fill="#000000" stroke="none">
<path d="M1145 2474 c-168 -26 -282 -62 -418 -132 -393 -201 -647 -618 -647
-1062 0 -95 21 -248 45 -327 l16 -53 179 0 180 0 0 500 c0 275 2 500 5 500 3
0 176 -171 385 -380 209 -209 383 -380 388 -380 4 0 178 171 387 380 209 209
383 380 387 380 5 0 8 -225 8 -500 l0 -500 180 0 179 0 16 52 c9 29 22 96 30
148 95 621 -308 1210 -925 1351 -83 19 -327 33 -395 23z"/>
<path d="M760 977 l0 -317 -250 0 c-139 0 -250 -4 -250 -9 0 -5 21 -37 47 -72
269 -367 720 -555 1160 -484 255 41 497 168 674 351 67 70 159 189 159 205 0
5 -111 9 -250 9 l-250 0 0 310 c0 171 -3 310 -7 310 -5 0 -122 -114 -260 -252
l-253 -253 -260 260 -260 260 0 -318z"/>
</g>
</svg>
