<?xml version="1.0" standalone="no"?>
<!DOCTYPE svg PUBLIC "-//W3C//DTD SVG 20010904//EN"
 "http://www.w3.org/TR/2001/REC-SVG-20010904/DTD/svg10.dtd">
<svg version="1.0" xmlns="http://www.w3.org/2000/svg"
 width="256.000000pt" height="256.000000pt" viewBox="0 0 256.000000 256.000000"
 preserveAspectRatio="xMidYMid meet">

<g transform="translate(0.000000,256.000000) scale(0.100000,-0.100000)"
fill="#000000" stroke="none">
<path d="M1591 2464 c-41 -8 -87 -22 -102 -30 -16 -8 -74 -71 -130 -140 -101
-125 -137 -149 -104 -70 19 44 39 206 28 217 -13 12 -126 -45 -172 -86 l-41
-37 0 38 c0 22 -5 56 -11 77 l-10 38 -41 -32 c-54 -43 -93 -99 -114 -162 -9
-29 -18 -54 -20 -56 -2 -2 -13 8 -25 22 -11 15 -26 27 -33 27 -14 0 -206 -97
-264 -134 -31 -19 -43 -37 -67 -97 -15 -41 -59 -146 -97 -234 l-70 -160 7 -75
c15 -163 30 -221 98 -363 76 -159 74 -158 187 -107 36 16 66 27 68 25 2 -1
-33 -50 -77 -108 -101 -134 -111 -153 -112 -226 -2 -59 0 -62 50 -123 164
-197 241 -315 279 -425 6 -18 18 -33 26 -33 20 0 21 -2 -11 106 -14 50 -23 99
-20 108 6 15 9 15 35 2 24 -12 46 -13 118 -6 57 6 114 6 162 -1 196 -27 457
-158 571 -285 48 -55 49 -55 77 -41 26 14 27 17 25 79 -3 73 16 130 47 147 12
6 40 11 63 11 38 0 47 5 111 71 109 111 164 243 139 337 -9 32 -29 57 -91 113
-72 65 -80 77 -80 109 0 27 7 42 31 63 30 26 32 47 3 47 -21 0 -18 7 17 38
l31 28 -32 51 c-38 61 -35 83 13 83 59 0 97 12 109 33 9 17 0 42 -56 151 -71
141 -144 262 -152 253 -3 -3 33 -79 80 -170 47 -90 86 -175 86 -189 0 -30 -16
-39 -84 -47 -48 -6 -49 -7 -68 -58 -10 -29 -30 -58 -44 -68 l-25 -16 15 30
c10 19 16 56 16 101 0 44 6 82 15 101 14 27 14 32 -2 59 -20 35 -38 37 -73 10
-33 -26 -36 -25 -127 11 -56 22 -86 29 -110 24 -32 -6 -30 -7 67 -56 70 -35
104 -58 114 -77 25 -48 46 -148 46 -216 0 -69 9 -83 28 -41 11 24 34 38 87 51
39 10 31 -19 -18 -63 -24 -21 -47 -44 -51 -50 -4 -7 -13 -69 -21 -137 -9 -69
-20 -137 -26 -153 l-10 -27 -26 33 c-16 21 -28 29 -33 21 -16 -26 -81 66 -128
183 -9 21 -18 27 -44 27 -21 0 -41 9 -60 27 -24 23 -30 25 -38 13 -5 -8 -10
-32 -10 -52 0 -21 -4 -38 -9 -38 -13 0 -48 77 -61 135 -18 77 -22 84 -30 55
-5 -14 -8 -40 -9 -58 -1 -48 -19 -30 -26 26 -15 125 -29 180 -62 246 -40 79
-48 138 -24 194 16 39 31 27 31 -26 0 -24 9 -42 32 -65 41 -40 48 -22 19 49
-17 44 -18 53 -5 83 30 71 239 258 355 316 56 29 66 31 50 11 -10 -12 -6 -15
25 -18 l38 -3 -55 -35 c-45 -29 -70 -58 -147 -173 -52 -76 -92 -141 -89 -143
3 -3 28 10 56 28 42 27 58 47 92 113 61 118 84 145 121 145 17 0 50 -11 73
-24 51 -30 66 -23 72 36 4 36 -2 61 -32 131 -21 48 -43 91 -50 95 -7 4 -20 23
-30 42 -9 19 -26 45 -37 57 -19 21 -20 27 -9 102 13 89 11 97 -48 179 -35 48
-42 49 -160 26z m88 -119 c17 -20 31 -42 31 -50 0 -28 18 -24 33 7 11 23 13
38 6 57 -10 25 -9 25 7 9 16 -16 17 -26 6 -120 l-12 -103 -65 -60 c-36 -33
-65 -65 -65 -72 0 -7 19 -13 47 -15 25 -2 48 -8 50 -14 2 -7 -24 -29 -59 -50
-92 -55 -160 -107 -237 -180 -38 -35 -71 -64 -75 -64 -3 0 -6 48 -6 106 0 77
-7 135 -25 215 -29 124 -26 141 30 159 44 15 86 6 154 -32 29 -16 57 -26 62
-21 5 5 15 44 22 88 l14 80 24 -50 c30 -64 28 -62 39 -45 17 26 11 109 -10
150 -25 50 -12 51 29 5z m-855 -143 c3 -5 1 -25 -4 -44 -10 -35 -10 -35 -80
-41 -46 -4 -87 -15 -121 -32 -29 -14 -54 -24 -56 -22 -12 13 59 72 129 107 78
39 121 49 132 32z m-31 -139 c3 -5 0 -23 -7 -42 -8 -26 -20 -37 -45 -46 -33
-11 -36 -16 -53 -86 -10 -41 -16 -84 -13 -96 7 -31 -9 -29 -33 4 l-19 26 -20
-54 c-12 -30 -24 -78 -28 -107 l-7 -54 -25 24 c-31 28 -71 95 -83 138 -13 45
38 195 78 227 52 43 240 91 255 66z m466 -99 c30 -61 51 -138 51 -185 0 -19
-13 -89 -30 -155 -22 -89 -30 -142 -30 -212 0 -70 -3 -93 -12 -90 -26 9 -59
90 -79 194 -25 129 -40 164 -73 164 -35 0 -86 -47 -109 -100 -25 -56 -26 -140
-3 -195 21 -50 67 -128 72 -123 2 2 -7 31 -21 63 -32 82 -40 144 -25 205 12
51 32 72 51 53 5 -5 16 -63 25 -129 17 -137 26 -164 53 -164 33 0 43 -27 57
-148 14 -130 32 -197 53 -197 8 0 23 -32 39 -83 15 -50 30 -81 37 -78 6 2 26
-27 43 -65 21 -45 53 -89 90 -126 l57 -58 5 35 6 35 13 -24 c17 -31 91 -111
102 -111 5 0 9 8 9 17 0 12 12 5 43 -25 45 -44 56 -50 53 -29 -3 29 21 15 44
-26 l24 -44 -27 -60 c-15 -33 -27 -72 -27 -87 0 -14 -6 -26 -12 -26 -7 1 -58
35 -113 76 -104 78 -253 157 -364 194 -78 26 -208 42 -276 35 -98 -11 -95 8
24 170 44 61 86 127 92 149 14 52 4 121 -37 245 -63 190 -121 272 -203 285
-41 6 -53 19 -27 29 19 7 61 98 82 178 11 41 30 77 50 101 38 43 64 92 88 165
14 41 27 59 69 91 29 21 61 56 72 76 11 20 24 35 30 33 5 -2 21 -25 34 -53z
m-859 -338 c0 -29 -3 -95 -7 -147 -5 -75 -8 -88 -15 -64 -16 58 -21 189 -9
233 15 56 31 45 31 -22z m92 -171 c-6 -49 -8 -108 -6 -130 l5 -40 -28 50 c-24
44 -27 61 -28 145 0 52 4 122 9 155 l9 60 24 -75 c23 -69 24 -82 15 -165z
m407 87 c-15 -39 -55 -106 -73 -121 -12 -10 -19 -5 -40 32 -14 24 -26 46 -26
49 0 10 78 59 106 67 39 11 45 5 33 -27z m-18 -474 c20 -81 33 -159 33 -198 0
-67 -5 -80 -81 -209 -19 -32 -25 -56 -25 -98 0 -45 -2 -52 -13 -43 -8 7 -24
37 -36 68 -19 51 -20 69 -14 177 6 114 5 123 -18 173 -26 55 -24 90 5 146 14
25 98 116 108 116 5 0 23 -60 41 -132z m-200 -164 c23 -24 24 -32 24 -155 0
-140 -1 -142 -48 -54 -14 28 -22 65 -25 122 -6 117 4 135 49 87z m-81 -58 c0
-60 -15 -98 -38 -94 -26 5 -27 52 -1 98 13 22 26 40 31 40 4 0 8 -20 8 -44z"/>
<path d="M1789 1723 c-39 -43 -92 -114 -88 -118 5 -4 119 49 143 67 17 14 17
16 2 46 -20 39 -26 39 -57 5z"/>
<path d="M1752 1593 c-9 -3 -1 -14 23 -30 38 -26 48 -24 60 15 6 20 3 22 -32
21 -21 0 -44 -3 -51 -6z"/>
</g>
</svg>
