<?xml version="1.0" standalone="no"?>
<!DOCTYPE svg PUBLIC "-//W3C//DTD SVG 20010904//EN"
 "http://www.w3.org/TR/2001/REC-SVG-20010904/DTD/svg10.dtd">
<svg version="1.0" xmlns="http://www.w3.org/2000/svg"
 width="256.000000pt" height="256.000000pt" viewBox="0 0 256.000000 256.000000"
 preserveAspectRatio="xMidYMid meet">

<g transform="translate(0.000000,256.000000) scale(0.100000,-0.100000)"
fill="#000000" stroke="none">
<path d="M476 2388 c4 -7 146 -230 316 -495 169 -266 308 -485 308 -488 0 -3
-119 -5 -265 -5 l-265 0 0 -65 0 -65 270 0 c149 0 270 -2 270 -5 0 -2 -36 -61
-81 -130 l-81 -125 -189 0 -189 0 0 -60 0 -60 145 0 c80 0 145 -4 145 -8 0 -5
-103 -168 -228 -363 l-229 -354 85 -3 c62 -2 88 1 93 10 4 7 110 171 236 363
l229 350 195 3 196 2 234 -365 234 -365 88 0 88 0 -34 53 c-300 469 -417 657
-417 666 0 8 45 11 145 11 l145 0 0 60 0 60 -191 2 -191 3 -79 123 c-44 68
-79 125 -79 128 0 2 122 4 270 4 l270 0 0 65 0 65 -269 0 -270 0 271 418 c149
229 295 454 324 500 l54 82 -84 0 -83 0 -298 -457 c-164 -252 -303 -463 -309
-470 -8 -9 -83 100 -311 457 l-300 470 -88 0 c-68 0 -86 -3 -81 -12z m874
-1369 c0 -5 -47 -9 -105 -9 -58 0 -105 4 -105 9 0 5 23 46 52 91 l51 81 54
-82 c29 -45 53 -86 53 -90z"/>
</g>
</svg>
