<?xml version="1.0" standalone="no"?>
<!DOCTYPE svg PUBLIC "-//W3C//DTD SVG 20010904//EN"
 "http://www.w3.org/TR/2001/REC-SVG-20010904/DTD/svg10.dtd">
<svg version="1.0" xmlns="http://www.w3.org/2000/svg"
 width="256.000000pt" height="256.000000pt" viewBox="0 0 256.000000 256.000000"
 preserveAspectRatio="xMidYMid meet">

<g transform="translate(0.000000,256.000000) scale(0.100000,-0.100000)"
fill="#000000" stroke="none">
<path d="M1245 2468 c-167 -60 -307 -317 -370 -681 -13 -78 -27 -163 -30 -189
-6 -44 -10 -50 -68 -92 -34 -24 -89 -67 -122 -95 l-60 -50 -38 37 c-94 91
-189 249 -203 337 -19 133 114 191 372 162 l71 -8 12 45 c6 25 11 49 11 54 0
16 -195 35 -277 28 -105 -10 -178 -39 -234 -95 -102 -100 -89 -252 37 -444 61
-92 281 -313 401 -401 89 -66 92 -70 98 -115 5 -37 32 -217 38 -255 5 -24
-248 -62 -341 -51 -89 11 -155 45 -177 91 -16 33 -17 46 -7 91 15 70 54 148
117 231 l53 69 -39 39 -40 39 -30 -35 c-137 -162 -201 -333 -169 -450 17 -62
87 -130 163 -159 168 -62 458 -21 783 111 l122 49 144 -57 c79 -31 145 -58
147 -59 8 -8 -45 -147 -88 -230 -49 -96 -106 -162 -158 -184 -93 -38 -194 51
-279 246 -18 43 -37 78 -41 78 -5 0 -29 -6 -55 -14 l-46 -13 13 -39 c54 -153
171 -312 260 -354 203 -95 403 99 510 496 27 101 65 314 65 367 0 28 8 38 62
80 34 26 91 71 127 101 l65 55 53 -60 c118 -130 183 -253 183 -345 0 -44 -4
-55 -33 -84 -54 -54 -164 -71 -334 -52 l-72 8 -14 -48 c-7 -26 -11 -51 -8 -55
3 -4 56 -12 117 -19 371 -40 544 134 418 419 -62 140 -245 346 -447 501 -60
46 -110 89 -112 95 -1 6 -10 65 -19 131 -9 66 -19 132 -22 146 -6 26 -5 27 88
44 110 21 265 24 327 6 25 -7 60 -28 79 -47 33 -33 34 -37 30 -97 -4 -75 -38
-150 -109 -244 -27 -35 -49 -67 -49 -72 0 -4 16 -22 35 -41 33 -32 35 -33 54
-16 11 10 43 51 71 92 146 212 154 380 22 481 -66 50 -137 67 -272 67 -176 -1
-352 -42 -586 -135 l-124 -50 -145 58 c-80 31 -145 63 -145 70 0 23 52 158 87
225 61 117 139 188 205 188 72 0 175 -116 234 -266 16 -38 29 -71 30 -73 5 -7
104 31 104 40 0 19 -61 153 -96 210 -94 155 -231 229 -349 187z m-143 -673
c43 -15 76 -31 73 -35 -5 -9 -207 -122 -210 -118 -3 4 24 158 30 177 3 7 11
11 18 9 6 -3 47 -17 89 -33z m542 18 c10 -32 28 -164 23 -169 -2 -2 -46 20
-98 51 -51 30 -97 55 -101 55 -4 0 -8 4 -8 9 0 8 149 69 172 70 4 1 9 -7 12
-16z m-210 -171 c61 -32 144 -80 184 -105 l72 -47 -2 -212 -3 -212 -85 -53
c-47 -29 -130 -76 -184 -104 l-99 -51 -46 22 c-25 12 -107 58 -182 103 l-137
81 -6 59 c-8 77 -8 247 1 315 6 51 8 55 62 91 66 45 291 171 305 171 5 0 59
-26 120 -58z m-604 -362 c0 -66 -3 -120 -6 -120 -11 0 -144 114 -142 122 4 10
131 117 141 118 4 0 7 -54 7 -120z m1021 92 c20 -15 52 -42 73 -59 l37 -33
-37 -32 c-44 -39 -107 -87 -114 -88 -3 0 -5 54 -5 120 0 66 2 120 5 120 3 0
21 -13 41 -28z m-776 -511 c49 -28 93 -51 97 -51 4 0 8 -4 8 -9 0 -10 -169
-73 -180 -66 -4 2 -13 39 -19 82 -7 43 -15 84 -17 92 -6 17 4 13 111 -48z
m595 49 c0 -26 -23 -159 -29 -169 -6 -9 -31 -3 -94 20 -48 17 -87 34 -87 39 0
4 12 13 28 19 15 7 59 32 97 56 74 46 85 51 85 35z"/>
<path d="M1239 1397 c-21 -14 -41 -41 -53 -70 -20 -47 -20 -47 0 -94 61 -148
274 -111 274 47 0 113 -127 181 -221 117z"/>
</g>
</svg>
