<?xml version="1.0" standalone="no"?>
<!DOCTYPE svg PUBLIC "-//W3C//DTD SVG 20010904//EN"
 "http://www.w3.org/TR/2001/REC-SVG-20010904/DTD/svg10.dtd">
<svg version="1.0" xmlns="http://www.w3.org/2000/svg"
 width="256.000000pt" height="256.000000pt" viewBox="0 0 256.000000 256.000000"
 preserveAspectRatio="xMidYMid meet">

<g transform="translate(0.000000,256.000000) scale(0.100000,-0.100000)"
fill="#000000" stroke="none">
<path d="M600 2255 l0 -145 680 0 680 0 0 145 0 145 -680 0 -680 0 0 -145z"/>
<path d="M600 1056 l0 -896 218 2 217 3 3 316 2 317 208 5 c232 5 314 20 425
79 81 42 194 155 230 230 78 164 74 394 -10 551 -63 117 -200 215 -360 259
-73 20 -106 22 -505 26 l-428 4 0 -896z m801 517 c56 -25 93 -72 110 -136 26
-104 -12 -209 -91 -255 -43 -26 -52 -27 -212 -30 l-168 -4 0 227 0 228 158 -5
c130 -4 165 -8 203 -25z"/>
</g>
</svg>
