<?xml version="1.0" standalone="no"?>
<!DOCTYPE svg PUBLIC "-//W3C//DTD SVG 20010904//EN"
 "http://www.w3.org/TR/2001/REC-SVG-20010904/DTD/svg10.dtd">
<svg version="1.0" xmlns="http://www.w3.org/2000/svg"
 width="256.000000pt" height="256.000000pt" viewBox="0 0 256.000000 256.000000"
 preserveAspectRatio="xMidYMid meet">

<g transform="translate(0.000000,256.000000) scale(0.100000,-0.100000)"
fill="#000000" stroke="none">
<path d="M470 1859 c212 -209 409 -397 439 -416 77 -51 189 -92 287 -105 153
-21 327 19 455 105 30 20 227 207 439 416 l385 380 -175 0 -174 1 -296 -294
c-263 -262 -302 -298 -361 -326 -129 -60 -249 -60 -378 0 -59 28 -98 64 -361
326 l-296 294 -174 -1 -175 0 385 -380z"/>
<path d="M1190 1159 c-83 -11 -165 -39 -249 -85 -51 -29 -122 -93 -321 -289
-140 -139 -317 -312 -393 -385 -75 -73 -137 -137 -137 -142 0 -4 75 -8 166 -8
l166 0 296 291 c163 161 315 303 337 317 129 82 322 81 453 -2 24 -15 175
-157 336 -316 l293 -290 167 0 c91 0 166 4 166 8 0 5 -62 69 -137 142 -76 73
-255 249 -398 390 -246 243 -265 259 -345 298 -133 66 -267 89 -400 71z"/>
</g>
</svg>
