<?xml version="1.0" standalone="no"?>
<!DOCTYPE svg PUBLIC "-//W3C//DTD SVG 20010904//EN"
 "http://www.w3.org/TR/2001/REC-SVG-20010904/DTD/svg10.dtd">
<svg version="1.0" xmlns="http://www.w3.org/2000/svg"
 width="256.000000pt" height="256.000000pt" viewBox="0 0 256.000000 256.000000"
 preserveAspectRatio="xMidYMid meet">

<g transform="translate(0.000000,256.000000) scale(0.100000,-0.100000)"
fill="#000000" stroke="none">
<path d="M700 2442 c0 -31 7 -45 40 -77 l40 -39 0 -163 0 -163 -190 0 -190 0
0 -70 0 -70 190 0 189 0 3 -427 3 -428 29 -63 c56 -120 151 -174 334 -188 140
-11 246 31 321 125 66 83 76 160 24 184 -23 10 -28 6 -80 -51 -95 -107 -182
-141 -268 -103 -38 17 -50 29 -70 73 l-25 53 0 413 0 412 371 0 c291 0 369 -3
363 -12 -5 -7 -126 -172 -271 -366 -175 -235 -263 -361 -263 -378 0 -13 2 -24
4 -24 2 0 51 23 108 51 123 59 186 70 269 46 166 -49 254 -190 266 -427 15
-307 -102 -495 -328 -526 -63 -9 -204 20 -251 52 -45 29 -46 36 -13 54 52 28
79 108 63 183 -25 121 -190 163 -279 71 -33 -35 -34 -37 -34 -122 0 -75 4 -95
28 -143 83 -170 249 -249 492 -236 288 16 480 158 560 417 26 84 31 259 11
361 -23 112 -83 233 -150 302 -59 60 -181 128 -264 147 -53 12 -138 10 -177
-5 -17 -7 125 141 498 516 42 43 77 82 77 86 0 5 -19 28 -43 51 l-43 42 -497
0 -497 0 0 215 0 215 -50 25 c-45 23 -61 25 -175 25 l-125 0 0 -38z"/>
</g>
</svg>
