<?xml version="1.0" standalone="no"?>
<!DOCTYPE svg PUBLIC "-//W3C//DTD SVG 20010904//EN"
 "http://www.w3.org/TR/2001/REC-SVG-20010904/DTD/svg10.dtd">
<svg version="1.0" xmlns="http://www.w3.org/2000/svg"
 width="256.000000pt" height="256.000000pt" viewBox="0 0 256.000000 256.000000"
 preserveAspectRatio="xMidYMid meet">

<g transform="translate(0.000000,256.000000) scale(0.100000,-0.100000)"
fill="#000000" stroke="none">
<path d="M268 2417 c196 -461 1008 -2327 1012 -2327 4 0 1004 2294 1038 2382
2 4 -70 8 -160 8 l-164 0 -354 -815 c-195 -448 -357 -815 -360 -815 -3 0 -163
366 -355 813 l-351 812 -167 3 -166 2 27 -63z"/>
<path d="M912 2471 c46 -118 364 -861 369 -861 4 0 327 755 366 856 4 12 -58
14 -367 14 -204 0 -370 -4 -368 -9z"/>
</g>
</svg>
