<?xml version="1.0" standalone="no"?>
<!DOCTYPE svg PUBLIC "-//W3C//DTD SVG 20010904//EN"
 "http://www.w3.org/TR/2001/REC-SVG-20010904/DTD/svg10.dtd">
<svg version="1.0" xmlns="http://www.w3.org/2000/svg"
 width="256.000000pt" height="256.000000pt" viewBox="0 0 256.000000 256.000000"
 preserveAspectRatio="xMidYMid meet">

<g transform="translate(0.000000,256.000000) scale(0.100000,-0.100000)"
fill="#000000" stroke="none">
<path d="M251 2303 c-25 -9 -66 -37 -92 -63 -166 -166 -49 -443 186 -442 219
1 336 250 201 427 -58 76 -199 114 -295 78z"/>
<path d="M1128 2295 c43 -35 62 -74 62 -126 0 -37 -29 -93 -231 -443 -128
-222 -245 -415 -263 -432 -46 -44 -100 -52 -161 -25 l-46 20 19 -32 c11 -17
48 -81 82 -142 34 -60 72 -121 84 -133 76 -85 232 -80 298 9 34 46 585 1000
610 1057 37 82 7 182 -71 237 l-43 30 -186 3 -187 3 33 -26z"/>
<path d="M1911 2295 c55 -28 114 -93 130 -142 6 -19 9 -65 7 -101 l-3 -67
-383 -665 c-211 -366 -398 -680 -415 -698 -85 -90 -215 -104 -319 -36 -21 13
-38 22 -38 20 0 -17 170 -296 198 -323 117 -117 309 -115 424 5 32 33 174 271
485 812 243 421 449 781 459 800 27 51 26 179 -3 241 -27 60 -92 125 -152 153
-41 19 -66 21 -241 23 l-195 3 46 -25z"/>
</g>
</svg>
