<?xml version="1.0" standalone="no"?>
<!DOCTYPE svg PUBLIC "-//W3C//DTD SVG 20010904//EN"
 "http://www.w3.org/TR/2001/REC-SVG-20010904/DTD/svg10.dtd">
<svg version="1.0" xmlns="http://www.w3.org/2000/svg"
 width="256.000000pt" height="256.000000pt" viewBox="0 0 256.000000 256.000000"
 preserveAspectRatio="xMidYMid meet">

<g transform="translate(0.000000,256.000000) scale(0.100000,-0.100000)"
fill="#000000" stroke="none">
<path d="M320 1900 c0 -11 23 -78 50 -148 28 -71 50 -131 50 -135 0 -4 -76 -7
-170 -7 l-170 0 0 -110 0 -110 206 -2 206 -3 18 -47 18 -48 -222 -2 -221 -3
-3 -112 -3 -113 258 0 258 0 81 -208 81 -207 141 -3 c106 -2 141 1 144 10 3 7
54 149 113 316 59 166 111 302 114 302 3 0 56 -141 117 -313 l111 -312 129 -3
129 -2 102 210 101 210 262 0 261 0 -3 113 -3 112 -222 3 c-123 1 -223 4 -223
7 0 2 10 25 22 50 l22 45 203 0 203 0 0 110 0 110 -179 0 -179 0 39 153 c21
83 39 153 39 155 0 1 -90 2 -200 2 l-199 0 -9 -32 c-5 -18 -46 -181 -92 -363
-46 -181 -86 -333 -90 -338 -3 -4 -52 149 -109 340 -57 192 -107 358 -112 371
-9 22 -11 23 -141 20 l-132 -3 -96 -385 c-53 -211 -99 -380 -102 -375 -3 6
-56 180 -119 388 l-113 377 -183 0 c-176 0 -183 -1 -183 -20z"/>
</g>
</svg>
