<?xml version="1.0" standalone="no"?>
<!DOCTYPE svg PUBLIC "-//W3C//DTD SVG 20010904//EN"
 "http://www.w3.org/TR/2001/REC-SVG-20010904/DTD/svg10.dtd">
<svg version="1.0" xmlns="http://www.w3.org/2000/svg"
 width="256.000000pt" height="256.000000pt" viewBox="0 0 256.000000 256.000000"
 preserveAspectRatio="xMidYMid meet">

<g transform="translate(0.000000,256.000000) scale(0.100000,-0.100000)"
fill="#000000" stroke="none">
<path d="M2135 2421 c-22 -10 -220 -116 -440 -235 -220 -119 -406 -216 -414
-216 -8 0 -139 67 -290 149 -654 354 -631 345 -704 269 -128 -134 -287 -412
-287 -500 0 -35 20 -76 52 -104 19 -17 481 -308 746 -469 l62 -38 0 -502 0
-502 23 -34 c47 -70 108 -93 292 -109 102 -9 274 1 363 21 67 14 120 53 143
102 17 39 19 72 19 533 l0 492 73 43 c241 143 745 464 760 485 30 39 32 94 7
160 -38 103 -111 231 -189 331 -109 138 -143 158 -216 124z m75 -151 c98 -107
221 -344 224 -432 0 -26 -6 -44 -19 -56 -11 -11 -211 -129 -445 -263 -312
-179 -438 -257 -473 -292 -56 -55 -103 -149 -118 -233 -26 -156 40 -364 164
-518 56 -70 66 -100 46 -135 -21 -37 -51 -48 -169 -62 -179 -20 -395 5 -432
51 -17 21 -18 58 -18 504 0 286 -4 507 -11 546 -14 91 -49 161 -114 229 -127
133 -317 184 -585 158 -78 -8 -88 -7 -110 11 -37 30 -32 79 18 192 80 181 209
350 267 350 19 0 166 -79 448 -241 230 -132 440 -251 465 -262 39 -18 65 -22
157 -22 106 0 112 1 185 37 143 70 267 210 334 381 28 68 39 85 67 99 45 23
65 16 119 -42z"/>
</g>
</svg>
