<?xml version="1.0" standalone="no"?>
<!DOCTYPE svg PUBLIC "-//W3C//DTD SVG 20010904//EN"
 "http://www.w3.org/TR/2001/REC-SVG-20010904/DTD/svg10.dtd">
<svg version="1.0" xmlns="http://www.w3.org/2000/svg"
 width="256.000000pt" height="256.000000pt" viewBox="0 0 256.000000 256.000000"
 preserveAspectRatio="xMidYMid meet">

<g transform="translate(0.000000,256.000000) scale(0.100000,-0.100000)"
fill="#000000" stroke="none">
<path d="M702 2208 c-11 -18 -137 -237 -281 -485 l-261 -453 279 -482 278
-483 563 0 563 0 278 482 279 483 -279 482 -278 483 -561 3 -560 2 -20 -32z
m927 -102 c-2 -2 -118 -40 -258 -85 l-254 -80 -38 34 c-43 38 -94 55 -157 52
-41 -2 -45 0 -69 41 l-25 42 403 0 c221 0 400 -2 398 -4z m-808 -98 c9 -23 8
-32 -12 -60 -21 -28 -24 -45 -24 -113 l1 -80 -169 -150 c-93 -82 -182 -161
-199 -174 l-30 -24 28 50 c359 626 358 624 376 600 10 -12 22 -34 29 -49z
m943 55 c23 -80 118 -587 111 -590 -10 -3 -55 -32 -86 -54 -12 -9 -75 24 -335
174 l-319 184 -1 55 -1 55 301 96 c166 52 306 96 313 96 6 1 14 -7 17 -16z
m-722 -130 c76 -76 25 -204 -82 -207 -48 -1 -88 27 -114 79 -17 35 -18 42 -5
79 30 87 137 113 201 49z m990 -283 c96 -168 180 -315 187 -327 11 -22 10 -23
-29 -23 -29 0 -40 4 -40 15 0 24 -35 87 -62 112 -29 27 -89 53 -123 53 -14 0
-25 2 -25 5 0 5 -87 422 -96 462 -4 18 -3 24 3 18 5 -5 88 -147 185 -315z
m-606 -106 c314 -181 322 -187 313 -211 -12 -31 -12 -95 0 -126 9 -24 0 -30
-314 -212 l-324 -186 -34 25 c-19 14 -48 31 -65 37 l-32 11 0 393 0 393 28 5
c15 3 43 17 62 30 19 14 37 26 39 26 2 1 149 -83 327 -185z m-555 149 l38 -18
1 -396 0 -395 -52 -22 -52 -22 -31 28 c-16 16 -124 111 -238 212 -114 100
-206 187 -205 192 4 12 481 436 492 437 5 1 27 -7 47 -16z m1139 -285 c64 -33
85 -67 85 -138 0 -72 -21 -105 -88 -138 -64 -32 -115 -24 -171 28 -40 38 -41
40 -41 109 0 66 2 72 35 106 55 57 112 67 180 33z m218 -176 c-9 -24 -393
-681 -395 -678 -3 3 91 449 103 487 3 10 20 18 45 22 75 10 150 78 166 150 5
24 10 27 45 27 22 0 38 -4 36 -8z m-424 -121 c10 -11 31 -25 47 -31 16 -7 29
-16 29 -21 0 -4 -29 -142 -65 -304 -36 -163 -65 -298 -65 -301 0 -10 -41 2
-319 97 l-296 100 0 56 0 55 315 184 c173 101 320 183 326 184 6 0 19 -9 28
-19z m-1191 -175 c86 -76 157 -140 157 -141 0 -1 -7 -23 -16 -49 -22 -64 -12
-124 31 -180 l33 -43 -20 -32 c-11 -18 -22 -31 -23 -29 -8 9 -375 650 -375
655 0 6 23 -13 213 -181z m384 -126 c116 -52 110 -205 -10 -254 -47 -20 -47
-20 -94 0 -107 44 -127 177 -36 242 50 35 83 38 140 12z m362 -295 c123 -41
226 -77 229 -80 3 -3 -167 -5 -377 -5 l-383 0 19 33 c19 31 21 32 76 29 67 -4
136 24 169 69 12 16 27 29 33 29 6 0 111 -34 234 -75z"/>
</g>
</svg>
