<?xml version="1.0" standalone="no"?>
<!DOCTYPE svg PUBLIC "-//W3C//DTD SVG 20010904//EN"
 "http://www.w3.org/TR/2001/REC-SVG-20010904/DTD/svg10.dtd">
<svg version="1.0" xmlns="http://www.w3.org/2000/svg"
 width="256.000000pt" height="256.000000pt" viewBox="0 0 256.000000 256.000000"
 preserveAspectRatio="xMidYMid meet">

<g transform="translate(0.000000,256.000000) scale(0.100000,-0.100000)"
fill="#000000" stroke="none">
<path d="M1161 2460 c-102 -27 -194 -81 -271 -159 -227 -230 -225 -595 5 -827
69 -69 153 -126 208 -139 l27 -7 0 88 0 89 -45 28 c-135 86 -213 258 -187 415
39 236 257 391 494 353 197 -31 341 -171 370 -358 9 -57 8 -82 -6 -146 -10
-42 -21 -79 -25 -81 -4 -3 -23 47 -41 110 -19 62 -39 114 -44 114 -25 0 -130
-38 -134 -48 -3 -10 116 -481 124 -491 3 -3 503 176 512 184 2 2 -57 136 -64
144 -1 2 -44 -10 -93 -27 -50 -17 -91 -28 -91 -24 0 4 7 29 15 56 20 64 19
225 0 300 -25 94 -83 194 -156 267 -149 150 -388 213 -598 159z"/>
<path d="M1230 1280 l0 -760 85 0 85 0 0 760 0 760 -85 0 -85 0 0 -760z"/>
<path d="M1500 1144 l0 -89 45 -28 c135 -86 213 -258 187 -415 -39 -236 -257
-391 -494 -353 -195 31 -339 169 -371 354 -9 54 -8 79 6 143 9 43 21 82 25 86
4 4 23 -44 42 -107 19 -63 39 -115 44 -115 17 0 125 35 132 43 9 8 -118 497
-128 497 -8 0 -501 -180 -506 -184 -4 -5 61 -146 68 -146 3 0 45 13 93 29 48
17 87 27 87 24 0 -3 -7 -30 -16 -61 -13 -42 -15 -83 -12 -171 6 -135 25 -198
95 -303 57 -87 129 -149 228 -199 247 -122 529 -79 715 110 226 230 224 596
-5 827 -69 69 -153 126 -207 139 l-28 7 0 -88z"/>
</g>
</svg>
