<?xml version="1.0" standalone="no"?>
<!DOCTYPE svg PUBLIC "-//W3C//DTD SVG 20010904//EN"
 "http://www.w3.org/TR/2001/REC-SVG-20010904/DTD/svg10.dtd">
<svg version="1.0" xmlns="http://www.w3.org/2000/svg"
 width="256.000000pt" height="256.000000pt" viewBox="0 0 256.000000 256.000000"
 preserveAspectRatio="xMidYMid meet">

<g transform="translate(0.000000,256.000000) scale(0.100000,-0.100000)"
fill="#000000" stroke="none">
<path d="M967 2060 c-38 -10 -70 -20 -72 -22 -2 -1 5 -48 16 -102 10 -55 17
-101 15 -103 -2 -2 -32 10 -67 27 -201 94 -430 51 -605 -113 -73 -67 -115
-130 -146 -213 -32 -88 -32 -270 0 -374 81 -259 273 -415 527 -428 182 -8 283
30 420 159 74 71 195 214 195 232 0 4 -45 7 -99 7 l-99 0 -21 -34 c-27 -44
-96 -106 -152 -139 -73 -42 -150 -59 -248 -55 -73 2 -97 8 -152 35 -183 90
-278 297 -223 484 24 80 48 121 109 188 97 104 217 147 341 121 51 -11 158
-56 144 -61 -3 -1 -59 -9 -125 -18 l-120 -16 3 -75 c2 -41 7 -79 11 -83 8 -7
525 64 535 74 4 3 -76 410 -99 507 -6 26 0 25 -88 2z"/>
<path d="M1786 1900 c-174 -31 -311 -140 -440 -350 -25 -41 -46 -80 -46 -87 0
-14 84 -18 151 -7 31 5 40 13 55 48 44 96 187 201 312 227 224 46 455 -116
492 -346 38 -237 -159 -485 -385 -485 -50 0 -152 24 -168 39 -4 5 42 21 102
36 61 16 116 32 122 36 9 5 7 26 -5 83 -10 42 -20 76 -24 76 -11 0 -515 -139
-519 -143 -4 -5 158 -490 168 -501 7 -8 123 28 142 44 5 4 -5 51 -21 104 -19
61 -26 96 -18 96 6 0 40 -9 74 -20 72 -23 181 -26 264 -9 91 19 185 75 274
164 87 86 132 164 153 263 53 257 -94 564 -325 678 -101 50 -254 73 -358 54z"/>
<path d="M530 1305 l0 -75 755 0 755 0 0 75 0 75 -755 0 -755 0 0 -75z"/>
</g>
</svg>
