<?xml version="1.0" standalone="no"?>
<!DOCTYPE svg PUBLIC "-//W3C//DTD SVG 20010904//EN"
 "http://www.w3.org/TR/2001/REC-SVG-20010904/DTD/svg10.dtd">
<svg version="1.0" xmlns="http://www.w3.org/2000/svg"
 width="256.000000pt" height="256.000000pt" viewBox="0 0 256.000000 256.000000"
 preserveAspectRatio="xMidYMid meet">

<g transform="translate(0.000000,256.000000) scale(0.100000,-0.100000)"
fill="#000000" stroke="none">
<path d="M277 2373 c19 -17 129 -197 272 -445 l241 -417 0 -338 0 -338 -55
-62 c-30 -33 -55 -64 -55 -67 0 -3 99 -6 220 -6 l220 0 0 -30 c0 -87 100 -239
215 -327 228 -173 531 -221 958 -151 l67 11 0 368 0 369 -210 0 -211 0 16 -27
c8 -16 25 -41 38 -56 21 -27 22 -38 25 -248 l3 -219 -128 0 c-106 0 -134 3
-163 18 -108 58 -214 320 -227 563 -7 133 14 216 81 306 84 115 212 178 356
177 103 -1 171 -24 260 -90 l60 -44 0 149 0 149 -67 17 c-215 53 -583 32 -730
-44 -49 -24 -125 -84 -181 -141 l-42 -43 0 49 c0 28 4 54 9 60 4 5 66 122 136
259 218 428 306 595 316 600 31 20 -10 25 -201 25 -115 0 -210 -4 -210 -8 0
-4 18 -26 40 -47 22 -21 40 -44 40 -50 0 -5 -52 -118 -115 -250 -81 -168 -120
-241 -133 -243 -14 -2 -44 53 -154 295 l-137 298 -293 3 -293 2 32 -27z"/>
</g>
</svg>
