<?xml version="1.0" standalone="no"?>
<!DOCTYPE svg PUBLIC "-//W3C//DTD SVG 20010904//EN"
 "http://www.w3.org/TR/2001/REC-SVG-20010904/DTD/svg10.dtd">
<svg version="1.0" xmlns="http://www.w3.org/2000/svg"
 width="256.000000pt" height="256.000000pt" viewBox="0 0 256.000000 256.000000"
 preserveAspectRatio="xMidYMid meet">

<g transform="translate(0.000000,256.000000) scale(0.100000,-0.100000)"
fill="#000000" stroke="none">
<path d="M1327 1881 c-289 -241 -540 -444 -558 -450 -18 -6 -67 -11 -109 -11
-139 0 -238 71 -271 195 -17 60 -6 182 19 231 33 65 102 119 177 139 114 31
204 -2 306 -113 39 -43 62 -61 71 -56 48 29 238 179 238 187 0 21 -154 162
-218 201 -98 59 -163 79 -279 84 -293 13 -548 -144 -608 -373 -39 -152 4 -393
96 -535 133 -207 356 -290 626 -234 140 29 189 56 367 203 235 196 1052 941
1055 964 1 4 -86 7 -193 7 l-194 0 -525 -439z"/>
<path d="M1765 1425 c-105 -19 -178 -49 -251 -101 -141 -100 -468 -388 -923
-813 l-275 -256 198 -3 198 -2 509 425 c281 235 526 436 545 447 49 29 153 35
228 14 79 -23 148 -90 170 -165 61 -206 -49 -385 -244 -399 -94 -6 -154 23
-244 118 l-66 70 -122 -90 c-68 -50 -124 -95 -126 -100 -6 -17 51 -80 128
-142 141 -114 295 -168 439 -154 172 18 304 72 406 167 111 104 152 218 142
389 -27 422 -321 667 -712 595z"/>
</g>
</svg>
