<?xml version="1.0" standalone="no"?>
<!DOCTYPE svg PUBLIC "-//W3C//DTD SVG 20010904//EN"
 "http://www.w3.org/TR/2001/REC-SVG-20010904/DTD/svg10.dtd">
<svg version="1.0" xmlns="http://www.w3.org/2000/svg"
 width="256.000000pt" height="256.000000pt" viewBox="0 0 256.000000 256.000000"
 preserveAspectRatio="xMidYMid meet">

<g transform="translate(0.000000,256.000000) scale(0.100000,-0.100000)"
fill="#000000" stroke="none">
<path d="M1408 2466 c-95 -34 -183 -113 -226 -202 -14 -30 -21 -33 -101 -48
-47 -9 -117 -25 -156 -37 l-70 -21 118 -60 c88 -44 117 -63 116 -76 -2 -9 8
-37 20 -61 21 -41 23 -54 18 -145 -7 -128 -21 -170 -77 -227 -58 -60 -132 -84
-232 -76 -125 10 -213 70 -261 176 -23 49 -30 181 -14 231 8 24 7 23 -17 -5
-78 -94 -165 -294 -191 -440 -37 -213 0 -382 119 -549 85 -118 234 -238 364
-291 43 -18 56 -28 54 -42 -2 -10 -19 -85 -38 -167 -42 -184 -42 -200 -5 -235
171 -160 891 -117 891 53 0 15 -16 97 -36 183 -35 154 -37 183 -12 183 31 1
183 72 260 122 182 119 285 265 324 458 19 98 15 218 -11 321 -19 73 -80 208
-120 265 l-27 39 6 -46 c19 -137 -61 -270 -192 -319 -159 -60 -366 35 -418
192 -12 36 -15 79 -13 161 1 62 -1 122 -5 134 -7 20 4 28 140 96 l149 75 -57
28 -56 27 -7 61 c-16 156 -41 217 -100 242 -42 17 -88 17 -137 0z m-33 -1015
c44 -11 134 -41 200 -67 66 -25 184 -68 263 -94 79 -26 145 -50 148 -52 16
-16 -171 -120 -281 -156 -282 -94 -630 -58 -953 100 -93 46 -217 124 -244 154
-17 20 -15 20 116 32 128 13 257 38 411 81 94 27 234 27 340 2z"/>
<path d="M1180 1435 c0 -4 7 -22 15 -40 25 -51 80 -68 133 -41 30 15 60 61 48
73 -9 10 -196 17 -196 8z"/>
<path d="M1003 1408 c-46 -11 -83 -23 -83 -28 0 -13 50 -50 77 -56 36 -9 72
11 89 51 16 38 18 55 7 54 -5 0 -45 -10 -90 -21z"/>
<path d="M1453 1394 c-8 -21 9 -75 28 -87 21 -13 78 -1 109 23 l25 19 -25 9
c-14 6 -49 19 -78 31 -46 18 -53 19 -59 5z"/>
<path d="M753 1358 c-45 -10 -54 -21 -27 -32 40 -16 84 0 84 31 0 15 1 14 -57
1z"/>
<path d="M1712 1284 c4 -39 35 -56 73 -40 l30 13 -53 27 -53 27 3 -27z"/>
<path d="M677 2029 c-98 -105 -111 -132 -105 -224 8 -122 83 -223 178 -241 35
-7 35 -7 17 14 -24 27 -46 88 -47 130 0 29 3 33 21 27 35 -12 107 -9 124 5 18
15 20 54 3 68 -7 5 -35 16 -63 24 l-50 14 55 58 c30 33 75 72 99 87 l43 28
-91 45 c-50 25 -95 46 -100 46 -5 0 -43 -36 -84 -81z"/>
<path d="M1717 1999 l-59 -30 46 -30 c46 -31 106 -92 106 -109 0 -5 -13 -16
-29 -25 -43 -22 -74 -64 -60 -81 16 -19 56 -17 107 6 l43 19 12 -27 c6 -15 12
-58 12 -97 0 -55 -5 -78 -23 -108 l-22 -38 22 7 c145 44 217 179 174 327 -29
99 -138 194 -243 212 -19 3 -47 -5 -86 -26z"/>
</g>
</svg>
