<?xml version="1.0" standalone="no"?>
<!DOCTYPE svg PUBLIC "-//W3C//DTD SVG 20010904//EN"
 "http://www.w3.org/TR/2001/REC-SVG-20010904/DTD/svg10.dtd">
<svg version="1.0" xmlns="http://www.w3.org/2000/svg"
 width="256.000000pt" height="256.000000pt" viewBox="0 0 256.000000 256.000000"
 preserveAspectRatio="xMidYMid meet">

<g transform="translate(0.000000,256.000000) scale(0.100000,-0.100000)"
fill="#000000" stroke="none">
<path d="M240 1747 c-49 -16 -133 -102 -148 -153 -28 -94 -8 -169 63 -240 78
-78 179 -95 274 -46 l40 21 -6 -33 c-11 -67 50 -126 117 -113 l29 6 -21 -40
c-49 -95 -32 -196 46 -274 102 -101 230 -101 332 0 78 78 95 179 46 274 l-21
40 29 -6 c67 -13 128 46 117 113 l-6 33 42 -22 c58 -30 156 -30 214 0 l42 22
-6 -33 c-11 -67 50 -126 117 -113 l29 6 -21 -40 c-49 -95 -32 -196 46 -274 71
-71 146 -91 240 -63 59 18 138 99 155 161 17 58 10 123 -17 176 l-21 40 33 -6
c67 -11 126 50 113 117 l-6 29 40 -21 c95 -49 196 -32 274 46 71 71 91 146 63
240 -16 55 -99 138 -154 154 -94 28 -169 8 -240 -63 -78 -78 -95 -179 -46
-274 l21 -40 -29 6 c-67 13 -128 -46 -117 -113 l6 -33 -42 22 c-58 30 -156 30
-214 0 l-42 -22 6 33 c11 67 -50 126 -117 113 l-29 -6 21 40 c49 95 32 196
-46 274 -102 101 -230 101 -332 0 -78 -78 -95 -179 -46 -274 l21 -40 -29 6
c-67 13 -128 -46 -117 -113 l6 -33 -42 22 c-31 16 -59 22 -107 22 -48 0 -76
-6 -107 -22 l-42 -22 6 33 c11 67 -50 126 -117 113 l-29 -6 21 40 c49 95 32
196 -46 274 -71 71 -153 91 -246 62z"/>
</g>
</svg>
