<?xml version="1.0" standalone="no"?>
<!DOCTYPE svg PUBLIC "-//W3C//DTD SVG 20010904//EN"
 "http://www.w3.org/TR/2001/REC-SVG-20010904/DTD/svg10.dtd">
<svg version="1.0" xmlns="http://www.w3.org/2000/svg"
 width="256.000000pt" height="256.000000pt" viewBox="0 0 256.000000 256.000000"
 preserveAspectRatio="xMidYMid meet">

<g transform="translate(0.000000,256.000000) scale(0.100000,-0.100000)"
fill="#000000" stroke="none">
<path d="M1088 2385 c-170 -28 -367 -110 -518 -216 -137 -96 -288 -263 -388
-430 l-22 -37 160 -147 c89 -81 162 -146 164 -144 1 2 19 35 40 73 145 268
420 450 701 463 98 4 100 4 79 -14 -12 -10 -274 -247 -582 -527 l-561 -508 18
-37 c37 -72 142 -208 226 -292 185 -186 397 -303 647 -356 114 -24 343 -24
458 1 362 76 663 297 868 638 l23 36 -161 147 c-88 81 -162 146 -164 144 -2
-2 -14 -24 -26 -49 -60 -119 -162 -240 -268 -318 -141 -104 -290 -159 -452
-168 l-95 -5 31 28 c17 15 279 253 582 527 l551 499 -16 31 c-29 56 -95 150
-164 231 -169 200 -407 347 -664 411 -127 32 -337 40 -467 19z m715 -619 c17
-13 -26 -54 -498 -483 -284 -257 -520 -469 -523 -470 -4 -1 -15 4 -25 11 -17
13 -15 17 28 57 196 181 991 899 995 899 3 -1 13 -7 23 -14z"/>
</g>
</svg>
