<?xml version="1.0" standalone="no"?>
<!DOCTYPE svg PUBLIC "-//W3C//DTD SVG 20010904//EN"
 "http://www.w3.org/TR/2001/REC-SVG-20010904/DTD/svg10.dtd">
<svg version="1.0" xmlns="http://www.w3.org/2000/svg"
 width="256.000000pt" height="256.000000pt" viewBox="0 0 256.000000 256.000000"
 preserveAspectRatio="xMidYMid meet">

<g transform="translate(0.000000,256.000000) scale(0.100000,-0.100000)"
fill="#000000" stroke="none">
<path d="M636 2384 c-174 -42 -337 -199 -382 -368 -40 -149 12 -336 149 -534
43 -63 52 -71 66 -60 121 94 250 211 244 221 -5 7 -26 39 -47 72 -103 157 -99
258 15 315 38 20 55 20 618 18 l579 -3 44 -31 c23 -17 57 -50 73 -74 26 -36
30 -50 30 -109 0 -57 -5 -78 -37 -142 -74 -149 -436 -562 -535 -610 -95 -46
-174 -32 -307 56 -38 25 -72 45 -75 45 -4 0 -60 -54 -126 -120 l-120 -121 25
-20 c160 -128 368 -218 506 -219 102 0 264 62 360 138 161 128 501 528 579
683 63 122 90 265 75 389 -26 211 -216 418 -436 475 -83 21 -1207 21 -1298 -1z"/>
<path d="M1155 1846 c-174 -40 -301 -136 -529 -399 -288 -334 -370 -481 -383
-686 -10 -169 41 -296 172 -426 87 -88 184 -144 283 -164 35 -7 254 -11 635
-11 488 0 592 2 642 15 256 65 428 301 394 539 -16 117 -78 258 -163 374 l-46
62 -128 -106 c-70 -59 -128 -110 -130 -115 -2 -5 8 -23 22 -42 43 -56 94 -163
101 -212 6 -39 4 -51 -19 -84 -14 -20 -44 -47 -65 -59 -39 -22 -42 -22 -614
-22 l-575 0 -48 32 c-26 18 -61 50 -78 71 -60 75 -44 205 41 329 69 101 238
303 344 410 114 116 181 158 254 158 46 0 162 -51 236 -105 l46 -33 123 123
122 122 -44 35 c-196 160 -421 233 -593 194z"/>
</g>
</svg>
