<?xml version="1.0" standalone="no"?>
<!DOCTYPE svg PUBLIC "-//W3C//DTD SVG 20010904//EN"
 "http://www.w3.org/TR/2001/REC-SVG-20010904/DTD/svg10.dtd">
<svg version="1.0" xmlns="http://www.w3.org/2000/svg"
 width="256.000000pt" height="256.000000pt" viewBox="0 0 256.000000 256.000000"
 preserveAspectRatio="xMidYMid meet">

<g transform="translate(0.000000,256.000000) scale(0.100000,-0.100000)"
fill="#000000" stroke="none">
<path d="M1110 2310 l0 -170 -215 0 -215 0 0 -200 0 -200 360 -2 359 -3 -85
-100 c-47 -55 -181 -217 -297 -360 -116 -143 -237 -291 -270 -330 -101 -120
-101 -121 -102 -340 l0 -190 233 -3 232 -2 0 -165 0 -165 195 0 196 0 -7 137
c-4 76 -8 152 -8 168 l-1 30 233 3 232 2 0 200 0 200 -376 2 -376 3 70 80 c38
44 169 204 291 355 123 151 253 310 290 353 106 126 105 121 106 342 l0 190
-232 3 -233 2 0 165 0 165 -190 0 -190 0 0 -170z"/>
</g>
</svg>
