<?xml version="1.0" standalone="no"?>
<!DOCTYPE svg PUBLIC "-//W3C//DTD SVG 20010904//EN"
 "http://www.w3.org/TR/2001/REC-SVG-20010904/DTD/svg10.dtd">
<svg version="1.0" xmlns="http://www.w3.org/2000/svg"
 width="256.000000pt" height="256.000000pt" viewBox="0 0 256.000000 256.000000"
 preserveAspectRatio="xMidYMid meet">

<g transform="translate(0.000000,256.000000) scale(0.100000,-0.100000)"
fill="#000000" stroke="none">
<path d="M1145 2474 c-168 -26 -282 -62 -418 -132 -317 -162 -546 -464 -623
-822 -26 -118 -26 -362 0 -480 102 -474 462 -834 936 -936 118 -26 362 -26
480 0 474 102 834 462 936 936 26 118 26 362 0 480 -101 467 -454 826 -916
931 -83 19 -327 33 -395 23z m323 -394 c101 -24 272 -106 272 -130 0 -4 -44
-36 -97 -70 l-97 -62 -81 29 c-69 24 -95 28 -190 28 -90 0 -124 -5 -185 -25
-193 -62 -345 -228 -396 -430 -19 -73 -15 -241 6 -298 l12 -32 75 70 75 70 3
68 c11 302 326 488 596 352 112 -57 198 -176 218 -301 5 -30 8 -56 6 -57 -2
-2 -46 2 -97 8 -354 46 -717 -121 -926 -428 l-50 -72 -32 50 c-43 68 -88 178
-105 258 -17 80 -19 255 -4 338 56 303 319 573 623 639 96 21 276 18 374 -5z
m519 -391 c17 -30 47 -97 65 -149 31 -92 33 -100 33 -255 0 -155 -1 -163 -33
-255 -43 -124 -98 -215 -185 -306 -109 -115 -236 -193 -379 -230 -220 -57
-456 -23 -642 93 l-49 31 102 66 103 67 76 -28 c67 -24 93 -27 192 -28 144 0
230 25 340 100 222 151 315 432 226 687 l-27 77 62 96 c34 53 66 94 72 92 7
-2 26 -28 44 -58z m-324 -474 c20 -8 18 -22 -18 -103 -34 -74 -115 -156 -194
-195 -62 -30 -72 -32 -176 -32 -104 0 -114 2 -175 32 -63 31 -160 115 -160
138 0 28 200 123 315 149 39 8 79 18 90 20 30 7 298 0 318 -9z"/>
</g>
</svg>
