<?xml version="1.0" standalone="no"?>
<!DOCTYPE svg PUBLIC "-//W3C//DTD SVG 20010904//EN"
 "http://www.w3.org/TR/2001/REC-SVG-20010904/DTD/svg10.dtd">
<svg version="1.0" xmlns="http://www.w3.org/2000/svg"
 width="256.000000pt" height="256.000000pt" viewBox="0 0 256.000000 256.000000"
 preserveAspectRatio="xMidYMid meet">

<g transform="translate(0.000000,256.000000) scale(0.100000,-0.100000)"
fill="#000000" stroke="none">
<path d="M1158 1943 l-125 -448 -472 -5 -471 -5 385 -259 c212 -143 385 -261
385 -262 0 -1 -68 -192 -150 -425 -83 -232 -149 -426 -148 -430 2 -5 165 120
362 276 197 157 361 285 363 285 2 0 168 -128 369 -285 202 -158 368 -284 370
-283 2 2 -71 197 -162 432 -90 236 -164 430 -164 431 0 1 174 118 386 261
l385 259 -459 3 -458 2 -129 438 c-70 240 -131 443 -134 450 -4 7 -64 -189
-133 -435z"/>
</g>
</svg>
