<?xml version="1.0" standalone="no"?>
<!DOCTYPE svg PUBLIC "-//W3C//DTD SVG 20010904//EN"
 "http://www.w3.org/TR/2001/REC-SVG-20010904/DTD/svg10.dtd">
<svg version="1.0" xmlns="http://www.w3.org/2000/svg"
 width="256.000000pt" height="256.000000pt" viewBox="0 0 256.000000 256.000000"
 preserveAspectRatio="xMidYMid meet">

<g transform="translate(0.000000,256.000000) scale(0.100000,-0.100000)"
fill="#000000" stroke="none">
<path d="M573 2403 l-173 -77 0 -174 0 -174 213 -102 c116 -57 322 -156 457
-221 135 -64 248 -120 252 -124 4 -3 -201 -108 -455 -232 l-462 -226 -3 -174
-2 -174 674 -322 675 -322 173 78 173 78 3 536 c1 296 0 537 -3 537 -3 0 -82
-34 -175 -76 l-170 -77 0 -364 c0 -288 -3 -364 -12 -360 -82 32 -896 433 -891
438 20 19 919 471 1073 540 l175 78 0 172 0 172 -360 173 c-198 96 -436 210
-530 256 -286 137 -455 218 -458 217 -1 0 -80 -35 -174 -76z"/>
</g>
</svg>
