<?xml version="1.0" standalone="no"?>
<!DOCTYPE svg PUBLIC "-//W3C//DTD SVG 20010904//EN"
 "http://www.w3.org/TR/2001/REC-SVG-20010904/DTD/svg10.dtd">
<svg version="1.0" xmlns="http://www.w3.org/2000/svg"
 width="256.000000pt" height="256.000000pt" viewBox="0 0 256.000000 256.000000"
 preserveAspectRatio="xMidYMid meet">

<g transform="translate(0.000000,256.000000) scale(0.100000,-0.100000)"
fill="#000000" stroke="none">
<path d="M1105 2465 c-127 -20 -232 -52 -340 -105 -117 -57 -196 -110 -297
-201 -121 -109 -123 -90 27 -289 71 -93 131 -170 135 -170 3 0 29 29 57 64 29
35 71 80 95 99 48 39 156 107 171 107 5 0 52 -41 103 -91 l93 -92 28 18 c15
10 116 82 223 160 107 77 259 186 337 240 79 55 143 103 143 107 0 13 -136 77
-228 108 -169 57 -370 73 -547 45z"/>
<path d="M1877 2065 c-91 -68 -168 -129 -172 -135 -4 -7 3 -19 16 -28 87 -59
249 -256 249 -302 0 -8 -40 -56 -90 -105 -49 -49 -90 -95 -90 -102 0 -10 484
-657 521 -697 13 -14 33 17 74 114 158 372 110 823 -123 1150 -49 69 -175 205
-203 220 -13 7 -53 -18 -182 -115z"/>
<path d="M192 1773 c-123 -268 -144 -546 -62 -843 27 -98 116 -277 182 -364
58 -78 182 -206 198 -206 7 0 315 226 350 257 3 3 -13 19 -35 36 -95 73 -235
244 -235 287 0 9 39 54 86 100 47 47 90 93 95 103 8 14 -38 80 -257 367 -147
193 -270 350 -274 350 -4 0 -25 -39 -48 -87z"/>
<path d="M1885 800 c-54 -70 -139 -143 -219 -190 l-57 -32 -99 96 c-54 53
-104 96 -110 96 -7 0 -172 -120 -369 -267 l-356 -267 80 -37 c196 -93 349
-124 570 -116 166 6 279 29 418 87 150 62 308 173 419 296 l37 41 -125 169
c-69 93 -129 173 -134 177 -4 5 -29 -19 -55 -53z"/>
</g>
</svg>
